<?xml version="1.0" encoding="UTF-8" standalone="no"?>
<svg width="47px" height="47px" viewBox="0 0 47 47" version="1.1" xmlns="http://www.w3.org/2000/svg" xmlns:xlink="http://www.w3.org/1999/xlink">
    <!-- Generator: Sketch 39.1 (31720) - http://www.bohemiancoding.com/sketch -->
    <title>icon-codepen</title>
    <desc>Created with Sketch.</desc>
    <defs></defs>
    <g id="Page-1" stroke="none" stroke-width="1" fill="none" fill-rule="evenodd">
        <g id="Desktop-HD" transform="translate(-569.000000, -1120.000000)" fill="#FFFFFF">
            <g id="datasets-copy" transform="translate(484.000000, 1077.000000)">
                <path d="M122.721015,70.833253 C122.721015,70.8871197 122.717223,70.9402085 122.710125,70.9932973 C122.7075,71.0105074 122.703319,71.0284954 122.700402,71.0457055 C122.694082,71.0801257 122.688053,71.1145459 122.679011,71.1481883 C122.673857,71.1684126 122.66637,71.1877618 122.659953,71.2073055 C122.65023,71.2371558 122.640604,71.2672006 122.628644,71.2971481 C122.62038,71.3172752 122.61017,71.3367217 122.601322,71.3561681 C122.588196,71.3838793 122.574681,71.4107154 122.559804,71.437746 C122.548817,71.4564146 122.536566,71.4751804 122.524898,71.493849 C122.508466,71.5193239 122.491742,71.5440208 122.473365,71.56794 C122.45985,71.5866086 122.446043,71.6038187 122.431166,71.6210288 C122.412011,71.6433922 122.391787,71.6658529 122.370493,71.6867578 C122.354353,71.7032873 122.338601,71.7197195 122.321877,71.7346933 C122.299806,71.7549176 122.276275,71.7743641 122.252356,71.7930327 C122.234271,71.8073258 122.21638,71.8215217 122.197226,71.8349398 C122.190225,71.8395097 122.183905,71.8454409 122.17671,71.8499135 L109.178048,80.5160306 C108.972694,80.6529337 108.736614,80.7216769 108.499854,80.7216769 C108.263872,80.7216769 108.027404,80.6529337 107.822049,80.5160306 L94.8229986,71.8499135 C94.8161923,71.8454409 94.8098722,71.8395097 94.8031632,71.8349398 C94.7840085,71.8215217 94.7657289,71.8073258 94.7477409,71.7930327 C94.7238219,71.7743641 94.7005834,71.7549176 94.6785117,71.7346933 C94.6616906,71.7197195 94.6456473,71.7032873 94.6295068,71.6867578 C94.6082129,71.6658529 94.5884748,71.6433922 94.5685423,71.6210288 C94.5543464,71.6038187 94.5401505,71.5866086 94.5267325,71.56794 C94.5087445,71.5440208 94.4915345,71.5193239 94.4753939,71.493849 C94.4630455,71.4751804 94.4514749,71.4564146 94.4402932,71.437746 C94.4253194,71.4107154 94.4119014,71.3838793 94.3987751,71.3561681 C94.3894408,71.3367217 94.3800093,71.3172752 94.3714529,71.2971481 C94.3594933,71.2672006 94.3493812,71.2371558 94.3400469,71.2073055 C94.3333379,71.1877618 94.3266289,71.1684126 94.3209894,71.1481883 C94.3119469,71.1145459 94.3060157,71.0801257 94.2995984,71.0457055 C94.2966814,71.0284954 94.2922088,71.0105074 94.2898752,70.9932973 C94.2827772,70.9402085 94.2786935,70.8871197 94.2786935,70.833253 L94.2786935,62.1671359 C94.2786935,62.1132692 94.2827772,62.0601804 94.2898752,62.0077722 C94.2922088,61.9898815 94.2966814,61.9726714 94.2995984,61.9546834 C94.3060157,61.9202632 94.3119469,61.885843 94.3209894,61.8522006 C94.3266289,61.8319763 94.3333379,61.8125299 94.3400469,61.7930834 C94.3493812,61.7631359 94.3594933,61.7332856 94.3714529,61.7040187 C94.3800093,61.6838916 94.3894408,61.6636673 94.3987751,61.6442208 C94.4119014,61.6165096 94.4253194,61.5895763 94.4402932,61.5634208 C94.4514749,61.5439743 94.4630455,61.5253058 94.4753939,61.5065399 C94.4915345,61.4811623 94.5087445,61.4564653 94.5267325,61.4324489 C94.5401505,61.4145582 94.5543464,61.3965702 94.5685423,61.3794574 C94.5884748,61.3569967 94.6082129,61.3345361 94.6295068,61.3135339 C94.6456473,61.2971016 94.6616906,61.2806694 94.6785117,61.2656956 C94.7005834,61.2454713 94.7238219,61.2260248 94.7477409,61.207259 C94.7657289,61.1930631 94.7840085,61.1788672 94.8031632,61.1654491 C94.8098722,61.1608792 94.8161923,61.1549481 94.8229986,61.1504754 L107.822049,52.4843583 C108.232758,52.2105522 108.767242,52.2105522 109.178048,52.4843583 L122.17671,61.1504754 C122.183905,61.1549481 122.190225,61.1608792 122.197226,61.1654491 C122.21638,61.1788672 122.234271,61.1930631 122.252356,61.207259 C122.276275,61.2260248 122.299806,61.2454713 122.321877,61.2656956 C122.338601,61.2806694 122.354353,61.2971016 122.370493,61.3135339 C122.391787,61.3345361 122.412011,61.3569967 122.431166,61.3794574 C122.446043,61.3965702 122.45985,61.4145582 122.473365,61.4324489 C122.491742,61.4564653 122.508466,61.4811623 122.524898,61.5065399 C122.536566,61.5253058 122.548817,61.5439743 122.559804,61.5634208 C122.574681,61.5895763 122.588196,61.6165096 122.601322,61.6442208 C122.61017,61.6636673 122.62038,61.6838916 122.628644,61.7040187 C122.640604,61.7332856 122.65023,61.7631359 122.659953,61.7930834 C122.66637,61.8125299 122.673857,61.8319763 122.679011,61.8522006 C122.688053,61.885843 122.694082,61.9202632 122.700402,61.9546834 C122.703319,61.9726714 122.7075,61.9898815 122.710125,62.0077722 C122.717223,62.0601804 122.721015,62.1132692 122.721015,62.1671359 L122.721015,70.833253 L122.721015,70.833253 Z M108.499854,43.5 C95.7977499,43.5 85.5,53.7973828 85.5,66.5001945 C85.5,79.2031034 95.7977499,89.5 108.499854,89.5 C121.202736,89.5 131.5,79.2031034 131.5,66.5001945 C131.5,53.7973828 121.202736,43.5 108.499854,43.5 Z M108.499874,63.6087695 L104.177228,66.5001653 L108.499874,69.3916583 L112.822811,66.5001653 L108.499874,63.6087695 Z M109.722207,71.5147345 L109.722207,77.2153648 L119.298398,70.8317751 L115.021062,67.9710075 L109.722207,71.5147345 Z M97.7016508,70.8317362 L107.277744,77.2153259 L107.277744,71.5146956 L101.979375,67.9709686 L97.7016508,70.8317362 Z M119.298427,62.1686625 L109.722236,55.7850727 L109.722236,61.4856058 L115.021092,65.030208 L119.298427,62.1686625 Z M107.277774,61.4856155 L107.277774,55.7850825 L97.70168,62.1686722 L101.979307,65.0302177 L107.277774,61.4856155 Z M96.7231171,64.4548555 L96.7231171,68.545514 L99.7810653,66.5002334 L96.7231171,64.4548555 Z M120.276912,68.5455432 L120.276912,64.4548847 L117.21945,66.5001653 L120.276912,68.5455432 Z" id="icon-codepen"></path>
            </g>
        </g>
    </g>
</svg>