<?xml version="1.0" encoding="UTF-8" standalone="no"?>
<svg width="37px" height="36px" viewBox="0 0 37 36" version="1.1" xmlns="http://www.w3.org/2000/svg" xmlns:xlink="http://www.w3.org/1999/xlink" >
    <!-- Generator: Sketch 3.5.2 (25235) - http://www.bohemiancoding.com/sketch -->
    <title>icon-index</title>
    <desc>Created with Sketch.</desc>
    <defs></defs>
    <g id="Page-1" stroke="none" stroke-width="1" fill="none" fill-rule="evenodd" >
        <g id="Desktop-HD"  transform="translate(-806.000000, -1188.000000)" fill="#FFFFFF">
            <g id="datasets"  transform="translate(715.000000, 1139.000000)">
                <path d="M127.375,79.92417 C127.375,82.6555292 119.37209,84.6652351 109.5,84.6652351 C99.6279101,84.6652351 91.625,82.4678252 91.625,79.92417 L91.625,53.5794927 C92.0558565,51.1179838 100.283531,49.3414286 109.5,49.3414286 C119.37209,49.3414286 127.375,51.4662835 127.375,54.0103492 L127.375,79.92417 Z M109.561333,58.3589797 C118.489914,58.3589797 125.727959,56.6719248 125.727959,54.5908371 C125.727959,52.5097495 118.489914,50.8226946 109.561333,50.8226946 C100.632752,50.8226946 93.3947073,52.5097495 93.3947073,54.5908371 C93.3947073,56.6719248 100.632752,58.3589797 109.561333,58.3589797 Z M125.727959,62.6447399 C125.727959,64.7258276 118.489914,66.4128825 109.561333,66.4128825 C100.632752,66.4128825 93.3947073,64.7258276 93.3947073,62.6447399 L93.3947073,57.5395145 C93.3947073,57.5395145 100.632752,60.0921272 109.561333,60.0921272 C118.489914,60.0921272 125.727959,57.5395145 125.727959,57.5395145 L125.727959,62.6447399 Z M125.727959,70.6986427 C125.727959,72.7797304 118.489914,74.4667852 109.561333,74.4667852 C100.632752,74.4667852 93.3947073,72.7797304 93.3947073,70.6986427 L93.3947073,65.5934173 C93.3947073,65.5934173 100.632752,68.14603 109.561333,68.14603 C118.489914,68.14603 125.727959,65.5934173 125.727959,65.5934173 L125.727959,70.6986427 Z M125.727959,78.7525454 C125.727959,80.8336331 118.489914,82.520688 109.561333,82.520688 C100.632752,82.520688 93.3947073,80.8336331 93.3947073,78.7525454 L93.3947073,73.64732 C93.3947073,73.64732 100.632752,76.1999327 109.561333,76.1999327 C118.489914,76.1999327 125.727959,73.64732 125.727959,73.64732 L125.727959,78.7525454 Z" id="icon-index" ></path>
            </g>
        </g>
    </g>
</svg>