<?xml version="1.0" encoding="UTF-8" standalone="no"?>
<svg width="41px" height="40px" viewBox="0 0 41 40" version="1.1" xmlns="http://www.w3.org/2000/svg" xmlns:xlink="http://www.w3.org/1999/xlink" >
    <!-- Generator: Sketch 3.5.2 (25235) - http://www.bohemiancoding.com/sketch -->
    <title>icon-github</title>
    <desc>Created with Sketch.</desc>
    <defs></defs>
    <g id="Page-1" stroke="none" stroke-width="1" fill="none" fill-rule="evenodd" >
        <g id="Desktop-HD"  transform="translate(-803.000000, -733.000000)" fill="#FFFFFF">
            <g id="github"  transform="translate(714.000000, 685.000000)">
                <g id="icon-github" transform="translate(89.000000, 48.000000)" >
                    <path d="M20.4981123,0 C9.17934866,0 0,9.17809018 0,20.5006292 C0,29.5579054 5.87332331,37.2409221 14.0194604,39.9516867 C15.0451211,40.1404586 15.4188895,39.5074434 15.4188895,38.9637803 C15.4188895,38.4767488 15.4012708,37.1880659 15.3912029,35.4777924 C9.68903281,36.7161362 8.48592652,32.7292735 8.48592652,32.7292735 C7.55339329,30.3608152 6.2093373,29.7303171 6.2093373,29.7303171 C4.34804629,28.4592529 6.35028699,28.4844225 6.35028699,28.4844225 C8.40790079,28.6291476 9.49019307,30.5974094 9.49019307,30.5974094 C11.3187636,33.7297646 14.288775,32.8249179 15.4566439,32.300132 C15.6428988,30.9762117 16.1727186,30.0726235 16.7579115,29.5604224 C12.2059916,29.0431873 7.41999447,27.2838331 7.41999447,19.4284048 C7.41999447,17.1908284 8.21912889,15.3597409 9.53046441,13.9275914 C9.31903987,13.4090979 8.61554989,11.3237975 9.73182111,8.50228675 C9.73182111,8.50228675 11.4521624,7.95107278 15.3685503,10.6039473 C17.003315,10.1483778 18.7576353,9.9218515 20.5006292,9.91304214 C22.2423647,9.9218515 23.9954265,10.1483778 25.6327082,10.6039473 C29.5465791,7.95107278 31.2644035,8.50228675 31.2644035,8.50228675 C32.3831916,11.3237975 31.6797016,13.4090979 31.4695356,13.9275914 C32.7833881,15.3597409 33.5762301,17.1908284 33.5762301,19.4284048 C33.5762301,27.3039688 28.7826821,29.0368949 24.2169189,29.5440621 C24.9518708,30.1770773 25.6075386,31.4280058 25.6075386,33.339636 C25.6075386,36.0806041 25.582369,38.2917524 25.582369,38.9637803 C25.582369,39.5124774 25.952362,40.1505264 26.9918659,39.9504282 C35.1317106,37.2333712 41,29.5553884 41,20.5006292 C41,9.17809018 31.8206513,0 20.4981123,0" id="Fill-50"></path>
                </g>
            </g>
        </g>
    </g>
</svg>