<svg width="70" height="70" viewBox="0 0 70 70" xmlns="http://www.w3.org/2000/svg"><title>algolia-helper</title><defs><linearGradient x1="29.717%" y1="7.735%" x2="72.331%" y2="79.761%" id="a"><stop stop-color="#4ABFDF" offset="0%"/><stop stop-color="#2897C5" offset="100%"/></linearGradient></defs><g fill="none" fill-rule="evenodd"><circle fill="#FFF" cx="35.5" cy="35.5" r="33.5"/><path d="M35 70c19.33 0 35-15.67 35-35S54.33 0 35 0 0 15.67 0 35s15.67 35 35 35zM16.58 36.809c0 10.712 8.633 19.398 19.286 19.398 10.652 0 19.286-8.686 19.286-19.398S46.518 17.41 35.866 17.41c-10.653 0-19.286 8.687-19.286 19.399zm19.286-13.856c7.595 0 13.775 6.216 13.775 13.856s-6.18 13.856-13.775 13.856c-7.596 0-13.776-6.216-13.776-13.856s6.18-13.856 13.776-13.856zm6.656-7.942c.005-.075.022-.147.022-.224v-1.749c-.001-1.93-1.55-3.496-3.462-3.497h-6.06c-1.91 0-3.46 1.566-3.46 3.497v1.719a22.219 22.219 0 0 1 12.96.254zm-21.151 3.423a3.44 3.44 0 0 0-4.897 0l-.612.619a3.524 3.524 0 0 0 0 4.946l.652.658a22.818 22.818 0 0 1 5.206-5.869l-.35-.354zm17.381 8.169l-2.805 10 9.035-4.982a10.355 10.355 0 0 0-6.23-5.018z" fill="url(#a)"/></g></svg>