<svg width="70" height="70" viewBox="0 0 70 70" xmlns="http://www.w3.org/2000/svg"><title>algolia-helper</title><defs><linearGradient x1="29.717%" y1="7.735%" x2="72.331%" y2="79.761%" id="a"><stop stop-color="#4ABFDF" offset="0%"/><stop stop-color="#2897C5" offset="100%"/></linearGradient></defs><g fill="none" fill-rule="evenodd"><circle fill="#FFF" cx="35.5" cy="35.5" r="33.5"/><path d="M35 70c19.33 0 35-15.67 35-35S54.33 0 35 0 0 15.67 0 35s15.67 35 35 35zM16.58 36.81c0 10.71 8.633 19.397 19.286 19.397 10.652 0 19.286-8.686 19.286-19.398 0-10.713-8.634-19.4-19.286-19.4-10.653 0-19.286 8.687-19.286 19.4zm19.286-13.857c7.595 0 13.775 6.216 13.775 13.856s-6.18 13.855-13.774 13.855c-7.596 0-13.776-6.216-13.776-13.856s6.18-13.857 13.776-13.857zm6.656-7.942c.005-.074.022-.146.022-.223v-1.75c0-1.93-1.55-3.495-3.462-3.496h-6.06c-1.91.002-3.46 1.567-3.46 3.498v1.72a22.22 22.22 0 0 1 12.96.253zm-21.15 3.424a3.44 3.44 0 0 0-4.898 0l-.612.62a3.524 3.524 0 0 0 0 4.945l.652.657a22.818 22.818 0 0 1 5.206-5.87l-.35-.353zm17.38 8.17L35.947 36.6l9.035-4.98a10.355 10.355 0 0 0-6.23-5.02z" fill="url(#a)"/></g></svg>