<svg width="70" height="70" viewBox="0 0 70 70" xmlns="http://www.w3.org/2000/svg"><title>android</title><g fill="none" fill-rule="evenodd"><circle fill="#FFF" cx="35.5" cy="35.5" r="33.5"/><path d="M35 70c19.33 0 35-15.67 35-35S54.33 0 35 0 0 15.67 0 35s15.67 35 35 35zM14.37 25.866c-1.933-.001-3.5 1.577-3.5 3.519l.002 14.737c0 1.948 1.57 3.52 3.502 3.523a3.51 3.51 0 0 0 3.5-3.523v-14.74c0-1.94-1.57-3.518-3.503-3.516zm28.237-13.234l2.444-4.486a.485.485 0 1 0-.85-.47l-2.47 4.53a16.767 16.767 0 0 0-6.86-1.445 16.738 16.738 0 0 0-6.845 1.441l-2.471-4.52a.48.48 0 0 0-.658-.195.483.483 0 0 0-.193.66l2.445 4.483c-4.804 2.49-8.05 7.232-8.047 12.676l31.54-.003c.001-5.443-3.238-10.175-8.035-12.671zm-14.91 6.931a1.326 1.326 0 0 1-1.318-1.328c0-.73.592-1.33 1.32-1.33a1.33 1.33 0 0 1-.002 2.658zm14.361-.002a1.324 1.324 0 0 1-1.322-1.33c0-.728.592-1.329 1.323-1.331.725.002 1.32.603 1.32 1.333 0 .733-.592 1.328-1.32 1.328zM19.237 49.367a3.74 3.74 0 0 0 3.735 3.757h2.544l.003 7.798c0 1.941 1.569 3.52 3.499 3.52 1.935 0 3.502-1.58 3.5-3.522v-7.796l4.728-.001v7.797c.001 1.942 1.572 3.521 3.502 3.518 1.935.001 3.503-1.578 3.503-3.521l-.002-7.795 2.553-.001c2.06 0 3.736-1.682 3.736-3.757l-.004-22.84-31.303.006.006 22.837zm36.15-23.506c-1.934-.001-3.5 1.576-3.5 3.52v14.737a3.508 3.508 0 0 0 3.503 3.52c1.934-.001 3.499-1.574 3.5-3.52l-.003-14.738c0-1.944-1.567-3.52-3.5-3.519z" fill="#A4C145"/></g></svg>