<svg width="70" height="70" viewBox="0 0 70 70" xmlns="http://www.w3.org/2000/svg"><title>autocompletejs</title><g fill="none" fill-rule="evenodd"><circle fill="#FFF" cx="35.5" cy="35.5" r="33.5"/><path d="M35 70c19.33 0 35-15.67 35-35S54.33 0 35 0 0 15.67 0 35s15.67 35 35 35zm.5-59.162c-11.515 0-20.853 9.385-20.853 20.957 0 11.572 9.338 20.957 20.853 20.957 11.515 0 20.853-9.385 20.853-20.957 0-11.572-9.338-20.957-20.853-20.957zM17.498 31.691c0-9.942 8.017-17.998 17.91-17.998s17.91 8.056 17.91 17.998c0 9.942-8.017 17.999-17.91 17.999s-17.91-8.057-17.91-17.999zm2.94.685h1.756c0-7.328 5.886-13.244 13.178-13.244v-1.766c-8.258 0-14.935 6.71-14.935 15.01zm13.777 21.99v3.536H21.311v2.358h28.154v-2.358H36.561v-3.537h-2.346z" fill="#18AEA3"/></g></svg>