<svg width="70" height="70" viewBox="0 0 70 70" xmlns="http://www.w3.org/2000/svg"><title>autocompletejs</title><defs><linearGradient x1="80.619%" y1="100%" x2="22.991%" y2="11.585%" id="a"><stop stop-color="#273786" offset="0%"/><stop stop-color="#2897C5" offset="100%"/></linearGradient><radialGradient cx="79.104%" cy="82.387%" fx="79.104%" fy="82.387%" r="83.688%" id="b"><stop stop-color="#4A0606" offset="0%"/><stop stop-color="#1198B2" offset="100%"/></radialGradient></defs><g fill="none" fill-rule="evenodd"><path d="M35 70c19.33 0 35-15.67 35-35S54.33 0 35 0 0 15.67 0 35s15.67 35 35 35z" fill="url(#a)"/><path d="M14.986 34.718c0-11.33 9.136-20.51 20.409-20.51s20.409 9.18 20.409 20.51c0 11.33-9.136 20.51-20.41 20.51-11.272 0-20.408-9.18-20.408-20.51z" fill="#FFF" opacity=".355"/><path d="M11.737 34.836c0 13.186 10.642 23.88 23.763 23.88 13.121 0 23.763-10.694 23.763-23.88 0-13.186-10.642-23.88-23.763-23.88-13.121 0-23.763 10.694-23.763 23.88z" stroke="#FFF" stroke-width="2"/><path d="M22.747 55.759a21.006 21.006 0 0 1-4.168-12.595c0-11.614 9.373-21.033 20.93-21.033 6.781 0 12.81 3.243 16.636 8.27a27.996 27.996 0 0 0-5.478-.538c-14.712 0-26.778 11.406-27.92 25.896z" fill="url(#b)" opacity=".476" transform="rotate(-180 37.362 38.945)"/><circle fill="#FFF" opacity=".165" cx="28" cy="26" r="6"/><circle fill="#FFF" opacity=".497" cx="35.5" cy="34.5" r="1.5"/><circle fill="#FFF" opacity=".497" cx="29.5" cy="43.5" r="1.5"/><circle fill="#7AE9F5" opacity=".497" cx="50" cy="39" r="1"/><circle fill="#82F8FF" opacity=".853" cx="46.5" cy="47.5" r="1.5"/><circle fill="#FFF" cx="29.5" cy="26.5" r="2.5"/><circle fill="#FFF" opacity=".152" cx="35.5" cy="36.5" r="2.5"/></g></svg>