<svg width="70" height="70" viewBox="0 0 70 70" xmlns="http://www.w3.org/2000/svg"><title>csharp</title><g fill="none" fill-rule="evenodd"><circle fill="#FFF" cx="34.5" cy="35.5" r="33.5"/><path d="M51.372 47.423l2.42 1.858c-2.08 2.75-4.71 4.84-7.89 6.27-3.18 1.434-6.693 2.15-10.54 2.15-6.712 0-12.207-2.12-16.486-6.358-4.278-4.24-6.417-9.598-6.417-16.074 0-4.004.99-7.703 2.972-11.1 1.982-3.394 4.73-6.053 8.243-7.977 3.513-1.922 7.29-2.884 11.334-2.884 4.042 0 7.673.766 10.892 2.296 3.218 1.53 5.848 3.73 7.89 6.595l-2.28 1.75c-1.767-2.23-4.39-4.3-6.924-5.505-2.76-1.312-5.872-1.968-9.338-1.968-3.466 0-6.705.824-9.716 2.473-3.012 1.65-5.368 3.93-7.067 6.84-1.7 2.91-2.55 6.082-2.55 9.514 0 5.554 1.835 10.147 5.503 13.78 3.668 3.636 8.38 5.453 14.133 5.453 3.298 0 6.31-.614 9.035-1.843 2.44-1.1 4.996-3.157 6.784-5.267zM35 70c19.33 0 35-15.67 35-35S54.33 0 35 0 0 15.67 0 35s15.67 35 35 35zm23.187-30.473l-3.05.002-.81 3.785-1.875.007.835-3.792-3.634-.007-.77 3.79-1.898.002.792-3.79-1.71.002V37.62l2.107.003.61-3.04-2.717.002v-1.883h3.11l.82-3.813 1.9-.002-.845 3.813 3.56.003.824-3.813h1.904l-.847 3.812h1.694v1.883H56.14l-.63 3.036h2.677v1.907zm-3.946-4.94l-3.556-.007-.658 3.037 3.61.006.605-3.037z" fill="#864F92"/></g></svg>