<svg width="70" height="70" viewBox="0 0 70 70" xmlns="http://www.w3.org/2000/svg"><title>csharp</title><g fill="none" fill-rule="evenodd"><circle fill="#FFF" cx="34.5" cy="35.5" r="33.5"/><path d="M51.372 47.423l2.42 1.858c-2.081 2.748-4.711 4.838-7.89 6.27-3.18 1.433-6.693 2.15-10.54 2.15-6.712 0-12.207-2.12-16.486-6.36-4.278-4.239-6.417-9.597-6.417-16.073 0-4.004.99-7.703 2.973-11.099 1.982-3.395 4.73-6.054 8.243-7.978 3.513-1.923 7.291-2.885 11.334-2.885 4.043 0 7.674.766 10.893 2.296 3.218 1.531 5.848 3.73 7.89 6.595l-2.28 1.75c-1.767-2.231-4.391-4.3-6.924-5.505-2.76-1.312-5.872-1.968-9.338-1.968-3.466 0-6.705.824-9.716 2.473-3.012 1.65-5.368 3.929-7.067 6.84-1.7 2.91-2.549 6.082-2.549 9.514 0 5.553 1.834 10.146 5.502 13.78 3.668 3.635 8.379 5.452 14.133 5.452 3.298 0 6.31-.614 9.035-1.843 2.44-1.1 4.996-3.157 6.784-5.267zM35 70c19.33 0 35-15.67 35-35S54.33 0 35 0 0 15.67 0 35s15.67 35 35 35zm23.187-30.473l-3.05.002-.809 3.786-1.876.007.835-3.792-3.634-.007-.769 3.791-1.899.001.792-3.79-1.71.002V37.62l2.107.003.61-3.041-2.717.003v-1.883h3.11l.82-3.813 1.9-.001-.845 3.813 3.56.002.824-3.813h1.904l-.847 3.812h1.694v1.883H56.14l-.63 3.036h2.677v1.906zm-3.946-4.941l-3.557-.006-.658 3.037 3.609.006.606-3.037z" fill="#864F92"/></g></svg>