<svg width="70" height="70" viewBox="0 0 70 70" xmlns="http://www.w3.org/2000/svg"><title>curl</title><g fill="none" fill-rule="evenodd"><circle fill="#FFF" cx="34.5" cy="34.5" r="33.5"/><path d="M49.239 41.889l-1.88-3.647c-.106-.213-.317-.516-.634-.91-.316-.393-.558-.65-.724-.77-.247-.18-.64-.359-1.18-.539.673-.153 1.203-.346 1.59-.58a4.064 4.064 0 0 0 1.429-1.434c.346-.59.52-1.291.52-2.104 0-.933-.227-1.724-.68-2.374a3.416 3.416 0 0 0-1.79-1.334c-.74-.24-1.809-.36-3.208-.36h-7.546V42.49h4.547v-5.947h.4a1.9 1.9 0 0 1 1.11.34c.24.173.513.55.82 1.13l2.418 4.477h5.118l-.31-.601v.601h11.595v-3.608h-7.067V27.837h-4.528v14.052zM35 70c19.33 0 35-15.67 35-35S54.33 0 35 0 0 15.67 0 35s15.67 35 35 35zM15.535 38.342l3.868.44a5.42 5.42 0 0 1-1.05 2.094 4.874 4.874 0 0 1-1.864 1.374c-.756.327-1.717.49-2.884.49-1.126 0-2.064-.105-2.813-.315a4.92 4.92 0 0 1-1.934-1.02 5.149 5.149 0 0 1-1.27-1.654c-.306-.633-.46-1.472-.46-2.518 0-1.093.187-2.003.56-2.73a4.94 4.94 0 0 1 1.12-1.434 5.16 5.16 0 0 1 1.459-.944c.793-.327 1.81-.49 3.049-.49 1.732 0 3.053.31 3.963.93.91.62 1.547 1.526 1.914 2.718l-3.828.51c-.12-.453-.339-.794-.655-1.024-.317-.23-.741-.345-1.275-.345-.673 0-1.217.241-1.634.724-.416.484-.624 1.215-.624 2.194 0 .873.206 1.536.62 1.99.412.453.939.68 1.579.68.533 0 .98-.137 1.344-.41.363-.274.635-.694.815-1.26zm13.783-10.505h4.518v8.736c0 .866-.135 1.684-.405 2.454a5.3 5.3 0 0 1-1.27 2.019c-.576.576-1.18.981-1.813 1.214-.88.327-1.936.49-3.169.49-.713 0-1.49-.05-2.334-.15-.843-.1-1.547-.298-2.114-.595a5.294 5.294 0 0 1-1.554-1.264c-.47-.547-.791-1.11-.965-1.69-.28-.932-.42-1.759-.42-2.478v-8.736h4.518v8.946c0 .8.222 1.424.665 1.874.443.45 1.058.675 1.844.675.78 0 1.391-.222 1.834-.665.444-.443.665-1.071.665-1.884v-8.946zm10.365 5.937h1.91c.206 0 .606-.067 1.199-.2.3-.06.545-.213.735-.46.19-.246.285-.53.285-.85 0-.472-.15-.835-.45-1.089-.3-.253-.863-.38-1.69-.38h-1.989v2.98z" fill="#9A407B"/></g></svg>