<svg width="70" height="70" viewBox="0 0 70 70" xmlns="http://www.w3.org/2000/svg"><title>curl</title><g fill="none" fill-rule="evenodd"><circle fill="#FFF" cx="34.5" cy="34.5" r="33.5"/><path d="M49.24 41.89l-1.88-3.648c-.107-.213-.318-.516-.635-.91-.316-.393-.558-.65-.724-.77-.246-.18-.64-.36-1.18-.54.674-.152 1.204-.345 1.59-.58a4.064 4.064 0 0 0 1.43-1.433c.346-.59.52-1.292.52-2.105 0-.933-.227-1.724-.68-2.374a3.416 3.416 0 0 0-1.79-1.333c-.74-.24-1.81-.36-3.208-.36h-7.546V42.49h4.547v-5.947h.4a1.9 1.9 0 0 1 1.11.34c.24.173.513.55.82 1.13l2.418 4.477h5.12l-.31-.6v.6h11.594v-3.608h-7.067V27.837H49.24V41.89zM35 70c19.33 0 35-15.67 35-35S54.33 0 35 0 0 15.67 0 35s15.67 35 35 35zM15.535 38.342l3.868.44a5.42 5.42 0 0 1-1.05 2.094 4.874 4.874 0 0 1-1.864 1.374c-.757.327-1.718.49-2.885.49-1.126 0-2.064-.105-2.813-.315a4.92 4.92 0 0 1-1.934-1.02 5.15 5.15 0 0 1-1.27-1.654c-.306-.632-.46-1.47-.46-2.517 0-1.093.187-2.003.56-2.73a4.94 4.94 0 0 1 1.12-1.434 5.16 5.16 0 0 1 1.46-.945c.792-.327 1.808-.49 3.048-.49 1.732 0 3.053.31 3.963.93.908.62 1.546 1.526 1.913 2.718l-3.828.51c-.12-.453-.34-.794-.655-1.024-.317-.23-.74-.346-1.275-.346-.673 0-1.217.24-1.634.724-.415.484-.623 1.215-.623 2.194 0 .873.206 1.536.62 1.99.412.453.94.68 1.58.68.532 0 .98-.137 1.343-.41.363-.274.635-.694.815-1.26zm13.783-10.505h4.518v8.736c0 .866-.135 1.684-.405 2.454a5.3 5.3 0 0 1-1.268 2.02c-.577.575-1.18.98-1.814 1.213-.88.327-1.936.49-3.17.49-.712 0-1.49-.05-2.333-.15-.843-.1-1.547-.298-2.114-.595a5.294 5.294 0 0 1-1.553-1.264c-.47-.546-.79-1.11-.965-1.688-.28-.933-.42-1.76-.42-2.48v-8.735h4.518v8.946c0 .8.222 1.424.665 1.874.443.45 1.058.675 1.844.675.78 0 1.39-.222 1.833-.665.444-.443.665-1.07.665-1.884v-8.946zm10.365 5.937h1.91c.206 0 .606-.067 1.2-.2.3-.06.544-.213.734-.46.19-.246.285-.53.285-.85 0-.472-.15-.835-.45-1.09-.3-.252-.863-.38-1.69-.38h-1.99v2.98z" fill="#9A407B"/></g></svg>