<svg width="70" height="70" viewBox="0 0 70 70" xmlns="http://www.w3.org/2000/svg"><title>django</title><g fill="none" fill-rule="evenodd"><circle fill="#326543" cx="35" cy="35" r="35"/><g fill="#FFF"><path d="M20.428 38.191c-.025 4.704 3.424 7.508 8.928 6.233V31.959c-5.573-1.698-8.905 1.736-8.928 6.232m9.096-24.257h7.58v35.88c-7.265 1.188-14.224 1.941-19.203-.842-6.41-3.584-6.925-14.973-1.853-20.046 2.572-2.571 7.75-4.382 13.308-3.2V14.44c-.015-.24-.028-.478.168-.506M49.465 21.851h-7.58v-7.917h7.58v7.917z"/><path d="M49.587 25.984c-.009 5.581-.008 9.592-.008 16.374-.322 6.664-.247 11.97-2.687 15.16-.482.628-1.504 1.546-2.359 2.19-.718.54-2.087 1.636-2.863 1.684-.784.048-2.796-1.087-3.706-1.516-1.196-.563-2.302-1.311-3.538-1.685 2.884-1.786 5.62-3.126 6.738-6.738.972-3.14.842-7.692.842-12.128 0-4.38.02-9.472.02-13.34l7.56-.001z"/></g></g></svg>