<svg width="70" height="70" viewBox="0 0 70 70" xmlns="http://www.w3.org/2000/svg"><title>django</title><g fill="none" fill-rule="evenodd"><circle fill="#326543" cx="35" cy="35" r="35"/><g fill="#FFF"><path d="M20.428 38.19c-.025 4.705 3.424 7.51 8.928 6.234V31.96c-5.573-1.7-8.905 1.735-8.928 6.23m9.096-24.256h7.58v35.88c-7.265 1.188-14.224 1.94-19.203-.842C11.49 45.388 10.977 34 16.05 28.926c2.572-2.57 7.75-4.382 13.308-3.2V14.44c-.015-.24-.028-.478.168-.506M49.465 21.85h-7.58v-7.916h7.58v7.917z"/><path d="M49.587 25.984c-.01 5.58-.008 9.592-.008 16.374-.323 6.664-.248 11.97-2.688 15.16-.482.628-1.504 1.546-2.36 2.19-.717.54-2.086 1.636-2.862 1.684-.784.048-2.796-1.087-3.706-1.516-1.196-.563-2.302-1.31-3.538-1.685 2.884-1.785 5.62-3.125 6.738-6.737.972-3.14.842-7.692.842-12.128 0-4.38.02-9.472.02-13.34h7.56z"/></g></g></svg>