<svg width="70" height="70" viewBox="0 0 70 70" xmlns="http://www.w3.org/2000/svg" xmlns:xlink="http://www.w3.org/1999/xlink"><title>go</title><defs><circle id="a" cx="31.542" cy="31.557" r="31.557"/></defs><g fill="none" fill-rule="evenodd"><circle fill="#3770A0" cx="34.984" cy="35" r="35"/><g transform="translate(3.443 3.443)"><mask id="b" fill="#fff"><use xlink:href="#a"/></mask><use fill="#3770A0" xlink:href="#a"/><g mask="url(#b)" stroke="#3770A0" stroke-width=".5"><path d="M62.36 54.568c-.156.187-.328.361-.464.56-.91 1.335-1.617 1.519-3.056.747-.425-.228-.819-.516-1.406-.89 0 .426-.006.752.002 1.077.094 4.376.319 8.754.245 13.126-.059 3.454-.695 6.884-2.092 10.062-.966 2.197-2.306 4.23-3.43 6.247.818 1.034 1.917 2.158 2.688 3.474.748 1.278.34 2.454-.731 3.214-1.365.968-2.514.821-3.615-.466-.185-.215-.359-.44-.534-.663-1.894-2.426-1.92-2.317-4.763-1.334-8.91 3.082-17.893 3.634-26.885.312-1.056-.39-1.837-.006-2.582.532-1.046.756-2.007 1.63-3.004 2.452H10.3c-2.278-2.045-2.25-3.486.137-5.466.542-.45 1.148-.824 1.743-1.247-.555-.58-1.075-1.09-1.557-1.633-2.594-2.923-4.115-6.238-4.012-10.253.14-5.508.155-11.02.221-16.53.009-.707.002-1.413.002-2.18-.196.076-.315.097-.404.161-2.926 2.141-3.426 1.484-4.888-.815v-1.46c1.389-1.812 3.548-2.013 5.708-2.639-1.104-8.165-2.337-16.325-.303-24.484-.48-.224-.808-.374-1.132-.53-2.618-1.255-3.829-3.63-3.312-6.496.458-2.541 2.5-4.4 5.289-4.516 1.34-.056 2.697.352 4.052.505.41.046.933.083 1.244-.121 3.587-2.353 7.498-3.784 11.756-4.288 1.965-.232 3.927-.498 5.89-.748h6.326c.272.07.54.173.815.204 3.967.443 7.686 1.568 11.006 3.873.276.19.794.111 1.181.048 1.346-.221 2.684-.698 4.025-.697 2.727.001 4.753 1.74 5.347 4.277.642 2.736-.39 5.14-2.8 6.518-.372.213-.746.422-1.132.64 2.46 8.307 1.197 16.77 1.69 24.789l5.168 2.448v2.19zm-5.868-3.14c-.086 0-.172.002-.257.003 0-4.703.036-9.406-.01-14.109-.046-4.64-.574-9.207-2.098-13.637-1.982-5.761-5.616-9.823-11.625-11.376-2.22-.574-4.542-1.057-6.815-1.048-3.837.015-7.723.15-11.498.778-9.47 1.578-14.155 5.055-16.408 14.573-1.192 5.036-1.485 10.203-.747 15.35a80.856 80.856 0 0 1 .697 15.877c-.301 5.621-.135 11.266-.236 16.9-.074 4.205 1.828 7.478 4.714 10.286.5.487 1.296.665 1.944 1.007.67.354 1.55.575 1.95 1.132 1.176 1.648 2.866 2.308 4.662 2.855 5.595 1.702 11.293 1.627 16.983.76 4.208-.64 8.14-1.809 11.644-4.673 2.376-1.943 4.083-4.08 5.245-6.763 1.366-3.154 2.12-6.515 2.147-9.927.048-5.995-.18-11.992-.292-17.988zM7.067 25.478c.29-1.425 1.499-2.594.102-4.134-.805-.887.289-2.348 1.545-2.252.348.027.69.131 1.001.194l2.149-2.892c-2.344-.905-4.574-1.101-6.66.32-1.717 1.167-2.208 2.941-1.846 4.925.371 2.038 1.727 3.184 3.71 3.84zm45.324-7.426c.913-.413 1.87-.637 2.548.399.64.977.152 1.748-.545 2.471-.133.138-.228.447-.168.614.321.893.698 1.766 1.067 2.676 2.077-.993 3.448-2.35 3.447-4.677-.001-2.024-.784-3.642-2.692-4.5-1.991-.894-3.944-.645-5.902.341l2.245 2.676zM11.47 89.082l.29.197c-.455.72-.931 1.429-1.361 2.164-.337.576-.167.947.49 1.192.994.37 1.71-.092 2.433-.65 1.263-.976 2.536-1.94 3.858-2.948-.95-.985-1.717-2.808-3.672-2.525-1.96.284-3.495 1.508-4.295 3.37-.227.529.056 1.276.104 1.923l.295-.066 1.858-2.658zm36.35-.945c.991 1.076 1.903 2.08 2.832 3.068.33.351.652.83 1.066.952.484.144 1.085.027 1.587-.131.097-.03.066-.81-.075-1.18-.252-.657-.632-1.264-.958-1.892l.352-.185 1.466 2.768c1.096-1.24.583-3.067-1.314-4.715-1.771-1.54-2.8-1.252-4.955 1.315zM2.602 55.62c.369 1.01 1 1.243 1.921.914 2.132-.763 2.89-2.232 2.41-4.907-1.67.238-3.329.541-4.568 1.79-.333.335-.249 1.085-.397 1.855l1.726-.818.13.265-1.222.901zm58.846-.66l-1.381-1.108.171-.232 1.525.837c.868-1.855-1.484-3.68-4.447-3.471-.323 2.863.188 3.997 2.153 4.703.788.283 1.506.26 1.979-.728z" fill="#3770A0"/><path d="M56.492 51.428c.112 5.996.34 11.993.292 17.988-.028 3.412-.78 6.773-2.147 9.927-1.162 2.683-2.869 4.82-5.245 6.763-3.503 2.864-7.436 4.033-11.644 4.674-5.69.866-11.388.941-16.983-.761-1.796-.547-3.486-1.207-4.663-2.855-.399-.557-1.278-.778-1.95-1.132-.647-.342-1.443-.52-1.943-1.007-2.886-2.808-4.788-6.081-4.714-10.287.1-5.633-.065-11.278.236-16.899a80.856 80.856 0 0 0-.697-15.877c-.738-5.147-.445-10.314.747-15.35 2.253-9.518 6.938-12.995 16.408-14.573 3.775-.629 7.66-.763 11.498-.778 2.273-.01 4.595.474 6.815 1.048 6.009 1.553 9.643 5.615 11.625 11.376 1.524 4.43 2.052 8.997 2.097 13.637.047 4.703.01 9.406.01 14.109l.258-.003zM27.94 35.386c0 1.191-.106 2.292.024 3.363.204 1.673 1.75 2.203 3.038 1.112.177-.15.32-.34.517-.552.635 1.071 1.543 1.195 2.549.865 1.013-.333 1.096-1.182 1.047-2.08-.047-.87-.08-1.741-.121-2.689 1.226.049 2.362-.072 2.75-1.363.347-1.154-.08-2.154-.975-2.94a4.965 4.965 0 0 0-.883-.635c-.685-.372-1.396-.567-1.476-1.64-.033-.456-.927-1.15-1.48-1.204a11.453 11.453 0 0 0-3.677.254c-.549.13-.958.895-1.405 1.395-.344.386-.58.901-.983 1.194-.873.634-1.722 1.247-1.795 2.44-.096 1.576.73 2.26 2.87 2.48zm12.733-5.542c4.607.01 7.876-3.11 7.917-7.552.04-4.295-3.53-7.821-7.922-7.823-4.326-.002-7.93 3.498-7.93 7.7 0 4.218 3.566 7.667 7.935 7.675zM21.39 15.337c-4.434-.016-7.959 3.358-7.968 7.628-.008 4.243 3.554 7.706 7.928 7.704 4.31-.001 7.88-3.437 7.904-7.604.024-4.287-3.46-7.711-7.864-7.728z" fill="#FFF"/><path d="M7.067 25.478c-1.982-.655-3.338-1.8-3.71-3.839-.36-1.984.13-3.758 1.847-4.926 2.086-1.42 4.316-1.224 6.66-.32l-2.149 2.893c-.312-.063-.653-.167-1-.194-1.257-.096-2.35 1.365-1.546 2.252 1.397 1.54.189 2.709-.102 4.134M52.391 18.052l-2.245-2.676c1.958-.986 3.91-1.235 5.902-.34 1.908.857 2.691 2.475 2.692 4.5 0 2.326-1.37 3.683-3.447 4.676-.37-.91-.746-1.783-1.067-2.676-.06-.167.035-.476.168-.614.697-.723 1.185-1.494.545-2.471-.679-1.036-1.635-.812-2.548-.399M2.601 55.621l1.222-.9-.13-.266-1.726.818c.148-.77.064-1.52.397-1.856 1.239-1.248 2.897-1.551 4.568-1.79.48 2.676-.278 4.145-2.41 4.908-.921.33-1.552.096-1.92-.914M61.447 54.962c-.473.988-1.19 1.011-1.979.728-1.965-.706-2.476-1.84-2.153-4.703 2.963-.21 5.315 1.616 4.447 3.47l-1.525-.836-.171.232 1.38 1.109" fill="#FFF"/><path d="M27.94 35.386c-2.14-.22-2.966-.904-2.87-2.48.073-1.193.922-1.806 1.795-2.44.403-.293.639-.808.983-1.194.447-.5.856-1.264 1.405-1.395a11.453 11.453 0 0 1 3.677-.254c.553.053 1.447.748 1.48 1.203.08 1.074.791 1.269 1.476 1.641.316.173.611.397.883.636.896.785 1.322 1.785.975 2.94-.388 1.29-1.524 1.41-2.75 1.362.042.948.074 1.819.12 2.688.05.899-.033 1.748-1.046 2.08-1.006.331-1.914.207-2.549-.864-.197.212-.34.403-.517.552-1.287 1.091-2.834.56-3.038-1.112-.13-1.071-.024-2.172-.024-3.363zm-.36-.527c.215-.038.676-.05 1.083-.205 1.842-.706 3.65-.96 5.46.114.292.174.705.169 1.065.192.838.056 1.711-.003 2.07-.894.428-1.068.02-2.04-.86-2.682-.757-.552-1.529-1.546-2.64-.803-1.581 1.056-3.184 1.014-4.846.331-1.276-.524-2.895.223-3.3 1.556-.394 1.302.387 2.374 1.969 2.391zm3.82-.486c-.832.232-1.502.364-2.123.615-.278.113-.608.436-.658.711-.16.867-.265 1.756-.264 2.637.001.796.23 1.592 1.246 1.607.953.014 1.514-.58 1.6-1.486.122-1.275.132-2.56.2-4.084zm.543.224c0 1.42-.08 2.825.052 4.21.037.387.69.98 1.085 1.001.49.028 1.288-.318 1.466-.72.938-2.12-.194-4.07-2.603-4.49zM40.673 29.844c-4.37-.008-7.936-3.457-7.936-7.674 0-4.203 3.605-7.703 7.931-7.7 4.391.001 7.961 3.527 7.922 7.822-.04 4.442-3.31 7.561-7.917 7.552zm-7.482-7.763c-.038 4.029 3.315 7.306 7.483 7.315 4.316.009 7.451-2.947 7.508-7.078.054-3.995-3.338-7.358-7.456-7.392-4.077-.034-7.499 3.215-7.535 7.155zM21.39 15.337c4.405.017 7.888 3.44 7.864 7.728-.023 4.167-3.595 7.603-7.904 7.604-4.374.002-7.936-3.46-7.928-7.704.01-4.27 3.534-7.644 7.968-7.628zm-.046.438c-4.156.004-7.463 3.195-7.466 7.205-.003 3.999 3.32 7.219 7.455 7.226 4.122.007 7.463-3.223 7.467-7.22.003-4.012-3.308-7.214-7.456-7.21z" fill="#3770A0"/><path d="M27.58 34.859c-1.581-.017-2.362-1.09-1.968-2.39.405-1.334 2.024-2.081 3.3-1.557 1.662.683 3.265.725 4.846-.331 1.111-.743 1.883.251 2.64.803.88.641 1.288 1.614.86 2.682-.359.891-1.232.95-2.07.894-.36-.023-.773-.018-1.064-.192-1.812-1.074-3.619-.82-5.461-.114-.407.155-.868.167-1.082.205" fill="#FFF"/><path d="M31.4 34.373c-.067 1.524-.077 2.81-.198 4.084-.087.907-.648 1.5-1.601 1.486-1.017-.015-1.245-.81-1.246-1.607 0-.88.104-1.77.264-2.637.05-.275.38-.598.658-.71.621-.252 1.29-.384 2.124-.616M31.943 34.597c2.409.42 3.541 2.371 2.603 4.492-.178.4-.976.747-1.466.72-.396-.022-1.048-.615-1.085-1.003-.133-1.384-.052-2.79-.052-4.209M33.19 22.081c.037-3.94 3.46-7.19 7.536-7.155 4.118.034 7.51 3.397 7.456 7.392-.057 4.13-3.192 7.087-7.508 7.078-4.168-.009-7.52-3.286-7.483-7.315zm3.433-1.918c-1.425 0-2.615 1.108-2.652 2.47-.038 1.393 1.195 2.614 2.643 2.618 1.464.003 2.652-1.175 2.63-2.609-.02-1.38-1.183-2.479-2.62-2.479zM21.344 15.775c4.148-.003 7.459 3.2 7.456 7.211-.004 3.997-3.345 7.227-7.467 7.22-4.136-.007-7.458-3.227-7.455-7.226.003-4.01 3.31-7.201 7.466-7.205zm-4.209 10.143c1.45.03 2.621-1.027 2.675-2.413.056-1.451-1.078-2.635-2.555-2.666-1.473-.03-2.696 1.124-2.694 2.546.001 1.384 1.14 2.503 2.574 2.533z" fill="#FFF"/><path d="M36.623 20.163c1.438 0 2.6 1.1 2.621 2.48.022 1.433-1.166 2.611-2.63 2.608-1.448-.004-2.681-1.225-2.643-2.617.037-1.363 1.227-2.471 2.652-2.47M17.135 25.918c-1.435-.03-2.573-1.15-2.574-2.533-.002-1.422 1.22-2.577 2.694-2.546 1.477.03 2.611 1.215 2.555 2.666-.054 1.386-1.225 2.443-2.675 2.413" fill="#3770A0"/></g></g></g></svg>