<svg width="70" height="70" viewBox="0 0 70 70" xmlns="http://www.w3.org/2000/svg" xmlns:xlink="http://www.w3.org/1999/xlink"><title>go</title><defs><circle id="a" cx="31.542" cy="31.557" r="31.557"/></defs><g fill="none" fill-rule="evenodd"><circle fill="#3770A0" cx="34.984" cy="35" r="35"/><g transform="translate(3.443 3.443)"><mask id="b" fill="#fff"><use xlink:href="#a"/></mask><use fill="#3770A0" xlink:href="#a"/><g mask="url(#b)" stroke="#3770A0" stroke-width=".5"><path d="M62.36 54.568c-.156.187-.328.36-.464.56-.91 1.335-1.617 1.52-3.056.747-.425-.228-.82-.516-1.406-.89 0 .426-.006.752.002 1.077.094 4.376.32 8.754.245 13.126-.058 3.454-.694 6.884-2.09 10.062-.967 2.197-2.307 4.23-3.432 6.247.82 1.034 1.918 2.158 2.69 3.474.747 1.28.34 2.455-.732 3.215-1.365.968-2.514.82-3.615-.466-.184-.216-.358-.44-.533-.664-1.894-2.426-1.92-2.317-4.763-1.334-8.91 3.082-17.893 3.634-26.885.312-1.057-.39-1.838-.006-2.583.532-1.046.756-2.007 1.63-3.004 2.452H10.3c-2.278-2.045-2.25-3.486.137-5.466.542-.45 1.148-.824 1.743-1.247-.555-.58-1.075-1.09-1.557-1.633C8.03 81.75 6.508 78.434 6.61 74.42c.14-5.51.156-11.02.222-16.53.01-.708.002-1.414.002-2.18-.196.075-.315.096-.404.16-2.926 2.14-3.426 1.484-4.888-.815v-1.46c1.39-1.812 3.548-2.013 5.708-2.64-1.104-8.164-2.337-16.324-.303-24.483-.48-.224-.808-.374-1.132-.53-2.618-1.255-3.83-3.63-3.312-6.496.458-2.54 2.5-4.4 5.29-4.516 1.34-.056 2.696.352 4.05.505.41.046.934.083 1.245-.12 3.587-2.354 7.498-3.785 11.756-4.29 1.965-.23 3.927-.497 5.89-.747h6.326c.272.07.54.173.815.204 3.967.443 7.686 1.568 11.006 3.873.277.19.795.11 1.182.048 1.346-.22 2.684-.698 4.025-.697 2.727 0 4.753 1.74 5.347 4.277.642 2.736-.39 5.14-2.8 6.518-.372.214-.746.423-1.132.64 2.46 8.308 1.197 16.77 1.69 24.79l5.168 2.448v2.19zm-5.868-3.14c-.086 0-.172.002-.257.003 0-4.702.036-9.405-.01-14.108-.046-4.64-.574-9.207-2.098-13.637-1.982-5.76-5.616-9.823-11.625-11.376-2.22-.575-4.542-1.058-6.815-1.05-3.837.016-7.723.15-11.498.78-9.47 1.577-14.156 5.054-16.41 14.572-1.19 5.036-1.484 10.203-.746 15.35.757 5.278.983 10.542.697 15.877-.3 5.62-.134 11.265-.235 16.898-.074 4.206 1.828 7.48 4.714 10.287.5.487 1.295.665 1.943 1.007.67.354 1.55.575 1.95 1.132 1.176 1.648 2.866 2.308 4.662 2.855 5.595 1.7 11.293 1.626 16.983.76 4.208-.64 8.14-1.81 11.644-4.674 2.376-1.943 4.083-4.08 5.245-6.763 1.366-3.154 2.12-6.515 2.147-9.927.048-5.995-.18-11.992-.292-17.988zM7.067 25.478c.29-1.425 1.5-2.594.102-4.134-.806-.887.288-2.348 1.544-2.252.348.027.69.13 1 .194.72-.966 1.39-1.87 2.15-2.892-2.344-.905-4.574-1.1-6.66.32-1.717 1.167-2.208 2.94-1.846 4.925.37 2.037 1.727 3.183 3.71 3.838zm45.324-7.426c.914-.413 1.87-.637 2.55.4.64.976.15 1.747-.546 2.47-.133.138-.228.447-.168.614.32.893.698 1.766 1.067 2.676 2.077-.993 3.448-2.35 3.447-4.677 0-2.024-.784-3.642-2.692-4.5-1.99-.894-3.944-.645-5.902.34.8.956 1.5 1.787 2.245 2.677zm-40.92 71.03l.29.197c-.455.72-.93 1.428-1.36 2.163-.338.576-.168.947.488 1.192.995.37 1.71-.092 2.434-.65 1.263-.976 2.536-1.94 3.858-2.948-.95-.985-1.717-2.808-3.672-2.525-1.96.284-3.495 1.508-4.295 3.37-.227.53.056 1.276.104 1.923l.295-.066 1.858-2.66zm36.35-.945c.99 1.076 1.903 2.08 2.832 3.068.33.35.652.83 1.066.952.484.144 1.085.027 1.587-.13.097-.032.066-.812-.075-1.18-.252-.658-.632-1.265-.958-1.893.118-.06.235-.123.352-.185l1.466 2.767c1.096-1.24.583-3.067-1.314-4.715-1.77-1.54-2.8-1.252-4.955 1.315zM2.6 55.62c.37 1.01 1 1.244 1.922.915 2.132-.763 2.89-2.232 2.41-4.907-1.67.238-3.33.54-4.568 1.79-.333.335-.25 1.085-.397 1.855.81-.384 1.27-.6 1.726-.818l.13.265-1.222.9zm58.847-.658l-1.38-1.11.17-.23c.51.278 1.018.557 1.525.836.868-1.855-1.484-3.68-4.447-3.47-.323 2.862.188 3.996 2.153 4.702.788.283 1.506.26 1.98-.728z" fill="#3770A0"/><path d="M56.492 51.428c.112 5.996.34 11.993.292 17.988-.028 3.412-.78 6.773-2.147 9.927-1.162 2.683-2.87 4.82-5.245 6.763-3.503 2.864-7.436 4.033-11.644 4.674-5.69.866-11.388.94-16.983-.76-1.796-.548-3.486-1.208-4.663-2.856-.4-.557-1.278-.778-1.95-1.132-.647-.342-1.443-.52-1.943-1.007-2.887-2.808-4.79-6.08-4.715-10.287.1-5.633-.065-11.278.236-16.9.287-5.334.06-10.598-.696-15.876-.738-5.147-.445-10.314.747-15.35 2.254-9.518 6.94-12.995 16.41-14.573 3.774-.63 7.66-.764 11.497-.78 2.273-.008 4.595.475 6.815 1.05 6.01 1.552 9.643 5.614 11.625 11.375 1.524 4.43 2.052 8.997 2.097 13.637.047 4.703.01 9.406.01 14.11l.258-.004zM27.94 35.386c0 1.19-.106 2.292.024 3.363.204 1.672 1.75 2.202 3.038 1.11.177-.148.32-.34.517-.55.634 1.07 1.542 1.194 2.548.864 1.013-.333 1.096-1.182 1.047-2.08-.047-.87-.08-1.74-.12-2.69 1.225.05 2.36-.07 2.75-1.362.346-1.154-.08-2.154-.976-2.94a4.965 4.965 0 0 0-.884-.635c-.685-.372-1.396-.567-1.476-1.64-.033-.456-.927-1.15-1.48-1.204a11.453 11.453 0 0 0-3.677.254c-.55.13-.958.895-1.405 1.395-.344.386-.58.9-.983 1.194-.873.634-1.722 1.247-1.795 2.44-.096 1.576.73 2.26 2.87 2.48zm12.733-5.542c4.607.01 7.876-3.11 7.917-7.552.04-4.295-3.53-7.82-7.922-7.823-4.326-.003-7.93 3.497-7.93 7.7 0 4.217 3.566 7.666 7.935 7.674zM21.39 15.337c-4.434-.016-7.96 3.358-7.968 7.628-.008 4.243 3.554 7.706 7.928 7.704 4.31-.002 7.88-3.438 7.904-7.605.024-4.287-3.46-7.71-7.864-7.728z" fill="#FFF"/><path d="M7.067 25.478c-1.982-.655-3.338-1.8-3.71-3.84-.36-1.983.13-3.757 1.847-4.925 2.086-1.42 4.316-1.224 6.66-.32-.76 1.024-1.43 1.927-2.15 2.893-.31-.063-.652-.167-1-.194-1.256-.096-2.35 1.365-1.545 2.252 1.396 1.54.188 2.71-.103 4.134M52.39 18.052c-.745-.89-1.443-1.72-2.244-2.676 1.958-.986 3.91-1.235 5.902-.34 1.908.857 2.69 2.475 2.692 4.5 0 2.326-1.37 3.683-3.447 4.676-.37-.91-.746-1.783-1.067-2.676-.06-.167.035-.476.168-.614.697-.723 1.185-1.494.545-2.47-.68-1.037-1.636-.813-2.55-.4M2.6 55.62c.42-.307.82-.604 1.223-.9-.043-.09-.086-.177-.13-.265l-1.726.818c.148-.77.064-1.52.397-1.856 1.24-1.248 2.897-1.55 4.568-1.79.48 2.676-.278 4.145-2.41 4.908-.92.33-1.552.096-1.92-.914M61.447 54.962c-.473.988-1.19 1.01-1.98.728-1.964-.706-2.475-1.84-2.152-4.703 2.963-.21 5.315 1.616 4.447 3.47l-1.525-.836-.17.233 1.38 1.11" fill="#FFF"/><path d="M27.94 35.386c-2.14-.22-2.966-.904-2.87-2.48.073-1.193.922-1.806 1.795-2.44.403-.293.64-.808.983-1.194.447-.5.856-1.264 1.405-1.395 1.186-.28 2.464-.37 3.677-.254.553.053 1.447.748 1.48 1.203.08 1.074.79 1.27 1.476 1.64.316.174.61.398.883.637.895.785 1.32 1.785.974 2.94-.388 1.29-1.524 1.41-2.75 1.362.042.948.074 1.82.12 2.688.05.9-.033 1.748-1.046 2.08-1.006.33-1.914.207-2.55-.864-.196.21-.34.402-.516.55-1.287 1.092-2.834.562-3.038-1.11-.13-1.072-.024-2.173-.024-3.364zm-.36-.527c.215-.04.676-.05 1.083-.206 1.842-.706 3.65-.96 5.46.114.292.174.705.17 1.065.192.838.056 1.71-.003 2.07-.894.428-1.068.02-2.04-.86-2.682-.757-.552-1.53-1.546-2.64-.803-1.58 1.057-3.184 1.015-4.846.332-1.276-.524-2.895.223-3.3 1.556-.394 1.302.387 2.374 1.97 2.39zm3.82-.487c-.832.232-1.502.364-2.123.615-.278.113-.608.436-.658.71-.16.868-.266 1.757-.265 2.638 0 .796.23 1.592 1.246 1.607.954.014 1.515-.58 1.602-1.486.12-1.275.13-2.56.2-4.084zm.543.224c0 1.42-.08 2.825.052 4.21.037.387.69.98 1.085 1 .49.03 1.288-.317 1.466-.718.938-2.122-.194-4.072-2.603-4.493zM40.673 29.844c-4.37-.008-7.936-3.457-7.936-7.674 0-4.203 3.605-7.703 7.93-7.7 4.392 0 7.962 3.527 7.923 7.822-.04 4.442-3.31 7.56-7.917 7.552zM33.19 22.08c-.037 4.03 3.316 7.307 7.484 7.316 4.316.01 7.45-2.947 7.508-7.078.054-3.995-3.338-7.358-7.456-7.392-4.077-.034-7.5 3.215-7.535 7.155zM21.39 15.337c4.405.017 7.888 3.44 7.864 7.728-.023 4.167-3.595 7.603-7.904 7.604-4.374 0-7.936-3.462-7.928-7.705.01-4.27 3.534-7.644 7.968-7.628zm-.046.438c-4.156.004-7.463 3.195-7.466 7.205-.003 4 3.32 7.22 7.455 7.226 4.122.007 7.463-3.223 7.467-7.22.003-4.012-3.308-7.214-7.456-7.21z" fill="#3770A0"/><path d="M27.58 34.86c-1.58-.018-2.362-1.09-1.968-2.392.405-1.333 2.024-2.08 3.3-1.556 1.662.683 3.265.725 4.846-.33 1.11-.744 1.883.25 2.64.802.88.64 1.288 1.614.86 2.682-.36.89-1.232.95-2.07.894-.36-.023-.773-.018-1.064-.192-1.812-1.074-3.62-.82-5.46-.114-.408.155-.87.167-1.083.205" fill="#FFF"/><path d="M31.4 34.373c-.067 1.524-.077 2.81-.198 4.084-.087.907-.648 1.5-1.6 1.486-1.018-.015-1.246-.81-1.247-1.607 0-.88.104-1.77.264-2.637.05-.276.38-.6.657-.712.62-.25 1.29-.383 2.124-.615M31.943 34.597c2.41.42 3.54 2.37 2.603 4.492-.178.4-.976.746-1.466.718-.396-.02-1.048-.614-1.085-1.002-.133-1.384-.052-2.79-.052-4.21M33.19 22.08c.037-3.94 3.46-7.188 7.536-7.154 4.118.034 7.51 3.397 7.456 7.392-.057 4.13-3.192 7.087-7.508 7.078-4.168-.01-7.52-3.286-7.483-7.315zm3.433-1.917c-1.425 0-2.615 1.108-2.652 2.47-.037 1.393 1.196 2.614 2.644 2.618 1.464.004 2.652-1.174 2.63-2.608-.02-1.38-1.183-2.48-2.62-2.48zM21.344 15.775c4.148-.003 7.46 3.2 7.456 7.21-.004 3.998-3.345 7.228-7.467 7.22-4.136-.006-7.458-3.226-7.455-7.225.003-4.01 3.31-7.2 7.466-7.205zm-4.21 10.143c1.45.03 2.622-1.027 2.676-2.413.056-1.45-1.078-2.635-2.555-2.666-1.473-.032-2.696 1.123-2.694 2.545.002 1.384 1.14 2.503 2.575 2.533z" fill="#FFF"/><path d="M36.623 20.163c1.438 0 2.6 1.1 2.62 2.48.023 1.433-1.165 2.61-2.63 2.608-1.447-.003-2.68-1.224-2.642-2.616.038-1.363 1.228-2.47 2.653-2.47M17.135 25.918c-1.435-.03-2.573-1.15-2.574-2.533 0-1.422 1.222-2.577 2.695-2.546 1.477.03 2.61 1.214 2.555 2.665-.054 1.386-1.225 2.443-2.675 2.413" fill="#3770A0"/></g></g></g></svg>