<svg width="70" height="70" viewBox="0 0 70 70" xmlns="http://www.w3.org/2000/svg"><title>helperjs</title><defs><linearGradient x1="22.126%" y1="0%" x2="77.282%" y2="115.061%" id="a"><stop stop-color="#FFBE4C" offset="0%"/><stop stop-color="#F48B49" offset="100%"/></linearGradient></defs><g fill="none" fill-rule="evenodd"><path d="M35 70c19.33 0 35-15.67 35-35S54.33 0 35 0 0 15.67 0 35s15.67 35 35 35z" fill="url(#a)"/><path d="M34.066 61.062c.628.365 1.647.37 2.28.006l21.085-12.083c.632-.362 1.144-1.25 1.144-1.98V22.95c0-.732-.514-1.62-1.144-1.978L37.128 9.392c-.632-.36-1.66-.358-2.29.004L14.026 21.332c-.633.363-1.146 1.253-1.146 1.984v24.092c0 .733.51 1.622 1.138 1.988l20.048 11.666z" stroke="#634A21" stroke-width="2" fill="#EEF8FF"/><path d="M35.522 60.48V35.666l-21.62-13.008s-.235.397-.19.82V47.42c0 .463.322 1.027.723 1.26 0 0-.456-.265.022.014 2.15 1.258 18.286 10.657 19.902 11.587.533.335 1.162.2 1.162.2z" fill-opacity=".5" fill="#CAD3D9" opacity=".57"/><path d="M35.52 60.483V35.665L57.603 22.4s.166.237.143.797v24.647s-14.367 8.24-21.51 12.34c-.47.3-.716.3-.716.3z" fill-opacity=".25" fill="#000" opacity=".57"/><g stroke="#634A22" stroke-width="1.575" stroke-dasharray="3.779999828338623,8.977499771118163"><path d="M35.39 35.62L13.15 22.29M35.927 35.344l22.49-13.396M35.466 35.558v25.865"/></g><g><g transform="translate(32.922 22.932)"><ellipse stroke="#634A22" stroke-width=".84" fill="#FFF" cx="2.829" cy="1.596" rx="2.829" ry="1.596"/><path d="M0 1.604v1.99s.76 1.24 2.804 1.24c2.043 0 2.857-1.24 2.857-1.24v-1.99" stroke="#634A22" stroke-width=".84"/><path fill="#634A22" d="M.002 2.514v1.112l1.255.93 1.566.305 2.04-.532.783-.86V2.18l-.99.532-1.714.44L.91 2.712z"/></g><g transform="translate(32.922 14.133)"><ellipse stroke="#634A22" stroke-width=".84" fill="#FFF" cx="2.829" cy="1.596" rx="2.829" ry="1.596"/><path d="M0 1.604v1.99s.76 1.24 2.804 1.24c2.043 0 2.857-1.24 2.857-1.24v-1.99" stroke="#634A22" stroke-width=".84"/><path fill="#634A22" d="M.002 2.514v1.112l1.255.93 1.566.305 2.04-.532.783-.86V2.18l-.99.532-1.714.44L.91 2.712z"/></g><g transform="translate(24.12 18.532)"><ellipse stroke="#634A22" stroke-width=".84" fill="#FFF" cx="2.829" cy="1.596" rx="2.829" ry="1.596"/><path d="M0 1.604v1.99s.76 1.24 2.804 1.24c2.043 0 2.857-1.24 2.857-1.24v-1.99" stroke="#634A22" stroke-width=".84"/><path fill="#634A22" d="M.002 2.514v1.112l1.255.93 1.566.305 2.04-.532.783-.86V2.18l-.99.532-1.714.44L.91 2.712z"/></g><g transform="translate(41.725 18.532)"><ellipse stroke="#634A22" stroke-width=".84" fill="#FFF" cx="2.829" cy="1.596" rx="2.829" ry="1.596"/><path d="M0 1.604v1.99s.76 1.24 2.804 1.24c2.043 0 2.857-1.24 2.857-1.24v-1.99" stroke="#634A22" stroke-width=".84"/><path fill="#634A22" d="M.002 2.514v1.112l1.255.93 1.566.305 2.04-.532.783-.86V2.18l-.99.532-1.714.44L.91 2.712z"/></g></g></g></svg>