<svg width="70" height="70" viewBox="0 0 70 70" xmlns="http://www.w3.org/2000/svg"><title>instantsearchjs</title><defs><linearGradient x1="16.166%" y1="0%" x2="98.067%" y2="110.413%" id="a"><stop stop-color="#27448F" offset="0%"/><stop stop-color="#6954D4" offset="100%"/></linearGradient><linearGradient x1="42.966%" y1="14.059%" x2="85.153%" y2="110.153%" id="b"><stop stop-color="#2CA5C3" offset="0%"/><stop stop-color="#136B90" offset="100%"/></linearGradient><linearGradient x1="10.934%" y1="-27.347%" x2="73.434%" y2="79.684%" id="c"><stop stop-color="#51C8E5" offset="0%"/><stop stop-color="#2897C5" offset="100%"/></linearGradient></defs><g fill="none" fill-rule="evenodd"><path d="M35 70c19.33 0 35-15.67 35-35S54.33 0 35 0 0 15.67 0 35s15.67 35 35 35z" fill="url(#a)"/><rect fill="url(#b)" x="12" y="15.092" width="45" height="41.908" rx="4"/><rect fill="url(#c)" x="12" y="12" width="45" height="41.908" rx="4"/><circle fill="#FFF" opacity=".197" cx="32" cy="5" r="1"/><circle fill="#FFF" opacity=".497" cx="38.5" cy="9.5" r="1.5"/><circle fill="#FFF" opacity=".497" cx="21.5" cy="9.5" r="1.5"/><circle fill="#FFF" opacity=".497" cx="62.5" cy="25.5" r="1.5"/><circle fill="#FFF" opacity=".497" cx="32" cy="66" r="1"/><circle fill="#FFF" opacity=".754" cx="38.5" cy="63.5" r="1.5"/><circle fill="#FFF" opacity=".497" cx="3.5" cy="27.5" r="1.5"/><circle fill="#FFF" opacity=".96" cx="7" cy="31" r="1"/><path d="M42.56 32.963a1.458 1.458 0 0 0-.214-1.05l-2.934-4.378a8.01 8.01 0 0 0 2.067-4.125c.749-4.245-1.945-8.264-6.021-8.983-4.076-.719-7.983 2.137-8.732 6.382-.748 4.245 1.946 8.265 6.022 8.983a7.267 7.267 0 0 0 4.42-.616l2.935 4.366c.195.305.514.518.87.581.734.13 1.453-.396 1.588-1.16zm-3.773-10.035c-.475 2.695-2.968 4.517-5.556 4.061-2.588-.456-4.307-3.021-3.832-5.717.475-2.695 2.968-4.517 5.556-4.06 2.588.455 4.308 3.02 3.832 5.716zm-6.064 18.391c.266-.266.63-.42.983-.427l5.268-.107a8.01 8.01 0 0 1 2.194-4.059c3.048-3.048 7.886-3.146 10.813-.22 2.926 2.927 2.828 7.765-.22 10.813-3.048 3.048-7.886 3.146-10.813.22a7.267 7.267 0 0 1-2.03-3.974l-5.26.1a1.31 1.31 0 0 1-.975-.38c-.527-.526-.509-1.417.04-1.966zm10.332-2.628c-1.935 1.935-1.998 5.023-.14 6.88 1.858 1.86 4.946 1.796 6.881-.139 1.935-1.935 1.998-5.023.14-6.88-1.858-1.86-4.946-1.796-6.881.139zm-11.412-7.203c.091.365.035.756-.14 1.063l-2.622 4.57a8.01 8.01 0 0 1 2.35 3.971c1.043 4.183-1.365 8.38-5.38 9.382-4.017 1.001-8.113-1.575-9.156-5.757-1.043-4.183 1.365-8.38 5.38-9.382a7.267 7.267 0 0 1 4.452.306l2.624-4.56a1.31 1.31 0 0 1 .828-.64c.722-.18 1.477.294 1.664 1.047zm-3.068 10.277c-.662-2.656-3.276-4.3-5.826-3.664-2.55.636-4.086 3.314-3.424 5.97.662 2.656 3.276 4.3 5.826 3.664 2.55-.636 4.086-3.314 3.424-5.97z" fill="#FFF"/></g></svg>