<svg width="71" height="71" viewBox="0 0 71 71" xmlns="http://www.w3.org/2000/svg"><title>java</title><g transform="translate(0 1)" fill="none" fill-rule="evenodd"><circle fill="#FFF" cx="35.5" cy="34.5" r="33.5"/><path d="M35.234 69.896c19.33 0 35-15.67 35-35s-15.67-35-35-35-35 15.67-35 35 15.67 35 35 35zm-7.732-21.187s-2.342 1.362 1.669 1.821c4.86.554 7.343.474 12.697-.536 0 0 1.41.88 3.376 1.644-12.005 5.137-27.17-.298-17.742-2.929zm-1.467-6.705s-2.628 1.943 1.386 2.357c5.192.536 9.29.58 16.386-.784 0 0 .979.993 2.521 1.536-14.513 4.24-30.678.333-20.293-3.109zM38.4 30.63c2.96 3.403-.776 6.462-.776 6.462s7.51-3.871 4.062-8.722c-3.222-4.522-5.692-6.768 7.681-14.514 0 0-20.993 5.236-10.967 16.774zM54.28 53.67s1.734 1.428-1.91 2.532c-6.927 2.095-28.84 2.728-34.926.084-2.187-.952 1.915-2.27 3.206-2.548 1.346-.291 2.114-.238 2.114-.238-2.433-1.711-15.727 3.361-6.752 4.816 24.476 3.962 44.616-1.785 38.268-4.646zM28.63 35.056s-11.144 2.645-3.946 3.606c3.04.406 9.097.313 14.744-.16 4.613-.387 9.242-1.214 9.242-1.214s-1.625.697-2.802 1.499c-11.32 2.973-33.183 1.588-26.888-1.452 5.322-2.57 9.65-2.279 9.65-2.279zm19.994 11.161c11.506-5.97 6.185-11.707 2.472-10.935-.908.19-1.316.354-1.316.354s.339-.53.983-.757c7.346-2.579 12.995 7.606-2.37 11.64 0 0 .178-.16.23-.302zM41.687 1.345s6.371 6.366-6.044 16.153c-9.956 7.854-2.27 12.33-.004 17.448-5.812-5.237-10.075-9.848-7.215-14.138 4.199-6.297 15.833-9.351 13.263-19.463zM29.761 62.4c11.041.705 28.002-.392 28.403-5.61 0 0-.771 1.977-9.126 3.547-9.425 1.772-21.053 1.566-27.947.43 0 0 1.413 1.167 8.67 1.633z" fill="#3694D6"/></g></svg>