<svg width="70" height="70" viewBox="0 0 70 70" xmlns="http://www.w3.org/2000/svg"><title>javascript</title><g fill="none" fill-rule="evenodd"><circle fill="#FFF" cx="34.5" cy="34.5" r="33.5"/><path d="M35 70c19.33 0 35-15.67 35-35S54.33 0 35 0 0 15.67 0 35s15.67 35 35 35zm23.277-21.779c-.406-2.531-2.057-4.657-6.947-6.64-1.698-.781-3.592-1.34-4.156-2.627-.2-.75-.227-1.171-.1-1.625.364-1.471 2.12-1.93 3.513-1.508.896.3 1.746.991 2.257 2.094 2.395-1.551 2.39-1.54 4.062-2.606-.612-.95-.939-1.387-1.34-1.793-1.44-1.61-3.402-2.437-6.54-2.374-.544.069-1.092.142-1.636.211-1.566.396-3.059 1.218-3.935 2.32-2.626 2.981-1.877 8.198 1.319 10.345 3.149 2.363 7.775 2.9 8.366 5.11.575 2.707-1.989 3.582-4.537 3.271-1.877-.39-2.922-1.345-4.05-3.08-2.079 1.202-2.079 1.202-4.215 2.431.506 1.108 1.04 1.609 1.888 2.569 4.02 4.077 14.079 3.877 15.882-2.294.074-.211.56-1.625.17-3.804zM37.495 31.47h-5.19c0 4.484-.021 8.935-.021 13.419 0 2.853.147 5.47-.317 6.271-.76 1.578-2.727 1.382-3.624 1.077-.912-.449-1.376-1.087-1.914-1.989-.148-.258-.259-.459-.296-.475-1.408.86-2.811 1.725-4.22 2.585.702 1.44 1.736 2.69 3.06 3.502 1.978 1.187 4.636 1.551 7.416.913 1.81-.528 3.37-1.62 4.188-3.281 1.182-2.179.928-4.816.918-7.733.026-4.758 0-9.515 0-14.289z" fill="#FFD141"/></g></svg>