<svg width="67" height="67" viewBox="0 0 67 67" xmlns="http://www.w3.org/2000/svg"><title>jekyll</title><defs><linearGradient x1="94.283%" y1="100%" x2="-3.58%" y2="0%" id="a"><stop stop-color="#EE2E2E" offset="0%"/><stop stop-color="#9A57E3" offset="100%"/></linearGradient></defs><g fill="none" fill-rule="evenodd"><circle fill="url(#a)" cx="33.5" cy="33.5" r="33.5"/><path d="M21.388 50.54a5.818 5.818 0 1 0 10.863 4.17s13.84-36.436 14.27-37.277c1.097-.61 1.784-.915 2.013-1.45.647-1.6-1.51-3.965-5.613-5.623-4.103-1.658-7.75-1.962-7.896 0-.112 1.503.458 1.808.717 2.9.126.163-14.352 37.28-14.352 37.28zM41.44 13.93c2.373.96 4.503 1.225 4.758.594.254-.63-1.463-1.918-3.835-2.877-2.373-.96-4.503-1.225-4.758-.594-.255.63 1.462 1.92 3.835 2.877zm-5.85 14.924c-3.314.334-4.893 2.022-6.06 5.066-.402 1.043-6.516 16.973-6.516 16.973a4.08 4.08 0 0 0 2.35 5.267 4.088 4.088 0 0 0 5.275-2.356l11.097-28.91c-1.375 1.542-2.834 3.626-6.147 3.96zm-5.756 14.76a1.526 1.526 0 1 0 0-3.054 1.526 1.526 0 0 0 0 3.053zm-2.308 8.44a1.526 1.526 0 1 0 0-3.054 1.526 1.526 0 0 0 0 3.053zm7-17a1.526 1.526 0 1 0 0-3.054 1.526 1.526 0 0 0 0 3.053zm-.456 4.132a.8.8 0 1 0 0-1.603.8.8 0 0 0 0 1.603zm-6.373 5.877a.687.687 0 1 0 0-1.374.687.687 0 0 0 0 1.373z" fill="#FFF"/></g></svg>