<svg width="70" height="70" viewBox="0 0 70 70" xmlns="http://www.w3.org/2000/svg"><title>logo-is</title><defs><linearGradient x1="42.966%" y1="14.059%" x2="85.153%" y2="110.153%" id="a"><stop stop-color="#2CA5C3" offset="0%"/><stop stop-color="#136B90" offset="100%"/></linearGradient><linearGradient x1="10.934%" y1="-27.347%" x2="73.434%" y2="79.684%" id="b"><stop stop-color="#51C8E5" offset="0%"/><stop stop-color="#2897C5" offset="100%"/></linearGradient></defs><g fill="none" fill-rule="evenodd"><g><rect fill="url(#a)" y="4.809" width="70" height="65.191" rx="4"/><rect fill="url(#b)" width="70" height="65.191" rx="4"/></g><path d="M46.541 33.38a2.131 2.131 0 0 0-.314-1.535l-4.29-6.4c1.57-1.649 2.623-3.767 3.023-6.033 1.094-6.207-2.846-12.085-8.806-13.136-5.96-1.05-11.673 3.125-12.768 9.332-1.094 6.208 2.846 12.086 8.806 13.137 2.176.383 4.442.075 6.462-.901l4.294 6.384c.284.445.75.758 1.272.85 1.072.189 2.124-.58 2.321-1.697zm-5.518-14.673c-.695 3.941-4.34 6.606-8.125 5.938-3.784-.667-6.298-4.417-5.603-8.359.695-3.942 4.34-6.606 8.125-5.939 3.784.668 6.298 4.418 5.603 8.36zM32.155 45.6c.39-.39.922-.613 1.438-.624l7.704-.157c.45-2.231 1.58-4.308 3.207-5.935 4.457-4.458 11.532-4.601 15.812-.322 4.28 4.28 4.135 11.354-.322 15.811-4.457 4.458-11.532 4.601-15.811.322a10.626 10.626 0 0 1-2.969-5.81l-7.692.145a1.915 1.915 0 0 1-1.426-.555c-.77-.77-.743-2.073.059-2.875zm15.109-3.843c-2.83 2.83-2.922 7.344-.205 10.062 2.717 2.717 7.232 2.625 10.062-.205 2.83-2.83 2.922-7.344.204-10.062-2.717-2.717-7.231-2.625-10.061.205zM30.576 31.224a2.131 2.131 0 0 1-.205 1.554l-3.834 6.684c1.682 1.535 2.88 3.574 3.436 5.807 1.525 6.116-1.995 12.254-7.868 13.718-5.872 1.464-11.862-2.303-13.387-8.419-1.525-6.116 1.996-12.254 7.868-13.718a10.626 10.626 0 0 1 6.51.447l3.837-6.668a1.915 1.915 0 0 1 1.21-.936c1.056-.263 2.16.43 2.433 1.53zM26.09 46.252c-.968-3.884-4.79-6.288-8.519-5.358-3.729.93-5.975 4.847-5.007 8.73.968 3.884 4.79 6.287 8.52 5.358 3.728-.93 5.975-4.847 5.006-8.73z" fill="#FFF"/></g></svg>