<svg width="70" height="70" viewBox="0 0 70 70" xmlns="http://www.w3.org/2000/svg"><title>logo-is</title><defs><linearGradient x1="42.966%" y1="14.059%" x2="85.153%" y2="110.153%" id="a"><stop stop-color="#2CA5C3" offset="0%"/><stop stop-color="#136B90" offset="100%"/></linearGradient><linearGradient x1="10.934%" y1="-27.347%" x2="73.434%" y2="79.684%" id="b"><stop stop-color="#51C8E5" offset="0%"/><stop stop-color="#2897C5" offset="100%"/></linearGradient></defs><g fill="none" fill-rule="evenodd"><g><rect fill="url(#a)" y="4.809" width="70" height="65.191" rx="4"/><rect fill="url(#b)" width="70" height="65.191" rx="4"/></g><path d="M46.54 33.38a2.13 2.13 0 0 0-.313-1.535l-4.29-6.4c1.57-1.65 2.623-3.767 3.023-6.033 1.094-6.207-2.846-12.085-8.806-13.136-5.96-1.05-11.673 3.125-12.768 9.332-1.094 6.208 2.846 12.086 8.806 13.137 2.176.383 4.442.075 6.462-.9l4.294 6.383c.284.445.75.758 1.272.85 1.072.19 2.124-.58 2.32-1.697zm-5.517-14.673c-.695 3.94-4.34 6.606-8.125 5.938-3.784-.667-6.298-4.417-5.603-8.36.695-3.94 4.34-6.605 8.125-5.938 3.784.668 6.298 4.418 5.603 8.36zM32.155 45.6a2.13 2.13 0 0 1 1.438-.624l7.704-.157c.45-2.232 1.58-4.31 3.207-5.936 4.457-4.458 11.532-4.6 15.812-.322 4.28 4.28 4.135 11.354-.322 15.81-4.457 4.46-11.532 4.602-15.81.323a10.626 10.626 0 0 1-2.97-5.81l-7.692.145a1.915 1.915 0 0 1-1.426-.555c-.77-.77-.743-2.073.06-2.875zm15.11-3.843c-2.832 2.83-2.923 7.344-.206 10.062 2.716 2.716 7.23 2.624 10.06-.206s2.923-7.344.205-10.062c-2.717-2.717-7.23-2.625-10.06.205zm-16.69-10.533a2.13 2.13 0 0 1-.204 1.554l-3.833 6.684c1.682 1.535 2.88 3.574 3.436 5.807 1.525 6.115-1.995 12.253-7.868 13.717-5.872 1.464-11.862-2.303-13.387-8.42-1.525-6.115 1.996-12.253 7.868-13.717a10.626 10.626 0 0 1 6.51.447l3.837-6.668a1.915 1.915 0 0 1 1.21-.937c1.056-.263 2.16.43 2.433 1.53zM26.09 46.252c-.97-3.884-4.79-6.288-8.52-5.358-3.73.93-5.975 4.847-5.007 8.73.968 3.884 4.79 6.287 8.52 5.358 3.728-.93 5.975-4.847 5.006-8.73z" fill="#FFF"/></g></svg>