<svg width="70" height="70" viewBox="0 0 70 70" xmlns="http://www.w3.org/2000/svg"><title>node</title><g fill="none" fill-rule="evenodd"><circle fill="#FFF" cx="34.5" cy="35.5" r="33.5"/><path d="M35 70c19.33 0 35-15.67 35-35S54.33 0 35 0 0 15.67 0 35s15.67 35 35 35zm.033-8.033c-.733 0-1.46-.191-2.101-.562l-6.69-3.955c-.999-.56-.512-.757-.183-.872 1.334-.462 1.603-.568 3.026-1.374.148-.083.344-.052.498.038l5.138 3.049c.187.103.45.103.622 0l20.035-11.557a.63.63 0 0 0 .307-.542V23.085a.646.646 0 0 0-.31-.552L35.346 10.986a.632.632 0 0 0-.618 0l-20.024 11.55a.643.643 0 0 0-.317.55v23.106c0 .221.123.43.315.536l5.49 3.169c2.978 1.487 4.802-.265 4.802-2.025V25.057c0-.322.26-.577.581-.577h2.542c.317 0 .58.255.58.577v22.815c0 3.971-2.164 6.249-5.933 6.249-1.158 0-2.07 0-4.615-1.254l-5.254-3.022a4.226 4.226 0 0 1-2.1-3.653V23.085c0-1.502.802-2.903 2.1-3.65l20.037-11.57c1.268-.716 2.952-.716 4.21 0l20.035 11.57a4.225 4.225 0 0 1 2.104 3.65v23.107a4.236 4.236 0 0 1-2.104 3.653l-20.035 11.56c-.64.37-1.367.562-2.11.562zm5.115-16.654c-8.769 0-10.605-4.021-10.605-7.395 0-.32.259-.577.579-.577h2.591c.29 0 .53.208.576.49.39 2.636 1.557 3.966 6.86 3.966 4.22 0 6.017-.954 6.017-3.192 0-1.29-.51-2.248-7.069-2.89-5.482-.542-8.873-1.752-8.873-6.135 0-4.04 3.408-6.45 9.12-6.45 6.42 0 9.595 2.227 9.997 7.004a.588.588 0 0 1-.151.445.594.594 0 0 1-.424.185h-2.602a.577.577 0 0 1-.562-.452c-.624-2.773-2.142-3.66-6.258-3.66-4.608 0-5.143 1.605-5.143 2.807 0 1.456.632 1.88 6.854 2.703 6.157.813 9.082 1.965 9.082 6.29 0 4.363-3.64 6.861-9.989 6.861z" fill="#83CD29"/></g></svg>