<svg width="70" height="70" viewBox="0 0 70 70" xmlns="http://www.w3.org/2000/svg"><title>node</title><g fill="none" fill-rule="evenodd"><circle fill="#FFF" cx="34.5" cy="35.5" r="33.5"/><path d="M35 70c19.33 0 35-15.67 35-35S54.33 0 35 0 0 15.67 0 35s15.67 35 35 35zm.033-8.033c-.733 0-1.46-.19-2.1-.562l-6.69-3.955c-1-.56-.513-.757-.184-.872 1.333-.462 1.602-.568 3.025-1.374.148-.083.344-.052.498.038l5.138 3.05c.188.102.45.102.623 0l20.035-11.558a.63.63 0 0 0 .307-.542V23.085a.646.646 0 0 0-.31-.552l-20.03-11.547a.632.632 0 0 0-.617 0l-20.024 11.55a.643.643 0 0 0-.317.55V46.19c0 .22.123.43.315.536l5.49 3.17c2.978 1.486 4.802-.266 4.802-2.026V25.057c0-.322.26-.577.58-.577h2.543c.317 0 .58.255.58.577v22.815c0 3.97-2.164 6.25-5.933 6.25-1.158 0-2.07 0-4.615-1.255l-5.255-3.022a4.226 4.226 0 0 1-2.1-3.653V23.085c0-1.502.802-2.903 2.1-3.65l20.037-11.57c1.268-.716 2.952-.716 4.21 0l20.035 11.57a4.225 4.225 0 0 1 2.104 3.65v23.107c0 1.5-.804 2.898-2.103 3.653l-20.035 11.56c-.64.37-1.367.562-2.11.562zm5.115-16.654c-8.77 0-10.605-4.02-10.605-7.395 0-.32.26-.577.58-.577h2.59c.29 0 .53.21.576.49.39 2.637 1.556 3.967 6.858 3.967 4.22 0 6.018-.954 6.018-3.192 0-1.29-.51-2.248-7.07-2.89-5.48-.542-8.872-1.752-8.872-6.135 0-4.04 3.408-6.45 9.12-6.45 6.42 0 9.595 2.227 9.997 7.004a.588.588 0 0 1-.15.445.594.594 0 0 1-.424.184h-2.602a.577.577 0 0 1-.562-.452c-.624-2.773-2.142-3.66-6.258-3.66-4.608 0-5.143 1.605-5.143 2.807 0 1.455.633 1.88 6.855 2.702 6.157.813 9.082 1.965 9.082 6.29 0 4.363-3.64 6.86-9.99 6.86z" fill="#83CD29"/></g></svg>