<svg width="70" height="70" viewBox="0 0 70 70" xmlns="http://www.w3.org/2000/svg"><title>objc</title><g fill="none" fill-rule="evenodd"><circle fill="#FFF" cx="34.5" cy="35.5" r="33.5"/><path d="M35 70c19.33 0 35-15.67 35-35S54.33 0 35 0 0 15.67 0 35s15.67 35 35 35zm6.168-52.477c1.59-1.925 2.662-4.603 2.366-7.272-2.29.093-5.06 1.528-6.704 3.454-1.47 1.702-2.762 4.428-2.412 7.043 2.553.198 5.16-1.3 6.75-3.224zm5.498 17.317c-.052-5.763 4.705-8.53 4.92-8.664-2.677-3.917-6.842-4.454-8.328-4.517-3.543-.36-6.916 2.085-8.712 2.085-1.796 0-4.573-2.034-7.51-1.977-3.867.057-7.427 2.247-9.418 5.708-4.013 6.965-1.024 17.288 2.883 22.942 1.914 2.763 4.192 5.877 7.187 5.762 2.886-.114 3.976-1.865 7.458-1.865 3.483 0 4.464 1.865 7.513 1.81 3.1-.06 5.07-2.823 6.968-5.595 2.192-3.21 3.1-6.314 3.15-6.478-.07-.028-6.047-2.32-6.11-9.212z" fill="#616161"/></g></svg>