<svg width="70" height="70" viewBox="0 0 70 70" xmlns="http://www.w3.org/2000/svg"><title>php</title><g fill="none" fill-rule="evenodd"><circle fill="#FFF" cx="35.5" cy="34.5" r="33.5"/><path d="M35 70c19.33 0 35-15.67 35-35S54.33 0 35 0 0 15.67 0 35s15.67 35 35 35zM11.093 46.269l3.7-18.728h8.554c3.7.231 5.55 2.08 5.55 5.318 0 5.549-4.394 8.786-8.324 8.554H16.41l-.925 4.856h-4.393zm6.243-8.324l1.156-6.936h3.006c1.618 0 2.774.694 2.774 2.081-.231 3.93-2.08 4.624-4.162 4.855h-2.774zm10.97 3.734l3.7-18.728h4.393l-.925 4.855h4.162c3.699.231 5.086 2.081 4.624 4.393l-1.619 9.48h-4.624l1.619-8.555c.23-1.156.23-1.85-1.388-1.85H34.78L32.7 41.68h-4.394zm14.918 4.59l3.7-18.728h8.554c3.7.231 5.55 2.08 5.55 5.318 0 5.549-4.393 8.786-8.324 8.554h-4.162l-.925 4.856h-4.393zm6.243-8.324l1.156-6.936h3.006c1.618 0 2.774.694 2.774 2.081-.23 3.93-2.08 4.624-4.161 4.855h-2.775z" fill="#6C7EB7"/></g></svg>