<svg width="70" height="70" viewBox="0 0 70 70" xmlns="http://www.w3.org/2000/svg"><title>rails</title><g fill="none" fill-rule="evenodd"><circle fill="#FFF" cx="34.5" cy="35.5" r="33.5"/><path d="M35 70c19.33 0 35-15.67 35-35S54.33 0 35 0 0 15.67 0 35s15.67 35 35 35zm17.144-54.78l2.757 2-.5.75-2.34-1.25.084-1.5zm-8.02-2.418l.335 2.167-3.427.083-.5-2.418 3.592.167zM33.517 13.97l2.004 2.25-2.756 1.584-2.005-2.417 2.756-1.417zm-9.356 7.17l2.923 1.916-2.254 2.667-3.01-2 2.34-2.584zm-7.435 11.003l3.843 1.5-1.17 3.252-3.926-1.25 1.253-3.502zm-4.177 13.922l4.344.333-.75 4.335-4.095-.5.5-4.168zM40.115 34.06l-.67 2.75-2.84-2.417 1.086-2.167 2.425 1.834zm-.836-7.17l1.753-1.584 1.67 2.5-1.002 1.752-2.42-2.667zm.418 14.59l.166 2.75-3.508-1.5.167-2.917 3.175 1.667zm1.502 8.67l1.588 3.252-4.427-.25-.835-3.002H41.2zm4.345-25.427l-1.085-2 2.338-.584.334 1.333-1.587 1.25zm6.098-1.834v-1.25l2.255.5v1l-2.255-.25zm4.93-.168s-2.507-2.835-7.102-2.335c-4.593.5-12.697 5.17-13.95 15.423-1.253 10.254 3.676 21.425 3.676 21.425h-22.22s-.585-3.668.835-10.67c1.42-7.004 3.51-11.673 7.102-18.342 3.592-6.67 9.355-12.172 17.71-12.92 8.352-.752 14.953 5.918 14.953 5.918l-1.003 1.502z" fill="#D1405F"/></g></svg>