<svg width="70" height="70" viewBox="0 0 70 70" xmlns="http://www.w3.org/2000/svg" xmlns:xlink="http://www.w3.org/1999/xlink"><title>ruby</title><defs><circle id="a" cx="35" cy="35" r="33.279"/></defs><g fill="none" fill-rule="evenodd"><circle fill="#A62C46" cx="35" cy="35" r="35"/><mask id="b" fill="#fff"><use xlink:href="#a"/></mask><use fill="#A62C46" xlink:href="#a"/><path d="M50.616 16.066H19.958L5.164 29.922l30.123 31.395L65.41 29.922 50.616 16.066zm-1.74 14.66l-13.59 26.842-13.588-26.843h27.178zm-26.308-1.473l12.719-10.778 12.718 10.778H22.568zm14.727-10.978h11.982v10.108L37.295 18.275zM21.23 28.449V18.275h12.049l-12.05 10.174zm-1.138 2.276l12.316 24.433L8.98 30.725h11.112zm30.39 0h11.045L38.098 55.158l12.384-24.433zm.268-1.472V19.212l10.71 10.04H50.75zm-30.993 0H9.113l10.644-9.974v9.974z" fill="#F2F2F2" mask="url(#b)"/></g></svg>