<svg width="70" height="70" viewBox="0 0 70 70" xmlns="http://www.w3.org/2000/svg"><title>swift</title><defs><linearGradient x1="50%" y1="0%" x2="50%" y2="100%" id="a"><stop stop-color="#FE9B3A" offset="0%"/><stop stop-color="#FF0929" offset="100%"/></linearGradient></defs><g fill="none" fill-rule="evenodd"><circle fill="url(#a)" cx="35" cy="35" r="35"/><path d="M39.45 12.05C59.153 24.88 53.13 41.015 53.13 41.015s2.124 2.43 3.187 5.443c1.062 3.013 1.05 6.706.857 6.803-.193.098-2.683-4.18-7.038-4.18-4.354 0-6.567 4.18-14.293 4.18-17.394 0-24.938-14.36-24.938-14.36s7.653 5.515 15.668 5.32c8.016-.194 10.237-2.527 10.237-2.527s-3.584-3.018-9.754-9.088c-6.17-6.07-11.975-14.435-11.975-14.435s9.3 7.42 12.284 9.602a179.664 179.664 0 0 0 5.967 4.16s-2.89-3.137-4.925-5.66C26.37 23.75 21.162 16.13 21.162 16.13s7.99 7.26 11.624 10.142c3.635 2.883 10.588 7.743 10.588 7.743s4.19-9.623-3.923-21.968z" fill="#FFF"/></g></svg>