<svg width="70" height="70" viewBox="0 0 70 70" xmlns="http://www.w3.org/2000/svg"><title>swift</title><defs><linearGradient x1="50%" y1="0%" x2="50%" y2="100%" id="a"><stop stop-color="#FE9B3A" offset="0%"/><stop stop-color="#FF0929" offset="100%"/></linearGradient></defs><g fill="none" fill-rule="evenodd"><circle fill="url(#a)" cx="35" cy="35" r="35"/><path d="M39.45 12.05c19.702 12.83 13.678 28.966 13.678 28.966s2.124 2.43 3.187 5.443c1.062 3.014 1.05 6.707.857 6.804-.193.098-2.683-4.18-7.038-4.18-4.354 0-6.567 4.18-14.293 4.18-17.395 0-24.94-14.361-24.94-14.361s7.654 5.516 15.67 5.322c8.015-.195 10.236-2.528 10.236-2.528s-3.584-3.018-9.754-9.088c-6.17-6.07-11.975-14.435-11.975-14.435s9.301 7.42 12.284 9.602a179.664 179.664 0 0 0 5.967 4.16s-2.89-3.137-4.924-5.66c-2.034-2.524-7.243-10.143-7.243-10.143s7.99 7.26 11.624 10.142c3.635 2.883 10.588 7.743 10.588 7.743s4.189-9.623-3.923-21.968z" fill="#FFF"/></g></svg>