<svg width="70" height="70" viewBox="0 0 70 70" xmlns="http://www.w3.org/2000/svg"><title>synfony</title><g fill="none" fill-rule="evenodd"><circle fill="#000" cx="35" cy="35" r="35"/><path d="M51.247 14.924c-3.444.12-6.45 2.045-8.688 4.704-2.477 2.92-4.125 6.378-5.313 9.91-2.124-1.763-3.763-4.049-7.171-5.041-2.635-.769-5.402-.452-7.947 1.47-1.205.912-2.036 2.29-2.43 3.588-1.022 3.368 1.074 6.368 2.027 7.444l2.084 2.261c.43.444 1.464 1.601.959 3.26-.545 1.806-2.692 2.972-4.893 2.285-.984-.307-2.395-1.048-2.08-2.093.131-.426.433-.749.597-1.114.146-.317.219-.557.264-.7.402-1.327-.148-3.057-1.553-3.498-1.313-.407-2.654-.083-3.174 1.626-.591 1.946.328 5.475 5.247 7.011 5.762 1.795 10.636-1.385 11.328-5.533.437-2.595-.723-4.526-2.84-7.007l-1.729-1.937c-1.046-1.06-1.406-2.865-.323-4.252.914-1.172 2.214-1.671 4.348-1.084 3.111.856 4.498 3.044 6.812 4.809-.955 3.177-1.58 6.364-2.144 9.224l-.347 2.13c-1.654 8.793-2.917 13.624-6.2 16.394-.66.478-1.607 1.192-3.032 1.242-.747.024-.988-.498-.997-.724-.018-.53.423-.774.717-1.014.44-.243 1.103-.645 1.057-1.931-.048-1.522-1.293-2.843-3.09-2.783-1.347.043-3.4 1.33-3.323 3.683.08 2.43 2.313 4.252 5.683 4.134 1.801-.061 5.822-.801 9.785-5.579 4.613-5.472 5.903-11.746 6.872-16.336l1.085-6.065c.6.075 1.244.125 1.944.141 5.746.124 8.618-2.89 8.662-5.085.028-1.327-.86-2.635-2.104-2.603-.889.025-2.006.625-2.275 1.872-.262 1.223 1.828 2.328.196 3.4-1.16.762-3.242 1.298-6.171.863l.532-2.984c1.086-5.66 2.428-12.62 7.517-12.79.371-.018 1.727.017 1.759.925.008.304-.067.384-.416 1.078-.359.542-.493 1.004-.477 1.533.05 1.444 1.134 2.395 2.703 2.339 2.1-.072 2.703-2.14 2.668-3.206-.087-2.502-2.688-4.083-6.129-3.967z" fill="#FFF"/></g></svg>