<svg width="70" height="70" viewBox="0 0 70 70" xmlns="http://www.w3.org/2000/svg"><title>synfony</title><g fill="none" fill-rule="evenodd"><circle fill="#000" cx="35" cy="35" r="35"/><path d="M51.247 14.924c-3.444.12-6.45 2.045-8.688 4.704-2.478 2.92-4.126 6.378-5.314 9.91-2.124-1.763-3.763-4.05-7.17-5.04-2.636-.77-5.403-.453-7.948 1.468-1.205.913-2.036 2.29-2.43 3.59-1.022 3.367 1.074 6.367 2.027 7.443l2.084 2.26c.428.444 1.463 1.6.958 3.26-.545 1.806-2.692 2.972-4.893 2.285-.984-.307-2.395-1.048-2.08-2.093.13-.426.433-.75.597-1.114.146-.317.22-.557.264-.7.402-1.327-.148-3.057-1.553-3.498-1.313-.407-2.654-.083-3.174 1.626-.592 1.946.327 5.475 5.246 7.01 5.762 1.796 10.636-1.384 11.328-5.532.437-2.595-.723-4.526-2.84-7.007l-1.73-1.937c-1.045-1.06-1.405-2.865-.322-4.252.914-1.172 2.214-1.67 4.348-1.084 3.11.856 4.498 3.044 6.812 4.81-.955 3.176-1.58 6.363-2.144 9.223l-.347 2.13c-1.653 8.793-2.916 13.624-6.2 16.394-.66.48-1.606 1.193-3.03 1.243-.748.024-.99-.498-.998-.724-.018-.53.423-.775.717-1.015.438-.243 1.102-.645 1.056-1.93-.048-1.523-1.293-2.844-3.09-2.784-1.347.044-3.4 1.33-3.323 3.684.08 2.43 2.313 4.252 5.683 4.134 1.8-.06 5.822-.8 9.785-5.58 4.614-5.47 5.904-11.745 6.873-16.335l1.085-6.065c.6.075 1.244.125 1.944.14 5.746.125 8.618-2.89 8.662-5.084.028-1.327-.86-2.635-2.104-2.603-.89.026-2.006.626-2.275 1.873-.262 1.223 1.828 2.328.196 3.4-1.16.762-3.24 1.298-6.17.863l.532-2.984c1.086-5.66 2.428-12.62 7.517-12.79.37-.018 1.726.017 1.758.925.008.304-.067.384-.416 1.078-.36.542-.493 1.004-.477 1.533.05 1.444 1.134 2.395 2.703 2.34 2.1-.073 2.703-2.142 2.668-3.207-.087-2.5-2.688-4.082-6.13-3.966z" fill="#FFF"/></g></svg>