<svg width="70" height="70" viewBox="0 0 70 70" xmlns="http://www.w3.org/2000/svg"><title>windows</title><g fill="none" fill-rule="evenodd"><circle fill="#FFF" cx="34.5" cy="35.5" r="33.5"/><path d="M35 70c19.33 0 35-15.67 35-35S54.33 0 35 0 0 15.67 0 35s15.67 35 35 35zM14.244 19.834l15.871-2.161.007 15.31-15.864.09-.014-13.239zm15.864 14.912l.012 15.323-15.864-2.18V34.643l15.852.102zm1.924-17.356l21.044-3.071v18.469l-21.044.167V17.39zm21.05 17.5l-.006 18.386-21.044-2.97-.03-15.45 21.08.034z" fill="#00ADEF"/></g></svg>