<svg width="67" height="67" viewBox="0 0 67 67" xmlns="http://www.w3.org/2000/svg"><title>wordpress</title><defs><linearGradient x1="105.366%" y1="100%" x2="15.742%" y2="20.24%" id="a"><stop stop-color="#4A2AB2" offset="0%"/><stop stop-color="#23A5E9" offset="100%"/></linearGradient></defs><g fill="none" fill-rule="evenodd"><circle fill="url(#a)" cx="33.5" cy="33.5" r="33.5"/><path d="M33.93 14c-7.777-.014-15.097 4.598-18.456 11.898l9.445.022v1.033c-2.91-.35-2.653 1.16-2.24 2.764l6.2 15.54 4.557-10.683-2.092-5.007c-.76-1.34-.776-2.83-3.885-2.69l.043-.95 13.854.033v1.067c-1.622.095-3.575-.408-2.54 2.914l5.603 14.72 3.063-8.593c1.003-3.602.06-7.063-1.133-10.458-.663-2.278-.354-4.18 2.618-4.934C44.432 16.046 39.08 14.01 33.93 14zm18.842 13.588L43.79 51c2.48-2.148 5.024-2.93 8.136-8.874 2.07-4.945 1.857-9.525.846-14.538zm-38.25.38c-.876 6.91-.796 8.935 1.374 14.58 2.83 5.405 5.023 6.544 8.136 8.664l-9.51-23.245zm19.758 8.77l-6.656 16.06c4.672 1.332 8.853 1.165 12.68-.318L34.28 36.737z" fill="#FFF"/></g></svg>