<svg width="67" height="67" viewBox="0 0 67 67" xmlns="http://www.w3.org/2000/svg"><title>zendesk</title><defs><linearGradient x1="4.959%" y1="0%" x2="106.99%" y2="119.621%" id="a"><stop stop-color="#A6DB47" offset="0%"/><stop stop-color="#009DAD" offset="100%"/></linearGradient></defs><g fill="none" fill-rule="evenodd"><circle fill="url(#a)" cx="33.5" cy="33.5" r="33.5"/><path d="M50.567 38.55a12.32 12.32 0 0 1-6.043 1.584c-1.335 0-2.656-.22-3.772-.666-2.04 1.84-4.236 3.13-5.34 3.728a12.03 12.03 0 0 0 7.29 5.276c.973.243 1.95.357 2.908.357 2.15 0 4.22-.59 5.98-1.537.26-1.006.39-2.04.39-3.084 0-1.922-.46-3.864-1.413-5.66zm-2.492-15.148c-.362 2.416-1.408 4.564-2.873 6.163.077.424.13.89.13 1.375-.007 2.825-1.465 5.283-3.286 7.26a12.043 12.043 0 0 0 8.997-2.456 12.218 12.218 0 0 0 4.54-7.722c-1.722-2.266-4.252-3.892-7.072-4.6-.145-.032-.28-.09-.427-.116l-.008.096zm-1.923-2.066A12.18 12.18 0 0 0 42.866 13h-.174c-2.878 0-5.4 1.023-7.685 3.09 2.184 2.324 2.97 5.27 2.97 8.213 0 .238-.01.473-.015.702.493-.125.99-.184 1.48-.184h.13c1.878.04 3.772.972 4.86 2.73a12.05 12.05 0 0 0 1.72-6.214zm-21.712-8.12c-.18 0-.352 0-.415-.036a12.02 12.02 0 0 0-3.147 8.12c0 .043 0 .08-.016.105.136 0 .274-.004.415-.004 3.31 0 6.342 1.32 8.49 3.442 1.8.127 3.645 1.084 4.617 2.982.52-1.02 1.296-1.766 2.113-2.147 0-.135.005-.277.005-.416 0-3.325-1.376-6.643-4.054-9.015a12.022 12.022 0 0 0-8.008-3.03zm3.75 11.86h-.002v.002c0-.003.002-.003.002-.003zm-.374-.063a12.02 12.02 0 0 0-8.188-1.458A12.187 12.187 0 0 0 12 28.26a12.03 12.03 0 0 0 4.483 7.564c1.81-2.426 4.344-3.994 6.964-4.496 0-.123-.006-.26-.006-.39-.004-3.288 2.04-5.324 4.376-5.925zm-10.61 13.565a11.97 11.97 0 0 0-1.413 5.637c0 1.14.16 2.266.41 3.268 1.754.962 3.74 1.48 5.79 1.48.97 0 1.95-.117 2.94-.36a12.202 12.202 0 0 1-.45-3.272c0-2.58.82-5.056 2.27-7.107-1.4-1.51-2.585-3.296-3.073-5.316a12.018 12.018 0 0 0-6.473 5.67zm16.735 17.435a12.04 12.04 0 0 0 6.262-6.197c-3.086-1.278-5.366-3.677-6.52-6.447-.986-.51-3.53-1.936-5.85-4.07a12.08 12.08 0 0 0-1.344 5.534 11.8 11.8 0 0 0 1.05 4.9 12.234 12.234 0 0 0 6.403 6.28z" fill="#FFF"/></g></svg>