<svg width="67" height="67" viewBox="0 0 67 67" xmlns="http://www.w3.org/2000/svg"><title>zendesk</title><defs><linearGradient x1="4.959%" y1="0%" x2="106.99%" y2="119.621%" id="a"><stop stop-color="#A6DB47" offset="0%"/><stop stop-color="#009DAD" offset="100%"/></linearGradient></defs><g fill="none" fill-rule="evenodd"><circle fill="url(#a)" cx="33.5" cy="33.5" r="33.5"/><path d="M50.567 38.55a12.321 12.321 0 0 1-6.043 1.584c-1.335 0-2.656-.221-3.772-.666-2.04 1.84-4.236 3.13-5.341 3.728a12.03 12.03 0 0 0 7.292 5.276c.972.243 1.95.357 2.907.357 2.151 0 4.221-.59 5.98-1.536.261-1.006.39-2.04.39-3.084 0-1.921-.459-3.863-1.413-5.66zm-2.492-15.148c-.362 2.416-1.408 4.564-2.873 6.163.077.424.13.889.13 1.375-.007 2.825-1.465 5.283-3.286 7.26a12.043 12.043 0 0 0 8.997-2.456 12.218 12.218 0 0 0 4.541-7.722c-1.723-2.266-4.253-3.892-7.073-4.6-.146-.032-.28-.09-.428-.116l-.008.096zm-1.923-2.066A12.18 12.18 0 0 0 42.866 13h-.174c-2.878 0-5.4 1.023-7.685 3.091 2.184 2.323 2.97 5.268 2.97 8.212 0 .238-.009.473-.015.702.493-.125.99-.184 1.48-.184h.129c1.88.038 3.773.971 4.86 2.73a12.051 12.051 0 0 0 1.721-6.215zM24.44 13.215c-.18 0-.352 0-.415-.035a12.02 12.02 0 0 0-3.147 8.119c0 .044 0 .082-.016.106.136 0 .274-.004.415-.004 3.311 0 6.342 1.319 8.489 3.441 1.802.127 3.646 1.084 4.618 2.982.521-1.02 1.296-1.766 2.113-2.147 0-.135.005-.277.005-.416 0-3.326-1.376-6.644-4.054-9.016a12.022 12.022 0 0 0-8.008-3.03zm3.75 11.86h-.002v.003c0-.003.002-.003.002-.003zm-.374-.062a12.02 12.02 0 0 0-8.188-1.458A12.187 12.187 0 0 0 12 28.259a12.029 12.029 0 0 0 4.483 7.565c1.81-2.426 4.344-3.994 6.964-4.496 0-.123-.006-.26-.006-.39-.005-3.288 2.038-5.324 4.375-5.925zM17.207 38.578a11.971 11.971 0 0 0-1.414 5.637c0 1.14.16 2.266.409 3.268 1.755.962 3.74 1.48 5.79 1.48.97 0 1.952-.117 2.942-.359a12.202 12.202 0 0 1-.451-3.273c0-2.58.819-5.057 2.27-7.108-1.399-1.51-2.585-3.296-3.073-5.316a12.018 12.018 0 0 0-6.473 5.67zm16.734 17.435a12.039 12.039 0 0 0 6.26-6.197c-3.085-1.278-5.365-3.677-6.518-6.447-.987-.51-3.532-1.935-5.852-4.068a12.08 12.08 0 0 0-1.343 5.533 11.8 11.8 0 0 0 1.05 4.9 12.234 12.234 0 0 0 6.403 6.279z" fill="#FFF"/></g></svg>