<svg width="210" height="37" viewBox="0 0 210 37" xmlns="http://www.w3.org/2000/svg"><title>logo/algolia-community/master</title><g fill="none" fill-rule="evenodd"><path fill="#16205A" d="M18.36.104l18.403 18.43-18.318 18.343L.042 18.447"/><path fill="#46AEDA" d="M15.503 5.268l2.863-2.866 3.45 3.456-1.145 1.146-2.3-2.304-1.716 1.72"/><path fill="#FE336F" d="M21.302 31.712L18.44 34.58l-9.777-9.792 1.145-1.146 8.627 8.638 1.717-1.72"/><path fill="#F5A623" d="M22.447 30.566l12.02-12.04-11.5-11.517-1.146 1.146 10.353 10.366-10.876 10.892"/><path fill="#50E3C2" d="M7.49 13.294l-5.153 5.16 5.176 5.182 1.145-1.146-4.025-4.03 4.007-4.014"/><path fill="#BD0FE1" d="M8.634 12.147l5.725-5.732 1.15 1.152L9.783 13.3"/><path d="M18.538 13.796c-3.07 0-5.558 2.477-5.558 5.536 0 3.06 2.49 5.53 5.558 5.53 3.068 0 5.558-2.477 5.558-5.536 0-3.06-2.484-5.53-5.558-5.53zm0 9.432c-2.16 0-3.916-1.746-3.916-3.896s1.755-3.896 3.916-3.896c2.16 0 3.916 1.746 3.916 3.896s-1.75 3.896-3.916 3.896zm0-6.996v2.904c0 .083.09.143.167.1l2.59-1.335c.06-.03.078-.1.05-.16-.557-.97-1.573-1.582-2.688-1.62-.06 0-.12.047-.12.112zm-3.63-2.133l-.34-.34c-.334-.332-.873-.332-1.206 0l-.406.405c-.16.158-.25.374-.25.6 0 .225.09.44.25.6l.334.332c.054.053.132.04.18-.012.197-.27.414-.524.65-.76.238-.24.496-.457.77-.654.06-.034.066-.117.018-.17zm5.45-.88v-.67c0-.47-.382-.85-.853-.85h-1.988c-.472 0-.854.38-.854.85v.688c0 .077.072.13.15.113.562-.16 1.145-.243 1.73-.242.568 0 1.13.077 1.673.225.034.01.07 0 .1-.02.027-.023.043-.057.043-.093z" fill="#FFF"/><path d="M69.346 23.322c0 1.658-.428 2.87-1.284 3.64-.855.77-2.165 1.154-3.93 1.154-.646 0-1.985-.123-3.053-.36l.396-1.927c.897.183 2.077.237 2.697.237.983 0 1.683-.2 2.1-.596.42-.397.628-.987.628-1.77v-.397c-.242.12-.562.238-.96.357-.396.12-.85.18-1.363.18-.674 0-1.29-.106-1.85-.32-.558-.21-1.036-.522-1.434-.933-.397-.41-.707-.925-.93-1.542-.222-.616-.333-1.712-.333-2.52 0-.757.118-1.71.354-2.345.236-.637.58-1.18 1.03-1.63.452-.452 1-.803 1.647-1.055.71-.275 1.464-.416 2.224-.415.795 0 1.53.097 2.243.216.714.12 1.32.245 1.82.378v9.648zm-6.81-4.798c0 1.02.226 2.15.677 2.62.45.47 1.034.707 1.748.707.39 0 .758-.052 1.102-.158.343-.106.623-.232.838-.378v-6.03c-.175-.04-.905-.186-1.617-.206-.89-.025-1.57.336-2.04.913-.472.577-.707 1.592-.707 2.534zm18.433.003c0 .822-.123 1.443-.365 2.12-.243.676-.586 1.252-1.03 1.73-.445.477-.98.848-1.607 1.113-.627.266-1.59.413-2.07.408-.483-.006-1.443-.142-2.062-.408-.62-.265-1.152-.636-1.597-1.113-.445-.478-.792-1.054-1.04-1.73-.25-.677-.375-1.298-.375-2.12 0-.822.116-1.612.365-2.282.25-.67.6-1.243 1.05-1.72.452-.477.987-.845 1.607-1.104.62-.258 1.3-.387 2.04-.387.742 0 1.425.13 2.052.388.625.26 1.16.628 1.605 1.105.445.477.792 1.05 1.04 1.72.25.67.384 1.46.384 2.282zm-2.507.006c0-1.05-.235-1.925-.686-2.537-.45-.612-1.08-.918-1.89-.918-.807 0-1.437.306-1.89.918-.45.612-.667 1.487-.667 2.537 0 1.062.226 1.773.677 2.392.45.618 1.08.928 1.89.928.808 0 1.438-.31 1.89-.928.45-.62.676-1.33.676-2.393zm7.962 5.365c-4.018.018-4.018-3.217-4.018-3.734l-.005-11.476 2.45-.384v11.402c0 .292 0 2.144 1.573 2.147v2.045zm4.31 0h-2.46v-10.48l2.46-.385v10.865zm-1.23-12.015c.823 0 1.49-.658 1.49-1.47 0-.812-.667-1.47-1.49-1.47-.822 0-1.488.658-1.488 1.47 0 .812.666 1.47 1.488 1.47zm7.35 1.15c.807 0 1.488.1 2.04.3.552.198.993.476 1.323.834.33.358.556.836.698 1.347.14.51.212 1.07.212 1.68v6.246c-.378.08-.947.176-1.708.29-.76.11-1.62.168-2.576.168-.633 0-1.213-.06-1.738-.18-.525-.12-.973-.31-1.343-.576-.37-.265-.66-.61-.87-1.034-.208-.425-.313-1.018-.313-1.64 0-.597.118-.973.354-1.384.236-.41.556-.746.96-1.005.404-.26.872-.445 1.404-.558.532-.112 1.088-.17 1.667-.17.27 0 .552.018.85.05.295.034.612.09.95.17v-.398c0-.278-.035-.543-.103-.795-.064-.248-.185-.476-.353-.668-.17-.192-.392-.34-.668-.447-.276-.106-.63-.187-1.046-.187-.566 0-1.08.067-1.55.147-.472.08-.856.172-1.152.278L93.6 13.51c.31-.106.762-.212 1.354-.318.593-.106 1.226-.16 1.9-.16zm.21 8.82c.754 0 1.308-.04 1.7-.12v-2.47c-.136-.04-.33-.08-.587-.12-.256-.04-.54-.06-.85-.06-.268 0-.54.02-.817.06-.276.04-.525.113-.747.22-.222.105-.4.254-.536.446-.134.192-.202.306-.202.597 0 .57.2.898.564 1.117.363.22.855.328 1.474.328zM48.7 13.097c.808 0 1.488.1 2.04.298.553.2.994.477 1.324.835.33.358.556.836.697 1.347.143.51.214 1.07.214 1.68v6.247c-.378.08-.947.175-1.708.288-.76.113-1.62.17-2.576.17-.633 0-1.212-.06-1.738-.18-.525-.12-.973-.31-1.344-.577-.37-.265-.66-.61-.87-1.034-.207-.423-.312-1.016-.312-1.64 0-.596.118-.972.354-1.383.236-.41.556-.746.96-1.004.404-.26.872-.444 1.404-.557.532-.113 1.088-.17 1.667-.17.27 0 .553.018.85.05.296.034.613.09.95.17v-.398c0-.278-.034-.544-.102-.796-.064-.246-.185-.474-.353-.666-.17-.192-.39-.34-.667-.447-.276-.107-.63-.188-1.046-.188-.567 0-1.08.067-1.55.147-.472.078-.856.17-1.153.277l-.294-1.993c.31-.106.762-.212 1.355-.318.593-.106 1.226-.16 1.9-.16zm.21 8.82c.755 0 1.31-.042 1.7-.122v-2.47c-.135-.04-.33-.08-.586-.118-.256-.04-.54-.06-.85-.06-.268 0-.54.02-.817.06-.276.04-.526.113-.748.22-.223.105-.402.254-.536.446-.135.192-.203.306-.203.598 0 .57.202.9.566 1.118.363.22.855.328 1.475.328zm9.932 1.98c-4.018.02-4.018-3.216-4.018-3.734L54.82 8.688l2.45-.384v11.402c0 .292 0 2.144 1.572 2.147v2.045zm49.594-5.396c0-.77.12-1.488.358-2.157.238-.67.58-1.25 1.022-1.74.444-.49.984-.876 1.62-1.154.635-.28 1.35-.42 2.144-.42.98 0 1.907.18 2.78.538l-.516 1.97c-.278-.12-.592-.22-.943-.3-.35-.08-.724-.12-1.12-.12-.94 0-1.656.296-2.146.886-.49.59-.735 1.423-.735 2.497 0 1.035.23 1.854.694 2.457.463.603 1.245.905 2.344.905.41 0 .814-.04 1.21-.12.398-.08.743-.178 1.034-.298l.337 1.99c-.265.132-.666.25-1.202.357-.546.108-1.102.16-1.658.16-.888 0-1.66-.136-2.314-.407-.656-.272-1.2-.65-1.63-1.134-.43-.485-.75-1.062-.962-1.732-.212-.67-.318-1.395-.318-2.177zm19.126-.02c0 .823-.12 1.572-.357 2.248-.24.676-.576 1.253-1.013 1.73-.437.478-.964.85-1.58 1.114-.615.266-1.294.398-2.035.398-.74 0-1.416-.132-2.026-.398-.608-.265-1.13-.636-1.568-1.113-.437-.48-.778-1.056-1.023-1.732-.246-.676-.368-1.425-.368-2.247 0-.82.123-1.567.367-2.237.244-.67.59-1.243 1.032-1.72.444-.478.97-.846 1.58-1.104.608-.26 1.277-.39 2.005-.39s1.4.13 2.016.39c.616.257 1.142.625 1.58 1.103.436.477.777 1.05 1.022 1.72.245.67.367 1.416.367 2.238zm-2.463 0c0-1.034-.223-1.852-.666-2.456-.443-.603-1.063-.905-1.857-.905s-1.414.3-1.857.904c-.443.604-.665 1.422-.665 2.457 0 1.048.222 1.877.665 2.487.444.61 1.063.915 1.857.915s1.414-.305 1.857-.915c.444-.61.665-1.44.665-2.486zm10.863-.258c0-1.087-.135-1.873-.407-2.357-.27-.484-.778-.726-1.52-.726-.264 0-.555.02-.873.06-.318.04-.556.072-.715.098v8.394h-2.403V13.628c.463-.133 1.07-.26 1.817-.378.748-.12 1.54-.18 2.373-.18.715 0 1.3.094 1.758.28.457.185.838.43 1.142.735.146-.106.33-.22.556-.338.226-.12.478-.23.756-.328.29-.104.584-.187.884-.25.31-.066.625-.1.943-.1.808 0 1.473.117 1.996.35.522.23.933.556 1.23.973.298.418.504.922.616 1.512.113.59.17 1.237.17 1.94v5.847h-2.404v-5.47c0-1.087-.133-1.873-.397-2.357-.265-.484-.775-.726-1.53-.726-.384 0-.748.062-1.092.188-.344.126-.602.25-.775.368.106.332.18.683.22 1.054.04.372.058.77.058 1.194v5.748h-2.403v-5.47zm17.18 0c0-1.087-.136-1.873-.407-2.357-.272-.484-.778-.726-1.52-.726-.264 0-.556.02-.873.06-.318.04-.556.072-.715.098v8.394h-2.404V13.628c.464-.133 1.07-.26 1.818-.378.748-.12 1.54-.18 2.373-.18.715 0 1.3.094 1.758.28.457.185.837.43 1.142.735.145-.106.33-.22.556-.338.226-.12.478-.23.756-.328.288-.104.584-.187.883-.25.31-.066.625-.1.943-.1.807 0 1.473.117 1.996.35.522.23.932.556 1.23.973.298.418.503.922.616 1.512.112.59.17 1.237.17 1.94v5.847h-2.404v-5.47c0-1.087-.133-1.873-.398-2.357-.264-.484-.774-.726-1.53-.726-.383 0-.747.062-1.09.188-.346.126-.604.25-.776.368.106.332.18.683.22 1.054.038.372.058.77.058 1.194v5.748h-2.403v-5.47zm19.78 5.15c-.462.12-1.065.244-1.806.37-.74.125-1.556.188-2.443.188-.834 0-1.532-.12-2.095-.358-.564-.238-1.014-.57-1.352-.994-.337-.424-.58-.932-.725-1.522-.145-.59-.218-1.236-.218-1.94V13.29h2.403v5.45c0 1.113.162 1.91.487 2.386.324.477.89.716 1.698.716.29 0 .6-.013.923-.04.325-.026.566-.06.725-.1V13.29h2.404v10.083zm3.06-9.744c.463-.133 1.066-.26 1.807-.378.742-.12 1.563-.18 2.463-.18.848 0 1.556.117 2.125.35.57.23 1.023.556 1.36.973.338.418.577.922.716 1.512.14.59.208 1.237.208 1.94v5.847h-2.403v-5.47c0-.557-.037-1.03-.11-1.422-.073-.39-.192-.71-.358-.955-.165-.245-.39-.424-.675-.537-.285-.112-.632-.17-1.043-.17-.304 0-.622.02-.953.06-.33.04-.575.074-.734.1v8.394h-2.403V13.628zm14.042 10.064h-2.404V13.29h2.405v10.402zm.258-13.445c0 .45-.146.808-.437 1.074-.292.266-.636.398-1.033.398-.41 0-.76-.132-1.053-.397-.29-.265-.436-.622-.436-1.073 0-.465.145-.83.436-1.094.292-.266.643-.398 1.053-.398.397 0 .74.132 1.033.398.29.265.437.63.437 1.094zm2.68.298l2.404-.398v3.143h3.694v2.008h-3.693v4.237c0 .835.133 1.432.397 1.79.265.358.715.537 1.35.537.438 0 .825-.046 1.163-.14.337-.092.606-.178.804-.258l.398 1.91c-.278.12-.642.242-1.092.367-.45.127-.98.19-1.59.19-.74 0-1.36-.1-1.856-.298-.496-.2-.89-.487-1.182-.865-.29-.378-.496-.836-.615-1.373-.12-.537-.18-1.15-.18-1.84v-9.01zm16.903 2.745c-1.073 3.95-2.318 7.53-3.734 10.74-.265.596-.536 1.107-.815 1.53-.278.425-.59.777-.933 1.055-.34.277-.732.483-1.152.607-.423.126-.914.19-1.47.19-.37 0-.738-.04-1.102-.12-.364-.08-.64-.166-.824-.26l.437-1.928c.476.186.947.278 1.41.278.622 0 1.11-.15 1.46-.447.35-.3.658-.76.923-1.383-.754-1.458-1.48-3.05-2.175-4.773-.694-1.725-1.313-3.555-1.856-5.49h2.563c.132.556.294 1.16.486 1.81.397 1.342.844 2.67 1.34 3.977.236.623.488 1.24.755 1.85.424-1.18.82-2.436 1.192-3.77.358-1.283.696-2.573 1.013-3.867h2.483z" fill="#16205A"/></g></svg>