<svg width="95" height="94" viewBox="0 0 95 94" xmlns="http://www.w3.org/2000/svg" xmlns:xlink="http://www.w3.org/1999/xlink"><title>logos/logo-community</title><defs><path id="a" d="M14.4 13.746h65.93v66.262H14.4z"/><path d="M.096.164H61.11v60.878H.096V.164zM2.45 2.576h56.18v56.178H2.45V2.576z" id="b"/><path d="M.08.14H51.8v51.862H.08V.14zM2.08 2.194h47.618v47.86H2.078V2.193z" id="d"/><linearGradient x1="83.805%" y1="-4.118%" x2="29.918%" y2="92.712%" id="f"><stop stop-color="#3CAFD4" offset="0%"/><stop stop-color="#167195" offset="100%"/></linearGradient><path id="g" d="M45.54 0h22.206v45.186H45.54z"/><path d="M1.183 20.036c0 7.868 6.18 14.247 13.803 14.247 7.623 0 13.802-6.38 13.802-14.247S22.608 5.79 14.986 5.79c-7.624 0-13.803 6.38-13.803 14.246zm13.803-11.24c6.004 0 10.89 5.042 10.89 11.24s-4.886 11.24-10.89 11.24c-6.005 0-10.89-5.042-10.89-11.24s4.885-11.24 10.89-11.24z" id="h"/></defs><g fill="none" fill-rule="evenodd"><g><use fill="#1D3657" transform="rotate(45 47.364 46.877)" xlink:href="#a"/><use xlink:href="#a"/><use xlink:href="#a"/><use xlink:href="#a"/><use xlink:href="#a"/><use xlink:href="#a"/></g><g transform="rotate(135 35.68 42.274)"><mask id="c" fill="#fff"><use xlink:href="#b"/></mask><use fill="#9EDE5B" xlink:href="#b"/><g mask="url(#c)" stroke="#1D3657" stroke-width="2"><path fill="#46AEDA" d="M48.138-19.095h33.384V48.49H48.138zM-20.32 48.59h33.44v31.54h-33.44z"/><path fill="#BD0FE1" d="M13.12 48.49h34.962v31.54h-34.96z"/><path fill="#F8E81C" d="M36.223 36.055h33.44V69.48h-33.44z"/></g></g><g transform="rotate(45 11.865 62.392)"><mask id="e" fill="#fff"><use xlink:href="#d"/></mask><use stroke="#979797" fill="#D8D8D8" xlink:href="#d"/><g mask="url(#e)"><g transform="translate(-7.933 -7.065)"><use stroke="#1D3657" stroke-width="2" fill="url(#f)" xlink:href="#g"/><use fill="#FE336F" xlink:href="#g"/></g><path stroke="#1D3657" stroke-width="2" fill="#46AEDA" d="M-7.933 38.187h22.245v21.087H-7.933z"/><path stroke="#1D3657" stroke-width="2" fill="#BD0FE1" d="M14.312 38.12h23.256V59.21H14.312z"/><path stroke="#1D3657" stroke-width="2" fill="#F6A623" d="M-7.652-7.065h45.258V38.12H-7.652z"/><path stroke="#1D3657" stroke-width="2" fill="#50E3C2" d="M29.68 29.807h22.245v22.346H29.68z"/></g></g><g transform="translate(33.072 28.667)"><use fill="#FFF" xlink:href="#h"/><use xlink:href="#h"/></g><path d="M50.718 40.487l-2.016 7.375 6.494-3.674c-.943-1.785-2.553-3.134-4.478-3.7zM52.78 32.722v-1.27c0-1.4-1.096-2.537-2.448-2.537h-4.285c-1.35 0-2.447 1.136-2.447 2.538V32.7a15.338 15.338 0 0 1 9.165.185c.004-.055.015-.107.015-.163zM37.807 35.37a2.39 2.39 0 0 0-3.463 0l-.432.447a2.606 2.606 0 0 0 0 3.59l.46.477a16.43 16.43 0 0 1 3.683-4.258l-.248-.257z" fill="#FFF"/></g></svg>