<svg width="100" height="100" viewBox="0 0 100 100" xmlns="http://www.w3.org/2000/svg" xmlns:xlink="http://www.w3.org/1999/xlink"><title>logo-community</title><defs><path d="M1.224 20.609c0 8.092 6.392 14.653 14.278 14.653 7.887 0 14.278-6.561 14.278-14.653S23.39 5.955 15.502 5.955c-7.886 0-14.278 6.562-14.278 14.654zM15.502 9.047c6.212 0 11.266 5.187 11.266 11.562 0 6.375-5.054 11.562-11.266 11.562-6.211 0-11.266-5.187-11.266-11.562 0-6.375 5.055-11.562 11.266-11.562z" id="a"/></defs><g fill="none" fill-rule="evenodd"><path fill="#1D3657" d="M.503 50L50 .503 99.497 50 50 99.497z"/><path d="M58.485 85.355L59.9 86.77 96.67 50 61.314 14.645l-1.415 1.414L93.841 50 58.485 85.355z" fill="#9EDE5B"/><path d="M22.423 66.263l-1.414 1.415L50 96.669l8.485-8.485-1.414-1.414L50 93.84 22.423 66.264z" fill="#46AEDA"/><path d="M19.594 36.565l-1.414-1.414L3.331 50l16.263 16.263 1.415-1.414L6.159 50l13.435-13.435z" fill="#F8E71C"/><path d="M40.1 16.059l-1.414-1.414-19.092 19.092 1.415 1.414L40.1 16.059z" fill="#BD10E0"/><path d="M41.515 14.645L40.1 13.23 50 3.331l9.9 9.9-1.415 1.414L50 6.159l-8.485 8.486zM16.059 57.071L8.988 50l7.07-7.071 1.415 1.414L11.816 50l5.657 5.657-1.414 1.414z" fill="#46AEDA"/><path d="M83.234 42.222L91.012 50 68.385 72.627l-1.414-1.414L88.184 50l-6.364-6.364 1.414-1.414z" fill="#FE336F"/><path d="M81.82 40.808L50 8.988 17.473 41.515l1.414 1.414L50 11.816l30.406 30.406 1.414-1.414z" fill="#F5A623"/><path d="M30.908 71.92L50 91.012l16.97-16.97-1.414-1.415L50 88.184 32.322 70.506l-1.414 1.414z" fill="#50E3C2"/><path d="M29.494 70.506l-12.02-12.02 1.413-1.415 12.021 12.02-1.414 1.415z" fill="#FE336F"/><g><g transform="translate(35 32)"><use fill="#FFF" xlink:href="#a"/><use xlink:href="#a"/></g><path d="M53.255 44.158l-2.086 7.585 6.718-3.778c-.976-1.836-2.64-3.224-4.632-3.807zM55.388 36.171v-1.305c0-1.441-1.134-2.61-2.533-2.611h-4.432c-1.398 0-2.532 1.169-2.532 2.61v1.283a15.952 15.952 0 0 1 9.48.19c.005-.056.017-.11.017-.167zM39.899 38.893a2.48 2.48 0 0 0-3.583 0l-.447.462a2.669 2.669 0 0 0 0 3.692l.476.49a16.926 16.926 0 0 1 3.81-4.38l-.256-.264z" fill="#FFF"/></g></g></svg>