<svg width="100" height="100" viewBox="0 0 100 100" xmlns="http://www.w3.org/2000/svg" xmlns:xlink="http://www.w3.org/1999/xlink"><title>logo-community</title><defs><path d="M1.224 20.61c0 8.09 6.392 14.652 14.278 14.652 7.887 0 14.278-6.56 14.278-14.653S23.39 5.954 15.502 5.954c-7.886 0-14.278 6.562-14.278 14.654zM15.502 9.046c6.212 0 11.266 5.187 11.266 11.562 0 6.374-5.054 11.56-11.266 11.56-6.21 0-11.266-5.186-11.266-11.56 0-6.376 5.055-11.563 11.266-11.563z" id="a"/></defs><g fill="none" fill-rule="evenodd"><path fill="#1D3657" d="M.503 50L50 .503 99.497 50 50 99.497z"/><path d="M58.485 85.355L59.9 86.77 96.67 50 61.313 14.645 59.9 16.06 93.84 50 58.486 85.355z" fill="#9EDE5B"/><path d="M22.423 66.263l-1.414 1.415L50 96.668l8.485-8.484-1.414-1.414L50 93.84 22.423 66.264z" fill="#46AEDA"/><path d="M19.594 36.565L18.18 35.15 3.33 50l16.264 16.263 1.415-1.414L6.16 50l13.434-13.435z" fill="#F8E71C"/><path d="M40.1 16.06l-1.414-1.415-19.092 19.092 1.415 1.414L40.1 16.06z" fill="#BD10E0"/><path d="M41.515 14.645L40.1 13.23l9.9-9.9 9.9 9.9-1.415 1.415L50 6.16l-8.485 8.485zM16.06 57.07L8.987 50l7.07-7.07 1.415 1.413L11.816 50l5.657 5.657-1.414 1.414z" fill="#46AEDA"/><path d="M83.234 42.222L91.012 50 68.385 72.627l-1.414-1.414L88.185 50l-6.364-6.364 1.414-1.414z" fill="#FE336F"/><path d="M81.82 40.808L50 8.988 17.473 41.515l1.414 1.414L50 11.815l30.406 30.406 1.414-1.414z" fill="#F5A623"/><path d="M30.908 71.92L50 91.012l16.97-16.97-1.414-1.415L50 88.184 32.322 70.506l-1.414 1.414z" fill="#50E3C2"/><path d="M29.494 70.506l-12.02-12.02 1.413-1.415 12.02 12.022-1.413 1.414z" fill="#FE336F"/><g><g transform="translate(35 32)"><use fill="#FFF" xlink:href="#a"/><use xlink:href="#a"/></g><path d="M53.255 44.158l-2.086 7.585 6.717-3.778c-.976-1.836-2.64-3.224-4.632-3.807zM55.388 36.17v-1.304c0-1.44-1.134-2.61-2.533-2.61h-4.432c-1.398 0-2.532 1.168-2.532 2.61v1.282a15.952 15.952 0 0 1 9.482.19c.004-.056.016-.11.016-.167zM39.9 38.893a2.48 2.48 0 0 0-3.584 0l-.447.462a2.67 2.67 0 0 0 0 3.692l.475.49a16.926 16.926 0 0 1 3.81-4.38l-.256-.264z" fill="#FFF"/></g></g></svg>