<?xml version="1.0" encoding="UTF-8" standalone="no"?>
<svg width="70px" height="70px" viewBox="0 0 70 70" version="1.1" xmlns="http://www.w3.org/2000/svg" xmlns:xlink="http://www.w3.org/1999/xlink" xmlns:sketch="http://www.bohemiancoding.com/sketch/ns">
    <!-- Generator: Sketch 3.5.2 (25235) - http://www.bohemiancoding.com/sketch -->
    <title>algolia-helper</title>
    <desc>Created with Sketch.</desc>
    <defs>
        <linearGradient x1="29.7170928%" y1="7.73459208%" x2="72.3307292%" y2="79.7609813%" id="linearGradient-1">
            <stop stop-color="#4ABFDF" offset="0%"></stop>
            <stop stop-color="#2897C5" offset="100%"></stop>
        </linearGradient>
    </defs>
    <g id="Page-1" stroke="none" stroke-width="1" fill="none" fill-rule="evenodd" sketch:type="MSPage">
        <g id="Desktop-HD" sketch:type="MSArtboardGroup" transform="translate(-265.000000, -1588.000000)">
            <g id="tools" sketch:type="MSLayerGroup" transform="translate(0.000000, 1417.000000)">
                <g id="algolia-helper" transform="translate(265.000000, 171.000000)" sketch:type="MSShapeGroup">
                    <circle id="Oval-148" fill="#FFFFFF" cx="35.5" cy="35.5" r="33.5"></circle>
                    <path d="M35,70 C54.3299662,70 70,54.3299662 70,35 C70,15.6700338 54.3299662,0 35,0 C15.6700338,0 0,15.6700338 0,35 C0,54.3299662 15.6700338,70 35,70 Z M16.5795384,36.8089283 C16.5795384,47.5213314 25.2126481,56.2074687 35.8655268,56.2074687 C46.5184054,56.2074687 55.1515152,47.5213314 55.1515152,36.8089283 C55.1515152,26.0965252 46.5184054,17.4103879 35.8655268,17.4103879 C25.2126481,17.4103879 16.5795384,26.0965252 16.5795384,36.8089283 Z M35.8655268,22.952828 C43.4611067,22.952828 49.6412328,29.169021 49.6412328,36.8089283 C49.6412328,44.4488356 43.4611067,50.6650286 35.8655268,50.6650286 C28.2699469,50.6650286 22.0898208,44.4488356 22.0898208,36.8089283 C22.0898208,29.169021 28.2699469,22.952828 35.8655268,22.952828 Z M42.5220813,15.0110386 C42.5272742,14.9358403 42.5437181,14.8641397 42.5437181,14.7871926 L42.5437181,13.0383958 C42.5428527,11.107724 40.9936566,9.54167645 39.0818275,9.54080205 L33.0226534,9.54080205 C31.1116898,9.54167645 29.5616283,11.1068496 29.5616283,13.0383958 L29.5616283,14.7565887 C31.4907668,14.210964 33.5203002,13.9127942 35.6199369,13.9127942 C38.0268163,13.9127942 40.3454176,14.3010271 42.5220813,15.0110386 Z M21.370795,18.4343084 C20.0189267,17.0684981 17.825819,17.0693725 16.4739507,18.4343084 L15.8620615,19.0525081 C14.5101932,20.4174441 14.5110587,22.6331697 15.8620615,23.99898 L16.5137625,24.6565276 C17.9011151,22.4075749 19.6675448,20.4226905 21.720446,18.7884398 L21.370795,18.4343084 Z M38.7521813,26.6025127 L35.9465798,36.6023436 L44.9823808,31.6211896 C43.6701083,29.2009678 41.4308886,27.3709488 38.7521813,26.6025127 Z" fill="url(#linearGradient-1)"></path>
                </g>
            </g>
        </g>
    </g>
</svg>