<?xml version="1.0" encoding="UTF-8" standalone="no"?>
<svg width="70px" height="70px" viewBox="0 0 70 70" version="1.1" xmlns="http://www.w3.org/2000/svg" xmlns:xlink="http://www.w3.org/1999/xlink" xmlns:sketch="http://www.bohemiancoding.com/sketch/ns">
    <!-- Generator: Sketch 3.5.2 (25235) - http://www.bohemiancoding.com/sketch -->
    <title>algolia-helper</title>
    <desc>Created with Sketch.</desc>
    <defs>
        <linearGradient x1="29.7170928%" y1="7.73459208%" x2="72.3307292%" y2="79.7609813%" id="linearGradient-1">
            <stop stop-color="#4ABFDF" offset="0%"></stop>
            <stop stop-color="#2897C5" offset="100%"></stop>
        </linearGradient>
    </defs>
    <g id="Page-1" stroke="none" stroke-width="1" fill="none" fill-rule="evenodd" sketch:type="MSPage">
        <g id="Desktop-HD" sketch:type="MSArtboardGroup" transform="translate(-265.000000, -1588.000000)" fill="url(#linearGradient-1)">
            <g id="tools" sketch:type="MSLayerGroup" transform="translate(0.000000, 1417.000000)">
                <path d="M300,241 C319.329966,241 335,225.329966 335,206 C335,186.670034 319.329966,171 300,171 C280.670034,171 265,186.670034 265,206 C265,225.329966 280.670034,241 300,241 Z M281.579538,207.808928 C281.579538,218.521331 290.212648,227.207469 300.865527,227.207469 C311.518405,227.207469 320.151515,218.521331 320.151515,207.808928 C320.151515,197.096525 311.518405,188.410388 300.865527,188.410388 C290.212648,188.410388 281.579538,197.096525 281.579538,207.808928 Z M300.865527,193.952828 C308.461107,193.952828 314.641233,200.169021 314.641233,207.808928 C314.641233,215.448836 308.461107,221.665029 300.865527,221.665029 C293.269947,221.665029 287.089821,215.448836 287.089821,207.808928 C287.089821,200.169021 293.269947,193.952828 300.865527,193.952828 Z M307.522081,186.011039 C307.527274,185.93584 307.543718,185.86414 307.543718,185.787193 L307.543718,184.038396 C307.542853,182.107724 305.993657,180.541676 304.081828,180.540802 L298.022653,180.540802 C296.11169,180.541676 294.561628,182.10685 294.561628,184.038396 L294.561628,185.756589 C296.490767,185.210964 298.5203,184.912794 300.619937,184.912794 C303.026816,184.912794 305.345418,185.301027 307.522081,186.011039 Z M286.370795,189.434308 C285.018927,188.068498 282.825819,188.069372 281.473951,189.434308 L280.862062,190.052508 C279.510193,191.417444 279.511059,193.63317 280.862062,194.99898 L281.513762,195.656528 C282.901115,193.407575 284.667545,191.42269 286.720446,189.78844 L286.370795,189.434308 Z M303.752181,197.602513 L300.94658,207.602344 L309.982381,202.62119 C308.670108,200.200968 306.430889,198.370949 303.752181,197.602513 Z" id="algolia-helper" sketch:type="MSShapeGroup"></path>
            </g>
        </g>
    </g>
</svg>