<?xml version="1.0" encoding="UTF-8" standalone="no"?>
<svg width="70px" height="70px" viewBox="0 0 70 70" version="1.1" xmlns="http://www.w3.org/2000/svg" xmlns:xlink="http://www.w3.org/1999/xlink" xmlns:sketch="http://www.bohemiancoding.com/sketch/ns">
    <!-- Generator: Sketch 3.5.2 (25235) - http://www.bohemiancoding.com/sketch -->
    <title>android</title>
    <desc>Created with Sketch.</desc>
    <defs></defs>
    <g id="Page-1" stroke="none" stroke-width="1" fill="none" fill-rule="evenodd" sketch:type="MSPage">
        <g id="Desktop-HD" sketch:type="MSArtboardGroup" transform="translate(-96.000000, -1969.000000)">
            <g id="tools" sketch:type="MSLayerGroup" transform="translate(0.000000, 1417.000000)">
                <g id="android" transform="translate(96.000000, 552.000000)" sketch:type="MSShapeGroup">
                    <circle id="Oval-148" fill="#FFFFFF" cx="35.5" cy="35.5" r="33.5"></circle>
                    <path d="M35,70 C54.3299662,70 70,54.3299662 70,35 C70,15.6700338 54.3299662,0 35,0 C15.6700338,0 0,15.6700338 0,35 C0,54.3299662 15.6700338,70 35,70 Z M14.3708686,25.8656986 C12.4372832,25.8647699 10.8702104,27.4430692 10.8697484,29.3847938 L10.8722124,44.1219338 C10.8726744,46.070314 12.4426731,47.6427317 14.3737946,47.644589 C16.309074,47.6422673 17.8764547,46.0692305 17.8744528,44.1220886 L17.8746068,29.3829364 C17.8738368,27.4416762 16.3046081,25.8644603 14.3708686,25.8656986 Z M42.6068217,12.6317892 L45.0505989,8.14608816 C45.1810343,7.9117501 45.09572,7.61147544 44.8601047,7.48161438 C44.6209475,7.35237245 44.3260434,7.44059748 44.2002279,7.67617379 L41.7307331,12.2067613 C39.6539305,11.2803985 37.3288849,10.7586325 34.8707859,10.7612638 C32.4177688,10.7590969 30.0965731,11.2780767 28.0257764,12.2019631 L25.5548956,7.68143634 C25.4273862,7.44291919 25.1295561,7.35577763 24.8971747,7.48703171 C24.6595575,7.61441627 24.5725492,7.91407181 24.7042166,8.14794553 L27.1493798,12.6297771 C22.3452916,15.120509 19.0998063,19.8622174 19.1022703,25.3061661 L50.6425354,25.3029157 C50.6433054,19.8597409 47.403518,15.1279385 42.6068217,12.6317892 Z M27.6971469,19.563181 C26.9708974,19.5614784 26.3792412,18.968049 26.3789332,18.2350073 C26.3793952,17.5047517 26.9705894,16.904512 27.6983789,16.904512 C28.4295563,16.9038928 29.0212125,17.5047517 29.0221365,18.2346978 C29.0224445,18.9672751 28.4295563,19.5627167 27.6971469,19.563181 Z M42.0584386,19.5605497 C41.3294171,19.5613236 40.734681,18.968049 40.736067,18.2317569 C40.736067,17.5032039 41.3284931,16.9024998 42.0590546,16.9000233 C42.7842261,16.9020355 43.3792703,17.5028944 43.3786543,18.2325308 C43.3791163,18.9661916 42.7874601,19.5607045 42.0584386,19.5605497 Z M19.2367096,49.3668345 C19.2348616,51.4463139 20.9051123,53.1252208 22.9722131,53.1244469 L25.5163964,53.1246017 L25.5191683,60.9223013 C25.5188604,62.8634068 27.0879351,64.4415513 29.0179786,64.4418609 C30.952796,64.4418609 32.5201768,62.8621685 32.5184828,60.91967 L32.5187908,53.123673 L37.2458805,53.1228991 L37.2455725,60.9201344 C37.2472665,62.8615494 38.8184972,64.4412418 40.7480787,64.4381462 C42.6825881,64.4393844 44.2510469,62.859692 44.2507389,60.9170388 L44.2485829,53.1218156 L46.801852,53.1210417 C48.8620229,53.1218156 50.5379715,51.4390392 50.5378175,49.3638936 L50.5339676,26.5246002 L19.2311657,26.5301723 L19.2367096,49.3668345 Z M55.3865649,25.8610551 C53.4532874,25.8595073 51.8860607,27.4374971 51.8865226,29.3812338 L51.8877546,44.1183739 C51.8886786,46.0642775 53.4549814,47.6385526 55.3902608,47.6373143 C57.3235382,47.6370048 58.888917,46.063968 58.890457,44.1171356 L58.8866071,29.3803052 C58.8862991,27.4361041 57.3203043,25.8605908 55.3865649,25.8610551 Z" fill="#A4C145"></path>
                </g>
            </g>
        </g>
    </g>
</svg>