<?xml version="1.0" encoding="UTF-8" standalone="no"?>
<svg width="70px" height="70px" viewBox="0 0 70 70" version="1.1" xmlns="http://www.w3.org/2000/svg" xmlns:xlink="http://www.w3.org/1999/xlink" xmlns:sketch="http://www.bohemiancoding.com/sketch/ns">
    <!-- Generator: Sketch 3.5.2 (25235) - http://www.bohemiancoding.com/sketch -->
    <title>android</title>
    <desc>Created with Sketch.</desc>
    <defs></defs>
    <g id="Page-1" stroke="none" stroke-width="1" fill="none" fill-rule="evenodd" sketch:type="MSPage">
        <g id="Desktop-HD" sketch:type="MSArtboardGroup" transform="translate(-96.000000, -1969.000000)" fill="#A4C145">
            <g id="tools" sketch:type="MSLayerGroup" transform="translate(0.000000, 1417.000000)">
                <path d="M131,622 C150.329966,622 166,606.329966 166,587 C166,567.670034 150.329966,552 131,552 C111.670034,552 96,567.670034 96,587 C96,606.329966 111.670034,622 131,622 Z M110.370869,577.865699 C108.437283,577.86477 106.87021,579.443069 106.869748,581.384794 L106.872212,596.121934 C106.872674,598.070314 108.442673,599.642732 110.373795,599.644589 C112.309074,599.642267 113.876455,598.06923 113.874453,596.122089 L113.874607,581.382936 C113.873837,579.441676 112.304608,577.86446 110.370869,577.865699 Z M138.606822,564.631789 L141.050599,560.146088 C141.181034,559.91175 141.09572,559.611475 140.860105,559.481614 C140.620948,559.352372 140.326043,559.440597 140.200228,559.676174 L137.730733,564.206761 C135.653931,563.280398 133.328885,562.758633 130.870786,562.761264 C128.417769,562.759097 126.096573,563.278077 124.025776,564.201963 L121.554896,559.681436 C121.427386,559.442919 121.129556,559.355778 120.897175,559.487032 C120.659557,559.614416 120.572549,559.914072 120.704217,560.147946 L123.14938,564.629777 C118.345292,567.120509 115.099806,571.862217 115.10227,577.306166 L146.642535,577.302916 C146.643305,571.859741 143.403518,567.127938 138.606822,564.631789 Z M123.697147,571.563181 C122.970897,571.561478 122.379241,570.968049 122.378933,570.235007 C122.379395,569.504752 122.970589,568.904512 123.698379,568.904512 C124.429556,568.903893 125.021213,569.504752 125.022137,570.234698 C125.022444,570.967275 124.429556,571.562717 123.697147,571.563181 Z M138.058439,571.56055 C137.329417,571.561324 136.734681,570.968049 136.736067,570.231757 C136.736067,569.503204 137.328493,568.9025 138.059055,568.900023 C138.784226,568.902035 139.37927,569.502894 139.378654,570.232531 C139.379116,570.966192 138.78746,571.560705 138.058439,571.56055 Z M115.23671,601.366834 C115.234862,603.446314 116.905112,605.125221 118.972213,605.124447 L121.516396,605.124602 L121.519168,612.922301 C121.51886,614.863407 123.087935,616.441551 125.017979,616.441861 C126.952796,616.441861 128.520177,614.862169 128.518483,612.91967 L128.518791,605.123673 L133.245881,605.122899 L133.245573,612.920134 C133.247267,614.861549 134.818497,616.441242 136.748079,616.438146 C138.682588,616.439384 140.251047,614.859692 140.250739,612.917039 L140.248583,605.121816 L142.801852,605.121042 C144.862023,605.121816 146.537972,603.439039 146.537818,601.363894 L146.533968,578.5246 L115.231166,578.530172 L115.23671,601.366834 Z M151.386565,577.861055 C149.453287,577.859507 147.886061,579.437497 147.886523,581.381234 L147.887755,596.118374 C147.888679,598.064278 149.454981,599.638553 151.390261,599.637314 C153.323538,599.637005 154.888917,598.063968 154.890457,596.117136 L154.886607,581.380305 C154.886299,579.436104 153.320304,577.860591 151.386565,577.861055 Z" id="android" sketch:type="MSShapeGroup"></path>
            </g>
        </g>
    </g>
</svg>