<?xml version="1.0" encoding="UTF-8" standalone="no"?>
<svg width="70px" height="70px" viewBox="0 0 70 70" version="1.1" xmlns="http://www.w3.org/2000/svg" xmlns:xlink="http://www.w3.org/1999/xlink" xmlns:sketch="http://www.bohemiancoding.com/sketch/ns">
    <!-- Generator: Sketch 3.5.2 (25235) - http://www.bohemiancoding.com/sketch -->
    <title>autocompletejs</title>
    <desc>Created with Sketch.</desc>
    <defs></defs>
    <g id="Page-1" stroke="none" stroke-width="1" fill="none" fill-rule="evenodd" sketch:type="MSPage">
        <g id="Desktop-HD" sketch:type="MSArtboardGroup" transform="translate(-624.000000, -1588.000000)">
            <g id="tools" sketch:type="MSLayerGroup" transform="translate(0.000000, 1417.000000)">
                <g id="autocompletejs" transform="translate(624.000000, 171.000000)" sketch:type="MSShapeGroup">
                    <circle id="Oval-148" fill="#FFFFFF" cx="35.5" cy="35.5" r="33.5"></circle>
                    <path d="M35,70 C54.3299662,70 70,54.3299662 70,35 C70,15.6700338 54.3299662,0 35,0 C15.6700338,0 0,15.6700338 0,35 C0,54.3299662 15.6700338,70 35,70 Z M35.5,10.8382138 C23.9854377,10.8382138 14.6468557,20.2231642 14.6468557,31.7948991 C14.6468557,43.366634 23.9854377,52.7515843 35.5,52.7515843 C47.0145623,52.7515843 56.3531443,43.366634 56.3531443,31.7948991 C56.3531443,20.2231642 47.0145623,10.8382138 35.5,10.8382138 Z M17.4980337,31.6912992 C17.4980337,21.7491626 25.5147876,13.6926037 35.4078029,13.6926037 C45.3008183,13.6926037 53.3175722,21.7491626 53.3175722,31.6912992 C53.3175722,41.6334358 45.3008183,49.6899948 35.4078029,49.6899948 C25.5147876,49.6899948 17.4980337,41.6334358 17.4980337,31.6912992 Z M20.4371303,32.3757136 L22.1941988,32.3757136 C22.1941988,25.0476732 28.0803786,19.1322672 35.3722132,19.1322672 L35.3722132,17.3664743 C27.1139909,17.3664743 20.4371303,24.0764872 20.4371303,32.3757136 Z M34.2150938,54.3651286 L34.2150938,57.9018808 L21.3110741,57.9018808 L21.3110741,60.2597156 L49.465299,60.2597156 L49.465299,57.9018808 L36.5612793,57.9018808 L36.5612793,54.3651286 L34.2150938,54.3651286 Z" fill="#18AEA3"></path>
                </g>
            </g>
        </g>
    </g>
</svg>