<?xml version="1.0" encoding="UTF-8" standalone="no"?>
<svg width="70px" height="70px" viewBox="0 0 70 70" version="1.1" xmlns="http://www.w3.org/2000/svg" xmlns:xlink="http://www.w3.org/1999/xlink" xmlns:sketch="http://www.bohemiancoding.com/sketch/ns">
    <!-- Generator: Sketch 3.5.2 (25235) - http://www.bohemiancoding.com/sketch -->
    <title>autocompletejs</title>
    <desc>Created with Sketch.</desc>
    <defs></defs>
    <g id="Page-1" stroke="none" stroke-width="1" fill="none" fill-rule="evenodd" sketch:type="MSPage">
        <g id="Desktop-HD" sketch:type="MSArtboardGroup" transform="translate(-624.000000, -1588.000000)" fill="#18AEA3">
            <g id="tools" sketch:type="MSLayerGroup" transform="translate(0.000000, 1417.000000)">
                <path d="M659,241 C678.329966,241 694,225.329966 694,206 C694,186.670034 678.329966,171 659,171 C639.670034,171 624,186.670034 624,206 C624,225.329966 639.670034,241 659,241 Z M659.5,181.838214 C647.985438,181.838214 638.646856,191.223164 638.646856,202.794899 C638.646856,214.366634 647.985438,223.751584 659.5,223.751584 C671.014562,223.751584 680.353144,214.366634 680.353144,202.794899 C680.353144,191.223164 671.014562,181.838214 659.5,181.838214 Z M641.498034,202.691299 C641.498034,192.749163 649.514788,184.692604 659.407803,184.692604 C669.300818,184.692604 677.317572,192.749163 677.317572,202.691299 C677.317572,212.633436 669.300818,220.689995 659.407803,220.689995 C649.514788,220.689995 641.498034,212.633436 641.498034,202.691299 Z M644.43713,203.375714 L646.194199,203.375714 C646.194199,196.047673 652.080379,190.132267 659.372213,190.132267 L659.372213,188.366474 C651.113991,188.366474 644.43713,195.076487 644.43713,203.375714 Z M658.215094,225.365129 L658.215094,228.901881 L645.311074,228.901881 L645.311074,231.259716 L673.465299,231.259716 L673.465299,228.901881 L660.561279,228.901881 L660.561279,225.365129 L658.215094,225.365129 Z" id="autocompletejs" sketch:type="MSShapeGroup"></path>
            </g>
        </g>
    </g>
</svg>