<?xml version="1.0" encoding="UTF-8" standalone="no"?>
<svg width="70px" height="70px" viewBox="0 0 70 70" version="1.1" xmlns="http://www.w3.org/2000/svg" xmlns:xlink="http://www.w3.org/1999/xlink" xmlns:sketch="http://www.bohemiancoding.com/sketch/ns">
    <!-- Generator: Sketch 3.5.2 (25235) - http://www.bohemiancoding.com/sketch -->
    <title>cmd</title>
    <desc>Created with Sketch.</desc>
    <defs></defs>
    <g id="Page-1" stroke="none" stroke-width="1" fill="none" fill-rule="evenodd" sketch:type="MSPage">
        <g id="Desktop-HD" sketch:type="MSArtboardGroup" transform="translate(-606.000000, -2469.000000)">
            <g id="tools" sketch:type="MSLayerGroup" transform="translate(0.000000, 1417.000000)">
                <g id="cmd" transform="translate(606.000000, 1052.000000)" sketch:type="MSShapeGroup">
                    <circle id="Oval-148" fill="#FFFFFF" cx="34.5" cy="34.5" r="33.5"></circle>
                    <path d="M35,70 C54.3299662,70 70,54.3299662 70,35 C70,15.6700338 54.3299662,0 35,0 C15.6700338,0 0,15.6700338 0,35 C0,54.3299662 15.6700338,70 35,70 Z M55.563791,15.0872473 L14.436209,15.0872473 C13.06375,15.0872473 11.9519262,16.1968716 11.9519262,17.5660314 L11.9519262,21.2567145 L11.9519262,38.4982309 L11.9519262,54.9138525 L58.046974,54.9138525 L58.046974,38.4982309 L58.046974,21.2567145 L58.046974,17.5660314 C58.046974,16.1968716 56.9351503,15.0872473 55.563791,15.0872473 Z M54.0714617,49.7825273 L15.68,49.7825273 C15.1840232,49.7825273 14.7837227,49.381127 14.7837227,48.88625 L14.7837227,18.710847 C14.7837227,18.2148702 15.185123,17.8145697 15.68,17.8145697 L54.0714617,17.8145697 C54.5674385,17.8145697 54.9677391,18.2159699 54.9677391,18.710847 L54.9677391,48.88625 C54.9677391,49.381127 54.5674385,49.7825273 54.0714617,49.7825273 Z M21.826373,44.3344809 C20.8542145,44.2673975 19.966735,43.9737705 19.1628347,43.4535997 L19.9711339,41.4993852 C20.8355191,42.116332 21.6856079,42.4231557 22.5203005,42.4231557 C23.8047814,42.4231557 24.4470219,41.9810656 24.4470219,41.0946858 C24.4470219,40.6525956 24.2831626,40.2368989 23.9543443,39.8464959 C23.625526,39.4571926 23.0030806,39.0326981 22.0848087,38.5730123 C21.1665369,38.1133265 20.5418921,37.732821 20.2108743,37.4303962 C19.8798566,37.129071 19.6247199,36.7672609 19.4487637,36.3493648 C19.2717077,35.9303689 19.1826298,35.462985 19.1826298,34.9483128 C19.1826298,34.1873019 19.4223702,33.5164686 19.8996516,32.9347131 C20.3780328,32.3540574 21.0202732,31.9647541 21.8252732,31.7690027 L21.8252732,30.2436817 L23.7464959,30.2436817 L23.7376981,31.683224 C24.7758402,31.7832992 25.5500478,32.0340369 26.0581216,32.4343374 L25.3938866,34.3247678 C24.6251776,33.7661066 23.8157787,33.486776 22.9645902,33.486776 C22.4609153,33.486776 22.0694126,33.6231421 21.7922814,33.8947746 C21.5151503,34.1675068 21.3765847,34.5095219 21.3765847,34.9252186 C21.3765847,35.6323429 22.1573907,36.3658607 23.7201025,37.1268716 C24.5426981,37.5293716 25.1365505,37.9010792 25.5005601,38.2397951 C25.8645697,38.5785109 26.1417008,38.9722131 26.3319536,39.4231011 C26.5222063,39.8728893 26.6178825,40.3754645 26.6178825,40.9297268 C26.6178825,41.7127322 26.3638456,42.3967623 25.8557719,42.9807172 C25.3476981,43.5657719 24.6416735,43.9671721 23.7387978,44.1860178 L23.7387978,46.1204372 L21.8274727,46.1204372 L21.8274727,44.3344809 L21.826373,44.3344809 Z M30.1557036,42.7233811 L30.1557036,40.812056 L34.5810041,38.8039549 L30.1557036,36.8156489 L30.1557036,34.9054235 L36.8585383,38.127623 L36.8585383,39.4802869 L30.1557036,42.7233811 Z" fill="#20582A"></path>
                </g>
            </g>
        </g>
    </g>
</svg>