<?xml version="1.0" encoding="UTF-8" standalone="no"?>
<svg width="70px" height="70px" viewBox="0 0 70 70" version="1.1" xmlns="http://www.w3.org/2000/svg" xmlns:xlink="http://www.w3.org/1999/xlink" xmlns:sketch="http://www.bohemiancoding.com/sketch/ns">
    <!-- Generator: Sketch 3.5.2 (25235) - http://www.bohemiancoding.com/sketch -->
    <title>cmd</title>
    <desc>Created with Sketch.</desc>
    <defs></defs>
    <g id="Page-1" stroke="none" stroke-width="1" fill="none" fill-rule="evenodd" sketch:type="MSPage">
        <g id="Desktop-HD" sketch:type="MSArtboardGroup" transform="translate(-606.000000, -2469.000000)" fill="#20582A">
            <g id="tools" sketch:type="MSLayerGroup" transform="translate(0.000000, 1417.000000)">
                <path d="M641,1122 C660.329966,1122 676,1106.32997 676,1087 C676,1067.67003 660.329966,1052 641,1052 C621.670034,1052 606,1067.67003 606,1087 C606,1106.32997 621.670034,1122 641,1122 Z M661.563791,1067.08725 L620.436209,1067.08725 C619.06375,1067.08725 617.951926,1068.19687 617.951926,1069.56603 L617.951926,1073.25671 L617.951926,1090.49823 L617.951926,1106.91385 L664.046974,1106.91385 L664.046974,1090.49823 L664.046974,1073.25671 L664.046974,1069.56603 C664.046974,1068.19687 662.93515,1067.08725 661.563791,1067.08725 Z M660.071462,1101.78253 L621.68,1101.78253 C621.184023,1101.78253 620.783723,1101.38113 620.783723,1100.88625 L620.783723,1070.71085 C620.783723,1070.21487 621.185123,1069.81457 621.68,1069.81457 L660.071462,1069.81457 C660.567439,1069.81457 660.967739,1070.21597 660.967739,1070.71085 L660.967739,1100.88625 C660.967739,1101.38113 660.567439,1101.78253 660.071462,1101.78253 Z M627.826373,1096.33448 C626.854214,1096.2674 625.966735,1095.97377 625.162835,1095.4536 L625.971134,1093.49939 C626.835519,1094.11633 627.685608,1094.42316 628.520301,1094.42316 C629.804781,1094.42316 630.447022,1093.98107 630.447022,1093.09469 C630.447022,1092.6526 630.283163,1092.2369 629.954344,1091.8465 C629.625526,1091.45719 629.003081,1091.0327 628.084809,1090.57301 C627.166537,1090.11333 626.541892,1089.73282 626.210874,1089.4304 C625.879857,1089.12907 625.62472,1088.76726 625.448764,1088.34936 C625.271708,1087.93037 625.18263,1087.46298 625.18263,1086.94831 C625.18263,1086.1873 625.42237,1085.51647 625.899652,1084.93471 C626.378033,1084.35406 627.020273,1083.96475 627.825273,1083.769 L627.825273,1082.24368 L629.746496,1082.24368 L629.737698,1083.68322 C630.77584,1083.7833 631.550048,1084.03404 632.058122,1084.43434 L631.393887,1086.32477 C630.625178,1085.76611 629.815779,1085.48678 628.96459,1085.48678 C628.460915,1085.48678 628.069413,1085.62314 627.792281,1085.89477 C627.51515,1086.16751 627.376585,1086.50952 627.376585,1086.92522 C627.376585,1087.63234 628.157391,1088.36586 629.720102,1089.12687 C630.542698,1089.52937 631.136551,1089.90108 631.50056,1090.2398 C631.86457,1090.57851 632.141701,1090.97221 632.331954,1091.4231 C632.522206,1091.87289 632.617883,1092.37546 632.617883,1092.92973 C632.617883,1093.71273 632.363846,1094.39676 631.855772,1094.98072 C631.347698,1095.56577 630.641673,1095.96717 629.738798,1096.18602 L629.738798,1098.12044 L627.827473,1098.12044 L627.827473,1096.33448 L627.826373,1096.33448 Z M636.155704,1094.72338 L636.155704,1092.81206 L640.581004,1090.80395 L636.155704,1088.81565 L636.155704,1086.90542 L642.858538,1090.12762 L642.858538,1091.48029 L636.155704,1094.72338 Z" id="cmd" sketch:type="MSShapeGroup"></path>
            </g>
        </g>
    </g>
</svg>