<?xml version="1.0" encoding="UTF-8" standalone="no"?>
<svg width="70px" height="70px" viewBox="0 0 70 70" version="1.1" xmlns="http://www.w3.org/2000/svg" xmlns:xlink="http://www.w3.org/1999/xlink" xmlns:sketch="http://www.bohemiancoding.com/sketch/ns">
    <!-- Generator: Sketch 3.5.2 (25235) - http://www.bohemiancoding.com/sketch -->
    <title>csharp</title>
    <desc>Created with Sketch.</desc>
    <defs></defs>
    <g id="Page-1" stroke="none" stroke-width="1" fill="none" fill-rule="evenodd" sketch:type="MSPage">
        <g id="Desktop-HD" sketch:type="MSArtboardGroup" transform="translate(-606.000000, -2339.000000)">
            <g id="tools" sketch:type="MSLayerGroup" transform="translate(0.000000, 1417.000000)">
                <g id="csharp" transform="translate(606.000000, 922.000000)" sketch:type="MSShapeGroup">
                    <circle id="Oval-148" fill="#FFFFFF" cx="34.5" cy="35.5" r="33.5"></circle>
                    <path d="M51.3723205,47.4234139 L53.7912848,49.2808329 C51.7109022,52.0285079 49.0810241,54.1186722 45.9015716,55.5513885 C42.7221191,56.9841048 39.209073,57.7004522 35.3623279,57.7004522 C28.6501503,57.7004522 23.1548827,55.5808489 18.8763601,51.3415789 C14.5978376,47.1023088 12.4586084,41.7444229 12.4586084,35.2677603 C12.4586084,31.2640052 13.4497192,27.5645126 15.4319704,24.1691713 C17.4142217,20.77383 20.1618555,18.1145129 23.6749543,16.1911404 C27.1880531,14.2677679 30.9660496,13.3060961 35.0090572,13.3060961 C39.0520647,13.3060961 42.6828666,14.0715083 45.9015716,15.6023559 C49.1202766,17.1332034 51.7501547,19.3313104 53.7912848,22.196743 L51.5122118,23.9467454 C49.7450249,21.7157303 47.1206321,19.6468805 44.5882444,18.4424523 C41.8288867,17.1300748 38.7162432,16.4738959 35.2502206,16.4738959 C31.7841981,16.4738959 28.5453664,17.2983258 25.5336283,18.9472103 C22.5218903,20.5960948 20.1663763,22.8758959 18.4670157,25.7866818 C16.7676551,28.6974677 15.9179876,31.868999 15.9179876,35.3013709 C15.9179876,40.8537371 17.7519235,45.4469894 21.4198503,49.0812655 C25.0877771,52.7155416 29.798805,54.5326523 35.5530755,54.5326523 C38.8508445,54.5326523 41.8625374,53.9185362 44.5882444,52.6902855 C47.0289141,51.5904775 49.5841491,49.532877 51.3723205,47.4234139 Z M35,70 C54.3299662,70 70,54.3299662 70,35 C70,15.6700338 54.3299662,0 35,0 C15.6700338,0 0,15.6700338 0,35 C0,54.3299662 15.6700338,70 35,70 Z M58.1871931,39.5265673 L55.1377591,39.5287736 L54.3280577,43.3154697 L52.4516244,43.3217208 L53.2866979,39.5302444 L49.6526021,39.5232579 L48.8844522,43.3139989 L46.9852207,43.3154697 L47.7765365,39.5247287 L46.0674121,39.5265673 L46.0674121,37.6203493 L48.1736653,37.6229233 L48.7848023,34.5819467 L46.0674121,34.5845207 L46.0674121,32.7018363 L49.1771508,32.7025717 L49.9975158,28.8894003 L51.8967473,28.8879294 L51.052481,32.7011008 L54.6126666,32.7025717 L55.4356056,28.889768 L57.3399851,28.8894003 L56.4927771,32.7018363 L58.1871931,32.7018363 L58.1871931,34.5845207 L56.1397737,34.5845207 L55.5095157,37.6214525 L58.1871931,37.6203493 L58.1871931,39.5265673 Z M54.24091,34.5859915 L50.6844014,34.5804759 L50.0261973,37.6166722 L53.6345532,37.6229233 L54.24091,34.5859915 Z" fill="#864F92"></path>
                </g>
            </g>
        </g>
    </g>
</svg>