<?xml version="1.0" encoding="UTF-8" standalone="no"?>
<svg width="70px" height="70px" viewBox="0 0 70 70" version="1.1" xmlns="http://www.w3.org/2000/svg" xmlns:xlink="http://www.w3.org/1999/xlink" xmlns:sketch="http://www.bohemiancoding.com/sketch/ns">
    <!-- Generator: Sketch 3.5.2 (25235) - http://www.bohemiancoding.com/sketch -->
    <title>csharp</title>
    <desc>Created with Sketch.</desc>
    <defs></defs>
    <g id="Page-1" stroke="none" stroke-width="1" fill="none" fill-rule="evenodd" sketch:type="MSPage">
        <g id="Desktop-HD" sketch:type="MSArtboardGroup" transform="translate(-606.000000, -2339.000000)" fill="#864F92">
            <g id="tools" sketch:type="MSLayerGroup" transform="translate(0.000000, 1417.000000)">
                <path d="M657.37232,969.423414 L659.791285,971.280833 C657.710902,974.028508 655.081024,976.118672 651.901572,977.551389 C648.722119,978.984105 645.209073,979.700452 641.362328,979.700452 C634.65015,979.700452 629.154883,977.580849 624.87636,973.341579 C620.597838,969.102309 618.458608,963.744423 618.458608,957.26776 C618.458608,953.264005 619.449719,949.564513 621.43197,946.169171 C623.414222,942.77383 626.161856,940.114513 629.674954,938.19114 C633.188053,936.267768 636.96605,935.306096 641.009057,935.306096 C645.052065,935.306096 648.682867,936.071508 651.901572,937.602356 C655.120277,939.133203 657.750155,941.33131 659.791285,944.196743 L657.512212,945.946745 C655.745025,943.71573 653.120632,941.646881 650.588244,940.442452 C647.828887,939.130075 644.716243,938.473896 641.250221,938.473896 C637.784198,938.473896 634.545366,939.298326 631.533628,940.94721 C628.52189,942.596095 626.166376,944.875896 624.467016,947.786682 C622.767655,950.697468 621.917988,953.868999 621.917988,957.301371 C621.917988,962.853737 623.751923,967.446989 627.41985,971.081265 C631.087777,974.715542 635.798805,976.532652 641.553075,976.532652 C644.850845,976.532652 647.862537,975.918536 650.588244,974.690285 C653.028914,973.590478 655.584149,971.532877 657.37232,969.423414 Z M641,992 C660.329966,992 676,976.329966 676,957 C676,937.670034 660.329966,922 641,922 C621.670034,922 606,937.670034 606,957 C606,976.329966 621.670034,992 641,992 Z M664.187193,961.526567 L661.137759,961.528774 L660.328058,965.31547 L658.451624,965.321721 L659.286698,961.530244 L655.652602,961.523258 L654.884452,965.313999 L652.985221,965.31547 L653.776537,961.524729 L652.067412,961.526567 L652.067412,959.620349 L654.173665,959.622923 L654.784802,956.581947 L652.067412,956.584521 L652.067412,954.701836 L655.177151,954.702572 L655.997516,950.8894 L657.896747,950.887929 L657.052481,954.701101 L660.612667,954.702572 L661.435606,950.889768 L663.339985,950.8894 L662.492777,954.701836 L664.187193,954.701836 L664.187193,956.584521 L662.139774,956.584521 L661.509516,959.621452 L664.187193,959.620349 L664.187193,961.526567 Z M660.24091,956.585992 L656.684401,956.580476 L656.026197,959.616672 L659.634553,959.622923 L660.24091,956.585992 Z" id="csharp" sketch:type="MSShapeGroup"></path>
            </g>
        </g>
    </g>
</svg>