<?xml version="1.0" encoding="UTF-8" standalone="no"?>
<svg width="70px" height="70px" viewBox="0 0 70 70" version="1.1" xmlns="http://www.w3.org/2000/svg" xmlns:xlink="http://www.w3.org/1999/xlink" xmlns:sketch="http://www.bohemiancoding.com/sketch/ns">
    <!-- Generator: Sketch 3.5.2 (25235) - http://www.bohemiancoding.com/sketch -->
    <title>curl</title>
    <desc>Created with Sketch.</desc>
    <defs></defs>
    <g id="Page-1" stroke="none" stroke-width="1" fill="none" fill-rule="evenodd" sketch:type="MSPage">
        <g id="Desktop-HD" sketch:type="MSArtboardGroup" transform="translate(-436.000000, -2339.000000)" fill="#9A407B">
            <g id="tools" sketch:type="MSLayerGroup" transform="translate(0.000000, 1417.000000)">
                <path d="M485.239031,963.888775 L483.359895,960.24205 C483.253277,960.028814 483.041709,959.725623 482.725187,959.332468 C482.408664,958.939314 482.167111,958.682767 482.00052,958.562822 C481.753965,958.382904 481.360817,958.202988 480.821062,958.02307 C481.494089,957.869807 482.023841,957.676564 482.410331,957.443337 C483.016722,957.076837 483.493165,956.598728 483.839674,956.008996 C484.186183,955.419264 484.359435,954.717927 484.359435,953.904964 C484.359435,952.972055 484.132875,952.18076 483.679748,951.531055 C483.226621,950.881351 482.630234,950.436559 481.89057,950.196669 C481.150907,949.956778 480.081409,949.836834 478.682046,949.836834 L471.135515,949.836834 L471.135515,964.490097 L475.683424,964.490097 L475.683424,958.542831 L476.083241,958.542831 C476.496386,958.542831 476.866212,958.656111 477.19273,958.882675 C477.432621,959.05593 477.705826,959.432419 478.012354,960.012156 L480.431241,964.490097 L485.548888,964.490097 L485.239031,963.888775 L485.239031,964.490097 L496.8337,964.490097 L496.8337,960.881756 L489.766949,960.881756 L489.766949,949.836834 L485.239031,949.836834 L485.239031,963.888775 Z M471,992 C490.329966,992 506,976.329966 506,957 C506,937.670034 490.329966,922 471,922 C451.670034,922 436,937.670034 436,957 C436,976.329966 451.670034,992 471,992 Z M451.534527,960.342004 L455.402749,960.781802 C455.189513,961.588102 454.839677,962.286107 454.353231,962.875839 C453.866786,963.465571 453.245411,963.923689 452.489089,964.250207 C451.732766,964.576725 450.771551,964.739982 449.605414,964.739982 C448.47926,964.739982 447.541367,964.635031 446.791708,964.425127 C446.042049,964.215222 445.397352,963.875382 444.857597,963.405595 C444.317843,962.935809 443.894708,962.384401 443.588181,961.751356 C443.281654,961.118311 443.128392,960.278705 443.128392,959.232514 C443.128392,958.139678 443.314971,957.230105 443.688135,956.503769 C443.961344,955.970678 444.334502,955.492569 444.80762,955.069428 C445.280738,954.646287 445.767177,954.331435 446.266949,954.124862 C447.059922,953.798344 448.076111,953.635088 449.315548,953.635088 C451.048093,953.635088 452.369139,953.944942 453.278725,954.56466 C454.188312,955.184378 454.826345,956.090619 455.192845,957.28341 L451.364606,957.793176 C451.24466,957.340049 451.026429,956.998542 450.709907,956.768647 C450.393384,956.538751 449.968583,956.423805 449.435493,956.423805 C448.762465,956.423805 448.217721,956.665359 447.801244,957.148472 C447.384767,957.631586 447.176531,958.362909 447.176531,959.342464 C447.176531,960.2154 447.383101,960.878422 447.796246,961.331549 C448.209392,961.784676 448.735811,962.011237 449.37552,962.011237 C449.908611,962.011237 450.356734,961.874634 450.719902,961.601425 C451.08307,961.328216 451.354609,960.908413 451.534527,960.342004 Z M465.31819,949.836834 L469.836113,949.836834 L469.836113,958.572817 C469.836113,959.43909 469.701176,960.257039 469.431299,961.026689 C469.161422,961.796339 468.738287,962.469356 468.161883,963.045761 C467.585478,963.622165 466.980762,964.026975 466.347717,964.260203 C465.468117,964.586721 464.411946,964.749977 463.179173,964.749977 C462.466164,964.749977 461.688197,964.700001 460.845247,964.600046 C460.002297,964.500092 459.297628,964.301852 458.731219,964.00532 C458.164809,963.708788 457.64672,963.287319 457.176933,962.740901 C456.707147,962.194483 456.385631,961.631414 456.212377,961.051678 C455.932504,960.118769 455.79257,959.29249 455.79257,958.572817 L455.79257,949.836834 L460.310492,949.836834 L460.310492,958.782721 C460.310492,959.582357 460.532055,960.207064 460.975187,960.656859 C461.418319,961.106655 462.03303,961.331549 462.819339,961.331549 C463.598984,961.331549 464.210364,961.109986 464.653496,960.666855 C465.096627,960.223723 465.31819,959.595685 465.31819,958.782721 L465.31819,949.836834 Z M475.683424,955.774104 L477.592547,955.774104 C477.799119,955.774104 478.198931,955.707469 478.791995,955.574196 C479.091859,955.514223 479.336744,955.360962 479.526657,955.114408 C479.716571,954.867853 479.811526,954.584653 479.811526,954.264798 C479.811526,953.79168 479.661597,953.428517 479.361733,953.175299 C479.06187,952.922081 478.498801,952.795474 477.67251,952.795474 L475.683424,952.795474 L475.683424,955.774104 Z" id="curl" sketch:type="MSShapeGroup"></path>
            </g>
        </g>
    </g>
</svg>