<?xml version="1.0" encoding="UTF-8" standalone="no"?>
<svg width="70px" height="70px" viewBox="0 0 70 70" version="1.1" xmlns="http://www.w3.org/2000/svg" xmlns:xlink="http://www.w3.org/1999/xlink" xmlns:sketch="http://www.bohemiancoding.com/sketch/ns">
    <!-- Generator: Sketch 3.5.2 (25235) - http://www.bohemiancoding.com/sketch -->
    <title>curl</title>
    <desc>Created with Sketch.</desc>
    <defs></defs>
    <g id="Page-1" stroke="none" stroke-width="1" fill="none" fill-rule="evenodd" sketch:type="MSPage">
        <g id="Desktop-HD" sketch:type="MSArtboardGroup" transform="translate(-436.000000, -2339.000000)">
            <g id="tools" sketch:type="MSLayerGroup" transform="translate(0.000000, 1417.000000)">
                <g id="curl" transform="translate(436.000000, 922.000000)" sketch:type="MSShapeGroup">
                    <circle id="Oval-148" fill="#FFFFFF" cx="34.5" cy="34.5" r="33.5"></circle>
                    <path d="M49.2390309,41.8887751 L47.3598949,38.24205 C47.2532767,38.0288136 47.0417094,37.7256227 46.7251867,37.3324682 C46.408664,36.9393136 46.1671108,36.6827675 46.0005199,36.562822 C45.7539654,36.3829038 45.3608167,36.2029884 44.8210622,36.0230702 C45.4940895,35.8698066 46.0238406,35.676564 46.4103315,35.4433367 C47.0167224,35.0768367 47.4931652,34.598728 47.8396743,34.0089962 C48.1861834,33.4192644 48.3594353,32.7179272 48.3594353,31.9049636 C48.3594353,30.9720545 48.1328751,30.1807596 47.6797478,29.5310551 C47.2266206,28.8813505 46.6302341,28.4365595 45.8905705,28.1966686 C45.1509068,27.9567777 44.0814093,27.836834 42.6820457,27.836834 L35.1355154,27.836834 L35.1355154,42.4900968 L39.6834244,42.4900968 L39.6834244,36.5428312 L40.0832405,36.5428312 C40.496386,36.5428312 40.8662122,36.6561113 41.1927304,36.882675 C41.4326213,37.0559295 41.7058263,37.4324193 42.0123536,38.0121557 L44.4312414,42.4900968 L49.5488885,42.4900968 L49.2390309,41.8887751 L49.2390309,42.4900968 L60.8337,42.4900968 L60.8337,38.8817558 L53.7669491,38.8817558 L53.7669491,27.836834 L49.2390309,27.836834 L49.2390309,41.8887751 Z M35,70 C54.3299662,70 70,54.3299662 70,35 C70,15.6700338 54.3299662,0 35,0 C15.6700338,0 0,15.6700338 0,35 C0,54.3299662 15.6700338,70 35,70 Z M15.5345274,38.342004 L19.4027489,38.7818018 C19.1895125,39.5881018 18.8396769,40.2861072 18.3532314,40.875839 C17.866786,41.4655708 17.2454112,41.9236889 16.4890885,42.2502071 C15.7327658,42.5767253 14.7715507,42.7399819 13.6054144,42.7399819 C12.4792599,42.7399819 11.5413671,42.6350312 10.7917081,42.4251267 C10.042049,42.2152221 9.39735184,41.8753818 8.85759731,41.4055954 C8.31784277,40.9358091 7.89470822,40.3844015 7.58818095,39.751356 C7.28165369,39.1183106 7.12839235,38.278705 7.12839235,37.2325141 C7.12839235,36.1396778 7.31497137,35.2301051 7.688135,34.5037687 C7.96134408,33.9706778 8.33450211,33.4925691 8.80762029,33.0694282 C9.28073846,32.6462873 9.76717661,32.3314352 10.2669493,32.1248625 C11.059922,31.7983443 12.0761113,31.6350877 13.3155477,31.6350877 C15.0480931,31.6350877 16.3691391,31.9449421 17.2787255,32.5646603 C18.1883118,33.1843784 18.8263454,34.0906194 19.1928454,35.2834103 L15.3646055,35.7931759 C15.2446601,35.3400486 15.0264293,34.9985424 14.7099066,34.7686469 C14.3933838,34.5387515 13.9685834,34.4238055 13.4354925,34.4238055 C12.7624652,34.4238055 12.2177212,34.6653587 11.8012439,35.1484723 C11.3847666,35.6315859 11.1765311,36.362909 11.1765311,37.3424636 C11.1765311,38.2153999 11.3831007,38.8784218 11.7962462,39.331549 C12.2093916,39.7846763 12.735811,40.0112365 13.3755201,40.0112365 C13.908611,40.0112365 14.3567338,39.874634 14.719902,39.6014249 C15.0830701,39.3282159 15.3546092,38.9084131 15.5345274,38.342004 Z M29.31819,27.836834 L33.8361128,27.836834 L33.8361128,36.5728174 C33.8361128,37.4390901 33.7011762,38.2570392 33.4312989,39.0266892 C33.1614217,39.7963392 32.7382871,40.4693563 32.1618826,41.0457609 C31.585478,41.6221654 30.9807621,42.0269752 30.3477167,42.2602025 C29.4681167,42.5867207 28.4119462,42.7499773 27.1791735,42.7499773 C26.4661644,42.7499773 25.6881966,42.7000008 24.8452466,42.6000463 C24.0022966,42.5000917 23.2976276,42.3018515 22.7312186,42.0053197 C22.1648095,41.7087879 21.6467195,41.2873192 21.1769332,40.740901 C20.7071468,40.1944829 20.3856312,39.6314141 20.2123767,39.0516777 C19.9325039,38.1187686 19.7925697,37.2924901 19.7925697,36.5728174 L19.7925697,27.836834 L24.3104924,27.836834 L24.3104924,36.7827209 C24.3104924,37.5823573 24.532055,38.2070638 24.9751868,38.6568592 C25.4183186,39.1066547 26.0330299,39.331549 26.8193389,39.331549 C27.5989844,39.331549 28.2103638,39.1099864 28.6534956,38.6668546 C29.0966275,38.2237228 29.31819,37.5956845 29.31819,36.7827209 L29.31819,27.836834 Z M39.6834244,33.7741042 L41.5925466,33.7741042 C41.7991193,33.7741042 42.1989315,33.7074688 42.7919951,33.5741961 C43.0918587,33.5142234 43.3367437,33.3609621 43.5266573,33.1144075 C43.716571,32.867853 43.8115264,32.5846527 43.8115264,32.2647981 C43.8115264,31.79168 43.6615968,31.4285172 43.3617332,31.1752991 C43.0618695,30.9220809 42.4988007,30.7954737 41.6725098,30.7954737 L39.6834244,30.7954737 L39.6834244,33.7741042 Z" fill="#9A407B"></path>
                </g>
            </g>
        </g>
    </g>
</svg>