<?xml version="1.0" encoding="UTF-8" standalone="no"?>
<svg width="70px" height="70px" viewBox="0 0 70 70" version="1.1" xmlns="http://www.w3.org/2000/svg" xmlns:xlink="http://www.w3.org/1999/xlink" xmlns:sketch="http://www.bohemiancoding.com/sketch/ns">
    <!-- Generator: Sketch 3.5.2 (25235) - http://www.bohemiancoding.com/sketch -->
    <title>django</title>
    <desc>Created with Sketch.</desc>
    <defs></defs>
    <g id="Page-1" stroke="none" stroke-width="1" fill="none" fill-rule="evenodd" sketch:type="MSPage">
        <g id="Desktop-HD" sketch:type="MSArtboardGroup" transform="translate(-266.000000, -2469.000000)">
            <g id="tools" sketch:type="MSLayerGroup" transform="translate(0.000000, 1417.000000)">
                <g id="django" transform="translate(266.000000, 1052.000000)" sketch:type="MSShapeGroup">
                    <circle id="Oval-35" fill="#326543" cx="35" cy="35" r="35"></circle>
                    <g id="path2838-+-path2840-+-path2860" transform="translate(12.622951, 13.770492)" fill="#FFFFFF">
                        <path d="M7.8050319,24.4207039 C7.78030239,29.1241875 11.2291921,31.928135 16.7329036,30.6532859 L16.7329036,18.1881219 C11.1596224,16.49084 7.82834419,19.9246727 7.8050319,24.4207039 M16.9012691,0.163839132 L24.4814945,0.163839132 L24.4814945,36.0436818 C17.215588,37.2315645 10.2566511,37.9849998 5.2782901,35.2013121 C-1.13179925,31.6173981 -1.64711974,20.2284154 3.42519501,15.1559227 C5.99693764,12.584358 11.1743224,10.7739342 16.7329036,11.9553621 L16.7329036,0.669296509 C16.7183815,0.430103067 16.7049323,0.191988313 16.9012691,0.163839132" id="path2838"></path>
                        <path d="M36.8425211,8.08097684 L29.2622951,8.08097684 L29.2622951,0.163839132 L36.8425211,0.163839132 L36.8425211,8.08097684 L36.8425211,8.08097684 Z" id="path2840"></path>
                        <path d="M36.9637301,12.2130195 C36.9551235,17.7949113 36.9563858,21.8059227 36.9558407,28.5871727 C36.633812,35.2513391 36.7087608,40.5581768 34.2686222,43.7469063 C33.7873722,44.3757244 32.7653435,45.29304 31.9102465,45.9369195 C31.192136,46.4775145 29.8235143,47.5737777 29.046593,47.6214695 C28.2633962,47.6695514 26.2512548,46.5341744 25.3405738,46.1052809 C24.1447999,45.5420908 23.0393955,44.7942154 21.8032787,44.4209088 C24.6866544,42.6341531 27.4237193,41.2945768 28.5411373,37.6828695 C29.5129611,34.5418375 29.3835041,29.9902195 29.3835041,25.55444 C29.3835041,21.1744195 29.4030467,16.0822063 29.4030467,12.2149932 L36.9637289,12.2132719 L36.9637301,12.2130195 Z" id="path2860"></path>
                    </g>
                </g>
            </g>
        </g>
    </g>
</svg>