<?xml version="1.0" encoding="UTF-8" standalone="no"?>
<svg width="70px" height="70px" viewBox="0 0 70 70" version="1.1" xmlns="http://www.w3.org/2000/svg" xmlns:xlink="http://www.w3.org/1999/xlink" xmlns:sketch="http://www.bohemiancoding.com/sketch/ns">
    <!-- Generator: Sketch 3.5.2 (25235) - http://www.bohemiancoding.com/sketch -->
    <title>go</title>
    <desc>Created with Sketch.</desc>
    <defs>
        <circle id="path-1" cx="31.5416765" cy="31.557377" r="31.557377"></circle>
    </defs>
    <g id="Page-1" stroke="none" stroke-width="1" fill="none" fill-rule="evenodd" sketch:type="MSPage">
        <g id="Desktop-HD" sketch:type="MSArtboardGroup" transform="translate(-436.000000, -2599.000000)">
            <g id="tools" sketch:type="MSLayerGroup" transform="translate(0.000000, 1417.000000)">
                <g id="go" transform="translate(436.000000, 1182.000000)">
                    <circle id="Oval-33" fill="#3770A0" sketch:type="MSShapeGroup" cx="34.9842994" cy="35" r="35"></circle>
                    <g id="Oval-34-+-Imported-Layers" transform="translate(3.442623, 3.442623)">
                        <mask id="mask-2" sketch:name="Oval 34" fill="white">
                            <use xlink:href="#path-1"></use>
                        </mask>
                        <use id="Oval-34" fill="#3770A0" sketch:type="MSShapeGroup" xlink:href="#path-1"></use>
                        <g id="Imported-Layers" mask="url(#mask-2)" stroke="#3770A0" stroke-width="0.5" sketch:type="MSShapeGroup">
                            <g transform="translate(1.721311, 10.327869)">
                                <path d="M60.6383394,44.240459 C60.4829114,44.4267362 60.3105889,44.6013711 60.1746833,44.8007928 C59.2653916,46.1351535 58.5573305,46.3188018 57.1186825,45.5470283 C56.6933202,45.3190641 56.2998695,45.031386 55.7130723,44.6569538 C55.7130723,45.0828376 55.7070654,45.4088227 55.7141985,45.7344322 C55.8084315,50.1100686 56.0333141,54.4879583 55.9593544,58.8605902 C55.9011627,62.3138539 55.2644333,65.7438331 53.867458,68.9218122 C52.9018519,71.1192072 51.5611911,73.1517317 50.4371534,75.1688584 C51.2552155,76.2031475 52.3544748,77.3271952 53.1252327,78.6435291 C53.8734649,79.9215559 53.4657478,81.0974307 52.3946458,81.8571863 C51.0295821,82.8250015 49.8803906,82.6785335 48.7792542,81.3911177 C48.594918,81.1759225 48.4207185,80.9513383 48.2461435,80.7278808 C46.3517233,78.3025216 46.3254432,78.4106826 43.4830621,79.3938957 C34.5718539,82.4757317 25.5900648,83.0281788 16.5977636,79.7063607 C15.5413034,79.316155 14.7604088,79.6999762 14.015931,80.238152 C12.9699828,80.994152 12.0088818,81.8673264 11.0113641,82.6901759 L8.57857721,82.6901759 C6.30046752,80.6448823 6.32824934,79.2038629 8.71523376,77.2242921 C9.25810565,76.773997 9.86329893,76.3999404 10.4583556,75.9774367 C9.90384538,75.3975738 9.38387472,74.8875648 8.90144708,74.3441311 C6.30722526,71.4211565 4.78673345,68.1060984 4.88922587,64.0913741 C5.03001214,58.5830522 5.04465392,53.0709747 5.11110504,47.560775 C5.1193645,46.8543487 5.11223133,46.1479225 5.11223133,45.3806557 C4.91700769,45.4568942 4.7972455,45.4779255 4.70901943,45.5425216 C1.78291743,47.6832072 1.28284457,47.0259791 -0.179080146,44.7271833 L-0.179080146,43.2670104 C1.20926027,41.4553145 3.36910949,41.2536393 5.52820785,40.6283338 C4.42481886,32.4629329 3.1919065,24.3031654 5.22561121,16.1445246 C4.74543615,15.9199404 4.41806112,15.7700924 4.09331411,15.614611 C1.47544019,14.3591177 0.264678203,11.9833323 0.781645416,9.11781818 C1.23967011,6.57678689 3.28125885,4.71739493 6.07070431,4.60209836 C7.41136511,4.54651565 8.76779397,4.95437258 10.1223457,5.10684948 C10.5330662,5.15304322 11.0560403,5.18984799 11.3668964,4.98591952 C14.9541307,2.63304322 18.8646104,1.20253949 23.1223629,0.698539493 C25.0881148,0.466068554 27.0497369,0.200548435 29.0132362,-0.0499493294 L35.3384821,-0.0499493294 C35.6102935,0.01990462 35.8779751,0.123558867 36.1539162,0.154354694 C40.1210858,0.597514158 43.8400961,1.72231297 47.1596489,4.02674218 C47.4352145,4.21790164 47.953308,4.13828316 48.3407519,4.07481371 C49.6870441,3.8539851 51.0250769,3.37702534 52.3661131,3.37777645 C55.0928618,3.37927869 57.1186825,5.11811624 57.7129883,7.65501639 C58.3542228,10.3913383 57.3221656,12.7949151 54.9134062,14.1732161 C54.5409796,14.386158 54.1663003,14.5949687 53.7803582,14.8127928 C56.2405515,23.120155 54.9776047,31.5829985 55.4709199,39.6019314 C57.338309,40.4867481 58.9883242,41.2682861 60.6383394,42.0501997 L60.6383394,44.240459 L60.6383394,44.240459 Z M54.7703673,41.0996602 C54.6847693,41.1007869 54.5991712,41.1019136 54.5135732,41.1030402 C54.5135732,36.4002921 54.549239,31.6967928 54.5030611,26.9944203 C54.4576341,22.3540149 53.929404,17.7875946 52.4055333,13.3575022 C50.4232625,7.59605365 46.7894748,3.53400894 40.780341,1.98107303 C38.5607984,1.40721908 36.2387634,0.923874814 33.9655343,0.932888227 C30.1286389,0.94828614 26.2425622,1.08236066 22.4676128,1.7110462 C12.9973892,3.288769 8.31239729,6.76606855 6.05981684,16.2842325 C4.86782635,21.3197258 4.57499089,26.4870402 5.31271099,31.6344501 C6.06920259,36.9125544 6.2952115,42.1756364 6.00950921,47.5112012 C5.70841429,53.1321908 5.87435438,58.7772161 5.77411455,64.4105991 C5.69940397,68.6157317 7.60208359,71.8887273 10.4872637,74.6971565 C10.987712,75.1842563 11.7836238,75.3622712 12.4316161,75.7044054 C13.1025096,76.0581818 13.9821423,76.2786349 14.380849,76.8363398 C15.5578223,78.4842921 17.2480085,79.1445246 19.044066,79.6909627 C24.638725,81.3933711 30.3366272,81.3182593 36.0266454,80.451845 C40.2348411,79.810766 44.1674712,78.6424024 47.6706092,75.7783905 C50.0467061,73.8352489 51.7534113,71.6979434 52.9153673,69.0149508 C54.2819328,65.8610075 55.0350455,62.4997556 55.0624519,59.0881788 C55.1108824,53.0931326 54.8826209,47.0958331 54.7703673,41.0996602 L54.7703673,41.0996602 Z M5.34612427,15.1504203 C5.63633171,13.7251744 6.8444657,12.5556841 5.44749039,11.0162683 C4.64294374,10.1291982 5.73657154,8.66827422 6.99276057,8.76441729 C7.34040882,8.79070641 7.68205019,8.89548733 7.99365715,8.9578301 C8.71147946,7.9918927 9.38274843,7.08867362 10.1426189,6.06602683 C7.79843352,5.16130551 5.56912973,4.96488823 3.4828648,6.38525186 C1.76602307,7.5536155 1.27496053,9.32738003 1.6364997,11.311082 C2.00780004,13.3496155 3.36385347,14.4946945 5.34612427,15.1504203 L5.34612427,15.1504203 Z M50.6699201,7.72449478 C51.5822151,7.31100447 52.5391864,7.08754694 53.2175885,8.12296274 C53.8580723,9.10054247 53.3696377,9.87156483 52.6728395,10.5941401 C52.5395618,10.7319702 52.4442026,11.0406796 52.5046468,11.2085544 C52.826015,12.1012578 53.2021959,12.9740566 53.5719945,13.8844113 C55.6484983,12.8914337 57.0195689,11.5345395 57.0184426,9.20757675 C57.0176918,7.18331446 56.2349201,5.56465574 54.3269844,4.7076304 C52.3353279,3.81304918 50.382716,4.06242027 48.4248482,5.0482623 C49.226016,6.00330849 49.9235651,6.83442027 50.6699201,7.72449478 L50.6699201,7.72449478 Z M9.74841732,78.7531923 C9.84527828,78.8192906 9.94213924,78.885389 10.0393756,78.9514873 C9.58322809,79.6714337 9.10755819,80.3801133 8.67731532,81.1154575 C8.34055454,81.6915648 8.51024894,82.062617 9.16687614,82.3067303 C10.1613904,82.6770313 10.8769601,82.2150939 11.6004139,81.6562623 C12.8637361,80.6809359 14.136444,79.7176274 15.4583333,78.7088763 C14.5084952,77.7245365 13.7414916,75.9011982 11.7862518,76.1843696 C9.82763307,76.4682921 8.29174863,77.692614 7.49208257,79.5546349 C7.26494738,80.0830462 7.5472708,80.8304083 7.59607671,81.4774963 C7.69406395,81.4553383 7.79242663,81.4331803 7.89041388,81.4106468 C8.50987351,80.525079 9.1289577,79.6391356 9.74841732,78.7531923 L9.74841732,78.7531923 Z M46.0994343,77.8090373 C47.0898189,78.8846379 48.0021139,79.8885067 48.9309279,80.8769776 C49.260931,81.2281252 49.5826746,81.7062116 49.9963985,81.8290194 C50.4810787,81.973234 51.0821423,81.8564352 51.5837169,81.6979493 C51.6809532,81.6675291 51.6494171,80.8874933 51.5082554,80.5183189 C51.2570927,79.8614665 50.876782,79.2545633 50.5509087,78.6266289 C50.6684183,78.5646617 50.7855525,78.50307 50.9030621,78.4411028 C51.392623,79.3657288 51.8825592,80.2903547 52.3691166,81.2089717 C53.4642461,79.9696274 52.9517841,78.1425335 51.0547359,76.4938301 C49.2834568,74.9544143 48.2551538,75.2417168 46.0994343,77.8090373 L46.0994343,77.8090373 Z M0.880008096,45.2935261 C1.248305,46.3030283 1.87940295,46.5362504 2.80070836,46.2068852 C4.93277575,45.4445007 5.69001821,43.9753145 5.21096944,41.2998331 C3.53993018,41.5379374 1.88165554,41.841389 0.643111718,43.0893711 C0.309729812,43.4251207 0.393826149,44.1747362 0.245531269,44.945383 C1.05683566,44.5608107 1.51448492,44.3441133 1.97213418,44.1270402 C2.01530864,44.2152966 2.0584831,44.3035529 2.10165756,44.3921848 C1.69994738,44.6885007 1.29786177,44.9848167 0.880008096,45.2935261 L0.880008096,45.2935261 Z M59.7252935,44.6336692 C59.2560059,44.2569836 58.8002338,43.8911893 58.3444616,43.5253949 C58.401527,43.4480298 58.4589678,43.3702891 58.5160332,43.292924 C59.0247409,43.5723398 59.5334487,43.85138 60.0402793,44.1296692 C60.9090245,42.2747839 58.5562042,40.4495678 55.5940609,40.6587541 C55.2708156,43.5216393 55.781776,44.6562027 57.746777,45.3622534 C58.5348047,45.6454247 59.2522516,45.6217645 59.7252935,44.6336692 L59.7252935,44.6336692 Z" id="Fill-2" fill="#3770A0"></path>
                                <path d="M54.7703673,41.0996602 C54.8826209,47.0958331 55.1108824,53.0931326 55.0624519,59.0881788 C55.0350455,62.4997556 54.2819328,65.8610075 52.9153673,69.0149508 C51.7534113,71.6979434 50.0467061,73.8352489 47.6706092,75.7783905 C44.1674712,78.6424024 40.2348411,79.810766 36.0266454,80.451845 C30.3366272,81.3182593 24.638725,81.3933711 19.044066,79.6909627 C17.2480085,79.1445246 15.5578223,78.4842921 14.380849,76.8363398 C13.9821423,76.2786349 13.1025096,76.0581818 12.4316161,75.7044054 C11.7836238,75.3622712 10.987712,75.1842563 10.4872637,74.6971565 C7.60208359,71.8887273 5.69940397,68.6157317 5.77411455,64.4105991 C5.87435438,58.7772161 5.70841429,53.1321908 6.00950921,47.5112012 C6.2952115,42.1756364 6.06920259,36.9125544 5.31271099,31.6344501 C4.57499089,26.4870402 4.86782635,21.3197258 6.05981684,16.2842325 C8.31239729,6.76606855 12.9973892,3.288769 22.4676128,1.7110462 C26.2425622,1.08236066 30.1286389,0.94828614 33.9655343,0.932888227 C36.2387634,0.923874814 38.5607984,1.40721908 40.780341,1.98107303 C46.7894748,3.53400894 50.4232625,7.59605365 52.4055333,13.3575022 C53.929404,17.7875946 54.4576341,22.3540149 54.5030611,26.9944203 C54.549239,31.6967928 54.5135732,36.4002921 54.5135732,41.1030402 C54.5991712,41.1019136 54.6847693,41.1007869 54.7703673,41.0996602 L54.7703673,41.0996602 Z M26.2185347,25.0584143 C26.2185347,26.2493115 26.1126634,27.349699 26.2429377,28.4211684 C26.4467962,30.0939076 27.9935681,30.6245723 29.2809178,29.5335738 C29.4581208,29.3837258 29.6011597,29.1933174 29.797885,28.9807511 C30.4327373,30.0522206 31.3409027,30.176155 32.3466798,29.8460387 C33.3595902,29.5132936 33.4425602,28.664155 33.3933789,27.7654426 C33.3464501,26.8956483 33.3145386,26.0247273 33.2724904,25.0775678 C34.4982696,25.1256393 35.6350718,25.0054605 36.0228911,23.7142891 C36.3694131,22.5605723 35.9432999,21.560459 35.0478992,20.7747899 C34.7760878,20.53631 34.4809998,20.3117258 34.1645122,20.1393443 C33.4801032,19.7667899 32.7682878,19.5718748 32.6886966,18.4985276 C32.6552833,18.0429747 31.7621352,17.3481908 31.2083758,17.295237 C29.9953613,17.1795648 28.7177727,17.2681967 27.5317891,17.5494903 C26.9829103,17.6798092 26.5733161,18.4440715 26.1265543,18.9443159 C25.782285,19.3300149 25.5468903,19.8452817 25.1436784,20.1382176 C24.2708035,20.7717854 23.4212052,21.3854486 23.3487472,22.577848 C23.2526371,24.1540686 24.0785833,24.8387124 26.2185347,25.0584143 L26.2185347,25.0584143 Z M38.9519966,19.5162921 C43.5585236,19.5253055 46.8281441,16.4062891 46.8686905,11.9638033 C46.9081107,7.66891207 43.3377707,4.14316542 38.9467405,4.14128763 C34.6210352,4.13903428 31.0165311,7.63924292 31.0161556,11.8417466 C31.0161556,16.0588972 34.5823659,19.5076542 38.9519966,19.5162921 L38.9519966,19.5162921 Z M19.6691571,5.00920417 C15.2349524,4.99267958 11.7100395,8.36707601 11.7010291,12.6368048 C11.6923943,16.88062 15.2548502,20.3428972 19.6286106,20.3413949 C23.937797,20.3398927 27.5092633,16.9042802 27.5329154,12.7374545 C27.5569429,8.44969896 24.0733273,5.02572876 19.6691571,5.00920417 L19.6691571,5.00920417 Z" id="Fill-6" fill="#FFFFFF"></path>
                                <path d="M5.34612427,15.1504203 C3.36385347,14.4946945 2.00780004,13.3496155 1.6364997,11.311082 C1.27496053,9.32738003 1.76602307,7.5536155 3.4828648,6.38525186 C5.56912973,4.96488823 7.79843352,5.16130551 10.1426189,6.06602683 C9.38274843,7.08867362 8.71147946,7.9918927 7.99365715,8.9578301 C7.68205019,8.89548733 7.34040882,8.79070641 6.99276057,8.76441729 C5.73657154,8.66827422 4.64294374,10.1291982 5.44749039,11.0162683 C6.8444657,12.5556841 5.63633171,13.7251744 5.34612427,15.1504203" id="Fill-7" fill="#FFFFFF"></path>
                                <path d="M50.6699201,7.72449478 C49.9235651,6.83442027 49.226016,6.00330849 48.4248482,5.0482623 C50.382716,4.06242027 52.3353279,3.81304918 54.3269844,4.7076304 C56.2349201,5.56465574 57.0176918,7.18331446 57.0184426,9.20757675 C57.0195689,11.5345395 55.6484983,12.8914337 53.5719945,13.8844113 C53.2021959,12.9740566 52.826015,12.1012578 52.5046468,11.2085544 C52.4442026,11.0406796 52.5395618,10.7319702 52.6728395,10.5941401 C53.3696377,9.87156483 53.8580723,9.10054247 53.2175885,8.12296274 C52.5391864,7.08754694 51.5822151,7.31100447 50.6699201,7.72449478" id="Fill-8" fill="#FFFFFF"></path>
                                <path d="M0.880008096,45.2935261 C1.29786177,44.9848167 1.69994738,44.6885007 2.10165756,44.3921848 C2.0584831,44.3035529 2.01530864,44.2152966 1.97213418,44.1270402 C1.51448492,44.3441133 1.05683566,44.5608107 0.245531269,44.945383 C0.393826149,44.1747362 0.309729812,43.4251207 0.643111718,43.0893711 C1.88165554,41.841389 3.53993018,41.5379374 5.21096944,41.2998331 C5.69001821,43.9753145 4.93277575,45.4445007 2.80070836,46.2068852 C1.87940295,46.5362504 1.248305,46.3030283 0.880008096,45.2935261" id="Fill-11" fill="#FFFFFF"></path>
                                <path d="M59.7252935,44.6336692 C59.2522516,45.6217645 58.5348047,45.6454247 57.746777,45.3622534 C55.781776,44.6562027 55.2708156,43.5216393 55.5940609,40.6587541 C58.5562042,40.4495678 60.9090245,42.2747839 60.0402793,44.1296692 C59.5334487,43.85138 59.0247409,43.5723398 58.5160332,43.292924 C58.4589678,43.3702891 58.401527,43.4480298 58.3444616,43.5253949 C58.8002338,43.8911893 59.2560059,44.2569836 59.7252935,44.6336692" id="Fill-12" fill="#FFFFFF"></path>
                                <path d="M26.2185347,25.0584143 C24.0785833,24.8387124 23.2526371,24.1540686 23.3487472,22.577848 C23.4212052,21.3854486 24.2708035,20.7717854 25.1436784,20.1382176 C25.5468903,19.8452817 25.782285,19.3300149 26.1265543,18.9443159 C26.5733161,18.4440715 26.9829103,17.6798092 27.5317891,17.5494903 C28.7177727,17.2681967 29.9953613,17.1795648 31.2083758,17.295237 C31.7621352,17.3481908 32.6552833,18.0429747 32.6886966,18.4985276 C32.7682878,19.5718748 33.4801032,19.7667899 34.1645122,20.1393443 C34.4809998,20.3117258 34.7760878,20.53631 35.0478992,20.7747899 C35.9432999,21.560459 36.3694131,22.5605723 36.0228911,23.7142891 C35.6350718,25.0054605 34.4982696,25.1256393 33.2724904,25.0775678 C33.3145386,26.0247273 33.3464501,26.8956483 33.3933789,27.7654426 C33.4425602,28.664155 33.3595902,29.5132936 32.3466798,29.8460387 C31.3409027,30.176155 30.4327373,30.0522206 29.797885,28.9807511 C29.6011597,29.1933174 29.4581208,29.3837258 29.2809178,29.5335738 C27.9935681,30.6245723 26.4467962,30.0939076 26.2429377,28.4211684 C26.1126634,27.349699 26.2185347,26.2493115 26.2185347,25.0584143 L26.2185347,25.0584143 Z M25.8592481,24.5311297 C26.0739941,24.4928227 26.5350223,24.4815559 26.9412376,24.325699 C28.7838484,23.6200238 30.5911688,23.3657705 32.4022435,24.44062 C32.6935772,24.6137526 33.1065503,24.6088703 33.4669632,24.6325306 C34.3049231,24.6884888 35.1781734,24.6295261 35.5359583,23.7379493 C35.9646995,22.6698599 35.5573578,21.697538 34.6762234,21.0557079 C33.9193564,20.5043875 33.1478476,19.5102832 32.0361991,20.2531386 C30.4556385,21.3095857 28.8525521,21.2671475 27.1908986,20.5843815 C25.9144363,20.0601013 24.2955819,20.8070879 23.8908682,22.1403219 C23.4962912,23.4416334 24.2775612,24.5142295 25.8592481,24.5311297 L25.8592481,24.5311297 Z M29.6796246,24.045532 C28.8465452,24.2772519 28.1771534,24.4094486 27.5558166,24.6603219 C27.277623,24.7729896 26.9476199,25.0963458 26.8973123,25.3712548 C26.7377545,26.2380447 26.6330095,27.1273681 26.6341358,28.0076781 C26.6348867,28.8042385 26.8631481,29.5996721 27.8794374,29.61507 C28.8326543,29.6293413 29.3939223,29.0359583 29.4802712,28.1293592 C29.6019105,26.8543368 29.6112963,25.5687988 29.6796246,24.045532 L29.6796246,24.045532 Z M30.2217456,24.2693651 C30.2217456,25.6886021 30.1410281,27.0939434 30.2735549,28.4786289 C30.3107225,28.8662057 30.9628446,29.4588376 31.3589233,29.48062 C31.8488595,29.5076602 32.6470239,29.1617705 32.8246023,28.7610492 C33.7628021,26.6402683 32.630505,24.6899911 30.2217456,24.2693651 L30.2217456,24.2693651 Z" id="Fill-13" fill="#3770A0"></path>
                                <path d="M38.9519966,19.5162921 C34.5823659,19.5076542 31.0161556,16.0588972 31.0161556,11.8417466 C31.0165311,7.63924292 34.6210352,4.13903428 38.9467405,4.14128763 C43.3377707,4.14316542 46.9081107,7.66891207 46.8686905,11.9638033 C46.8281441,16.4062891 43.5585236,19.5253055 38.9519966,19.5162921 L38.9519966,19.5162921 Z M31.4692997,11.7531148 C31.4317567,15.7821103 34.7847227,19.059237 38.9531228,19.0678748 C43.2686916,19.0768882 46.4039081,16.1208644 46.4602226,11.990468 C46.5142846,7.99527273 43.1226493,4.63214307 39.0049322,4.59796721 C34.928137,4.56379136 31.5057165,7.81350224 31.4692997,11.7531148 L31.4692997,11.7531148 Z" id="Fill-14" fill="#3770A0"></path>
                                <path d="M19.6691571,5.00920417 C24.0733273,5.02572876 27.5569429,8.44969896 27.5329154,12.7374545 C27.5092633,16.9042802 23.937797,20.3398927 19.6286106,20.3413949 C15.2548502,20.3428972 11.6923943,16.88062 11.7010291,12.6368048 C11.7100395,8.36707601 15.2349524,4.99267958 19.6691571,5.00920417 L19.6691571,5.00920417 Z M19.6222283,5.44748137 C15.4665928,5.4508614 12.1601801,8.6419851 12.1568013,12.6525782 C12.1534224,16.6507779 15.4759785,19.8708197 19.6117163,19.8779553 C23.7339385,19.8850909 27.0745153,16.6549091 27.0782696,12.6582116 C27.0816485,8.6464918 23.7703552,5.44410134 19.6222283,5.44748137 L19.6222283,5.44748137 Z" id="Fill-15" fill="#3770A0"></path>
                                <path d="M25.8592481,24.5311297 C24.2775612,24.5142295 23.4962912,23.4416334 23.8908682,22.1403219 C24.2955819,20.8070879 25.9144363,20.0601013 27.1908986,20.5843815 C28.8525521,21.2671475 30.4556385,21.3095857 32.0361991,20.2531386 C33.1478476,19.5102832 33.9193564,20.5043875 34.6762234,21.0557079 C35.5573578,21.697538 35.9646995,22.6698599 35.5359583,23.7379493 C35.1781734,24.6295261 34.3049231,24.6884888 33.4669632,24.6325306 C33.1065503,24.6088703 32.6935772,24.6137526 32.4022435,24.44062 C30.5911688,23.3657705 28.7838484,23.6200238 26.9412376,24.325699 C26.5350223,24.4815559 26.0739941,24.4928227 25.8592481,24.5311297" id="Fill-16" fill="#FFFFFF"></path>
                                <path d="M29.6796246,24.045532 C29.6112963,25.5687988 29.6019105,26.8543368 29.4802712,28.1293592 C29.3939223,29.0359583 28.8326543,29.6293413 27.8794374,29.61507 C26.8631481,29.5996721 26.6348867,28.8042385 26.6341358,28.0076781 C26.6330095,27.1273681 26.7377545,26.2380447 26.8973123,25.3712548 C26.9476199,25.0963458 27.277623,24.7729896 27.5558166,24.6603219 C28.1771534,24.4094486 28.8465452,24.2772519 29.6796246,24.045532" id="Fill-17" fill="#FFFFFF"></path>
                                <path d="M30.2217456,24.2693651 C32.630505,24.6899911 33.7628021,26.6402683 32.8246023,28.7610492 C32.6470239,29.1617705 31.8488595,29.5076602 31.3589233,29.48062 C30.9628446,29.4588376 30.3107225,28.8662057 30.2735549,28.4786289 C30.1410281,27.0939434 30.2217456,25.6886021 30.2217456,24.2693651" id="Fill-18" fill="#FFFFFF"></path>
                                <path d="M31.4692997,11.7531148 C31.5057165,7.81350224 34.928137,4.56379136 39.0049322,4.59796721 C43.1226493,4.63214307 46.5142846,7.99527273 46.4602226,11.990468 C46.4039081,16.1208644 43.2686916,19.0768882 38.9531228,19.0678748 C34.7847227,19.059237 31.4317567,15.7821103 31.4692997,11.7531148 L31.4692997,11.7531148 Z M34.9018569,9.83551118 C33.4763489,9.83513562 32.2869864,10.9430343 32.2498189,12.3059374 C32.211525,13.6977586 33.4451882,14.9194516 34.8928466,14.9232072 C36.3566485,14.9265872 37.5445092,13.748459 37.5227343,12.3145753 C37.5020856,10.934772 36.3401295,9.83551118 34.9018569,9.83551118 L34.9018569,9.83551118 Z" id="Fill-19" fill="#FFFFFF"></path>
                                <path d="M19.6222283,5.44748137 C23.7703552,5.44410134 27.0816485,8.6464918 27.0782696,12.6582116 C27.0745153,16.6549091 23.7339385,19.8850909 19.6117163,19.8779553 C15.4759785,19.8708197 12.1534224,16.6507779 12.1568013,12.6525782 C12.1601801,8.6419851 15.4665928,5.4508614 19.6222283,5.44748137 L19.6222283,5.44748137 Z M15.4140326,15.5901997 C16.8635681,15.6202444 18.0349099,14.5634218 18.0885964,13.177234 C18.1449109,11.725699 17.0103613,10.5419374 15.5337948,10.5111416 C14.0606072,10.4803458 12.8378314,11.6355648 12.8393331,13.0570551 C12.8408349,14.4409896 13.9787634,15.5605306 15.4140326,15.5901997 L15.4140326,15.5901997 Z" id="Fill-20" fill="#FFFFFF"></path>
                                <path d="M34.9018569,9.83551118 C36.3401295,9.83551118 37.5020856,10.934772 37.5227343,12.3145753 C37.5445092,13.748459 36.3566485,14.9265872 34.8928466,14.9232072 C33.4451882,14.9194516 32.211525,13.6977586 32.2498189,12.3059374 C32.2869864,10.9430343 33.4763489,9.83513562 34.9018569,9.83551118" id="Fill-21" fill="#3770A0"></path>
                                <path d="M15.4140326,15.5901997 C13.9787634,15.5605306 12.8408349,14.4409896 12.8393331,13.0570551 C12.8378314,11.6355648 14.0606072,10.4803458 15.5337948,10.5111416 C17.0103613,10.5419374 18.1449109,11.725699 18.0885964,13.177234 C18.0349099,14.5634218 16.8635681,15.6202444 15.4140326,15.5901997" id="Fill-22" fill="#3770A0"></path>
                            </g>
                        </g>
                    </g>
                </g>
            </g>
        </g>
    </g>
</svg>