<?xml version="1.0" encoding="UTF-8"?>
<svg width="70px" height="70px" viewBox="0 0 70 70" version="1.1" xmlns="http://www.w3.org/2000/svg" xmlns:xlink="http://www.w3.org/1999/xlink">
    <!-- Generator: Sketch 40.1 (33804) - http://www.bohemiancoding.com/sketch -->
    <title>helperjs</title>
    <desc>Created with Sketch.</desc>
    <defs>
        <linearGradient x1="22.1261161%" y1="0%" x2="77.2823661%" y2="115.061384%" id="linearGradient-1">
            <stop stop-color="#FFBE4C" offset="0%"></stop>
            <stop stop-color="#F48B49" offset="100%"></stop>
        </linearGradient>
    </defs>
    <g id="Page-1" stroke="none" stroke-width="1" fill="none" fill-rule="evenodd">
        <g id="Desktop-HD" transform="translate(-441.000000, -1458.000000)">
            <g id="tools" transform="translate(40.000000, 1437.000000)">
                <g id="Group-2">
                    <g id="helperjs" transform="translate(401.000000, 21.000000)">
                        <path d="M35,70 C54.3299662,70 70,54.3299662 70,35 C70,15.6700338 54.3299662,0 35,0 C15.6700338,0 0,15.6700338 0,35 C0,54.3299662 15.6700338,70 35,70 Z" id="algolia-helper" fill="url(#linearGradient-1)"></path>
                        <g id="helper-logo" transform="translate(12.000000, 9.000000)">
                            <g id="base" transform="translate(0.756480, 0.000000)">
                                <g id="path-3-link" stroke="#634A21" stroke-width="2" fill="#EEF8FF">
                                    <path d="M21.309404,52.0615645 C21.9377399,52.4271707 22.9569623,52.4313506 23.5901238,52.0684798 L44.6743596,39.9849119 C45.3056303,39.6231247 45.8173767,38.7346191 45.8173767,38.0055222 L45.8173767,13.9489319 C45.8173767,13.2175323 45.3031163,12.3312676 44.6738943,11.972342 L24.3711808,0.391117543 C23.7396528,0.0308766795 22.7127487,0.0341744658 22.0819758,0.395931428 L1.26959184,12.3321213 C0.636826795,12.6950208 0.123869377,13.5853202 0.123869377,14.3155097 L0.123869377,38.4081507 C0.123869377,39.1406463 0.6320641,40.030152 1.26157209,40.3964404 L21.309404,52.0615645 L21.309404,52.0615645 Z" id="path-3"></path>
                                </g>
                                <path d="M0.95029752,51.4808822 L0.95029752,26.664739 L22.570453,13.6570124 C22.570453,13.6570124 22.8057508,14.0540857 22.7596535,14.4770059 L22.7596535,37.9384534 L22.7596535,38.4204647 C22.7596535,38.8833148 22.4384702,39.446549 22.0375643,39.6811767 C22.0375643,39.6811767 22.4930189,39.4146572 22.0153273,39.6941893 C19.8656473,40.9521231 3.72911306,50.3506844 2.11365603,51.2810407 C1.57974007,51.6154829 0.95029752,51.4808822 0.95029752,51.4808822 L0.95029752,51.4808822 Z" id="left" fill-opacity="0.5" fill="#CAD3D9" opacity="0.570429104" transform="translate(11.857968, 32.582332) scale(-1, 1) translate(-11.857968, -32.582332) "></path>
                                <path d="M22.7637022,51.4833803 L22.7637022,26.664739 L44.8460631,13.398533 C44.8460631,13.398533 45.0128683,13.6371672 44.9899112,14.1968581 L44.9899112,38.8441743 C44.9899112,38.8441743 30.6226225,47.0852869 23.4803654,51.184253 C23.0109981,51.4833787 22.7637022,51.4833803 22.7637022,51.4833803 L22.7637022,51.4833803 Z" id="right" fill-opacity="0.25" fill="#000000" opacity="0.570429104"></path>
                            </g>
                            <g id="angle" transform="translate(1.100693, 12.900715)" stroke="#634A22" stroke-width="1.57499998" stroke-dasharray="3.779999828338623,8.977499771118163">
                                <path d="M22.2896886,13.7187601 L0.0504786609,0.389461859" id="left"></path>
                                <path d="M22.826437,13.4431256 L45.3174104,0.0477606969" id="right"></path>
                                <path d="M22.3649732,13.6576133 L22.3649732,39.5223908" id="middle"></path>
                            </g>
                            <g id="dots" transform="translate(12.118951, 5.132681)">
                                <g id="bottom" transform="translate(8.802874, 8.798883)">
                                    <ellipse id="Oval" stroke="#634A22" stroke-width="0.839999988" fill="#FFFFFF" cx="2.82949535" cy="1.59553073" rx="2.82949535" ry="1.59553073"></ellipse>
                                    <path d="M0.000434944852,1.60437821 L0.000434944852,3.59426729 C0.000434944852,3.59426729 0.75984692,4.83281295 2.80351379,4.83281287 C4.84718064,4.83281278 5.66100535,3.59426736 5.66100535,3.59426736 L5.66100535,1.60437821" id="Path-15" stroke="#634A22" stroke-width="0.839999988"></path>
                                    <polygon id="Path-16" fill="#634A22" points="0.00243569116 2.51392556 0.00243569116 3.62624525 1.25738974 4.55568452 2.82253623 4.86115354 4.86407525 4.32797908 5.64607538 3.46685143 5.64607538 2.18239214 4.65718477 2.71413451 2.94217165 3.15508113 0.908799356 2.71112709"></polygon>
                                </g>
                                <g id="top" transform="translate(8.802874, 0.000000)">
                                    <ellipse id="Oval" stroke="#634A22" stroke-width="0.839999988" fill="#FFFFFF" cx="2.82949535" cy="1.59553073" rx="2.82949535" ry="1.59553073"></ellipse>
                                    <path d="M0.000434944852,1.60437821 L0.000434944852,3.59426729 C0.000434944852,3.59426729 0.75984692,4.83281295 2.80351379,4.83281287 C4.84718064,4.83281278 5.66100535,3.59426736 5.66100535,3.59426736 L5.66100535,1.60437821" id="Path-15" stroke="#634A22" stroke-width="0.839999988"></path>
                                    <polygon id="Path-16" fill="#634A22" points="0.00243569116 2.51392556 0.00243569116 3.62624525 1.25738974 4.55568452 2.82253623 4.86115354 4.86407525 4.32797908 5.64607538 3.46685143 5.64607538 2.18239214 4.65718477 2.71413451 2.94217165 3.15508113 0.908799356 2.71112709"></polygon>
                                </g>
                                <g id="left" transform="translate(0.000000, 4.399441)">
                                    <ellipse id="Oval" stroke="#634A22" stroke-width="0.839999988" fill="#FFFFFF" cx="2.82949535" cy="1.59553073" rx="2.82949535" ry="1.59553073"></ellipse>
                                    <path d="M0.000434944852,1.60437821 L0.000434944852,3.59426729 C0.000434944852,3.59426729 0.75984692,4.83281295 2.80351379,4.83281287 C4.84718064,4.83281278 5.66100535,3.59426736 5.66100535,3.59426736 L5.66100535,1.60437821" id="Path-15" stroke="#634A22" stroke-width="0.839999988"></path>
                                    <polygon id="Path-16" fill="#634A22" points="0.00243569116 2.51392556 0.00243569116 3.62624525 1.25738974 4.55568452 2.82253623 4.86115354 4.86407525 4.32797908 5.64607538 3.46685143 5.64607538 2.18239214 4.65718477 2.71413451 2.94217165 3.15508113 0.908799356 2.71112709"></polygon>
                                </g>
                                <g id="right" transform="translate(17.605749, 4.399441)">
                                    <ellipse id="Oval" stroke="#634A22" stroke-width="0.839999988" fill="#FFFFFF" cx="2.82949535" cy="1.59553073" rx="2.82949535" ry="1.59553073"></ellipse>
                                    <path d="M0.000434944852,1.60437821 L0.000434944852,3.59426729 C0.000434944852,3.59426729 0.75984692,4.83281295 2.80351379,4.83281287 C4.84718064,4.83281278 5.66100535,3.59426736 5.66100535,3.59426736 L5.66100535,1.60437821" id="Path-15" stroke="#634A22" stroke-width="0.839999988"></path>
                                    <polygon id="Path-16" fill="#634A22" points="0.00243569116 2.51392556 0.00243569116 3.62624525 1.25738974 4.55568452 2.82253623 4.86115354 4.86407525 4.32797908 5.64607538 3.46685143 5.64607538 2.18239214 4.65718477 2.71413451 2.94217165 3.15508113 0.908799356 2.71112709"></polygon>
                                </g>
                            </g>
                        </g>
                    </g>
                </g>
            </g>
        </g>
    </g>
</svg>