<?xml version="1.0" encoding="UTF-8" standalone="no"?>
<svg width="70px" height="70px" viewBox="0 0 70 70" version="1.1" xmlns="http://www.w3.org/2000/svg" xmlns:xlink="http://www.w3.org/1999/xlink" xmlns:sketch="http://www.bohemiancoding.com/sketch/ns">
    <!-- Generator: Sketch 3.5.2 (25235) - http://www.bohemiancoding.com/sketch -->
    <title>instantsearchjs</title>
    <desc>Created with Sketch.</desc>
    <defs>
        <linearGradient x1="42.9656982%" y1="14.0594482%" x2="85.1531982%" y2="110.153198%" id="linearGradient-1">
            <stop stop-color="#2CA5C3" offset="0%"></stop>
            <stop stop-color="#136B90" offset="100%"></stop>
        </linearGradient>
        <linearGradient x1="10.9344482%" y1="-27.3468018%" x2="73.4344482%" y2="79.6844482%" id="linearGradient-2">
            <stop stop-color="#51C8E5" offset="0%"></stop>
            <stop stop-color="#2897C5" offset="100%"></stop>
        </linearGradient>
    </defs>
    <g id="Page-1" stroke="none" stroke-width="1" fill="none" fill-rule="evenodd" sketch:type="MSPage">
        <g id="Desktop-HD" sketch:type="MSArtboardGroup" transform="translate(-439.000000, -1588.000000)">
            <g id="tools" sketch:type="MSLayerGroup" transform="translate(0.000000, 1417.000000)">
                <g id="instantsearchjs" transform="translate(439.000000, 171.000000)" sketch:type="MSShapeGroup">
                    <g id="Rectangle-1-Copy-+-Rectangle-1">
                        <rect id="Rectangle-1-Copy" fill="url(#linearGradient-1)" x="0" y="4.80916031" width="70" height="65.1908397" rx="4"></rect>
                        <rect id="Rectangle-1" fill="url(#linearGradient-2)" x="0" y="0" width="70" height="65.1908397" rx="4"></rect>
                    </g>
                    <g id="icon-widget-copy-3" transform="translate(8.369565, 6.086957)" fill="#FFFFFF">
                        <path d="M38.1714055,27.2938011 C38.2670741,26.7512375 38.1454226,26.1868083 37.8577364,25.7576418 L33.5674593,19.3574625 C35.1377441,17.7092398 36.1905145,15.5913256 36.5900716,13.3253245 C37.6846331,7.11775809 33.7445827,1.24004239 27.7843717,0.18909639 C21.8241607,-0.861849614 16.1114273,3.31381985 15.0168659,9.52138625 C13.9223044,15.7289526 17.8623548,21.6066683 23.8225658,22.6576143 C25.9982726,23.0412502 28.2643283,22.7332992 30.2849046,21.7568154 L34.5779954,28.141037 C34.8628679,28.5861613 35.3290969,28.8987246 35.8500408,28.9905811 C36.9225724,29.1796974 37.9744407,28.4108439 38.1714055,27.2938011 Z M32.6536635,12.6197063 C31.9586592,16.5612716 28.3133912,19.2257464 24.5288871,18.5584362 C20.744383,17.891126 18.2302556,14.1405836 18.9252599,10.1990183 C19.6202642,6.25745301 23.2655322,3.59297821 27.0500363,4.2602884 C30.8345405,4.92759859 33.3486679,8.67814098 32.6536635,12.6197063 Z M23.7853377,39.5132831 C24.1749066,39.1237143 24.7070363,38.8996221 25.223599,38.889121 L32.9271208,38.7325182 C33.3765874,36.5008345 34.5076369,34.4236699 36.1346598,32.796647 C40.5917858,28.3395209 47.6664487,28.195702 51.9459698,32.4752232 C56.225491,36.7547443 56.0816721,43.8294072 51.624546,48.2865332 C47.16742,52.7436593 40.0927571,52.8874782 35.813236,48.6079571 C34.2510457,47.0457668 33.2035482,45.0128892 32.844482,42.797642 L25.1524181,42.9427869 C24.6243975,42.9647458 24.1009426,42.7621123 23.726897,42.3880668 C22.9568032,41.617973 22.9832842,40.3153367 23.7853377,39.5132831 Z M38.8939652,35.6699707 C36.0638621,38.5000738 35.9720919,43.0143825 38.6894228,45.7317134 C41.4067537,48.4490443 45.9210624,48.3572742 48.7511656,45.527171 C51.5812688,42.6970678 51.6730389,38.1827591 48.955708,35.4654282 C46.2383771,32.7480973 41.7240684,32.8398675 38.8939652,35.6699707 Z M22.2068933,25.1368316 C22.3401762,25.6714001 22.2581937,26.2429403 22.0011454,26.6911294 L18.1677731,33.3749928 C19.849207,34.909663 21.0471511,36.9489805 21.6038032,39.18159 C23.1287163,45.2976824 19.6082723,51.4359243 13.7358904,52.9000735 C7.86350854,54.3642228 1.87341106,50.5972252 0.348497971,44.4811328 C-1.17641511,38.3650405 2.34402879,32.2267986 8.21641069,30.7626494 C10.3600565,30.2281784 12.6420738,30.3773071 14.7258441,31.210464 L18.5631365,24.5423232 C18.8162647,24.0784115 19.2595547,23.734087 19.772822,23.6061151 C20.8295488,23.3426435 21.9324874,24.0362495 22.2068933,25.1368316 Z M17.719688,40.164638 C16.751427,36.2811553 12.9291743,33.877452 9.20043827,34.8071303 C5.4717022,35.7368087 3.22532371,39.6535916 4.19358472,43.5370744 C5.16184573,47.4205572 8.98409841,49.8242604 12.7128345,48.8945821 C16.4415705,47.9649038 18.687949,44.0481208 17.719688,40.164638 Z" id="Icons/Search"></path>
                    </g>
                </g>
            </g>
        </g>
    </g>
</svg>