<?xml version="1.0" encoding="UTF-8"?>
<svg width="70px" height="70px" viewBox="0 0 70 70" version="1.1" xmlns="http://www.w3.org/2000/svg" xmlns:xlink="http://www.w3.org/1999/xlink">
    <!-- Generator: Sketch 40.1 (33804) - http://www.bohemiancoding.com/sketch -->
    <title>instantsearchjs</title>
    <desc>Created with Sketch.</desc>
    <defs>
        <linearGradient x1="16.1662946%" y1="0%" x2="98.0668926%" y2="110.412888%" id="linearGradient-1">
            <stop stop-color="#27448F" offset="0%"></stop>
            <stop stop-color="#6954D4" offset="100%"></stop>
        </linearGradient>
        <linearGradient x1="42.9656982%" y1="14.0594482%" x2="85.1531982%" y2="110.153198%" id="linearGradient-2">
            <stop stop-color="#2CA5C3" offset="0%"></stop>
            <stop stop-color="#136B90" offset="100%"></stop>
        </linearGradient>
        <linearGradient x1="10.9344482%" y1="-27.3468018%" x2="73.4344482%" y2="79.6844482%" id="linearGradient-3">
            <stop stop-color="#51C8E5" offset="0%"></stop>
            <stop stop-color="#2897C5" offset="100%"></stop>
        </linearGradient>
    </defs>
    <g id="Page-1" stroke="none" stroke-width="1" fill="none" fill-rule="evenodd">
        <g id="Desktop-HD" transform="translate(-610.000000, -1461.000000)">
            <g id="tools" transform="translate(40.000000, 1437.000000)">
                <g id="Group-2">
                    <g id="instantsearchjs" transform="translate(570.000000, 24.000000)">
                        <path d="M35,70 C54.3299662,70 70,54.3299662 70,35 C70,15.6700338 54.3299662,0 35,0 C15.6700338,0 0,15.6700338 0,35 C0,54.3299662 15.6700338,70 35,70 Z" id="algolia-helper" fill="url(#linearGradient-1)"></path>
                        <rect id="Rectangle-1-Copy" fill="url(#linearGradient-2)" x="12" y="15.0916031" width="45" height="41.9083969" rx="4"></rect>
                        <rect id="Rectangle-1" fill="url(#linearGradient-3)" x="12" y="12" width="45" height="41.9083969" rx="4"></rect>
                        <circle id="Oval-2-Copy" fill="#FFFFFF" opacity="0.197119869" cx="32" cy="5" r="1"></circle>
                        <circle id="Oval-2-Copy" fill="#FFFFFF" opacity="0.496735075" cx="38.5" cy="9.5" r="1.5"></circle>
                        <circle id="Oval-2-Copy" fill="#FFFFFF" opacity="0.496735075" cx="21.5" cy="9.5" r="1.5"></circle>
                        <circle id="Oval-2-Copy" fill="#FFFFFF" opacity="0.496735075" cx="62.5" cy="25.5" r="1.5"></circle>
                        <circle id="Oval-2-Copy" fill="#FFFFFF" opacity="0.496735075" cx="32" cy="66" r="1"></circle>
                        <circle id="Oval-2-Copy" fill="#FFFFFF" opacity="0.754489272" cx="38.5" cy="63.5" r="1.5"></circle>
                        <circle id="Oval-2-Copy" fill="#FFFFFF" opacity="0.496735075" cx="3.5" cy="27.5" r="1.5"></circle>
                        <circle id="Oval-2-Copy" fill="#FFFFFF" opacity="0.959654851" cx="7" cy="31" r="1"></circle>
                        <path d="M42.5608764,32.962848 C42.6263008,32.5918082 42.5431077,32.2058154 42.3463694,31.9123238 L39.4124031,27.5354711 C40.4862644,26.4083108 41.2062162,24.9599454 41.479459,23.4103087 C42.2279902,19.1651771 39.5335313,15.1456185 35.4575572,14.4269143 C31.3815831,13.7082101 27.4748499,16.5638004 26.7263187,20.808932 C25.9777874,25.0540636 28.6722463,29.0736222 32.7482205,29.7923264 C34.2361082,30.0546812 35.7857823,29.8440846 37.1675818,29.1763024 L40.1034724,33.5422421 C40.2982864,33.8466467 40.6171237,34.0603975 40.9733785,34.1232148 C41.7068443,34.2525447 42.4261793,33.7267534 42.5608764,32.962848 Z M38.7874909,22.9277617 C38.3122025,25.6232566 35.8193347,27.4453952 33.2312483,26.9890458 C30.6431619,26.5326963 28.9238405,23.9678351 29.3991289,21.2723402 C29.8744174,18.5768453 32.3672852,16.7547068 34.9553716,17.2110562 C37.543458,17.6674057 39.2627794,20.2322669 38.7874909,22.9277617 Z M32.7227615,41.3193127 C32.9891737,41.0529005 33.3530781,40.8996519 33.7063367,40.8924706 L38.9744985,40.7853756 C39.2818726,39.2592073 40.0553567,37.838709 41.1680192,36.7260466 C44.2160876,33.6779782 49.0541953,33.5796256 51.9808061,36.5062364 C54.9074168,39.4328471 54.8090642,44.2709549 51.7609959,47.3190232 C48.7129275,50.3670916 43.8748197,50.4654442 40.948209,47.5388334 C39.8798832,46.4705076 39.1635373,45.0802957 38.9179848,43.5653677 L33.6576587,43.6646271 C33.2965644,43.679644 32.9385924,43.5410703 32.682796,43.2852739 C32.1561566,42.7586345 32.1742659,41.8678083 32.7227615,41.3193127 Z M43.0550091,38.6910094 C41.1196032,40.6264153 41.0568449,43.7135888 42.9151298,45.5718737 C44.7734148,47.4301587 47.8605883,47.3674004 49.7959942,45.4319945 C51.7314001,43.4965887 51.7941584,40.4094151 49.9358734,38.5511302 C48.0775885,36.6928452 44.9904149,36.7556035 43.0550091,38.6910094 Z M31.6433202,31.487774 C31.7344675,31.8533462 31.6784026,32.244202 31.5026165,32.5507024 L28.881111,37.1215565 C30.0309832,38.1710623 30.8502141,39.5656783 31.2308884,41.0924797 C32.2737217,45.2750555 29.8662166,49.4727786 25.8503056,50.4740577 C21.8343946,51.4753367 17.7379822,48.8992224 16.6951489,44.7166466 C15.6523156,40.5340708 18.0598207,36.3363477 22.0757317,35.3350687 C23.5416941,34.9695632 25.1022837,35.071547 26.5272994,35.641313 L29.1514857,31.0812111 C29.324591,30.7639586 29.6277411,30.5284874 29.9787462,30.440972 C30.7014037,30.2607933 31.4556638,30.7351254 31.6433202,31.487774 Z M28.5746817,41.7647509 C27.9125227,39.1089766 25.2986215,37.4651703 22.7486728,38.1009439 C20.1987242,38.7367175 18.6625067,41.4152646 19.3246656,44.0710389 C19.9868245,46.7268133 22.6007258,48.3706196 25.1506744,47.734846 C27.700623,47.0990724 29.2368406,44.4205253 28.5746817,41.7647509 Z" id="Icons/Search" fill="#FFFFFF"></path>
                    </g>
                </g>
            </g>
        </g>
    </g>
</svg>