<?xml version="1.0" encoding="UTF-8" standalone="no"?>
<svg width="70px" height="70px" viewBox="0 0 70 70" version="1.1" xmlns="http://www.w3.org/2000/svg" xmlns:xlink="http://www.w3.org/1999/xlink" xmlns:sketch="http://www.bohemiancoding.com/sketch/ns">
    <!-- Generator: Sketch 3.5.2 (25235) - http://www.bohemiancoding.com/sketch -->
    <title>javascript copy 2</title>
    <desc>Created with Sketch.</desc>
    <defs></defs>
    <g id="Page-1" stroke="none" stroke-width="1" fill="none" fill-rule="evenodd" sketch:type="MSPage">
        <g id="Desktop-HD" sketch:type="MSArtboardGroup" transform="translate(-776.000000, -2339.000000)" fill="#FFD141">
            <g id="tools" sketch:type="MSLayerGroup" transform="translate(0.000000, 1417.000000)">
                <path d="M811,992 C830.329966,992 846,976.329966 846,957 C846,937.670034 830.329966,922 811,922 C791.670034,922 776,937.670034 776,957 C776,976.329966 791.670034,992 811,992 Z M834.277282,970.221481 C833.871129,967.689621 832.220145,965.563914 827.330491,963.580624 C825.632035,962.799967 823.738415,962.240848 823.174021,960.953819 C822.973582,960.204811 822.947209,959.782834 823.073802,959.329209 C823.437757,957.857566 825.194234,957.398666 826.586757,957.820643 C827.483458,958.121301 828.332686,958.812288 828.844332,959.914702 C831.23905,958.363938 831.233775,958.374487 832.905857,957.308996 C832.293991,956.359548 831.966959,955.921748 831.566082,955.515595 C830.126086,953.906809 828.163895,953.07868 825.025444,953.141977 C824.482149,953.210548 823.933579,953.284394 823.390284,953.352965 C821.823696,953.748568 820.330954,954.571422 819.455352,955.673836 C816.828548,958.654046 817.577556,963.870733 820.774029,966.017539 C823.92303,968.380608 828.548949,968.918628 829.139716,971.128731 C829.714659,973.834656 827.151151,974.710257 824.603467,974.39905 C822.725671,974.008721 821.681279,973.053999 820.552491,971.31862 C818.474257,972.521254 818.474257,972.521254 816.338,973.750261 C816.844372,974.857949 817.377117,975.359047 818.226345,976.319043 C822.245673,980.396393 832.304541,980.195954 834.108491,974.024545 C834.182337,973.813557 834.66761,972.399935 834.277282,970.221481 Z M813.494932,953.469009 L808.30462,953.469009 C808.30462,957.95251 808.283521,962.404364 808.283521,966.887866 C808.283521,969.741483 808.431213,972.357738 807.967038,973.159493 C807.20748,974.736631 805.240014,974.541467 804.343314,974.235534 C803.430789,973.787184 802.966615,973.148944 802.428595,972.246969 C802.280903,971.988508 802.170134,971.788069 802.133211,971.772245 C800.724864,972.632022 799.321792,973.497075 797.913445,974.356852 C798.614981,975.796847 799.648824,977.046953 800.972776,977.859258 C802.950791,979.046067 805.609244,979.410022 808.389015,978.771783 C810.19824,978.244312 811.759553,977.152447 812.577133,975.490914 C813.758668,973.31246 813.505482,970.675106 813.494932,967.758192 C813.521306,963.000406 813.494932,958.242619 813.494932,953.469009 Z" id="javascript-copy-2" sketch:type="MSShapeGroup"></path>
            </g>
        </g>
    </g>
</svg>