<?xml version="1.0" encoding="UTF-8" standalone="no"?>
<svg width="71px" height="71px" viewBox="0 0 71 71" version="1.1" xmlns="http://www.w3.org/2000/svg" xmlns:xlink="http://www.w3.org/1999/xlink" xmlns:sketch="http://www.bohemiancoding.com/sketch/ns">
    <!-- Generator: Sketch 3.5.2 (25235) - http://www.bohemiancoding.com/sketch -->
    <title>java</title>
    <desc>Created with Sketch.</desc>
    <defs></defs>
    <g id="Page-1" stroke="none" stroke-width="1" fill="none" fill-rule="evenodd" sketch:type="MSPage">
        <g id="Desktop-HD" sketch:type="MSArtboardGroup" transform="translate(-96.000000, -2338.000000)" fill="#3694D6">
            <g id="tools" sketch:type="MSLayerGroup" transform="translate(0.000000, 1417.000000)">
                <path d="M131.233963,991.895987 C150.563929,991.895987 166.233963,976.225954 166.233963,956.895987 C166.233963,937.566021 150.563929,921.895987 131.233963,921.895987 C111.903996,921.895987 96.2339627,937.566021 96.2339627,956.895987 C96.2339627,976.225954 111.903996,991.895987 131.233963,991.895987 Z M123.50232,970.709214 C123.50232,970.709214 121.160267,972.070693 125.170991,972.53012 C130.030635,973.084249 132.513903,973.004449 137.867596,971.993738 C137.867596,971.993738 139.277983,972.874927 141.244277,973.638108 C129.238826,978.775256 114.073468,973.34045 123.50232,970.709214 Z M122.034552,964.004381 C122.034552,964.004381 119.407355,965.947086 123.421064,966.361396 C128.612651,966.896694 132.711008,966.940591 139.806895,965.576673 C139.806895,965.576673 140.78604,966.570042 142.328011,967.112926 C127.81501,971.352764 111.650429,967.446488 122.034552,964.004381 Z M134.401112,952.629277 C137.360795,956.031959 133.625039,959.091459 133.625039,959.091459 C133.625039,959.091459 141.135755,955.219732 137.687177,950.368997 C134.46514,945.847489 131.994894,943.601435 145.368273,935.855406 C145.368408,935.855406 124.375385,941.090645 134.401112,952.629277 Z M150.279057,975.669285 C150.279057,975.669285 152.012842,977.096744 148.369466,978.200668 C141.441517,980.296471 119.529036,980.928639 113.442816,978.284533 C111.256492,977.333435 115.358376,976.015175 116.648981,975.736756 C117.994662,975.446007 118.763002,975.499117 118.763002,975.499117 C116.329789,973.787818 103.036039,978.860069 112.011267,980.314761 C136.487052,984.277127 156.626952,978.53003 150.279057,975.669285 Z M124.629464,957.056489 C124.629464,957.056489 113.484868,959.701002 120.683038,960.662125 C123.7233,961.068442 129.780354,960.974958 135.426515,960.501848 C140.03954,960.115176 144.66898,959.288182 144.66898,959.288182 C144.66898,959.288182 143.043582,959.98457 141.86679,960.786635 C130.547338,963.760103 108.68437,962.375321 114.979361,959.33533 C120.300632,956.76425 124.629464,957.056489 124.629464,957.056489 Z M144.622858,968.217121 C156.128698,962.247289 150.80824,956.509675 147.094868,957.282476 C146.186804,957.471748 145.779438,957.635683 145.779438,957.635683 C145.779438,957.635683 146.117757,957.106347 146.761974,956.878598 C154.108278,954.300337 159.756745,964.485485 144.392925,968.519251 C144.39279,968.519251 144.569546,968.359379 144.622858,968.217121 Z M137.687313,923.345082 C137.687313,923.345082 144.057998,929.711477 131.643009,939.498436 C121.687008,947.35231 129.372987,951.828702 131.639482,956.945799 C125.827418,951.708934 121.564378,947.098277 124.423813,942.807769 C128.622825,936.510607 140.257128,933.456526 137.687313,923.345082 Z M125.760676,984.399198 C136.802446,985.104257 153.76304,984.006836 154.164438,978.788127 C154.164438,978.788127 153.392842,980.766465 145.038228,982.336183 C135.612903,984.108449 123.985246,983.902107 117.091482,982.765261 C117.091482,982.765261 118.503768,983.932726 125.760676,984.399198 Z" id="java" sketch:type="MSShapeGroup"></path>
            </g>
        </g>
    </g>
</svg>