<?xml version="1.0" encoding="UTF-8" standalone="no"?>
<svg width="70px" height="70px" viewBox="0 0 70 70" version="1.1" xmlns="http://www.w3.org/2000/svg" xmlns:xlink="http://www.w3.org/1999/xlink" xmlns:sketch="http://www.bohemiancoding.com/sketch/ns">
    <!-- Generator: Sketch 3.5.2 (25235) - http://www.bohemiancoding.com/sketch -->
    <title>javascript</title>
    <desc>Created with Sketch.</desc>
    <defs></defs>
    <g id="Page-1" stroke="none" stroke-width="1" fill="none" fill-rule="evenodd" sketch:type="MSPage">
        <g id="Desktop-HD" sketch:type="MSArtboardGroup" transform="translate(-97.000000, -1588.000000)" fill="#FFD141">
            <g id="tools" sketch:type="MSLayerGroup" transform="translate(0.000000, 1417.000000)">
                <path d="M132,241 C151.329966,241 167,225.329966 167,206 C167,186.670034 151.329966,171 132,171 C112.670034,171 97,186.670034 97,206 C97,225.329966 112.670034,241 132,241 Z M155.277282,219.221481 C154.871129,216.689621 153.220145,214.563914 148.330491,212.580624 C146.632035,211.799967 144.738415,211.240848 144.174021,209.953819 C143.973582,209.204811 143.947209,208.782834 144.073802,208.329209 C144.437757,206.857566 146.194234,206.398666 147.586757,206.820643 C148.483458,207.121301 149.332686,207.812288 149.844332,208.914702 C152.23905,207.363938 152.233775,207.374487 153.905857,206.308996 C153.293991,205.359548 152.966959,204.921748 152.566082,204.515595 C151.126086,202.906809 149.163895,202.07868 146.025444,202.141977 C145.482149,202.210548 144.933579,202.284394 144.390284,202.352965 C142.823696,202.748568 141.330954,203.571422 140.455352,204.673836 C137.828548,207.654046 138.577556,212.870733 141.774029,215.017539 C144.92303,217.380608 149.548949,217.918628 150.139716,220.128731 C150.714659,222.834656 148.151151,223.710257 145.603467,223.39905 C143.725671,223.008721 142.681279,222.053999 141.552491,220.31862 C139.474257,221.521254 139.474257,221.521254 137.338,222.750261 C137.844372,223.857949 138.377117,224.359047 139.226345,225.319043 C143.245673,229.396393 153.304541,229.195954 155.108491,223.024545 C155.182337,222.813557 155.66761,221.399935 155.277282,219.221481 Z M134.494932,202.469009 L129.30462,202.469009 C129.30462,206.95251 129.283521,211.404364 129.283521,215.887866 C129.283521,218.741483 129.431213,221.357738 128.967038,222.159493 C128.20748,223.736631 126.240014,223.541467 125.343314,223.235534 C124.430789,222.787184 123.966615,222.148944 123.428595,221.246969 C123.280903,220.988508 123.170134,220.788069 123.133211,220.772245 C121.724864,221.632022 120.321792,222.497075 118.913445,223.356852 C119.614981,224.796847 120.648824,226.046953 121.972776,226.859258 C123.950791,228.046067 126.609244,228.410022 129.389015,227.771783 C131.19824,227.244312 132.759553,226.152447 133.577133,224.490914 C134.758668,222.31246 134.505482,219.675106 134.494932,216.758192 C134.521306,212.000406 134.494932,207.242619 134.494932,202.469009 Z" id="javascript" sketch:type="MSShapeGroup"></path>
            </g>
        </g>
    </g>
</svg>