<?xml version="1.0" encoding="UTF-8" standalone="no"?>
<svg width="71px" height="71px" viewBox="0 0 71 71" version="1.1" xmlns="http://www.w3.org/2000/svg" xmlns:xlink="http://www.w3.org/1999/xlink" xmlns:sketch="http://www.bohemiancoding.com/sketch/ns">
    <!-- Generator: Sketch 3.5.2 (25235) - http://www.bohemiancoding.com/sketch -->
    <title>java</title>
    <desc>Created with Sketch.</desc>
    <defs></defs>
    <g id="Page-1" stroke="none" stroke-width="1" fill="none" fill-rule="evenodd" sketch:type="MSPage">
        <g id="Desktop-HD" sketch:type="MSArtboardGroup" transform="translate(-96.000000, -2338.000000)">
            <g id="tools" sketch:type="MSLayerGroup" transform="translate(0.000000, 1417.000000)">
                <g id="java" transform="translate(96.000000, 922.000000)" sketch:type="MSShapeGroup">
                    <circle id="Oval-148" fill="#FFFFFF" cx="35.5" cy="34.5" r="33.5"></circle>
                    <path d="M35.2339627,69.8959874 C54.5639289,69.8959874 70.2339627,54.2259536 70.2339627,34.8959874 C70.2339627,15.5660211 54.5639289,-0.104012622 35.2339627,-0.104012622 C15.9039964,-0.104012622 0.233962684,15.5660211 0.233962684,34.8959874 C0.233962684,54.2259536 15.9039964,69.8959874 35.2339627,69.8959874 Z M27.5023205,48.7092144 C27.5023205,48.7092144 25.1602666,50.0706934 29.1709915,50.5301197 C34.0306346,51.0842494 36.5139035,51.0044493 41.8675958,49.9937385 C41.8675958,49.9937385 43.2779829,50.8749266 45.2442772,51.6381081 C33.2388264,56.775256 18.073468,51.3404497 27.5023205,48.7092144 Z M26.034552,42.0043809 C26.034552,42.0043809 23.4073549,43.9470863 27.4210642,44.3613965 C32.6126508,44.8966939 36.7110077,44.9405907 43.8068951,43.576673 C43.8068951,43.576673 44.7860405,44.5700419 46.3280113,45.1129264 C31.8150095,49.3527635 15.6504291,45.4464881 26.034552,42.0043809 Z M38.4011119,30.6292774 C41.3607952,34.0319588 37.6250395,37.0914591 37.6250395,37.0914591 C37.6250395,37.0914591 45.1357546,33.219732 41.6871769,28.3689974 C38.4651403,23.847489 35.994894,21.6014348 49.3682726,13.8554065 C49.3684082,13.8554065 28.375385,19.0906448 38.4011119,30.6292774 Z M54.2790569,53.6692846 C54.2790569,53.6692846 56.0128415,55.0967443 52.3694657,56.2006682 C45.4415171,58.2964706 23.5290359,58.9286391 17.4428159,56.2845328 C15.256492,55.3334349 19.3583759,54.0151754 20.6489812,53.7367557 C21.9946617,53.446007 22.7630019,53.4991167 22.7630019,53.4991167 C20.329789,51.787818 7.03603893,56.860069 16.0112668,58.314761 C40.4870524,62.2771268 60.6269521,56.5300299 54.2790569,53.6692846 Z M28.6294636,35.056489 C28.6294636,35.056489 17.4848684,37.7010017 24.6830384,38.6621254 C27.7232997,39.068442 33.7803543,38.974958 39.426515,38.5018478 C44.0395405,38.1151764 48.6689799,37.2881819 48.6689799,37.2881819 C48.6689799,37.2881819 47.0435823,37.9845698 45.8667901,38.7866352 C34.5473379,41.7601032 12.6843702,40.3753209 18.9793606,37.3353303 C24.3006318,34.7642499 28.6294636,35.056489 28.6294636,35.056489 Z M48.6228578,46.2171212 C60.1286976,40.2472885 54.8082404,34.5096754 51.0948675,35.2824763 C50.1868045,35.4717475 49.7794377,35.6356832 49.7794377,35.6356832 C49.7794377,35.6356832 50.1177569,35.1063471 50.7619744,34.8785985 C58.1082777,32.3003374 63.7567446,42.4854846 48.3929255,46.5192506 C48.3927898,46.5192506 48.5695461,46.3593794 48.6228578,46.2171212 Z M41.6873126,1.34508237 C41.6873126,1.34508237 48.0579975,7.71147681 35.6430094,17.4984365 C25.6870083,25.35231 33.3729875,29.8287023 35.6394824,34.9457985 C29.8274177,29.7089344 25.5643777,25.0982775 28.4238132,20.8077693 C32.6228248,14.5106072 44.2571283,11.4565263 41.6873126,1.34508237 Z M29.7606763,62.3991979 C40.8024463,63.1042568 57.7630401,62.0068362 58.1644382,56.7881269 C58.1644382,56.7881269 57.3928423,58.7664647 49.0382281,60.3361826 C39.6129026,62.1084492 27.9852462,61.902107 21.0914822,60.7652606 C21.0914822,60.7652606 22.5037684,61.9327264 29.7606763,62.3991979 Z" fill="#3694D6"></path>
                </g>
            </g>
        </g>
    </g>
</svg>