<?xml version="1.0" encoding="UTF-8" standalone="no"?>
<svg width="70px" height="70px" viewBox="0 0 70 70" version="1.1" xmlns="http://www.w3.org/2000/svg" xmlns:xlink="http://www.w3.org/1999/xlink" xmlns:sketch="http://www.bohemiancoding.com/sketch/ns">
    <!-- Generator: Sketch 3.5.2 (25235) - http://www.bohemiancoding.com/sketch -->
    <title>javascript</title>
    <desc>Created with Sketch.</desc>
    <defs></defs>
    <g id="Page-1" stroke="none" stroke-width="1" fill="none" fill-rule="evenodd" sketch:type="MSPage">
        <g id="Desktop-HD" sketch:type="MSArtboardGroup" transform="translate(-97.000000, -1588.000000)">
            <g id="tools" sketch:type="MSLayerGroup" transform="translate(0.000000, 1417.000000)">
                <g id="javascript" transform="translate(97.000000, 171.000000)" sketch:type="MSShapeGroup">
                    <circle id="Oval-148" fill="#FFFFFF" cx="34.5" cy="34.5" r="33.5"></circle>
                    <path d="M35,70 C54.3299662,70 70,54.3299662 70,35 C70,15.6700338 54.3299662,0 35,0 C15.6700338,0 0,15.6700338 0,35 C0,54.3299662 15.6700338,70 35,70 Z M58.2772815,48.221481 C57.871129,45.6896212 56.2201454,43.5639139 51.3304911,41.5806237 C49.6320352,40.7999669 47.738415,40.2408478 47.1740213,38.9538191 C46.9735824,38.2048106 46.9472088,37.7828339 47.0738018,37.3292091 C47.4377567,35.8575655 49.1942344,35.398666 50.5867573,35.8206426 C51.4834577,36.1213009 52.3326857,36.8122877 52.8443323,37.9147016 C55.2390497,36.3639375 55.233775,36.3744869 56.9058574,35.3089959 C56.2939913,34.3595485 55.9669594,33.9217477 55.5660816,33.5155952 C54.1260864,31.9068093 52.163895,31.0786801 49.0254438,31.1419766 C48.4821489,31.2105478 47.9335792,31.2843938 47.3902843,31.352965 C45.823696,31.7485681 44.3309537,32.5714225 43.4553522,33.6738365 C40.8285476,36.6540464 41.5775562,41.8707326 44.7740292,44.0175387 C47.9230298,46.3806079 52.5489487,46.9186281 53.139716,49.1287307 C53.7146591,51.8346559 51.1511511,52.7102574 48.6034671,52.3990497 C46.7256711,52.0087213 45.6812789,51.0539991 44.5524914,49.3186202 C42.4742565,50.5212536 42.4742565,50.5212536 40.3379998,51.7502606 C40.8443718,52.8579492 41.3771173,53.3590465 42.2263452,54.3190433 C46.2456727,58.3963926 56.3045407,58.1959537 58.1084909,52.0245454 C58.1823368,51.8135571 58.6676099,50.3999353 58.2772815,48.221481 Z M37.4949322,31.4690085 L32.3046196,31.4690085 C32.3046196,35.9525103 32.2835208,40.4043638 32.2835208,44.8878655 C32.2835208,47.7414825 32.4312126,50.3577377 31.9670383,51.1594933 C31.2074803,52.736631 29.2400143,52.5414668 28.3433139,52.2355337 C27.4307895,51.7871835 26.9666152,51.1489439 26.4285949,50.2469688 C26.2809031,49.9885081 26.1701343,49.7880692 26.1332113,49.7722451 C24.7248643,50.6320225 23.321792,51.4970746 21.9134449,52.356852 C22.6149811,53.7968473 23.6488239,55.046953 24.9727755,55.8592581 C26.950791,57.0460674 29.6092438,57.4100222 32.3890149,56.7717825 C34.1982397,56.2443117 35.7595533,55.1524472 36.577133,53.4909142 C37.7586676,51.3124598 37.5054816,48.6751058 37.4949322,45.7581924 C37.5213057,41.0004058 37.4949322,36.2426192 37.4949322,31.4690085 Z" fill="#FFD141"></path>
                </g>
            </g>
        </g>
    </g>
</svg>