<?xml version="1.0" encoding="UTF-8"?>
<svg width="67px" height="67px" viewBox="0 0 67 67" version="1.1" xmlns="http://www.w3.org/2000/svg" xmlns:xlink="http://www.w3.org/1999/xlink">
    <!-- Generator: Sketch 40.1 (33804) - http://www.bohemiancoding.com/sketch -->
    <title>jekyll</title>
    <desc>Created with Sketch.</desc>
    <defs>
        <linearGradient x1="94.2826705%" y1="100%" x2="-3.57954545%" y2="0%" id="linearGradient-1">
            <stop stop-color="#EE2E2E" offset="0%"></stop>
            <stop stop-color="#9A57E3" offset="100%"></stop>
        </linearGradient>
    </defs>
    <g id="Page-1" stroke="none" stroke-width="1" fill="none" fill-rule="evenodd">
        <g id="Desktop-HD" transform="translate(-780.000000, -2218.000000)">
            <g id="tools" transform="translate(40.000000, 1437.000000)">
                <g id="Group-2">
                    <g id="jekyll" transform="translate(740.000000, 781.000000)">
                        <circle id="Oval-148-Copy-3" fill="url(#linearGradient-1)" cx="33.5" cy="33.5" r="33.5"></circle>
                        <path d="M21.3881534,50.5390029 C20.2365456,53.5390436 21.7340581,56.9042594 24.7344142,58.0559882 C27.7341108,59.2074638 31.099406,57.7089107 32.2510156,54.708865 C32.2510156,54.708865 46.090563,18.2736635 46.5212279,17.4325317 C47.6170101,16.8235388 48.3039112,16.5182495 48.5328783,15.983993 C49.1802803,14.3816167 47.0238131,12.0177554 42.9201665,10.3597745 C38.8165199,8.70179368 35.1697617,8.3980402 35.0238233,10.3597745 C34.9120253,11.8625859 35.4817574,12.1678754 35.7407205,13.2605359 C35.8659227,13.4234524 21.3881534,50.5390029 21.3881534,50.5390029 Z M41.4400956,13.9303882 C43.8128654,14.8890495 45.9429031,15.1550239 46.197668,14.5244587 C46.4524329,13.8938935 44.7354506,12.605571 42.3626808,11.6469097 C39.989911,10.6882485 37.8598733,10.4222741 37.6051084,11.0528393 C37.3503436,11.6834045 39.0673258,12.971727 41.4400956,13.9303882 Z M35.5895331,28.8536771 C32.2762184,29.1877598 30.6971779,30.875959 29.5287568,33.9197999 C29.1281913,34.9633088 23.0135292,50.8925481 23.0135292,50.8925481 C22.2069697,52.9937076 23.2633198,55.3535167 25.3633894,56.1596578 C27.4677408,56.9674427 29.8314066,55.9087796 30.6393748,53.8039506 L41.7366297,24.8946139 C40.362382,26.436491 38.9028477,28.5195945 35.5895331,28.8536771 Z M29.8339031,43.6126841 C30.6769365,43.6126841 31.3603501,42.9292705 31.3603501,42.0862371 C31.3603501,41.2432037 30.6769365,40.5597901 29.8339031,40.5597901 C28.9908697,40.5597901 28.3074561,41.2432037 28.3074561,42.0862371 C28.3074561,42.9292705 28.9908697,43.6126841 29.8339031,43.6126841 Z M27.526447,52.052894 C28.3694804,52.052894 29.052894,51.3694804 29.052894,50.526447 C29.052894,49.6834136 28.3694804,49 27.526447,49 C26.6834136,49 26,49.6834136 26,50.526447 C26,51.3694804 26.6834136,52.052894 27.526447,52.052894 Z M34.526447,35.052894 C35.3694804,35.052894 36.052894,34.3694804 36.052894,33.526447 C36.052894,32.6834136 35.3694804,32 34.526447,32 C33.6834136,32 33,32.6834136 33,33.526447 C33,34.3694804 33.6834136,35.052894 34.526447,35.052894 Z M34.0697936,39.1859877 C34.5123861,39.1859877 34.8711783,38.8271956 34.8711783,38.384603 C34.8711783,37.9420105 34.5123861,37.5832184 34.0697936,37.5832184 C33.6272011,37.5832184 33.2684089,37.9420105 33.2684089,38.384603 C33.2684089,38.8271956 33.6272011,39.1859877 34.0697936,39.1859877 Z M27.6968773,45.0628088 C28.0762423,45.0628088 28.3837784,44.7552727 28.3837784,44.3759076 C28.3837784,43.9965426 28.0762423,43.6890065 27.6968773,43.6890065 C27.3175122,43.6890065 27.0099761,43.9965426 27.0099761,44.3759076 C27.0099761,44.7552727 27.3175122,45.0628088 27.6968773,45.0628088 Z" id="community/icon-jekyll" fill="#FFFFFF"></path>
                    </g>
                </g>
            </g>
        </g>
    </g>
</svg>