<?xml version="1.0" encoding="UTF-8" standalone="no"?>
<svg width="70px" height="70px" viewBox="0 0 70 70" version="1.1" xmlns="http://www.w3.org/2000/svg" xmlns:xlink="http://www.w3.org/1999/xlink" xmlns:sketch="http://www.bohemiancoding.com/sketch/ns">
    <!-- Generator: Sketch 3.5.2 (25235) - http://www.bohemiancoding.com/sketch -->
    <title>node</title>
    <desc>Created with Sketch.</desc>
    <defs></defs>
    <g id="Page-1" stroke="none" stroke-width="1" fill="none" fill-rule="evenodd" sketch:type="MSPage">
        <g id="Desktop-HD" sketch:type="MSArtboardGroup" transform="translate(-96.000000, -2599.000000)">
            <g id="tools" sketch:type="MSLayerGroup" transform="translate(0.000000, 1417.000000)">
                <g id="node" transform="translate(96.000000, 1182.000000)" sketch:type="MSShapeGroup">
                    <circle id="Oval-148" fill="#FFFFFF" cx="34.5" cy="35.5" r="33.5"></circle>
                    <path d="M35,70 C54.3299662,70 70,54.3299662 70,35 C70,15.6700338 54.3299662,0 35,0 C15.6700338,0 0,15.6700338 0,35 C0,54.3299662 15.6700338,70 35,70 Z M35.0326448,61.9672131 C34.300053,61.9672131 33.5725723,61.7756793 32.9319805,61.4052461 L26.2415436,57.4495384 C25.2431743,56.8909066 25.7304331,56.6933799 26.0592475,56.5783234 C27.393246,56.1161225 27.6624309,56.0097149 29.0850219,55.2036725 C29.2332439,55.1205383 29.4291696,55.1517966 29.5825028,55.2415877 L34.7208673,58.290823 C34.9082745,58.3939107 35.1706446,58.3939107 35.3427185,58.290823 L55.3782514,46.7342858 C55.5656586,46.6278782 55.6849177,46.4130709 55.6849177,46.1922707 L55.6849177,23.0851042 C55.6849177,22.8590092 55.5656586,22.6475559 55.374844,22.5331463 L35.3461259,10.9859561 C35.1604224,10.8781864 34.9150893,10.8781864 34.7276821,10.9859561 L14.7040751,22.5365514 C14.5098531,22.6475559 14.3871866,22.865649 14.3871866,23.0851042 L14.3871866,46.1922707 C14.3871866,46.4130709 14.5098531,46.6225663 14.7023714,46.727646 L20.1916986,49.8965856 C23.1697693,51.3843011 24.9944339,49.6318944 24.9944339,47.87152 L24.9944339,25.056966 C24.9944339,24.7345082 25.2533966,24.4798108 25.5753962,24.4798108 L28.1173192,24.4798108 C28.4342078,24.4798108 28.6965779,24.7345082 28.6965779,25.056966 L28.6965779,47.87152 C28.6965779,51.843182 26.5328766,54.1209702 22.7642883,54.1209702 C21.6057711,54.1209702 20.6942906,54.1209702 18.1489601,52.8673686 L12.8947439,49.8447098 C11.5965231,49.0952082 10.7940796,47.6932828 10.7940796,46.1922707 L10.7940796,23.0851042 C10.7940796,21.5834791 11.5965231,20.1823029 12.8947439,19.4354062 L32.9319805,7.86557237 C34.1995346,7.14864004 35.8844957,7.14864004 37.1418276,7.86557237 L57.1773605,19.4354062 C58.4755812,20.1855377 59.2814322,21.5834791 59.2814322,23.0851042 L59.2814322,46.1922707 C59.2814322,47.6932828 58.4755812,49.0898963 57.1773605,49.8447098 L37.1418276,61.4052461 C36.5012357,61.7756793 35.7754587,61.9672131 35.0326448,61.9672131 Z M40.1482258,45.3133217 C31.3792728,45.3133217 29.5426823,41.2916905 29.5426823,37.9179715 C29.5426823,37.5973864 29.8016449,37.341327 30.1219409,37.341327 L32.7132713,37.341327 C33.0029006,37.341327 33.2431225,37.5488645 33.2891225,37.8314833 C33.6792702,40.4671588 34.8463059,41.7971695 40.1482258,41.7971695 C44.3682951,41.7971695 46.1657005,40.8429055 46.1657005,38.6049394 C46.1657005,37.3147676 45.6562937,36.3570986 39.0970418,35.7154178 C33.6145295,35.1733345 30.224163,33.9630111 30.224163,29.5802068 C30.224163,25.5401203 33.6315665,23.1307101 39.3440786,23.1307101 C45.7636269,23.1307101 48.939327,25.3572694 49.3414006,30.1335267 C49.3567339,30.2985012 49.2988081,30.4561548 49.1897712,30.5792472 C49.0790306,30.6941674 48.9256974,30.7641411 48.7655494,30.7641411 L46.1639968,30.7641411 C45.8948119,30.7641411 45.6562937,30.5726073 45.6017752,30.3117808 C44.9782204,27.5385415 43.4602221,26.6520379 39.3440786,26.6520379 C34.7355653,26.6520379 34.2006029,28.2568359 34.2006029,29.4586467 C34.2006029,30.9149846 34.8326763,31.3392533 41.0545952,32.1619123 C47.2117734,32.9753777 50.1370294,34.1271343 50.1370294,38.4520528 C50.1370294,42.8147674 46.4962187,45.3133217 40.1482258,45.3133217 Z" fill="#83CD29"></path>
                </g>
            </g>
        </g>
    </g>
</svg>