<?xml version="1.0" encoding="UTF-8" standalone="no"?>
<svg width="70px" height="70px" viewBox="0 0 70 70" version="1.1" xmlns="http://www.w3.org/2000/svg" xmlns:xlink="http://www.w3.org/1999/xlink" xmlns:sketch="http://www.bohemiancoding.com/sketch/ns">
    <!-- Generator: Sketch 3.5.2 (25235) - http://www.bohemiancoding.com/sketch -->
    <title>node</title>
    <desc>Created with Sketch.</desc>
    <defs></defs>
    <g id="Page-1" stroke="none" stroke-width="1" fill="none" fill-rule="evenodd" sketch:type="MSPage">
        <g id="Desktop-HD" sketch:type="MSArtboardGroup" transform="translate(-96.000000, -2599.000000)" fill="#83CD29">
            <g id="tools" sketch:type="MSLayerGroup" transform="translate(0.000000, 1417.000000)">
                <path d="M131,1252 C150.329966,1252 166,1236.32997 166,1217 C166,1197.67003 150.329966,1182 131,1182 C111.670034,1182 96,1197.67003 96,1217 C96,1236.32997 111.670034,1252 131,1252 Z M131.032645,1243.96721 C130.300053,1243.96721 129.572572,1243.77568 128.93198,1243.40525 L122.241544,1239.44954 C121.243174,1238.89091 121.730433,1238.69338 122.059248,1238.57832 C123.393246,1238.11612 123.662431,1238.00971 125.085022,1237.20367 C125.233244,1237.12054 125.42917,1237.1518 125.582503,1237.24159 L130.720867,1240.29082 C130.908275,1240.39391 131.170645,1240.39391 131.342718,1240.29082 L151.378251,1228.73429 C151.565659,1228.62788 151.684918,1228.41307 151.684918,1228.19227 L151.684918,1205.0851 C151.684918,1204.85901 151.565659,1204.64756 151.374844,1204.53315 L131.346126,1192.98596 C131.160422,1192.87819 130.915089,1192.87819 130.727682,1192.98596 L110.704075,1204.53655 C110.509853,1204.64756 110.387187,1204.86565 110.387187,1205.0851 L110.387187,1228.19227 C110.387187,1228.41307 110.509853,1228.62257 110.702371,1228.72765 L116.191699,1231.89659 C119.169769,1233.3843 120.994434,1231.63189 120.994434,1229.87152 L120.994434,1207.05697 C120.994434,1206.73451 121.253397,1206.47981 121.575396,1206.47981 L124.117319,1206.47981 C124.434208,1206.47981 124.696578,1206.73451 124.696578,1207.05697 L124.696578,1229.87152 C124.696578,1233.84318 122.532877,1236.12097 118.764288,1236.12097 C117.605771,1236.12097 116.694291,1236.12097 114.14896,1234.86737 L108.894744,1231.84471 C107.596523,1231.09521 106.79408,1229.69328 106.79408,1228.19227 L106.79408,1205.0851 C106.79408,1203.58348 107.596523,1202.1823 108.894744,1201.43541 L128.93198,1189.86557 C130.199535,1189.14864 131.884496,1189.14864 133.141828,1189.86557 L153.17736,1201.43541 C154.475581,1202.18554 155.281432,1203.58348 155.281432,1205.0851 L155.281432,1228.19227 C155.281432,1229.69328 154.475581,1231.0899 153.17736,1231.84471 L133.141828,1243.40525 C132.501236,1243.77568 131.775459,1243.96721 131.032645,1243.96721 Z M136.148226,1227.31332 C127.379273,1227.31332 125.542682,1223.29169 125.542682,1219.91797 C125.542682,1219.59739 125.801645,1219.34133 126.121941,1219.34133 L128.713271,1219.34133 C129.002901,1219.34133 129.243123,1219.54886 129.289122,1219.83148 C129.67927,1222.46716 130.846306,1223.79717 136.148226,1223.79717 C140.368295,1223.79717 142.165701,1222.84291 142.165701,1220.60494 C142.165701,1219.31477 141.656294,1218.3571 135.097042,1217.71542 C129.61453,1217.17333 126.224163,1215.96301 126.224163,1211.58021 C126.224163,1207.54012 129.631567,1205.13071 135.344079,1205.13071 C141.763627,1205.13071 144.939327,1207.35727 145.341401,1212.13353 C145.356734,1212.2985 145.298808,1212.45615 145.189771,1212.57925 C145.079031,1212.69417 144.925697,1212.76414 144.765549,1212.76414 L142.163997,1212.76414 C141.894812,1212.76414 141.656294,1212.57261 141.601775,1212.31178 C140.97822,1209.53854 139.460222,1208.65204 135.344079,1208.65204 C130.735565,1208.65204 130.200603,1210.25684 130.200603,1211.45865 C130.200603,1212.91498 130.832676,1213.33925 137.054595,1214.16191 C143.211773,1214.97538 146.137029,1216.12713 146.137029,1220.45205 C146.137029,1224.81477 142.496219,1227.31332 136.148226,1227.31332 Z" id="node" sketch:type="MSShapeGroup"></path>
            </g>
        </g>
    </g>
</svg>