<?xml version="1.0" encoding="UTF-8" standalone="no"?>
<svg width="70px" height="70px" viewBox="0 0 70 70" version="1.1" xmlns="http://www.w3.org/2000/svg" xmlns:xlink="http://www.w3.org/1999/xlink" xmlns:sketch="http://www.bohemiancoding.com/sketch/ns">
    <!-- Generator: Sketch 3.5.2 (25235) - http://www.bohemiancoding.com/sketch -->
    <title>objc</title>
    <desc>Created with Sketch.</desc>
    <defs></defs>
    <g id="Page-1" stroke="none" stroke-width="1" fill="none" fill-rule="evenodd" sketch:type="MSPage">
        <g id="Desktop-HD" sketch:type="MSArtboardGroup" transform="translate(-436.000000, -1969.000000)">
            <g id="tools" sketch:type="MSLayerGroup" transform="translate(0.000000, 1417.000000)">
                <g id="objc" transform="translate(436.000000, 552.000000)" sketch:type="MSShapeGroup">
                    <circle id="Oval-148" fill="#FFFFFF" cx="34.5" cy="35.5" r="33.5"></circle>
                    <path d="M35,70 C54.3299662,70 70,54.3299662 70,35 C70,15.6700338 54.3299662,0 35,0 C15.6700338,0 0,15.6700338 0,35 C0,54.3299662 15.6700338,70 35,70 Z M41.167678,17.5234817 C42.7568766,15.5978116 43.8297327,12.9202048 43.5342353,10.2513514 C41.2448982,10.343286 38.4739665,11.7781416 36.8301935,13.7038118 C35.3586269,15.4057071 34.0677552,18.1319835 34.4175656,20.7465008 C36.9707379,20.9445229 39.578218,19.4463213 41.167678,17.5234817 Z M46.6659527,34.8401647 C46.6143171,29.0774767 51.3705296,26.3109272 51.5856779,26.1760436 C48.9092326,22.2586784 44.7439609,21.7220138 43.2580031,21.6588767 C39.7152273,21.3001437 36.3417014,23.7452683 34.54593,23.7452683 C32.7501586,23.7452683 29.9733108,21.7105343 27.0358189,21.7679316 C23.1688862,21.8253289 19.6088985,24.0150356 17.6180592,27.4760922 C13.6048257,34.4412536 16.5939532,44.7641564 20.5010469,50.4177897 C22.4144327,53.1814692 24.6921364,56.2952723 27.6870012,56.1804777 C30.5728575,56.0656831 31.6629423,54.3150657 35.1454767,54.3150657 C38.628011,54.3150657 39.6090874,56.1804777 42.6584564,56.1259503 C45.7594611,56.0656831 47.7273511,53.3020036 49.6263937,50.5297144 C51.8180381,47.3212058 52.7245297,44.2160123 52.7761653,44.05243 C52.7073179,44.0237314 46.7290629,41.7307096 46.6659527,34.8401647 Z" fill="#616161"></path>
                </g>
            </g>
        </g>
    </g>
</svg>