<?xml version="1.0" encoding="UTF-8" standalone="no"?>
<svg width="70px" height="70px" viewBox="0 0 70 70" version="1.1" xmlns="http://www.w3.org/2000/svg" xmlns:xlink="http://www.w3.org/1999/xlink" xmlns:sketch="http://www.bohemiancoding.com/sketch/ns">
    <!-- Generator: Sketch 3.5.2 (25235) - http://www.bohemiancoding.com/sketch -->
    <title>objc</title>
    <desc>Created with Sketch.</desc>
    <defs></defs>
    <g id="Page-1" stroke="none" stroke-width="1" fill="none" fill-rule="evenodd" sketch:type="MSPage">
        <g id="Desktop-HD" sketch:type="MSArtboardGroup" transform="translate(-436.000000, -1969.000000)" fill="#616161">
            <g id="tools" sketch:type="MSLayerGroup" transform="translate(0.000000, 1417.000000)">
                <path d="M471,622 C490.329966,622 506,606.329966 506,587 C506,567.670034 490.329966,552 471,552 C451.670034,552 436,567.670034 436,587 C436,606.329966 451.670034,622 471,622 Z M477.167678,569.523482 C478.756877,567.597812 479.829733,564.920205 479.534235,562.251351 C477.244898,562.343286 474.473967,563.778142 472.830193,565.703812 C471.358627,567.405707 470.067755,570.131984 470.417566,572.746501 C472.970738,572.944523 475.578218,571.446321 477.167678,569.523482 Z M482.665953,586.840165 C482.614317,581.077477 487.37053,578.310927 487.585678,578.176044 C484.909233,574.258678 480.743961,573.722014 479.258003,573.658877 C475.715227,573.300144 472.341701,575.745268 470.54593,575.745268 C468.750159,575.745268 465.973311,573.710534 463.035819,573.767932 C459.168886,573.825329 455.608898,576.015036 453.618059,579.476092 C449.604826,586.441254 452.593953,596.764156 456.501047,602.41779 C458.414433,605.181469 460.692136,608.295272 463.687001,608.180478 C466.572857,608.065683 467.662942,606.315066 471.145477,606.315066 C474.628011,606.315066 475.609087,608.180478 478.658456,608.12595 C481.759461,608.065683 483.727351,605.302004 485.626394,602.529714 C487.818038,599.321206 488.72453,596.216012 488.776165,596.05243 C488.707318,596.023731 482.729063,593.73071 482.665953,586.840165 Z" id="objc" sketch:type="MSShapeGroup"></path>
            </g>
        </g>
    </g>
</svg>