<?xml version="1.0" encoding="UTF-8" standalone="no"?>
<svg width="70px" height="70px" viewBox="0 0 70 70" version="1.1" xmlns="http://www.w3.org/2000/svg" xmlns:xlink="http://www.w3.org/1999/xlink" xmlns:sketch="http://www.bohemiancoding.com/sketch/ns">
    <!-- Generator: Sketch 3.5.2 (25235) - http://www.bohemiancoding.com/sketch -->
    <title>php</title>
    <desc>Created with Sketch.</desc>
    <defs></defs>
    <g id="Page-1" stroke="none" stroke-width="1" fill="none" fill-rule="evenodd" sketch:type="MSPage">
        <g id="Desktop-HD" sketch:type="MSArtboardGroup" transform="translate(-776.000000, -2339.000000)">
            <g id="tools" sketch:type="MSLayerGroup" transform="translate(0.000000, 1417.000000)">
                <g id="php" transform="translate(776.000000, 922.000000)" sketch:type="MSShapeGroup">
                    <circle id="Oval-148" fill="#FFFFFF" cx="35.5" cy="34.5" r="33.5"></circle>
                    <path d="M35,70 C54.3299662,70 70,54.3299662 70,35 C70,15.6700338 54.3299662,0 35,0 C15.6700338,0 0,15.6700338 0,35 C0,54.3299662 15.6700338,70 35,70 Z M11.0933033,46.2688342 L14.7926318,27.5409836 L23.347329,27.5409836 C27.0466575,27.7721916 28.8963218,29.6218559 28.8963218,32.8587683 C28.8963218,38.4077611 24.5033692,41.6446735 20.5728326,41.4134655 L16.4110881,41.4134655 L15.4862559,46.2688342 L11.0933033,46.2688342 Z M17.3359202,37.945345 L18.4919604,31.0091041 L21.4976648,31.0091041 C23.116121,31.0091041 24.2721611,31.7027282 24.2721611,33.0899764 C24.0409531,37.0205129 22.1912889,37.714137 20.1104166,37.945345 L17.3359202,37.945345 Z M28.3064181,41.6786702 L32.0057466,22.9508197 L36.3986992,22.9508197 L35.4738671,27.8061883 L39.6356116,27.8061883 C43.3349401,28.0373964 44.7221883,29.8870606 44.2597723,32.1991409 L42.6413161,41.6786702 L38.0171554,41.6786702 L39.6356116,33.1239731 C39.8668197,31.9679329 39.8668197,31.2743088 38.2483635,31.2743088 L34.780243,31.2743088 L32.6993707,41.6786702 L28.3064181,41.6786702 Z M43.2244509,46.2688342 L46.9237794,27.5409836 L55.4784766,27.5409836 C59.1778051,27.7721916 61.0274693,29.6218559 61.0274693,32.8587683 C61.0274693,38.4077611 56.6345167,41.6446735 52.7039802,41.4134655 L48.5422356,41.4134655 L47.6174035,46.2688342 L43.2244509,46.2688342 Z M49.4670677,37.945345 L50.6231079,31.0091041 L53.6288123,31.0091041 C55.2472685,31.0091041 56.4033087,31.7027282 56.4033087,33.0899764 C56.1721006,37.0205129 54.3224364,37.714137 52.2415641,37.945345 L49.4670677,37.945345 Z" fill="#6C7EB7"></path>
                </g>
            </g>
        </g>
    </g>
</svg>