<?xml version="1.0" encoding="UTF-8" standalone="no"?>
<svg width="70px" height="70px" viewBox="0 0 70 70" version="1.1" xmlns="http://www.w3.org/2000/svg" xmlns:xlink="http://www.w3.org/1999/xlink" xmlns:sketch="http://www.bohemiancoding.com/sketch/ns">
    <!-- Generator: Sketch 3.5.2 (25235) - http://www.bohemiancoding.com/sketch -->
    <title>php</title>
    <desc>Created with Sketch.</desc>
    <defs></defs>
    <g id="Page-1" stroke="none" stroke-width="1" fill="none" fill-rule="evenodd" sketch:type="MSPage">
        <g id="Desktop-HD" sketch:type="MSArtboardGroup" transform="translate(-776.000000, -2469.000000)" fill="#6C7EB7">
            <g id="tools" sketch:type="MSLayerGroup" transform="translate(0.000000, 1417.000000)">
                <path d="M811,1122 C830.329966,1122 846,1106.32997 846,1087 C846,1067.67003 830.329966,1052 811,1052 C791.670034,1052 776,1067.67003 776,1087 C776,1106.32997 791.670034,1122 811,1122 Z M787.093303,1098.26883 L790.792632,1079.54098 L799.347329,1079.54098 C803.046658,1079.77219 804.896322,1081.62186 804.896322,1084.85877 C804.896322,1090.40776 800.503369,1093.64467 796.572833,1093.41347 L792.411088,1093.41347 L791.486256,1098.26883 L787.093303,1098.26883 Z M793.33592,1089.94535 L794.49196,1083.0091 L797.497665,1083.0091 C799.116121,1083.0091 800.272161,1083.70273 800.272161,1085.08998 C800.040953,1089.02051 798.191289,1089.71414 796.110417,1089.94535 L793.33592,1089.94535 Z M804.306418,1093.67867 L808.005747,1074.95082 L812.398699,1074.95082 L811.473867,1079.80619 L815.635612,1079.80619 C819.33494,1080.0374 820.722188,1081.88706 820.259772,1084.19914 L818.641316,1093.67867 L814.017155,1093.67867 L815.635612,1085.12397 C815.86682,1083.96793 815.86682,1083.27431 814.248363,1083.27431 L810.780243,1083.27431 L808.699371,1093.67867 L804.306418,1093.67867 Z M819.224451,1098.26883 L822.923779,1079.54098 L831.478477,1079.54098 C835.177805,1079.77219 837.027469,1081.62186 837.027469,1084.85877 C837.027469,1090.40776 832.634517,1093.64467 828.70398,1093.41347 L824.542236,1093.41347 L823.617403,1098.26883 L819.224451,1098.26883 Z M825.467068,1089.94535 L826.623108,1083.0091 L829.628812,1083.0091 C831.247269,1083.0091 832.403309,1083.70273 832.403309,1085.08998 C832.172101,1089.02051 830.322436,1089.71414 828.241564,1089.94535 L825.467068,1089.94535 Z" id="php" sketch:type="MSShapeGroup"></path>
            </g>
        </g>
    </g>
</svg>