<?xml version="1.0" encoding="UTF-8" standalone="no"?>
<svg width="70px" height="70px" viewBox="0 0 70 70" version="1.1" xmlns="http://www.w3.org/2000/svg" xmlns:xlink="http://www.w3.org/1999/xlink" xmlns:sketch="http://www.bohemiancoding.com/sketch/ns">
    <!-- Generator: Sketch 3.5.2 (25235) - http://www.bohemiancoding.com/sketch -->
    <title>python</title>
    <desc>Created with Sketch.</desc>
    <defs></defs>
    <g id="Page-1" stroke="none" stroke-width="1" fill="none" fill-rule="evenodd" sketch:type="MSPage">
        <g id="Desktop-HD" sketch:type="MSArtboardGroup" transform="translate(-266.000000, -2599.000000)">
            <g id="tools" sketch:type="MSLayerGroup" transform="translate(0.000000, 1417.000000)">
                <g id="python" transform="translate(266.000000, 1182.000000)" sketch:type="MSShapeGroup">
                    <circle id="Oval-148" fill="#FFFFFF" cx="35.5" cy="35.5" r="33.5"></circle>
                    <path d="M35,70 C54.3299662,70 70,54.3299662 70,35 C70,15.6700338 54.3299662,0 35,0 C15.6700338,0 0,15.6700338 0,35 C0,54.3299662 15.6700338,70 35,70 Z M35.2965155,11.8943006 C23.5542819,11.8943014 24.2875427,16.9864414 24.2875427,16.9864414 L24.300633,22.261847 L35.5059609,22.261847 L35.5059609,23.8457777 L19.8499186,23.8457777 C19.8499186,23.8457777 12.3360656,22.9936383 12.3360656,34.8416602 C12.3360647,46.6896797 18.8943241,46.2695239 18.8943241,46.2695239 L22.8083347,46.2695239 L22.8083347,40.7715826 C22.8083347,40.7715826 22.5973595,34.2133241 29.2618705,34.2133241 L40.375566,34.2133241 C40.375566,34.2133241 46.6196565,34.31426 46.6196565,28.178679 L46.6196565,18.0336684 C46.6196565,18.0336675 47.5676817,11.8943006 35.2965155,11.8943006 Z M29.1178768,15.4417818 C30.2327248,15.4417809 31.1337886,16.3428455 31.1337886,17.4576936 C31.1337894,18.5725416 30.2327248,19.4736053 29.1178768,19.4736053 C28.0030288,19.4736062 27.101965,18.5725416 27.101965,17.4576936 C27.1019641,16.3428455 28.0030288,15.4417818 29.1178768,15.4417818 Z" fill="#3770A0"></path>
                    <path d="M35.8956217,58.4815878 C47.6378586,58.4815878 46.9045946,53.3894469 46.9045946,53.3894469 L46.8915042,48.1140414 L35.6861763,48.1140414 L35.6861763,46.5301107 L51.3422186,46.5301107 C51.3422186,46.5301107 58.8560716,47.3822476 58.8560716,35.534224 C58.8560758,23.6862058 52.2978131,24.1063616 52.2978131,24.1063616 L48.3838026,24.1063616 L48.3838026,29.6043016 C48.3838026,29.6043016 48.5947811,36.1625601 41.9302667,36.1625601 L30.8165703,36.1625601 C30.8165703,36.1625601 24.5724799,36.0616242 24.5724799,42.1972093 L24.5724799,52.34222 C24.5724799,52.34222 23.6244547,58.4815878 35.8956217,58.4815878 Z M42.5741563,54.4651943 C41.4593079,54.4651943 40.5582445,53.564131 40.5582445,52.4492825 C40.5582445,51.3344341 41.4593079,50.4333707 42.5741563,50.4333707 C43.6890048,50.4333707 44.5900681,51.3344341 44.5900681,52.4492825 C44.5900723,53.564131 43.6890048,54.4651943 42.5741563,54.4651943 Z" id="path8620-3" fill="#FFD141"></path>
                </g>
            </g>
        </g>
    </g>
</svg>