<?xml version="1.0" encoding="UTF-8" standalone="no"?>
<svg width="70px" height="70px" viewBox="0 0 70 70" version="1.1" xmlns="http://www.w3.org/2000/svg" xmlns:xlink="http://www.w3.org/1999/xlink" xmlns:sketch="http://www.bohemiancoding.com/sketch/ns">
    <!-- Generator: Sketch 3.5.2 (25235) - http://www.bohemiancoding.com/sketch -->
    <title>rails</title>
    <desc>Created with Sketch.</desc>
    <defs></defs>
    <g id="Page-1" stroke="none" stroke-width="1" fill="none" fill-rule="evenodd" sketch:type="MSPage">
        <g id="Desktop-HD" sketch:type="MSArtboardGroup" transform="translate(-266.000000, -2339.000000)" fill="#D1405F">
            <g id="tools" sketch:type="MSLayerGroup" transform="translate(0.000000, 1417.000000)">
                <path d="M301,992 C320.329966,992 336,976.329966 336,957 C336,937.670034 320.329966,922 301,922 C281.670034,922 266,937.670034 266,957 C266,976.329966 281.670034,992 301,992 Z M318.144153,937.219115 L320.900883,939.22019 L320.400345,939.970217 L318.060479,938.719922 L318.144153,937.219115 Z M310.124985,934.802028 L310.458929,936.969357 L307.032804,937.052861 L306.53302,934.635021 L310.124985,934.802028 Z M299.515683,935.969572 L301.520098,938.220405 L298.764121,939.803963 L296.758952,937.386875 L299.515683,935.969572 Z M290.159987,943.138837 L293.083312,945.056408 L290.828628,947.723254 L287.820875,945.723684 L290.159987,943.138837 Z M282.725032,954.143244 L286.568021,955.644051 L285.398842,958.895421 L281.472179,957.644373 L282.725032,954.143244 Z M278.5481,968.065009 L282.892381,968.39827 L282.14082,972.73293 L278.046808,972.232661 L278.5481,968.065009 Z M306.115402,956.060064 L305.446007,958.811165 L302.606356,956.393325 L303.691107,954.225996 L306.115402,956.060064 Z M305.279412,948.890799 L307.032804,947.306489 L308.704029,949.807081 L307.701445,951.558397 L305.279412,948.890799 Z M305.697784,963.479839 L305.864379,966.230941 L302.356087,964.730135 L302.523436,961.812778 L305.697784,963.479839 Z M307.200153,972.14991 L308.787704,975.402033 L304.360502,975.151522 L303.524512,972.14991 L307.200153,972.14991 Z M311.545188,946.723469 L310.459683,944.723147 L312.798041,944.139374 L313.131985,945.473173 L311.545188,946.723469 Z M317.642861,944.889401 L317.642861,943.639106 L319.898299,944.138622 L319.898299,945.139159 L317.642861,944.889401 Z M322.572108,944.722394 C322.572108,944.722394 320.066401,941.887037 315.471097,942.387305 C310.876547,942.887574 302.772951,947.556247 301.520098,957.809876 C300.267244,968.063504 305.196492,979.234919 305.196492,979.234919 L282.975301,979.234919 C282.975301,979.234919 282.391089,975.566783 283.810537,968.563773 C285.230739,961.560763 287.318829,956.892089 290.911548,950.223093 C294.503514,943.553345 300.267244,938.051141 308.621109,937.301867 C316.97422,936.551087 323.574693,943.220836 323.574693,943.220836 L322.572108,944.722394 Z" id="rails" sketch:type="MSShapeGroup"></path>
            </g>
        </g>
    </g>
</svg>