<?xml version="1.0" encoding="UTF-8" standalone="no"?>
<svg width="70px" height="70px" viewBox="0 0 70 70" version="1.1" xmlns="http://www.w3.org/2000/svg" xmlns:xlink="http://www.w3.org/1999/xlink" xmlns:sketch="http://www.bohemiancoding.com/sketch/ns">
    <!-- Generator: Sketch 3.5.2 (25235) - http://www.bohemiancoding.com/sketch -->
    <title>rails</title>
    <desc>Created with Sketch.</desc>
    <defs></defs>
    <g id="Page-1" stroke="none" stroke-width="1" fill="none" fill-rule="evenodd" sketch:type="MSPage">
        <g id="Desktop-HD" sketch:type="MSArtboardGroup" transform="translate(-266.000000, -2339.000000)">
            <g id="tools" sketch:type="MSLayerGroup" transform="translate(0.000000, 1417.000000)">
                <g id="rails" transform="translate(266.000000, 922.000000)" sketch:type="MSShapeGroup">
                    <circle id="Oval-148" fill="#FFFFFF" cx="34.5" cy="35.5" r="33.5"></circle>
                    <path d="M35,70 C54.3299662,70 70,54.3299662 70,35 C70,15.6700338 54.3299662,0 35,0 C15.6700338,0 0,15.6700338 0,35 C0,54.3299662 15.6700338,70 35,70 Z M52.1441529,15.2191155 L54.9008831,17.2201904 L54.4003447,17.9702174 L52.0604786,16.7199217 L52.1441529,15.2191155 Z M44.1249854,12.8020276 L44.4589289,14.9693573 L41.0328041,15.0528608 L40.5330195,12.6350206 L44.1249854,12.8020276 Z M33.5156825,13.9695721 L35.5200975,16.2204052 L32.7641212,17.8039627 L30.7589524,15.3868748 L33.5156825,13.9695721 Z M24.1599871,21.1388368 L27.0833121,23.0564082 L24.828628,25.7232544 L21.8208748,23.723684 L24.1599871,21.1388368 Z M16.7250323,32.1432444 L20.5680212,33.6440506 L19.3988419,36.8954213 L15.4721787,35.6443733 L16.7250323,32.1432444 Z M12.5480998,46.0650087 L16.892381,46.3982704 L16.1408196,50.7329297 L12.0468076,50.232661 L12.5480998,46.0650087 Z M40.1154016,34.0600636 L39.4460069,36.8111655 L36.6063563,34.3933253 L37.6911073,32.2259956 L40.1154016,34.0600636 Z M39.2794121,26.8907988 L41.0328041,25.3064891 L42.7040293,27.8070805 L41.7014449,29.5583972 L39.2794121,26.8907988 Z M39.6977838,41.4798388 L39.8643786,44.2309407 L36.3560871,42.7301345 L36.5234357,39.8127779 L39.6977838,41.4798388 Z M41.2001527,50.1499098 L42.7877037,53.4020327 L38.360502,53.1515222 L37.5245125,50.1499098 L41.2001527,50.1499098 Z M45.5451877,24.7234692 L44.4596828,22.7231465 L46.7980413,22.1393743 L47.1319848,23.4731735 L45.5451877,24.7234692 Z M51.6428607,22.8894012 L51.6428607,21.6391055 L53.8982987,22.138622 L53.8982987,23.1391595 L51.6428607,22.8894012 Z M56.5721084,22.7223942 C56.5721084,22.7223942 54.0664012,19.8870365 49.4710971,20.3873053 C44.8765468,20.887574 36.7729511,25.5562473 35.5200975,35.8098757 C34.2672439,46.0635041 39.1964916,57.2349187 39.1964916,57.2349187 L16.9753015,57.2349187 C16.9753015,57.2349187 16.3910888,53.5667828 17.8105372,46.5637728 C19.2307394,39.5607628 21.3188288,34.8920895 24.9115485,28.2230935 C28.5035144,21.5533452 34.2672439,16.0511414 42.6211088,15.3018667 C50.9742199,14.5510875 57.5746928,21.2208357 57.5746928,21.2208357 L56.5721084,22.7223942 Z" fill="#D1405F"></path>
                </g>
            </g>
        </g>
    </g>
</svg>