<?xml version="1.0" encoding="UTF-8" standalone="no"?>
<svg width="70px" height="70px" viewBox="0 0 70 70" version="1.1" xmlns="http://www.w3.org/2000/svg" xmlns:xlink="http://www.w3.org/1999/xlink" xmlns:sketch="http://www.bohemiancoding.com/sketch/ns">
    <!-- Generator: Sketch 3.5.2 (25235) - http://www.bohemiancoding.com/sketch -->
    <title>ruby</title>
    <desc>Created with Sketch.</desc>
    <defs>
        <circle id="path-1" cx="35" cy="35" r="33.2786885"></circle>
    </defs>
    <g id="Page-1" stroke="none" stroke-width="1" fill="none" fill-rule="evenodd" sketch:type="MSPage">
        <g id="Desktop-HD" sketch:type="MSArtboardGroup" transform="translate(-96.000000, -2469.000000)">
            <g id="tools" sketch:type="MSLayerGroup" transform="translate(0.000000, 1417.000000)">
                <g id="ruby" transform="translate(96.000000, 1052.000000)">
                    <circle id="Oval-35" fill="#A62C46" sketch:type="MSShapeGroup" cx="35" cy="35" r="35"></circle>
                    <mask id="mask-2" sketch:name="Oval 36" fill="white">
                        <use xlink:href="#path-1"></use>
                    </mask>
                    <use id="Oval-36" fill="#A62C46" sketch:type="MSShapeGroup" xlink:href="#path-1"></use>
                    <path d="M50.6161202,16.0655738 L19.9576503,16.0655738 L5.16393443,29.9221311 L35.2868852,61.3169399 L65.4098361,29.9221311 L50.6161202,16.0655738 L50.6161202,16.0655738 Z M48.8756831,30.7254098 L35.2868852,57.568306 L21.6980874,30.7254098 L48.8756831,30.7254098 L48.8756831,30.7254098 Z M22.568306,29.2527322 L35.2868852,18.4754098 L48.0054645,29.2527322 L22.568306,29.2527322 L22.568306,29.2527322 Z M37.295082,18.2745902 L49.2773224,18.2745902 L49.2773224,28.3825137 L37.295082,18.2745902 L37.295082,18.2745902 Z M21.2295082,28.4494536 L21.2295082,18.2745902 L33.2786885,18.2745902 L21.2295082,28.4494536 L21.2295082,28.4494536 Z M20.0915301,30.7254098 L32.4084699,55.1584699 L8.9795082,30.7254098 L20.0915301,30.7254098 L20.0915301,30.7254098 Z M50.4822404,30.7254098 L61.5273224,30.7254098 L38.0983607,55.1584699 L50.4822404,30.7254098 L50.4822404,30.7254098 Z M50.75,29.2527322 L50.75,19.2117486 L61.4603825,29.2527322 L50.75,29.2527322 L50.75,29.2527322 Z M19.7568306,29.2527322 L9.11338798,29.2527322 L19.7568306,19.2786885 L19.7568306,29.2527322 L19.7568306,29.2527322 Z" id="Shape-3" fill="#F2F2F2" sketch:type="MSShapeGroup" mask="url(#mask-2)"></path>
                </g>
            </g>
        </g>
    </g>
</svg>