<?xml version="1.0" encoding="UTF-8" standalone="no"?>
<svg width="70px" height="70px" viewBox="0 0 70 70" version="1.1" xmlns="http://www.w3.org/2000/svg" xmlns:xlink="http://www.w3.org/1999/xlink" xmlns:sketch="http://www.bohemiancoding.com/sketch/ns">
    <!-- Generator: Sketch 3.5.2 (25235) - http://www.bohemiancoding.com/sketch -->
    <title>scala</title>
    <desc>Created with Sketch.</desc>
    <defs></defs>
    <g id="Page-1" stroke="none" stroke-width="1" fill="none" fill-rule="evenodd" sketch:type="MSPage">
        <g id="Desktop-HD" sketch:type="MSArtboardGroup" transform="translate(-606.000000, -2599.000000)">
            <g id="tools" sketch:type="MSLayerGroup" transform="translate(0.000000, 1417.000000)">
                <g id="scala" transform="translate(606.000000, 1182.000000)" sketch:type="MSShapeGroup">
                    <path d="M35,70 C54.3299662,70 70,54.3299662 70,35 C70,15.6700338 54.3299662,0 35,0 C15.6700338,0 0,15.6700338 0,35 C0,54.3299662 15.6700338,70 35,70 Z" id="javascript-copy" fill="#DC332D"></path>
                    <g id="logo" transform="translate(19.090909, 6.363636)" fill="#FFFFFF">
                        <g id="Group" transform="translate(0.000000, 8.523416)">
                            <path d="M0.248579545,12.7349862 C0.248579545,12.7349862 31.5198864,15.8936639 31.5198864,21.1581267 L31.5198864,8.52341598 C31.5198864,8.52341598 31.5198864,3.25895317 0.248579545,0.100275482 L0.248579545,5.0137741 L0.248579545,12.7349862 L0.248579545,12.7349862 Z" id="Shape"></path>
                            <path d="M0.248579545,29.5812672 C0.248579545,29.5812672 31.5198864,32.7399449 31.5198864,38.0044077 L31.5198864,25.369697 C31.5198864,25.369697 31.5198864,20.1052342 0.248579545,16.9465565 L0.248579545,29.5812672 L0.248579545,29.5812672 Z" id="Shape"></path>
                        </g>
                        <path d="M31.5696023,0.250688705 L31.5696023,12.8853994 C31.5696023,12.8853994 31.5696023,18.1498623 0.298295455,21.3085399 L0.298295455,8.62369146 C0.248579545,8.62369146 31.5696023,5.51515152 31.5696023,0.250688705" id="Shape"></path>
                        <path d="M0.248579545,25.4699725 C0.248579545,25.4699725 31.5198864,22.3112948 31.5198864,17.046832 L31.5198864,29.6815427 C31.5198864,29.6815427 31.5198864,34.9460055 0.248579545,38.1046832 L0.248579545,25.4699725 L0.248579545,25.4699725 Z" id="Shape"></path>
                        <path d="M0.248579545,54.9008264 L0.248579545,42.2661157 C0.248579545,42.2661157 31.5198864,39.107438 31.5198864,33.8429752 L31.5198864,46.477686 C31.5696023,46.5278237 31.5696023,51.7421488 0.248579545,54.9008264" id="Shape"></path>
                    </g>
                </g>
            </g>
        </g>
    </g>
</svg>