<?xml version="1.0" encoding="UTF-8" standalone="no"?>
<svg width="70px" height="70px" viewBox="0 0 70 70" version="1.1" xmlns="http://www.w3.org/2000/svg" xmlns:xlink="http://www.w3.org/1999/xlink" xmlns:sketch="http://www.bohemiancoding.com/sketch/ns">
    <!-- Generator: Sketch 3.5.2 (25235) - http://www.bohemiancoding.com/sketch -->
    <title>scala</title>
    <desc>Created with Sketch.</desc>
    <defs></defs>
    <g id="Page-1" stroke="none" stroke-width="1" fill="none" fill-rule="evenodd" sketch:type="MSPage">
        <g id="Desktop-HD" sketch:type="MSArtboardGroup" transform="translate(-606.000000, -2599.000000)">
            <g id="tools" sketch:type="MSLayerGroup" transform="translate(0.000000, 1417.000000)">
                <g id="scala" transform="translate(606.000000, 1182.000000)" sketch:type="MSShapeGroup">
                    <path d="M35,70 C54.3299662,70 70,54.3299662 70,35 C70,15.6700338 54.3299662,0 35,0 C15.6700338,0 0,15.6700338 0,35 C0,54.3299662 15.6700338,70 35,70 Z" id="javascript-copy" fill="#DC332D"></path>
                    <path d="M19.3394886,27.6220386 C19.3394886,27.6220386 50.6107955,30.7807163 50.6107955,36.0451791 L50.6107955,23.4104683 C50.6107955,23.4104683 50.6107955,18.1460055 19.3394886,14.9873278 L19.3394886,19.9008264 L19.3394886,27.6220386 L19.3394886,27.6220386 Z" id="Shape" fill="#FF9898"></path>
                    <path d="M19.3394886,44.4683196 C19.3394886,44.4683196 50.6107955,47.6269972 50.6107955,52.8914601 L50.6107955,40.2567493 C50.6107955,40.2567493 50.6107955,34.9922865 19.3394886,31.8336088 L19.3394886,44.4683196 L19.3394886,44.4683196 Z" id="Shape" fill="#FF9898"></path>
                    <path d="M50.6605114,6.61432507 L50.6605114,19.2490358 C50.6605114,19.2490358 50.6605114,24.5134986 19.3892045,27.6721763 L19.3892045,14.9873278 C19.3394886,14.9873278 50.6605114,11.8787879 50.6605114,6.61432507" id="Shape" fill="#FFFFFF"></path>
                    <path d="M19.3394886,31.8336088 C19.3394886,31.8336088 50.6107955,28.6749311 50.6107955,23.4104683 L50.6107955,36.0451791 C50.6107955,36.0451791 50.6107955,41.3096419 19.3394886,44.4683196 L19.3394886,31.8336088 L19.3394886,31.8336088 Z" id="Shape" fill="#FFFFFF"></path>
                    <path d="M19.3394886,61.2644628 L19.3394886,48.6297521 C19.3394886,48.6297521 50.6107955,45.4710744 50.6107955,40.2066116 L50.6107955,52.8413223 C50.6605114,52.8914601 50.6605114,58.1057851 19.3394886,61.2644628" id="Shape" fill="#FFFFFF"></path>
                </g>
            </g>
        </g>
    </g>
</svg>