<?xml version="1.0" encoding="UTF-8" standalone="no"?>
<svg width="70px" height="70px" viewBox="0 0 70 70" version="1.1" xmlns="http://www.w3.org/2000/svg" xmlns:xlink="http://www.w3.org/1999/xlink" xmlns:sketch="http://www.bohemiancoding.com/sketch/ns">
    <!-- Generator: Sketch 3.5.2 (25235) - http://www.bohemiancoding.com/sketch -->
    <title>swift</title>
    <desc>Created with Sketch.</desc>
    <defs>
        <linearGradient x1="50%" y1="0%" x2="50%" y2="100%" id="linearGradient-1">
            <stop stop-color="#FE9B3A" offset="0%"></stop>
            <stop stop-color="#FF0929" offset="100%"></stop>
        </linearGradient>
    </defs>
    <g id="Page-1" stroke="none" stroke-width="1" fill="none" fill-rule="evenodd" sketch:type="MSPage">
        <g id="Desktop-HD" sketch:type="MSArtboardGroup" transform="translate(-266.000000, -1969.000000)">
            <g id="tools" sketch:type="MSLayerGroup" transform="translate(0.000000, 1417.000000)">
                <g id="swift" transform="translate(266.000000, 552.000000)" sketch:type="MSShapeGroup">
                    <circle id="Oval-35" fill="url(#linearGradient-1)" cx="35" cy="35" r="35"></circle>
                    <path d="M39.4508197,12.0491803 C59.1515648,24.8800386 53.1278681,41.0158148 53.1278681,41.0158148 C53.1278681,41.0158148 55.2524583,43.4459016 56.3147534,46.4592093 C57.3770485,49.4725169 57.3653434,53.1662488 57.1721989,53.2634523 C56.9790543,53.3606557 54.4887342,49.083703 50.1341274,49.083703 C45.7795206,49.083703 43.5672108,53.2634523 35.84143,53.2634523 C18.44608,53.2634523 10.9016393,38.9016397 10.9016393,38.9016397 C10.9016393,38.9016397 18.5549925,44.4179364 26.5704925,44.2235294 C34.5859925,44.0291225 36.8071528,41.6962391 36.8071528,41.6962391 C36.8071528,41.6962391 33.2231539,38.6776729 27.0533532,32.6077146 C20.8835525,26.5377562 15.0783905,18.172999 15.0783905,18.172999 C15.0783905,18.172999 24.3789563,25.5923329 27.3621566,27.7747898 C30.3453569,29.9572468 33.3285573,31.9350984 33.3285573,31.9350984 C33.3285573,31.9350984 30.4393654,28.7978172 28.4053651,26.2743513 C26.3713648,23.7508854 21.1624441,16.1317261 21.1624441,16.1317261 C21.1624441,16.1317261 29.1514501,23.39171 32.7861572,26.2743507 C36.4208644,29.1569913 43.3740686,34.0171649 43.3740686,34.0171649 C43.3740686,34.0171649 47.5628912,24.3940212 39.4508197,12.0491803 L39.4508197,12.0491803 Z" id="Swift-logo" fill="#F2F2F2"></path>
                </g>
            </g>
        </g>
    </g>
</svg>