<?xml version="1.0" encoding="UTF-8" standalone="no"?>
<svg width="70px" height="70px" viewBox="0 0 70 70" version="1.1" xmlns="http://www.w3.org/2000/svg" xmlns:xlink="http://www.w3.org/1999/xlink" xmlns:sketch="http://www.bohemiancoding.com/sketch/ns">
    <!-- Generator: Sketch 3.5.2 (25235) - http://www.bohemiancoding.com/sketch -->
    <title>synfony</title>
    <desc>Created with Sketch.</desc>
    <defs></defs>
    <g id="Page-1" stroke="none" stroke-width="1" fill="none" fill-rule="evenodd" sketch:type="MSPage">
        <g id="Desktop-HD" sketch:type="MSArtboardGroup" transform="translate(-436.000000, -2469.000000)">
            <g id="tools" sketch:type="MSLayerGroup" transform="translate(0.000000, 1417.000000)">
                <g id="synfony" transform="translate(436.000000, 1052.000000)" sketch:type="MSShapeGroup">
                    <circle id="Oval-35" fill="#000000" cx="35" cy="35" r="35"></circle>
                    <path d="M51.2469968,14.9239849 C47.8029068,15.04322 44.7965736,16.9685169 42.5593425,19.6276359 C40.08247,22.5471435 38.4335286,26.0058394 37.2457026,29.5381805 C35.1218038,27.7750785 33.483244,25.489446 30.0746244,24.4969888 C27.4402979,23.7280975 24.672741,24.0445966 22.1283882,25.9663866 C20.9232595,26.8790615 20.0918677,28.2564027 19.6973676,29.5548384 C18.6756469,32.9232312 20.7718614,35.9225211 21.7252367,36.9991443 L23.8093394,39.2602283 C24.2384448,39.7038532 25.2731425,40.8611355 24.7679055,42.5207835 C24.2228724,44.3259685 22.0756151,45.492018 19.8747196,44.8046625 C18.8910647,44.4978074 17.4800346,43.7569714 17.7958077,42.7119104 C17.9264427,42.2858201 18.2283737,41.9631838 18.3918836,41.5975878 C18.5380909,41.2810887 18.610762,41.0408649 18.6557488,40.8988348 C19.0580352,39.5714671 18.5078113,37.8408041 17.1028371,37.3998094 C15.7904321,36.9930072 14.4494777,37.3165202 13.9286683,39.0261417 C13.3377832,40.9724801 14.2574184,44.5013143 19.1756931,46.0373435 C24.9383365,47.8320077 29.8124895,44.6521117 30.5037299,40.5043068 C30.9406215,37.909189 29.7813447,35.977755 27.6635019,33.4966119 L25.9349684,31.5599176 C24.889024,30.500829 24.5291291,28.6947672 25.6122742,27.3077819 C26.5258535,26.1355953 27.8261467,25.6367365 29.9595619,26.2241449 C33.0714413,27.0798324 34.4582477,29.268148 36.7716103,31.0330035 C35.8173698,34.2102693 35.1927446,37.3971792 34.6278135,40.2570692 L34.2808956,42.3875207 C32.6267635,51.1802358 31.3636709,56.0110125 28.0813606,58.7814762 C27.4203999,59.2592935 26.4739456,59.9729509 25.0490734,60.0229244 C24.3015994,60.0465961 24.0610928,59.5249424 24.0515763,59.2987463 C24.0342737,58.769202 24.475491,58.5245946 24.7687707,58.2852476 C25.2082576,58.0423936 25.8718138,57.639975 25.8259618,56.3538136 C25.7783796,54.831812 24.5334548,53.5114582 22.7365759,53.5710757 C21.3887004,53.6140355 19.3357425,54.9001969 19.4127392,57.2542143 C19.4931965,59.6836303 21.7261019,61.5063499 25.0957905,61.3879915 C26.8969951,61.3266204 30.918128,60.5866612 34.8812971,55.8093649 C39.4941803,50.3368225 40.7840919,44.0629498 41.7530396,39.4732735 L42.837915,33.4080623 C43.4374514,33.4825843 44.0819746,33.5334345 44.7818663,33.5492157 C50.5280722,33.6728345 53.4003101,30.6586402 53.4444318,28.4641875 C53.472116,27.1368198 52.5844907,25.8287401 51.3395659,25.8611791 C50.4510755,25.8857275 49.3341902,26.4862869 49.0651342,27.7329955 C48.8029993,28.9560325 50.8931579,30.060711 49.260654,31.1338273 C48.1005122,31.8948281 46.0190049,32.4305095 43.0896684,31.9956519 L43.6217245,29.0121431 C44.7083301,23.3519807 46.0501496,16.392506 51.1388553,16.2215438 C51.5099969,16.2040092 52.8656586,16.2390784 52.8976684,17.1473696 C52.9063198,17.4507179 52.8310533,17.5313769 52.4824051,18.2248696 C52.1233754,18.7666881 51.98928,19.2287243 52.0048523,19.7582686 C52.05503,21.2022412 53.1390402,22.1526155 54.7083895,22.0965048 C56.8071994,22.0254898 57.4110614,19.9564093 57.375591,18.8911836 C57.2890778,16.388999 54.6876263,14.8082567 51.2469968,14.9239849 L51.2469968,14.9239849 Z" id="Shape" fill="#FFFFFF"></path>
                </g>
            </g>
        </g>
    </g>
</svg>