<?xml version="1.0" encoding="UTF-8"?>
<svg width="67px" height="67px" viewBox="0 0 67 67" version="1.1" xmlns="http://www.w3.org/2000/svg" xmlns:xlink="http://www.w3.org/1999/xlink">
    <!-- Generator: Sketch 40.1 (33804) - http://www.bohemiancoding.com/sketch -->
    <title>wordpress</title>
    <desc>Created with Sketch.</desc>
    <defs>
        <linearGradient x1="105.365767%" y1="100%" x2="15.7421875%" y2="20.2399554%" id="linearGradient-1">
            <stop stop-color="#4A2AB2" offset="0%"></stop>
            <stop stop-color="#23A5E9" offset="100%"></stop>
        </linearGradient>
    </defs>
    <g id="Page-1" stroke="none" stroke-width="1" fill="none" fill-rule="evenodd">
        <g id="Desktop-HD" transform="translate(-267.000000, -2218.000000)">
            <g id="tools" transform="translate(40.000000, 1437.000000)">
                <g id="Group-2">
                    <g id="wordpress" transform="translate(227.000000, 781.000000)">
                        <circle id="Oval-148" fill="url(#linearGradient-1)" cx="33.5" cy="33.5" r="33.5"></circle>
                        <path d="M33.9298073,14.0000297 C26.1527984,13.9864913 18.83288,18.5980109 15.4735253,25.8975225 L24.9194126,25.9199939 L24.9194126,26.9530429 C22.010796,26.603029 22.2669143,28.1134563 22.6786649,29.7165879 L28.8794602,45.2571467 L33.4370644,34.5736254 L31.3448027,29.5668713 C30.5848248,28.225853 30.5687851,26.7380956 27.4596332,26.8782044 L27.5033055,25.9262271 L41.3570802,25.9599342 L41.3570802,27.0266903 C39.7346534,27.1218563 37.781627,26.6187908 38.8168993,29.9411828 L44.4200586,44.6595504 L47.483037,36.0670601 C48.4860315,32.4651256 47.542074,29.0036571 46.3501769,25.6093248 C45.6872707,23.3322101 45.9964311,21.4305185 48.9677373,20.6761387 C44.4323663,16.0466737 39.0809184,14.0090024 33.9299661,14.0000297 L33.9298073,14.0000297 Z M52.7716365,27.5880782 L43.789867,50.999978 C46.2702962,48.8516966 48.8135739,48.0697238 51.9257035,42.1255233 C53.9963673,37.1813397 53.7832066,32.6011053 52.7716365,27.5880385 L52.7716365,27.5880782 Z M14.5228185,27.9673525 C13.6461561,34.878895 13.7263544,36.9032264 15.8964719,42.5472789 C18.7252476,47.9528805 20.9188687,49.0917753 24.0323085,51.2121064 L14.5227788,27.9673525 L14.5228185,27.9673525 Z M34.2804167,36.7369936 L27.6242779,52.7965781 C32.2964623,54.1301324 36.4769758,53.9632247 40.3040214,52.4796758 L34.2804167,36.7369539 L34.2804167,36.7369936 Z" id="community/icon-wordpress" fill="#FFFFFF"></path>
                    </g>
                </g>
            </g>
        </g>
    </g>
</svg>