<?xml version="1.0" encoding="UTF-8"?>
<svg width="67px" height="67px" viewBox="0 0 67 67" version="1.1" xmlns="http://www.w3.org/2000/svg" xmlns:xlink="http://www.w3.org/1999/xlink">
    <!-- Generator: Sketch 40.1 (33804) - http://www.bohemiancoding.com/sketch -->
    <title>zendesk</title>
    <desc>Created with Sketch.</desc>
    <defs>
        <linearGradient x1="4.95923913%" y1="0%" x2="106.990489%" y2="119.620536%" id="linearGradient-1">
            <stop stop-color="#A6DB47" offset="0%"></stop>
            <stop stop-color="#009DAD" offset="100%"></stop>
        </linearGradient>
    </defs>
    <g id="Page-1" stroke="none" stroke-width="1" fill="none" fill-rule="evenodd">
        <g id="Desktop-HD" transform="translate(-610.000000, -2218.000000)">
            <g id="tools" transform="translate(40.000000, 1437.000000)">
                <g id="Group-2">
                    <g id="zendesk" transform="translate(570.000000, 781.000000)">
                        <circle id="Oval-148-Copy-2" fill="url(#linearGradient-1)" cx="33.5" cy="33.5" r="33.5"></circle>
                        <path d="M50.5674667,38.5495111 C48.6542933,39.6236444 46.5722311,40.1343644 44.5239467,40.1343644 C43.1890489,40.1343644 41.8676622,39.9127822 40.7516444,39.4682667 C38.7114667,41.30848 36.5159111,42.59744 35.4107022,43.1959822 C37.0117689,45.7360711 39.5572622,47.6884267 42.7026489,48.4720711 C43.6754489,48.7152711 44.6523022,48.8287644 45.61024,48.8287644 C47.7612089,48.8287644 49.8311111,48.23968 51.5902578,47.2925511 C51.8510222,46.2873244 51.9807289,45.2537244 51.9807289,44.2093156 C51.9807289,42.2880356 51.5213511,40.3464889 50.5674667,38.5495111 Z M48.0746667,23.4022044 C47.7125689,25.8179911 46.6668089,27.9662578 45.2022044,29.5646222 C45.2792178,29.9888711 45.3319111,30.4536533 45.3319111,30.9400533 C45.3251556,33.7652267 43.8673067,36.2228978 42.0460089,38.2009244 C42.5675378,38.2657778 43.09312,38.3022578 43.6146489,38.3022578 C46.2114844,38.3022578 48.8285867,37.4699733 51.0430578,35.7446044 C53.6007111,33.7382044 55.1396267,30.9076267 55.5841422,28.0216533 C53.8614756,25.75584 51.3308444,24.1304533 48.5110756,23.42112 C48.3651556,23.3900444 48.2313956,23.3319467 48.0827733,23.3062756 L48.0746667,23.4022044 Z M46.1520356,21.3363556 C46.1520356,18.08288 44.8711822,15.1347556 42.8661333,13 L42.69184,13 C39.8139733,13 37.2928,14.0227911 35.00672,16.0913422 C37.1914667,18.4139022 37.9764622,21.3593244 37.9764622,24.3033956 C37.9764622,24.5411911 37.9683556,24.7762844 37.9616,25.0046222 C38.4547556,24.88032 38.9519644,24.8208711 39.4410667,24.8208711 L39.5707733,24.8208711 C41.4501689,24.8587022 43.3444267,25.79232 44.43072,27.5514667 C45.5197156,25.7328711 46.1520356,23.6116267 46.1520356,21.3363556 Z M24.43968,13.2148267 C24.2599822,13.2148267 24.0883911,13.2148267 24.0248889,13.1796978 C22.0590222,15.3387733 20.8781511,18.1909689 20.8781511,21.2985244 C20.8781511,21.3431111 20.8781511,21.3809422 20.8619378,21.4052622 C20.9984,21.4052622 21.1362133,21.4012089 21.2767289,21.4012089 C24.5883022,21.4012089 27.6188444,22.7198933 29.76576,24.8424889 C31.5681422,24.9694933 33.4124089,25.92608 34.3838578,27.8243911 C34.9053867,26.8043022 35.6795733,26.0584889 36.4969956,25.6774756 C36.4969956,25.5423644 36.5024,25.4004978 36.5024,25.2613333 C36.5024,21.9348978 35.1256178,18.6165689 32.4477156,16.2453689 C30.1454222,14.2051911 27.2864711,13.2148267 24.43968,13.2148267 Z M28.1903644,25.07488 C28.1903644,25.07488 28.1903644,25.07488 28.1876622,25.07488 L28.1876622,25.0775822 C28.1876622,25.07488 28.1903644,25.07488 28.1903644,25.07488 Z M27.8161067,25.0127289 C26.0069689,23.9575111 23.92896,23.3657244 21.7469156,23.3657244 C21.04704,23.3657244 20.3336533,23.4265244 19.6283733,23.55488 C16.4221867,24.1304533 13.7415822,25.91392 12,28.2594489 C12.4728889,31.1616356 14.0064,33.8935822 16.4829867,35.82432 C18.2921244,33.3977244 20.8268089,31.8304356 23.4466133,31.3278222 C23.4466133,31.2048711 23.4412089,31.0670578 23.4412089,30.9373511 C23.4358044,27.6500978 25.4786844,25.6139733 27.8161067,25.0127289 Z M17.2071822,38.5778844 C16.2492444,40.3802667 15.7925689,42.3083022 15.7925689,44.21472 C15.7925689,45.3550578 15.9533511,46.4805333 16.2019556,47.4830578 C17.9570489,48.4450489 19.9418311,48.9625244 21.9928178,48.9625244 C22.9615644,48.9625244 23.9438222,48.8463289 24.9341867,48.60448 C24.6301867,47.5087289 24.4829156,46.41568 24.4829156,45.3307378 C24.4829156,42.7501156 25.3016889,40.2735289 26.7527822,38.2225422 C25.3543822,36.7133511 24.1681067,34.9271822 23.6803556,32.9072711 C20.9916444,33.90304 18.6501689,35.8499911 17.2071822,38.5778844 Z M33.9406933,56.0126222 C36.6469689,54.84256 38.9330489,52.6942933 40.2017422,49.8164267 C37.1158044,48.5382756 34.83648,46.1387022 33.6826311,43.3689244 C32.69632,42.8595556 30.1508267,41.4341333 27.8309689,39.3007289 C26.9540978,41.0017778 26.4879644,42.8987378 26.4879644,44.8335289 C26.4879644,46.4724267 26.8135822,48.1396978 27.5377778,49.7340089 C28.8672711,52.7132089 31.2533333,54.87904 33.9406933,56.0126222 Z" id="community/icon-zendesk" fill="#FFFFFF"></path>
                    </g>
                </g>
            </g>
        </g>
    </g>
</svg>