<?xml version="1.0" encoding="UTF-8" standalone="no"?>
<svg width="241px" height="111px" viewBox="0 0 241 111" version="1.1" xmlns="http://www.w3.org/2000/svg" xmlns:xlink="http://www.w3.org/1999/xlink" xmlns:sketch="http://www.bohemiancoding.com/sketch/ns">
    <!-- Generator: Sketch 3.5.2 (25235) - http://www.bohemiancoding.com/sketch -->
    <title>illus-index</title>
    <desc>Created with Sketch.</desc>
    <defs>
        <filter x="-50%" y="-50%" width="200%" height="200%" filterUnits="objectBoundingBox" id="filter-1">
            <feGaussianBlur stdDeviation="0" in="SourceGraphic" result="blur"></feGaussianBlur>
        </filter>
    </defs>
    <g id="Page-1" stroke="none" stroke-width="1" fill="none" fill-rule="evenodd" sketch:type="MSPage">
        <g id="Desktop-HD" sketch:type="MSArtboardGroup" transform="translate(-124.000000, -743.000000)">
            <g id="docsearch" sketch:type="MSLayerGroup" transform="translate(14.000000, 685.000000)">
                <g id="illus-index" transform="translate(110.000000, 60.000000)" sketch:type="MSShapeGroup">
                    <g id="Icons/Search-+-illus-header" transform="translate(0.000000, 68.125000)">
                        <rect id="illus-header" stroke="#46AEDA" stroke-width="2" fill="#1D3657" x="0" y="0" width="241" height="40.7670267" rx="100"></rect>
                        <path d="M35.4722376,31.3240941 C35.4722376,30.8145435 35.2626916,30.3199796 34.9184375,29.9752836 L29.7845604,24.8348168 C30.9969337,23.0813631 31.6405393,20.9832134 31.6405393,18.8550901 C31.6405393,13.0252312 26.9257542,8.30439432 21.1033689,8.30439432 C15.2809835,8.30439432 10.5661984,13.0252312 10.5661984,18.8550901 C10.5661984,24.6849489 15.2809835,29.4057858 21.1033689,29.4057858 C23.228764,29.4057858 25.3242241,28.7613541 27.0754299,27.5474246 L32.209307,32.6729047 C32.5535611,33.0325875 33.047491,33.2424024 33.5563884,33.2424024 C34.6041185,33.2424024 35.4722376,32.373169 35.4722376,31.3240941 Z M27.8088409,18.8550901 C27.8088409,22.5568256 24.800359,25.5691692 21.1033689,25.5691692 C17.4063787,25.5691692 14.3978968,22.5568256 14.3978968,18.8550901 C14.3978968,15.1533545 17.4063787,12.141011 21.1033689,12.141011 C24.800359,12.141011 27.8088409,15.1533545 27.8088409,18.8550901 Z" id="Icons/Search" fill="#46AEDA"></path>
                    </g>
                    <g id="logo-docsearch-+-logo-docsearch-copy" transform="translate(57.036667, 76.139706)">
                        <path d="M0.106569364,22.8487039 L0.106569364,0.472731805 L8.47423796,0.472731805 C10.3267122,0.472731805 11.9476029,0.766873097 13.3369586,1.35516451 C14.7263143,1.94345592 15.8893559,2.74183942 16.8261185,3.75033898 C17.762881,4.75883854 18.4680737,5.94065624 18.9417177,7.29582752 C19.4153617,8.6509988 19.6521802,10.0954426 19.6521802,11.6292024 C19.6521802,13.3310454 19.3890486,14.8700347 18.8627775,16.2462164 C18.3365064,17.622398 17.58395,18.7989632 16.6050857,19.7759472 C15.6262215,20.7529311 14.4473919,21.5092944 13.0685617,22.0450598 C11.6897314,22.5808252 10.1583055,22.8487039 8.47423796,22.8487039 L0.106569364,22.8487039 Z M14.3789701,11.6292024 C14.3789701,10.6417132 14.2474043,9.74353179 13.9842688,8.93463111 C13.7211332,8.12573042 13.3369611,7.42714485 12.8317408,6.83885344 C12.3265206,6.25056203 11.70553,5.79884505 10.9687505,5.48368893 C10.2319709,5.16853282 9.40047509,5.01095713 8.47423796,5.01095713 L5.28505106,5.01095713 L5.28505106,18.3104786 L8.47423796,18.3104786 C9.42152593,18.3104786 10.2635471,18.1423978 11.0003266,17.8062313 C11.7371061,17.4700648 12.3528341,17.0025902 12.8475289,16.4037936 C13.3422237,15.804997 13.7211332,15.1011589 13.9842688,14.2922582 C14.2474043,13.4833575 14.3789701,12.5956811 14.3789701,11.6292024 L14.3789701,11.6292024 Z M27.0330954,22.9668868 C26.0331803,22.9668868 25.1253763,22.7633516 24.3096561,22.3562749 C23.4939359,21.9491983 22.793348,21.4140975 22.2078714,20.7509565 C21.6223948,20.0878155 21.1684928,19.3294825 20.8461517,18.4759347 C20.5238107,17.6223869 20.3626426,16.7425893 20.3626426,15.8365155 C20.3626426,14.9173101 20.530389,14.0309469 20.8658868,13.1773991 C21.2013846,12.3238512 21.6684432,11.5720839 22.2670766,10.9220744 C22.86571,10.2720649 23.5761653,9.75337827 24.3984639,9.36599888 C25.2207625,8.97861949 26.118699,8.7849327 27.0923006,8.7849327 C28.0922157,8.7849327 29.0000197,8.98846797 29.8157399,9.39554462 C30.6314601,9.80262126 31.332048,10.3410049 31.9175246,11.0107116 C32.5030012,11.6804184 32.953614,12.4420342 33.2693767,13.295582 C33.5851393,14.1491298 33.7430183,15.0157961 33.7430183,15.8956069 C33.7430183,16.8148123 33.5752719,17.7011755 33.2397741,18.5547233 C32.9042763,19.4082711 32.4405068,20.1600385 31.8484518,20.810048 C31.2563968,21.4600575 30.5492307,21.9820269 29.7269321,22.3759721 C28.9046335,22.7699172 28.0066969,22.9668868 27.0330954,22.9668868 L27.0330954,22.9668868 Z M23.6583988,15.8759098 C23.6583988,16.4143015 23.7340492,16.9362709 23.8853521,17.4418339 C24.0366551,17.9473968 24.2537386,18.3971441 24.5366093,18.7910892 C24.8194801,19.1850344 25.1747077,19.5001858 25.602303,19.7365528 C26.0298983,19.9729199 26.5199809,20.0911017 27.0725655,20.0911017 C27.6383069,20.0911017 28.1316787,19.9663543 28.5526956,19.7168557 C28.9737124,19.4673571 29.325651,19.1423572 29.6085217,18.7418463 C29.8913924,18.3413354 30.1018977,17.8883053 30.2400438,17.3827424 C30.37819,16.8771795 30.447262,16.3617756 30.447262,15.8365155 C30.447262,15.2981238 30.3716117,14.7761543 30.2203088,14.2705914 C30.0690058,13.7650284 29.8486331,13.318564 29.559184,12.9311846 C29.2697349,12.5438052 28.9145072,12.2352195 28.4934904,12.0054181 C28.0724735,11.7756168 27.5922583,11.6607178 27.0528304,11.6607178 C26.487089,11.6607178 25.9937173,11.7821824 25.5727004,12.0251153 C25.1516835,12.2680481 24.799745,12.5864823 24.5168743,12.9804275 C24.2340036,13.3743726 24.0202091,13.8241199 23.8754846,14.3296828 C23.73076,14.8352458 23.6583988,15.3506496 23.6583988,15.8759098 L23.6583988,15.8759098 Z M34.828447,15.7380297 C34.828447,14.8976134 34.9797477,14.0604925 35.2823536,13.2266419 C35.5849594,12.3927914 36.0257049,11.6475897 36.6046031,10.9910145 C37.1835013,10.3344392 37.8906675,9.80262126 38.7261228,9.39554462 C39.5615782,8.98846797 40.5121411,8.7849327 41.5778401,8.7849327 C42.8277339,8.7849327 43.9131518,9.06725582 44.8341262,9.63191052 C45.7551006,10.1965652 46.4392428,10.9319185 46.8865732,11.8379923 L44.3999547,13.5713422 C44.2552302,13.2036601 44.071038,12.8983572 43.8473728,12.6554244 C43.6237076,12.4124915 43.3803109,12.2155219 43.1171753,12.0645096 C42.8540398,11.9134973 42.5810408,11.8084468 42.29817,11.7493551 C42.0152993,11.6902633 41.7488786,11.6607178 41.4988998,11.6607178 C40.9200016,11.6607178 40.4200516,11.7854653 39.9990347,12.0349639 C39.5780178,12.2844624 39.2293684,12.6061795 38.9530761,13.0001246 C38.6767838,13.3940698 38.4695676,13.8405342 38.3314215,14.3395314 C38.1932753,14.8385286 38.1242033,15.3440839 38.1242033,15.8562126 C38.1242033,16.4077358 38.2064319,16.9395538 38.3708916,17.4516825 C38.5353513,17.9638111 38.7655915,18.4168413 39.061619,18.8107864 C39.3576465,19.2047315 39.7161633,19.5166001 40.1371802,19.7464014 C40.558197,19.9762028 41.0252556,20.0911017 41.5383699,20.0911017 C41.8015055,20.0911017 42.0745045,20.0549906 42.3573752,19.9827673 C42.640246,19.910544 42.913245,19.7989279 43.1763805,19.6479156 C43.4395161,19.4969033 43.6763345,19.2999337 43.886843,19.0570009 C44.0973514,18.814068 44.2683869,18.5153308 44.3999547,18.1607802 L47.0641888,19.7168557 C46.8536804,20.2289844 46.5477899,20.6885801 46.1465082,21.0956568 C45.7452265,21.5027334 45.2880353,21.8441474 44.774921,22.119909 C44.2618067,22.3956706 43.7190978,22.6057715 43.1467779,22.7502181 C42.5744581,22.8946646 42.0120143,22.9668868 41.4594297,22.9668868 C40.4858281,22.9668868 39.5944698,22.7600687 38.785328,22.3464263 C37.9761862,21.9327839 37.2788875,21.3845519 36.6934109,20.7017136 C36.1079343,20.0188754 35.6507431,19.2441282 35.3218237,18.3774489 C34.9929043,17.5107696 34.828447,16.630972 34.828447,15.7380297 L34.828447,15.7380297 Z" id="logo-docsearch" fill="#46AEDA"></path>
                        <path d="M68.3977967,7.02794616 C68.3135933,6.94390453 68.0820375,6.78632884 67.7031224,6.55521436 C67.3242072,6.32409987 66.8505703,6.08248381 66.2821975,5.83035892 C65.7138247,5.57823403 65.0928341,5.35762806 64.4192071,5.1685344 C63.7455801,4.97944073 63.0719632,4.88489531 62.3983362,4.88489531 C61.5142008,4.88489531 60.8353213,5.04247101 60.3616773,5.35762712 C59.8880333,5.67278323 59.6512148,6.13500526 59.6512148,6.74430708 C59.6512148,7.12249441 59.7564675,7.4376458 59.9669759,7.68977069 C60.1774844,7.94189558 60.4774544,8.16775407 60.866895,8.36735294 C61.2563356,8.56695181 61.7404977,8.75079012 62.319396,8.91887338 C62.8982942,9.08695664 63.5666484,9.27604747 64.3244788,9.48615155 C65.3980718,9.78029725 66.3663961,10.1007012 67.2294807,10.4473729 C68.0925653,10.7940446 68.8293338,11.2247515 69.4398083,11.7395065 C70.0502828,12.2542615 70.518657,12.8793117 70.8449451,13.614676 C71.1712332,14.3500402 71.3343748,15.2324641 71.3343748,16.2619741 C71.3343748,17.5225985 71.0975563,18.5888607 70.6239123,19.4607926 C70.1502683,20.3327245 69.5240151,21.0365626 68.7451339,21.572328 C67.9662527,22.1080934 67.0663426,22.4967801 66.0453767,22.7383998 C65.0244108,22.9800195 63.977147,23.1008275 62.9035539,23.1008275 C62.082571,23.1008275 61.2458125,23.0377972 60.3932534,22.9117348 C59.5406942,22.7856724 58.7039357,22.601834 57.8829528,22.3602144 C57.0619699,22.1185947 56.2620498,21.8297059 55.4831686,21.4935394 C54.7042874,21.1573729 53.9885694,20.7686862 53.3359933,20.3274676 L55.609473,15.8207577 C55.7147272,15.9258098 55.9989094,16.1254056 56.4620279,16.4195513 C56.9251465,16.7136971 57.4935108,17.0078383 58.1671378,17.301984 C58.8407648,17.5961298 59.5985838,17.8587559 60.4406175,18.0898704 C61.2826513,18.3209849 62.1351977,18.4365404 62.9982823,18.4365404 C64.8297057,18.4365404 65.7454037,17.8797729 65.7454037,16.7662213 C65.7454037,16.3460132 65.6085752,15.9993467 65.3349143,15.7262114 C65.0612533,15.4530761 64.6823438,15.2062075 64.1981744,14.9855982 C63.714005,14.7649889 63.1456407,14.5601405 62.4930645,14.3710469 C61.8404884,14.1819532 61.1247704,13.9718523 60.3458892,13.7407378 C59.3143979,13.4255817 58.4197504,13.0841677 57.66192,12.7164855 C56.9040897,12.3488034 56.2725738,11.923349 55.7673536,11.4401097 C55.2621333,10.9568703 54.8884864,10.4001029 54.6464017,9.76979063 C54.404317,9.1394784 54.2832765,8.40412517 54.2832765,7.56370887 C54.2832765,6.38712605 54.504307,5.34712648 54.9463748,4.44367896 C55.3884425,3.54023144 55.9883825,2.77861559 56.7462129,2.15880857 C57.5040433,1.53900155 58.3829028,1.071527 59.3828179,0.756370887 C60.382733,0.441214775 61.440522,0.283639083 62.5562168,0.283639083 C63.3561488,0.283639083 64.1350184,0.357174406 64.8928487,0.504247258 C65.6506791,0.651320111 66.3716597,0.840410941 67.0558121,1.07152542 C67.7399646,1.30263991 68.3872683,1.56526606 68.9977428,1.85941176 C69.6082172,2.15355747 70.155531,2.44769876 70.6397004,2.74184447 L68.3977967,7.02794616 Z M82.6188863,20.0123131 L82.6188863,22.8487039 L72.7710877,22.8487039 L72.7710877,8.86372134 L82.4412707,8.86372134 L82.4412707,11.7001122 L76.0076387,11.7001122 L76.0076387,14.41832 L81.5334576,14.41832 L81.5334576,17.0380421 L76.0076387,17.0380421 L76.0076387,20.0123131 L82.6188863,20.0123131 Z M83.2504085,22.8487039 L88.6380819,8.86372134 L91.2628459,8.86372134 L96.6307842,22.8487039 L93.1968825,22.8487039 L92.1114538,19.7168557 L87.7500039,19.7168557 L86.6843102,22.8487039 L83.2504085,22.8487039 Z M89.9405963,12.2910269 L88.2631156,17.4910768 L91.5588719,17.4910768 L89.9405963,12.2910269 Z M97.9135636,22.8487039 L97.9135636,8.86372134 L104.228785,8.86372134 C104.886624,8.86372134 105.495116,9.00160007 106.054279,9.27736167 C106.613442,9.55312326 107.096946,9.91423422 107.504806,10.3607054 C107.912666,10.8071765 108.231714,11.3127319 108.461957,11.8773866 C108.692201,12.4420413 108.807321,13.0132532 108.807321,13.5910394 C108.807321,14.024379 108.754694,14.4412981 108.64944,14.8418089 C108.544186,15.2423198 108.392885,15.6198449 108.195534,15.9743956 C107.998182,16.3289462 107.758074,16.6473804 107.475204,16.9297078 C107.192333,17.2120351 106.873286,17.4516815 106.518053,17.648654 L109.734869,22.8487039 L106.083882,22.8487039 L103.261767,18.3380546 L101.150115,18.3380546 L101.150115,22.8487039 L97.9135636,22.8487039 Z M101.150115,15.5213609 L104.110375,15.5213609 C104.491921,15.5213609 104.820836,15.3408054 105.097128,14.9796891 C105.37342,14.6185727 105.511565,14.1556941 105.511565,13.5910394 C105.511565,13.0132532 105.353686,12.5536574 105.037923,12.2122383 C104.72216,11.8708192 104.380089,11.7001122 104.011699,11.7001122 L101.150115,11.7001122 L101.150115,15.5213609 Z M110.524272,15.7380297 C110.524272,14.8976134 110.675572,14.0604925 110.978178,13.2266419 C111.280784,12.3927914 111.72153,11.6475897 112.300428,10.9910145 C112.879326,10.3344392 113.586492,9.80262126 114.421947,9.39554462 C115.257403,8.98846797 116.207966,8.7849327 117.273665,8.7849327 C118.523559,8.7849327 119.608976,9.06725582 120.529951,9.63191052 C121.450925,10.1965652 122.135067,10.9319185 122.582398,11.8379923 L120.095779,13.5713422 C119.951055,13.2036601 119.766863,12.8983572 119.543197,12.6554244 C119.319532,12.4124915 119.076136,12.2155219 118.813,12.0645096 C118.549864,11.9134973 118.276865,11.8084468 117.993995,11.7493551 C117.711124,11.6902633 117.444703,11.6607178 117.194724,11.6607178 C116.615826,11.6607178 116.115876,11.7854653 115.694859,12.0349639 C115.273842,12.2844624 114.925193,12.6061795 114.648901,13.0001246 C114.372608,13.3940698 114.165392,13.8405342 114.027246,14.3395314 C113.8891,14.8385286 113.820028,15.3440839 113.820028,15.8562126 C113.820028,16.4077358 113.902257,16.9395538 114.066716,17.4516825 C114.231176,17.9638111 114.461416,18.4168413 114.757444,18.8107864 C115.053471,19.2047315 115.411988,19.5166001 115.833005,19.7464014 C116.254022,19.9762028 116.72108,20.0911017 117.234195,20.0911017 C117.49733,20.0911017 117.770329,20.0549906 118.0532,19.9827673 C118.336071,19.910544 118.60907,19.7989279 118.872205,19.6479156 C119.135341,19.4969033 119.372159,19.2999337 119.582668,19.0570009 C119.793176,18.814068 119.964212,18.5153308 120.095779,18.1607802 L122.760013,19.7168557 C122.549505,20.2289844 122.243615,20.6885801 121.842333,21.0956568 C121.441051,21.5027334 120.98386,21.8441474 120.470746,22.119909 C119.957631,22.3956706 119.414922,22.6057715 118.842603,22.7502181 C118.270283,22.8946646 117.707839,22.9668868 117.155254,22.9668868 C116.181653,22.9668868 115.290295,22.7600687 114.481153,22.3464263 C113.672011,21.9327839 112.974712,21.3845519 112.389236,20.7017136 C111.803759,20.0188754 111.346568,19.2441282 111.017648,18.3774489 C110.688729,17.5107696 110.524272,16.630972 110.524272,15.7380297 L110.524272,15.7380297 Z M136.475885,8.86372134 L136.475885,22.8487039 L133.239334,22.8487039 L133.239334,17.1168308 L127.65431,17.1168308 L127.65431,22.8487039 L124.417759,22.8487039 L124.417759,8.86372134 L127.65431,8.86372134 L127.65431,14.2804399 L133.239334,14.2804399 L133.239334,8.86372134 L136.475885,8.86372134 Z" id="logo-docsearch-copy" fill="#FFFFFF"></path>
                    </g>
                    <g id="index" transform="translate(92.087445, 0.102128)">
                        <ellipse id="Oval-15" stroke="#46AEDA" stroke-width="3" filter="url(#filter-1)" cx="29.3877659" cy="29.1958316" rx="29.3877659" ry="29.1958316"></ellipse>
                        <path d="M29.3877659,54.2208302 C43.2995502,54.2208302 54.5772796,43.0167567 54.5772796,29.1958316 C54.5772796,15.3749066 43.2995502,4.17083309 29.3877659,4.17083309 C15.4759817,4.17083309 4.19825227,15.3749066 4.19825227,29.1958316 C4.19825227,43.0167567 15.4759817,54.2208302 29.3877659,54.2208302 Z M29.6033176,21.7906457 C36.8134138,21.7906457 42.6583516,20.3972126 42.6583516,18.6783258 C42.6583516,16.959439 36.8134138,15.5660059 29.6033176,15.5660059 C22.3932215,15.5660059 16.5482837,16.959439 16.5482837,18.6783258 C16.5482837,20.3972126 22.3932215,21.7906457 29.6033176,21.7906457 Z M42.6583516,25.7834056 C42.6583516,27.5022925 36.8134138,28.8957255 29.6033176,28.8957255 C22.3932215,28.8957255 16.5482837,27.5022925 16.5482837,25.7834056 L16.5482837,21.5667142 C16.5482837,21.5667142 22.3932215,23.6750599 29.6033176,23.6750599 C36.8134138,23.6750599 42.6583516,21.5667142 42.6583516,21.5667142 L42.6583516,25.7834056 Z M42.6583516,32.8884855 C42.6583516,34.6073723 36.8134138,36.0008054 29.6033176,36.0008054 C22.3932215,36.0008054 16.5482837,34.6073723 16.5482837,32.8884855 L16.5482837,28.671794 C16.5482837,28.671794 22.3932215,30.7801397 29.6033176,30.7801397 C36.8134138,30.7801397 42.6583516,28.671794 42.6583516,28.671794 L42.6583516,32.8884855 Z M42.6583516,39.9935653 C42.6583516,41.7124521 36.8134138,43.1058852 29.6033176,43.1058852 C22.3932215,43.1058852 16.5482837,41.7124521 16.5482837,39.9935653 L16.5482837,35.7768738 C16.5482837,35.7768738 22.3932215,37.8852196 29.6033176,37.8852196 C36.8134138,37.8852196 42.6583516,35.7768738 42.6583516,35.7768738 L42.6583516,39.9935653 Z" id="Path-8" fill="#FFFFFF"></path>
                    </g>
                    <path d="M150.697484,38.0846282 C150.697484,38.0846282 161.824381,36.3860024 165.166789,41.7391243 C168.509197,47.0922462 155.855177,51.7171923 160.510983,57.1302019 C165.166789,62.5432115 170.853312,53.1136583 176.189565,57.1302019 C181.525818,61.1467455 180.050299,67.7751977 180.050299,67.7751977" id="Line" stroke="#46AEDA" stroke-width="3" stroke-linecap="square"></path>
                </g>
            </g>
        </g>
    </g>
</svg>