<svg xmlns="http://www.w3.org/2000/svg" width="131" height="120">
    <path d="M103.969 29.437c2.112-10.752.931-18.913-4.063-22.156C98.242 6.2 96.246 5.727 94 5.812c-12.129.46-31.698 17.16-47.688 41.782-18.95 29.18-25.684 58.425-15.03 65.343 5.056 3.284 13.114.956 22.218-5.531" fill="none" stroke="#fff" stroke-width="5" stroke-linecap="round"/>
    <path d="M113.688 77.156c8.994-3.49 14.525-8.265 14.812-13.75.665-12.685-26.941-24.429-61.688-26.25-3.257-.17-6.46-.26-9.593-.25-30.287.102-53.929 8.41-54.532 19.906C2.401 62.286 7.388 67.595 15.938 72" fill="none" stroke="#fff" stroke-width="5" stroke-linecap="round"/>
    <path d="M57 10.531c-6.154-5.106-11.925-7.848-16.563-7.5-1.234.093-2.376.397-3.437.938-11.318 5.766-7.702 35.592 8.094 66.593 15.796 31.002 37.775 51.455 49.093 45.688 10.885-5.546 7.947-33.338-6.343-63.031" fill="none" stroke="#fff" stroke-width="5" stroke-linecap="round"/>
    <path d="M73.5 61a7.5 7.5 0 01-15 0 7.5 7.5 0 1115 0z" fill="#fff"/>
</svg>
