<svg width="90" height="90" viewBox="0 0 90 90" xmlns="http://www.w3.org/2000/svg" xmlns:xlink="http://www.w3.org/1999/xlink"><title>community/card/logo/codepen</title><defs><path d="M62.313 50.275c0 .066-.005.13-.014.195l-.012.064a1.32 1.32 0 0 1-.026.125c-.006.024-.015.048-.023.072-.012.036-.023.073-.038.109-.01.025-.022.048-.033.072a1.82 1.82 0 0 1-.05.1l-.043.067a1.33 1.33 0 0 1-.188.235c-.02.02-.039.04-.06.059a1.405 1.405 0 0 1-.084.07l-.067.052c-.009.005-.016.012-.025.018l-15.825 10.55a1.486 1.486 0 0 1-1.65 0L28.35 51.513l-.024-.018a1.398 1.398 0 0 1-.152-.122l-.06-.059a1.225 1.225 0 0 1-.188-.235 1.797 1.797 0 0 1-.042-.068 1.74 1.74 0 0 1-.05-.1c-.012-.023-.024-.046-.034-.071a1.503 1.503 0 0 1-.038-.11c-.008-.023-.017-.047-.023-.071a1.32 1.32 0 0 1-.026-.125c-.004-.021-.01-.043-.012-.064a1.466 1.466 0 0 1-.014-.195v-10.55c0-.065.005-.13.014-.194.003-.022.008-.043.012-.064a1.32 1.32 0 0 1 .026-.125c.006-.025.015-.048.023-.072a1.34 1.34 0 0 1 .227-.44l.051-.064c.024-.027.048-.054.074-.08l.06-.058a1.445 1.445 0 0 1 .152-.122c.008-.006.015-.013.024-.018l15.825-10.55c.5-.334 1.15-.334 1.65 0l15.825 10.55c.009.005.016.012.025.018l.067.05c.03.024.058.047.085.072a1.272 1.272 0 0 1 .247.293c.014.023.029.046.042.07a1 1 0 0 1 .05.098.946.946 0 0 1 .034.072c.015.036.026.072.038.109.008.024.017.047.023.072.011.04.019.083.026.125.004.021.01.042.012.064.009.064.014.129.014.194v10.55zM45 17c-15.464 0-28 12.536-28 28 0 15.465 12.536 28 28 28s28-12.535 28-28c0-15.464-12.536-28-28-28zm0 24.48L39.737 45 45 48.52 50.263 45 45 41.48zm1.488 9.625v6.94l11.658-7.772-5.207-3.482-6.451 4.314zm-14.634-.832l11.658 7.772v-6.94l-6.45-4.314-5.208 3.482zm26.292-10.546l-11.658-7.771v6.94l6.45 4.315 5.208-3.484zm-14.634-.831v-6.94l-11.658 7.771 5.208 3.484 6.45-4.315zm-12.85 3.614v4.98L34.387 45l-3.723-2.49zm28.675 4.98v-4.98L55.615 45l3.722 2.49z" id="a"/><mask id="b" x="-2" y="-2" width="60" height="60"><path fill="#fff" d="M15 15h60v60H15z"/><use xlink:href="#a"/></mask></defs><use mask="url(#b)" xlink:href="#a" stroke="#FFF" stroke-width="4" fill="none" fill-rule="evenodd"/></svg>