<svg xmlns="http://www.w3.org/2000/svg" viewBox="0 0 45 45">
    <path fill="#FFF" fill-rule="evenodd" d="M33.025 30.486l1.556 1.195a12.838 12.838 0 01-5.072 4.03c-2.044.923-4.302 1.383-6.775 1.383-4.315 0-7.848-1.362-10.598-4.087-2.75-2.726-4.126-6.17-4.126-10.333 0-2.574.636-4.952 1.91-7.136 1.274-2.182 3.04-3.89 5.3-5.128a14.93 14.93 0 017.285-1.855c2.6 0 4.933.493 7.002 1.476 2.07.985 3.76 2.4 5.072 4.24l-1.466 1.126c-1.136-1.434-2.823-2.764-4.452-3.54-1.774-.843-3.774-1.264-6.003-1.264-2.23 0-4.31.53-6.247 1.59-1.936 1.06-3.45 2.526-4.543 4.397-1.092 1.87-1.64 3.909-1.64 6.115 0 3.57 1.18 6.523 3.54 8.858 2.357 2.338 5.386 3.506 9.084 3.506 2.12 0 4.057-.396 5.808-1.186 1.57-.707 3.212-2.03 4.362-3.386v-.002zm4.38-5.076l-1.96.002-.52 2.433-1.206.004.536-2.44-2.336-.003-.495 2.436-1.22.002.51-2.437-1.1.002v-1.226l1.354.002.39-1.954h-1.745v-1.21h2l.526-2.45 1.222-.002-.543 2.45 2.288.003.53-2.45h1.223l-.543 2.45h1.09v1.21H36.09l-.405 1.952h1.72v1.226zm-2.536-3.175l-2.287-.005-.423 1.952 2.32.004.39-1.952z"/>
</svg>
