<svg width="90" height="90" xmlns="http://www.w3.org/2000/svg"><path d="M29.537 46.79c-.028 5.375 3.875 8.58 10.103 7.123V39.667c-6.307-1.94-10.077 1.985-10.103 7.123M39.83 19.068h8.578v41.005c-8.222 1.358-16.097 2.219-21.73-.962-7.254-4.096-7.837-17.112-2.097-22.91 2.91-2.938 8.769-5.007 15.059-3.657V19.645c-.017-.273-.032-.545.19-.577zm22.565 9.048h-8.577v-9.048h8.577v9.048zm.137 4.722c-.01 6.38-.008 10.964-.009 18.714-.364 7.616-.28 13.68-3.04 17.325-.545.719-1.702 1.767-2.67 2.503-.812.618-2.36 1.87-3.24 1.925-.886.055-3.163-1.243-4.193-1.733-1.353-.643-2.604-1.498-4.003-1.925 3.263-2.042 6.36-3.573 7.624-7.7 1.1-3.59.954-8.792.954-13.861 0-5.006.022-10.826.022-15.245l8.555-.002z" fill="/*#2EDE98*/#FFF" fill-rule="evenodd"/></svg>