<svg width="48" height="48" xmlns="http://www.w3.org/2000/svg"><g fill="none"><path d="M-8-8h64v64H-8z"/><path d="M21.92 6.4l1.993-1.457L25.91 6.4l-.76-2.357 2.027-1.453h-2.5L23.913.207 23.15 2.59h-2.497l2.024 1.453L21.92 6.4zM11.597 9.173l1.993-1.456 1.993 1.456-.756-2.356 2.026-1.454h-2.5l-.763-2.386-.763 2.386H10.33l2.023 1.454-.756 2.356zm-5.56 1.374l-.764 2.386H2.777l2.026 1.454-.76 2.356 1.994-1.456 1.996 1.456-.76-2.356 2.024-1.454H6.803l-.766-2.386zm-2.77 15.05l1.993 1.456-.757-2.356 2.024-1.454H4.03l-.763-2.386-.764 2.39-2.496-.004 2.023 1.454-.757 2.356 1.994-1.456zm3.536 7.986l-.766-2.386-.764 2.39-2.496-.004 2.026 1.457-.76 2.353 1.994-1.456 1.996 1.456-.76-2.353 2.024-1.457H6.803zm7.567 7.567l-.763-2.38-.764 2.383-2.5-.003 2.027 1.457-.757 2.353 1.994-1.453L15.6 44.96l-.757-2.353 2.024-1.457H14.37zm10.31 2.743l-.763-2.386-.764 2.39-2.496-.004 2.023 1.457-.757 2.353 1.994-1.456 1.993 1.456-.76-2.353 2.027-1.457H24.68zm10.31-2.743l-.763-2.38-.767 2.383-2.493-.003 2.023 1.457-.76 2.353 1.997-1.453 1.993 1.453-.76-2.353 2.027-1.457H34.99zm7.57-7.567l-.767-2.386-.763 2.39-2.497-.004 2.027 1.457-.76 2.353 1.993-1.456 1.997 1.456-.76-2.353 2.023-1.457H42.56zm5.237-10.37H45.3l-.767-2.386-.763 2.39-2.497-.004L43.3 24.67l-.757 2.353 1.99-1.46 1.997 1.46-.76-2.353 2.027-1.457zM39.8 16.71l1.993-1.453 1.997 1.453-.76-2.353 2.023-1.454H42.56l-.767-2.386-.763 2.39-2.497-.004 2.027 1.454-.76 2.353zM34.257 2.98l-.764 2.387-2.5-.004L33.02 6.82l-.76 2.353 1.997-1.456 1.993 1.456-.757-2.353 2.027-1.457h-2.5l-.763-2.383z" fill="#FFF"/></g></svg>