<svg width="90" height="90" viewBox="0 0 90 90" xmlns="http://www.w3.org/2000/svg" xmlns:xlink="http://www.w3.org/1999/xlink"><title>community/card/logo/grader</title><defs><path d="M50.186 54.728c-4.566 10.376-11.08 19.474-24.65 19.474-13.57 0-20.054-9.81-24.651-18.26L2.432 2.548 50.186.25v54.478z" id="a"/></defs><g fill="none" fill-rule="evenodd"><path fill="#FFF" d="M73.702 77.347l-6.295 6.209-10.67-10.524 6.295-6.21 10.67 10.525m2.309 7.837l-.673.664a4.013 4.013 0 0 1-5.62 0l-1.311-1.292 6.295-6.209 1.31 1.293a3.883 3.883 0 0 1 0 5.544"/><path d="M40.138 19.827c-8.255.091-16.001 3.304-21.848 9.072-5.931 5.85-9.198 13.63-9.198 21.905 0 8.274 3.267 16.054 9.198 21.905 5.932 5.851 13.819 9.073 22.208 9.073 8.388 0 16.275-3.222 22.207-9.073 5.932-5.851 9.199-13.63 9.199-21.905 0-6.15-1.805-12.027-5.168-17.042v12.63a26.15 26.15 0 0 1 .372 4.412c0 7.011-2.768 13.602-7.794 18.56-5.026 4.958-11.709 7.688-18.816 7.688-7.108 0-13.79-2.73-18.817-7.688-5.026-4.958-7.794-11.549-7.794-18.56 0-7.012 2.768-13.603 7.794-18.56a26.547 26.547 0 0 1 15.19-7.448 17.135 17.135 0 0 1 3.267-4.969z" fill="#FFF"/><g transform="translate(15 1)"><mask id="b" fill="#fff"><use xlink:href="#a"/></mask><path d="M17.81 34.855v-2.983c0-1.37 1.125-2.48 2.515-2.48h3.023c-3.059 0-5.539 2.445-5.539 5.463m-7.689 8.947v-3.014c0-1.37 1.127-2.48 2.516-2.48h5.173l-.035.03H15.66c-3.06 0-5.54 2.446-5.54 5.464M2.432 52.75V49.8c0-1.37 1.127-2.481 2.516-2.481h2.399c-2.765.306-4.915 2.62-4.915 5.43" fill="#FFF" mask="url(#b)"/><path d="M6.277 48.226c-1.594 0-2.89 1.28-2.89 2.852v25.92c0 .204.167.37.374.37h5.03a.373.373 0 0 0 .376-.37V48.596a.373.373 0 0 0-.375-.37H6.277zM8.792 79.25h-5.03c-1.26 0-2.283-1.01-2.283-2.251v-25.92c0-2.61 2.152-4.733 4.798-4.733h2.515c1.259 0 2.283 1.01 2.283 2.251v28.402c0 1.241-1.024 2.251-2.283 2.251z" fill="#FFF" mask="url(#b)"/><path d="M13.965 39.279c-1.594 0-2.89 1.279-2.89 2.851v34.868c0 .204.168.37.375.37h5.03a.373.373 0 0 0 .375-.37V39.649a.373.373 0 0 0-.375-.37h-2.515zm2.515 39.97h-5.03c-1.259 0-2.283-1.01-2.283-2.251V42.13c0-2.61 2.153-4.732 4.798-4.732h2.515c1.259 0 2.283 1.01 2.283 2.251v37.349c0 1.241-1.024 2.251-2.283 2.251z" fill="#FFF" mask="url(#b)"/><path d="M21.653 30.332c-1.593 0-2.89 1.279-2.89 2.851v43.815c0 .204.168.37.375.37h5.03a.373.373 0 0 0 .376-.37V30.702a.373.373 0 0 0-.375-.37h-2.516zm2.516 48.917h-5.03c-1.26 0-2.284-1.01-2.284-2.251V33.183c0-2.61 2.153-4.733 4.798-4.733h2.516c1.258 0 2.282 1.01 2.282 2.252v46.296c0 1.241-1.024 2.251-2.282 2.251z" fill="#FFF" mask="url(#b)"/><path d="M29.342 21.385c-1.594 0-2.89 1.279-2.89 2.851v52.762c0 .204.168.37.375.37h5.03a.373.373 0 0 0 .375-.37V21.755a.373.373 0 0 0-.375-.37h-2.515zm2.515 57.864h-5.03c-1.26 0-2.283-1.01-2.283-2.251V24.236c0-2.61 2.152-4.733 4.798-4.733h2.515c1.259 0 2.283 1.01 2.283 2.252v55.243c0 1.241-1.024 2.251-2.283 2.251z" fill="#FFF" mask="url(#b)"/><path d="M37.03 12.437c-1.593 0-2.89 1.28-2.89 2.852v61.709c0 .204.168.37.375.37h5.03a.373.373 0 0 0 .376-.37v-64.19a.373.373 0 0 0-.375-.37H37.03zm2.516 66.812h-5.031c-1.259 0-2.283-1.01-2.283-2.251v-61.71c0-2.609 2.153-4.732 4.799-4.732h2.515c1.258 0 2.282 1.01 2.282 2.251v64.19c0 1.242-1.024 2.252-2.282 2.252z" fill="#FFF" mask="url(#b)"/><path d="M44.719 3.49c-1.594 0-2.89 1.28-2.89 2.852v70.656c0 .204.167.37.374.37h5.031a.373.373 0 0 0 .375-.37V6.342c0-1.573-1.297-2.852-2.89-2.852zm2.515 75.76h-5.03c-1.26 0-2.283-1.01-2.283-2.252V6.342c0-2.61 2.152-4.733 4.798-4.733 2.645 0 4.797 2.123 4.797 4.733v70.656c0 1.241-1.023 2.251-2.282 2.251z" fill="#FFF" mask="url(#b)"/></g></g></svg>