<svg width="47" height="47" xmlns="http://www.w3.org/2000/svg"><path d="M37.721 27.833c0 .054-.004.107-.011.16l-.01.053c-.006.034-.012.069-.021.102-.005.02-.013.04-.019.06l-.031.09-.028.058a1.387 1.387 0 01-.041.082l-.035.056a1.009 1.009 0 01-.154.193c-.016.016-.032.033-.05.048a1.268 1.268 0 01-.124.1l-.02.015-12.999 8.666a1.22 1.22 0 01-1.356 0L9.823 28.85l-.02-.015a1.186 1.186 0 01-.174-.148l-.06-.066a1.072 1.072 0 01-.094-.127 1.225 1.225 0 01-.104-.197 1.285 1.285 0 01-.05-.149c-.009-.034-.015-.068-.021-.102-.003-.018-.008-.036-.01-.053a1.186 1.186 0 01-.011-.16v-8.666c0-.054.004-.107.01-.16l.01-.052c.007-.035.013-.07.022-.103a.968.968 0 01.019-.059 1.098 1.098 0 01.186-.36l.042-.054c.02-.022.04-.045.061-.066a1.047 1.047 0 01.174-.148l.02-.014 12.999-8.666c.41-.274.945-.274 1.356 0l12.998 8.666c.008.004.014.01.021.015.02.013.037.027.055.041a.992.992 0 01.07.059l.048.048a1.047 1.047 0 01.155.192l.034.057c.015.026.029.053.042.081l.027.06c.012.03.022.059.032.089.006.02.014.039.019.06.009.033.015.067.021.102l.01.053c.007.052.01.105.01.16v8.665zM23.5.5C10.798.5.5 10.797.5 23.5s10.298 23 23 23c12.703 0 23-10.297 23-23S36.203.5 23.5.5zm0 20.109L19.177 23.5l4.323 2.892 4.323-2.892-4.323-2.89zm1.222 7.906v5.7l9.576-6.383-4.277-2.861-5.299 3.544zm-12.02-.683l9.576 6.383v-5.7l-5.299-3.544-4.277 2.86zm21.596-8.663l-9.576-6.384v5.7l5.3 3.545 4.276-2.861zm-12.02-.683v-5.701l-9.576 6.384 4.277 2.861 5.299-3.544zm-10.555 2.969v4.09l3.058-2.045-3.058-2.045zm23.554 4.09v-4.09L32.219 23.5l3.058 2.045z" fill="#FFF" fill-rule="evenodd"/></svg>