<svg width="90" height="90" viewBox="0 0 90 90" xmlns="http://www.w3.org/2000/svg"><title>community/card/logo/ios</title><path d="M51.3 28.157c1.51-1.834 2.53-4.384 2.25-6.926-2.176.087-4.81 1.454-6.371 3.288-1.399 1.621-2.626 4.218-2.293 6.708 2.426.189 4.904-1.238 6.415-3.07zm5.226 16.495c-.05-5.49 4.47-8.124 4.675-8.253-2.543-3.731-6.502-4.242-7.914-4.303-3.367-.341-6.573 1.988-8.28 1.988-1.706 0-4.345-1.938-7.136-1.884-3.675.055-7.058 2.14-8.95 5.437-3.814 6.635-.973 16.468 2.74 21.853 1.818 2.632 3.982 5.598 6.829 5.489 2.742-.11 3.778-1.777 7.088-1.777s4.241 1.777 7.14 1.725c2.946-.058 4.816-2.69 6.621-5.33 2.083-3.057 2.944-6.015 2.993-6.17-.065-.028-5.746-2.212-5.806-8.775z" fill="#FFF" fill-rule="evenodd"/></svg>