<svg width="90" height="90" xmlns="http://www.w3.org/2000/svg"><path d="M72.768 51.796c-.619-3.861-3.137-7.103-10.593-10.127-2.59-1.19-5.478-2.044-6.339-4.006-.306-1.143-.346-1.786-.153-2.478.555-2.244 3.234-2.944 5.357-2.3 1.368.458 2.663 1.512 3.443 3.193 3.652-2.365 3.644-2.349 6.194-3.974-.933-1.448-1.432-2.115-2.043-2.735-2.196-2.453-5.188-3.716-9.975-3.62-.828.105-1.665.218-2.493.322-2.39.604-4.666 1.859-6 3.54-4.007 4.545-2.865 12.5 2.01 15.774 4.802 3.604 11.857 4.424 12.758 7.794.876 4.127-3.033 5.462-6.918 4.988-2.864-.596-4.456-2.052-6.178-4.698-3.17 1.834-3.17 1.834-6.427 3.708.772 1.69 1.585 2.454 2.88 3.918 6.13 6.218 21.469 5.912 24.22-3.5.113-.321.853-2.477.257-5.8zM41.075 26.248H33.16c0 6.838-.032 13.627-.032 20.464 0 4.352.225 8.342-.483 9.564-1.158 2.405-4.158 2.108-5.526 1.641-1.391-.683-2.1-1.657-2.92-3.032-.225-.394-.394-.7-.45-.724-2.148 1.31-4.287 2.63-6.435 3.941 1.07 2.196 2.646 4.103 4.665 5.341 3.017 1.81 7.07 2.365 11.31 1.392 2.76-.804 5.14-2.47 6.387-5.003 1.802-3.322 1.416-7.344 1.4-11.793.04-7.255 0-14.51 0-21.79z" fill="/*#FFC168*/#FFF" fill-rule="evenodd"/></svg>