<svg height="64" width="64" xmlns="http://www.w3.org/2000/svg"><radialGradient id="a" cx="52.528" cy="-49.92" gradientTransform="matrix(.61175 0 0 .6133 -.134 -1.384)" gradientUnits="userSpaceOnUse" r="104.617"><stop offset="0" stop-color="#ccc"/><stop offset="1" stop-color="#fff"/></radialGradient><path d="M46.346 22.21l-.023-.01c-.013-.005-.026-.01-.038-.022a.184.184 0 01-.047-.155l1.289-7.888 6.042 6.052-6.284 2.677a.13.13 0 01-.055.01h-.025a.188.188 0 01-.033-.028 2.86 2.86 0 00-.825-.636zm8.764-.481l6.46 6.47c1.342 1.345 2.014 2.016 2.259 2.794.037.115.067.23.09.349l-15.44-6.549a.39.39 0 00-.024-.01c-.062-.024-.133-.053-.133-.116 0-.064.073-.094.135-.119l.02-.008zm8.546 11.689c-.334.628-.984 1.278-2.084 2.382l-7.283 7.292-9.42-1.964-.05-.01c-.084-.014-.173-.028-.173-.104a2.849 2.849 0 00-1.091-1.99c-.039-.04-.029-.1-.017-.154 0-.009 0-.017.003-.024l1.772-10.893.007-.036c.01-.084.025-.18.1-.18a2.883 2.883 0 001.933-1.11c.015-.017.025-.036.045-.046.053-.025.117 0 .172.024l16.084 6.813zM52.613 44.77L40.636 56.764l2.05-12.619.004-.016a.26.26 0 01.01-.048c.016-.04.06-.057.101-.074l.02-.008a3.084 3.084 0 001.158-.863c.04-.047.089-.092.15-.1a.145.145 0 01.049 0l8.434 1.736zM38.101 59.303l-1.35 1.352-14.926-21.602-.016-.024c-.023-.031-.049-.063-.044-.1 0-.026.019-.05.037-.07l.017-.022c.045-.066.083-.133.125-.205l.033-.058.005-.005c.024-.04.045-.079.085-.1.035-.017.084-.01.122-.002l16.536 3.415c.046.007.09.026.126.055.022.022.027.045.032.072a2.931 2.931 0 001.713 1.96c.047.024.027.076.006.131a.393.393 0 00-.025.075c-.209 1.269-1.995 12.182-2.475 15.128zm-2.82 2.822c-.995.987-1.582 1.51-2.245 1.72a3.329 3.329 0 01-2.01 0c-.777-.247-1.449-.918-2.79-2.264l-14.99-15.01 3.916-6.08a.252.252 0 01.066-.08c.042-.03.102-.016.152 0a4.051 4.051 0 002.73-.138c.045-.016.09-.028.125.003a.3.3 0 01.047.054L35.28 62.127zm-23.48-17.001L8.364 41.68l6.79-2.9a.139.139 0 01.055-.013c.057 0 .09.057.12.109.069.105.14.208.217.307l.022.027c.02.028.006.057-.014.083l-3.75 5.83zm-4.96-4.968L2.491 35.8c-.74-.741-1.277-1.279-1.65-1.741l13.227 2.747.05.009c.082.013.172.028.172.105 0 .083-.098.122-.182.153l-.038.017zM.081 31.82c.015-.28.066-.558.15-.826.247-.778.917-1.45 2.26-2.794l5.567-5.575c2.563 3.725 5.133 7.445 7.71 11.161.045.06.095.127.044.177-.244.269-.487.563-.659.881a.267.267 0 01-.083.104c-.022.013-.045.008-.07.003h-.003L.08 31.817zm9.467-10.69l7.482-7.496c.705.31 3.267 1.392 5.555 2.36 1.734.735 3.314 1.403 3.81 1.62.05.02.096.04.117.09.014.03.007.068 0 .1a3.347 3.347 0 00.872 3.051c.05.05 0 .122-.043.184l-.024.035-7.6 11.789a.231.231 0 01-.072.083c-.04.025-.096.014-.143.002a3.785 3.785 0 00-.905-.124 4.9 4.9 0 00-.87.106h-.002c-.033.005-.063.011-.09-.009a.351.351 0 01-.075-.085L9.547 21.132zm8.997-9.01l9.69-9.704C29.578 1.073 30.25.401 31.026.155a3.329 3.329 0 012.01 0c.778.246 1.45.918 2.791 2.262l2.1 2.103-6.892 10.69a.257.257 0 01-.068.08c-.042.028-.1.016-.15 0a3.491 3.491 0 00-3.2.617c-.045.047-.112.02-.169-.005-.9-.392-7.9-3.355-8.902-3.78zM39.39 5.986l6.364 6.372-1.533 9.511v.025a.224.224 0 01-.014.064c-.016.033-.05.04-.083.05-.328.1-.637.253-.913.455a.289.289 0 00-.034.029c-.018.02-.036.038-.066.041a.187.187 0 01-.072-.011l-9.697-4.126-.019-.009c-.061-.025-.135-.055-.135-.118a3.672 3.672 0 00-.516-1.527c-.047-.077-.099-.157-.059-.236zM32.836 20.35l9.09 3.856c.05.023.105.045.127.097a.175.175 0 010 .095c-.027.133-.05.285-.05.439v.255c0 .064-.065.09-.125.115l-.018.007c-1.44.616-20.218 8.634-20.246 8.634-.029 0-.059 0-.087-.028-.05-.05 0-.12.045-.184l.023-.033 7.47-11.584.014-.02c.043-.07.093-.148.173-.148l.075.011c.17.024.32.045.472.045a3.374 3.374 0 002.817-1.497.269.269 0 01.056-.067c.045-.033.112-.016.164.007zm-10.41 15.331l20.467-8.741s.03 0 .058.028c.112.112.207.187.299.257l.045.029c.041.023.083.05.086.093 0 .017 0 .027-.003.042l-1.754 10.786-.006.043c-.012.084-.023.179-.102.179a2.881 2.881 0 00-2.288 1.414l-.008.013c-.024.039-.046.075-.084.095-.035.017-.08.01-.117.002L22.697 36.55c-.016-.003-.253-.866-.272-.868z" fill="url(#a)"/></svg>