<svg width="90" height="90" viewBox="0 0 90 90" xmlns="http://www.w3.org/2000/svg"><title>community/card/logo/node</title><path d="M45.04 78.96a5.05 5.05 0 0 1-2.522-.674L34.49 73.54c-1.198-.67-.613-.907-.219-1.045 1.6-.555 1.924-.682 3.631-1.65.178-.1.413-.062.597.046l6.166 3.659c.225.124.54.124.746 0l24.043-13.868a.756.756 0 0 0 .368-.65v-27.73a.775.775 0 0 0-.372-.662L45.415 17.783a.758.758 0 0 0-.742 0l-24.028 13.86a.772.772 0 0 0-.38.66V60.03c0 .265.147.516.378.642l6.587 3.803c3.574 1.785 5.763-.318 5.763-2.43V34.668a.69.69 0 0 1 .697-.692h3.05c.381 0 .696.305.696.692v27.378c0 4.766-2.597 7.5-7.119 7.5-1.39 0-2.484 0-5.538-1.505l-6.305-3.627a5.072 5.072 0 0 1-2.521-4.383V32.302c0-1.802.963-3.483 2.52-4.38L42.519 14.04c1.521-.86 3.543-.86 5.052 0l24.043 13.883a5.07 5.07 0 0 1 2.525 4.38v27.729a5.083 5.083 0 0 1-2.525 4.383L47.57 78.286a5.046 5.046 0 0 1-2.53.675zm6.138-19.984c-10.523 0-12.727-4.826-12.727-8.874 0-.385.311-.692.695-.692h3.11c.347 0 .636.249.69.588.47 3.163 1.87 4.759 8.232 4.759 5.064 0 7.22-1.146 7.22-3.831 0-1.548-.61-2.697-8.482-3.467-6.579-.651-10.647-2.103-10.647-7.363 0-4.848 4.089-7.74 10.944-7.74 7.703 0 11.514 2.673 11.997 8.404a.705.705 0 0 1-.182.535.713.713 0 0 1-.51.222h-3.121a.693.693 0 0 1-.675-.543c-.748-3.328-2.57-4.392-7.51-4.392-5.53 0-6.171 1.926-6.171 3.368 0 1.748.758 2.257 8.225 3.244 7.388.976 10.898 2.359 10.898 7.548 0 5.236-4.369 8.234-11.986 8.234z" fill="#2EDE98" fill-rule="evenodd"/></svg>