<svg width="90" height="90" xmlns="http://www.w3.org/2000/svg"><path d="M17.104 59.181l4.135-20.975H30.8c4.134.259 6.202 2.33 6.202 5.956 0 6.215-4.91 9.84-9.303 9.581h-4.651l-1.034 5.438h-4.91zm19.238-5.14l4.135-20.976h4.91l-1.034 5.438h4.652c4.134.259 5.685 2.33 5.168 4.92l-1.81 10.617h-5.167l1.809-9.581c.258-1.295.258-2.072-1.55-2.072h-3.877L41.252 54.04h-4.91zm16.674 5.14l4.134-20.975h9.561c4.135.259 6.202 2.33 6.202 5.956 0 6.215-4.91 9.84-9.303 9.581h-4.65l-1.034 5.438h-4.91zM24.08 49.86l1.292-7.769h3.36c1.809 0 3.1.777 3.1 2.33-.258 4.403-2.325 5.18-4.65 5.439H24.08zm35.912 0l1.292-7.769h3.359c1.809 0 3.1.777 3.1 2.33-.258 4.403-2.325 5.18-4.65 5.439h-3.101z" fill="#01ADFF" fill-rule="evenodd"/></svg>