<svg width="90" height="90" xmlns="http://www.w3.org/2000/svg"><g fill="none" fill-rule="evenodd"><path d="M43.717 68.062a149.947 149.947 0 0 1-6.434-9.968c-2.43-4.126-4.485-8.128-6.047-11.9-2.125-5.126-3.26-9.642-3.237-13.36.06-9.694 8.025-17.817 17.862-17.817 9.641 0 18.22 8.496 18.22 17.225 0 3.727-1.108 8.196-3.168 13.24-1.607 3.936-3.749 8.117-6.295 12.424a149.754 149.754 0 0 1-8.715 13.081c-.227.304-1.419-1.831-2.186-2.925zm2.25-28.323c-3.783 0-6.85-3.057-6.85-6.828 0-3.771 3.067-6.83 6.85-6.83 3.783 0 6.849 3.059 6.849 6.83 0 3.77-3.066 6.828-6.85 6.828z" fill="#FFF"/><path d="M50.028 72.81a167.194 167.194 0 0 0 7.321-11.286c2.856-4.832 5.264-9.53 7.08-13.976 2.365-5.796 3.65-10.978 3.65-15.407C68.079 21.325 57.655 11 45.843 11 33.803 11 24.073 20.922 24 32.78c-.027 4.432 1.29 9.67 3.732 15.564 1.765 4.258 4.075 8.757 6.8 13.384a167.406 167.406 0 0 0 7.184 11.132c.858 1.222 4.123 5.58 4.123 5.58s3.316-4.393 4.19-5.63zm-6.549-1.187a165.278 165.278 0 0 1-7.091-10.988c-2.678-4.547-4.944-8.959-6.666-13.115-2.342-5.652-3.593-10.63-3.568-14.727.066-10.686 8.846-19.64 19.689-19.64 10.627 0 20.082 9.366 20.082 18.988 0 4.107-1.221 9.033-3.49 14.593-1.772 4.338-4.133 8.947-6.94 13.694a165.066 165.066 0 0 1-9.606 14.42c-.25.334-1.564-2.02-2.41-3.225zm2.488-30.448c4.575 0 8.284-3.7 8.284-8.264 0-4.565-3.71-8.265-8.284-8.265-4.575 0-8.285 3.7-8.285 8.265 0 4.564 3.71 8.264 8.285 8.264zm0-1.436c-3.783 0-6.85-3.057-6.85-6.828 0-3.771 3.067-6.83 6.85-6.83 3.783 0 6.849 3.059 6.849 6.83 0 3.77-3.066 6.828-6.85 6.828z" fill="#FCFCFD"/></g></svg>