<?xml version="1.0" encoding="UTF-8"?>
<svg width="165px" height="165px" viewBox="0 0 165 165" version="1.1" xmlns="http://www.w3.org/2000/svg" xmlns:xlink="http://www.w3.org/1999/xlink">
    <!-- Generator: Sketch 52.5 (67469) - http://www.bohemiancoding.com/sketch -->
    <title>Untitled 5</title>
    <desc>Created with Sketch.</desc>
    <g id="Page-1" stroke="none" stroke-width="1" fill="none" fill-rule="evenodd">
        <g id="Embleme-Instant-Search-Algolia-Community-version-(1)" fill="#FFFFFF">
            <path d="M57.14,51.86 C62.1721075,52.6747831 67.1525894,50.1376963 69.4520785,45.5881549 C71.7515676,41.0386134 70.8407487,35.5238679 67.2004742,31.9553416 C63.5601998,28.3868153 58.0284181,27.5859409 53.5255463,29.9755273 C49.0226745,32.3651138 46.5852206,37.3951066 47.5,42.41 C48.3944355,47.2801248 52.2530373,51.0626753 57.14,51.86 Z" id="Path"></path>
            <path d="M35,70.1 L130.2,70.1 C132.670898,70.102654 135.041502,69.1229536 136.78963,67.3767022 C138.537757,65.6304508 139.520001,63.2608991 139.52,60.79 L139.52,28.41 C139.520001,25.9391009 138.537757,23.5695492 136.78963,21.8232978 C135.041502,20.0770464 132.670898,19.097346 130.2,19.1 L35,19.1 C32.5291023,19.097346 30.1584976,20.0770464 28.4103705,21.8232978 C26.6622434,23.5695492 25.6799986,25.9391009 25.68,28.41 L25.68,60.79 C25.6799986,63.2608991 26.6622434,65.6304508 28.4103705,67.3767022 C30.1584976,69.1229536 32.5291023,70.102654 35,70.1 Z M85.86,26 L85.86,62.75 L83,62.75 L83,26 L85.86,26 Z M37,60.54 L48.1,49.44 C43.8392516,44.2934132 43.7199257,36.8794918 47.8128429,31.5984539 C51.9057602,26.3174161 59.1150117,24.5832989 65.1618524,27.425314 C71.2086931,30.2673292 74.4740365,36.9245059 73.0198766,43.4457598 C71.5657168,49.9670136 65.7814159,54.6062304 59.1,54.61 C55.7601106,54.6233938 52.5254665,53.4423231 49.98,51.28 L38.79,62.37 C38.5498628,62.6195953 38.2162791,62.7573798 37.87,62.75 C37.5239501,62.7561623 37.1908341,62.6185709 36.95,62.37 C36.712836,62.1212544 36.5847382,61.7881529 36.5941251,61.4445936 C36.603512,61.1010342 36.7496073,60.7754243 37,60.54 Z" id="Shape" fill-rule="nonzero"></path>
            <path d="M0,0 L0,165 L56,165 L27.71,136.41 C27.2389132,136.261371 26.9189671,135.823976 26.92,135.33 L26.92,127.54 C26.92,126.904873 27.4348725,126.39 28.07,126.39 L37.61,126.39 L27.71,116.39 C27.2389132,116.241371 26.9189671,115.803976 26.92,115.31 L26.92,107.52 C26.9173054,107.214183 27.0376003,106.920108 27.253854,106.703854 C27.4701077,106.4876 27.7641829,106.367305 28.07,106.37 L37.61,106.37 L27.71,96.37 C27.2389132,96.2213708 26.9189671,95.783976 26.92,95.29 L26.92,87.52 C26.9173327,87.2132721 27.0373145,86.9181895 27.2532711,86.700355 C27.4692278,86.4825205 27.7632605,86.3599884 28.07,86.36 L43.79,86.36 L27.27,69.7 C24.6794627,67.464294 23.1901419,64.2118803 23.19,60.79 L23.19,28.41 C23.1955139,21.8898024 28.4798024,16.6055139 35,16.6 L130.2,16.6 C133.496242,16.598807 136.641673,17.9810553 138.87,20.41 L165,49.94 L165,0 L0,0 Z" id="Path" opacity="0.31"></path>
            <path d="M138.26,96.46 C138.564999,96.46 138.857506,96.3388396 139.073173,96.1231728 C139.28884,95.907506 139.41,95.614999 139.41,95.31 L139.41,87.52 C139.412667,87.2132721 139.292685,86.9181895 139.076729,86.700355 C138.860772,86.4825205 138.56674,86.3599884 138.26,86.36 L28.07,86.36 C27.7632605,86.3599884 27.4692278,86.4825205 27.2532711,86.700355 C27.0373145,86.9181895 26.9173327,87.2132721 26.92,87.52 L26.92,95.31 C26.9189671,95.803976 27.2389132,96.2413708 27.71,96.39 C27.8252374,96.433314 27.9469284,96.4569761 28.07,96.46 L138.26,96.46 Z" id="Path"></path>
            <path d="M138.26,116.47 C138.565817,116.472695 138.859892,116.3524 139.076146,116.136146 C139.2924,115.919892 139.412695,115.625817 139.41,115.32 L139.41,107.53 C139.412695,107.224183 139.2924,106.930108 139.076146,106.713854 C138.859892,106.4976 138.565817,106.377305 138.26,106.38 L28.07,106.38 C27.7641829,106.377305 27.4701077,106.4976 27.253854,106.713854 C27.0376003,106.930108 26.9173054,107.224183 26.92,107.53 L26.92,115.32 C26.9189671,115.813976 27.2389132,116.251371 27.71,116.4 C27.8252374,116.443314 27.9469284,116.466976 28.07,116.47 L138.26,116.47 Z" id="Path"></path>
            <path d="M138.26,136.49 C138.56674,136.490012 138.860772,136.367479 139.076729,136.149645 C139.292685,135.93181 139.412667,135.636728 139.41,135.33 L139.41,127.54 C139.41,127.235001 139.28884,126.942494 139.073173,126.726827 C138.857506,126.51116 138.564999,126.39 138.26,126.39 L28.07,126.39 C27.765001,126.39 27.472494,126.51116 27.2568272,126.726827 C27.0411604,126.942494 26.92,127.235001 26.92,127.54 L26.92,135.33 C26.9189671,135.823976 27.2389132,136.261371 27.71,136.41 C27.8246997,136.456554 27.9463787,136.483593 28.07,136.49 L138.26,136.49 Z" id="Path"></path>
        </g>
    </g>
</svg>