<?xml version="1.0" encoding="UTF-8"?><!DOCTYPE svg PUBLIC "-//W3C//DTD SVG 1.1//EN" "http://www.w3.org/Graphics/SVG/1.1/DTD/svg11.dtd"><svg xmlns="http://www.w3.org/2000/svg" xmlns:xlink="http://www.w3.org/1999/xlink"><defs>
        <path d="M.59 29.25C.59 13.584 13.243.89 28.856.89s28.263 12.694 28.263 28.36c0 15.665-12.651 28.36-28.263 28.36S.59 44.915.59 29.25z" id="a"/>
        <mask id="b" x="-2" y="-2" width="60.528" height="60.719">
            <path fill="#fff" d="M-1.41-1.11h60.528v60.72H-1.409z"/>
            <use xlink:href="#a"/>
        </mask>
        <linearGradient x1="50%" y1="78.291%" x2="50%" y2="-21.872%" id="c">
            <stop stop-color="#FFF" stop-opacity="0" offset="0%"/>
            <stop stop-color="#FFF" offset="100%"/>
        </linearGradient>
    
        <path d="M62.313 50.275c0 .066-.005.13-.014.195l-.012.064a1.32 1.32 0 0 1-.026.125c-.006.024-.015.048-.023.072-.012.036-.023.073-.038.109-.01.025-.022.048-.033.072a1.82 1.82 0 0 1-.05.1l-.043.067a1.33 1.33 0 0 1-.188.235c-.02.02-.039.04-.06.059a1.405 1.405 0 0 1-.084.07l-.067.052c-.009.005-.016.012-.025.018l-15.825 10.55a1.486 1.486 0 0 1-1.65 0L28.35 51.513l-.024-.018a1.398 1.398 0 0 1-.152-.122l-.06-.059a1.225 1.225 0 0 1-.188-.235 1.797 1.797 0 0 1-.042-.068 1.74 1.74 0 0 1-.05-.1c-.012-.023-.024-.046-.034-.071a1.503 1.503 0 0 1-.038-.11c-.008-.023-.017-.047-.023-.071a1.32 1.32 0 0 1-.026-.125c-.004-.021-.01-.043-.012-.064a1.466 1.466 0 0 1-.014-.195v-10.55c0-.065.005-.13.014-.194.003-.022.008-.043.012-.064a1.32 1.32 0 0 1 .026-.125c.006-.025.015-.048.023-.072a1.34 1.34 0 0 1 .227-.44l.051-.064c.024-.027.048-.054.074-.08l.06-.058a1.445 1.445 0 0 1 .152-.122c.008-.006.015-.013.024-.018l15.825-10.55c.5-.334 1.15-.334 1.65 0l15.825 10.55c.009.005.016.012.025.018l.067.05c.03.024.058.047.085.072a1.272 1.272 0 0 1 .247.293c.014.023.029.046.042.07a1 1 0 0 1 .05.098.946.946 0 0 1 .034.072c.015.036.026.072.038.109.008.024.017.047.023.072.011.04.019.083.026.125.004.021.01.042.012.064.009.064.014.129.014.194v10.55zM45 17c-15.464 0-28 12.536-28 28 0 15.465 12.536 28 28 28s28-12.535 28-28c0-15.464-12.536-28-28-28zm0 24.48L39.737 45 45 48.52 50.263 45 45 41.48zm1.488 9.625v6.94l11.658-7.772-5.207-3.482-6.451 4.314zm-14.634-.832l11.658 7.772v-6.94l-6.45-4.314-5.208 3.482zm26.292-10.546l-11.658-7.771v6.94l6.45 4.315 5.208-3.484zm-14.634-.831v-6.94l-11.658 7.771 5.208 3.484 6.45-4.315zm-12.85 3.614v4.98L34.387 45l-3.723-2.49zm28.675 4.98v-4.98L55.615 45l3.722 2.49z" id="a"/>
        <mask id="b" x="-2" y="-2" width="60" height="60">
            <path fill="#fff" d="M15 15h60v60H15z"/>
            <use xlink:href="#a"/>
        </mask>
    
        <path d="M50.186 54.728c-4.566 10.376-11.08 19.474-24.65 19.474-13.57 0-20.054-9.81-24.651-18.26L2.432 2.548 50.186.25v54.478z" id="a"/>
    
        <style>
            .fil2{fill-rule:nonzero;fill:#fff}
        </style>
    </defs><symbol id="android">
    <path d="M25.242 35.442a3.326 3.326 0 0 0-3.316 3.333l.002 13.956a3.327 3.327 0 0 0 3.316 3.336 3.324 3.324 0 0 0 3.316-3.335V38.773a3.326 3.326 0 0 0-3.318-3.331zm26.74-12.533l2.315-4.248a.459.459 0 1 0-.805-.445l-2.34 4.29a15.879 15.879 0 0 0-6.496-1.368 15.852 15.852 0 0 0-6.483 1.364l-2.34-4.281a.455.455 0 0 0-.622-.184.458.458 0 0 0-.183.626l2.315 4.244c-4.55 2.359-7.623 6.85-7.62 12.005l29.87-.003c0-5.155-3.068-9.636-7.61-12zm-14.12 6.564a1.256 1.256 0 0 1-1.248-1.258c0-.691.56-1.26 1.25-1.26a1.26 1.26 0 0 1-.002 2.518zm13.6-.002c-.69 0-1.253-.561-1.251-1.259 0-.69.56-1.258 1.253-1.26.686.001 1.25.57 1.25 1.261 0 .695-.56 1.258-1.251 1.258zM29.85 57.699a3.542 3.542 0 0 0 3.538 3.558h2.409l.003 7.385c0 1.838 1.485 3.333 3.313 3.333a3.325 3.325 0 0 0 3.315-3.335v-7.384h4.477v7.384c.002 1.839 1.49 3.335 3.317 3.332a3.327 3.327 0 0 0 3.317-3.335l-.002-7.382 2.418-.001c1.951 0 3.538-1.593 3.538-3.558l-.003-21.63-29.645.005.005 21.628zm34.235-22.261c-1.83-.002-3.315 1.493-3.314 3.333v13.957a3.323 3.323 0 0 0 3.318 3.333c1.83 0 3.313-1.49 3.314-3.334L67.4 38.77a3.323 3.323 0 0 0-3.315-3.333z" fill="#FFF" fill-rule="evenodd"/>
</symbol><symbol id="arrow-right">
    <path d="M7.046 8.347l3.643-3.25L12 6.64 5.99 12 0 6.64l1.313-1.542L5 8.518V0h2.046v8.347z" fill="currentColor" fill-rule="evenodd"/>
</symbol><symbol id="atom">
    <path d="M103.969 29.437c2.112-10.752.931-18.913-4.063-22.156C98.242 6.2 96.246 5.727 94 5.812c-12.129.46-31.698 17.16-47.688 41.782-18.95 29.18-25.684 58.425-15.03 65.343 5.056 3.284 13.114.956 22.218-5.531" fill="none" stroke="#fff" stroke-width="5" stroke-linecap="round"/>
    <path d="M113.688 77.156c8.994-3.49 14.525-8.265 14.812-13.75.665-12.685-26.941-24.429-61.688-26.25-3.257-.17-6.46-.26-9.593-.25-30.287.102-53.929 8.41-54.532 19.906C2.401 62.286 7.388 67.595 15.938 72" fill="none" stroke="#fff" stroke-width="5" stroke-linecap="round"/>
    <path d="M57 10.531c-6.154-5.106-11.925-7.848-16.563-7.5-1.234.093-2.376.397-3.437.938-11.318 5.766-7.702 35.592 8.094 66.593 15.796 31.002 37.775 51.455 49.093 45.688 10.885-5.546 7.947-33.338-6.343-63.031" fill="none" stroke="#fff" stroke-width="5" stroke-linecap="round"/>
    <path d="M73.5 61a7.5 7.5 0 0 1-15 0 7.5 7.5 0 1 1 15 0z" fill="#fff"/>
</symbol><symbol id="autocomplete" viewBox="0 0 62 62">
    
    <g transform="translate(2 1.162)" fill="none" fill-rule="evenodd">
        <use fill-opacity=".246" fill="#FFF" xlink:href="#a"/>
        <use stroke="#FFF" mask="url(#b)" stroke-width="4" xlink:href="#a"/>
        <path d="M13.066 55.835A26.515 26.515 0 0 1 9.312 42.19c0-14.673 11.86-26.574 26.484-26.574 7.606 0 14.463 3.219 19.294 8.372a39.102 39.102 0 0 0-3.84-.188c-19.077 0-34.943 13.827-38.184 32.035z" fill="url(#c)" opacity=".629" transform="rotate(-180 32.201 35.726)"/>
        <ellipse fill="#FFF" opacity=".165" cx="18.613" cy="17.195" rx="8.309" ry="8.296"/>
        <ellipse fill="#FFF" opacity=".497" cx="29" cy="28.948" rx="2.077" ry="2.074"/>
        <ellipse fill="#FFF" opacity=".497" cx="20.691" cy="41.393" rx="2.077" ry="2.074"/>
        <ellipse fill="#FFF" opacity=".497" cx="49.081" cy="35.171" rx="1.385" ry="1.383"/>
        <ellipse fill="#FFF" opacity=".853" cx="44.234" cy="46.924" rx="2.077" ry="2.074"/>
        <ellipse fill="#FFF" cx="20.691" cy="17.887" rx="3.462" ry="3.457"/>
        <ellipse fill="#FFF" opacity=".152" cx="29" cy="31.714" rx="3.462" ry="3.457"/>
    </g>
</symbol><symbol id="cli">
    <path d="M64.235 26.67h-36.95c-.806 0-4.826.494-4.826 5.783v26.426c0 5.289 4.386 5.273 5.184 5.273h35.509c.798 0 5.307.016 5.307-5.967V32.907c0-5.743-3.424-6.236-4.224-6.236zM41.02 45.653l-12.351 7.17c-.638.38-1.392.017-1.685-.788a2.11 2.11 0 0 1-.11-.667c0-.612.271-1.195.74-1.463l9.875-5.734-9.868-5.808c-.637-.37-.915-1.334-.615-2.14.212-.582.674-.926 1.15-.926.176 0 .359.047.535.148l12.322 7.288c.263.15.461.74.586.74h.007c.015 0 .03.048.037.086.293.795.015 1.723-.623 2.094zm20.11 12.485a.68.68 0 0 1-.132.176.139.139 0 0 1-.044.056c-.015.018-.03.027-.045.047-.051.055-.11.11-.175.157a1.417 1.417 0 0 1-.836.277l-16 .047c-.827 0-1.494-.723-1.5-1.612 0-.445.167-.843.439-1.14.27-.287.637-.463 1.055-.472l16-.046c.82 0 1.494.722 1.494 1.611 0 .334-.095.64-.256.9z" fill="/*#2EDE98*/#FFF" fill-rule="evenodd"/>
</symbol><symbol id="codepen">
    
    <use mask="url(#b)" xlink:href="#a" stroke="#FFF" stroke-width="4" fill="none" fill-rule="evenodd"/>
</symbol><symbol id="csharp" viewBox="0 0 45 45">
    <path fill="#FFF" fill-rule="evenodd" d="M33.025 30.486l1.556 1.195a12.838 12.838 0 0 1-5.072 4.03c-2.044.923-4.302 1.383-6.775 1.383-4.315 0-7.848-1.362-10.598-4.087-2.75-2.726-4.126-6.17-4.126-10.333 0-2.574.636-4.952 1.91-7.136 1.274-2.182 3.04-3.89 5.3-5.128a14.93 14.93 0 0 1 7.285-1.855c2.6 0 4.933.493 7.002 1.476 2.07.985 3.76 2.4 5.072 4.24l-1.466 1.126c-1.136-1.434-2.823-2.764-4.452-3.54-1.774-.843-3.774-1.264-6.003-1.264-2.23 0-4.31.53-6.247 1.59-1.936 1.06-3.45 2.526-4.543 4.397-1.092 1.87-1.64 3.909-1.64 6.115 0 3.57 1.18 6.523 3.54 8.858 2.357 2.338 5.386 3.506 9.084 3.506 2.12 0 4.057-.396 5.808-1.186 1.57-.707 3.212-2.03 4.362-3.386v-.002zm4.38-5.076l-1.96.002-.52 2.433-1.206.004.536-2.44-2.336-.003-.495 2.436-1.22.002.51-2.437-1.1.002v-1.226l1.354.002.39-1.954h-1.745v-1.21h2l.526-2.45 1.222-.002-.543 2.45 2.288.003.53-2.45h1.223l-.543 2.45h1.09v1.21H36.09l-.405 1.952h1.72v1.226zm-2.536-3.175l-2.287-.005-.423 1.952 2.32.004.39-1.952z"/>
</symbol><symbol id="django">
    <path d="M29.537 46.79c-.028 5.375 3.875 8.58 10.103 7.123V39.667c-6.307-1.94-10.077 1.985-10.103 7.123M39.83 19.068h8.578v41.005c-8.222 1.358-16.097 2.219-21.73-.962-7.254-4.096-7.837-17.112-2.097-22.91 2.91-2.938 8.769-5.007 15.059-3.657V19.645c-.017-.273-.032-.545.19-.577zm22.565 9.048h-8.577v-9.048h8.577v9.048zm.137 4.722c-.01 6.38-.008 10.964-.009 18.714-.364 7.616-.28 13.68-3.04 17.325-.545.719-1.702 1.767-2.67 2.503-.812.618-2.36 1.87-3.24 1.925-.886.055-3.163-1.243-4.193-1.733-1.353-.643-2.604-1.498-4.003-1.925 3.263-2.042 6.36-3.573 7.624-7.7 1.1-3.59.954-8.792.954-13.861 0-5.006.022-10.826.022-15.245l8.555-.002z" fill="/*#2EDE98*/#FFF" fill-rule="evenodd"/>
</symbol><symbol id="docsearch">
    <g fill="#FFF" fill-rule="evenodd">
        <path d="M15.144 27.813h41.331c9.537 0 17.262 7.695 17.262 17.187 0 9.489-7.736 17.188-17.28 17.188H15.724a2.061 2.061 0 1 0 0 4.125h40.731c11.815 0 21.402-9.54 21.402-21.313 0-11.774-9.575-21.313-21.383-21.313h-41.33c-1.138 0-2.06.924-2.06 2.063a2.06 2.06 0 0 0 2.06 2.063z"/>
        <path d="M28.529 56.688h29.288c1.138 0 2.06-.924 2.06-2.063a2.06 2.06 0 0 0-2.06-2.063H28.529c-1.138 0-2.06.924-2.06 2.063a2.06 2.06 0 0 0 2.06 2.063zm-.301-9.625h36.765c1.138 0 2.06-.924 2.06-2.063a2.06 2.06 0 0 0-2.06-2.063H28.228c-1.138 0-2.06.924-2.06 2.063a2.06 2.06 0 0 0 2.06 2.063zm.301-9.625h29.288c1.138 0 2.06-.924 2.06-2.063a2.06 2.06 0 0 0-2.06-2.063H28.529c-1.138 0-2.06.924-2.06 2.063a2.06 2.06 0 0 0 2.06 2.063z"/>
        <ellipse cx="20.104" cy="45" rx="2.063" ry="2.063"/>
        <ellipse cx="20.104" cy="54.625" rx="2.063" ry="2.063"/>
        <ellipse cx="20.104" cy="35.375" rx="2.063" ry="2.063"/>
    </g>
</symbol><symbol id="gdpr-algolia">
    <g fill="none">
        <path d="M-8-8h64v64H-8z"/>
        <path d="M21.92 6.4l1.993-1.457L25.91 6.4l-.76-2.357 2.027-1.453h-2.5L23.913.207 23.15 2.59h-2.497l2.024 1.453L21.92 6.4zM11.597 9.173l1.993-1.456 1.993 1.456-.756-2.356 2.026-1.454h-2.5l-.763-2.386-.763 2.386H10.33l2.023 1.454-.756 2.356zm-5.56 1.374l-.764 2.386H2.777l2.026 1.454-.76 2.356 1.994-1.456 1.996 1.456-.76-2.356 2.024-1.454H6.803l-.766-2.386zm-2.77 15.05l1.993 1.456-.757-2.356 2.024-1.454H4.03l-.763-2.386-.764 2.39-2.496-.004 2.023 1.454-.757 2.356 1.994-1.456zm3.536 7.986l-.766-2.386-.764 2.39-2.496-.004 2.026 1.457-.76 2.353 1.994-1.456 1.996 1.456-.76-2.353 2.024-1.457H6.803zm7.567 7.567l-.763-2.38-.764 2.383-2.5-.003 2.027 1.457-.757 2.353 1.994-1.453L15.6 44.96l-.757-2.353 2.024-1.457H14.37zm10.31 2.743l-.763-2.386-.764 2.39-2.496-.004 2.023 1.457-.757 2.353 1.994-1.456 1.993 1.456-.76-2.353 2.027-1.457H24.68zm10.31-2.743l-.763-2.38-.767 2.383-2.493-.003 2.023 1.457-.76 2.353 1.997-1.453 1.993 1.453-.76-2.353 2.027-1.457H34.99zm7.57-7.567l-.767-2.386-.763 2.39-2.497-.004 2.027 1.457-.76 2.353 1.993-1.456 1.997 1.456-.76-2.353 2.023-1.457H42.56zm5.237-10.37H45.3l-.767-2.386-.763 2.39-2.497-.004L43.3 24.67l-.757 2.353 1.99-1.46 1.997 1.46-.76-2.353 2.027-1.457zM39.8 16.71l1.993-1.453 1.997 1.453-.76-2.353 2.023-1.454H42.56l-.767-2.386-.763 2.39-2.497-.004 2.027 1.454-.76 2.353zM34.257 2.98l-.764 2.387-2.5-.004L33.02 6.82l-.76 2.353 1.997-1.456 1.993 1.456-.757-2.353 2.027-1.457h-2.5l-.763-2.383z" fill="#FFF"/>
    </g>
</symbol><symbol id="go" viewBox="0 0 254.5 225">
    <style>
        .st5{fill:#fff}
    </style>
    <path class="st5" d="M40.2 101.1c-.4 0-.5-.2-.3-.5l2.1-2.7c.2-.3.7-.5 1.1-.5h35.7c.4 0 .5.3.3.6l-1.7 2.6c-.2.3-.7.6-1 .6l-36.2-.1zm-15.1 9.2c-.4 0-.5-.2-.3-.5l2.1-2.7c.2-.3.7-.5 1.1-.5h45.6c.4 0 .6.3.5.6l-.8 2.4c-.1.4-.5.6-.9.6l-47.3.1zm24.2 9.2c-.4 0-.5-.3-.3-.6l1.4-2.5c.2-.3.6-.6 1-.6h20c.4 0 .6.3.6.7l-.2 2.4c0 .4-.4.7-.7.7l-21.8-.1zm103.8-20.2c-6.3 1.6-10.6 2.8-16.8 4.4-1.5.4-1.6.5-2.9-1-1.5-1.7-2.6-2.8-4.7-3.8-6.3-3.1-12.4-2.2-18.1 1.5-6.8 4.4-10.3 10.9-10.2 19 .1 8 5.6 14.6 13.5 15.7 6.8.9 12.5-1.5 17-6.6.9-1.1 1.7-2.3 2.7-3.7h-19.3c-2.1 0-2.6-1.3-1.9-3 1.3-3.1 3.7-8.3 5.1-10.9.3-.6 1-1.6 2.5-1.6h36.4c-.2 2.7-.2 5.4-.6 8.1-1.1 7.2-3.8 13.8-8.2 19.6-7.2 9.5-16.6 15.4-28.5 17-9.8 1.3-18.9-.6-26.9-6.6-7.4-5.6-11.6-13-12.7-22.2-1.3-10.9 1.9-20.7 8.5-29.3 7.1-9.3 16.5-15.2 28-17.3 9.4-1.7 18.4-.6 26.5 4.9 5.3 3.5 9.1 8.3 11.6 14.1.6.9.2 1.4-1 1.7z"/>
    <path class="st5" d="M186.2 154.6c-9.1-.2-17.4-2.8-24.4-8.8-5.9-5.1-9.6-11.6-10.8-19.3-1.8-11.3 1.3-21.3 8.1-30.2 7.3-9.6 16.1-14.6 28-16.7 10.2-1.8 19.8-.8 28.5 5.1 7.9 5.4 12.8 12.7 14.1 22.3 1.7 13.5-2.2 24.5-11.5 33.9-6.6 6.7-14.7 10.9-24 12.8-2.7.5-5.4.6-8 .9zm23.8-40.4c-.1-1.3-.1-2.3-.3-3.3-1.8-9.9-10.9-15.5-20.4-13.3-9.3 2.1-15.3 8-17.5 17.4-1.8 7.8 2 15.7 9.2 18.9 5.5 2.4 11 2.1 16.3-.6 7.9-4.1 12.2-10.5 12.7-19.1z"/>
</symbol><symbol id="grader">
    
    <g fill="none" fill-rule="evenodd">
        <path fill="#FFF" d="M73.702 77.347l-6.295 6.209-10.67-10.524 6.295-6.21 10.67 10.525m2.309 7.837l-.673.664a4.013 4.013 0 0 1-5.62 0l-1.311-1.292 6.295-6.209 1.31 1.293a3.883 3.883 0 0 1 0 5.544"/>
        <path d="M40.138 19.827c-8.255.091-16.001 3.304-21.848 9.072-5.931 5.85-9.198 13.63-9.198 21.905 0 8.274 3.267 16.054 9.198 21.905 5.932 5.851 13.819 9.073 22.208 9.073 8.388 0 16.275-3.222 22.207-9.073 5.932-5.851 9.199-13.63 9.199-21.905 0-6.15-1.805-12.027-5.168-17.042v12.63a26.15 26.15 0 0 1 .372 4.412c0 7.011-2.768 13.602-7.794 18.56-5.026 4.958-11.709 7.688-18.816 7.688-7.108 0-13.79-2.73-18.817-7.688-5.026-4.958-7.794-11.549-7.794-18.56 0-7.012 2.768-13.603 7.794-18.56a26.547 26.547 0 0 1 15.19-7.448 17.135 17.135 0 0 1 3.267-4.969z" fill="#FFF"/>
        <g transform="translate(15 1)">
            <mask id="b" fill="#fff">
                <use xlink:href="#a"/>
            </mask>
            <path d="M17.81 34.855v-2.983c0-1.37 1.125-2.48 2.515-2.48h3.023c-3.059 0-5.539 2.445-5.539 5.463m-7.689 8.947v-3.014c0-1.37 1.127-2.48 2.516-2.48h5.173l-.035.03H15.66c-3.06 0-5.54 2.446-5.54 5.464M2.432 52.75V49.8c0-1.37 1.127-2.481 2.516-2.481h2.399c-2.765.306-4.915 2.62-4.915 5.43" fill="#FFF" mask="url(#b)"/>
            <path d="M6.277 48.226c-1.594 0-2.89 1.28-2.89 2.852v25.92c0 .204.167.37.374.37h5.03a.373.373 0 0 0 .376-.37V48.596a.373.373 0 0 0-.375-.37H6.277zM8.792 79.25h-5.03c-1.26 0-2.283-1.01-2.283-2.251v-25.92c0-2.61 2.152-4.733 4.798-4.733h2.515c1.259 0 2.283 1.01 2.283 2.251v28.402c0 1.241-1.024 2.251-2.283 2.251z" fill="#FFF" mask="url(#b)"/>
            <path d="M13.965 39.279c-1.594 0-2.89 1.279-2.89 2.851v34.868c0 .204.168.37.375.37h5.03a.373.373 0 0 0 .375-.37V39.649a.373.373 0 0 0-.375-.37h-2.515zm2.515 39.97h-5.03c-1.259 0-2.283-1.01-2.283-2.251V42.13c0-2.61 2.153-4.732 4.798-4.732h2.515c1.259 0 2.283 1.01 2.283 2.251v37.349c0 1.241-1.024 2.251-2.283 2.251z" fill="#FFF" mask="url(#b)"/>
            <path d="M21.653 30.332c-1.593 0-2.89 1.279-2.89 2.851v43.815c0 .204.168.37.375.37h5.03a.373.373 0 0 0 .376-.37V30.702a.373.373 0 0 0-.375-.37h-2.516zm2.516 48.917h-5.03c-1.26 0-2.284-1.01-2.284-2.251V33.183c0-2.61 2.153-4.733 4.798-4.733h2.516c1.258 0 2.282 1.01 2.282 2.252v46.296c0 1.241-1.024 2.251-2.282 2.251z" fill="#FFF" mask="url(#b)"/>
            <path d="M29.342 21.385c-1.594 0-2.89 1.279-2.89 2.851v52.762c0 .204.168.37.375.37h5.03a.373.373 0 0 0 .375-.37V21.755a.373.373 0 0 0-.375-.37h-2.515zm2.515 57.864h-5.03c-1.26 0-2.283-1.01-2.283-2.251V24.236c0-2.61 2.152-4.733 4.798-4.733h2.515c1.259 0 2.283 1.01 2.283 2.252v55.243c0 1.241-1.024 2.251-2.283 2.251z" fill="#FFF" mask="url(#b)"/>
            <path d="M37.03 12.437c-1.593 0-2.89 1.28-2.89 2.852v61.709c0 .204.168.37.375.37h5.03a.373.373 0 0 0 .376-.37v-64.19a.373.373 0 0 0-.375-.37H37.03zm2.516 66.812h-5.031c-1.259 0-2.283-1.01-2.283-2.251v-61.71c0-2.609 2.153-4.732 4.799-4.732h2.515c1.258 0 2.282 1.01 2.282 2.251v64.19c0 1.242-1.024 2.252-2.282 2.252z" fill="#FFF" mask="url(#b)"/>
            <path d="M44.719 3.49c-1.594 0-2.89 1.28-2.89 2.852v70.656c0 .204.167.37.374.37h5.031a.373.373 0 0 0 .375-.37V6.342c0-1.573-1.297-2.852-2.89-2.852zm2.515 75.76h-5.03c-1.26 0-2.283-1.01-2.283-2.252V6.342c0-2.61 2.152-4.733 4.798-4.733 2.645 0 4.797 2.123 4.797 4.733v70.656c0 1.241-1.023 2.251-2.282 2.251z" fill="#FFF" mask="url(#b)"/>
        </g>
    </g>
</symbol><symbol id="hackernews">
    <path d="M56.534 17h13.272l-18.72 35.509v21.305h-11.69V52.509L20 17h13.8l11.63 24.738L56.535 17z" fill="#FFF" fill-rule="evenodd"/>
</symbol><symbol id="helper.js">
    <g fill="none" fill-rule="evenodd">
        <path d="M43.127 79.763c.82.476 2.152.481 2.979.009l27.538-15.728c.825-.471 1.493-1.628 1.493-2.576V30.156c0-.952-.671-2.106-1.493-2.573L47.126 12.509c-.825-.469-2.166-.465-2.99.006L16.952 28.051c-.826.473-1.496 1.631-1.496 2.582v31.359c0 .953.664 2.11 1.486 2.587l26.185 15.184z" stroke-width="2.362" stroke="#FFF"/>
        <path d="M44.857 46.648L15.81 29.298m29.748 16.991l29.376-17.435M44.955 46.568v33.665" stroke="#FFF" stroke-width="1.575" stroke-dasharray="3.779999828338623,8.977499771118163"/>
        <g transform="translate(41.633 30.133)">
            <ellipse stroke="#FFF" stroke-width=".84" cx="3.696" cy="2.077" rx="3.696" ry="2.077"/>
            <path d="M0 2.088v2.59S.993 6.29 3.663 6.29c2.669 0 3.732-1.612 3.732-1.612v-2.59" stroke="#FFF" stroke-width=".84"/>
            <path fill="#FFF" d="M.003 3.272V4.72l1.64 1.21 2.044.397 2.666-.694 1.021-1.12V2.84l-1.291.692-2.24.574-2.656-.578z"/>
        </g>
        <g transform="translate(41.633 18.68)">
            <ellipse stroke="#FFF" stroke-width=".84" cx="3.696" cy="2.077" rx="3.696" ry="2.077"/>
            <path d="M0 2.088v2.59S.993 6.29 3.663 6.29c2.669 0 3.732-1.612 3.732-1.612v-2.59" stroke="#FFF" stroke-width=".84"/>
            <path fill="#FFF" d="M.003 3.272V4.72l1.64 1.21 2.044.397 2.666-.694 1.021-1.12V2.84l-1.291.692-2.24.574-2.656-.578z"/>
        </g>
        <g transform="translate(30.135 24.407)">
            <ellipse stroke="#FFF" stroke-width=".84" cx="3.696" cy="2.077" rx="3.696" ry="2.077"/>
            <path d="M0 2.088v2.59S.993 6.29 3.663 6.29c2.669 0 3.732-1.612 3.732-1.612v-2.59" stroke="#FFF" stroke-width=".84"/>
            <path fill="#FFF" d="M.003 3.272V4.72l1.64 1.21 2.044.397 2.666-.694 1.021-1.12V2.84l-1.291.692-2.24.574-2.656-.578z"/>
        </g>
        <g transform="translate(53.13 24.407)">
            <ellipse stroke="#FFF" stroke-width=".84" cx="3.696" cy="2.077" rx="3.696" ry="2.077"/>
            <path d="M0 2.088v2.59S.993 6.29 3.663 6.29c2.669 0 3.732-1.612 3.732-1.612v-2.59" stroke="#FFF" stroke-width=".84"/>
            <path fill="#FFF" d="M.003 3.272V4.72l1.64 1.21 2.044.397 2.666-.694 1.021-1.12V2.84l-1.291.692-2.24.574-2.656-.578z"/>
        </g>
    </g>
</symbol><symbol id="icon-arrow">
    <path d="M7.046 8.347l3.643-3.25L12 6.64 5.99 12 0 6.64l1.313-1.542L5 8.518V0h2.046v8.347z" fill="currentColor" fill-rule="evenodd"/>
</symbol><symbol id="icon-codepen">
    <path d="M37.721 27.833c0 .054-.004.107-.011.16l-.01.053c-.006.034-.012.069-.021.102-.005.02-.013.04-.019.06l-.031.09-.028.058a1.387 1.387 0 0 1-.041.082l-.035.056a1.009 1.009 0 0 1-.154.193c-.016.016-.032.033-.05.048a1.268 1.268 0 0 1-.124.1l-.02.015-12.999 8.666a1.22 1.22 0 0 1-1.356 0L9.823 28.85l-.02-.015a1.186 1.186 0 0 1-.174-.148l-.06-.066a1.072 1.072 0 0 1-.094-.127 1.225 1.225 0 0 1-.104-.197 1.285 1.285 0 0 1-.05-.149c-.009-.034-.015-.068-.021-.102-.003-.018-.008-.036-.01-.053a1.186 1.186 0 0 1-.011-.16v-8.666c0-.054.004-.107.01-.16l.01-.052c.007-.035.013-.07.022-.103a.968.968 0 0 1 .019-.059 1.098 1.098 0 0 1 .186-.36l.042-.054c.02-.022.04-.045.061-.066a1.047 1.047 0 0 1 .174-.148l.02-.014 12.999-8.666c.41-.274.945-.274 1.356 0l12.998 8.666c.008.004.014.01.021.015.02.013.037.027.055.041a.992.992 0 0 1 .07.059l.048.048a1.047 1.047 0 0 1 .155.192l.034.057c.015.026.029.053.042.081l.027.06c.012.03.022.059.032.089.006.02.014.039.019.06.009.033.015.067.021.102l.01.053c.007.052.01.105.01.16v8.665zM23.5.5C10.798.5.5 10.797.5 23.5s10.298 23 23 23c12.703 0 23-10.297 23-23S36.203.5 23.5.5zm0 20.109L19.177 23.5l4.323 2.892 4.323-2.892-4.323-2.89zm1.222 7.906v5.7l9.576-6.383-4.277-2.861-5.299 3.544zm-12.02-.683l9.576 6.383v-5.7l-5.299-3.544-4.277 2.86zm21.596-8.663l-9.576-6.384v5.7l5.3 3.545 4.276-2.861zm-12.02-.683v-5.701l-9.576 6.384 4.277 2.861 5.299-3.544zm-10.555 2.969v4.09l3.058-2.045-3.058-2.045zm23.554 4.09v-4.09L32.219 23.5l3.058 2.045z" fill="#FFF" fill-rule="evenodd"/>
</symbol><symbol id="icon-comments">
    <path d="M10.536 12.725c-.434.052-.88.08-1.333.08-4.582 0-8.296-2.753-8.296-6.15C.907 3.262 4.62.51 9.203.51c4.582 0 8.297 2.75 8.297 6.146 0 2.154-1.494 4.05-3.757 5.147l1.074 5.358-4.28-4.435z" fill="currentColor" fill-rule="evenodd"/>
</symbol><symbol id="icon-github" viewBox="0 0 41 40">
    <path d="M20.498 0C9.179 0 0 9.178 0 20.5c0 9.058 5.873 16.74 14.02 19.452 1.025.189 1.399-.445 1.399-.988 0-.487-.018-1.776-.028-3.486-5.702 1.238-6.905-2.749-6.905-2.749-.933-2.368-2.277-2.999-2.277-2.999-1.861-1.27.141-1.246.141-1.246 2.058.145 3.14 2.113 3.14 2.113 1.829 3.133 4.799 2.228 5.967 1.703.186-1.324.716-2.227 1.3-2.74-4.551-.517-9.337-2.276-9.337-10.131 0-2.238.799-4.07 2.11-5.501-.211-.519-.915-2.604.202-5.426 0 0 1.72-.55 5.637 2.102 1.634-.456 3.389-.682 5.132-.691 1.741.009 3.494.235 5.132.691 3.914-2.653 5.631-2.102 5.631-2.102 1.12 2.822.416 4.907.205 5.426 1.314 1.432 2.107 3.263 2.107 5.5 0 7.876-4.793 9.609-9.36 10.116.736.633 1.391 1.884 1.391 3.796 0 2.74-.025 4.952-.025 5.624 0 .549.37 1.187 1.41.987C35.132 37.233 41 29.555 41 20.5 41 9.178 31.82 0 20.498 0" fill="currentColor" fill-rule="evenodd"/>
</symbol><symbol id="icon-glass">
    <path d="M54.86 61.857c-5.561 4.329-12.52 6.901-20.072 6.901-18.228 0-33.005-14.991-33.005-33.484C1.783 16.782 16.56 1.79 34.788 1.79c18.229 0 33.006 14.992 33.006 33.484 0 8.845-3.38 16.889-8.902 22.874l2.796 2.796.874-.875a2.006 2.006 0 0 1 2.828-.001l16.396 16.396c.781.78.784 2.043 0 2.828l-5.739 5.738a2.006 2.006 0 0 1-2.828.001L56.823 68.635a1.997 1.997 0 0 1 .001-2.828l.993-.993-2.957-2.957zm-20.072 1.32c15.19 0 27.505-12.492 27.505-27.903 0-15.41-12.314-27.903-27.505-27.903-15.19 0-27.504 12.493-27.504 27.903 0 15.41 12.314 27.903 27.504 27.903z" stroke="#3369E7" stroke-width="2" fill="#FFF" fill-rule="evenodd" stroke-opacity=".182"/>
</symbol><symbol id="icon-link">
    <path d="M6.977 8.396H4.823c-1.358 0-2.482-1.12-2.482-2.528v-.954c0-1.384 1.1-2.53 2.483-2.53h3.863c1.357 0 2.48 1.122 2.48 2.53v1.073c0 .668.516 1.193 1.172 1.193.655 0 1.17-.525 1.17-1.193V4.914C13.508 2.218 11.355 0 8.686 0H4.823C2.177 0 0 2.194 0 4.914v.954c0 2.695 2.154 4.913 4.823 4.913h2.154c.655 0 1.17-.523 1.17-1.19 0-.67-.515-1.194-1.17-1.194zM16.177 0h-1.873c-.655 0-1.17.525-1.17 1.193a1.17 1.17 0 0 0 1.17 1.192h1.873c1.358 0 2.482 1.12 2.482 2.53v.953c0 1.383-1.1 2.528-2.483 2.528h-3.63c-1.356 0-2.48-1.12-2.48-2.528v-.835c0-.668-.515-1.193-1.17-1.193-.656 0-1.17.525-1.17 1.193v.835c0 2.695 2.153 4.913 4.82 4.913h3.63C18.823 10.78 21 8.588 21 5.87v-.954C21 2.218 18.823 0 16.177 0z" fill="currentColor" fill-rule="evenodd"/>
</symbol><symbol id="instantsearch-angular">
    <path d="M30.53.151l30.33 10.807-4.626 40.067L30.53 65.25 4.827 51.025.201 10.958 30.531.15zm0 7.194L11.572 49.82h7.069l3.811-9.504h16.094l3.811 9.504h7.07L30.53 7.345zm5.538 27.113H24.993l5.538-13.313 5.537 13.313z" fill="#FFF"/>
</symbol><symbol id="instantsearch-react">
    <path d="M37.84 43.28l-1.742-1.006-1.54 2.662a9.483 9.483 0 0 0-2.886-.447c-5.246 0-9.497 4.256-9.497 9.505 0 5.249 4.251 9.505 9.497 9.505 5.245 0 9.496-4.256 9.496-9.505a9.484 9.484 0 0 0-3.122-7.045l1.537-2.66 1.16-2-3.482-2.02-1.162 2.001 1.742 1.01zm11.567 8.7c.923-4.281 4.728-7.49 9.283-7.49 5.245 0 9.496 4.255 9.496 9.504s-4.25 9.505-9.496 9.505c-4.555 0-8.36-3.21-9.283-7.492h-3.074v-4.026h3.074zm1.953-10.7l1.74-1.011-1.546-2.665a9.484 9.484 0 0 0 3.114-7.038c0-5.249-4.252-9.505-9.497-9.505s-9.496 4.256-9.496 9.505c0 5.249 4.251 9.505 9.496 9.505 1.01 0 1.985-.158 2.898-.45l1.542 2.656 1.116 1.99 3.512-1.972-1.124-2.001-1.755.985zm-3.274 29.268c5.675 4.375 10.931 5.89 14.222 3.988 2.955-1.711 4.39-6.219 3.84-12.709l4.011-.34c.669 7.875-1.241 13.874-5.834 16.534-5.138 2.97-12.21.929-19.325-4.772-7.116 5.7-14.187 7.742-19.326 4.771-4.592-2.659-6.502-8.658-5.833-16.533l4.012.34c-.55 6.49.884 10.998 3.838 12.708 3.291 1.903 8.548.388 14.223-3.987a60.148 60.148 0 0 1-4.152-4.375l3.052-2.627A55.302 55.302 0 0 0 45 67.92a55.3 55.3 0 0 0 4.186-4.374l3.052 2.627a60.147 60.147 0 0 1-4.152 4.375zM23.934 30.222c2.503-.784 5.222-1.427 8.111-1.909l.662 3.972c-2.95.492-5.676 1.159-8.128 1.963a54.278 54.278 0 0 0 2.001 7.023l-3.793 1.35A59.281 59.281 0 0 1 20.77 35.7c-6.106 2.696-9.744 6.327-9.744 9.965 0 3.362 3.083 6.826 8.753 9.524l-1.73 3.636C11.127 55.53 7 50.894 7 45.664c0-5.743 5.009-10.719 13.042-14.038-1.134-8.592.679-15.383 5.644-18.258 4.711-2.753 11.11-1.245 17.775 3.598l-2.367 3.258c-5.514-4.007-10.351-5.147-13.383-3.375-3.148 1.822-4.487 6.756-3.777 13.373zm41.507 4.022c-2.457-.804-5.188-1.47-8.145-1.958l.656-3.973c2.898.479 5.624 1.12 8.134 1.906.708-6.616-.633-11.55-3.785-13.374-3.025-1.768-7.862-.628-13.376 3.379l-2.367-3.258c6.665-4.843 13.064-6.35 17.768-3.602 4.97 2.877 6.784 9.668 5.652 18.258C77.998 34.936 83 39.912 83 45.664c0 5.23-4.126 9.866-11.05 13.16l-1.73-3.636c5.671-2.698 8.754-6.162 8.754-9.524 0-3.647-3.63-7.278-9.724-9.97a59.268 59.268 0 0 1-2.018 6.927l-3.793-1.35a54.262 54.262 0 0 0 2.002-7.027zM44.048 56.007h2.285v-4.026h-2.285v4.026zm-12.376 3.465a5.474 5.474 0 0 1-5.47-5.478 5.474 5.474 0 0 1 5.47-5.478c3.02 0 5.47 2.452 5.47 5.478a5.474 5.474 0 0 1-5.47 5.478zm27.018 0c3.02 0 5.47-2.452 5.47-5.478a5.474 5.474 0 0 0-5.47-5.478 5.474 5.474 0 0 0-5.47 5.478 5.474 5.474 0 0 0 5.47 5.478zM45.171 36.044a5.474 5.474 0 0 1-5.47-5.478 5.474 5.474 0 0 1 5.47-5.478c3.02 0 5.47 2.452 5.47 5.478a5.474 5.474 0 0 1-5.47 5.478z" fill="#FFF" fill-rule="evenodd"/>
</symbol><symbol id="instantsearch-vue" viewBox="0 0 400 400">
    <path d="M237.417 86.655l-30.226 52.352-30.224-52.352H76.31l130.88 226.69 130.88-226.69z" fill="#FFF" opacity=".6"/>
    <path d="M237.417 86.655l-30.226 52.352-30.224-52.352h-48.303L207.19 222.67l78.53-136.015z" fill="#FFF"/>
</symbol><symbol id="instantsearch" viewBox="-15 -15 87 88">
    <path d="M0 4.083C0 1.869 1.8.075 4.008.075h48.984C55.206.075 57 1.875 57 4.083v48.983c0 2.214-1.8 4.008-4.008 4.008H4.008A4.012 4.012 0 0 1 0 53.066V4.083zm37.923 25.28a1.714 1.714 0 0 0-.255-1.24l-3.485-5.165a9.41 9.41 0 0 0 2.447-4.863c.882-5.006-2.317-9.75-7.152-10.603-4.834-.852-9.464 2.511-10.346 7.517-.883 5.006 2.317 9.75 7.151 10.603a8.654 8.654 0 0 0 5.24-.722l3.487 5.153c.231.36.61.612 1.032.686.87.154 1.722-.466 1.881-1.366zm-11.64 9.8a1.714 1.714 0 0 1 1.162-.5l6.23-.11a9.407 9.407 0 0 1 2.58-4.793c3.595-3.594 9.316-3.694 12.787-.223 3.471 3.472 3.371 9.193-.223 12.787-3.594 3.595-9.316 3.695-12.787.223a8.653 8.653 0 0 1-2.414-4.706l-6.221.1a1.558 1.558 0 0 1-1.154-.452c-.625-.625-.607-1.678.04-2.325zm-1.305-11.565c.108.431.04.893-.168 1.254l-3.116 5.397a9.407 9.407 0 0 1 2.78 4.68c1.23 4.932-1.632 9.888-6.395 11.075-4.763 1.188-9.616-1.844-10.846-6.777-1.23-4.932 1.632-9.887 6.395-11.075a8.654 8.654 0 0 1 5.278.354l3.118-5.383c.206-.375.566-.653.982-.757.857-.213 1.751.345 1.972 1.232zM38.5 36.084c-2.282 2.282-2.346 5.933-.142 8.137 2.204 2.204 5.855 2.14 8.137-.142 2.283-2.282 2.346-5.933.142-8.137-2.204-2.204-5.855-2.14-8.137.142zm-17.174 3.64c-.781-3.132-3.878-5.067-6.902-4.313-3.025.754-4.85 3.917-4.07 7.048.781 3.132 3.878 5.067 6.902 4.313 3.025-.754 4.85-3.916 4.07-7.048zm12.113-22.2c-.56 3.179-3.515 5.325-6.584 4.784-3.07-.541-5.112-3.569-4.552-6.747.56-3.179 3.515-5.325 6.585-4.784 3.07.541 5.111 3.569 4.55 6.747z" fill="#FFF" fill-rule="evenodd"/>
</symbol><symbol id="ios">
    <path d="M51.3 28.157c1.51-1.834 2.53-4.384 2.25-6.926-2.176.087-4.81 1.454-6.371 3.288-1.399 1.621-2.626 4.218-2.293 6.708 2.426.189 4.904-1.238 6.415-3.07zm5.226 16.495c-.05-5.49 4.47-8.124 4.675-8.253-2.543-3.731-6.502-4.242-7.914-4.303-3.367-.341-6.573 1.988-8.28 1.988-1.706 0-4.345-1.938-7.136-1.884-3.675.055-7.058 2.14-8.95 5.437-3.814 6.635-.973 16.468 2.74 21.853 1.818 2.632 3.982 5.598 6.829 5.489 2.742-.11 3.778-1.777 7.088-1.777s4.241 1.777 7.14 1.725c2.946-.058 4.816-2.69 6.621-5.33 2.083-3.057 2.944-6.015 2.993-6.17-.065-.028-5.746-2.212-5.806-8.775z" fill="#FFF" fill-rule="evenodd"/>
</symbol><symbol id="java">
    <path d="M37.502 61.71s-2.342 1.36 1.669 1.82c4.86.554 7.343.474 12.697-.536 0 0 1.41.88 3.376 1.644-12.005 5.137-27.17-.298-17.742-2.929zm-1.467-6.706s-2.628 1.943 1.386 2.357c5.192.536 9.29.58 16.386-.784 0 0 .979.993 2.521 1.536-14.513 4.24-30.678.333-20.293-3.109zM48.4 43.63c2.96 3.403-.776 6.462-.776 6.462s7.51-3.871 4.062-8.722c-3.222-4.522-5.692-6.768 7.681-14.514 0 0-20.993 5.236-10.967 16.774zm15.88 23.04s1.734 1.428-1.91 2.532c-6.927 2.095-28.84 2.728-34.926.084-2.187-.952 1.915-2.27 3.206-2.548 1.346-.291 2.114-.238 2.114-.238-2.433-1.711-15.727 3.361-6.752 4.816 24.476 3.962 44.616-1.785 38.268-4.646zM38.63 48.056s-11.144 2.645-3.946 3.606c3.04.406 9.097.313 14.744-.16 4.613-.387 9.242-1.214 9.242-1.214s-1.625.697-2.802 1.499c-11.32 2.973-33.183 1.588-26.888-1.452 5.322-2.57 9.65-2.279 9.65-2.279zm19.994 11.161c11.506-5.97 6.185-11.707 2.472-10.935-.908.19-1.316.354-1.316.354s.339-.53.983-.757c7.346-2.579 12.995 7.606-2.37 11.64 0 0 .178-.16.23-.302zm-6.936-44.872s6.371 6.366-6.044 16.153c-9.956 7.854-2.27 12.33-.004 17.448-5.812-5.237-10.075-9.848-7.215-14.138 4.199-6.297 15.833-9.351 13.263-19.463zM39.761 75.4c11.041.705 28.002-.392 28.403-5.61 0 0-.771 1.977-9.126 3.547-9.425 1.772-21.053 1.566-27.947.43 0 0 1.413 1.167 8.67 1.633z" fill="/*#01ADFF*/#FFF" fill-rule="evenodd"/>
</symbol><symbol id="javascript">
    <path d="M72.768 51.796c-.619-3.861-3.137-7.103-10.593-10.127-2.59-1.19-5.478-2.044-6.339-4.006-.306-1.143-.346-1.786-.153-2.478.555-2.244 3.234-2.944 5.357-2.3 1.368.458 2.663 1.512 3.443 3.193 3.652-2.365 3.644-2.349 6.194-3.974-.933-1.448-1.432-2.115-2.043-2.735-2.196-2.453-5.188-3.716-9.975-3.62-.828.105-1.665.218-2.493.322-2.39.604-4.666 1.859-6 3.54-4.007 4.545-2.865 12.5 2.01 15.774 4.802 3.604 11.857 4.424 12.758 7.794.876 4.127-3.033 5.462-6.918 4.988-2.864-.596-4.456-2.052-6.178-4.698-3.17 1.834-3.17 1.834-6.427 3.708.772 1.69 1.585 2.454 2.88 3.918 6.13 6.218 21.469 5.912 24.22-3.5.113-.321.853-2.477.257-5.8zM41.075 26.248H33.16c0 6.838-.032 13.627-.032 20.464 0 4.352.225 8.342-.483 9.564-1.158 2.405-4.158 2.108-5.526 1.641-1.391-.683-2.1-1.657-2.92-3.032-.225-.394-.394-.7-.45-.724-2.148 1.31-4.287 2.63-6.435 3.941 1.07 2.196 2.646 4.103 4.665 5.341 3.017 1.81 7.07 2.365 11.31 1.392 2.76-.804 5.14-2.47 6.387-5.003 1.802-3.322 1.416-7.344 1.4-11.793.04-7.255 0-14.51 0-21.79z" fill="/*#FFC168*/#FFF" fill-rule="evenodd"/>
</symbol><symbol id="jekyll">
    <path d="M51.578 40.819c-5 13.748-11.284 31.132-11.284 31.132a6.03 6.03 0 1 1-11.26-4.322s5.586-14.058 10.653-26.886c1.505-.954 3.388-1.821 5.952-1.821 2.233 0 4.863 1.306 5.94 1.897zm-24.366 26.64a7.53 7.53 0 1 0 14.06 5.398s17.915-47.161 18.472-48.25c1.418-.788 2.308-1.183 2.604-1.875.838-2.074-1.953-5.134-7.265-7.28-5.312-2.146-10.032-2.54-10.221 0-.145 1.945.593 2.34.928 3.755.162.21-18.578 48.253-18.578 48.253zm25.955-47.385c3.071 1.24 5.828 1.585 6.158.769.33-.816-1.892-2.484-4.964-3.725-3.071-1.24-5.828-1.585-6.158-.769-.33.816 1.893 2.484 4.964 3.725zM38.79 58.91c.961 0 1.74-.78 1.74-1.743a1.742 1.742 0 0 0-3.481 0c0 .963.78 1.743 1.74 1.743zm-3.633 10.51a1.976 1.976 0 1 0 0-3.952 1.976 1.976 0 0 0 0 3.951zm8.47-16.655a1.037 1.037 0 1 0 0-2.075 1.037 1.037 0 0 0 0 2.075zm-8.25 7.607a.89.89 0 1 0 0-1.779.89.89 0 0 0 0 1.779z" fill="#FFF" fill-rule="evenodd"/>
</symbol><symbol id="laravel" viewBox="0 0 96 96">
    <path class="icon-laravel" fill="#FFF" d="M45.2 59.4c-.7.2-1.4.4-2.1.5-5.7 1.5-11.4 2.9-17.1 4.4-.5.1-1.1.2-1.6.2-1.1 0-2-.5-2.6-1.3-.2-.3-.5-.7-.6-1C15.7 50.6 10.4 39 5 27.4c-1-2.1-1.9-4.2-2.9-6.3-.2-.5-.4-1-.5-1.5-.1-.2-.1-.4-.1-.6 0-.7.3-1.2 1-1.3.3-.1.7-.1 1-.1 2.2-.2 4.4-.4 6.5-.5 1.9-.2 3.9-.3 5.8-.5 2-.2 3.9-.3 5.9-.4.4 0 .7 0 1.1.1.5.1.9.3 1.2.7.3.4.5.7.8 1.1 7.3 12.2 14.5 24.3 21.8 36.5.1.1.1.2.2.4 9.3-2.2 18.6-4.4 27.9-6.7-.1-.1-.2-.2-.2-.3-3-4.2-5.9-8.4-8.9-12.6-.1-.2-.2-.3-.3-.5-.2-.5-.1-.9.4-1.1.3-.1.6-.3 1-.3 2-.3 4-.7 6-1 1.9-.3 3.9-.6 5.8-1 .6-.1 1.1-.2 1.7-.3.6-.1 1.1.1 1.6.4.4.3.7.7 1 1l6.3 7.8c1.4 1.7 2.8 3.5 4.2 5.2l.2.2c.3.5.2.9-.3 1.1-.2.1-.4.2-.6.2-4 1.1-8.1 2.2-12.1 3.2-.1 0-.2.1-.4.1.1.1.2.3.3.4 2.9 3.9 5.7 7.7 8.6 11.6l2.4 3.3c.1.2.3.4.4.6.2.5.1.9-.3 1.1-.3.2-.5.3-.8.4-1.4.5-2.9 1.1-4.4 1.6-8.2 2.9-16.5 5.9-24.7 8.8l-3 .9c-1 .2-1.8 0-2.5-.8-.4-.4-.7-.8-1-1.3-1.2-2-2.4-4.1-3.6-6.2-2.1-3.8-4.2-7.5-6.3-11.3.1.1 0 0 0-.1zm-19.9.7c.2 0 .5-.1.7-.2 5.1-1.2 10.2-2.4 15.4-3.7.4-.1.9-.2 1.3-.3.3-.1.4-.2.3-.6l-.3-.6c-4.6-8-9.2-15.9-13.8-23.9-2.3-4-4.6-8-6.9-11.9-.1-.2-.3-.3-.5-.3h-.3c-1.2.1-2.5.2-3.7.3-1.2.1-2.4.2-3.7.3-1.5.1-3.1.3-4.6.4l-3 .3c-.3 0-.4.2-.3.4.1.5.3.7.4 1C10.1 29.2 14 37.1 17.8 45c2.4 5 4.8 10 7.2 14.9.1.2.1.2.3.2zM49 58.4c.1.1.1.2.2.3 2.1 3.5 4.1 7.1 6.2 10.6.8 1.4 1.6 2.8 2.5 4.1.2.3.4.6.6.8.3.3.6.3.9.2.1-.1.3-.1.4-.2C65.9 72.1 72 70.1 78 68c2.8-.9 5.5-1.9 8.3-2.8.2-.1.3-.1.5-.2.3-.2.3-.3.2-.6-.1-.2-.2-.4-.4-.6l-3.3-4.5c-1.8-2.5-3.6-4.9-5.4-7.4-.2-.2-.3-.4-.5-.6-.2-.2-.4-.3-.7-.2-.2.1-.4.1-.6.2-2.9.8-5.9 1.5-8.8 2.3-5.9 1.5-11.9 3.1-17.8 4.6-.2.1-.3.1-.5.2zm28.9-10.8h.2c3.5-.9 7-1.7 10.5-2.6.2 0 .3-.1.4-.1.4-.2.4-.3.1-.6v-.1l-7.8-9.9-.2-.2c-.2-.2-.5-.3-.9-.3-.9.2-1.8.4-2.8.5-2.2.4-4.4.8-6.7 1.2-.4.1-.8.1-1.2.2-.3.1-.3.2-.2.4.1.1.2.3.3.4 2.6 3.6 5.2 7.1 7.8 10.7.3.1.4.2.5.4z"/>
</symbol><symbol id="magento">
    <path d="M68.242 31.984v27.967l-6.892 3.996V35.98l-17.23-9.99-17.229 9.989v27.968L20 59.95V31.984L44.12 18l24.122 13.984zm-24.12 41.952l-10.339-5.994V39.975l6.891-3.996v27.968l3.446 2.101 3.447-2.101V35.98l6.893 3.995v27.967l-10.338 5.994z" fill="#FFF" fill-rule="evenodd"/>
</symbol><symbol id="marvel" viewBox="0 0 5827 4134">
    
    <g id="Layer_x0020_1">
        <g id="_515607688">
            <path d="M0 0h5827v4134H0z" fill="none"/>
            <path d="M5652 3306H175V827h5477z" fill="transparent" fill-rule="nonzero"/>
            <path class="fil2" d="M4905 1179h306v1453h260v367h-566z"/>
            <path d="M5498 1276c0 64-52 117-117 117-64 0-117-52-117-117 0-64 52-117 117-117 64 0 117 52 117 117" fill="none" fill-rule="nonzero" stroke="#fff" stroke-width="23.15"/>
            <path class="fil2" d="M5336 1336v-122h54c11 0 19 1 25 3s10 6 14 12c3 6 5 12 5 18 0 9-3 16-8 22-6 6-14 10-26 11 4 2 8 4 10 6 5 4 9 10 13 16l21 33h-20l-16-25c-5-7-9-13-12-17s-6-7-8-8c-2-2-5-3-7-3s-5-1-9-1h-19v54h-16zm16-68h35c7 0 13-1 17-2 4-2 7-4 10-7 2-3 3-7 3-11 0-6-2-11-6-14-4-4-11-6-20-6h-39v40zM400 2992V1179h413l147 760 167-760h400v1633l260-1633h407l253 1633V1186h540s187 33 280 293l-40-300h327l153 940 160-933h920v340h-273v373h260v380h-253v347h267v367h-593V1247l-307 1746h-367l-193-1160s-33 320-213 466l233 693h-320l-227-606v606h-646l-33-173h-247l-53 173h-613v-666l-160 666H882l-147-660v653l-333 7zm1686-526l-93-553-80 553h173zm706-420c220-13 200-287 200-287-33-267-200-253-200-253v540z"/>
        </g>
    </g>
</symbol><symbol id="node">
    <path d="M45.04 78.96a5.05 5.05 0 0 1-2.522-.674L34.49 73.54c-1.198-.67-.613-.907-.219-1.045 1.6-.555 1.924-.682 3.631-1.65.178-.1.413-.062.597.046l6.166 3.659c.225.124.54.124.746 0l24.043-13.868a.756.756 0 0 0 .368-.65v-27.73a.775.775 0 0 0-.372-.662L45.415 17.783a.758.758 0 0 0-.742 0l-24.028 13.86a.772.772 0 0 0-.38.66V60.03c0 .265.147.516.378.642l6.587 3.803c3.574 1.785 5.763-.318 5.763-2.43V34.668a.69.69 0 0 1 .697-.692h3.05c.381 0 .696.305.696.692v27.378c0 4.766-2.597 7.5-7.119 7.5-1.39 0-2.484 0-5.538-1.505l-6.305-3.627a5.072 5.072 0 0 1-2.521-4.383V32.302c0-1.802.963-3.483 2.52-4.38L42.519 14.04c1.521-.86 3.543-.86 5.052 0l24.043 13.883a5.07 5.07 0 0 1 2.525 4.38v27.729a5.083 5.083 0 0 1-2.525 4.383L47.57 78.286a5.046 5.046 0 0 1-2.53.675zm6.138-19.984c-10.523 0-12.727-4.826-12.727-8.874 0-.385.311-.692.695-.692h3.11c.347 0 .636.249.69.588.47 3.163 1.87 4.759 8.232 4.759 5.064 0 7.22-1.146 7.22-3.831 0-1.548-.61-2.697-8.482-3.467-6.579-.651-10.647-2.103-10.647-7.363 0-4.848 4.089-7.74 10.944-7.74 7.703 0 11.514 2.673 11.997 8.404a.705.705 0 0 1-.182.535.713.713 0 0 1-.51.222h-3.121a.693.693 0 0 1-.675-.543c-.748-3.328-2.57-4.392-7.51-4.392-5.53 0-6.171 1.926-6.171 3.368 0 1.748.758 2.257 8.225 3.244 7.388.976 10.898 2.359 10.898 7.548 0 5.236-4.369 8.234-11.986 8.234z" fill="/*#2EDE98*/#FFF" fill-rule="evenodd"/>
</symbol><symbol id="php">
    <path d="M17.104 59.181l4.135-20.975H30.8c4.134.259 6.202 2.33 6.202 5.956 0 6.215-4.91 9.84-9.303 9.581h-4.651l-1.034 5.438h-4.91zm19.238-5.14l4.135-20.976h4.91l-1.034 5.438h4.652c4.134.259 5.685 2.33 5.168 4.92l-1.81 10.617h-5.167l1.809-9.581c.258-1.295.258-2.072-1.55-2.072h-3.877L41.252 54.04h-4.91zm16.674 5.14l4.134-20.975h9.561c4.135.259 6.202 2.33 6.202 5.956 0 6.215-4.91 9.84-9.303 9.581h-4.65l-1.034 5.438h-4.91zM24.08 49.86l1.292-7.769h3.36c1.809 0 3.1.777 3.1 2.33-.258 4.403-2.325 5.18-4.65 5.439H24.08zm35.912 0l1.292-7.769h3.359c1.809 0 3.1.777 3.1 2.33-.258 4.403-2.325 5.18-4.65 5.439h-3.101z" fill="/*#01ADFF*/#fff" fill-rule="evenodd"/>
</symbol><symbol id="places">
    <g fill="none" fill-rule="evenodd">
        <path d="M43.717 68.062a149.947 149.947 0 0 1-6.434-9.968c-2.43-4.126-4.485-8.128-6.047-11.9-2.125-5.126-3.26-9.642-3.237-13.36.06-9.694 8.025-17.817 17.862-17.817 9.641 0 18.22 8.496 18.22 17.225 0 3.727-1.108 8.196-3.168 13.24-1.607 3.936-3.749 8.117-6.295 12.424a149.754 149.754 0 0 1-8.715 13.081c-.227.304-1.419-1.831-2.186-2.925zm2.25-28.323c-3.783 0-6.85-3.057-6.85-6.828 0-3.771 3.067-6.83 6.85-6.83 3.783 0 6.849 3.059 6.849 6.83 0 3.77-3.066 6.828-6.85 6.828z" fill="#FFF"/>
        <path d="M50.028 72.81a167.194 167.194 0 0 0 7.321-11.286c2.856-4.832 5.264-9.53 7.08-13.976 2.365-5.796 3.65-10.978 3.65-15.407C68.079 21.325 57.655 11 45.843 11 33.803 11 24.073 20.922 24 32.78c-.027 4.432 1.29 9.67 3.732 15.564 1.765 4.258 4.075 8.757 6.8 13.384a167.406 167.406 0 0 0 7.184 11.132c.858 1.222 4.123 5.58 4.123 5.58s3.316-4.393 4.19-5.63zm-6.549-1.187a165.278 165.278 0 0 1-7.091-10.988c-2.678-4.547-4.944-8.959-6.666-13.115-2.342-5.652-3.593-10.63-3.568-14.727.066-10.686 8.846-19.64 19.689-19.64 10.627 0 20.082 9.366 20.082 18.988 0 4.107-1.221 9.033-3.49 14.593-1.772 4.338-4.133 8.947-6.94 13.694a165.066 165.066 0 0 1-9.606 14.42c-.25.334-1.564-2.02-2.41-3.225zm2.488-30.448c4.575 0 8.284-3.7 8.284-8.264 0-4.565-3.71-8.265-8.284-8.265-4.575 0-8.285 3.7-8.285 8.265 0 4.564 3.71 8.264 8.285 8.264zm0-1.436c-3.783 0-6.85-3.057-6.85-6.828 0-3.771 3.067-6.83 6.85-6.83 3.783 0 6.849 3.059 6.849 6.83 0 3.77-3.066 6.828-6.85 6.828z" fill="#FCFCFD"/>
    </g>
</symbol><symbol id="prestamodule">
    <g fill="#FFF" fill-rule="evenodd">
        <path d="M57.14 51.86a11.7 11.7 0 1 0-9.64-9.45 11.72 11.72 0 0 0 9.64 9.45z"/>
        <path d="M35 70.1h95.2a9.31 9.31 0 0 0 9.32-9.31V28.41a9.31 9.31 0 0 0-9.32-9.31H35a9.31 9.31 0 0 0-9.32 9.31v32.38A9.31 9.31 0 0 0 35 70.1zM85.86 26v36.75H83V26h2.86zM37 60.54l11.1-11.1a14.27 14.27 0 1 1 11 5.17 14 14 0 0 1-9.12-3.33L38.79 62.37a1.24 1.24 0 0 1-.92.38 1.25 1.25 0 0 1-.92-.38 1.29 1.29 0 0 1 .05-1.83z" fill-rule="nonzero"/>
        <path d="M0 0v165h56l-28.29-28.59a1.13 1.13 0 0 1-.79-1.08v-7.79c0-.635.515-1.15 1.15-1.15h9.54l-9.9-10a1.13 1.13 0 0 1-.79-1.08v-7.79a1.14 1.14 0 0 1 1.15-1.15h9.54l-9.9-10a1.13 1.13 0 0 1-.79-1.08v-7.77a1.15 1.15 0 0 1 1.15-1.16h15.72L27.27 69.7a11.77 11.77 0 0 1-4.08-8.91V28.41c.006-6.52 5.29-11.804 11.81-11.81h95.2a11.76 11.76 0 0 1 8.67 3.81L165 49.94V0H0z" opacity=".31"/>
        <path d="M138.26 96.46a1.15 1.15 0 0 0 1.15-1.15v-7.79a1.15 1.15 0 0 0-1.15-1.16H28.07a1.15 1.15 0 0 0-1.15 1.16v7.79a1.13 1.13 0 0 0 .79 1.08 1.1 1.1 0 0 0 .36.07h110.19zm0 20.01a1.14 1.14 0 0 0 1.15-1.15v-7.79a1.14 1.14 0 0 0-1.15-1.15H28.07a1.14 1.14 0 0 0-1.15 1.15v7.79a1.13 1.13 0 0 0 .79 1.08 1.1 1.1 0 0 0 .36.07h110.19zm0 20.02a1.15 1.15 0 0 0 1.15-1.16v-7.79a1.15 1.15 0 0 0-1.15-1.15H28.07a1.15 1.15 0 0 0-1.15 1.15v7.79a1.13 1.13 0 0 0 .79 1.08c.115.047.236.074.36.08h110.19z"/>
    </g>
</symbol><symbol id="public-api-search">
    <g transform="translate(11 9)" fill="#FFF">
        <path d="M102.205 0H8.538C3.823 0 0 3.854 0 8.609V74.12c0 4.754 3.823 8.609 8.538 8.609h34.539l-3.473 12.425h-5.692c-.786 0-1.423.642-1.423 1.435 0 .792.637 1.434 1.423 1.434h42.934c.786 0 1.423-.642 1.423-1.434 0-.793-.637-1.435-1.423-1.435h-5.692L67.696 82.73h34.51c4.715 0 8.538-3.855 8.538-8.61V8.61c0-4.755-3.823-8.609-8.539-8.609zM68.208 95.17H42.593l3.472-12.426h18.67l3.473 12.425zm39.704-21.05c0 3.17-2.549 5.74-5.692 5.74H8.538c-3.143 0-5.692-2.57-5.692-5.74V8.61c0-3.17 2.549-5.74 5.692-5.74h93.667c3.144 0 5.693 2.57 5.693 5.74l.014 65.512z"/>
        <path d="M101.038 10.144H9.705c-.786 0-1.423.642-1.423 1.435 0 .792.637 1.434 1.423 1.434h91.333a1.43 1.43 0 0 0 1.424-1.434 1.43 1.43 0 0 0-1.424-1.435zm0 57.29H9.705a1.43 1.43 0 0 0-1.423 1.436c0 .792.637 1.434 1.423 1.434h91.333a1.43 1.43 0 0 0 1.424-1.434 1.43 1.43 0 0 0-1.424-1.435z"/>
        <ellipse cx="55.386" cy="75.183" rx="2.135" ry="2.152"/>
        <path d="M101.038 18.337H89.07L78.625 28.882H74v-4.82H36.758v4.82h-4.625L21.688 18.337H9.705c-.786 0-1.423.642-1.423 1.434 0 .793.637 1.435 1.423 1.435h10.802l10.445 10.546h5.806v6.557H9.72c-.786 0-1.423.642-1.423 1.434 0 .793.637 1.435 1.423 1.435h27.038v7.849h-5.806l-10.445 10.53H9.705a1.43 1.43 0 0 0-1.423 1.436c0 .792.637 1.434 1.423 1.434h11.983l10.445-10.53h4.625v4.82H74v-4.82h4.625l10.445 10.53h11.968a1.43 1.43 0 0 0 1.424-1.434 1.43 1.43 0 0 0-1.424-1.435H90.252L79.806 49.027H74V42.47h27.038a1.43 1.43 0 0 0 1.424-1.435 1.43 1.43 0 0 0-1.424-1.435H74v-7.848h5.806l10.446-10.546h10.786a1.43 1.43 0 0 0 1.424-1.435 1.43 1.43 0 0 0-1.424-1.434zm-29.884 35.51h-31.55V26.931h31.55v26.916z"/>
        <path d="M101.038 49.027h-9.961c-.786 0-1.423.642-1.423 1.434 0 .793.637 1.435 1.423 1.435h9.961a1.43 1.43 0 0 0 1.424-1.435 1.43 1.43 0 0 0-1.424-1.434zm0-20.145h-9.961c-.786 0-1.423.643-1.423 1.435s.637 1.435 1.423 1.435h9.961c.786 0 1.424-.643 1.424-1.435s-.638-1.435-1.424-1.435zm-91.333 2.87h9.962c.786 0 1.423-.643 1.423-1.435s-.637-1.435-1.423-1.435H9.705c-.786 0-1.423.643-1.423 1.435s.637 1.435 1.423 1.435zm0 20.144h9.962c.786 0 1.423-.642 1.423-1.435 0-.792-.637-1.434-1.423-1.434H9.705c-.786 0-1.423.642-1.423 1.434 0 .793.637 1.435 1.423 1.435zm51.06-8.12c2.257-3.328 1.63-7.84-1.447-10.413a7.695 7.695 0 0 0-10.417.487c-2.827 2.85-3.036 7.402-.484 10.503a7.698 7.698 0 0 0 10.328 1.46l2.846 2.87c.266.273.63.428 1.01.43a1.443 1.443 0 0 0 1.01-2.453l-2.846-2.885zm-9.819-.919a4.855 4.855 0 0 1-1.423-3.472c0-2.717 2.172-4.927 4.867-4.95a4.776 4.776 0 0 1 3.444 1.435 4.913 4.913 0 0 1 1.423 3.472 4.855 4.855 0 0 1-1.423 3.472 4.937 4.937 0 0 1-6.888.043z"/>
    </g>
</symbol><symbol id="python">
    <g fill="none" fill-rule="evenodd">
        <path d="M46.297 22.052c-11.743 0-11.01 5.075-11.01 5.075l.014 5.258h11.205v1.578H30.85s-7.514-.849-7.514 10.96c0 11.808 6.558 11.39 6.558 11.39h3.914v-5.48s-.21-6.537 6.454-6.537h11.114s6.244.1 6.244-6.014V28.17s.948-6.119-11.323-6.119zm-6.18 3.536a2.01 2.01 0 0 1 2.017 2.009 2.01 2.01 0 0 1-2.016 2.009 2.01 2.01 0 0 1-2.016-2.01 2.01 2.01 0 0 1 2.016-2.008z" fill="#FFF"/>
        <path d="M46.896 68.483c11.742 0 11.009-5.075 11.009-5.075l-.013-5.258H46.686v-1.578h15.656s7.514.85 7.514-10.96c0-11.808-6.558-11.389-6.558-11.389h-3.914v5.48s.21 6.536-6.454 6.536H41.817s-6.245-.1-6.245 6.014v10.112s-.948 6.118 11.324 6.118zm6.678-4.003a2.01 2.01 0 0 1-2.016-2.009 2.01 2.01 0 0 1 2.016-2.009 2.01 2.01 0 0 1 2.016 2.01 2.01 2.01 0 0 1-2.016 2.008z" fill="/*#FFC168*/#FFF"/>
    </g>
</symbol><symbol id="react">
    <path d="M53.04 32.024h.003c6.28.518 12.05 1.636 16.78 3.232a.749.749 0 1 1-.48 1.42 54.122 54.122 0 0 0-4.652-1.33c-.976 3.214-2.3 6.586-3.927 10a.759.759 0 0 1 .03.058c7.092 14.65 8.187 27.515 2.072 30.91-3.88 2.155-9.746.018-16.176-5.49a.749.749 0 1 1 .974-1.138c6.003 5.143 11.31 7.076 14.474 5.32 3.635-2.02 4.163-8.733 1.73-17.475-3.452.823-7.238 1.424-11.223 1.781-3.66 5.043-7.614 9.342-11.467 12.495a.749.749 0 1 1-.949-1.159c3.484-2.85 7.07-6.684 10.44-11.18a99.285 99.285 0 0 1-9.99.178.749.749 0 1 1 .048-1.497c1.052.033 2.11.05 3.174.05 7.04 0 13.776-.74 19.545-2.107-.877-2.85-2.053-5.889-3.523-9.033a90.766 90.766 0 0 1-3.214 5.823 92.91 92.91 0 0 1-1.834 2.93.749.749 0 0 1-1.254-.818 91.411 91.411 0 0 0 1.804-2.882c3.47-5.782 6.144-11.677 7.802-17.1a79.223 79.223 0 0 0-9.073-1.385 92.08 92.08 0 0 1 4.906 8.094.749.749 0 0 1-1.319.71 90.391 90.391 0 0 0-2.107-3.704c-3.377-5.628-7.23-10.682-11.175-14.725-2.193 2.182-4.414 4.732-6.58 7.598a100.584 100.584 0 0 1 10.674-.15.749.749 0 1 1-.058 1.497 99.087 99.087 0 0 0-11.81.245.75.75 0 0 1-.887.077c-3.87.357-7.54.946-10.881 1.747.936 2.806 2.137 5.737 3.577 8.709a91.218 91.218 0 0 1 4.745-8.125.749.749 0 1 1 1.253.82 90.954 90.954 0 0 0-1.885 3.007c-3.415 5.69-6.058 11.487-7.721 16.838 3.182.74 6.725 1.307 10.531 1.655a92.08 92.08 0 0 1-6.357-9.925.749.749 0 1 1 1.31-.725c.51.921 1.04 1.84 1.59 2.756 3.664 6.104 7.885 11.531 12.17 15.72a.749.749 0 1 1-1.047 1.072c-2.194-2.145-4.367-4.602-6.46-7.301a.755.755 0 0 1-.108-.001c-4.6-.358-8.865-1.025-12.64-1.944a.752.752 0 0 1-.236-.058C13.577 55.022 7.06 50.73 7.06 45.737c0-4.529 5.29-8.494 14.083-11.093a.749.749 0 0 1 .424 1.436c-8.217 2.43-13.01 6.022-13.01 9.657 0 4.03 5.794 7.825 14.872 10.17 1.051-3.4 2.488-6.973 4.259-10.582a.746.746 0 0 1-.2-.25c-2.673-5.392-4.591-10.687-5.6-15.409a.749.749 0 0 1 1.464-.313 50.772 50.772 0 0 0 1.107 4.233c3.51-.848 7.37-1.466 11.439-1.83 9.605-13.138 20.574-20.425 26.645-17.053 4.058 2.253 4.99 8.648 2.942 17.265a.749.749 0 1 1-1.458-.346c1.91-8.033 1.072-13.787-2.21-15.61-3.59-1.994-9.755.79-16.282 6.948 2.579 2.643 5.113 5.702 7.505 9.064zm-1.295 13.804c0-3.948-3.324-7.14-7.414-7.14s-7.414 3.192-7.414 7.14c0 3.949 3.324 7.14 7.414 7.14s7.414-3.191 7.414-7.14zm25.869-5.348c1.956 1.582 2.948 3.248 2.948 4.913 0 3.527-4.512 7.02-12.323 9.449a.749.749 0 0 0 .445 1.43c8.376-2.604 13.376-6.475 13.376-10.879 0-2.176-1.227-4.236-3.505-6.077a.749.749 0 1 0-.941 1.164zM23.386 21.042c.362-2.825 1.413-4.752 3.08-5.678 3.274-1.818 8.837.32 15.071 5.84a.749.749 0 0 0 .993-1.121c-6.661-5.9-12.786-8.253-16.791-6.028-2.138 1.187-3.421 3.54-3.838 6.797a.749.749 0 1 0 1.485.19zm8.49 54.035c-2.397.829-4.4.818-5.91-.022-3.274-1.817-4.116-7.544-2.227-15.545a.749.749 0 0 0-1.457-.345c-2.028 8.585-1.09 14.952 2.956 17.2 1.929 1.07 4.361 1.084 7.127.127a.749.749 0 0 0-.49-1.415zm8.079-.961c0-1.678-1.407-3.029-3.132-3.029-1.724 0-3.131 1.35-3.131 3.029 0 1.678 1.407 3.028 3.131 3.028 1.725 0 3.132-1.35 3.132-3.028zm36.788-36.287c0-1.678-1.407-3.028-3.132-3.028-1.724 0-3.131 1.35-3.131 3.028s1.407 3.028 3.131 3.028c1.725 0 3.132-1.35 3.132-3.028zm-51.647-12.98c0-1.678-1.407-3.029-3.131-3.029-1.725 0-3.132 1.35-3.132 3.029 0 1.678 1.407 3.028 3.132 3.028 1.724 0 3.131-1.35 3.131-3.028zm-3.131 1.905c-1.114 0-2.008-.858-2.008-1.905 0-1.047.894-1.905 2.008-1.905 1.114 0 2.008.858 2.008 1.905 0 1.047-.894 1.905-2.008 1.905zm51.646 12.98c-1.114 0-2.008-.858-2.008-1.905 0-1.047.894-1.905 2.008-1.905 1.114 0 2.008.858 2.008 1.905 0 1.047-.894 1.905-2.008 1.905zM36.823 76.021c-1.114 0-2.008-.858-2.008-1.905 0-1.047.894-1.905 2.008-1.905 1.114 0 2.008.858 2.008 1.905 0 1.047-.894 1.905-2.008 1.905zm13.799-30.193c0 3.318-2.812 6.017-6.291 6.017-3.48 0-6.29-2.7-6.29-6.017s2.81-6.016 6.29-6.016 6.291 2.699 6.291 6.016zm-7.88-.223c0-.942.809-1.718 1.821-1.718a.749.749 0 1 0 0-1.498c-1.826 0-3.319 1.433-3.319 3.216a.749.749 0 0 0 1.498 0z" stroke="#FFF" stroke-width=".8" fill="#FFF" fill-rule="evenodd"/>
</symbol><symbol id="represent">
    <path d="M77.535 36.416L65.558 17.613a1.379 1.379 0 0 0-.991-.627l-9.446-1.193a1.383 1.383 0 0 0-1.323.604c-1.776 2.672-5.244 4.333-9.049 4.333-3.805 0-7.272-1.66-9.048-4.333a1.38 1.38 0 0 0-1.323-.604l-9.446 1.193c-.407.052-.77.282-.99.627L11.965 36.416a1.37 1.37 0 0 0 .176 1.695l10.12 10.347c.26.265.616.415.988.415h.008a1.38 1.38 0 0 0 .99-.426l.945-.988v26.305c0 .76.617 1.375 1.379 1.375h36.358c.762 0 1.38-.616 1.38-1.375V47.46l.943.988a1.384 1.384 0 0 0 1.987.011l10.12-10.347a1.37 1.37 0 0 0 .176-1.695zM66.262 45.52l-1.444-1.51-.51-12.08a1.38 1.38 0 0 0-2.758.059V69.22a.687.687 0 0 0 0 1.372v1.798h-33.6v-1.842a.682.682 0 0 0 .46-.641.683.683 0 0 0-.46-.642V31.988c0-.747-.6-1.357-1.35-1.373a1.36 1.36 0 0 0-1.407 1.316l-.51 12.078-1.445 1.51-8.36-8.547 11.045-17.34 7.992-1.011c2.383 3.015 6.449 4.856 10.835 4.856 4.386 0 8.45-1.842 10.834-4.856l7.992 1.01 11.046 17.34-8.36 8.548z" fill="#FFF" fill-rule="evenodd"/>
</symbol><symbol id="ror">
    <path d="M62.144 25.22l2.757 2-.5.75-2.34-1.25.083-1.5zm-8.019-2.418l.334 2.167-3.426.084-.5-2.418 3.592.167zm-10.61 1.168l2.005 2.25-2.756 1.584-2.005-2.417 2.757-1.417zm-9.355 7.169l2.923 1.917-2.254 2.667-3.008-2 2.339-2.584zm-7.435 11.004l3.843 1.501-1.17 3.251-3.926-1.25 1.253-3.502zm-4.177 13.922l4.344.333-.751 4.335-4.094-.5.501-4.168zM50.115 44.06l-.669 2.751-2.84-2.418 1.085-2.167 2.424 1.834zm-.836-7.17l1.754-1.584 1.671 2.501-1.003 1.751-2.422-2.667zm.419 14.59l.166 2.75-3.508-1.5.167-2.917 3.175 1.667zm1.502 8.67l1.588 3.252-4.427-.25-.836-3.002H51.2zm4.345-25.427l-1.085-2 2.338-.584.334 1.334-1.587 1.25zm6.098-1.834v-1.25l2.255.5v1l-2.255-.25zm4.93-.167s-2.507-2.835-7.102-2.335c-4.594.5-12.698 5.17-13.95 15.423-1.254 10.254 3.675 21.425 3.675 21.425h-22.22s-.585-3.668.835-10.671c1.42-7.003 3.508-11.672 7.1-18.34 3.593-6.67 9.356-12.173 17.71-12.922 8.353-.75 14.954 5.919 14.954 5.919l-1.003 1.501z" fill="/*#FF4F81*/#FFF" fill-rule="evenodd"/>
</symbol><symbol id="ruby">
    <path d="M60.616 22.066H29.958L15.164 35.922l30.123 31.395L75.41 35.922 60.616 22.066zm-1.74 14.66l-13.59 26.842-13.588-26.843h27.178zm-26.308-1.473l12.719-10.778 12.718 10.778H32.568zm14.727-10.978h11.982v10.108L47.295 24.275zM31.23 34.449V24.275h12.049l-12.05 10.174zm-1.138 2.276l12.316 24.433L18.98 36.725h11.112zm30.39 0h11.045L48.098 61.158l12.384-24.433zm.268-1.472V25.212l10.71 10.04H60.75zm-30.993 0H19.113l10.644-9.974v9.974z" fill="/*#FF4F81*/#FFF" fill-rule="evenodd"/>
</symbol><symbol id="scala">
    <g fill="/*#FF4F81*/#FFF" fill-rule="evenodd">
        <path d="M29.34 38.622s31.27 3.159 31.27 8.423V34.41s0-5.264-31.27-8.423v12.635zm0 16.846s31.27 3.159 31.27 8.423V51.257s0-5.265-31.27-8.423v12.634z" fill-opacity=".449"/>
        <path d="M60.66 17.614V30.25s0 5.264-31.27 8.423V25.987c-.05 0 31.27-3.108 31.27-8.373m-31.32 25.22s31.27-3.16 31.27-8.424v12.635s0 5.265-31.27 8.423V42.834zm0 29.43V59.63s31.27-3.159 31.27-8.423V63.84c.05.05.05 5.265-31.27 8.423"/>
    </g>
</symbol><symbol id="searchbox">
    <path d="M51.334 54.592a19.835 19.835 0 0 1-12.228 4.204C28.002 58.796 19 49.663 19 38.398 19 27.132 28.002 18 39.106 18c11.105 0 20.107 9.132 20.107 20.398 0 5.388-2.06 10.288-5.423 13.934l1.703 1.703.393-.393a2.004 2.004 0 0 1 2.83-.009L69.81 64.726c.779.78.774 2.047-.01 2.83l-3.215 3.217a2.004 2.004 0 0 1-2.831.009L52.661 59.689a2.002 2.002 0 0 1 .01-2.83l.465-.466-1.802-1.801zm-12.228.804c9.254 0 16.756-7.61 16.756-16.998 0-9.388-7.502-16.998-16.756-16.998-9.253 0-16.755 7.61-16.755 16.998 0 9.388 7.502 16.998 16.755 16.998z" fill="#FFF" fill-rule="evenodd"/>
</symbol><symbol id="searchstone">
    <path d="M27.634 59.516c1.436.392 2.971.576 4.291 1.209 7.132 3.42 21.16-1.962 23.494-10.884 2.426-9.278-3.197-18.895-12.079-18.51-3.188.138-6.68 1.565-9.332 3.41-2.615 1.817-1.84 5.389-.35 7.64 1.053 1.59 3.625 2.23 5.616 3.063.229.096 1.376-1.232 1.58-2.031.32-1.257.197-2.626.283-4.354 3.207-.741 5.436.582 6.997 3.39 1.725 3.103 1.056 6.616-1.855 8.736-8.117 5.913-18.025 1.724-21.112-6.604-3.485-9.4-1.678-12.731 7.046-19.77 7.958-6.424 21.44-3.407 27.563 3.268 7.525 8.202 8.797 18.428 3.498 28.401-5.965 11.228-23.06 15.588-33.65 8.428-1.298-.877-1.916-2.762-2.849-4.18l.859-1.212" fill="#FFF" fill-rule="evenodd"/>
</symbol><symbol id="shopify">
    <path d="M60.717 28.052a.548.548 0 0 0-.496-.46c-.206-.018-4.569-.341-4.569-.341s-3.03-3.009-3.362-3.341c-.333-.333-.983-.232-1.235-.158l-1.696.524c-1.012-2.913-2.798-5.59-5.94-5.59a3.99 3.99 0 0 0-.266.01c-.894-1.183-2-1.696-2.957-1.696-7.32 0-10.818 9.151-11.914 13.802-2.845.881-4.866 1.508-5.124 1.589-1.588.498-1.638.548-1.846 2.044A33990.64 33990.64 0 0 0 17 67.696l32.373 6.066 17.54-3.795s-6.157-41.63-6.196-41.915zM47.57 24.829l-2.739.848.002-.59c0-1.81-.251-3.268-.654-4.424 1.619.204 2.697 2.046 3.391 4.166zm-5.4-3.807c.45 1.128.743 2.747.743 4.932l-.002.317-5.658 1.752c1.09-4.204 3.132-6.235 4.917-7zm-2.175-2.059c.316 0 .634.108.939.317-2.346 1.104-4.861 3.885-5.923 9.437l-4.472 1.385c1.244-4.235 4.198-11.139 9.456-11.139zm3.423 18.32l-2.162 6.434s-1.895-1.012-4.218-1.012c-3.406 0-3.577 2.137-3.577 2.676 0 2.938 7.66 4.064 7.66 10.947 0 5.415-3.435 8.901-8.066 8.901-5.557 0-8.399-3.458-8.399-3.458l1.488-4.916s2.921 2.508 5.386 2.508c1.61 0 2.266-1.268 2.266-2.195 0-3.833-6.284-4.004-6.284-10.302 0-5.3 3.805-10.43 11.485-10.43 2.96 0 4.421.847 4.421.847z" fill="#FFF" fill-rule="evenodd"/>
</symbol><symbol id="stackoverflow">
    <g fill="none" fill-rule="evenodd">
        <path fill="#FFF" d="M60.783 57.585V71.81h4.711V52.843H23.12V71.81h4.71V57.585h32.953"/>
        <path fill="#FFC168" d="M33.015 51.77l23.053-4.875.969 4.64-23.053 4.876zm3.05-5.633L57.42 36.13l1.99 4.298-21.355 10.008z"/>
        <path fill="#FFC168" d="M41.975 41.412l18.1-15.17 3.016 3.643-18.101 15.17z"/>
        <path fill="#FFC168" d="M53.66 40.521l-3.78-2.83 14.058-19.02 3.78 2.83zM32.547 57.585h23.557v4.74H32.547z"/>
    </g>
</symbol><symbol id="superbowlsearch">
    <path d="M28.975 74.83c-3.99 0-7.729-.623-11.219-1.994a1.124 1.124 0 0 1-.748-.748C11.898 58.876 16.76 41.674 29.1 29.21 38.2 20.235 49.666 15 60.76 15c3.99 0 7.729.623 11.219 1.994.25.25.498.499.623.748 5.11 13.213.25 30.414-12.09 42.879-8.975 8.974-20.443 14.21-31.536 14.21zM39.33 48.84l1.999-2.011-2.5-2.499 1.728-1.727 2.493 2.494 1.99-2.002-2.429-2.429 1.727-1.726 2.423 2.423 2.012-2.025-2.515-2.562 1.743-1.71 2.494 2.54 2.93-2.948 1.731 1.721-2.95 2.97 2.382 2.426-1.743 1.71-2.36-2.404-1.998 2.01 2.412 2.412-1.727 1.726-2.406-2.407-1.99 2.002 2.342 2.341-1.726 1.727-2.336-2.336-2.015 2.027 2.346 2.388-1.743 1.711-2.324-2.367-2.841 2.858-1.732-1.721 2.862-2.88-2.552-2.599 1.743-1.71 2.53 2.577zm-7.46 22.74c9.338-.65 18.896-5.387 26.611-12.99 7.865-7.95 12.498-17.936 13.06-27.317-3.33-.369-6.483-1.883-8.908-4.308-2.938-2.72-3.936-6.215-4.292-8.845-9.504.618-19.355 5.385-27.089 13.119-7.887 7.973-12.464 17.993-13.011 27.397 3.492.28 6.817 1.818 9.348 4.35 2.348 2.347 3.856 5.348 4.28 8.594zm-2.453.076l-.118-.001c-3.42 0-6.594-.489-9.524-1.587-1.012-2.833-1.53-5.863-1.585-8.99 2.874.244 5.522 1.45 7.69 3.617 1.884 1.884 3.14 4.307 3.537 6.961zM71.594 28.83c-.053-3.154-.587-6.211-1.636-9.067a26.89 26.89 0 0 0-9.189-1.707c.293 2.21 1.245 4.98 3.572 7.202 2.058 2.057 4.548 3.248 7.253 3.572z" fill="#FFF" fill-rule="evenodd"/>
</symbol><symbol id="swift" viewBox="0 0 30 28">
    <path fill="#FFF" fill-rule="evenodd" d="M18.36.746c12.667 8.248 8.795 18.62 8.795 18.62s1.365 1.563 2.05 3.5c.68 1.937.674 4.31.55 4.373-.124.062-1.725-2.688-4.525-2.688-2.8 0-4.22 2.687-9.188 2.687C4.86 27.24.01 18.007.01 18.007s4.92 3.545 10.073 3.42c5.153-.125 6.58-1.625 6.58-1.625s-2.303-1.94-6.27-5.842c-3.966-3.9-7.698-9.28-7.698-9.28s5.979 4.77 7.897 6.174c1.26.917 2.54 1.81 3.836 2.674 0 0-1.858-2.016-3.166-3.638-1.31-1.622-4.658-6.52-4.658-6.52s5.137 4.666 7.473 6.52c2.336 1.852 6.806 4.977 6.806 4.977S23.577 8.68 18.36.744v.002z"/>
</symbol><symbol id="symfony">
    <path d="M64.046 18.078c-4.056.14-7.597 2.385-10.232 5.488-2.917 3.406-4.859 7.44-6.258 11.562-2.501-2.057-4.431-4.724-8.446-5.882-3.103-.897-6.362-.527-9.359 1.715-1.42 1.065-2.398 2.671-2.863 4.186-1.203 3.93 1.266 7.43 2.388 8.685l2.455 2.638c.505.518 1.724 1.868 1.129 3.804-.642 2.106-3.17 3.467-5.763 2.665-1.159-.358-2.82-1.223-2.449-2.442.154-.497.51-.873.702-1.3.173-.37.258-.65.311-.815.474-1.549-.174-3.568-1.829-4.082-1.545-.475-3.125-.097-3.738 1.897-.696 2.27.387 6.388 6.18 8.18C33.06 56.47 38.8 52.76 39.616 47.922c.514-3.028-.851-5.281-3.346-8.176l-2.035-2.26c-1.232-1.235-1.656-3.342-.38-4.96 1.075-1.368 2.607-1.95 5.12-1.264 3.665.998 5.298 3.55 8.023 5.61-1.124 3.707-1.86 7.425-2.525 10.761l-.409 2.486c-1.948 10.258-3.436 15.894-7.302 19.126-.778.558-1.893 1.39-3.57 1.448-.881.028-1.164-.58-1.176-.844-.02-.618.5-.904.845-1.183.518-.283 1.3-.753 1.245-2.253-.056-1.776-1.522-3.316-3.638-3.247-1.588.05-4.006 1.55-3.915 4.297.095 2.835 2.724 4.961 6.693 4.823 2.122-.072 6.858-.935 11.525-6.508 5.433-6.385 6.952-13.705 8.094-19.06l1.277-7.075c.707.087 1.466.146 2.29.164 6.768.145 10.15-3.372 10.203-5.932.032-1.549-1.013-3.075-2.48-3.037-1.046.029-2.361.73-2.678 2.184-.309 1.427 2.153 2.715.23 3.967-1.366.888-3.818 1.513-7.268 1.006l.627-3.48c1.28-6.604 2.86-14.724 8.853-14.923.437-.02 2.034.02 2.072 1.08.01.354-.079.448-.49 1.257-.422.632-.58 1.171-.562 1.789.06 1.685 1.336 2.793 3.184 2.728 2.472-.083 3.183-2.497 3.142-3.74-.102-2.919-3.166-4.763-7.219-4.628z" fill="#FFF" fill-rule="evenodd"/>
</symbol><symbol id="vue">
    <path d="M237.417 86.655l-30.226 52.352-30.224-52.352H76.31l130.88 226.69 130.88-226.69z" fill="#4dba87"/>
    <path d="M237.417 86.655l-30.226 52.352-30.224-52.352h-48.303L207.19 222.67l78.53-136.015z" fill="#435466"/>
</symbol><symbol id="windows">
    <path d="M27.006 32.432l15.405-2.097.006 14.858-15.397.088-.014-12.849zm15.397 14.473l.012 14.872-15.397-2.117V46.806l15.385.1zm1.868-16.845l20.425-2.98v17.924l-20.425.162V30.06zM64.7 47.045l-.005 17.845-20.425-2.883-.029-14.995 20.459.033z" fill="#01ADFF" fill-rule="evenodd"/>
</symbol><symbol id="woocommerce">
    <path d="M17.19 27h54.289c3.436 0 6.217 2.849 6.217 6.369v21.228c0 3.52-2.781 6.369-6.217 6.369H52.01l2.673 6.703-11.753-6.703H17.217c-3.436 0-6.217-2.85-6.217-6.369V33.37c-.027-3.493 2.754-6.37 6.19-6.37zm-2.392 5.805c.38-.528.949-.806 1.708-.861 1.383-.111 2.17.555 2.359 2 .84 5.804 1.762 10.72 2.738 14.747l5.938-11.581c.542-1.056 1.22-1.611 2.033-1.667 1.193-.083 1.925.694 2.223 2.333.678 3.694 1.546 6.832 2.576 9.499.705-7.055 1.898-12.137 3.579-15.276.406-.777 1.003-1.166 1.79-1.222.623-.055 1.192.139 1.707.556.515.416.787.944.84 1.583.028.5-.053.916-.27 1.333-1.058 2-1.925 5.36-2.63 10.026-.678 4.527-.922 8.055-.76 10.582.055.694-.054 1.305-.325 1.833-.325.61-.813.944-1.437 1-.705.055-1.436-.278-2.141-1.028-2.522-2.638-4.528-6.582-5.992-11.831a524.873 524.873 0 0 0-3.905 7.998c-1.6 3.139-2.955 4.75-4.094 4.833-.732.056-1.355-.583-1.897-1.916-1.383-3.639-2.874-10.666-4.474-21.08-.108-.723.054-1.362.434-1.861zm58.264 4.36c-.976-1.75-2.413-2.805-4.338-3.222a6.96 6.96 0 0 0-1.464-.166c-2.603 0-4.717 1.388-6.371 4.166-1.41 2.36-2.115 4.971-2.115 7.832 0 2.138.434 3.971 1.302 5.5.975 1.749 2.413 2.804 4.337 3.22a6.94 6.94 0 0 0 1.465.167c2.63 0 4.744-1.388 6.37-4.166 1.41-2.388 2.116-4.999 2.116-7.86.027-2.166-.434-3.971-1.302-5.47zm-16.972 0c-.976-1.75-2.44-2.805-4.338-3.222a6.957 6.957 0 0 0-1.464-.166c-2.603 0-4.718 1.388-6.371 4.166-1.41 2.36-2.115 4.971-2.115 7.832 0 2.138.434 3.971 1.301 5.5.976 1.749 2.413 2.804 4.338 3.22a6.943 6.943 0 0 0 1.464.167c2.63 0 4.745-1.388 6.372-4.166 1.41-2.388 2.114-4.999 2.114-7.86 0-2.166-.434-3.971-1.301-5.47zm-3.443 7.693c-.38 1.833-1.058 3.194-2.06 4.11-.787.723-1.52 1.028-2.197.89-.65-.14-1.193-.722-1.6-1.806a7.203 7.203 0 0 1-.487-2.527c0-.694.054-1.389.19-2.027a9.09 9.09 0 0 1 1.436-3.306c.895-1.36 1.844-1.916 2.82-1.722.65.14 1.193.723 1.6 1.806a7.2 7.2 0 0 1 .487 2.527 8.387 8.387 0 0 1-.19 2.055zm17 0c-.38 1.833-1.058 3.194-2.062 4.11-.786.723-1.518 1.028-2.195.89-.651-.14-1.194-.722-1.6-1.806a7.192 7.192 0 0 1-.488-2.527c0-.694.054-1.389.19-2.027a9.094 9.094 0 0 1 1.436-3.306c.895-1.36 1.844-1.916 2.82-1.722.651.14 1.193.723 1.6 1.806.325.86.488 1.722.488 2.527 0 .722-.054 1.416-.19 2.055z" fill="#FFF" fill-rule="evenodd"/>
</symbol><symbol id="wordpress">
    <path d="M46.055 19.81c-9.84-.018-19.102 5.817-23.352 15.053l11.951.028v1.307c-3.68-.442-3.356 1.469-2.835 3.497l7.846 19.663 5.766-13.517-2.647-6.335c-.961-1.697-.982-3.58-4.916-3.402l.056-1.205 17.528.043v1.35c-2.052.12-4.523-.517-3.214 3.687l7.09 18.623 3.876-10.872c1.269-4.557.074-8.937-1.434-13.232-.839-2.881-.447-5.287 3.312-6.242-5.738-5.857-12.51-8.435-19.027-8.447zm23.84 17.192L58.531 66.625c3.138-2.719 6.356-3.708 10.294-11.23 2.62-6.255 2.35-12.05 1.07-18.393zm-48.395.48c-1.11 8.745-1.008 11.306 1.738 18.448 3.579 6.84 6.354 8.28 10.294 10.963L21.5 37.482zm24.999 11.096l-8.422 20.32c5.911 1.687 11.2 1.476 16.043-.401l-7.62-19.92z" fill="#FFF" fill-rule="evenodd"/>
</symbol><symbol id="yarn" viewBox="-70 0 428.7 370.4">
    <path fill="#FFF" d="M318.4 248.8c-1.8-14.2-13.8-24-29.2-23.8-23 .3-42.3 12.2-55.1 20.1-5 3.1-9.3 5.4-13 7.1.8-11.6.1-26.8-5.9-43.5-7.3-20-17.1-32.3-24.1-39.4 8.1-11.8 19.2-29 24.4-55.6 4.5-22.7 3.1-58-7.2-77.8-2.1-4-5.6-6.9-10-8.1-1.8-.5-5.2-1.5-11.9.4-9.8-20.9-13.3-23.1-16-24.8C164.8-.2 158.2-1 152 1.3c-8.3 3-15.4 11-22.1 25.2-1 2.1-1.9 4.1-2.7 6.1-12.7.9-32.7 5.5-49.6 23.8-2.1 2.3-6.2 4-10.5 5.6h.1c-8.8 3-12.9 10.2-17.7 23.2-6.8 18.2.2 36.1 7.1 47.7-9.4 8.4-21.9 21.8-28.5 37.5-8.2 19.4-9.1 38.4-8.8 48.7-7 7.4-17.8 21.3-19 36.9-1.6 21.8 6.3 36.6 9.8 42 1 1.6 2.1 2.9 3.3 4.2-.4 2.7-.5 5.6.1 8.6 1.3 7 5.7 12.7 12.4 16.3 13.2 7 31.6 10 45.8 2.9 5.1 5.4 14.4 10.6 31.3 10.6h1c4.3 0 58.9-2.9 74.8-6.8 7.1-1.7 12-4.7 15.2-7.4 10.2-3.2 38.4-12.8 65-30 18.8-12.2 25.3-14.8 39.3-18.2 13.3-3.3 21.9-15.6 20.1-29.4zm-23.7 14.7c-16 3.8-24.1 7.3-43.9 20.2-31 20-64.8 29.3-64.8 29.3s-2.8 4.2-10.9 6.1c-14 3.4-66.7 6.3-71.5 6.4-12.9.1-20.8-3.3-23-8.6-6.7-16 9.6-23 9.6-23s-3.6-2.2-5.7-4.2c-1.9-1.9-3.9-5.7-4.5-4.3-2.5 6.1-3.8 21-10.5 27.7-9.2 9.3-26.6 6.2-36.9.8-11.3-6 .8-20.1.8-20.1s-6.1 3.6-11-3.8c-4.4-6.8-8.5-18.4-7.4-32.7 1.2-16.3 19.4-32.1 19.4-32.1s-3.2-24.1 7.3-48.8c9.5-22.5 35.1-40.6 35.1-40.6S55.3 112 63.3 90.6c5.2-14 7.3-13.9 9-14.5 6-2.3 11.8-4.8 16.1-9.5 21.5-23.2 48.9-18.8 48.9-18.8s13-39.5 25-31.8c3.7 2.4 17 32 17 32s14.2-8.3 15.8-5.2c8.6 16.7 9.6 48.6 5.8 68-6.4 32-22.4 49.2-28.8 60-1.5 2.5 17.2 10.4 29 43.1 10.9 29.9 1.2 55 2.9 57.8.3.5.4.7.4.7s12.5 1 37.6-14.5c13.4-8.3 29.3-17.6 47.4-17.8 17.5-.3 18.4 20.3 5.3 23.4z"/>
</symbol><symbol id="zendesk">
    <path d="M69.44 50.414a16.114 16.114 0 0 1-7.905 2.073c-1.745 0-3.474-.29-4.933-.871-2.668 2.406-5.54 4.092-6.985 4.875a15.734 15.734 0 0 0 9.536 6.9 15.68 15.68 0 0 0 3.803.466c2.813 0 5.52-.77 7.82-2.009.342-1.314.511-2.666.511-4.032 0-2.513-.6-5.052-1.848-7.402zm-3.261-19.81c-.474 3.16-1.841 5.97-3.757 8.06.101.554.17 1.162.17 1.798-.009 3.695-1.915 6.91-4.297 9.496a15.75 15.75 0 0 0 11.766-3.212A15.978 15.978 0 0 0 76 36.646c-2.253-2.964-5.563-5.09-9.25-6.017-.191-.04-.366-.117-.56-.15l-.011.125zm-2.514-2.702A15.93 15.93 0 0 0 59.367 17h-.228c-3.763 0-7.06 1.338-10.05 4.043 2.857 3.037 3.883 6.89 3.883 10.74 0 .31-.01.618-.019.917a7.916 7.916 0 0 1 1.935-.24h.17c2.457.049 4.935 1.27 6.355 3.57a15.761 15.761 0 0 0 2.252-8.128zM35.269 17.281c-.235 0-.46 0-.543-.046a15.721 15.721 0 0 0-4.115 10.618c0 .058 0 .108-.021.14.178 0 .358-.006.542-.006 4.331 0 8.295 1.725 11.102 4.5 2.358.167 4.77 1.418 6.04 3.9.682-1.334 1.695-2.309 2.764-2.807 0-.177.007-.362.007-.544 0-4.35-1.801-8.69-5.303-11.792a15.723 15.723 0 0 0-10.473-3.963zm4.905 15.51h-.004v.004c0-.003.004-.003.004-.003zm-.49-.08a15.72 15.72 0 0 0-10.707-1.907A15.938 15.938 0 0 0 19 36.957a15.731 15.731 0 0 0 5.863 9.893c2.366-3.174 5.68-5.223 9.107-5.88 0-.161-.007-.342-.007-.511-.007-4.3 2.665-6.962 5.722-7.749zM25.81 50.45a15.656 15.656 0 0 0-1.85 7.372c0 1.491.21 2.963.535 4.274a15.737 15.737 0 0 0 7.574 1.935c1.267 0 2.551-.152 3.847-.468a15.958 15.958 0 0 1-.59-4.281c0-3.375 1.07-6.614 2.968-9.297-1.829-1.973-3.38-4.31-4.018-6.951a15.718 15.718 0 0 0-8.466 7.416zm21.884 22.802c3.54-1.53 6.53-4.34 8.189-8.104-4.036-1.672-7.017-4.81-8.526-8.432-1.29-.666-4.62-2.53-7.653-5.32a15.798 15.798 0 0 0-1.756 7.235c0 2.144.425 4.324 1.373 6.41a16 16 0 0 0 8.373 8.21z" fill="#FFF" fill-rule="evenodd"/>
</symbol></svg>