<svg width="134" height="116" xmlns="http://www.w3.org/2000/svg"><g transform="translate(11 9)" fill="#FFF"><path d="M102.205 0H8.538C3.823 0 0 3.854 0 8.609V74.12c0 4.754 3.823 8.609 8.538 8.609h34.539l-3.473 12.425h-5.692c-.786 0-1.423.642-1.423 1.435 0 .792.637 1.434 1.423 1.434h42.934c.786 0 1.423-.642 1.423-1.434 0-.793-.637-1.435-1.423-1.435h-5.692L67.696 82.73h34.51c4.715 0 8.538-3.855 8.538-8.61V8.61c0-4.755-3.823-8.609-8.539-8.609zM68.208 95.17H42.593l3.472-12.426h18.67l3.473 12.425zm39.704-21.05c0 3.17-2.549 5.74-5.692 5.74H8.538c-3.143 0-5.692-2.57-5.692-5.74V8.61c0-3.17 2.549-5.74 5.692-5.74h93.667c3.144 0 5.693 2.57 5.693 5.74l.014 65.512z"/><path d="M101.038 10.144H9.705c-.786 0-1.423.642-1.423 1.435 0 .792.637 1.434 1.423 1.434h91.333a1.43 1.43 0 001.424-1.434 1.43 1.43 0 00-1.424-1.435zm0 57.29H9.705a1.43 1.43 0 00-1.423 1.436c0 .792.637 1.434 1.423 1.434h91.333a1.43 1.43 0 001.424-1.434 1.43 1.43 0 00-1.424-1.435z"/><ellipse cx="55.386" cy="75.183" rx="2.135" ry="2.152"/><path d="M101.038 18.337H89.07L78.625 28.882H74v-4.82H36.758v4.82h-4.625L21.688 18.337H9.705c-.786 0-1.423.642-1.423 1.434 0 .793.637 1.435 1.423 1.435h10.802l10.445 10.546h5.806v6.557H9.72c-.786 0-1.423.642-1.423 1.434 0 .793.637 1.435 1.423 1.435h27.038v7.849h-5.806l-10.445 10.53H9.705a1.43 1.43 0 00-1.423 1.436c0 .792.637 1.434 1.423 1.434h11.983l10.445-10.53h4.625v4.82H74v-4.82h4.625l10.445 10.53h11.968a1.43 1.43 0 001.424-1.434 1.43 1.43 0 00-1.424-1.435H90.252L79.806 49.027H74V42.47h27.038a1.43 1.43 0 001.424-1.435 1.43 1.43 0 00-1.424-1.435H74v-7.848h5.806l10.446-10.546h10.786a1.43 1.43 0 001.424-1.435 1.43 1.43 0 00-1.424-1.434zm-29.884 35.51h-31.55V26.931h31.55v26.916z"/><path d="M101.038 49.027h-9.961c-.786 0-1.423.642-1.423 1.434 0 .793.637 1.435 1.423 1.435h9.961a1.43 1.43 0 001.424-1.435 1.43 1.43 0 00-1.424-1.434zm0-20.145h-9.961c-.786 0-1.423.643-1.423 1.435s.637 1.435 1.423 1.435h9.961c.786 0 1.424-.643 1.424-1.435s-.638-1.435-1.424-1.435zm-91.333 2.87h9.962c.786 0 1.423-.643 1.423-1.435s-.637-1.435-1.423-1.435H9.705c-.786 0-1.423.643-1.423 1.435s.637 1.435 1.423 1.435zm0 20.144h9.962c.786 0 1.423-.642 1.423-1.435 0-.792-.637-1.434-1.423-1.434H9.705c-.786 0-1.423.642-1.423 1.434 0 .793.637 1.435 1.423 1.435zm51.06-8.12c2.257-3.328 1.63-7.84-1.447-10.413a7.695 7.695 0 00-10.417.487c-2.827 2.85-3.036 7.402-.484 10.503a7.698 7.698 0 0010.328 1.46l2.846 2.87c.266.273.63.428 1.01.43a1.443 1.443 0 001.01-2.453l-2.846-2.885zm-9.819-.919a4.855 4.855 0 01-1.423-3.472c0-2.717 2.172-4.927 4.867-4.95a4.776 4.776 0 013.444 1.435 4.913 4.913 0 011.423 3.472 4.855 4.855 0 01-1.423 3.472 4.937 4.937 0 01-6.888.043z"/></g></svg>