<svg width="90" height="90" viewBox="0 0 90 90" xmlns="http://www.w3.org/2000/svg"><title>community/card/logo/pyton</title><g fill="none" fill-rule="evenodd"><path d="M46.297 22.052c-11.743 0-11.01 5.075-11.01 5.075l.014 5.258h11.205v1.578H30.85s-7.514-.849-7.514 10.96c0 11.808 6.558 11.39 6.558 11.39h3.914v-5.48s-.21-6.537 6.454-6.537h11.114s6.244.1 6.244-6.014V28.17s.948-6.119-11.323-6.119zm-6.18 3.536a2.01 2.01 0 0 1 2.017 2.009 2.01 2.01 0 0 1-2.016 2.009 2.01 2.01 0 0 1-2.016-2.01 2.01 2.01 0 0 1 2.016-2.008z" fill="#FFF"/><path d="M46.896 68.483c11.742 0 11.009-5.075 11.009-5.075l-.013-5.258H46.686v-1.578h15.656s7.514.85 7.514-10.96c0-11.808-6.558-11.389-6.558-11.389h-3.914v5.48s.21 6.536-6.454 6.536H41.817s-6.245-.1-6.245 6.014v10.112s-.948 6.118 11.324 6.118zm6.678-4.003a2.01 2.01 0 0 1-2.016-2.009 2.01 2.01 0 0 1 2.016-2.009 2.01 2.01 0 0 1 2.016 2.01 2.01 2.01 0 0 1-2.016 2.008z" fill="#FFC168"/></g></svg>