<svg width="90" height="90" xmlns="http://www.w3.org/2000/svg"><path d="M53.04 32.024h.003c6.28.518 12.05 1.636 16.78 3.232a.749.749 0 1 1-.48 1.42 54.122 54.122 0 0 0-4.652-1.33c-.976 3.214-2.3 6.586-3.927 10a.759.759 0 0 1 .03.058c7.092 14.65 8.187 27.515 2.072 30.91-3.88 2.155-9.746.018-16.176-5.49a.749.749 0 1 1 .974-1.138c6.003 5.143 11.31 7.076 14.474 5.32 3.635-2.02 4.163-8.733 1.73-17.475-3.452.823-7.238 1.424-11.223 1.781-3.66 5.043-7.614 9.342-11.467 12.495a.749.749 0 1 1-.949-1.159c3.484-2.85 7.07-6.684 10.44-11.18a99.285 99.285 0 0 1-9.99.178.749.749 0 1 1 .048-1.497c1.052.033 2.11.05 3.174.05 7.04 0 13.776-.74 19.545-2.107-.877-2.85-2.053-5.889-3.523-9.033a90.766 90.766 0 0 1-3.214 5.823 92.91 92.91 0 0 1-1.834 2.93.749.749 0 0 1-1.254-.818 91.411 91.411 0 0 0 1.804-2.882c3.47-5.782 6.144-11.677 7.802-17.1a79.223 79.223 0 0 0-9.073-1.385 92.08 92.08 0 0 1 4.906 8.094.749.749 0 0 1-1.319.71 90.391 90.391 0 0 0-2.107-3.704c-3.377-5.628-7.23-10.682-11.175-14.725-2.193 2.182-4.414 4.732-6.58 7.598a100.584 100.584 0 0 1 10.674-.15.749.749 0 1 1-.058 1.497 99.087 99.087 0 0 0-11.81.245.75.75 0 0 1-.887.077c-3.87.357-7.54.946-10.881 1.747.936 2.806 2.137 5.737 3.577 8.709a91.218 91.218 0 0 1 4.745-8.125.749.749 0 1 1 1.253.82 90.954 90.954 0 0 0-1.885 3.007c-3.415 5.69-6.058 11.487-7.721 16.838 3.182.74 6.725 1.307 10.531 1.655a92.08 92.08 0 0 1-6.357-9.925.749.749 0 1 1 1.31-.725c.51.921 1.04 1.84 1.59 2.756 3.664 6.104 7.885 11.531 12.17 15.72a.749.749 0 1 1-1.047 1.072c-2.194-2.145-4.367-4.602-6.46-7.301a.755.755 0 0 1-.108-.001c-4.6-.358-8.865-1.025-12.64-1.944a.752.752 0 0 1-.236-.058C13.577 55.022 7.06 50.73 7.06 45.737c0-4.529 5.29-8.494 14.083-11.093a.749.749 0 0 1 .424 1.436c-8.217 2.43-13.01 6.022-13.01 9.657 0 4.03 5.794 7.825 14.872 10.17 1.051-3.4 2.488-6.973 4.259-10.582a.746.746 0 0 1-.2-.25c-2.673-5.392-4.591-10.687-5.6-15.409a.749.749 0 0 1 1.464-.313 50.772 50.772 0 0 0 1.107 4.233c3.51-.848 7.37-1.466 11.439-1.83 9.605-13.138 20.574-20.425 26.645-17.053 4.058 2.253 4.99 8.648 2.942 17.265a.749.749 0 1 1-1.458-.346c1.91-8.033 1.072-13.787-2.21-15.61-3.59-1.994-9.755.79-16.282 6.948 2.579 2.643 5.113 5.702 7.505 9.064zm-1.295 13.804c0-3.948-3.324-7.14-7.414-7.14s-7.414 3.192-7.414 7.14c0 3.949 3.324 7.14 7.414 7.14s7.414-3.191 7.414-7.14zm25.869-5.348c1.956 1.582 2.948 3.248 2.948 4.913 0 3.527-4.512 7.02-12.323 9.449a.749.749 0 0 0 .445 1.43c8.376-2.604 13.376-6.475 13.376-10.879 0-2.176-1.227-4.236-3.505-6.077a.749.749 0 1 0-.941 1.164zM23.386 21.042c.362-2.825 1.413-4.752 3.08-5.678 3.274-1.818 8.837.32 15.071 5.84a.749.749 0 0 0 .993-1.121c-6.661-5.9-12.786-8.253-16.791-6.028-2.138 1.187-3.421 3.54-3.838 6.797a.749.749 0 1 0 1.485.19zm8.49 54.035c-2.397.829-4.4.818-5.91-.022-3.274-1.817-4.116-7.544-2.227-15.545a.749.749 0 0 0-1.457-.345c-2.028 8.585-1.09 14.952 2.956 17.2 1.929 1.07 4.361 1.084 7.127.127a.749.749 0 0 0-.49-1.415zm8.079-.961c0-1.678-1.407-3.029-3.132-3.029-1.724 0-3.131 1.35-3.131 3.029 0 1.678 1.407 3.028 3.131 3.028 1.725 0 3.132-1.35 3.132-3.028zm36.788-36.287c0-1.678-1.407-3.028-3.132-3.028-1.724 0-3.131 1.35-3.131 3.028s1.407 3.028 3.131 3.028c1.725 0 3.132-1.35 3.132-3.028zm-51.647-12.98c0-1.678-1.407-3.029-3.131-3.029-1.725 0-3.132 1.35-3.132 3.029 0 1.678 1.407 3.028 3.132 3.028 1.724 0 3.131-1.35 3.131-3.028zm-3.131 1.905c-1.114 0-2.008-.858-2.008-1.905 0-1.047.894-1.905 2.008-1.905 1.114 0 2.008.858 2.008 1.905 0 1.047-.894 1.905-2.008 1.905zm51.646 12.98c-1.114 0-2.008-.858-2.008-1.905 0-1.047.894-1.905 2.008-1.905 1.114 0 2.008.858 2.008 1.905 0 1.047-.894 1.905-2.008 1.905zM36.823 76.021c-1.114 0-2.008-.858-2.008-1.905 0-1.047.894-1.905 2.008-1.905 1.114 0 2.008.858 2.008 1.905 0 1.047-.894 1.905-2.008 1.905zm13.799-30.193c0 3.318-2.812 6.017-6.291 6.017-3.48 0-6.29-2.7-6.29-6.017s2.81-6.016 6.29-6.016 6.291 2.699 6.291 6.016zm-7.88-.223c0-.942.809-1.718 1.821-1.718a.749.749 0 1 0 0-1.498c-1.826 0-3.319 1.433-3.319 3.216a.749.749 0 0 0 1.498 0z" stroke="#FFF" stroke-width=".8" fill="#FFF" fill-rule="evenodd"/></svg>