<svg width="90" height="90" xmlns="http://www.w3.org/2000/svg"><path d="M77.535 36.416L65.558 17.613a1.379 1.379 0 0 0-.991-.627l-9.446-1.193a1.383 1.383 0 0 0-1.323.604c-1.776 2.672-5.244 4.333-9.049 4.333-3.805 0-7.272-1.66-9.048-4.333a1.38 1.38 0 0 0-1.323-.604l-9.446 1.193c-.407.052-.77.282-.99.627L11.965 36.416a1.37 1.37 0 0 0 .176 1.695l10.12 10.347c.26.265.616.415.988.415h.008a1.38 1.38 0 0 0 .99-.426l.945-.988v26.305c0 .76.617 1.375 1.379 1.375h36.358c.762 0 1.38-.616 1.38-1.375V47.46l.943.988a1.384 1.384 0 0 0 1.987.011l10.12-10.347a1.37 1.37 0 0 0 .176-1.695zM66.262 45.52l-1.444-1.51-.51-12.08a1.38 1.38 0 0 0-2.758.059V69.22a.687.687 0 0 0 0 1.372v1.798h-33.6v-1.842a.682.682 0 0 0 .46-.641.683.683 0 0 0-.46-.642V31.988c0-.747-.6-1.357-1.35-1.373a1.36 1.36 0 0 0-1.407 1.316l-.51 12.078-1.445 1.51-8.36-8.547 11.045-17.34 7.992-1.011c2.383 3.015 6.449 4.856 10.835 4.856 4.386 0 8.45-1.842 10.834-4.856l7.992 1.01 11.046 17.34-8.36 8.548z" fill="#FFF" fill-rule="evenodd"/></svg>