<svg width="90" height="90" viewBox="0 0 90 90" xmlns="http://www.w3.org/2000/svg"><title>community/card/logo/ror</title><path d="M62.144 25.22l2.757 2-.5.75-2.34-1.25.083-1.5zm-8.019-2.418l.334 2.167-3.426.084-.5-2.418 3.592.167zm-10.61 1.168l2.005 2.25-2.756 1.584-2.005-2.417 2.757-1.417zm-9.355 7.169l2.923 1.917-2.254 2.667-3.008-2 2.339-2.584zm-7.435 11.004l3.843 1.501-1.17 3.251-3.926-1.25 1.253-3.502zm-4.177 13.922l4.344.333-.751 4.335-4.094-.5.501-4.168zM50.115 44.06l-.669 2.751-2.84-2.418 1.085-2.167 2.424 1.834zm-.836-7.17l1.754-1.584 1.671 2.501-1.003 1.751-2.422-2.667zm.419 14.59l.166 2.75-3.508-1.5.167-2.917 3.175 1.667zm1.502 8.67l1.588 3.252-4.427-.25-.836-3.002H51.2zm4.345-25.427l-1.085-2 2.338-.584.334 1.334-1.587 1.25zm6.098-1.834v-1.25l2.255.5v1l-2.255-.25zm4.93-.167s-2.507-2.835-7.102-2.335c-4.594.5-12.698 5.17-13.95 15.423-1.254 10.254 3.675 21.425 3.675 21.425h-22.22s-.585-3.668.835-10.671c1.42-7.003 3.508-11.672 7.1-18.34 3.593-6.67 9.356-12.173 17.71-12.922 8.353-.75 14.954 5.919 14.954 5.919l-1.003 1.501z" fill="#FF4F81" fill-rule="evenodd"/></svg>