<svg width="90" height="90" xmlns="http://www.w3.org/2000/svg"><path d="M60.616 22.066H29.958L15.164 35.922l30.123 31.395L75.41 35.922 60.616 22.066zm-1.74 14.66l-13.59 26.842-13.588-26.843h27.178zm-26.308-1.473l12.719-10.778 12.718 10.778H32.568zm14.727-10.978h11.982v10.108L47.295 24.275zM31.23 34.449V24.275h12.049l-12.05 10.174zm-1.138 2.276l12.316 24.433L18.98 36.725h11.112zm30.39 0h11.045L48.098 61.158l12.384-24.433zm.268-1.472V25.212l10.71 10.04H60.75zm-30.993 0H19.113l10.644-9.974v9.974z" fill="/*#FF4F81*/#FFF" fill-rule="evenodd"/></svg>