<svg width="90" height="90" xmlns="http://www.w3.org/2000/svg">
    <path d="M27.634 59.516c1.436.392 2.971.576 4.291 1.209 7.132 3.42 21.16-1.962 23.494-10.884 2.426-9.278-3.197-18.895-12.079-18.51-3.188.138-6.68 1.565-9.332 3.41-2.615 1.817-1.84 5.389-.35 7.64 1.053 1.59 3.625 2.23 5.616 3.063.229.096 1.376-1.232 1.58-2.031.32-1.257.197-2.626.283-4.354 3.207-.741 5.436.582 6.997 3.39 1.725 3.103 1.056 6.616-1.855 8.736-8.117 5.913-18.025 1.724-21.112-6.604-3.485-9.4-1.678-12.731 7.046-19.77 7.958-6.424 21.44-3.407 27.563 3.268 7.525 8.202 8.797 18.428 3.498 28.401-5.965 11.228-23.06 15.588-33.65 8.428-1.298-.877-1.916-2.762-2.849-4.18l.859-1.212" fill="#FFF" fill-rule="evenodd"/>
</svg>
