<svg width="90" height="90" xmlns="http://www.w3.org/2000/svg"><path d="M51.334 54.592a19.835 19.835 0 0 1-12.228 4.204C28.002 58.796 19 49.663 19 38.398 19 27.132 28.002 18 39.106 18c11.105 0 20.107 9.132 20.107 20.398 0 5.388-2.06 10.288-5.423 13.934l1.703 1.703.393-.393a2.004 2.004 0 0 1 2.83-.009L69.81 64.726c.779.78.774 2.047-.01 2.83l-3.215 3.217a2.004 2.004 0 0 1-2.831.009L52.661 59.689a2.002 2.002 0 0 1 .01-2.83l.465-.466-1.802-1.801zm-12.228.804c9.254 0 16.756-7.61 16.756-16.998 0-9.388-7.502-16.998-16.756-16.998-9.253 0-16.755 7.61-16.755 16.998 0 9.388 7.502 16.998 16.755 16.998z" fill="#FFF" fill-rule="evenodd"/></svg>