<svg width="90" height="90" xmlns="http://www.w3.org/2000/svg"><path d="M60.717 28.052a.548.548 0 0 0-.496-.46c-.206-.018-4.569-.341-4.569-.341s-3.03-3.009-3.362-3.341c-.333-.333-.983-.232-1.235-.158l-1.696.524c-1.012-2.913-2.798-5.59-5.94-5.59a3.99 3.99 0 0 0-.266.01c-.894-1.183-2-1.696-2.957-1.696-7.32 0-10.818 9.151-11.914 13.802-2.845.881-4.866 1.508-5.124 1.589-1.588.498-1.638.548-1.846 2.044A33990.64 33990.64 0 0 0 17 67.696l32.373 6.066 17.54-3.795s-6.157-41.63-6.196-41.915zM47.57 24.829l-2.739.848.002-.59c0-1.81-.251-3.268-.654-4.424 1.619.204 2.697 2.046 3.391 4.166zm-5.4-3.807c.45 1.128.743 2.747.743 4.932l-.002.317-5.658 1.752c1.09-4.204 3.132-6.235 4.917-7zm-2.175-2.059c.316 0 .634.108.939.317-2.346 1.104-4.861 3.885-5.923 9.437l-4.472 1.385c1.244-4.235 4.198-11.139 9.456-11.139zm3.423 18.32l-2.162 6.434s-1.895-1.012-4.218-1.012c-3.406 0-3.577 2.137-3.577 2.676 0 2.938 7.66 4.064 7.66 10.947 0 5.415-3.435 8.901-8.066 8.901-5.557 0-8.399-3.458-8.399-3.458l1.488-4.916s2.921 2.508 5.386 2.508c1.61 0 2.266-1.268 2.266-2.195 0-3.833-6.284-4.004-6.284-10.302 0-5.3 3.805-10.43 11.485-10.43 2.96 0 4.421.847 4.421.847z" fill="#FFF" fill-rule="evenodd"/></svg>