<svg width="90" height="90" xmlns="http://www.w3.org/2000/svg">
    <path d="M28.975 74.83c-3.99 0-7.729-.623-11.219-1.994a1.124 1.124 0 0 1-.748-.748C11.898 58.876 16.76 41.674 29.1 29.21 38.2 20.235 49.666 15 60.76 15c3.99 0 7.729.623 11.219 1.994.25.25.498.499.623.748 5.11 13.213.25 30.414-12.09 42.879-8.975 8.974-20.443 14.21-31.536 14.21zM39.33 48.84l1.999-2.011-2.5-2.499 1.728-1.727 2.493 2.494 1.99-2.002-2.429-2.429 1.727-1.726 2.423 2.423 2.012-2.025-2.515-2.562 1.743-1.71 2.494 2.54 2.93-2.948 1.731 1.721-2.95 2.97 2.382 2.426-1.743 1.71-2.36-2.404-1.998 2.01 2.412 2.412-1.727 1.726-2.406-2.407-1.99 2.002 2.342 2.341-1.726 1.727-2.336-2.336-2.015 2.027 2.346 2.388-1.743 1.711-2.324-2.367-2.841 2.858-1.732-1.721 2.862-2.88-2.552-2.599 1.743-1.71 2.53 2.577zm-7.46 22.74c9.338-.65 18.896-5.387 26.611-12.99 7.865-7.95 12.498-17.936 13.06-27.317-3.33-.369-6.483-1.883-8.908-4.308-2.938-2.72-3.936-6.215-4.292-8.845-9.504.618-19.355 5.385-27.089 13.119-7.887 7.973-12.464 17.993-13.011 27.397 3.492.28 6.817 1.818 9.348 4.35 2.348 2.347 3.856 5.348 4.28 8.594zm-2.453.076l-.118-.001c-3.42 0-6.594-.489-9.524-1.587-1.012-2.833-1.53-5.863-1.585-8.99 2.874.244 5.522 1.45 7.69 3.617 1.884 1.884 3.14 4.307 3.537 6.961zM71.594 28.83c-.053-3.154-.587-6.211-1.636-9.067a26.89 26.89 0 0 0-9.189-1.707c.293 2.21 1.245 4.98 3.572 7.202 2.058 2.057 4.548 3.248 7.253 3.572z" fill="#FFF" fill-rule="evenodd"/>
</svg>
