<svg xmlns="http://www.w3.org/2000/svg" viewBox="0 0 30 28"><path fill="#FFF" fill-rule="evenodd" d="M18.36.746c12.667 8.248 8.795 18.62 8.795 18.62s1.365 1.563 2.05 3.5c.68 1.937.674 4.31.55 4.373-.124.062-1.725-2.688-4.525-2.688-2.8 0-4.22 2.687-9.188 2.687C4.86 27.24.01 18.007.01 18.007s4.92 3.545 10.073 3.42c5.153-.125 6.58-1.625 6.58-1.625s-2.303-1.94-6.27-5.842c-3.966-3.9-7.698-9.28-7.698-9.28s5.979 4.77 7.897 6.174c1.26.917 2.54 1.81 3.836 2.674 0 0-1.858-2.016-3.166-3.638-1.31-1.622-4.658-6.52-4.658-6.52s5.137 4.666 7.473 6.52c2.336 1.852 6.806 4.977 6.806 4.977S23.577 8.68 18.36.744v.002z"/></svg>