<svg width="90" height="90" xmlns="http://www.w3.org/2000/svg"><path d="M69.44 50.414a16.114 16.114 0 0 1-7.905 2.073c-1.745 0-3.474-.29-4.933-.871-2.668 2.406-5.54 4.092-6.985 4.875a15.734 15.734 0 0 0 9.536 6.9 15.68 15.68 0 0 0 3.803.466c2.813 0 5.52-.77 7.82-2.009.342-1.314.511-2.666.511-4.032 0-2.513-.6-5.052-1.848-7.402zm-3.261-19.81c-.474 3.16-1.841 5.97-3.757 8.06.101.554.17 1.162.17 1.798-.009 3.695-1.915 6.91-4.297 9.496a15.75 15.75 0 0 0 11.766-3.212A15.978 15.978 0 0 0 76 36.646c-2.253-2.964-5.563-5.09-9.25-6.017-.191-.04-.366-.117-.56-.15l-.011.125zm-2.514-2.702A15.93 15.93 0 0 0 59.367 17h-.228c-3.763 0-7.06 1.338-10.05 4.043 2.857 3.037 3.883 6.89 3.883 10.74 0 .31-.01.618-.019.917a7.916 7.916 0 0 1 1.935-.24h.17c2.457.049 4.935 1.27 6.355 3.57a15.761 15.761 0 0 0 2.252-8.128zM35.269 17.281c-.235 0-.46 0-.543-.046a15.721 15.721 0 0 0-4.115 10.618c0 .058 0 .108-.021.14.178 0 .358-.006.542-.006 4.331 0 8.295 1.725 11.102 4.5 2.358.167 4.77 1.418 6.04 3.9.682-1.334 1.695-2.309 2.764-2.807 0-.177.007-.362.007-.544 0-4.35-1.801-8.69-5.303-11.792a15.723 15.723 0 0 0-10.473-3.963zm4.905 15.51h-.004v.004c0-.003.004-.003.004-.003zm-.49-.08a15.72 15.72 0 0 0-10.707-1.907A15.938 15.938 0 0 0 19 36.957a15.731 15.731 0 0 0 5.863 9.893c2.366-3.174 5.68-5.223 9.107-5.88 0-.161-.007-.342-.007-.511-.007-4.3 2.665-6.962 5.722-7.749zM25.81 50.45a15.656 15.656 0 0 0-1.85 7.372c0 1.491.21 2.963.535 4.274a15.737 15.737 0 0 0 7.574 1.935c1.267 0 2.551-.152 3.847-.468a15.958 15.958 0 0 1-.59-4.281c0-3.375 1.07-6.614 2.968-9.297-1.829-1.973-3.38-4.31-4.018-6.951a15.718 15.718 0 0 0-8.466 7.416zm21.884 22.802c3.54-1.53 6.53-4.34 8.189-8.104-4.036-1.672-7.017-4.81-8.526-8.432-1.29-.666-4.62-2.53-7.653-5.32a15.798 15.798 0 0 0-1.756 7.235c0 2.144.425 4.324 1.373 6.41a16 16 0 0 0 8.373 8.21z" fill="#FFF" fill-rule="evenodd"/></svg>