<?xml version="1.0" encoding="UTF-8"?>
<svg width="50px" height="44px" viewBox="0 0 50 44" version="1.1" xmlns="http://www.w3.org/2000/svg" xmlns:xlink="http://www.w3.org/1999/xlink">
    <!-- Generator: Sketch 40.1 (33804) - http://www.bohemiancoding.com/sketch -->
    <title>illus-integrations</title>
    <desc>Created with Sketch.</desc>
    <defs></defs>
    <g id="Page-1" stroke="none" stroke-width="1" fill="none" fill-rule="evenodd">
        <g id="Desktop-HD" transform="translate(-71.000000, -2209.000000)" stroke-width="1.5" stroke="#3C56C5" fill="#FFFFFF">
            <g id="tools" transform="translate(40.000000, 1437.000000)">
                <g id="Group-2">
                    <g id="illus-integrations" transform="translate(33.000000, 773.000000)">
                        <polygon id="Fill-542" points="23 41.5233748 5.75 35.6956236 5.75 12.3846188 23 18.21237"></polygon>
                        <polygon id="Fill-543" points="17.25 24.0401212 0 18.21237 5.75 12.3846188 23 18.21237"></polygon>
                        <polygon id="Fill-544" points="23 41.5233748 40.25 35.6956236 40.25 12.3846188 23 18.21237"></polygon>
                        <polygon id="Fill-545" points="28.75 24.0401212 46 18.21237 40.25 12.3846188 23 18.21237"></polygon>
                        <polygon id="Fill-546" points="5.75 12.3846188 23 18.21237 40.25 12.3846188 23 6.55686762"></polygon>
                        <polygon id="Fill-547" points="5.75 12.3846188 0 6.55686762 17.25 0 23 6.55686762"></polygon>
                        <polygon id="Fill-548" points="40.25 12.3846188 46 6.55686762 28.75 0 23 6.55686762"></polygon>
                        <polygon id="Fill-549" points="5.75 12.3846188 23 6.55686762 23 18.21237"></polygon>
                    </g>
                </g>
            </g>
        </g>
    </g>
</svg>