<?xml version="1.0" encoding="UTF-8" standalone="no"?>
<svg width="99px" height="30px" viewBox="0 0 99 30" version="1.1" xmlns="http://www.w3.org/2000/svg" xmlns:xlink="http://www.w3.org/1999/xlink" xmlns:sketch="http://www.bohemiancoding.com/sketch/ns">
    <!-- Generator: Sketch 3.5.2 (25235) - http://www.bohemiancoding.com/sketch -->
    <title>coming-soon</title>
    <desc>Created with Sketch.</desc>
    <defs></defs>
    <g id="Page-1" stroke="none" stroke-width="1" fill="none" fill-rule="evenodd" sketch:type="MSPage">
        <g id="coming-soon" sketch:type="MSLayerGroup" transform="translate(4.000000, 2.000000)" fill="#FFFFFF">
            <g id="Page-1" sketch:type="MSShapeGroup">
                <g id="coming-soon">
                    <g id="Page-1">
                        <g id="Group">
                            <g id="COMING-SOON">
                                <path d="M4.17423599,1.58207195 C3.46432836,1.58207195 2.91466527,1.84879038 2.52523023,2.38223527 C2.13579518,2.91568014 1.94108058,3.65904369 1.94108058,4.61234822 C1.94108058,6.59603297 2.68545828,7.58786047 4.17423599,7.58786047 C4.7989547,7.58786047 5.55550206,7.43168313 6.44390074,7.11932377 L6.44390074,8.70139569 C5.71371005,9.00564184 4.89834266,9.1577626 3.99777412,9.1577626 C2.70371393,9.1577626 1.71391471,8.765291 1.02834677,7.980336 C0.342778824,7.195381 2.22044605e-15,6.06867308 2.22044605e-15,4.60017844 C2.22044605e-15,3.67527021 0.168347001,2.86497352 0.505046043,2.16926404 C0.841745092,1.47355456 1.32548918,0.940117687 1.95629281,0.568937416 C2.58709645,0.197757137 3.32640345,0.0121697843 4.17423599,0.0121697843 C5.03829499,0.0121697843 5.90639758,0.221082324 6.77856981,0.638913669 L6.17008061,2.17230648 C5.83743817,2.0140985 5.50277245,1.87617566 5.1660734,1.75853382 C4.82937436,1.64089198 4.49876519,1.58207195 4.17423599,1.58207195 L4.17423599,1.58207195 L4.17423599,1.58207195 Z M16.1614735,4.57583887 C16.1614735,6.04839012 15.7963836,7.18016874 15.0661929,7.97120866 C14.3360021,8.76224861 13.2894112,9.1577626 11.9263885,9.1577626 C10.5633659,9.1577626 9.51677492,8.76224861 8.78658419,7.97120866 C8.05639353,7.18016874 7.69130364,6.04433357 7.69130364,4.56366909 C7.69130364,3.0830046 8.05740761,1.95224013 8.78962666,1.17134173 C9.5218457,0.39044334 10.5714791,0 11.9385583,0 C13.3056376,0 14.3512144,0.393485755 15.0753202,1.18046907 C15.799426,1.96745239 16.1614735,3.099231 16.1614735,4.57583887 L16.1614735,4.57583887 L16.1614735,4.57583887 Z M9.66889359,4.57583887 C9.66889359,5.56970955 9.85752333,6.3181438 10.2347885,6.82116406 C10.6120538,7.32418432 11.1759147,7.57569066 11.9263885,7.57569066 C13.4313927,7.57569066 14.1838835,6.57575008 14.1838835,4.57583887 C14.1838835,2.57187105 13.4354492,1.56990216 11.9385583,1.56990216 C11.1880845,1.56990216 10.6221953,1.82242266 10.2408735,2.32747123 C9.85955164,2.8325198 9.66889359,3.58196819 9.66889359,4.57583887 L9.66889359,4.57583887 L9.66889359,4.57583887 Z M21.771744,9.03606479 L19.629862,2.05669354 L19.5750979,2.05669354 C19.6521736,3.47650879 19.6907109,4.42371419 19.6907109,4.89833815 L19.6907109,9.03606479 L18.0051957,9.03606479 L18.0051957,0.139952519 L20.5730202,0.139952519 L22.6783929,6.9428619 L22.7149023,6.9428619 L24.9480577,0.139952519 L27.5158822,0.139952519 L27.5158822,9.03606479 L25.7573483,9.03606479 L25.7573483,4.82531944 C25.7573483,4.62654531 25.7603908,4.39735 25.7664756,4.13772663 C25.7725606,3.87810327 25.7999423,3.18848907 25.8486217,2.06886332 L25.7938576,2.06886332 L23.4998534,9.03606479 L21.771744,9.03606479 L21.771744,9.03606479 Z M29.7551224,9.03606479 L29.7551224,0.139952519 L31.641439,0.139952519 L31.641439,9.03606479 L29.7551224,9.03606479 L29.7551224,9.03606479 Z M41.7727843,9.03606479 L39.3753368,9.03606479 L35.5053455,2.30617411 L35.4505814,2.30617411 C35.5276572,3.49476231 35.5661944,4.34258213 35.5661944,4.84965901 L35.5661944,9.03606479 L33.8806793,9.03606479 L33.8806793,0.139952519 L36.2598721,0.139952519 L40.1237786,6.80290939 L40.1663729,6.80290939 C40.1055236,5.6467741 40.0750995,4.82937843 40.0750995,4.35069786 L40.0750995,0.139952519 L41.7727843,0.139952519 L41.7727843,9.03606479 L41.7727843,9.03606479 Z M47.3891398,4.04036836 L50.9183772,4.04036836 L50.9183772,8.65271659 C50.3463945,8.83932087 49.8078869,8.97014479 49.3028383,9.04519213 C48.7977898,9.12023947 48.2815932,9.1577626 47.7542333,9.1577626 C46.4114937,9.1577626 45.3861997,8.76326276 44.6783203,7.97425113 C43.9704411,7.1852395 43.6165067,6.05244674 43.6165067,4.57583887 C43.6165067,3.13979715 44.0272328,2.0201882 44.8486973,1.21697842 C45.6701619,0.413768647 46.8090395,0.0121697843 48.2653642,0.0121697843 C49.1781026,0.0121697843 50.0583749,0.194714722 50.9062074,0.559810076 L50.2794635,2.06886332 C49.6304051,1.74433412 48.9549888,1.58207195 48.2531944,1.58207195 C47.4378149,1.58207195 46.7847096,1.85588935 46.2938592,2.40353239 C45.8030088,2.95117541 45.5575873,3.68743999 45.5575873,4.61234822 C45.5575873,5.57782259 45.7553443,6.31510132 46.1508643,6.82420651 C46.5463842,7.33331169 47.1214007,7.58786047 47.8759312,7.58786047 C48.2694228,7.58786047 48.6689934,7.54729494 49.0746549,7.46616262 L49.0746549,5.61027053 L47.3891398,5.61027053 L47.3891398,4.04036836 L47.3891398,4.04036836 Z M61.5243441,6.56559859 C61.5243441,7.36880836 61.2353147,8.00163084 60.657247,8.46408493 C60.0791794,8.92653902 59.2749676,9.1577626 58.2445873,9.1577626 C57.2953394,9.1577626 56.4556326,8.97927421 55.725442,8.6222921 L55.725442,6.8698432 C56.325821,7.13757979 56.8339044,7.32620955 57.2497074,7.43573816 C57.6655105,7.54526678 58.0458125,7.60003028 58.3906247,7.60003028 C58.8043994,7.60003028 59.1218248,7.52092747 59.3429103,7.36271945 C59.5639959,7.20451147 59.6745369,6.96923133 59.6745369,6.65687197 C59.6745369,6.48243753 59.6258583,6.32727433 59.5284995,6.19137772 C59.4311408,6.05548112 59.2881472,5.92465725 59.0995146,5.79890218 C58.910882,5.67314712 58.5265235,5.47234768 57.9464276,5.19649786 C57.4028412,4.94093112 56.9951575,4.69550959 56.7233643,4.46022592 C56.4515711,4.22494225 56.2345454,3.95112484 56.0722808,3.63876548 C55.9100163,3.32640613 55.8288851,2.96131625 55.8288851,2.5434849 C55.8288851,1.75650159 56.0956036,1.13787708 56.6290485,0.68759281 C57.1624934,0.237308541 57.8997721,0.0121697843 58.8409067,0.0121697843 C59.3033609,0.0121697843 59.7445111,0.0669332652 60.1643707,0.176461871 C60.5842305,0.285990477 61.0233524,0.440139536 61.4817499,0.638913669 L60.8732607,2.10537267 C60.3986367,1.91065515 60.0061651,1.77476059 59.6958341,1.6976849 C59.385503,1.62060921 59.0802473,1.58207195 58.7800578,1.58207195 C58.4230757,1.58207195 58.1492583,1.66523131 57.9585974,1.83155252 C57.7679365,1.99787374 57.6726075,2.21489939 57.6726075,2.48263598 C57.6726075,2.6489572 57.7111447,2.79397901 57.7882204,2.91770577 C57.8652961,3.04143253 57.9880069,3.16110088 58.1563564,3.2767144 C58.3247059,3.39232793 58.7232624,3.60022633 59.3520377,3.90041585 C60.1836437,4.29796412 60.7535896,4.69652056 61.0618924,5.09609714 C61.3701951,5.49567373 61.5243441,5.98550264 61.5243441,6.56559859 L61.5243441,6.56559859 L61.5243441,6.56559859 Z M71.2114924,4.57583887 C71.2114924,6.04839012 70.8464025,7.18016874 70.1162118,7.97120866 C69.3860211,8.76224861 68.3394301,9.1577626 66.9764075,9.1577626 C65.6133849,9.1577626 64.5667938,8.76224861 63.8366032,7.97120866 C63.1064125,7.18016874 62.7413226,6.04433357 62.7413226,4.56366909 C62.7413226,3.0830046 63.1074266,1.95224013 63.8396456,1.17134173 C64.5718646,0.39044334 65.621498,0 66.9885773,0 C68.3556566,0 69.4012334,0.393485755 70.1253391,1.18046907 C70.8494449,1.96745239 71.2114924,3.099231 71.2114924,4.57583887 L71.2114924,4.57583887 L71.2114924,4.57583887 Z M64.7189125,4.57583887 C64.7189125,5.56970955 64.9075423,6.3181438 65.2848075,6.82116406 C65.6620727,7.32418432 66.2259337,7.57569066 66.9764075,7.57569066 C68.4814117,7.57569066 69.2339025,6.57575008 69.2339025,4.57583887 C69.2339025,2.57187105 68.4854682,1.56990216 66.9885773,1.56990216 C66.2381035,1.56990216 65.6722142,1.82242266 65.2908924,2.32747123 C64.9095706,2.8325198 64.7189125,3.58196819 64.7189125,4.57583887 L64.7189125,4.57583887 L64.7189125,4.57583887 Z M81.1298666,4.57583887 C81.1298666,6.04839012 80.7647768,7.18016874 80.0345858,7.97120866 C79.3043955,8.76224861 78.2578047,9.1577626 76.8947815,9.1577626 C75.531759,9.1577626 74.485168,8.76224861 73.7549773,7.97120866 C73.0247866,7.18016874 72.6596967,6.04433357 72.6596967,4.56366909 C72.6596967,3.0830046 73.0258007,1.95224013 73.7580198,1.17134173 C74.4902388,0.39044334 75.5398721,0 76.9069511,0 C78.274031,0 79.3196075,0.393485755 80.043713,1.18046907 C80.7678192,1.96745239 81.1298666,3.099231 81.1298666,4.57583887 L81.1298666,4.57583887 L81.1298666,4.57583887 Z M74.6372867,4.57583887 C74.6372867,5.56970955 74.8259164,6.3181438 75.2031816,6.82116406 C75.5804469,7.32418432 76.1443078,7.57569066 76.8947815,7.57569066 C78.3997859,7.57569066 79.1522766,6.57575008 79.1522766,4.57583887 C79.1522766,2.57187105 78.4038427,1.56990216 76.9069511,1.56990216 C76.1564776,1.56990216 75.5905884,1.82242266 75.2092665,2.32747123 C74.8279447,2.8325198 74.6372867,3.58196819 74.6372867,4.57583887 L74.6372867,4.57583887 L74.6372867,4.57583887 Z M90.8656939,9.03606479 L88.4682464,9.03606479 L84.5982549,2.30617411 L84.543491,2.30617411 C84.6205669,3.49476231 84.6591036,4.34258213 84.6591036,4.84965901 L84.6591036,9.03606479 L82.9735889,9.03606479 L82.9735889,0.139952519 L85.352782,0.139952519 L89.2166879,6.80290939 L89.2592822,6.80290939 C89.1984336,5.6467741 89.1680088,4.82937843 89.1680088,4.35069786 L89.1680088,0.139952519 L90.8656939,0.139952519 L90.8656939,9.03606479 L90.8656939,9.03606479 Z" id="Shape"></path>
                            </g>
                            <rect id="Rectangle-1" x="23" y="20" width="46" height="2"></rect>
                        </g>
                    </g>
                </g>
            </g>
        </g>
    </g>
</svg>