<?xml version="1.0" encoding="UTF-8" standalone="no"?>
<svg width="219px" height="96px" viewBox="0 0 219 96" version="1.1" xmlns="http://www.w3.org/2000/svg" xmlns:xlink="http://www.w3.org/1999/xlink" xmlns:sketch="http://www.bohemiancoding.com/sketch/ns">
    <!-- Generator: Sketch 3.5.2 (25235) - http://www.bohemiancoding.com/sketch -->
    <title>illus-searchbox</title>
    <desc>Created with Sketch.</desc>
    <defs></defs>
    <g id="Page-1" stroke="none" stroke-width="1" fill="none" fill-rule="evenodd" sketch:type="MSPage">
        <g id="Desktop-HD" sketch:type="MSArtboardGroup" transform="translate(-14.000000, -988.000000)" fill="#FFFFFF">
            <g id="searchbox" sketch:type="MSLayerGroup" transform="translate(14.000000, 988.000000)">
                <g id="illus-searchbox" transform="translate(93.322798, 11.639019) rotate(-15.000000) translate(-93.322798, -11.639019) translate(-26.677202, -62.360981)" sketch:type="MSShapeGroup">
                    <path d="M41.2029312,28.4584313 C39.6214369,29.7652295 37.593041,30.5503875 35.3812616,30.5503875 C30.3304016,30.5503875 26.2358705,26.4558564 26.2358705,21.4049964 C26.2358705,16.3541363 30.3304016,12.2596052 35.3812616,12.2596052 C40.4321217,12.2596052 44.5266528,16.3541363 44.5266528,21.4049964 C44.5266528,23.6167757 43.7414947,25.6451716 42.4346966,27.226666 L48.3169324,33.1089018 C48.6558961,33.4478655 48.6573119,33.9960186 48.3147978,34.3385326 C47.9746552,34.6786752 47.4227201,34.6782202 47.0851671,34.3406672 L41.2029312,28.4584313 Z M37.7764831,46.8814432 C50.5238919,46.8814432 60.8577084,36.5476266 60.8577084,23.8002179 C60.8577084,11.0528091 50.5238919,0.718992563 37.7764831,0.718992563 C25.0290744,0.718992563 14.6952578,11.0528091 14.6952578,23.8002179 C14.6952578,36.5476266 25.0290744,46.8814432 37.7764831,46.8814432 Z M37.7764831,44.5733206 C49.249151,44.5733206 58.5495859,35.2728857 58.5495859,23.8002179 C58.5495859,12.32755 49.249151,3.02711509 37.7764831,3.02711509 C26.3038153,3.02711509 17.0033803,12.32755 17.0033803,23.8002179 C17.0033803,35.2728857 26.3038153,44.5733206 37.7764831,44.5733206 Z M35.3812616,28.8084083 C39.4700531,28.8084083 42.7846735,25.4937879 42.7846735,21.4049964 C42.7846735,17.3162049 39.4700531,14.0015845 35.3812616,14.0015845 C31.2924701,14.0015845 27.9778497,17.3162049 27.9778497,21.4049964 C27.9778497,25.4937879 31.2924701,28.8084083 35.3812616,28.8084083 Z" id="sbx-icon-search-20"></path>
                    <path d="M172.255989,131.593421 L167.90461,127.242041 C167.119895,126.457326 165.858591,126.462587 165.077397,127.243781 L164.63814,127.683038 C163.853807,128.46737 163.856167,129.730018 164.6364,130.510251 L168.987936,134.861786 L172.255989,131.593421 Z M172.875266,132.212698 L173.811662,133.149094 C174.591895,133.929327 174.594255,135.191974 173.809923,135.976306 L173.370665,136.415564 C172.589472,137.196757 171.328168,137.202018 170.543453,136.417303 L169.607213,135.481063 L172.875266,132.212698 Z M160.374969,126.039645 C157.98168,127.805554 155.023058,128.849311 151.820678,128.849311 C143.854922,128.849311 137.397401,122.391172 137.397401,114.424655 C137.397401,106.458138 143.854922,100 151.820678,100 C159.786433,100 166.243954,106.458138 166.243954,114.424655 C166.243954,117.627391 165.200266,120.586337 163.434476,122.979874 L165.854718,125.400116 C167.006238,125.20517 168.231703,125.552341 169.123854,126.444492 L174.475832,131.79647 C175.935829,133.256466 175.933333,135.626084 174.476892,137.082526 C173.01748,138.541938 170.655174,138.545805 169.190835,137.081466 L163.838857,131.729489 C162.949658,130.840289 162.602944,129.613682 162.796785,128.46146 L160.374969,126.039645 Z M160.958096,123.645767 C158.612358,125.970789 155.384206,127.406845 151.820678,127.406845 C144.651497,127.406845 138.839728,121.594521 138.839728,114.424655 C138.839728,107.25479 144.651497,101.442466 151.820678,101.442466 C158.989858,101.442466 164.801627,107.25479 164.801627,114.424655 C164.801627,117.988974 163.365346,121.217799 161.04003,123.563833 L160.958096,123.645767 Z M161.775389,125.423304 L162.806754,124.391938 L164.049982,125.635166 C164.33677,125.921954 164.340364,126.383335 164.053575,126.670125 C163.768771,126.954929 163.307476,126.955391 163.018616,126.666531 L161.775389,125.423304 Z M151.820678,125.243147 C157.794994,125.243147 162.638135,120.399543 162.638135,114.424655 C162.638135,108.449767 157.794994,103.606164 151.820678,103.606164 C145.846361,103.606164 141.00322,108.449767 141.00322,114.424655 C141.00322,120.399543 145.846361,125.243147 151.820678,125.243147 Z M151.820678,123.980989 C157.097991,123.980989 161.376099,119.702473 161.376099,114.424655 C161.376099,109.146838 157.097991,104.868321 151.820678,104.868321 C146.543364,104.868321 142.265257,109.146838 142.265257,114.424655 C142.265257,119.702473 146.543364,123.980989 151.820678,123.980989 Z" id="sbx-icon-search-19" transform="translate(156.486180, 119.089201) rotate(10.000000) translate(-156.486180, -119.089201) "></path>
                    <path d="M49.4796417,93.3865531 C49.1328626,92.748259 49.2275873,91.9352978 49.7714633,91.3914218 C50.3109102,90.8519749 51.1282838,90.7577578 51.7656863,91.1005084 L49.4796417,93.3865531 Z M52.4574759,91.6921928 L56.3583932,95.5931101 C57.0172096,96.2519265 57.0219233,97.3153651 56.358665,97.9786235 C55.6999987,98.6372898 54.6269858,98.6321859 53.9731516,97.9783518 L50.0722343,94.0774345 L52.4574759,91.6921928 Z M42.7846808,93.2545638 C47.9296054,93.2545638 52.1003908,89.0837784 52.1003908,83.9388539 C52.1003908,78.7939293 47.9296054,74.6231439 42.7846808,74.6231439 C37.6397563,74.6231439 33.4689709,78.7939293 33.4689709,83.9388539 C33.4689709,89.0837784 37.6397563,93.2545638 42.7846808,93.2545638 Z M42.7846808,90.9256363 C46.6433742,90.9256363 49.7714633,87.7975473 49.7714633,83.9388539 C49.7714633,80.0801605 46.6433742,76.9520714 42.7846808,76.9520714 C38.9259874,76.9520714 35.7978984,80.0801605 35.7978984,83.9388539 C35.7978984,87.7975473 38.9259874,90.9256363 42.7846808,90.9256363 Z" id="sbx-icon-search-12"></path>
                    <path d="M100.267906,115.140659 C105.456751,115.140659 109.663142,110.934268 109.663142,105.745423 C109.663142,100.556577 105.456751,96.3501867 100.267906,96.3501867 C95.0790601,96.3501867 90.8726696,100.556577 90.8726696,105.745423 C90.8726696,110.934268 95.0790601,115.140659 100.267906,115.140659 Z M100.267906,112.79185 C104.15954,112.79185 107.314333,109.637057 107.314333,105.745423 C107.314333,101.853789 104.15954,98.6989957 100.267906,98.6989957 C96.3762715,98.6989957 93.2214786,101.853789 93.2214786,105.745423 C93.2214786,109.637057 96.3762715,112.79185 100.267906,112.79185 Z M107.782169,115.252716 C107.232872,114.70342 107.229897,113.815809 107.784094,113.261611 C108.334455,112.711251 109.22682,112.711307 109.775199,113.259686 L114.429455,117.913942 C114.978752,118.463238 114.981727,119.350849 114.42753,119.905047 C113.877169,120.455407 112.984804,120.455352 112.436425,119.906972 L107.782169,115.252716 Z" id="sbx-icon-search-11" transform="translate(102.954092, 108.431412) rotate(99.000000) translate(-102.954092, -108.431412) "></path>
                    <path d="M230.629769,109.530418 C229.194045,110.305709 227.550677,110.745784 225.804523,110.745784 C220.187881,110.745784 215.634694,106.192597 215.634694,100.575955 C215.634694,94.959314 220.187881,90.4061265 225.804523,90.4061265 C231.421164,90.4061265 235.974352,94.959314 235.974352,100.575955 C235.974352,102.520959 235.428339,104.338435 234.481231,105.883464 C234.65072,105.990275 234.811149,106.117613 234.959053,106.265517 L238.594113,109.900576 C239.660209,110.966673 239.655552,112.699814 238.58857,113.766796 C237.519412,114.835953 235.792833,114.842821 234.722351,113.772339 L231.087291,110.137279 C230.902696,109.952684 230.750203,109.74809 230.629769,109.530418 Z M225.804523,107.084646 C229.399173,107.084646 232.313213,104.170606 232.313213,100.575955 C232.313213,96.9813049 229.399173,94.0672649 225.804523,94.0672649 C222.209872,94.0672649 219.295832,96.9813049 219.295832,100.575955 C219.295832,104.170606 222.209872,107.084646 225.804523,107.084646 Z" id="sbx-icon-search-9"></path>
                    <path d="M17.2837699,127.001785 C15.5147901,128.261511 13.3507081,129.002403 11.0135815,129.002403 C5.03706174,129.002403 0.192135181,124.157477 0.192135181,118.180957 C0.192135181,112.204437 5.03706174,107.359511 11.0135815,107.359511 C16.9901013,107.359511 21.8350279,112.204437 21.8350279,118.180957 C21.8350279,120.518084 21.0941358,122.682166 19.8344092,124.451145 L23.8200005,128.436737 C24.5279313,129.144668 24.5357532,130.284628 23.826503,130.993879 C23.1221634,131.698218 21.9857634,131.703778 21.2816901,130.999705 L17.2837699,127.001785 Z M11.0135815,127.198829 C15.9940147,127.198829 20.0314535,123.16139 20.0314535,118.180957 C20.0314535,113.200524 15.9940147,109.163085 11.0135815,109.163085 C6.03314837,109.163085 1.99570957,113.200524 1.99570957,118.180957 C1.99570957,123.16139 6.03314837,127.198829 11.0135815,127.198829 Z M11.0135815,111.147017 C7.12884366,111.147017 3.9796414,114.296219 3.9796414,118.180957 C3.9796414,118.479783 4.22188773,118.722029 4.52071372,118.722029 C4.81953971,118.722029 5.06178603,118.479783 5.06178603,118.180957 C5.06178603,114.893871 7.72649564,112.229162 11.0135815,112.229162 C11.3124075,112.229162 11.5546538,111.986915 11.5546538,111.688089 C11.5546538,111.389263 11.3124075,111.147017 11.0135815,111.147017 Z" id="sbx-icon-search-6" transform="translate(12.273291, 119.440736) rotate(-90.000000) translate(-12.273291, -119.440736) "></path>
                    <path d="M81.3840682,80.4372068 C79.0861542,82.2048526 76.2083754,83.2558689 73.0851186,83.2558689 C65.5611881,83.2558689 59.4618373,77.1565181 59.4618373,69.6325876 C59.4618373,62.108657 65.5611881,56.0093062 73.0851186,56.0093062 C80.6090492,56.0093062 86.7084,62.108657 86.7084,69.6325876 C86.7084,73.2192339 85.3223746,76.4821567 83.0567216,78.9149583 L84.2399334,80.0981701 C85.0246909,79.4731269 86.1758923,79.5284593 86.8952264,80.2477934 L93.3654868,86.7180538 C94.1449941,87.4975611 94.1447891,88.7615971 93.3648482,89.541538 L92.0858503,90.8205359 C91.3059903,91.6003959 90.0350361,91.5938445 89.2623661,90.8211745 L82.7921057,84.3509141 C82.0664013,83.6252097 82.0164897,82.4795542 82.6423899,81.6955285 L81.3840682,80.4372068 Z M73.0851186,80.985322 C79.3550608,80.985322 84.4378531,75.9025297 84.4378531,69.6325876 C84.4378531,63.3626455 79.3550608,58.2798531 73.0851186,58.2798531 C66.8151765,58.2798531 61.7323842,63.3626455 61.7323842,69.6325876 C61.7323842,75.9025297 66.8151765,80.985322 73.0851186,80.985322 Z" id="sbx-icon-search-5" transform="translate(76.931126, 73.932853) rotate(50.000000) translate(-76.931126, -73.932853) "></path>
                    <path d="M198.401115,78.4792966 C196.09823,80.349585 193.162127,81.4704435 189.964233,81.4704435 C182.567905,81.4704435 176.571997,75.4745351 176.571997,68.0782073 C176.571997,60.6818795 182.567905,54.6859711 189.964233,54.6859711 C197.360561,54.6859711 203.356469,60.6818795 203.356469,68.0782073 C203.356469,71.5200113 202.05811,74.6585672 199.924455,77.0308102 L209.814481,86.9208356 C210.22423,87.3305846 210.226625,87.9925242 209.81344,88.4057086 C209.403116,88.8160323 208.732418,88.8105999 208.328567,88.4067493 L198.401115,78.4792966 Z M198.172667,80.7283978 C195.81064,82.2642096 192.991629,83.1564146 189.964233,83.1564146 C181.636769,83.1564146 174.886026,76.4056713 174.886026,68.0782073 C174.886026,59.7507434 181.636769,53 189.964233,53 C198.291697,53 205.04244,59.7507434 205.04244,68.0782073 C205.04244,71.3523666 203.99886,74.3827848 202.226178,76.8549844 L211.2189,85.8477064 C212.311171,86.9399775 212.307154,88.7149164 211.214901,89.8071693 C210.120421,90.9016491 208.348689,90.9044191 207.255438,89.8111686 L198.172667,80.7283978 Z M189.964233,79.3300709 C196.178466,79.3300709 201.216097,74.2924399 201.216097,68.0782073 C201.216097,61.8639747 196.178466,56.8263438 189.964233,56.8263438 C183.75,56.8263438 178.712369,61.8639747 178.712369,68.0782073 C178.712369,74.2924399 183.75,79.3300709 189.964233,79.3300709 Z M189.964233,78.2833355 C184.328096,78.2833355 179.759105,73.714344 179.759105,68.0782073 C179.759105,62.4420706 184.328096,57.8730791 189.964233,57.8730791 C195.60037,57.8730791 200.169361,62.4420706 200.169361,68.0782073 C200.169361,73.714344 195.60037,78.2833355 189.964233,78.2833355 L189.964233,78.2833355 Z" id="sbx-icon-search-2" transform="translate(193.461063, 71.814785) rotate(78.000000) translate(-193.461063, -71.814785) "></path>
                    <path d="M208.50471,141.336763 C207.302715,142.329979 205.761057,142.926729 204.080022,142.926729 C200.241178,142.926729 197.12918,139.814731 197.12918,135.975887 C197.12918,132.137043 200.241178,129.025045 204.080022,129.025045 C207.918866,129.025045 211.030864,132.137043 211.030864,135.975887 C211.030864,137.656922 210.434114,139.19858 209.440898,140.400575 L213.906856,144.866533 C214.167111,145.126789 214.17032,145.545538 213.909997,145.805862 C213.651475,146.064383 213.231984,146.064037 212.970667,145.802721 L208.50471,141.336763 Z M204.080022,141.602759 C207.187657,141.602759 209.706894,139.083522 209.706894,135.975887 C209.706894,132.868251 207.187657,130.349015 204.080022,130.349015 C200.972386,130.349015 198.45315,132.868251 198.45315,135.975887 C198.45315,139.083522 200.972386,141.602759 204.080022,141.602759 Z M214.235854,142.092595 C215.38085,140.215227 215.995751,138.057181 215.995751,135.810391 C215.995751,129.138114 210.586802,123.729165 203.914525,123.729165 C197.242249,123.729165 191.8333,129.138114 191.8333,135.810391 C191.8333,142.482667 197.242249,147.891616 203.914525,147.891616 C206.185599,147.891616 208.365801,147.26332 210.25672,146.094892 C210.567738,145.902709 210.664072,145.494784 210.47189,145.183766 C210.279707,144.872748 209.871782,144.776413 209.560764,144.968596 C207.877504,146.008709 205.937979,146.567646 203.914525,146.567646 C197.973457,146.567646 193.15727,141.751459 193.15727,135.810391 C193.15727,129.869322 197.973457,125.053135 203.914525,125.053135 C209.855594,125.053135 214.671781,129.869322 214.671781,135.810391 C214.671781,137.812224 214.124759,139.732045 213.105523,141.403213 C212.915155,141.715345 213.013865,142.122702 213.325997,142.31307 C213.63813,142.503437 214.045486,142.404728 214.235854,142.092595 Z" id="sbx-icon-search-1"></path>
                </g>
            </g>
        </g>
    </g>
</svg>