<?xml version="1.0" encoding="UTF-8" standalone="no"?>
<svg width="629px" height="63px" viewBox="0 0 629 33" version="1.1" xmlns="http://www.w3.org/2000/svg" xmlns:xlink="http://www.w3.org/1999/xlink" xmlns:sketch="http://www.bohemiancoding.com/sketch/ns">
    <!-- Generator: Sketch 3.5.2 (25235) - http://www.bohemiancoding.com/sketch -->
    <title>milliseconds-matter</title>
    <desc>Created with Sketch.</desc>
    <defs>
        <rect id="path-1" x="0" y="0" width="670" height="149"></rect>
    </defs>
    <g id="Page-1" stroke="none" stroke-width="1" fill="none" fill-rule="evenodd" sketch:type="MSPage">
        <g id="Desktop-HD" sketch:type="MSArtboardGroup" transform="translate(-160.000000, -3165.000000)">
            <g id="milliseconds-matter" sketch:type="MSLayerGroup" transform="translate(139.000000, 3149.000000)">
                <mask id="mask-2" sketch:name="Mask" fill="white">
                    <use xlink:href="#path-1"></use>
                </mask>
                <use id="Mask" sketch:type="MSShapeGroup" xlink:href="#path-1"></use>
                <path d="M61.944,35.096 L52.984,35.096 L50.552,45.208 L59,45.208 L59,50.584 L49.272,50.584 L46.264,63 L40.504,63 L43.64,50.584 L34.36,50.584 L31.352,63 L25.592,63 L28.664,50.584 L21.432,50.584 L21.432,45.208 L29.944,45.208 L32.376,35.096 L24.376,35.096 L24.376,30.104 L33.656,30.104 L36.664,17.56 L42.424,17.56 L39.288,30.104 L48.568,30.104 L51.576,17.56 L57.336,17.56 L54.264,30.104 L61.944,30.104 L61.944,35.096 L61.944,35.096 Z M44.92,45.208 L47.352,35.096 L38.072,35.096 L35.64,45.208 L44.92,45.208 L44.92,45.208 Z M119.736,63 L112.696,63 L112.696,44.248 C112.696,41.1333178 112.173339,38.8506739 111.128,37.4 C110.082661,35.9493261 108.60001,35.224 106.68,35.224 C104.674657,35.224 102.840008,35.9599926 101.176,37.432 C99.5119917,38.9040074 98.317337,40.8133216 97.592,43.16 L97.592,63 L90.552,63 L90.552,44.248 C90.552,41.0906509 90.0506717,38.7973405 89.048,37.368 C88.0453283,35.9386595 86.5626765,35.224 84.6,35.224 C82.6373235,35.224 80.8133418,35.9493261 79.128,37.4 C77.4426582,38.8506739 76.237337,40.7493216 75.512,43.096 L75.512,63 L68.472,63 L68.472,29.528 L74.872,29.528 L74.872,36.248 C76.1946733,33.9013216 77.9333226,32.098673 80.088,30.84 C82.2426774,29.581327 84.7066528,28.952 87.48,28.952 C90.2960141,28.952 92.4933254,29.6773261 94.072,31.128 C95.6506746,32.5786739 96.6533312,34.3919891 97.08,36.568 C98.488007,34.093321 100.258656,32.2053398 102.392,30.904 C104.525344,29.6026602 106.935987,28.952 109.624,28.952 C111.586676,28.952 113.21866,29.3253296 114.52,30.072 C115.82134,30.8186704 116.855996,31.8106605 117.624,33.048 C118.392004,34.2853395 118.935998,35.7253251 119.256,37.368 C119.576002,39.0106749 119.736,40.7493242 119.736,42.584 L119.736,63 L119.736,63 Z M127.608,63 L127.608,29.528 L134.648,29.528 L134.648,63 L127.608,63 L127.608,63 Z M127.608,24.024 L127.608,16.28 L134.648,16.28 L134.648,24.024 L127.608,24.024 L127.608,24.024 Z M142.968,16.28 L150.008,16.28 L150.008,53.144 C150.008,54.3813395 150.327997,55.3519965 150.968,56.056 C151.608003,56.7600035 152.503994,57.112 153.656,57.112 C154.125336,57.112 154.679997,57.0373341 155.32,56.888 C155.960003,56.7386659 156.557331,56.5360013 157.112,56.28 L158.136,61.976 C157.111995,62.4453357 155.896007,62.8186653 154.488,63.096 C153.079993,63.3733347 151.821339,63.512 150.712,63.512 C148.279988,63.512 146.38134,62.8506733 145.016,61.528 C143.65066,60.2053267 142.968,58.3280122 142.968,55.896 L142.968,16.28 L142.968,16.28 Z M162.04,16.28 L169.08,16.28 L169.08,53.144 C169.08,54.3813395 169.399997,55.3519965 170.04,56.056 C170.680003,56.7600035 171.575994,57.112 172.728,57.112 C173.197336,57.112 173.751997,57.0373341 174.392,56.888 C175.032003,56.7386659 175.629331,56.5360013 176.184,56.28 L177.208,61.976 C176.183995,62.4453357 174.968007,62.8186653 173.56,63.096 C172.151993,63.3733347 170.893339,63.512 169.784,63.512 C167.351988,63.512 165.45334,62.8506733 164.088,61.528 C162.72266,60.2053267 162.04,58.3280122 162.04,55.896 L162.04,16.28 L162.04,16.28 Z M181.048,63 L181.048,29.528 L188.088,29.528 L188.088,63 L181.048,63 L181.048,63 Z M181.048,24.024 L181.048,16.28 L188.088,16.28 L188.088,24.024 L181.048,24.024 L181.048,24.024 Z M208.888,63.64 C207.52266,63.64 206.146674,63.5333344 204.76,63.32 C203.373326,63.1066656 202.008007,62.7973354 200.664,62.392 C199.319993,61.9866646 198.040006,61.4960029 196.824,60.92 C195.607994,60.3439971 194.530671,59.693337 193.592,58.968 L196.536,54.232 C200.63202,57.090681 204.706646,58.52 208.76,58.52 C210.893344,58.52 212.57866,58.1146707 213.816,57.304 C215.05334,56.4933293 215.672,55.3413408 215.672,53.848 C215.672,52.439993 214.978674,51.4053366 213.592,50.744 C212.205326,50.0826634 209.997348,49.389337 206.968,48.664 C204.877323,48.1519974 203.085341,47.629336 201.592,47.096 C200.098659,46.562664 198.882671,45.9653366 197.944,45.304 C197.005329,44.6426634 196.322669,43.8533379 195.896,42.936 C195.469331,42.0186621 195.256,40.9200064 195.256,39.64 C195.256,37.9333248 195.59733,36.4186733 196.28,35.096 C196.96267,33.7733267 197.890661,32.6533379 199.064,31.736 C200.237339,30.8186621 201.623992,30.1253357 203.224,29.656 C204.824008,29.1866643 206.541324,28.952 208.376,28.952 C210.808012,28.952 213.154655,29.3359962 215.416,30.104 C217.677345,30.8720038 219.703991,31.9173267 221.496,33.24 L218.488,37.528 C215.287984,35.1386547 211.874685,33.944 208.248,33.944 C206.455991,33.944 204.94134,34.3173296 203.704,35.064 C202.46666,35.8106704 201.848,36.9946586 201.848,38.616 C201.848,39.2986701 201.975999,39.8746643 202.232,40.344 C202.488001,40.8133357 202.903997,41.218665 203.48,41.56 C204.056003,41.901335 204.813329,42.2106653 205.752,42.488 C206.690671,42.7653347 207.84266,43.074665 209.208,43.416 C211.512012,43.9706694 213.495992,44.5253306 215.16,45.08 C216.824008,45.6346694 218.199995,46.2853296 219.288,47.032 C220.376005,47.7786704 221.175997,48.6533283 221.688,49.656 C222.200003,50.6586717 222.456,51.863993 222.456,53.272 C222.456,54.8506746 222.136003,56.2799936 221.496,57.56 C220.855997,58.8400064 219.949339,59.9279955 218.776,60.824 C217.602661,61.7200045 216.173342,62.4133309 214.488,62.904 C212.802658,63.3946691 210.93601,63.64 208.888,63.64 L208.888,63.64 L208.888,63.64 Z M243.64,63.64 C241.03732,63.64 238.669344,63.1813379 236.536,62.264 C234.402656,61.3466621 232.578674,60.0986746 231.064,58.52 C229.549326,56.9413254 228.376004,55.1066771 227.544,53.016 C226.711996,50.9253229 226.296,48.7066784 226.296,46.36 C226.296,44.0133216 226.711996,41.7840106 227.544,39.672 C228.376004,37.5599894 229.549326,35.704008 231.064,34.104 C232.578674,32.503992 234.402656,31.2453379 236.536,30.328 C238.669344,29.4106621 241.058653,28.952 243.704,28.952 C246.30668,28.952 248.663989,29.4213286 250.776,30.36 C252.888011,31.2986714 254.690659,32.5466589 256.184,34.104 C257.677341,35.6613411 258.818663,37.4746563 259.608,39.544 C260.397337,41.6133437 260.792,43.7786554 260.792,46.04 C260.792,46.5520026 260.770667,47.0319978 260.728,47.48 C260.685333,47.9280022 260.642667,48.3013318 260.6,48.6 L233.784,48.6 C233.912001,50.0933408 234.263997,51.4373274 234.84,52.632 C235.416003,53.8266726 236.162662,54.861329 237.08,55.736 C237.997338,56.610671 239.042661,57.2826643 240.216,57.752 C241.389339,58.2213357 242.615994,58.456 243.896,58.456 C244.834671,58.456 245.762662,58.3386678 246.68,58.104 C247.597338,57.8693322 248.439996,57.5280022 249.208,57.08 C249.976004,56.6319978 250.658664,56.0880032 251.256,55.448 C251.853336,54.8079968 252.322665,54.1040038 252.664,53.336 L258.68,55.064 C257.527994,57.5813459 255.61868,59.639992 252.952,61.24 C250.28532,62.840008 247.181351,63.64 243.64,63.64 L243.64,63.64 L243.64,63.64 Z M253.816,43.736 C253.687999,42.327993 253.336003,41.0266726 252.76,39.832 C252.183997,38.6373274 251.448004,37.6240042 250.552,36.792 C249.655996,35.9599958 248.610673,35.3093357 247.416,34.84 C246.221327,34.3706643 244.962673,34.136 243.64,34.136 C242.317327,34.136 241.069339,34.3706643 239.896,34.84 C238.722661,35.3093357 237.688004,35.9599958 236.792,36.792 C235.895996,37.6240042 235.170669,38.6373274 234.616,39.832 C234.061331,41.0266726 233.720001,42.327993 233.592,43.736 L253.816,43.736 L253.816,43.736 Z M264.376,46.232 C264.376,43.8853216 264.781329,41.6666771 265.592,39.576 C266.402671,37.4853229 267.565326,35.6506746 269.08,34.072 C270.594674,32.4933254 272.418656,31.2453379 274.552,30.328 C276.685344,29.4106621 279.074653,28.952 281.72,28.952 C285.176017,28.952 288.151988,29.7093258 290.648,31.224 C293.144012,32.7386742 295.01066,34.7546541 296.248,37.272 L289.4,39.448 C288.589329,38.039993 287.50134,36.9413373 286.136,36.152 C284.77066,35.3626627 283.256008,34.968 281.592,34.968 C280.183993,34.968 278.872006,35.2453306 277.656,35.8 C276.439994,36.3546694 275.384004,37.1333283 274.488,38.136 C273.591996,39.1386717 272.888003,40.3226598 272.376,41.688 C271.863997,43.0533402 271.608,44.5679917 271.608,46.232 C271.608,47.8533414 271.874664,49.3573264 272.408,50.744 C272.941336,52.1306736 273.666662,53.3359949 274.584,54.36 C275.501338,55.3840051 276.567994,56.1839971 277.784,56.76 C279.000006,57.3360029 280.29066,57.624 281.656,57.624 C282.509338,57.624 283.362662,57.5066678 284.216,57.272 C285.069338,57.0373322 285.847996,56.7066688 286.552,56.28 C287.256004,55.8533312 287.874664,55.3626694 288.408,54.808 C288.941336,54.2533306 289.335999,53.6560032 289.592,53.016 L296.504,55.064 C295.394661,57.5813459 293.53868,59.639992 290.936,61.24 C288.33332,62.840008 285.261351,63.64 281.72,63.64 C279.11732,63.64 276.749344,63.1706714 274.616,62.232 C272.482656,61.2933286 270.658674,60.024008 269.144,58.424 C267.629326,56.823992 266.456004,54.9786771 265.624,52.888 C264.791996,50.7973229 264.376,48.5786784 264.376,46.232 L264.376,46.232 L264.376,46.232 Z M316.984,63.64 C314.338653,63.64 311.960011,63.1706714 309.848,62.232 C307.735989,61.2933286 305.933341,60.0346746 304.44,58.456 C302.946659,56.8773254 301.794671,55.0320106 300.984,52.92 C300.173329,50.8079894 299.768,48.6000115 299.768,46.296 C299.768,43.9919885 300.173329,41.7840106 300.984,39.672 C301.794671,37.5599894 302.957326,35.7146746 304.472,34.136 C305.986674,32.5573254 307.799989,31.2986714 309.912,30.36 C312.024011,29.4213286 314.38132,28.952 316.984,28.952 C319.58668,28.952 321.943989,29.4213286 324.056,30.36 C326.168011,31.2986714 327.981326,32.5573254 329.496,34.136 C331.010674,35.7146746 332.173329,37.5599894 332.984,39.672 C333.794671,41.7840106 334.2,43.9919885 334.2,46.296 C334.2,48.6000115 333.794671,50.8079894 332.984,52.92 C332.173329,55.0320106 331.010674,56.8773254 329.496,58.456 C327.981326,60.0346746 326.168011,61.2933286 324.056,62.232 C321.943989,63.1706714 319.58668,63.64 316.984,63.64 L316.984,63.64 L316.984,63.64 Z M307,46.36 C307,47.9813414 307.255997,49.4746598 307.768,50.84 C308.280003,52.2053402 308.983996,53.3893283 309.88,54.392 C310.776004,55.3946717 311.831994,56.1839971 313.048,56.76 C314.264006,57.3360029 315.575993,57.624 316.984,57.624 C318.392007,57.624 319.703994,57.3360029 320.92,56.76 C322.136006,56.1839971 323.191996,55.3840051 324.088,54.36 C324.984004,53.3359949 325.687997,52.1413402 326.2,50.776 C326.712003,49.4106598 326.968,47.9173414 326.968,46.296 C326.968,44.7173254 326.712003,43.2346736 326.2,41.848 C325.687997,40.4613264 324.984004,39.2560051 324.088,38.232 C323.191996,37.2079949 322.136006,36.4080029 320.92,35.832 C319.703994,35.2559971 318.392007,34.968 316.984,34.968 C315.61866,34.968 314.328006,35.2666637 313.112,35.864 C311.895994,36.4613363 310.840004,37.2719949 309.944,38.296 C309.047996,39.3200051 308.333336,40.5253264 307.8,41.912 C307.266664,43.2986736 307,44.7813254 307,46.36 L307,46.36 L307,46.36 Z M370.36,63 L363.32,63 L363.32,44.248 C363.32,41.0906509 362.808005,38.7973405 361.784,37.368 C360.759995,35.9386595 359.28801,35.224 357.368,35.224 C356.343995,35.224 355.309339,35.4159981 354.264,35.8 C353.218661,36.1840019 352.248004,36.7279965 351.352,37.432 C350.455996,38.1360035 349.656004,38.9679952 348.952,39.928 C348.247996,40.8880048 347.704002,41.9439942 347.32,43.096 L347.32,63 L340.28,63 L340.28,29.528 L346.68,29.528 L346.68,36.248 C347.960006,33.9866554 349.815988,32.2053398 352.248,30.904 C354.680012,29.6026602 357.367985,28.952 360.312,28.952 C362.317343,28.952 363.97066,29.314663 365.272,30.04 C366.57334,30.765337 367.59733,31.757327 368.344,33.016 C369.09067,34.274673 369.613332,35.7253251 369.912,37.368 C370.210668,39.0106749 370.36,40.7493242 370.36,42.584 L370.36,63 L370.36,63 Z M392.184,63.64 C389.879988,63.64 387.757343,63.1813379 385.816,62.264 C383.874657,61.3466621 382.200007,60.0986746 380.792,58.52 C379.383993,56.9413254 378.285337,55.1066771 377.496,53.016 C376.706663,50.9253229 376.312,48.6853453 376.312,46.296 C376.312,43.9066547 376.68533,41.6560106 377.432,39.544 C378.17867,37.4319894 379.213327,35.5973411 380.536,34.04 C381.858673,32.4826589 383.447991,31.2453379 385.304,30.328 C387.160009,29.4106621 389.175989,28.952 391.352,28.952 C393.95468,28.952 396.27999,29.5919936 398.328,30.872 C400.37601,32.1520064 401.975994,33.8159898 403.128,35.864 L403.128,16.28 L410.168,16.28 L410.168,54.68 C410.168,56.1306739 410.85066,56.8986662 412.216,56.984 L412.216,63 C411.490663,63.1280006 410.850669,63.2133331 410.296,63.256 C409.741331,63.2986669 409.229336,63.32 408.76,63.32 C406.114653,63.0639987 404.621335,61.8480109 404.28,59.672 L404.152,56.92 C402.871994,59.0960109 401.165344,60.7599942 399.032,61.912 C396.898656,63.0640058 394.616012,63.64 392.184,63.64 L392.184,63.64 L392.184,63.64 Z M393.976,57.624 C394.872004,57.624 395.810662,57.453335 396.792,57.112 C397.773338,56.770665 398.690662,56.3013363 399.544,55.704 C400.397338,55.1066637 401.143997,54.4026707 401.784,53.592 C402.424003,52.7813293 402.871999,51.9066714 403.128,50.968 L403.128,42.2 C402.743998,41.1759949 402.21067,40.226671 401.528,39.352 C400.84533,38.477329 400.066671,37.7093366 399.192,37.048 C398.317329,36.3866634 397.389338,35.8746685 396.408,35.512 C395.426662,35.1493315 394.445338,34.968 393.464,34.968 C391.970659,34.968 390.616006,35.2879968 389.4,35.928 C388.183994,36.5680032 387.138671,37.421328 386.264,38.488 C385.389329,39.554672 384.717336,40.7813264 384.248,42.168 C383.778664,43.5546736 383.544,44.9733261 383.544,46.424 C383.544,47.9600077 383.810664,49.4106598 384.344,50.776 C384.877336,52.1413402 385.602662,53.3253283 386.52,54.328 C387.437338,55.3306717 388.535994,56.1306637 389.816,56.728 C391.096006,57.3253363 392.482659,57.624 393.976,57.624 L393.976,57.624 L393.976,57.624 Z M431.8,63.64 C430.43466,63.64 429.058674,63.5333344 427.672,63.32 C426.285326,63.1066656 424.920007,62.7973354 423.576,62.392 C422.231993,61.9866646 420.952006,61.4960029 419.736,60.92 C418.519994,60.3439971 417.442671,59.693337 416.504,58.968 L419.448,54.232 C423.54402,57.090681 427.618646,58.52 431.672,58.52 C433.805344,58.52 435.49066,58.1146707 436.728,57.304 C437.96534,56.4933293 438.584,55.3413408 438.584,53.848 C438.584,52.439993 437.890674,51.4053366 436.504,50.744 C435.117326,50.0826634 432.909348,49.389337 429.88,48.664 C427.789323,48.1519974 425.997341,47.629336 424.504,47.096 C423.010659,46.562664 421.794671,45.9653366 420.856,45.304 C419.917329,44.6426634 419.234669,43.8533379 418.808,42.936 C418.381331,42.0186621 418.168,40.9200064 418.168,39.64 C418.168,37.9333248 418.50933,36.4186733 419.192,35.096 C419.87467,33.7733267 420.802661,32.6533379 421.976,31.736 C423.149339,30.8186621 424.535992,30.1253357 426.136,29.656 C427.736008,29.1866643 429.453324,28.952 431.288,28.952 C433.720012,28.952 436.066655,29.3359962 438.328,30.104 C440.589345,30.8720038 442.615991,31.9173267 444.408,33.24 L441.4,37.528 C438.199984,35.1386547 434.786685,33.944 431.16,33.944 C429.367991,33.944 427.85334,34.3173296 426.616,35.064 C425.37866,35.8106704 424.76,36.9946586 424.76,38.616 C424.76,39.2986701 424.887999,39.8746643 425.144,40.344 C425.400001,40.8133357 425.815997,41.218665 426.392,41.56 C426.968003,41.901335 427.725329,42.2106653 428.664,42.488 C429.602671,42.7653347 430.75466,43.074665 432.12,43.416 C434.424012,43.9706694 436.407992,44.5253306 438.072,45.08 C439.736008,45.6346694 441.111995,46.2853296 442.2,47.032 C443.288005,47.7786704 444.087997,48.6533283 444.6,49.656 C445.112003,50.6586717 445.368,51.863993 445.368,53.272 C445.368,54.8506746 445.048003,56.2799936 444.408,57.56 C443.767997,58.8400064 442.861339,59.9279955 441.688,60.824 C440.514661,61.7200045 439.085342,62.4133309 437.4,62.904 C435.714658,63.3946691 433.84801,63.64 431.8,63.64 L431.8,63.64 L431.8,63.64 Z M502.52,63 L495.48,63 L495.48,44.248 C495.48,41.1333178 494.957339,38.8506739 493.912,37.4 C492.866661,35.9493261 491.38401,35.224 489.464,35.224 C487.458657,35.224 485.624008,35.9599926 483.96,37.432 C482.295992,38.9040074 481.101337,40.8133216 480.376,43.16 L480.376,63 L473.336,63 L473.336,44.248 C473.336,41.0906509 472.834672,38.7973405 471.832,37.368 C470.829328,35.9386595 469.346676,35.224 467.384,35.224 C465.421324,35.224 463.597342,35.9493261 461.912,37.4 C460.226658,38.8506739 459.021337,40.7493216 458.296,43.096 L458.296,63 L451.256,63 L451.256,29.528 L457.656,29.528 L457.656,36.248 C458.978673,33.9013216 460.717323,32.098673 462.872,30.84 C465.026677,29.581327 467.490653,28.952 470.264,28.952 C473.080014,28.952 475.277325,29.6773261 476.856,31.128 C478.434675,32.5786739 479.437331,34.3919891 479.864,36.568 C481.272007,34.093321 483.042656,32.2053398 485.176,30.904 C487.309344,29.6026602 489.719987,28.952 492.408,28.952 C494.370676,28.952 496.00266,29.3253296 497.304,30.072 C498.60534,30.8186704 499.639996,31.8106605 500.408,33.048 C501.176004,34.2853395 501.719998,35.7253251 502.04,37.368 C502.360002,39.0106749 502.52,40.7493242 502.52,42.584 L502.52,63 L502.52,63 Z M519.416,63.64 C517.794659,63.64 516.290674,63.373336 514.904,62.84 C513.517326,62.306664 512.322672,61.5706714 511.32,60.632 C510.317328,59.6933286 509.528003,58.5840064 508.952,57.304 C508.375997,56.0239936 508.088,54.6373408 508.088,53.144 C508.088,51.5653254 508.42933,50.1360064 509.112,48.856 C509.79467,47.5759936 510.765327,46.4666714 512.024,45.528 C513.282673,44.5893286 514.775991,43.8640026 516.504,43.352 C518.232009,42.8399974 520.141323,42.584 522.232,42.584 C523.810675,42.584 525.367992,42.7226653 526.904,43 C528.440008,43.2773347 529.82666,43.6506643 531.064,44.12 L531.064,41.816 C531.064,39.341321 530.360007,37.4106736 528.952,36.024 C527.543993,34.6373264 525.517347,33.944 522.872,33.944 C521.079991,33.944 519.320009,34.2746634 517.592,34.936 C515.863991,35.5973366 514.082676,36.5466605 512.248,37.784 L510.072,33.304 C514.381355,30.4026522 518.86131,28.952 523.512,28.952 C528.120023,28.952 531.703987,30.1253216 534.264,32.472 C536.824013,34.8186784 538.104,38.1893114 538.104,42.584 L538.104,54.68 C538.104,55.4906707 538.253332,56.066665 538.552,56.408 C538.850668,56.749335 539.362663,56.9413331 540.088,56.984 L540.088,63 C539.40533,63.1280006 538.776003,63.2133331 538.2,63.256 C537.623997,63.2986669 537.101336,63.32 536.632,63.32 C535.26666,63.2346662 534.232004,62.8720032 533.528,62.232 C532.823996,61.5919968 532.386668,60.738672 532.216,59.672 L532.024,57.56 C530.530659,59.5226765 528.685344,61.0266614 526.488,62.072 C524.290656,63.1173386 521.933346,63.64 519.416,63.64 L519.416,63.64 L519.416,63.64 Z M521.336,58.456 C523.042675,58.456 524.653326,58.1466698 526.168,57.528 C527.682674,56.9093302 528.866662,56.0453389 529.72,54.936 C530.616004,54.1679962 531.064,53.3573376 531.064,52.504 L531.064,48.088 C529.869327,47.6186643 528.600007,47.2560013 527.256,47 C525.911993,46.7439987 524.600006,46.616 523.32,46.616 C520.802654,46.616 518.744008,47.1599946 517.144,48.248 C515.543992,49.3360054 514.744,50.775991 514.744,52.568 C514.744,54.2320083 515.36266,55.6293277 516.6,56.76 C517.83734,57.8906723 519.41599,58.456 521.336,58.456 L521.336,58.456 L521.336,58.456 Z M564.92,61.272 C563.981329,61.6986688 562.733341,62.178664 561.176,62.712 C559.618659,63.245336 557.922676,63.512 556.088,63.512 C554.978661,63.512 553.944005,63.3626682 552.984,63.064 C552.023995,62.7653318 551.17067,62.3173363 550.424,61.72 C549.67733,61.1226637 549.090669,60.3440048 548.664,59.384 C548.237331,58.4239952 548.024,57.2613402 548.024,55.896 L548.024,34.968 L543.544,34.968 L543.544,29.528 L548.024,29.528 L548.024,18.52 L555.064,18.52 L555.064,29.528 L562.36,29.528 L562.36,34.968 L555.064,34.968 L555.064,53.656 C555.064,54.8506726 555.40533,55.714664 556.088,56.248 C556.77067,56.781336 557.602662,57.048 558.584,57.048 C559.565338,57.048 560.503996,56.877335 561.4,56.536 C562.296004,56.194665 562.957331,55.9173344 563.384,55.704 L564.92,61.272 L564.92,61.272 Z M588.024,61.272 C587.085329,61.6986688 585.837341,62.178664 584.28,62.712 C582.722659,63.245336 581.026676,63.512 579.192,63.512 C578.082661,63.512 577.048005,63.3626682 576.088,63.064 C575.127995,62.7653318 574.27467,62.3173363 573.528,61.72 C572.78133,61.1226637 572.194669,60.3440048 571.768,59.384 C571.341331,58.4239952 571.128,57.2613402 571.128,55.896 L571.128,34.968 L566.648,34.968 L566.648,29.528 L571.128,29.528 L571.128,18.52 L578.168,18.52 L578.168,29.528 L585.464,29.528 L585.464,34.968 L578.168,34.968 L578.168,53.656 C578.168,54.8506726 578.50933,55.714664 579.192,56.248 C579.87467,56.781336 580.706662,57.048 581.688,57.048 C582.669338,57.048 583.607996,56.877335 584.504,56.536 C585.400004,56.194665 586.061331,55.9173344 586.488,55.704 L588.024,61.272 L588.024,61.272 Z M607.864,63.64 C605.26132,63.64 602.893344,63.1813379 600.76,62.264 C598.626656,61.3466621 596.802674,60.0986746 595.288,58.52 C593.773326,56.9413254 592.600004,55.1066771 591.768,53.016 C590.935996,50.9253229 590.52,48.7066784 590.52,46.36 C590.52,44.0133216 590.935996,41.7840106 591.768,39.672 C592.600004,37.5599894 593.773326,35.704008 595.288,34.104 C596.802674,32.503992 598.626656,31.2453379 600.76,30.328 C602.893344,29.4106621 605.282653,28.952 607.928,28.952 C610.53068,28.952 612.887989,29.4213286 615,30.36 C617.112011,31.2986714 618.914659,32.5466589 620.408,34.104 C621.901341,35.6613411 623.042663,37.4746563 623.832,39.544 C624.621337,41.6133437 625.016,43.7786554 625.016,46.04 C625.016,46.5520026 624.994667,47.0319978 624.952,47.48 C624.909333,47.9280022 624.866667,48.3013318 624.824,48.6 L598.008,48.6 C598.136001,50.0933408 598.487997,51.4373274 599.064,52.632 C599.640003,53.8266726 600.386662,54.861329 601.304,55.736 C602.221338,56.610671 603.266661,57.2826643 604.44,57.752 C605.613339,58.2213357 606.839994,58.456 608.12,58.456 C609.058671,58.456 609.986662,58.3386678 610.904,58.104 C611.821338,57.8693322 612.663996,57.5280022 613.432,57.08 C614.200004,56.6319978 614.882664,56.0880032 615.48,55.448 C616.077336,54.8079968 616.546665,54.1040038 616.888,53.336 L622.904,55.064 C621.751994,57.5813459 619.84268,59.639992 617.176,61.24 C614.50932,62.840008 611.405351,63.64 607.864,63.64 L607.864,63.64 L607.864,63.64 Z M618.04,43.736 C617.911999,42.327993 617.560003,41.0266726 616.984,39.832 C616.407997,38.6373274 615.672004,37.6240042 614.776,36.792 C613.879996,35.9599958 612.834673,35.3093357 611.64,34.84 C610.445327,34.3706643 609.186673,34.136 607.864,34.136 C606.541327,34.136 605.293339,34.3706643 604.12,34.84 C602.946661,35.3093357 601.912004,35.9599958 601.016,36.792 C600.119996,37.6240042 599.394669,38.6373274 598.84,39.832 C598.285331,41.0266726 597.944001,42.327993 597.816,43.736 L618.04,43.736 L618.04,43.736 Z M649.464,35.608 C646.73332,35.6933338 644.322677,36.3226608 642.232,37.496 C640.141323,38.6693392 638.626671,40.3439891 637.688,42.52 L637.688,63 L630.648,63 L630.648,29.528 L637.176,29.528 L637.176,37.016 C638.370673,34.7119885 639.895991,32.8346739 641.752,31.384 C643.608009,29.9333261 645.581323,29.208 647.672,29.208 L648.728,29.208 C649.005335,29.208 649.250666,29.2293331 649.464,29.272 L649.464,35.608 L649.464,35.608 Z" id="#millisecondsmatter" fill="#B6B8BE" sketch:type="MSShapeGroup" mask="url(#mask-2)"></path>
            </g>
        </g>
    </g>
</svg>