<svg width="50" height="44" viewBox="0 0 50 44" xmlns="http://www.w3.org/2000/svg"><title>illus-integrations</title><g stroke-width="1.5" stroke="#3C56C5" fill="#FFF" fill-rule="evenodd"><path d="M25 42.523L7.75 36.696V13.385L25 19.212z"/><path d="M19.25 25.04L2 19.212l5.75-5.827L25 19.212zM25 42.523l17.25-5.827V13.385L25 19.212z"/><path d="M30.75 25.04L48 19.212l-5.75-5.827L25 19.212z"/><path d="M7.75 13.385L25 19.212l17.25-5.827L25 7.557z"/><path d="M7.75 13.385L2 7.557 19.25 1 25 7.557zm34.5 0L48 7.557 30.75 1 25 7.557z"/><path d="M7.75 13.385L25 7.557v11.655z"/></g></svg>