<?xml version="1.0" encoding="UTF-8" standalone="no"?>
<svg width="220px" height="174px" viewBox="0 0 220 174" version="1.1" xmlns="http://www.w3.org/2000/svg" xmlns:xlink="http://www.w3.org/1999/xlink">
    <!-- Generator: Sketch 39.1 (31720) - http://www.bohemiancoding.com/sketch -->
    <title>illus-helper</title>
    <desc>Created with Sketch.</desc>
    <defs></defs>
    <g id="Page-1" stroke="none" stroke-width="1" fill="none" fill-rule="evenodd">
        <g id="Desktop-HD" transform="translate(-484.000000, -476.000000)">
            <g id="helper" transform="translate(484.000000, 476.000000)">
                <g id="illus-helper" transform="translate(-37.000000, -16.000000)">
                    <g id="al-helper-logo" transform="translate(47.000000, 0.000000)">
                        <g id="helper-logo">
                            <g id="shadow" opacity="0.207789179" transform="translate(0.000000, 37.333333)" fill="#DE5C22">
                                <path d="M38.5408801,-0.000158343863 L41.0610817,1.45445403 C44.6525068,3.52735637 44.6699756,6.91811829 41.1026154,9.02938475 L28.0591716,16.7488701 C24.4899756,18.861223 18.7011172,18.8724305 15.1252943,16.7763295 L3.0591691,9.70332309 C-0.515295184,7.60801813 -0.51970345,4.20206416 3.05235739,2.09769056 L6.09814157,0.303357233 L20.9094597,8.8344869 C21.4736797,9.15947021 22.3888998,9.16318562 22.9574529,8.84063383 L38.5408801,-0.000158343863 Z" id="Combined-Shape"></path>
                            </g>
                            <g id="base" transform="translate(1.577247, 0.000000)">
                                <g id="path-3-link" stroke="#FFFFFF" stroke-width="2.36249996" fill="#FFBC4C">
                                    <path d="M19.134975,46.2769462 C19.699195,46.6019295 20.6144151,46.605645 21.1829683,46.2830932 L40.1157515,35.5421439 C40.6826068,35.2205553 41.1421342,34.4307725 41.1421342,33.7826864 L41.1421342,12.3990506 C41.1421342,11.7489176 40.6803493,10.9611267 40.1153336,10.6420818 L21.8843256,0.347660039 C21.3172393,0.0274459373 20.3951212,0.0303773029 19.8287129,0.351939047 L1.14004165,10.9618856 C0.571844469,11.2844629 0.111229644,12.0758401 0.111229644,12.7248975 L0.111229644,34.1405784 C0.111229644,34.7916856 0.567567763,35.5823573 1.13284024,35.907947 L19.134975,46.2769462 L19.134975,46.2769462 Z" id="path-3"></path>
                                </g>
                                <path d="M20.4408755,45.7630047 L20.4408755,23.7019902 L40.2699342,11.9098071 C40.2699342,11.9098071 40.4197185,12.1219264 40.3991039,12.6194294 L40.3991039,34.5281549 C40.3991039,34.5281549 27.4978651,41.8535884 21.0844098,45.4971138 C20.6629371,45.7630033 20.4408755,45.7630047 20.4408755,45.7630047 L20.4408755,45.7630047 Z" id="right" fill="#FBAA4B"></path>
                            </g>
                            <g id="angle" transform="translate(1.886337, 11.467302)" stroke="#FFFFFF" stroke-width="1.57499998" stroke-dasharray="3.779999828338623,8.977499771118163">
                                <path d="M20.0152306,12.1944535 L0.0453277771,0.346188319" id="left"></path>
                                <path d="M20.4972088,11.949445 L40.6931849,0.0424539528" id="right"></path>
                                <path d="M20.0828331,12.1401007 L20.0828331,35.1310141" id="middle"></path>
                            </g>
                            <g id="dots" transform="translate(11.780282, 3.940161)">
                                <g id="right" transform="translate(8.266387, 8.888392)">
                                    <path d="M0.000390562725,1.42611397 L0.000390562725,3.19490425 C0.000390562725,3.19490425 0.68231152,4.29583373 2.51744095,4.29583366 C4.35257037,4.29583358 5.08335174,3.19490432 5.08335174,3.19490432 L5.08335174,1.42611397" id="Path-15" stroke="#FFFFFF" stroke-width="0.839999988"></path>
                                    <polygon id="Path-16" fill="#FFFFFF" points="0.00218715125 2.2346005 0.00218715125 3.22332911 1.12908467 4.04949735 2.53452233 4.32102537 4.36774104 3.84709252 5.06994524 3.08164572 5.06994524 1.93990413 4.18196184 2.41256401 2.64195005 2.80451656 0.816064728 2.40989074"></polygon>
                                </g>
                            </g>
                        </g>
                    </g>
                    <g id="al-helper-logo" transform="translate(0.000000, 122.000000)">
                        <g id="helper-logo">
                            <g id="shadow" opacity="0.207789179" transform="translate(0.000000, 47.333333)" fill="#DE5C22">
                                <path d="M48.1761001,-0.000200757398 L51.3263521,1.84403993 C55.8156335,4.47218397 55.8374695,8.77118569 51.3782693,11.4479699 L35.0739645,21.2351746 C30.6124696,23.9133363 23.3763965,23.9275458 18.9066179,21.2699892 L3.82396137,12.3024275 C-0.64411898,9.64588013 -0.649629313,5.32761706 3.81544674,2.65957196 L7.62267696,0.384613635 L26.1368246,11.2008673 C26.8420996,11.6128997 27.9861247,11.6176103 28.6968162,11.2086608 L48.1761001,-0.000200757398 Z" id="Combined-Shape"></path>
                            </g>
                            <g id="base" transform="translate(1.971559, 0.000000)">
                                <g id="path-3-link" stroke="#FFFFFF" stroke-width="2.36249996" fill-opacity="0.730327219" fill="#FEB74C">
                                    <path d="M23.9187188,58.6725568 C24.6239938,59.0845892 25.7680189,59.0892999 26.4787104,58.6803503 L50.1446893,45.062361 C50.8532585,44.6546326 51.4276677,43.6533009 51.4276677,42.8316203 L51.4276677,15.7202249 C51.4276677,14.8959491 50.8504366,13.8971428 50.1441671,13.4926394 L27.355407,0.440783263 C26.6465491,0.0347975277 25.4939016,0.0385140805 24.7858912,0.446208435 L1.42505207,13.8981049 C0.714805587,14.3070869 0.139037055,15.3104402 0.139037055,16.1333522 L0.139037055,43.2853762 C0.139037055,44.1108871 0.709459704,45.1133459 1.4160503,45.5261471 L23.9187188,58.6725568 L23.9187188,58.6725568 Z" id="path-3"></path>
                                </g>
                                <path d="M25.5510943,58.0209524 L25.5510943,30.0507376 L50.3374178,15.099934 C50.3374178,15.099934 50.5246481,15.368871 50.4988799,15.9996337 L50.4988799,43.7767678 C50.4988799,43.7767678 34.3723313,53.064371 26.3555122,57.6838407 C25.8286713,58.0209506 25.5510943,58.0209524 25.5510943,58.0209524 L25.5510943,58.0209524 Z" id="right" fill="#FBAA4B"></path>
                            </g>
                            <g id="angle" transform="translate(2.357921, 14.538901)" stroke="#FFFFFF" stroke-width="1.57499998" stroke-dasharray="3.779999828338623,8.977499771118163">
                                <path d="M25.621511,15.1501892 L50.8664811,0.0538255473" id="right"></path>
                            </g>
                            <g id="dots" transform="translate(14.725353, 4.995562)">
                                <g id="right" transform="translate(19.761555, 5.746989)">
                                    <ellipse id="Oval" stroke="#FFFFFF" stroke-width="0.839999988" cx="3.17596416" cy="1.7981378" rx="3.17596416" ry="1.7981378"></ellipse>
                                    <path d="M0.000488203406,1.80810878 L0.000488203406,4.05068218 C0.000488203406,4.05068218 0.8528894,5.44650348 3.14680119,5.44650339 C5.44071296,5.44650329 6.35418968,4.05068227 6.35418968,4.05068227 L6.35418968,1.80810878" id="Path-15" stroke="#FFFFFF" stroke-width="0.839999988"></path>
                                    <polygon id="Path-16" fill="#FFFFFF" points="0.00273393906 2.8331542 0.00273393906 4.08672084 1.41135583 5.13418414 3.16815291 5.47844288 5.4596763 4.87756373 6.33743155 3.90708653 6.33743155 2.4595213 5.22745229 3.05878651 3.30243756 3.55572635 1.02008091 3.05539719"></polygon>
                                </g>
                            </g>
                        </g>
                    </g>
                    <g id="al-helper-logo" transform="translate(214.000000, 95.000000)">
                        <g id="helper-logo">
                            <g id="shadow" opacity="0.207789179" transform="translate(0.000000, 40.000000)" fill="#DE5C22">
                                <path d="M41.1686674,-0.000169654139 L43.8607009,1.5583436 C47.6969959,3.7793104 47.7156557,7.4122696 43.9050665,9.6743408 L29.9722969,17.945218 C26.1597467,20.2084532 19.9761934,20.2204612 16.1565644,17.9746388 L3.26774881,10.3964176 C-0.550428947,8.151448 -0.555137776,4.5022116 3.26047267,2.2475256 L6.51392395,0.325025607 L22.3351047,9.46552168 C22.9377942,9.81371808 23.9154157,9.81769888 24.5227338,9.47210768 L41.1686674,-0.000169654139 Z" id="Combined-Shape"></path>
                            </g>
                            <g id="base" transform="translate(1.684787, 0.000000)">
                                <g id="path-3-link" stroke="#FFFFFF" stroke-width="2.36249996" fill-opacity="0.766559103" fill="#FBAD4B">
                                    <path d="M20.4396324,49.5824424 C21.042322,49.9306388 22.0199434,49.9346196 22.6272616,49.5890284 L42.8509163,38.0808684 C43.4564209,37.7363093 43.9472797,36.8901134 43.9472797,36.1957354 L43.9472797,13.2846971 C43.9472797,12.588126 43.4540095,11.7440644 42.85047,11.4022305 L23.3764387,0.372492898 C22.7706874,0.0294063614 21.7856977,0.0325471102 21.1806706,0.377077551 L1.21777177,11.7448774 C0.610833865,12.090496 0.118813484,12.9384002 0.118813484,13.6338187 L0.118813484,36.5791911 C0.118813484,37.276806 0.606265565,38.1239542 1.21007935,38.4728004 L20.4396324,49.5824424 L20.4396324,49.5824424 Z" id="path-3"></path>
                                </g>
                                <path d="M21.8345715,49.0317908 L21.8345715,25.3949895 L43.0156116,12.7605076 C43.0156116,12.7605076 43.1756084,12.9877783 43.1535883,13.5208172 L43.1535883,36.9944517 C43.1535883,36.9944517 29.3727195,44.8431304 22.5219831,48.7469076 C22.0717737,49.0317892 21.8345715,49.0317908 21.8345715,49.0317908 L21.8345715,49.0317908 Z" id="right" fill="#FBAA4B"></path>
                            </g>
                            <g id="angle" transform="translate(2.014951, 12.286395)" stroke="#FFFFFF" stroke-width="1.57499998" stroke-dasharray="3.779999828338623,8.977499771118163">
                                <path d="M21.3799054,13.0654858 L0.0484183074,0.370916056" id="left"></path>
                                <path d="M21.8947457,12.8029768 L43.4677202,0.045486378" id="right"></path>
                                <path d="M21.4521172,13.0072508 L21.4521172,37.6403722" id="middle"></path>
                            </g>
                            <g id="dots" transform="translate(12.583483, 4.221601)">
                                <g id="right" transform="translate(16.887147, 4.856611)">
                                    <ellipse id="Oval" stroke="#FFFFFF" stroke-width="0.839999988" cx="2.71400574" cy="1.51955307" rx="2.71400574" ry="1.51955307"></ellipse>
                                    <path d="M0.000417192001,1.52797925 L0.000417192001,3.4231117 C0.000417192001,3.4231117 0.72883276,4.602679 2.68908465,4.60267892 C4.64933653,4.60267884 5.4299439,3.42311178 5.4299439,3.42311178 L5.4299439,1.52797925" id="Path-15" stroke="#FFFFFF" stroke-width="0.839999988"></path>
                                    <polygon id="Path-16" fill="#FFFFFF" points="0.0023362752 2.39421482 0.0023362752 3.45356691 1.20606771 4.33874716 2.70733067 4.62967004 4.66554157 4.12188484 5.41562333 3.30176327 5.41562333 2.07846871 4.4670956 2.58489001 2.82208301 3.00483917 0.871705505 2.5820258"></polygon>
                                </g>
                                <g id="right" transform="translate(0.101433, 4.856611)">
                                    <ellipse id="Oval" stroke="#FFFFFF" stroke-width="0.839999988" cx="2.71400574" cy="1.51955307" rx="2.71400574" ry="1.51955307"></ellipse>
                                    <path d="M0.000417192001,1.52797925 L0.000417192001,3.4231117 C0.000417192001,3.4231117 0.72883276,4.602679 2.68908465,4.60267892 C4.64933653,4.60267884 5.4299439,3.42311178 5.4299439,3.42311178 L5.4299439,1.52797925" id="Path-15" stroke="#FFFFFF" stroke-width="0.839999988"></path>
                                    <polygon id="Path-16" fill="#FFFFFF" points="0.0023362752 2.39421482 0.0023362752 3.45356691 1.20606771 4.33874716 2.70733067 4.62967004 4.66554157 4.12188484 5.41562333 3.30176327 5.41562333 2.07846871 4.4670956 2.58489001 2.82208301 3.00483917 0.871705505 2.5820258"></polygon>
                                </g>
                                <g id="right" transform="translate(8.830004, 0.189944)">
                                    <ellipse id="Oval" stroke="#FFFFFF" stroke-width="0.839999988" cx="2.71400574" cy="1.51955307" rx="2.71400574" ry="1.51955307"></ellipse>
                                    <path d="M0.000417192001,1.52797925 L0.000417192001,3.4231117 C0.000417192001,3.4231117 0.72883276,4.602679 2.68908465,4.60267892 C4.64933653,4.60267884 5.4299439,3.42311178 5.4299439,3.42311178 L5.4299439,1.52797925" id="Path-15" stroke="#FFFFFF" stroke-width="0.839999988"></path>
                                    <polygon id="Path-16" fill="#FFFFFF" points="0.0023362752 2.39421482 0.0023362752 3.45356691 1.20606771 4.33874716 2.70733067 4.62967004 4.66554157 4.12188484 5.41562333 3.30176327 5.41562333 2.07846871 4.4670956 2.58489001 2.82208301 3.00483917 0.871705505 2.5820258"></polygon>
                                </g>
                                <g id="right" transform="translate(8.830004, 9.523277)">
                                    <ellipse id="Oval" stroke="#FFFFFF" stroke-width="0.839999988" cx="2.71400574" cy="1.51955307" rx="2.71400574" ry="1.51955307"></ellipse>
                                    <path d="M0.000417192001,1.52797925 L0.000417192001,3.4231117 C0.000417192001,3.4231117 0.72883276,4.602679 2.68908465,4.60267892 C4.64933653,4.60267884 5.4299439,3.42311178 5.4299439,3.42311178 L5.4299439,1.52797925" id="Path-15" stroke="#FFFFFF" stroke-width="0.839999988"></path>
                                    <polygon id="Path-16" fill="#FFFFFF" points="0.0023362752 2.39421482 0.0023362752 3.45356691 1.20606771 4.33874716 2.70733067 4.62967004 4.66554157 4.12188484 5.41562333 3.30176327 5.41562333 2.07846871 4.4670956 2.58489001 2.82208301 3.00483917 0.871705505 2.5820258"></polygon>
                                </g>
                            </g>
                        </g>
                    </g>
                </g>
            </g>
        </g>
    </g>
</svg>