<svg width="70" height="91" viewBox="0 0 70 91" xmlns="http://www.w3.org/2000/svg">
    <title>
        al-helper-logo
    </title>
    <g fill="none" fill-rule="evenodd">
        <path d="M4.856 64.37c-5.683 3.383-5.676 8.857.01 12.225l19.197 11.367c5.69 3.37 14.898 3.35 20.577-.044l20.75-12.406c5.676-3.394 5.648-8.843-.066-12.174L46 52.07c-5.71-3.33-14.946-3.29-20.632.094L4.856 64.37z" opacity=".208" fill="#DE5C22"/>
        <path d="M32.95 75.374c.9.522 2.355.528 3.26.01L66.33 58.12c.902-.516 1.633-1.785 1.633-2.826V20.927c0-1.045-.735-2.31-1.634-2.824L37.324 1.56c-.902-.516-2.37-.51-3.27.006L4.323 18.616c-.904.52-1.637 1.792-1.637 2.835v34.42c0 1.045.726 2.316 1.626 2.84l28.64 16.664z" stroke="#634A21" stroke-width="2.362" fill="#EEF8FF"/>
        <path d="M35.032 74.544V39.092L4.146 20.51s-.336.567-.27 1.17v34.206c0 .662.458 1.466 1.03 1.8 0 0-.65-.38.033.02C8.01 59.503 31.06 72.93 33.37 74.26c.762.476 1.662.284 1.662.284z" fill-opacity=".5" fill="#CAD3D9"/>
        <path d="M35.03 74.548V39.092l31.545-18.95s.238.34.206 1.14v35.21S46.257 68.265 36.054 74.12c-.67.428-1.024.428-1.024.428z" fill-opacity=".25" fill="#000"/>
        <path d="M34.843 39.028L3.073 19.986M35.61 38.634l32.13-19.136M34.95 38.94v36.95" stroke="#634A22" stroke-width="1.575" stroke-dasharray="3.779999828338623,8.977499771118163"/>
        <g transform="translate(31.317 20.902)">
            <ellipse stroke="#634A22" stroke-width=".84" fill="#FFF" cx="4.042" cy="2.279" rx="4.042" ry="2.279"/>
            <path d="M0 2.292v2.843s1.085 1.77 4.005 1.77 4.082-1.77 4.082-1.77V2.292" stroke="#634A22" stroke-width=".84"/>
            <path fill="#634A22" d="M.003 3.59v1.59l1.793 1.328 2.236.437 2.917-.762 1.116-1.23V3.118l-1.413.76-2.45.63-2.905-.635"/>
        </g>
        <g transform="translate(31.317 8.332)">
            <ellipse stroke="#634A22" stroke-width=".84" fill="#FFF" cx="4.042" cy="2.279" rx="4.042" ry="2.279"/>
            <path d="M0 2.292v2.843s1.085 1.77 4.005 1.77 4.082-1.77 4.082-1.77V2.292" stroke="#634A22" stroke-width=".84"/>
            <path fill="#634A22" d="M.003 3.59v1.59l1.793 1.328 2.236.437 2.917-.762 1.116-1.23V3.118l-1.413.76-2.45.63-2.905-.635"/>
        </g>
        <g transform="translate(18.74 14.617)">
            <ellipse stroke="#634A22" stroke-width=".84" fill="#FFF" cx="4.042" cy="2.279" rx="4.042" ry="2.279"/>
            <path d="M0 2.292v2.843s1.085 1.77 4.005 1.77 4.082-1.77 4.082-1.77V2.292" stroke="#634A22" stroke-width=".84"/>
            <path fill="#634A22" d="M.003 3.59v1.59l1.793 1.328 2.236.437 2.917-.762 1.116-1.23V3.118l-1.413.76-2.45.63-2.905-.635"/>
        </g>
        <g transform="translate(43.892 14.617)">
            <ellipse stroke="#634A22" stroke-width=".84" fill="#FFF" cx="4.042" cy="2.279" rx="4.042" ry="2.279"/>
            <path d="M0 2.292v2.843s1.085 1.77 4.005 1.77 4.082-1.77 4.082-1.77V2.292" stroke="#634A22" stroke-width=".84"/>
            <path fill="#634A22" d="M.003 3.59v1.59l1.793 1.328 2.236.437 2.917-.762 1.116-1.23V3.118l-1.413.76-2.45.63-2.905-.635"/>
        </g>
    </g>
</svg>
