<?xml version="1.0" encoding="UTF-8" standalone="no"?>
<svg width="70px" height="91px" viewBox="0 0 70 91" version="1.1" xmlns="http://www.w3.org/2000/svg" xmlns:xlink="http://www.w3.org/1999/xlink">
    <!-- Generator: Sketch 39.1 (31720) - http://www.bohemiancoding.com/sketch -->
    <title>al-helper-logo</title>
    <desc>Created with Sketch.</desc>
    <defs></defs>
    <g id="Page-1" stroke="none" stroke-width="1" fill="none" fill-rule="evenodd">
        <g id="Desktop-HD" transform="translate(-560.000000, -520.000000)">
            <g id="al-helper-logo" transform="translate(560.000000, 521.000000)">
                <g id="helper-logo">
                    <g id="shadow" opacity="0.207789179" transform="translate(0.000000, 48.000000)" fill="#DE5C22">
                        <path d="M4.85602313,15.3712884 C-0.826800944,18.7533174 -0.819787793,24.227172 4.86685993,27.5946264 L24.0629683,38.9619582 C29.7517774,42.3306918 38.9613249,42.3126798 44.6395912,38.917827 L65.3905245,26.5115112 C71.0658703,23.1184044 71.0380791,17.6689656 65.3244481,14.3375154 L46.0003447,3.07019946 C40.2885059,-0.26020578 31.0540855,-0.22001022 25.3684825,3.16367268 L4.85602313,15.3712884 L4.85602313,15.3712884 Z" id="path-1"></path>
                    </g>
                    <g id="base" transform="translate(2.509256, 0.000000)">
                        <g id="path-3-link" stroke="#634A21" stroke-width="2.36249996" fill="#EEF8FF">
                            <path d="M30.4420058,74.3736636 C31.3396284,74.8959582 32.7956605,74.9019294 33.7001768,74.3835426 L63.8205137,57.1213027 C64.7223291,56.6044639 65.4533953,55.3351702 65.4533953,54.2936032 L65.4533953,19.9270456 C65.4533953,18.882189 64.7187375,17.6160965 63.819849,17.1033457 L34.8159725,0.558739348 C33.9137897,0.0441095421 32.4467838,0.0488206654 31.5456797,0.565616326 L1.81370263,17.6173161 C0.909752565,18.1357439 0.176956252,19.4076002 0.176956252,20.4507281 L0.176956252,54.8687867 C0.176956252,55.9152091 0.902948715,57.1859314 1.80224584,57.7092005 L30.4420058,74.3736636 L30.4420058,74.3736636 Z" id="path-3"></path>
                        </g>
                        <path d="M1.35756789,73.5441174 L1.35756789,38.0924843 L32.2435042,19.5100177 C32.2435042,19.5100177 32.579644,20.0772653 32.5137907,20.681437 L32.5137907,54.1977905 L32.5137907,54.8863782 C32.5137907,55.5475926 32.0549574,56.3522128 31.4822347,56.6873953 C31.4822347,56.6873953 32.1328841,56.3066532 31.4504676,56.7059847 C28.3794962,58.5030331 5.32730437,71.9295492 3.01950862,73.2586296 C2.25677152,73.7364042 1.35756789,73.5441174 1.35756789,73.5441174 L1.35756789,73.5441174 Z" id="left" fill-opacity="0.5" fill="#CAD3D9" transform="translate(16.939955, 46.546189) scale(-1, 1) translate(-16.939955, -46.546189) "></path>
                        <path d="M32.5195746,73.5476862 L32.5195746,38.0924843 L64.0658044,19.1407614 C64.0658044,19.1407614 64.3040976,19.4816675 64.2713017,20.2812259 L64.2713017,55.4916775 C64.2713017,55.4916775 43.7466035,67.2646956 33.5433792,73.1203614 C32.8728544,73.5476838 32.5195746,73.5476862 32.5195746,73.5476862 L32.5195746,73.5476862 Z" id="right" fill-opacity="0.25" fill="#000000"></path>
                    </g>
                    <g id="angle" transform="translate(3.000990, 18.429593)" stroke="#634A22" stroke-width="1.57499998" stroke-dasharray="3.779999828338623,8.977499771118163">
                        <path d="M31.8424122,19.5982288 L0.0721123726,0.556374085" id="left"></path>
                        <path d="M32.6091958,19.2044652 L64.7391578,0.068229567" id="right"></path>
                        <path d="M31.9499617,19.5108762 L31.9499617,56.4605583" id="middle"></path>
                    </g>
                    <g id="dots" transform="translate(18.741358, 7.332402)">
                        <g id="bottom" transform="translate(12.575535, 12.569833)">
                            <ellipse id="Oval" stroke="#634A22" stroke-width="0.839999988" fill="#FFFFFF" cx="4.04213621" cy="2.27932961" rx="4.04213621" ry="2.27932961"></ellipse>
                            <path d="M0.000621349789,2.29196888 L0.000621349789,5.13466755 C0.000621349789,5.13466755 1.0854956,6.9040185 4.0050197,6.90401838 C6.92454377,6.90401826 8.0871505,5.13466766 8.0871505,5.13466766 L8.0871505,2.29196888" id="Path-15" stroke="#634A22" stroke-width="0.839999988"></path>
                            <polygon id="Path-16" fill="#634A22" points="0.0034795588 3.59132223 0.0034795588 5.18035036 1.79627106 6.50812074 4.03219461 6.94450506 6.94867893 6.18282726 8.06582197 4.9526449 8.06582197 3.11770306 6.6531211 3.87733502 4.20310235 4.50725875 1.29828479 3.87303869"></polygon>
                        </g>
                        <g id="top" transform="translate(12.575535, 0.000000)">
                            <ellipse id="Oval" stroke="#634A22" stroke-width="0.839999988" fill="#FFFFFF" cx="4.04213621" cy="2.27932961" rx="4.04213621" ry="2.27932961"></ellipse>
                            <path d="M0.000621349789,2.29196888 L0.000621349789,5.13466755 C0.000621349789,5.13466755 1.0854956,6.9040185 4.0050197,6.90401838 C6.92454377,6.90401826 8.0871505,5.13466766 8.0871505,5.13466766 L8.0871505,2.29196888" id="Path-15" stroke="#634A22" stroke-width="0.839999988"></path>
                            <polygon id="Path-16" fill="#634A22" points="0.0034795588 3.59132223 0.0034795588 5.18035036 1.79627106 6.50812074 4.03219461 6.94450506 6.94867893 6.18282726 8.06582197 4.9526449 8.06582197 3.11770306 6.6531211 3.87733502 4.20310235 4.50725875 1.29828479 3.87303869"></polygon>
                        </g>
                        <g id="left" transform="translate(0.000000, 6.284916)">
                            <ellipse id="Oval" stroke="#634A22" stroke-width="0.839999988" fill="#FFFFFF" cx="4.04213621" cy="2.27932961" rx="4.04213621" ry="2.27932961"></ellipse>
                            <path d="M0.000621349789,2.29196888 L0.000621349789,5.13466755 C0.000621349789,5.13466755 1.0854956,6.9040185 4.0050197,6.90401838 C6.92454377,6.90401826 8.0871505,5.13466766 8.0871505,5.13466766 L8.0871505,2.29196888" id="Path-15" stroke="#634A22" stroke-width="0.839999988"></path>
                            <polygon id="Path-16" fill="#634A22" points="0.0034795588 3.59132223 0.0034795588 5.18035036 1.79627106 6.50812074 4.03219461 6.94450506 6.94867893 6.18282726 8.06582197 4.9526449 8.06582197 3.11770306 6.6531211 3.87733502 4.20310235 4.50725875 1.29828479 3.87303869"></polygon>
                        </g>
                        <g id="right" transform="translate(25.151070, 6.284916)">
                            <ellipse id="Oval" stroke="#634A22" stroke-width="0.839999988" fill="#FFFFFF" cx="4.04213621" cy="2.27932961" rx="4.04213621" ry="2.27932961"></ellipse>
                            <path d="M0.000621349789,2.29196888 L0.000621349789,5.13466755 C0.000621349789,5.13466755 1.0854956,6.9040185 4.0050197,6.90401838 C6.92454377,6.90401826 8.0871505,5.13466766 8.0871505,5.13466766 L8.0871505,2.29196888" id="Path-15" stroke="#634A22" stroke-width="0.839999988"></path>
                            <polygon id="Path-16" fill="#634A22" points="0.0034795588 3.59132223 0.0034795588 5.18035036 1.79627106 6.50812074 4.03219461 6.94450506 6.94867893 6.18282726 8.06582197 4.9526449 8.06582197 3.11770306 6.6531211 3.87733502 4.20310235 4.50725875 1.29828479 3.87303869"></polygon>
                        </g>
                    </g>
                </g>
            </g>
        </g>
    </g>
</svg>