<?xml version="1.0" encoding="UTF-8" standalone="no"?>
<svg width="230px" height="175px" viewBox="0 0 230 175" version="1.1" xmlns="http://www.w3.org/2000/svg" xmlns:xlink="http://www.w3.org/1999/xlink" xmlns:sketch="http://www.bohemiancoding.com/sketch/ns">
    <!-- Generator: Sketch 3.5.2 (25235) - http://www.bohemiancoding.com/sketch -->
    <title>logo-algolia-bg</title>
    <desc>Created with Sketch.</desc>
    <defs>
        <path d="M311.412824,134.714183 L295.40191,192.570348 L346.967121,163.750814 C339.478287,149.748102 326.699582,139.160135 311.412824,134.714183 Z M184.878719,193.765588 C184.878719,255.744491 234.145864,306 294.93936,306 C355.732855,306 405,255.744491 405,193.765588 C405,131.786684 355.732855,81.5311752 294.93936,81.5311752 C234.145864,81.5311752 184.878719,131.786684 184.878719,193.765588 Z M294.93936,113.59815 C338.285564,113.59815 373.554103,149.563267 373.554103,193.765588 C373.554103,237.967908 338.285564,273.933025 294.93936,273.933025 C251.593155,273.933025 216.324616,237.967908 216.324616,193.765588 C216.324616,149.563267 251.593155,113.59815 294.93936,113.59815 Z M332.926765,67.6492258 C332.956399,67.2141501 333.050241,66.7993105 333.050241,66.3541168 L333.050241,56.2360779 C333.045302,45.0657629 324.204401,36.005059 313.294038,36 L278.715744,36 C267.81032,36.005059 258.96448,45.0607039 258.96448,56.2360779 L258.96448,66.1770511 C269.973624,63.020223 281.555698,61.2950973 293.537835,61.2950973 C307.273335,61.2950973 320.505052,63.541302 332.926765,67.6492258 Z M212.221304,87.455287 C204.506507,79.5530986 191.990952,79.5581576 184.276155,87.455287 L180.784246,91.0320137 C173.069449,98.9291431 173.074388,111.748698 180.784246,119.650887 L184.503351,123.455269 C192.420649,110.443471 202.501252,98.9594972 214.21668,89.5041899 L212.221304,87.455287 Z" id="path-1"></path>
    </defs>
    <g id="Page-1" stroke="none" stroke-width="1" fill="none" fill-rule="evenodd" sketch:type="MSPage">
        <g id="Desktop-HD" sketch:type="MSArtboardGroup" transform="translate(-131.000000, -36.000000)" opacity="0.652052239">
            <g id="header" sketch:type="MSLayerGroup" transform="translate(-44.000000, 0.000000)">
                <g id="logo-algolia-bg">
                    <use fill="#387299" fill-rule="evenodd" sketch:type="MSShapeGroup" xlink:href="#path-1"></use>
                    <use fill="none" xlink:href="#path-1"></use>
                </g>
            </g>
        </g>
    </g>
</svg>