<svg width="98" height="98" viewBox="0 0 98 98" xmlns="http://www.w3.org/2000/svg" xmlns:xlink="http://www.w3.org/1999/xlink">
    <title>
        Group
    </title>
    <defs>
        <path d="M63.95 50.102a2.9 2.9 0 0 0-.427-2.09l-5.838-8.71c2.137-2.242 3.57-5.124 4.113-8.207 1.49-8.447-3.872-16.445-11.982-17.875-8.11-1.43-15.884 4.252-17.373 12.7-1.49 8.445 3.872 16.443 11.982 17.873 2.96.522 6.044.103 8.793-1.225l5.842 8.687a2.608 2.608 0 0 0 1.73 1.155c1.46.258 2.89-.788 3.16-2.308zm-7.51-19.967c-.944 5.363-5.904 8.988-11.054 8.08-5.15-.908-8.57-6.01-7.625-11.374.947-5.362 5.907-8.988 11.057-8.08 5.15.908 8.57 6.01 7.624 11.375zM44.375 66.73a2.902 2.902 0 0 1 1.957-.85l10.484-.214c.61-3.036 2.15-5.863 4.364-8.077 6.065-6.065 15.69-6.26 21.515-.438 5.823 5.823 5.627 15.45-.438 21.515-6.065 6.064-15.69 6.26-21.514.437a14.475 14.475 0 0 1-4.04-7.906l-10.465.197c-.72.03-1.43-.246-1.94-.755-1.048-1.047-1.012-2.82.08-3.91zm20.56-5.23c-3.852 3.85-3.977 9.993-.28 13.69 3.698 3.698 9.84 3.573 13.69-.278 3.852-3.85 3.977-9.994.28-13.69-3.698-3.7-9.84-3.574-13.69.277zM42.226 47.166c.18.727.07 1.505-.28 2.115l-5.216 9.094c2.288 2.09 3.92 4.863 4.676 7.9C43.48 74.6 38.69 82.953 30.7 84.945c-7.99 1.992-16.14-3.133-18.216-11.456C10.41 65.166 15.2 56.814 23.19 54.822a14.442 14.442 0 0 1 8.857.61l5.222-9.074c.343-.632.946-1.1 1.645-1.274 1.437-.36 2.938.585 3.312 2.083zM36.12 67.615c-1.317-5.284-6.518-8.555-11.59-7.29-5.075 1.265-8.132 6.595-6.814 11.88 1.317 5.283 6.518 8.554 11.592 7.29 5.074-1.266 8.13-6.596 6.813-11.88z" id="a"/>
        <linearGradient x1="115.308%" y1="-14.401%" x2="-20.998%" y2="118.558%" id="b">
            <stop stop-color="#6ADA9D" offset="0%"/>
            <stop stop-color="#5BC4CE" offset="100%"/>
        </linearGradient>
    </defs>
    <g fill="none" fill-rule="evenodd">
        <rect fill="#F7F7FE" width="98" height="98" rx="4"/>
        <mask id="c" fill="#fff">
            <use xlink:href="#a"/>
        </mask>
        <use fill="#FFF" xlink:href="#a"/>
        <rect fill="url(#b)" mask="url(#c)" x="-9" y="10" width="98" height="98" rx="4"/>
    </g>
</svg>
