<?xml version="1.0" encoding="UTF-8" standalone="no"?>
<svg width="224px" height="28px" viewBox="0 0 224 28" version="1.1" xmlns="http://www.w3.org/2000/svg" xmlns:xlink="http://www.w3.org/1999/xlink" xmlns:sketch="http://www.bohemiancoding.com/sketch/ns">
    <!-- Generator: Sketch 3.5.2 (25235) - http://www.bohemiancoding.com/sketch -->
    <title>logo-instantsearch</title>
    <desc>Created with Sketch.</desc>
    <defs>
        <path d="M108.291556,22.0752902 C107.620068,22.0752902 106.923156,22.0255716 106.200797,21.9261328 C105.478439,21.8266941 104.761178,21.6924538 104.048994,21.523408 C103.33681,21.3543621 102.655158,21.1455439 102.004018,20.896947 C101.352878,20.6483502 100.783139,20.3748977 100.294784,20.0765815 L102.217672,16.8547824 C103.275774,17.4514148 104.303339,17.9088262 105.300397,18.2270302 C106.297455,18.5452341 107.253803,18.7043337 108.169468,18.7043337 C108.881653,18.7043337 109.425957,18.5949528 109.802397,18.3761875 C110.178837,18.1574223 110.367055,17.8392231 110.367055,17.4215804 C110.367055,17.0039377 110.112707,16.6807666 109.604004,16.4520575 C109.095301,16.2233484 108.220345,15.949896 106.979109,15.631692 C105.900658,15.3532635 104.985007,15.0748392 104.232126,14.7964107 C103.479246,14.5179823 102.873898,14.2047549 102.416065,13.8567193 C101.958232,13.5086837 101.62758,13.1159066 101.424099,12.6783761 C101.220618,12.2408457 101.118879,11.723772 101.118879,11.1271395 C101.118879,10.3316296 101.286748,9.60573767 101.622492,8.94944198 C101.958236,8.29314628 102.421149,7.73629769 103.011245,7.27887947 C103.60134,6.82146126 104.298253,6.46348717 105.102004,6.20494644 C105.905755,5.94640571 106.785798,5.81713729 107.74216,5.81713729 C108.861307,5.81713729 110.005871,5.98120875 111.175889,6.30935659 C112.345906,6.63750444 113.49047,7.08994393 114.609617,7.66668863 L112.686729,10.6796674 C111.689671,10.1426982 110.799454,9.74992109 110.016051,9.50132423 C109.232649,9.25272738 108.474692,9.12843082 107.74216,9.12843082 C107.131716,9.12843082 106.628108,9.23283993 106.231319,9.44166129 C105.834531,9.65048264 105.63614,9.98359743 105.63614,10.4410156 C105.63614,10.6597809 105.687009,10.8437398 105.78875,10.9928979 C105.89049,11.142056 106.05836,11.2812682 106.292363,11.4105385 C106.526367,11.5398089 106.836671,11.6591336 107.223285,11.7685162 C107.6099,11.8778988 108.088073,12.0021954 108.657821,12.1414096 C109.838012,12.4397258 110.835055,12.7380376 111.64898,13.0363538 C112.462905,13.33467 113.124209,13.6677848 113.632912,14.0357082 C114.141615,14.4036315 114.507876,14.8262398 114.731705,15.3035458 C114.955535,15.7808517 115.067448,16.3476441 115.067448,17.0039398 C115.067448,17.7795619 114.909752,18.4805946 114.594356,19.1070586 C114.27896,19.7335227 113.826221,20.265512 113.236126,20.7030424 C112.64603,21.1405729 111.933857,21.4786596 111.099583,21.7173125 C110.26531,21.9559655 109.329311,22.0752902 108.291556,22.0752902 Z M124.793802,22.0752902 C123.450826,22.0752902 122.245218,21.8615001 121.176941,21.4339135 C120.108665,21.0063269 119.203187,20.424619 118.46048,19.6887724 C117.717774,18.9529257 117.153122,18.1027372 116.766508,17.1381814 C116.379893,16.1736256 116.186589,15.1643375 116.186589,14.1102869 C116.186589,12.9766852 116.379893,11.9077348 116.766508,10.9034035 C117.153122,9.89907219 117.712687,9.01905253 118.445219,8.26331809 C119.177752,7.50758366 120.078143,6.91096016 121.146419,6.4734297 C122.214696,6.03589923 123.430478,5.81713729 124.793802,5.81713729 C126.157127,5.81713729 127.367822,6.03589923 128.425924,6.4734297 C129.484027,6.91096016 130.379331,7.5026118 131.111863,8.24840236 C131.844396,8.99419292 132.398874,9.85432513 132.775314,10.8288248 C133.151754,11.8033245 133.339972,12.8275281 133.339972,13.9014665 C133.339972,14.179895 133.329798,14.4533475 133.30945,14.7218321 C133.289101,14.9903167 133.25858,15.2239942 133.217883,15.4228717 L121.375335,15.4228717 C121.456727,16.4769223 121.848423,17.2773922 122.550433,17.8243053 C123.252443,18.3712183 124.051095,18.6446708 124.946412,18.6446708 C125.658597,18.6446708 126.345336,18.4756275 127.00665,18.1375357 C127.667964,17.799444 128.110529,17.3420327 128.334358,16.765288 L132.485355,17.898884 C131.854563,19.1319243 130.877867,20.1362406 129.555239,20.9118628 C128.232611,21.6874849 126.645482,22.0752902 124.793802,22.0752902 Z M128.181748,12.4695558 C128.080007,11.4751684 127.713747,10.6896141 127.082955,10.1128694 C126.452163,9.53612473 125.668772,9.24775671 124.732758,9.24775671 C123.776396,9.24775671 122.987918,9.5410966 122.367301,10.1277852 C121.746683,10.7144737 121.385509,11.4950562 121.283769,12.4695558 L128.181748,12.4695558 Z M139.861513,22.0752902 C139.067936,22.0752902 138.330327,21.9509936 137.648665,21.7023968 C136.967003,21.4537999 136.382003,21.1057696 135.893648,20.6582952 C135.405293,20.2108209 135.018685,19.6838035 134.733811,19.0772271 C134.448937,18.4706508 134.306503,17.8093931 134.306503,17.0934342 C134.306503,16.317812 134.474372,15.6118075 134.810116,14.9753996 C135.14586,14.3389916 135.618947,13.7920868 136.229391,13.3346685 C136.839834,12.8772503 137.562182,12.5192762 138.396455,12.2607355 C139.230728,12.0021948 140.156554,11.8729264 141.17396,11.8729264 C141.845448,11.8729264 142.496578,11.9276168 143.12737,12.0369995 C143.758162,12.1463821 144.307553,12.3104535 144.77556,12.5292188 L144.77556,11.8132634 C144.77556,10.0034783 143.707299,9.09859934 141.570746,9.09859934 C140.695777,9.09859934 139.861517,9.24278336 139.06794,9.53115571 C138.274363,9.81952806 137.440102,10.2520801 136.565133,10.8288248 L135.130597,7.84567747 C136.1887,7.16949403 137.287482,6.66236405 138.426977,6.32427233 C139.566472,5.98618061 140.777167,5.81713729 142.059099,5.81713729 C144.480526,5.81713729 146.352525,6.37398588 147.675153,7.48769979 C148.997781,8.60141369 149.659085,10.2321846 149.659085,12.3800614 L149.659085,16.4073103 C149.659085,16.8846163 149.75065,17.217731 149.933783,17.4066646 C150.116917,17.5955983 150.442482,17.7099511 150.910489,17.7497266 L150.910489,21.7769755 C150.442482,21.8764142 150.010091,21.9410484 149.613302,21.9708801 C149.216514,22.0007117 148.865514,22.0156273 148.560292,22.0156273 C147.664975,21.9957395 146.983323,21.8167525 146.515316,21.4786607 C146.047309,21.140569 145.752266,20.6533265 145.630177,20.0169186 L145.538611,19.3009632 C144.826426,20.1959119 143.976905,20.8820289 142.990021,21.3593349 C142.003137,21.8366408 140.960311,22.0752902 139.861513,22.0752902 Z M141.296048,18.6446708 C141.825099,18.6446708 142.338882,18.5551773 142.837411,18.3761875 C143.33594,18.1971978 143.747983,17.9585484 144.073553,17.6602322 C144.54156,17.3022527 144.77556,16.9243912 144.77556,16.5266362 L144.77556,15.0350625 C144.348249,14.8759605 143.885336,14.751664 143.386807,14.6621691 C142.888278,14.5726742 142.425366,14.5279275 141.998055,14.5279275 C141.102737,14.5279275 140.365129,14.726802 139.785208,15.1245569 C139.205286,15.5223119 138.91533,16.0393856 138.91533,16.6757936 C138.91533,17.2525383 139.139156,17.7248652 139.586814,18.0927885 C140.034473,18.4607119 140.604212,18.6446708 141.296048,18.6446708 Z M163.200694,10.2023639 C162.020503,10.2222516 160.957329,10.4111824 160.011141,10.7691618 C159.064954,11.1271413 158.368041,11.6641025 157.920382,12.3800614 L157.920382,21.7769755 L153.036857,21.7769755 L153.036857,6.11545202 L157.523596,6.11545202 L157.523596,9.27758818 C158.093343,8.22353752 158.810604,7.40318021 159.675399,6.81649164 C160.540194,6.22980307 161.460933,5.91657573 162.437643,5.87680023 C162.844605,5.87680023 163.098953,5.88674396 163.200694,5.90663171 L163.200694,10.2023639 Z M164.106181,13.931298 C164.106181,12.8573596 164.299485,11.8281841 164.686099,10.8437405 C165.072714,9.85929699 165.632279,8.99419292 166.364811,8.24840236 C167.097344,7.5026118 167.997735,6.91096016 169.066011,6.4734297 C170.134288,6.03589923 171.35007,5.81713729 172.713394,5.81713729 C174.565073,5.81713729 176.121681,6.1999707 177.383265,6.96564901 C178.644849,7.73132731 179.591022,8.73067167 180.221814,9.96371207 L175.460377,11.3657913 C174.829585,10.3714039 173.90376,9.87421765 172.682872,9.87421765 C171.665466,9.87421765 170.815944,10.2421355 170.134282,10.9779822 C169.45262,11.7138288 169.111794,12.6982576 169.111794,13.931298 C169.111794,14.5478182 169.203359,15.1096387 169.386493,15.6167763 C169.569626,16.1239138 169.823973,16.5564659 170.149543,16.9144453 C170.475113,17.2724248 170.856635,17.5508491 171.29412,17.7497266 C171.731604,17.9486041 172.194517,18.0480413 172.682872,18.0480413 C173.293316,18.0480413 173.852881,17.9038573 174.361584,17.615485 C174.870287,17.3271126 175.246722,16.9542229 175.490899,16.4968047 L180.252336,17.9287154 C179.662241,19.1418681 178.721154,20.1362406 177.429048,20.9118628 C176.136942,21.6874849 174.565073,22.0752902 172.713394,22.0752902 C171.370418,22.0752902 170.16481,21.8515564 169.096533,21.4040821 C168.028257,20.9566077 167.122779,20.3599842 166.380072,19.6141937 C165.637366,18.8684031 165.072714,18.003299 164.686099,17.0188555 C164.299485,16.034412 164.106181,15.0052364 164.106181,13.931298 Z M197.639721,21.7769755 L192.756196,21.7769755 L192.756196,12.9766909 C192.756196,11.9624157 192.547631,11.2166363 192.130494,10.7393304 C191.713358,10.2620244 191.148706,10.023375 190.436521,10.023375 C190.151648,10.023375 189.841343,10.0880092 189.505599,10.2172796 C189.169855,10.34655 188.84429,10.5354807 188.528894,10.7840776 C188.213498,11.0326744 187.923542,11.3260143 187.659016,11.664106 C187.394491,12.0021978 187.191012,12.3800593 187.048576,12.797702 L187.048576,21.7769755 L182.16505,21.7769755 L182.16505,0 L187.048576,0 L187.048576,8.74062166 C187.638671,7.8058975 188.416975,7.08497743 189.383511,6.57783985 C190.350047,6.07070227 191.423394,5.81713729 192.603586,5.81713729 C193.682036,5.81713729 194.551905,6.0010962 195.213219,6.36901954 C195.874533,6.73694288 196.383229,7.20429796 196.739321,7.77109878 C197.095413,8.33789961 197.3345,8.97429801 197.456589,9.68031307 C197.578678,10.3863281 197.639721,11.077417 197.639721,11.7536005 L197.639721,21.7769755 Z" id="path-1"></path>
    </defs>
    <g id="Page-1" stroke="none" stroke-width="1" fill="none" fill-rule="evenodd" sketch:type="MSPage">
        <g id="Desktop-HD" sketch:type="MSArtboardGroup" transform="translate(-159.000000, -334.000000)">
            <g id="block1" sketch:type="MSLayerGroup" transform="translate(14.000000, 225.000000)">
                <g id="logo-instantsearch" transform="translate(145.303301, 109.150485)">
                    <path d="M0,21.7156169 L0,6.09822117 L4.87888111,6.09822117 L4.87888111,21.7156169 L0,21.7156169 Z M0,4.31337595 L0,0 L4.87888111,0 L4.87888111,4.31337595 L0,4.31337595 Z M23.377972,21.7156169 L18.4990909,21.7156169 L18.4990909,12.9401279 C18.4990909,11.9088788 18.3008883,11.1602429 17.9044773,10.6941976 C17.5080662,10.2281524 16.9846081,9.99513324 16.3340874,9.99513324 C15.9884983,9.99513324 15.6378322,10.0645432 15.2820787,10.2033652 C14.9263251,10.3421872 14.5909054,10.5355435 14.2758094,10.7834399 C13.9607135,11.0313363 13.6710328,11.3238497 13.4067587,11.6609888 C13.1424847,11.9981279 12.9392,12.3650091 12.7968986,12.7616433 L12.7968986,21.7156169 L7.91801749,21.7156169 L7.91801749,6.09822117 L12.3090105,6.09822117 L12.3090105,8.71599416 C12.8985449,7.78390366 13.7320121,7.06501486 14.8094371,6.55930619 C15.886862,6.05359751 17.1268986,5.80074697 18.5295839,5.80074697 C19.5663513,5.80074697 20.4049006,5.98418756 21.045257,6.35107424 C21.6856133,6.71796093 22.1785787,7.1939149 22.5241678,7.77895042 C22.869757,8.36398595 23.0984522,9.00354909 23.2102605,9.69765903 C23.3220687,10.391769 23.377972,11.0660371 23.377972,11.7204836 L23.377972,21.7156169 Z M33.0035979,22.0130911 C32.3327484,22.0130911 31.6364983,21.9635125 30.9148269,21.864354 C30.1931555,21.7651954 29.476577,21.6313333 28.7650699,21.4627638 C28.0535629,21.2941942 27.3725592,21.0859644 26.7220385,20.838068 C26.0715177,20.5901715 25.5023206,20.3174896 25.0144301,20.0200139 L26.9354895,16.8072925 C27.9925857,17.4022439 29.0191733,17.8583664 30.0152832,18.1756738 C31.0113931,18.4929812 31.9668311,18.6516326 32.8816259,18.6516326 C33.5931329,18.6516326 34.1369194,18.5425598 34.5130017,18.3244109 C34.889084,18.1062621 35.0771224,17.7889595 35.0771224,17.3724935 C35.0771224,16.9560275 34.8230165,16.633767 34.3147972,16.4057023 C33.8065779,16.1776376 32.9324537,15.9049557 31.6923986,15.5876483 C30.6149736,15.3100043 29.7001926,15.0323645 28.948028,14.7547205 C28.1958634,14.4770765 27.5910914,14.1647317 27.133694,13.8176768 C26.6762967,13.4706218 26.3459591,13.0789513 26.1426713,12.6426536 C25.9393836,12.206356 25.8377413,11.6907392 25.8377413,11.0957878 C25.8377413,10.3025193 26.0054511,9.57867263 26.3408759,8.92422611 C26.6763006,8.26977959 27.1387733,7.71449996 27.7283077,7.25837057 C28.3178421,6.80224117 29.0140921,6.4452757 29.8170787,6.18746343 C30.6200652,5.92965117 31.4992714,5.80074697 32.4547238,5.80074697 C33.5728063,5.80074697 34.7162826,5.96435614 35.885187,6.2915794 C37.0540915,6.61880266 38.1975678,7.06996736 39.3156503,7.64508703 L37.3945909,10.6495765 C36.398481,10.1141202 35.5091105,9.72244979 34.7264528,9.47455338 C33.943795,9.22665697 33.1865596,9.10271063 32.4547238,9.10271063 C31.8448606,9.10271063 31.341731,9.20682556 30.9453199,9.41505854 C30.5489088,9.62329152 30.3507063,9.95546773 30.3507063,10.4115971 C30.3507063,10.629746 30.4015275,10.8131866 30.5031713,10.9619244 C30.6048152,11.1106622 30.772525,11.2494822 31.0063059,11.3783883 C31.2400868,11.5072944 31.550096,11.6262829 31.9363426,11.7353573 C32.3225893,11.8444317 32.8003083,11.9683781 33.369514,12.1072001 C34.5485828,12.4046758 35.5446777,12.702147 36.3578287,12.9996227 C37.1709796,13.2970984 37.8316548,13.6292746 38.3398741,13.9961613 C38.8480934,14.363048 39.2140059,14.7844655 39.4376224,15.2604266 C39.6612389,15.7363877 39.7730454,16.3015831 39.7730454,16.9560296 C39.7730454,17.7294664 39.6154998,18.4285238 39.3004038,19.0532227 C38.9853078,19.6779217 38.5329994,20.208412 37.943465,20.6447097 C37.3539306,21.0810074 36.6424342,21.4181415 35.8089545,21.656122 C34.9754748,21.8941026 34.0403653,22.0130911 33.0035979,22.0130911 L33.0035979,22.0130911 Z M52.0820559,20.8826891 C51.4112064,21.1603331 50.6488889,21.4181415 49.7950804,21.656122 C48.9412719,21.8941026 48.0671478,22.0130911 47.1726818,22.0130911 C46.5628186,22.0130911 45.9885394,21.9387233 45.4498269,21.7899854 C44.9111144,21.6412476 44.4384775,21.4032706 44.0319021,21.0760473 C43.6253266,20.7488241 43.3051533,20.3174908 43.0713724,19.7820345 C42.8375915,19.2465783 42.7207028,18.6020573 42.7207028,17.8484522 L42.7207028,9.69765903 L40.6776713,9.69765903 L40.6776713,6.09822117 L42.7207028,6.09822117 L42.7207028,1.13040197 L47.5995839,1.13040197 L47.5995839,6.09822117 L50.8623356,6.09822117 L50.8623356,9.69765903 L47.5995839,9.69765903 L47.5995839,16.2123441 C47.5995839,16.7279686 47.7368011,17.0998077 48.0112395,17.3278724 C48.2856779,17.5559371 48.6261798,17.6699677 49.0327552,17.6699677 C49.3783444,17.6699677 49.7442568,17.6104734 50.1305035,17.4914832 C50.5167502,17.3724929 50.8623341,17.2435887 51.1672657,17.1047667 L52.0820559,20.8826891 Z M58.261972,22.0130911 C57.4691499,22.0130911 56.7322429,21.8891447 56.051229,21.6412483 C55.3702151,21.3933519 54.7857717,21.0463021 54.2978811,20.6000886 C53.8099906,20.1538751 53.4237497,19.6283426 53.1391468,19.0234753 C52.854544,18.4186081 52.7122447,17.7592135 52.7122447,17.0452719 C52.7122447,16.2718351 52.8799546,15.5678198 53.2153794,14.933205 C53.5508041,14.2985902 54.023441,13.7532263 54.6333042,13.2970969 C55.2431674,12.8409675 55.964828,12.484002 56.7983077,12.2261898 C57.6317874,11.9683775 58.5567327,11.8394733 59.5731713,11.8394733 C60.2440208,11.8394733 60.8945318,11.8940097 61.5247238,12.0030841 C62.1549157,12.1121585 62.7037843,12.2757677 63.1713461,12.4939165 L63.1713461,11.7799785 C63.1713461,9.9752926 62.1041016,9.07296321 59.9695804,9.07296321 C59.0954432,9.07296321 58.261976,9.21674097 57.4691538,9.5043008 C56.6763317,9.79186064 55.8428645,10.2231939 54.9687273,10.7983136 L53.5355559,7.82357155 C54.5926521,7.14929332 55.6903894,6.64359223 56.8288007,6.30645311 C57.967212,5.969314 59.1767558,5.80074697 60.4574685,5.80074697 C62.8765925,5.80074697 64.7468115,6.3560266 66.0681818,7.46660251 C67.389552,8.57717842 68.0502272,10.2033545 68.0502272,12.3451794 L68.0502272,16.3610812 C68.0502272,16.8370423 68.1417053,17.1692185 68.3246643,17.3576198 C68.5076233,17.546021 68.8328787,17.6600517 69.3004405,17.6997151 L69.3004405,21.7156169 C68.8328787,21.8147754 68.4008988,21.8792275 68.0044877,21.9089751 C67.6080767,21.9387227 67.2574106,21.9535962 66.952479,21.9535962 C66.058013,21.9337645 65.3770093,21.7552818 64.9094475,21.4181427 C64.4418857,21.0810035 64.147123,20.5951339 64.0251503,19.9605191 L63.9336713,19.246581 C63.2221642,20.139008 62.3734507,20.8231919 61.3875052,21.299153 C60.4015597,21.7751141 59.3597257,22.0130911 58.261972,22.0130911 L58.261972,22.0130911 Z M59.6951433,18.5921377 C60.2236914,18.5921377 60.7369852,18.5028964 61.2350402,18.3244109 C61.7330951,18.1459255 62.1447466,17.9079485 62.470007,17.6104728 C62.9375687,17.253502 63.1713461,16.8767051 63.1713461,16.4800709 L63.1713461,14.9926999 C62.7444419,14.8340462 62.2819692,14.7100998 61.7839143,14.6208571 C61.2858594,14.5316144 60.8233867,14.4869937 60.3964825,14.4869937 C59.5020165,14.4869937 58.7651095,14.6853079 58.1857395,15.0819421 C57.6063695,15.4785764 57.3166888,15.9941932 57.3166888,16.628808 C57.3166888,17.2039276 57.5403019,17.6749238 57.9875349,18.0418104 C58.4347679,18.4086971 59.0039651,18.5921377 59.6951433,18.5921377 L59.6951433,18.5921377 Z M86.8847412,21.7156169 L82.0058601,21.7156169 L82.0058601,12.9401279 C82.0058601,11.9088788 81.8076575,11.1602429 81.4112465,10.6941976 C81.0148354,10.2281524 80.4913773,9.99513324 79.8408566,9.99513324 C79.4952675,9.99513324 79.1446014,10.0645432 78.7888479,10.2033652 C78.4330943,10.3421872 78.0976746,10.5355435 77.7825786,10.7834399 C77.4674827,11.0313363 77.177802,11.3238497 76.9135279,11.6609888 C76.6492539,11.9981279 76.4459692,12.3650091 76.3036678,12.7616433 L76.3036678,21.7156169 L71.4247867,21.7156169 L71.4247867,6.09822117 L75.8157797,6.09822117 L75.8157797,8.71599416 C76.4053141,7.78390366 77.2387813,7.06501486 78.3162063,6.55930619 C79.3936312,6.05359751 80.6336678,5.80074697 82.0363531,5.80074697 C83.0731205,5.80074697 83.9116698,5.98418756 84.5520262,6.35107424 C85.1923825,6.71796093 85.6853479,7.1939149 86.030937,7.77895042 C86.3765262,8.36398595 86.6052214,9.00354909 86.7170297,9.69765903 C86.8288379,10.391769 86.8847412,11.0660371 86.8847412,11.7204836 L86.8847412,21.7156169 Z M100.139035,20.8826891 C99.4681854,21.1603331 98.7058679,21.4181415 97.8520594,21.656122 C96.9982509,21.8941026 96.1241268,22.0130911 95.2296608,22.0130911 C94.6197976,22.0130911 94.0455184,21.9387233 93.5068059,21.7899854 C92.9680934,21.6412476 92.4954565,21.4032706 92.0888811,21.0760473 C91.6823056,20.7488241 91.3621323,20.3174908 91.1283514,19.7820345 C90.8945705,19.2465783 90.7776818,18.6020573 90.7776818,17.8484522 L90.7776818,9.69765903 L88.7346503,9.69765903 L88.7346503,6.09822117 L90.7776818,6.09822117 L90.7776818,1.13040197 L95.6565629,1.13040197 L95.6565629,6.09822117 L98.9193146,6.09822117 L98.9193146,9.69765903 L95.6565629,9.69765903 L95.6565629,16.2123441 C95.6565629,16.7279686 95.7937801,17.0998077 96.0682185,17.3278724 C96.3426569,17.5559371 96.6831588,17.6699677 97.0897342,17.6699677 C97.4353234,17.6699677 97.8012358,17.6104734 98.1874825,17.4914832 C98.5737292,17.3724929 98.9193131,17.2435887 99.2242447,17.1047667 L100.139035,20.8826891 Z M201.060724,21.7156169 L201.060724,19.1870861 L202.402416,19.1870861 L202.402416,21.7156169 L201.060724,21.7156169 Z M203.642465,26.9809103 C202.991944,26.9809103 202.387172,26.8966267 201.828131,26.7280572 C201.26909,26.5594876 200.76596,26.27689 200.318727,25.8802557 L201.142038,24.8985908 C201.487628,25.1762348 201.863704,25.3646333 202.27028,25.4637918 C202.676855,25.5629504 203.083424,25.6125289 203.49,25.6125289 C203.876247,25.6125289 204.252323,25.5381611 204.618241,25.3894233 C204.984159,25.2406854 205.309415,25.0324556 205.594017,24.7647274 C205.87862,24.4969993 206.112398,24.1796967 206.295357,23.81281 C206.478316,23.4459233 206.569794,23.0443371 206.569794,22.6080395 L206.569794,6.24695827 L208.094444,6.24695827 L208.094444,22.5485446 C208.094444,23.2029911 207.967391,23.7979336 207.713281,24.3333898 C207.459172,24.8688461 207.11867,25.3348843 206.691766,25.7315186 C206.264861,26.1281529 205.787142,26.4355398 205.258594,26.6536886 C204.730046,26.8718375 204.191342,26.9809103 203.642465,26.9809103 L203.642465,26.9809103 Z M206.569794,2.73676267 L206.569794,0 L208.094444,0 L208.094444,2.73676267 L206.569794,2.73676267 Z M217.598098,22.0130911 C216.378371,22.0130911 215.209485,21.8147769 214.091402,21.4181427 C212.97332,21.0215084 211.997553,20.4265659 211.164073,19.6332974 L211.926399,18.6218851 C212.780207,19.3754902 213.664495,19.9307698 214.57929,20.2877407 C215.494085,20.6447115 216.500344,20.8231942 217.598098,20.8231942 C218.980454,20.8231942 220.093438,20.5405966 220.937082,19.9753928 C221.780726,19.410189 222.202542,18.6218902 222.202542,17.6104728 C222.202542,17.1345117 222.095817,16.7329256 221.882365,16.4057023 C221.668913,16.0784791 221.34874,15.8008392 220.921836,15.5727746 C220.494931,15.3447099 219.966391,15.1414379 219.336199,14.9629524 C218.706007,14.784467 217.974182,14.5960686 217.140703,14.3977514 C216.246237,14.1994343 215.468673,14.0011202 214.807988,13.802803 C214.147303,13.6044859 213.603516,13.3665089 213.176612,13.088865 C212.749708,12.811221 212.429534,12.4740869 212.216082,12.0774527 C212.00263,11.6808184 211.895906,11.1751173 211.895906,10.5603342 C211.895906,9.78689743 212.048369,9.11262931 212.353301,8.53750964 C212.658232,7.96238997 213.080048,7.48643601 213.61876,7.10963346 C214.157473,6.73283092 214.777491,6.45023325 215.478834,6.26183198 C216.180177,6.07343071 216.927248,5.97923149 217.72007,5.97923149 C218.960125,5.97923149 220.057862,6.1825035 221.013315,6.58905361 C221.968767,6.99560372 222.710756,7.51617837 223.239304,8.15079318 L222.3855,8.95397353 C221.856952,8.35902214 221.170866,7.9128153 220.327222,7.61533961 C219.483578,7.31786392 218.584043,7.1691283 217.628591,7.1691283 C217.039056,7.1691283 216.485106,7.22862255 215.966722,7.34761283 C215.448338,7.4666031 214.99603,7.65500155 214.609783,7.91281381 C214.223536,8.17062608 213.918609,8.50280228 213.694993,8.90935239 C213.471376,9.31590251 213.35957,9.79681433 213.35957,10.3521023 C213.35957,10.8082317 213.435802,11.1751129 213.588267,11.4527568 C213.740733,11.7304008 213.984675,11.9683778 214.3201,12.1666949 C214.655524,12.3650121 215.087504,12.5385369 215.616052,12.6872748 C216.1446,12.8360126 216.774783,12.9996218 217.506619,13.1781072 C218.502729,13.4160878 219.387017,13.644149 220.15951,13.8622979 C220.932004,14.0804467 221.577433,14.3481708 222.095816,14.6654782 C222.6142,14.9827856 223.010605,15.3595825 223.285044,15.7958802 C223.559482,16.2321779 223.696699,16.7874575 223.696699,17.4617357 C223.696699,18.8499556 223.142748,19.955557 222.03483,20.7785731 C220.926912,21.6015892 219.448016,22.0130911 217.598098,22.0130911 L217.598098,22.0130911 Z" id="instantsearch.js" fill="#FFFFFF" sketch:type="MSShapeGroup"></path>
                    <g id="Path">
                        <use fill="#00B7E5" fill-rule="evenodd" sketch:type="MSShapeGroup" xlink:href="#path-1"></use>
                        <use fill="none" xlink:href="#path-1"></use>
                    </g>
                </g>
            </g>
        </g>
    </g>
</svg>