<svg width="89" height="88" viewBox="0 0 89 88" xmlns="http://www.w3.org/2000/svg"><title>InstantSearch.js</title><defs><linearGradient x1="42.966%" y1="14.059%" x2="85.153%" y2="110.153%" id="a"><stop stop-color="#2CA5C3" offset="0%"/><stop stop-color="#136B90" offset="100%"/></linearGradient><linearGradient x1="10.934%" y1="-27.347%" x2="73.434%" y2="79.684%" id="b"><stop stop-color="#51C8E5" offset="0%"/><stop stop-color="#2897C5" offset="100%"/></linearGradient></defs><g fill="none" fill-rule="evenodd"><g transform="translate(.705 .376)"><rect fill="url(#a)" y="6.015" width="87.742" height="81.534" rx="4"/><rect fill="url(#b)" width="87.742" height="81.534" rx="4"/></g><path d="M58.896 41.77c.12-.68-.035-1.39-.398-1.927l-5.414-8.026c1.977-2.064 3.3-4.717 3.802-7.556 1.37-7.778-3.6-15.15-11.113-16.473-7.51-1.325-14.705 3.9-16.076 11.68-1.372 7.778 3.6 15.15 11.112 16.474 2.74.484 5.596.1 8.14-1.12l5.42 8.006c.358.558.946.95 1.603 1.066 1.35.24 2.676-.724 2.923-2.123zm-6.97-18.396c-.87 4.94-5.46 8.274-10.23 7.433-4.77-.84-7.942-5.545-7.07-10.484.87-4.94 5.46-8.274 10.23-7.433 4.77.84 7.942 5.545 7.07 10.484zM40.81 56.998c.487-.49 1.155-.768 1.804-.78l9.68-.168c.557-2.803 1.97-5.41 4.01-7.448 5.585-5.585 14.475-5.74 19.868-.347 5.394 5.394 5.24 14.284-.346 19.87-5.585 5.584-14.475 5.74-19.87.345-1.968-1.97-3.29-4.527-3.75-7.312l-9.667.154c-.664.026-1.323-.23-1.794-.702-.97-.97-.942-2.607.063-3.612zm18.982-4.786c-3.546 3.547-3.645 9.22-.22 12.644 3.424 3.425 9.097 3.326 12.643-.22 3.546-3.547 3.645-9.22.22-12.644-3.424-3.425-9.097-3.326-12.643.22zm-21.01-13.185c.166.67.062 1.386-.263 1.95l-4.842 8.383c2.116 1.92 3.622 4.475 4.32 7.273 1.91 7.663-2.536 15.363-9.937 17.21-7.4 1.844-14.94-2.868-16.85-10.53-1.91-7.665 2.534-15.365 9.935-17.21 2.702-.674 5.577-.49 8.2.55l4.846-8.365c.32-.582.88-1.014 1.527-1.176 1.332-.332 2.72.536 3.064 1.915zm-5.676 18.84c-1.213-4.865-6.025-7.872-10.724-6.7-4.7 1.172-7.536 6.085-6.323 10.95 1.212 4.867 6.024 7.874 10.723 6.702 4.7-1.173 7.536-6.086 6.323-10.952z" fill="#FFF"/></g></svg>