<?xml version="1.0" encoding="UTF-8" standalone="no"?>
<svg width="29px" height="51px" viewBox="0 0 29 51" version="1.1" xmlns="http://www.w3.org/2000/svg" xmlns:xlink="http://www.w3.org/1999/xlink" xmlns:sketch="http://www.bohemiancoding.com/sketch/ns">
    <!-- Generator: Sketch 3.5.2 (25235) - http://www.bohemiancoding.com/sketch -->
    <title>icon-jekyll</title>
    <desc>Created with Sketch.</desc>
    <defs></defs>
    <g id="Page-1" stroke="none" stroke-width="1" fill="none" fill-rule="evenodd" sketch:type="MSPage">
        <g id="Desktop-HD" sketch:type="MSArtboardGroup" transform="translate(-580.000000, -579.000000)" fill="#FFFFFF">
            <g id="projects" sketch:type="MSLayerGroup" transform="translate(14.000000, 224.000000)">
                <g id="jekyll" transform="translate(470.000000, 311.000000)" sketch:type="MSShapeGroup">
                    <path d="M96.9359907,86.2256876 C95.784383,89.2257283 97.2818954,92.5909441 100.282252,93.7426729 C103.281948,94.8941485 106.647243,93.3955953 107.798853,90.3955497 C107.798853,90.3955497 121.6384,53.9603482 122.069065,53.1192164 C123.164847,52.5102235 123.851749,52.2049341 124.080716,51.6706777 C124.728118,50.0683014 122.57165,47.70444 118.468004,46.0464592 C114.364357,44.3884784 110.717599,44.0847249 110.571661,46.0464592 C110.459863,47.5492706 111.029595,47.8545601 111.288558,48.9472206 C111.41376,49.1101371 96.9359907,86.2256876 96.9359907,86.2256876 Z M116.987933,49.6170729 C119.360703,50.5757342 121.49074,50.8417086 121.745505,50.2111434 C122.00027,49.5805782 120.283288,48.2922556 117.910518,47.3335944 C115.537748,46.3749332 113.407711,46.1089588 113.152946,46.739524 C112.898181,47.3700891 114.615163,48.6584117 116.987933,49.6170729 Z M111.13737,64.5403618 C107.824056,64.8744445 106.245015,66.5626437 105.076594,69.6064846 C104.676029,70.6499935 98.5613666,86.5792328 98.5613666,86.5792328 C97.754807,88.6803923 98.8111571,91.0402013 100.911227,91.8463425 C103.015578,92.6541274 105.379244,91.5954642 106.187212,89.4906353 L117.284467,60.5812986 C115.910219,62.1231756 114.450685,64.2062791 111.13737,64.5403618 Z M105.38174,79.2993688 C106.224774,79.2993688 106.908187,78.6159552 106.908187,77.7729218 C106.908187,76.9298883 106.224774,76.2464747 105.38174,76.2464747 C104.538707,76.2464747 103.855293,76.9298883 103.855293,77.7729218 C103.855293,78.6159552 104.538707,79.2993688 105.38174,79.2993688 Z M103.074284,87.7395787 C103.917318,87.7395787 104.600731,87.0561651 104.600731,86.2131317 C104.600731,85.3700983 103.917318,84.6866847 103.074284,84.6866847 C102.231251,84.6866847 101.547837,85.3700983 101.547837,86.2131317 C101.547837,87.0561651 102.231251,87.7395787 103.074284,87.7395787 Z M110.074284,70.7395787 C110.917318,70.7395787 111.600731,70.0561651 111.600731,69.2131317 C111.600731,68.3700983 110.917318,67.6866847 110.074284,67.6866847 C109.231251,67.6866847 108.547837,68.3700983 108.547837,69.2131317 C108.547837,70.0561651 109.231251,70.7395787 110.074284,70.7395787 Z M109.617631,74.8726724 C110.060223,74.8726724 110.419016,74.5138803 110.419016,74.0712877 C110.419016,73.6286952 110.060223,73.269903 109.617631,73.269903 C109.175038,73.269903 108.816246,73.6286952 108.816246,74.0712877 C108.816246,74.5138803 109.175038,74.8726724 109.617631,74.8726724 Z M103.244715,80.7494935 C103.62408,80.7494935 103.931616,80.4419573 103.931616,80.0625923 C103.931616,79.6832273 103.62408,79.3756911 103.244715,79.3756911 C102.86535,79.3756911 102.557813,79.6832273 102.557813,80.0625923 C102.557813,80.4419573 102.86535,80.7494935 103.244715,80.7494935 Z" id="icon-jekyll"></path>
                </g>
            </g>
        </g>
    </g>
</svg>