<?xml version="1.0" encoding="UTF-8" standalone="no"?>
<svg width="58px" height="41px" viewBox="0 0 58 41" version="1.1" xmlns="http://www.w3.org/2000/svg" xmlns:xlink="http://www.w3.org/1999/xlink" xmlns:sketch="http://www.bohemiancoding.com/sketch/ns">
    <!-- Generator: Sketch 3.5.2 (25235) - http://www.bohemiancoding.com/sketch -->
    <title>icon-salesforce</title>
    <desc>Created with Sketch.</desc>
    <defs></defs>
    <g id="Page-1" stroke="none" stroke-width="1" fill="none" fill-rule="evenodd" sketch:type="MSPage">
        <g id="Desktop-HD" sketch:type="MSArtboardGroup" transform="translate(-564.000000, -582.000000)" fill="#FFFFFF">
            <g id="salesforce" sketch:type="MSLayerGroup" transform="translate(484.000000, 535.000000)">
                <g id="icon-salesforce" transform="translate(80.000000, 47.000000)" sketch:type="MSShapeGroup">
                    <g id="svg3671">
                        <path d="M24.2048968,4.51440727 C26.0700389,2.56166093 28.6667385,1.35061052 31.5385959,1.35061052 C35.3562057,1.35061052 38.6869343,3.48960863 40.4606317,6.66499437 C42.0020101,5.97296557 43.7081538,5.58804525 45.5032707,5.58804525 C52.3888085,5.58804525 57.9710535,11.2459601 57.9710535,18.2250209 C57.9710535,25.2049095 52.3888085,30.8628244 45.5032707,30.8628244 C44.6629681,30.8628244 43.8416136,30.7783903 43.0474453,30.616972 C41.4854712,33.4165431 38.5089878,35.3080333 35.0925814,35.3080333 C33.6624194,35.3080333 32.3096971,34.9760913 31.1052635,34.3858801 C29.5218699,38.128299 25.832777,40.7523795 21.533229,40.7523795 C17.0557346,40.7523795 13.2397726,37.9056247 11.7750099,33.9132145 C11.1348971,34.0497991 10.4717172,34.1209887 9.79123687,34.1209887 C4.46025875,34.1209887 0.138467486,29.7337248 0.138467486,24.3208344 C0.138467486,20.6934777 2.0802254,17.5263698 4.96526409,15.8318926 C4.37128554,14.4585962 4.04093131,12.9429207 4.04093131,11.3494333 C4.04093131,5.12448529 9.07038911,0.0783039866 15.273799,0.0783039866 C18.9159338,0.0783039866 22.1527462,1.81830942 24.2048968,4.51440727 Z M8.51496531,21.1708614 C8.47871697,21.2660568 8.52814653,21.2859236 8.53968009,21.3024794 C8.64842512,21.3819468 8.75881781,21.439064 8.87003432,21.5028035 C9.45989375,21.817362 10.0168001,21.9092462 10.5992451,21.9092462 C11.7855546,21.9092462 12.522055,21.2751624 12.522055,20.2545027 L12.522055,20.2346359 C12.522055,19.2909602 11.6908146,18.948257 10.9106514,18.7007491 L10.8093208,18.6676376 C10.221109,18.4755914 9.71363216,18.3100342 9.71363216,17.920975 L9.71363216,17.9002803 C9.71363216,17.5675105 10.0102095,17.322486 10.4699044,17.322486 C10.9806766,17.322486 11.5870125,17.4930098 11.977506,17.7098897 C11.977506,17.7098897 12.0920179,17.7843904 12.134033,17.6726393 C12.1571001,17.6130387 12.3548184,17.0782892 12.375414,17.0203442 C12.3976573,16.9574325 12.3581137,16.9110765 12.3177462,16.8862429 C11.8720563,16.6139015 11.2558345,16.4276497 10.6181931,16.4276497 L10.4995622,16.4284775 C9.41375949,16.4284775 8.65583956,17.0873948 8.65583956,18.0318983 L8.65583956,18.0517651 C8.65583956,19.0475913 9.49202296,19.3704277 10.2754815,19.5955854 L10.4015269,19.6344913 C10.9724383,19.8108096 11.4642624,19.9622944 11.4642624,20.3662538 L11.4642624,20.3861206 C11.4642624,20.755313 11.1446179,21.0301379 10.6289029,21.0301379 C10.4287131,21.0301379 9.79024798,21.0259989 9.1007056,20.5881003 C9.01749918,20.539261 8.96889344,20.5036662 8.90463501,20.4647603 C8.87085815,20.4432379 8.78600407,20.4059875 8.7489319,20.5185663 L8.51496531,21.1708614 Z M25.8820418,21.1708614 C25.8457935,21.2660568 25.895223,21.2859236 25.9067566,21.3024794 C26.0155016,21.3819468 26.1258943,21.439064 26.2371108,21.5028035 C26.8269702,21.817362 27.3838766,21.9092462 27.9663216,21.9092462 C29.1526311,21.9092462 29.8891315,21.2751624 29.8891315,20.2545027 L29.8891315,20.2346359 C29.8891315,19.2909602 29.0578911,18.948257 28.2777278,18.7007491 L28.1763972,18.6676376 C27.5881855,18.4755914 27.0807087,18.3100342 27.0807087,17.920975 L27.0807087,17.9002803 C27.0807087,17.5675105 27.377286,17.322486 27.8369809,17.322486 C28.3477531,17.322486 28.954089,17.4930098 29.3445825,17.7098897 C29.3445825,17.7098897 29.4590943,17.7843904 29.5011095,17.6726393 C29.5241766,17.6130387 29.7218948,17.0782892 29.7424905,17.0203442 C29.7647338,16.9574325 29.7251902,16.9110765 29.6848227,16.8862429 C29.2391328,16.6139015 28.6229109,16.4276497 27.9852696,16.4276497 L27.8666387,16.4284775 C26.780836,16.4284775 26.0229161,17.0873948 26.0229161,18.0318983 L26.0229161,18.0517651 C26.0229161,19.0475913 26.8590995,19.3704277 27.642558,19.5955854 L27.7686034,19.6344913 C28.3395148,19.8108096 28.8321628,19.9622944 28.8321628,20.3662538 L28.8321628,20.3861206 C28.8321628,20.755313 28.5116944,21.0301379 27.9959794,21.0301379 C27.7957896,21.0301379 27.1573245,21.0259989 26.4677821,20.5881003 C26.3845757,20.539261 26.3351461,20.5053218 26.2725353,20.4647603 C26.2511159,20.4506879 26.1506091,20.411782 26.1160084,20.5185663 L25.8820418,21.1708614 Z M38.7282933,18.1020953 C38.6310818,17.7718088 38.4794978,17.4804282 38.2776605,17.237887 C38.0758231,16.9945181 37.820437,16.7991607 37.5172691,16.6567815 C37.2149249,16.5152302 36.8573844,16.4432128 36.4561812,16.4432128 C36.0541541,16.4432128 35.6966136,16.5152302 35.3942694,16.6567815 C35.0911015,16.7991607 34.8357154,16.9945181 34.6330542,17.237887 C34.4320406,17.481256 34.2804567,17.7726366 34.1824214,18.1020953 C34.0860337,18.4307262 34.037428,18.7899851 34.037428,19.1715943 C34.037428,19.5532035 34.0860337,19.9132903 34.1824214,20.2410934 C34.2804567,20.5705521 34.4312168,20.8619326 34.633878,21.1053016 C34.8357154,21.3486706 35.0919253,21.5432002 35.3942694,21.6814404 C35.6974374,21.8196806 36.0541541,21.8900424 36.4561812,21.8900424 C36.8573844,21.8900424 37.2141011,21.8196806 37.5172691,21.6814404 C37.8196132,21.5432002 38.0758231,21.3486706 38.2776605,21.1053016 C38.4794978,20.8627604 38.6310818,20.5713798 38.7282933,20.2410934 C38.8255048,19.9124625 38.8741105,19.5523757 38.8741105,19.1715943 C38.8741105,18.7908129 38.8255048,18.4307262 38.7282933,18.1020953 Z M46.8600364,20.842809 C46.8270834,20.7459581 46.733991,20.7823807 46.733991,20.7823807 C46.5898215,20.8378423 46.4365899,20.889165 46.2734723,20.9148264 C46.1078833,20.9404877 45.9258177,20.9537323 45.730571,20.9537323 C45.2511042,20.9537323 44.8704966,20.8105254 44.5978102,20.5274227 C44.3243,20.24432 44.1710683,19.7865546 44.172716,19.1673709 C44.1743636,18.6036489 44.3094711,18.1798226 44.5524998,17.8569862 C44.7938808,17.5358054 45.1613072,17.371076 45.6514837,17.371076 C46.0601014,17.371076 46.3715076,17.4182598 46.6977427,17.521733 C46.6977427,17.521733 46.7760062,17.5556722 46.8130783,17.4530268 C46.8995801,17.2113134 46.9638385,17.0383062 47.056107,16.772587 C47.0824695,16.6972585 47.018211,16.6649749 46.9951439,16.6558692 C46.866627,16.6053743 46.5634591,16.5234235 46.3344354,16.4886565 C46.1202407,16.4555451 45.8697976,16.4381616 45.5913444,16.4381616 C45.1753122,16.4381616 44.8045905,16.5093512 44.4874175,16.6517303 C44.1710683,16.7932817 43.902501,16.9886391 43.6899539,17.2320081 C43.4774068,17.475377 43.3159369,17.7667576 43.2080157,18.0962163 C43.1009183,18.4248472 43.0465458,18.7857617 43.0465458,19.1673709 C43.0465458,19.9926732 43.268155,20.6598684 43.7056066,21.1482619 C44.1438821,21.638311 44.802119,21.8874745 45.6605458,21.8874745 C46.1680226,21.8874745 46.6886806,21.7840013 47.0626976,21.6358277 C47.0626976,21.6358277 47.1343705,21.6010607 47.1030651,21.5174543 L46.8600364,20.842809 Z M51.9266412,17.9144365 C51.842611,17.595739 51.634183,17.2737304 51.4974279,17.1263846 C51.2815855,16.892949 51.070686,16.7298753 50.8614342,16.6388188 C50.587924,16.5212733 50.2600412,16.4434614 49.9008531,16.4434614 C49.4823495,16.4434614 49.1025657,16.5138232 48.7944547,16.6595135 C48.48552,16.8052037 48.2260148,17.0038723 48.0225298,17.2513802 C47.8190447,17.4980603 47.6658131,17.7919242 47.5686016,18.1255219 C47.4705663,18.4574639 47.4211368,18.8192062 47.4211368,19.2008154 C47.4211368,19.5890469 47.472214,19.9507892 47.5735446,20.276109 C47.675699,20.6039121 47.8388166,20.8928093 48.0596019,21.1320393 C48.2795635,21.3729249 48.5629596,21.5616601 48.902376,21.693278 C49.2393208,21.8240681 49.6487623,21.8919465 50.119167,21.8911188 C51.0871625,21.8878076 51.5971108,21.6709278 51.8071865,21.55421 C51.8442586,21.5335154 51.8796832,21.4970928 51.8351966,21.3927918 L51.6160588,20.7760915 C51.5831058,20.6842073 51.4900135,20.7181465 51.4900135,20.7181465 C51.2502801,20.8075473 50.9092161,20.9681378 50.114224,20.9664822 C49.5943898,20.9656544 49.2088392,20.8116863 48.9674582,20.5708007 C48.7194866,20.3241205 48.5983842,19.9615504 48.5769647,19.4499789 L51.9291127,19.45329 C51.9291127,19.45329 52.0172621,19.4516345 52.0263242,19.3655448 C52.0296195,19.3291222 52.1416598,18.673516 51.9266412,17.9144365 L51.9266412,17.9144365 Z M25.0799647,17.9144365 C24.9959344,17.595739 24.7883303,17.2737304 24.6515752,17.1263846 C24.4357327,16.892949 24.2248333,16.7298753 24.0155815,16.6388188 C23.7420712,16.5212733 23.4141885,16.4434614 23.0550003,16.4434614 C22.6373206,16.4434614 22.2567129,16.5138232 21.948602,16.6595135 C21.6396673,16.8052037 21.3801621,17.0038723 21.176677,17.2513802 C20.973192,17.4980603 20.8199604,17.7919242 20.7227489,18.1255219 C20.6255374,18.4574639 20.5752841,18.8192062 20.5752841,19.2008154 C20.5752841,19.5890469 20.6263613,19.9507892 20.7276919,20.276109 C20.8298463,20.6039121 20.9929638,20.8928093 21.2137492,21.1320393 C21.4337108,21.3729249 21.7171069,21.5616601 22.0565232,21.693278 C22.3934681,21.8240681 22.8029096,21.8919465 23.2733142,21.8911188 C24.2413098,21.8878076 24.7512581,21.6709278 24.9613337,21.55421 C24.9984059,21.5335154 25.0338304,21.4970928 24.9893438,21.3927918 L24.7710299,20.7760915 C24.7372531,20.6842073 24.6441607,20.7181465 24.6441607,20.7181465 C24.4044274,20.8075473 24.0641872,20.9681378 23.2675475,20.9664822 C22.7485371,20.9656544 22.3629865,20.8116863 22.1216055,20.5708007 C21.8736338,20.3241205 21.7525314,19.9615504 21.7311119,19.4499789 L25.08326,19.45329 C25.08326,19.45329 25.1714094,19.4516345 25.1804715,19.3655448 C25.1837668,19.3291222 25.2958071,18.673516 25.0799647,17.9144365 Z M15.8349066,18.4577112 C15.6989753,18.4477778 15.5226765,18.4419833 15.3117771,18.4419833 C15.0242618,18.4419833 14.7466324,18.4784058 14.4863034,18.5487676 C14.2243267,18.6191294 13.9887125,18.7292249 13.7860513,18.8749152 C13.5825663,19.0214332 13.4186249,19.2085128 13.2999939,19.4303593 C13.181363,19.6522059 13.1212237,19.9137861 13.1212237,20.2068223 C13.1212237,20.5048251 13.1723009,20.763922 13.2744553,20.9758351 C13.3766098,21.188576 13.5240746,21.3657222 13.711907,21.5023068 C13.8980916,21.6388914 14.1279391,21.7390535 14.3948587,21.7994819 C14.6576592,21.8599102 14.9558842,21.8905383 15.2821193,21.8905383 C15.6256548,21.8905383 15.9683664,21.8623936 16.3003683,21.8052764 C16.6290749,21.7489869 17.0327496,21.6670361 17.1447899,21.6413748 C17.2560065,21.6148857 17.3795804,21.5809464 17.3795804,21.5809464 C17.4627868,21.5602518 17.4561962,21.4708509 17.4561962,21.4708509 L17.4545485,18.3906606 C17.4545485,17.7151875 17.2749545,17.2143772 16.9215331,16.9039575 C16.5697594,16.5943657 16.0515728,16.4379142 15.3818023,16.4379142 C15.1305353,16.4379142 14.7260368,16.4726812 14.4838319,16.5215206 C14.4838319,16.5215206 13.7514506,16.6638997 13.4499303,16.9006464 C13.4499303,16.9006464 13.3840242,16.9420357 13.4202725,17.0347477 L13.6575344,17.6754538 C13.6871922,17.7582323 13.7671033,17.7300876 13.7671033,17.7300876 C13.7671033,17.7300876 13.7926419,17.7201542 13.8222996,17.7027707 C14.4673554,17.350134 15.2829432,17.3608952 15.2829432,17.3608952 C15.6454266,17.3608952 15.9238798,17.4337404 16.1117121,17.5786028 C16.2946015,17.7193264 16.3876938,17.9320673 16.3876938,18.3807271 L16.3876938,18.5231063 C16.0993547,18.481717 15.8349066,18.4577112 15.8349066,18.4577112 Z M42.8713941,16.7221752 C42.8969327,16.6460189 42.843384,16.6095963 42.8211407,16.6013185 C42.7642967,16.5789682 42.4792529,16.5185399 42.2592914,16.5044675 C41.8383163,16.4788062 41.6043497,16.5499957 41.3950979,16.6443633 C41.1874937,16.7387309 40.9568225,16.8910434 40.8283056,17.0640506 L40.8283056,16.6542967 C40.8283056,16.5971795 40.7879381,16.5516513 40.731918,16.5516513 L39.8726674,16.5516513 C39.8166473,16.5516513 39.7762798,16.5971795 39.7762798,16.6542967 L39.7762798,21.6781278 C39.7762798,21.7344173 39.822414,21.7807732 39.8784342,21.7807732 L40.7591042,21.7807732 C40.8151244,21.7807732 40.8604348,21.7344173 40.8604348,21.6781278 L40.8604348,19.1682817 C40.8604348,18.831373 40.897507,18.495292 40.9716513,18.2842067 C41.044148,18.0756047 41.1430071,17.908392 41.2649334,17.7883631 C41.3876835,17.6691619 41.5269101,17.5855556 41.6793179,17.5383718 C41.835021,17.4903602 42.0072006,17.4746323 42.1291269,17.4746323 C42.3046018,17.4746323 42.4973771,17.5201605 42.4973771,17.5201605 C42.5616355,17.5276106 42.5978839,17.4878769 42.6193033,17.4291041 C42.6769712,17.275136 42.8400887,16.8140594 42.8713941,16.7221752 Z M34.6049581,14.393783 C34.4978607,14.3606716 34.4006493,14.3383214 34.2737801,14.3143156 C34.1452632,14.2911376 33.9920316,14.2795486 33.8182043,14.2795486 C33.2118683,14.2795486 32.7340492,14.451728 32.398752,14.7911201 C32.0651025,15.1288567 31.8385504,15.6429116 31.7248624,16.3192124 L31.6836711,16.5468535 L30.9224558,16.5468535 C30.9224558,16.5468535 30.8301873,16.5435423 30.8104155,16.6445322 L30.6860178,17.3456666 C30.6769557,17.4118895 30.7057896,17.4541065 30.7947628,17.4541065 L31.5353824,17.4541065 L30.7840531,21.6691911 C30.7255614,22.0085832 30.6580077,22.2875469 30.5830395,22.4994601 C30.509719,22.708062 30.4380461,22.8645135 30.3490729,22.978748 C30.263395,23.0880157 30.1826601,23.1691387 30.0426097,23.2163224 C29.927274,23.2552284 29.7938142,23.2734396 29.647997,23.2734396 C29.567262,23.2734396 29.4593408,23.2601951 29.3794297,23.2436394 C29.3003424,23.2279114 29.2583273,23.2105279 29.198188,23.1848666 C29.198188,23.1848666 29.1116863,23.1517552 29.0770856,23.2386726 C29.0498993,23.31069 28.8521811,23.8562007 28.8282901,23.9232514 C28.805223,23.990302 28.838176,24.0424525 28.8801912,24.0581804 C28.9790503,24.0929474 29.0523708,24.1161254 29.1866544,24.1484091 C29.3728391,24.1922817 29.5301899,24.1947651 29.6776547,24.1947651 C29.9857657,24.1947651 30.2675142,24.1508924 30.5006569,24.0664583 C30.7346235,23.9811964 30.9389324,23.8330227 31.1201741,23.6326986 C31.3154208,23.4158188 31.4381709,23.1890055 31.5551542,22.8785859 C31.6713137,22.5723052 31.7709966,22.1915238 31.8500839,21.7478307 L32.6055324,17.4541065 L33.7094592,17.4541065 C33.7094592,17.4541065 33.8025516,17.4574177 33.8214996,17.3556001 L33.9467211,16.6552934 C33.9549594,16.5882428 33.9269493,16.5468535 33.8371523,16.5468535 L32.7653546,16.5468535 C32.7711214,16.5228477 32.8197271,16.1437219 32.9424772,15.7869463 C32.9952021,15.6354615 33.0940612,15.5121214 33.1772676,15.4276873 C33.2596502,15.3449087 33.3543902,15.2861359 33.4581923,15.2521967 C33.5644659,15.2174297 33.6855683,15.200874 33.8182043,15.200874 C33.918711,15.200874 34.018394,15.212463 34.0933622,15.2281909 C34.1971642,15.2505412 34.2375317,15.2621302 34.264718,15.270408 C34.3742868,15.3035194 34.3891157,15.2712358 34.4105352,15.2182575 L34.6667451,14.5113286 C34.6931075,14.4351723 34.6280252,14.4028887 34.6049581,14.393783 Z M19.6298616,21.6783766 C19.6298616,21.734666 19.5894941,21.7801942 19.5334739,21.7801942 L18.6445656,21.7801942 C18.5885455,21.7801942 18.5490018,21.734666 18.5490018,21.6783766 L18.5490018,14.489886 C18.5490018,14.4335966 18.5885455,14.3880684 18.6445656,14.3880684 L19.5334739,14.3880684 C19.5894941,14.3880684 19.6298616,14.4335966 19.6298616,14.489886 L19.6298616,21.6783766 Z M37.7380544,19.1715943 C37.7380544,19.7485609 37.630957,20.2030152 37.4200576,20.5241961 C37.2116296,20.8420658 36.8961042,20.9968617 36.4561812,20.9968617 C36.0154342,20.9968617 35.7015565,20.8428935 35.4964239,20.5241961 C35.2888197,20.203843 35.18337,19.7485609 35.18337,19.1715943 C35.18337,18.5954555 35.2888197,18.141829 35.4964239,17.8239593 C35.7015565,17.5094007 36.0154342,17.3562604 36.4561812,17.3562604 C36.8961042,17.3562604 37.2116296,17.5094007 37.4208814,17.8239593 C37.630957,18.141829 37.7380544,18.5954555 37.7380544,19.1715943 Z M21.7467646,18.6188821 C21.7945466,18.2985291 21.8818721,18.0319821 22.0178034,17.8242079 C22.2229361,17.5088215 22.53599,17.3358143 22.9759131,17.3358143 C23.4158361,17.3358143 23.7066467,17.5096493 23.9158985,17.8242079 C24.0534775,18.0319821 24.1136168,18.3101181 24.1375077,18.6188821 L21.7467646,18.6188821 Z M14.5011323,20.8243504 C14.3701439,20.7192216 14.3520198,20.6927324 14.3075332,20.624854 C14.2416271,20.5213808 14.2078502,20.374035 14.2078502,20.1869554 C14.2078502,19.8906082 14.3050617,19.6778672 14.5068991,19.5346603 C14.5044276,19.5354881 14.7952382,19.2821857 15.4790138,19.2912913 C15.9593043,19.2979136 16.3885177,19.3691032 16.3885177,19.3691032 L16.3885177,20.9005066 L16.3893415,20.9005066 C16.3893415,20.9005066 15.9634234,20.9923908 15.4839567,21.0213633 C14.8018288,21.0627526 14.4986608,20.8235226 14.5011323,20.8243504 Z M48.5926174,18.6188821 C48.6395755,18.2985291 48.7277248,18.0319821 48.8636561,17.8242079 C49.0687888,17.5088215 49.3818427,17.3358143 49.8217658,17.3358143 C50.2616889,17.3358143 50.5524995,17.5096493 50.7609274,17.8242079 C50.8993302,18.0319821 50.9594695,18.3101181 50.9833605,18.6188821 L48.5926174,18.6188821 Z" id="path3005"></path>
                    </g>
                </g>
            </g>
        </g>
    </g>
</svg>