<?xml version="1.0" encoding="UTF-8" standalone="no"?>
<svg width="113px" height="97px" viewBox="0 0 113 97" version="1.1" xmlns="http://www.w3.org/2000/svg" xmlns:xlink="http://www.w3.org/1999/xlink" xmlns:sketch="http://www.bohemiancoding.com/sketch/ns">
    <!-- Generator: Sketch 3.5.2 (25235) - http://www.bohemiancoding.com/sketch -->
    <title>icon-react</title>
    <desc>Created with Sketch.</desc>
    <defs></defs>
    <g id="Page-1" stroke="none" stroke-width="1" fill="none" fill-rule="evenodd" sketch:type="MSPage">
        <g id="Desktop-HD" sketch:type="MSArtboardGroup" transform="translate(-298.000000, -1043.000000)" fill="#FFFFFF">
            <g id="expect-jsx" sketch:type="MSLayerGroup" transform="translate(244.000000, 988.000000)">
                <g id="icon-react" transform="translate(54.000000, 55.000000)" sketch:type="MSShapeGroup">
                    <path d="M66.0283142,49.6315608 C66.0283142,54.5929747 61.8235289,58.6293071 56.6199978,58.6293071 C51.4164667,58.6293071 47.2116814,54.5929747 47.2116814,49.6315608 C47.2116814,44.6701468 51.4164667,40.6338144 56.6199978,40.6338144 C61.8235289,40.6338144 66.0283142,44.6701468 66.0283142,49.6315608 L66.0283142,49.6315608 Z M67.7083142,49.6315608 C67.7083142,43.7265934 62.7363474,38.9538144 56.6199978,38.9538144 C50.5036482,38.9538144 45.5316814,43.7265934 45.5316814,49.6315608 C45.5316814,55.5365282 50.5036482,60.3093071 56.6199978,60.3093071 C62.7363474,60.3093071 67.7083142,55.5365282 67.7083142,49.6315608 L67.7083142,49.6315608 Z" id="Shape"></path>
                    <path d="M105.395465,41.6339075 C108.32079,43.9985471 109.804927,46.4906101 109.804927,48.9808686 C109.804927,54.2554994 103.056932,59.479718 91.3754447,63.111627 C90.7847761,63.2952727 90.4548188,63.9229785 90.6384645,64.5136471 C90.8221102,65.1043157 91.4498159,65.434273 92.0404845,65.2506273 C104.567931,61.3556998 112.044927,55.5670972 112.044927,48.9808686 C112.044927,45.7261688 110.21032,42.6456199 106.803617,39.8918657 C106.322565,39.5030154 105.617371,39.5777593 105.22852,40.0588109 C104.83967,40.5398624 104.914414,41.2450572 105.395465,41.6339075 L105.395465,41.6339075 Z" id="Shape"></path>
                    <path d="M68.4654002,31.2192978 C77.6827744,31.9800205 86.1370551,33.6176382 93.0276242,35.9429791 C93.6137098,36.1407638 94.2491623,35.8259836 94.4469469,35.239898 C94.6447316,34.6538124 94.3299515,34.01836 93.7438658,33.8205753 C86.6712868,31.433812 78.0398131,29.7618715 68.6496441,28.9868878 C68.0331811,28.9360103 67.4921947,29.3945079 67.4413171,30.0109708 C67.3904396,30.6274338 67.8489372,31.1684202 68.4654002,31.2192978 L68.4654002,31.2192978 Z" id="Shape"></path>
                    <path d="M26.3786285,33.5120333 C35.1034908,31.3993574 45.3430752,30.2540206 56.0537341,30.2540206 C57.9988477,30.2540206 59.9317708,30.2918018 61.8472474,30.366775 C62.4653331,30.3909673 62.9860023,29.9095217 63.0101946,29.291436 C63.0343869,28.6733504 62.5529412,28.1526812 61.9348556,28.1284889 C59.9901778,28.0523728 58.0280464,28.0140206 56.0537341,28.0140206 C45.1706729,28.0140206 34.7546496,29.1790928 25.85146,31.3349497 C25.250275,31.4805232 24.8809288,32.0858907 25.0265024,32.6870757 C25.172076,33.2882608 25.7774434,33.6576069 26.3786285,33.5120333 L26.3786285,33.5120333 Z" id="Shape"></path>
                    <path d="M45.3506736,30.549463 C59.2099665,11.3451715 75.0100712,0.731157458 82.76982,5.04076069 C87.6786056,7.7667205 88.9315479,16.3721761 86.0766547,28.3859586 C85.933646,28.987759 86.3055701,29.591546 86.9073704,29.7345547 C87.5091708,29.8775635 88.1129578,29.5056394 88.2559665,28.903839 C91.318479,16.0163661 89.9259984,6.452534 83.8573539,3.08247831 C74.676554,-2.0163472 58.0106261,9.1792997 43.5342821,29.2386152 C43.1723015,29.7401979 43.2854713,30.4402543 43.787054,30.8022349 C44.2886367,31.1642155 44.988693,31.0510457 45.3506736,30.549463 L45.3506736,30.549463 Z" id="Shape"></path>
                    <path d="M27.1891553,66.3949698 C29.6466014,58.076376 33.7329046,48.9776001 39.0861637,40.0590895 C40.0028115,38.5318306 40.9434281,37.0316756 41.9055561,35.5618625 C42.2443324,35.0443243 42.0994174,34.3501443 41.5818793,34.0113679 C41.0643411,33.6725916 40.3701611,33.8175066 40.0313847,34.3350448 C39.0532792,35.8292662 38.097177,37.3541186 37.165563,38.9063135 C31.717793,47.9822786 27.5538963,57.2538284 25.0409332,65.7603505 C24.8656879,66.3535657 25.2045194,66.976526 25.7977346,67.1517713 C26.3909498,67.3270165 27.01391,66.988185 27.1891553,66.3949698 L27.1891553,66.3949698 Z" id="Shape"></path>
                    <path d="M25.2967791,12.5628382 C25.8374566,8.3382642 27.4092446,5.45607891 29.9018732,4.07167537 C34.7981703,1.35252018 43.1190223,4.54869472 52.4415102,12.8055163 C52.9045619,13.215636 53.6124073,13.1727261 54.022527,12.7096743 C54.4326467,12.2466225 54.3897368,11.5387772 53.926685,11.1286575 C43.9646675,2.30541167 34.8044138,-1.21319072 28.8143045,2.1134123 C25.6173348,3.88900621 23.6982379,7.40805118 23.0749023,12.2784737 C22.9963772,12.8920281 23.4301041,13.4530693 24.0436585,13.5315944 C24.6572128,13.6101195 25.2182541,13.1763925 25.2967791,12.5628382 L25.2967791,12.5628382 Z" id="Shape"></path>
                    <path d="M34.4376846,48.5111849 C30.5188226,40.6062028 27.7141848,32.8621159 26.2456965,25.9926706 C26.1163882,25.3877784 25.521201,25.0022417 24.9163089,25.1315501 C24.3114168,25.2608585 23.92588,25.8560456 24.0551884,26.4609377 C25.5647549,33.5225433 28.4326047,41.4411692 32.4307642,49.5061073 C32.7055045,50.0603031 33.3774899,50.2868465 33.9316856,50.0121063 C34.4858814,49.7373661 34.7124248,49.0653807 34.4376846,48.5111849 L34.4376846,48.5111849 Z" id="Shape"></path>
                    <path d="M57.3196181,81.4204371 C50.9104295,75.1549982 44.5981148,67.0385378 39.1185379,57.9092283 C38.2969743,56.5408328 37.5039939,55.1659274 36.7409504,53.7874777 C36.4413806,53.2463003 35.7598202,53.0504386 35.2186428,53.3500084 C34.6774653,53.6495783 34.4816036,54.3311386 34.7811735,54.8723161 C35.5569288,56.2737299 36.3630179,57.6713637 37.1980091,59.0621243 C42.773304,68.3509058 49.203266,76.6186388 55.7537637,83.0222173 C56.1960831,83.4546161 56.9051823,83.4465738 57.337581,83.0042544 C57.7699798,82.561935 57.7619375,81.8528358 57.3196181,81.4204371 L57.3196181,81.4204371 Z" id="Shape"></path>
                    <path d="M45.1040905,67.8687726 C20.7422256,65.9714782 3.12,58.0891191 3.12,49.4953568 C3.12,44.0588594 10.2875553,38.6861638 22.5759207,35.0534319 C23.1691024,34.8780733 23.507815,34.2550484 23.3324565,33.6618667 C23.1570979,33.068685 22.5340729,32.7299724 21.9408912,32.905331 C8.79059429,36.7928702 0.88,42.7225371 0.88,49.4953568 C0.88,59.8068426 19.4621409,68.1185684 44.9301667,70.1020102 C45.5468582,70.150038 46.0857197,69.6890449 46.1337474,69.0723533 C46.1817752,68.4556618 45.7207821,67.9168003 45.1040905,67.8687726 L45.1040905,67.8687726 Z" id="Shape"></path>
                    <path d="M85.6706331,64.8702716 C76.9413558,66.9857893 66.6944016,68.1329067 55.9765686,68.1329067 C54.3859859,68.1329067 52.8030094,68.1076762 51.2303783,68.0575399 C50.6121335,68.0378299 50.094969,68.5230383 50.075259,69.1412831 C50.055549,69.7595279 50.5407574,70.2766924 51.1590022,70.2964024 C52.755416,70.3472969 54.3621875,70.3729067 55.9765686,70.3729067 C66.8669448,70.3729067 77.2904804,69.2060215 86.1982192,67.0472542 C86.7993763,66.9015653 87.1686063,66.296127 87.0229174,65.6949699 C86.8772285,65.0938127 86.2717902,64.7245828 85.6706331,64.8702716 L85.6706331,64.8702716 Z" id="Shape"></path>
                    <path d="M37.9926623,93.3736085 C34.4086091,94.6136614 31.4141,94.5969633 29.1538461,93.341892 C24.2588485,90.6233538 22.9984624,82.0581985 25.8246214,70.0924991 C25.9668058,69.4905035 25.5940551,68.8872264 24.9920595,68.745042 C24.3900639,68.6028577 23.7867868,68.9756083 23.6446024,69.577604 C20.6122965,82.4161104 22.0135653,91.9386562 28.0663513,95.3001962 C30.950237,96.901557 34.5881085,96.9218426 38.7250836,95.4904834 C39.3096424,95.2882308 39.6195629,94.6503942 39.4173104,94.0658353 C39.2150578,93.4812765 38.5772212,93.171356 37.9926623,93.3736085 L37.9926623,93.3736085 Z" id="Shape"></path>
                    <path d="M67.4369968,68.2105586 C62.016611,75.7214341 56.1605682,82.1074398 50.4854772,86.7505515 C50.006733,87.1422391 49.9361597,87.8478634 50.3278473,88.3266076 C50.7195348,88.8053518 51.4251592,88.8759251 51.9039034,88.4842375 C57.7376754,83.7112999 63.7243437,77.1828473 69.2533928,69.5214001 C69.6153717,69.0198162 69.5021995,68.3197603 69.0006156,67.9577814 C68.4990317,67.5958025 67.7989757,67.7089747 67.4369968,68.2105586 L67.4369968,68.2105586 Z" id="Shape"></path>
                    <path d="M85.1080303,32.6929996 C82.6506493,41.0113729 78.5644024,50.1098751 73.2110219,59.0285879 C72.3317867,60.4931952 71.4317531,61.9313683 70.5131856,63.339929 C70.175302,63.8580504 70.3214137,64.5519796 70.8395351,64.8898632 C71.3576565,65.2277468 72.0515857,65.0816351 72.3894693,64.5635137 C73.3232482,63.1316274 74.238025,61.669896 75.1315676,60.1814557 C80.5795119,51.1052 84.743353,41.8339255 87.2562524,33.3276189 C87.4314977,32.7344038 87.0926661,32.1114435 86.499451,31.9361982 C85.9062358,31.7609529 85.2832755,32.0997845 85.1080303,32.6929996 L85.1080303,32.6929996 Z" id="Shape"></path>
                    <path d="M78.2255316,49.9725265 C88.3522161,70.8924223 89.8949975,89.0222601 82.2514064,93.2670793 C77.5201455,95.8946388 69.5827917,93.0033964 60.6048175,85.3111955 C60.1350897,84.9087394 59.4280449,84.9632738 59.0255888,85.4330016 C58.6231326,85.9027294 58.6776671,86.6097742 59.1473949,87.0122303 C68.7636803,95.2513272 77.5374986,98.4472582 83.3389427,95.2253604 C92.4847541,90.1462928 90.847487,70.9061156 80.2417314,48.9965456 C79.9722217,48.4397875 79.3023992,48.2069265 78.7456411,48.4764362 C78.1888829,48.7459459 77.956022,49.4157683 78.2255316,49.9725265 L78.2255316,49.9725265 Z" id="Shape"></path>
                    <path d="M56.1883613,16.356985 C62.3057227,22.5050492 68.2953424,30.2985858 73.5245188,39.0108104 C74.62767,40.8485214 75.6790084,42.6971383 76.6754054,44.5497151 C76.9684031,45.0944787 77.647543,45.2985753 78.1923066,45.0055775 C78.7370703,44.7125797 78.9411668,44.0334399 78.6481691,43.4886762 C77.6350705,41.6050466 76.5663186,39.7258107 75.4450924,37.8579891 C70.1250861,28.9944346 64.0249849,21.0571423 57.7762404,14.7770356 C57.3399495,14.3385549 56.6308069,14.3367798 56.1923262,14.7730708 C55.7538455,15.2093617 55.7520704,15.9185043 56.1883613,16.356985 L56.1883613,16.356985 Z" id="Shape"></path>
                    <path d="M45.3919433,94.7857324 C43.7257981,94.7857324 42.3886726,93.5022453 42.3886726,91.9364315 C42.3886726,90.3708754 43.7258354,89.0874227 45.3919433,89.0874227 C47.0580513,89.0874227 48.3952141,90.3708754 48.3952141,91.9364315 C48.3952141,93.5022453 47.0580886,94.7857324 45.3919433,94.7857324 L45.3919433,94.7857324 Z M45.3919433,96.4657324 C47.9708875,96.4657324 50.0752141,94.4458202 50.0752141,91.9364315 C50.0752141,89.427279 47.9708306,87.4074227 45.3919433,87.4074227 C42.8130561,87.4074227 40.7086726,89.427279 40.7086726,91.9364315 C40.7086726,94.4458202 42.8129992,96.4657324 45.3919433,96.4657324 L45.3919433,96.4657324 Z" id="Shape"></path>
                    <path d="M99.4096425,40.5176912 C97.7434972,40.5176912 96.4063717,39.234204 96.4063717,37.6683903 C96.4063717,36.1028342 97.7435345,34.8193814 99.4096425,34.8193814 C101.07575,34.8193814 102.412913,36.1028342 102.412913,37.6683903 C102.412913,39.234204 101.075788,40.5176912 99.4096425,40.5176912 L99.4096425,40.5176912 Z M99.4096425,42.1976912 C101.988587,42.1976912 104.092913,40.1777789 104.092913,37.6683903 C104.092913,35.1592378 101.98853,33.1393814 99.4096425,33.1393814 C96.8307552,33.1393814 94.7263717,35.1592378 94.7263717,37.6683903 C94.7263717,40.1777789 96.8306983,42.1976912 99.4096425,42.1976912 L99.4096425,42.1976912 Z" id="Shape"></path>
                    <path d="M24.1707044,22.1053201 C22.5045592,22.1053201 21.1674336,20.8218329 21.1674336,19.2560192 C21.1674336,17.6904631 22.5045964,16.4070103 24.1707044,16.4070103 C25.8368124,16.4070103 27.1739752,17.6904631 27.1739752,19.2560192 C27.1739752,20.8218329 25.8368496,22.1053201 24.1707044,22.1053201 L24.1707044,22.1053201 Z M24.1707044,23.7853201 C26.7496485,23.7853201 28.8539752,21.7654078 28.8539752,19.2560192 C28.8539752,16.7468667 26.7495917,14.7270103 24.1707044,14.7270103 C21.5918171,14.7270103 19.4874336,16.7468667 19.4874336,19.2560192 C19.4874336,21.7654078 21.5917603,23.7853201 24.1707044,23.7853201 L24.1707044,23.7853201 Z" id="Shape"></path>
                    <path d="M54.2438938,49.2975483 C54.2438938,47.8890588 55.4530845,46.7282474 56.9671646,46.7282474 C57.5857235,46.7282474 58.0871646,46.2268063 58.0871646,45.6082474 C58.0871646,44.9896885 57.5857235,44.4882474 56.9671646,44.4882474 C54.2359671,44.4882474 52.0038938,46.6310161 52.0038938,49.2975483 C52.0038938,49.9161073 52.5053349,50.4175483 53.1238938,50.4175483 C53.7424527,50.4175483 54.2438938,49.9161073 54.2438938,49.2975483 L54.2438938,49.2975483 Z" id="Shape"></path>
                </g>
            </g>
        </g>
    </g>
</svg>