<?xml version="1.0" encoding="UTF-8" standalone="no"?>
<svg width="25px" height="20px" viewBox="0 0 25 20" version="1.1" xmlns="http://www.w3.org/2000/svg" xmlns:xlink="http://www.w3.org/1999/xlink" xmlns:sketch="http://www.bohemiancoding.com/sketch/ns">
    <!-- Generator: Sketch 3.5.2 (25235) - http://www.bohemiancoding.com/sketch -->
    <title>icon-twitter</title>
    <desc>Created with Sketch.</desc>
    <defs></defs>
    <g id="Page-1" stroke="none" stroke-width="1" fill="none" fill-rule="evenodd" sketch:type="MSPage">
        <g id="Desktop-HD" sketch:type="MSArtboardGroup" transform="translate(-887.000000, -31.000000)" fill="#FFFFFF">
            <g id="header" sketch:type="MSLayerGroup" transform="translate(-44.000000, 0.000000)">
                <path d="M955.610581,33.3674876 C954.70585,33.7696458 953.732178,34.0409152 952.710546,34.162312 C953.753659,33.5378428 954.55348,32.5486836 954.930659,31.3686866 C953.954988,31.9476945 952.874906,32.3678373 951.724384,32.5946446 C950.803667,31.6134785 949.491282,31 948.039017,31 C945.250887,31 942.990308,33.2605785 942.990308,36.0492082 C942.990308,36.4443723 943.03477,36.8295449 943.121197,37.1997302 C938.924764,36.9889094 935.203927,34.9791177 932.713543,31.9242144 C932.278913,32.6695809 932.030124,33.5368437 932.030124,34.4630564 C932.030124,36.2145676 932.921367,37.7602538 934.276215,38.6654843 C933.448918,38.6390068 932.67008,38.4117001 931.989159,38.0335215 C931.98866,38.0545037 931.98866,38.0759854 931.98866,38.0974672 C931.98866,40.5433881 933.72918,42.5836539 936.039217,43.048259 C935.615577,43.1631613 935.169456,43.2251087 934.708847,43.2251087 C934.383124,43.2251087 934.066893,43.1936354 933.758655,43.1341859 C934.401609,45.139981 936.266024,46.6002398 938.475146,46.6407054 C936.747115,47.9950542 934.570465,48.802368 932.204476,48.802368 C931.797322,48.802368 931.395164,48.7783884 931,48.7314283 C933.2351,50.16471 935.888844,51 938.739921,51 C948.027527,51 953.10571,43.3065394 953.10571,36.6342109 C953.10571,36.4153969 953.101214,36.1970825 953.091722,35.9802668 C954.077884,35.2698706 954.934156,34.3801269 955.610581,33.3674876 L955.610581,33.3674876 Z" id="icon-twitter" sketch:type="MSShapeGroup"></path>
            </g>
        </g>
    </g>
</svg>