<?xml version="1.0" encoding="UTF-8" standalone="no"?>
<svg width="70px" height="69px" viewBox="0 0 70 69" version="1.1" xmlns="http://www.w3.org/2000/svg" xmlns:xlink="http://www.w3.org/1999/xlink" >
    <!-- Generator: Sketch 3.5.2 (25235) - http://www.bohemiancoding.com/sketch -->
    <title>icon-helperjs</title>
    <desc>Created with Sketch.</desc>
    <defs></defs>
    <g id="Page-1" stroke="none" stroke-width="1" fill="none" fill-rule="evenodd" >
        <g id="Desktop-HD"  transform="translate(-561.000000, -285.000000)" fill="#FFFFFF">
            <g id="helper"  transform="translate(484.000000, 225.000000)">
                <path d="M117.044615,101.791261 C117.156923,100.430864 117.573077,98.0550682 119.094615,96.5543182 C119.320769,96.6123409 119.551538,96.6538977 119.790769,96.6538977 C120.536154,96.6538977 121.236154,96.3590795 121.761538,95.8227614 C122.288462,95.2864432 122.577692,94.5744886 122.577692,93.8162727 C122.577692,93.0580568 122.288462,92.3453182 121.761538,91.809 L120.388462,90.4101818 L136.759231,73.7372727 L140.248462,72.9829773 C140.533077,72.9218182 140.777692,72.7367727 140.915385,72.4764545 L144.988462,64.8331364 C145.197692,64.4395227 145.13,63.9518182 144.817692,63.6358295 L141.818462,60.5810114 C141.508462,60.2634545 141.026154,60.1928864 140.642308,60.4061591 L133.136923,64.5547841 C132.880769,64.6959205 132.7,64.9436932 132.638462,65.2338068 L131.897692,68.7873068 L115.526154,85.461 L114.153846,84.0629659 C113.103846,82.9895455 111.266154,82.9895455 110.212308,84.0621818 C109.490769,84.796875 109.258462,85.8357955 109.495385,86.7751364 C108.023846,88.3237159 105.684615,88.7486932 104.351538,88.8639545 C104.073077,88.5840341 103.697692,88.4256477 103.306154,88.4256477 C102.910769,88.4256477 102.532308,88.5863864 102.253077,88.8702273 L80.6961538,110.823205 C78.7215385,112.832045 77.6338462,115.507364 77.6338462,118.352045 C77.6338462,121.196727 78.7215385,123.869693 80.6961538,125.88167 C82.6715385,127.892864 85.2976923,129 88.09,129 C90.8830769,129 93.5084615,127.892864 95.4838462,125.880886 L117.039231,103.928693 C117.62,103.337489 117.62,102.384034 117.044615,101.791261 L117.044615,101.791261 Z M106.111538,90.65325 C106.723077,90.5270114 107.381538,90.3435341 108.039231,90.0816477 L115.853846,98.0409545 C115.595385,98.7121364 115.415385,99.3833182 115.292308,100.00275 L106.111538,90.65325 L106.111538,90.65325 Z M133.510769,70.0065682 C133.646923,69.8677841 133.740769,69.6929318 133.780769,69.5008295 L134.488462,66.1104205 L140.938462,62.5451591 L142.89,64.5328295 L139.388462,71.1019432 L136.060769,71.8209545 C135.872308,71.8617273 135.7,71.9573864 135.563846,72.0953864 L118.983846,88.9807841 L116.930769,86.8903977 L133.510769,70.0065682 L133.510769,70.0065682 Z M111.616923,85.4923636 C111.768462,85.3386818 111.97,85.2532159 112.183077,85.2532159 C112.396154,85.2532159 112.596154,85.3378977 112.747692,85.4923636 L114.822308,87.6054886 C114.823846,87.6054886 114.823846,87.6054886 114.823846,87.6062727 L118.280769,91.1268409 C118.281538,91.1268409 118.282308,91.127625 118.282308,91.127625 L120.356154,93.2391818 C120.507692,93.3936477 120.59,93.5975114 120.59,93.8154886 C120.59,94.0326818 120.508462,94.2381136 120.356154,94.3917955 C120.053077,94.7007273 119.526154,94.7007273 119.223077,94.3917955 L114.183846,89.2599205 L111.639231,86.6677159 C111.6,86.6292955 111.56,86.5704886 111.513846,86.4842386 C111.503077,86.4654205 111.487692,86.4505227 111.476154,86.4317045 C111.326154,86.1274773 111.366154,85.7479773 111.616923,85.4923636 L111.616923,85.4923636 Z M110.616923,88.488375 L117.415385,95.4126818 C117.003846,95.871375 116.67,96.3763295 116.387692,96.8946136 L109.164615,89.5367045 C109.673846,89.247375 110.166923,88.9070795 110.616923,88.488375 L110.616923,88.488375 Z M93.3776923,123.736398 C91.9646154,125.17442 90.0869231,125.965568 88.09,125.965568 C86.0930769,125.965568 84.2153846,125.17442 82.8030769,123.736398 C81.3907692,122.296807 80.6130769,120.385193 80.6130769,118.352045 C80.6130769,116.318114 81.3907692,114.405716 82.8023077,112.968477 L103.305385,92.0889205 L113.878462,102.856057 L93.3776923,123.736398 Z M143.502308,112.570159 C141.742308,110.777727 139.4,109.789773 136.906154,109.789773 C136.407692,109.789773 135.917692,109.839955 135.434615,109.916795 L124.339231,98.4212386 L122.923077,99.8404432 L133.254615,110.544068 C132.437692,110.898477 131.670769,111.368148 130.975385,111.95308 C130.744615,112.14675 130.522308,112.352966 130.31,112.568591 C130.1,112.782648 129.901538,113.008466 129.713846,113.241341 C129.599231,113.381693 129.498462,113.527534 129.392308,113.673375 C129.327692,113.765114 129.258462,113.852932 129.196923,113.947023 C129.070769,114.135205 128.956923,114.328091 128.846154,114.524114 C128.815385,114.578216 128.782308,114.631534 128.752308,114.68642 C128.633077,114.904398 128.526154,115.12708 128.426154,115.353682 C128.414615,115.378773 128.4,115.402295 128.389231,115.428955 L118.778462,105.640364 L117.373846,107.070545 L127.732308,117.61892 C127.219231,120.573375 128.074615,123.726989 130.310769,126.003205 C132.07,127.795636 134.413077,128.781239 136.906923,128.781239 C139.401538,128.781239 141.744615,127.795636 143.503077,126.003205 C145.262308,124.211557 146.233077,121.825568 146.231538,119.286682 C146.230769,116.747011 145.261538,114.361023 143.502308,112.570159 Z M89.3969231,83.8442045 C93.6269231,83.6199545 97.4807692,86.8213977 97.4876923,86.8206136 L97.4876923,86.8198295 L99.16,88.522875 L100.564615,87.0919091 L98.8284615,85.3292727 C98.7107692,85.228125 96.85,83.6638636 94.1815385,82.6539545 C95.1030769,82.3512955 95.9284615,81.95925 96.6284615,81.4535114 C96.6315385,81.4511591 96.6353846,81.4488068 96.6392308,81.4464545 C96.8969231,81.2598409 97.1338462,81.0544091 97.3607692,80.8411364 C97.3892308,80.8144773 97.4223077,80.7925227 97.45,80.7658636 C97.6584615,80.5635682 97.8453846,80.3408864 98.0269231,80.1150682 C98.0630769,80.0688068 98.1076923,80.0303864 98.1430769,79.9833409 C98.1430769,79.9825568 98.1430769,79.9825568 98.1438462,79.9825568 C98.1453846,79.9802045 98.1469231,79.9786364 98.1484615,79.9770682 C98.6307692,79.3411705 99.0115385,78.6158864 99.29,77.8035682 C99.3084615,77.75025 99.3176923,77.689875 99.3353846,77.6357727 C99.4507692,77.2774432 99.5553846,76.9104886 99.6315385,76.5200114 C99.6576923,76.3882841 99.6653846,76.2424432 99.6876923,76.1083636 C99.7392308,75.7813977 99.7938462,75.4552159 99.82,75.1062955 C99.8338462,74.9267386 99.8269231,74.7283636 99.8338462,74.5425341 C99.8384615,74.4319773 99.8407692,74.3198523 99.8423077,74.2069432 C100.531538,75.7845341 101.471538,77.3848636 103.21,79.414875 L106.859231,83.1957614 L108.276154,81.7773409 L104.667692,78.0419318 C102.18,75.1329545 101.564615,73.3460114 100.633077,70.6416818 C100.230769,69.4757386 99.7761538,68.1545455 99.0976923,66.5424545 C96.7738462,61.0224545 88.9761538,60.1419205 87.4361538,60.0219545 C87.39,60.0188182 82.9323077,59.7177273 82.6261538,61.4615455 C82.5546154,61.8700568 82.6261538,62.6102386 83.9146154,62.9850341 C86.5484615,63.7526591 90.4007692,65.8414773 90.3253846,67.1524773 C90.2053846,69.2350227 87.06,73.6126023 85.3769231,74.0415 C84.6315385,74.2296818 82.6369231,72.6952159 81.5684615,71.868 C80.1084615,70.7389091 79.2223077,70.0583182 78.3646154,70.1908295 C78.0169231,70.2449318 77.7138462,70.4338977 77.5130769,70.720875 C76.4807692,72.1910455 76.9953846,73.2730909 79.1746154,77.8561023 C81.4146154,82.5755455 86.0815385,84.0300341 89.3969231,83.8442045 Z M92.2784615,82.0854886 C91.3315385,81.8761364 90.3261538,81.7640114 89.2869231,81.8243864 C86.5792308,81.9733636 82.7769231,80.7987955 80.9492308,76.948125 C79.67,74.2579091 79.1376923,73.0990227 79.0330769,72.4882159 C79.4323077,72.7571591 79.9476923,73.1570455 80.3661538,73.4800909 C82.1546154,74.8632273 84.1815385,76.4290568 85.8584615,76.0056477 C88.5215385,75.3274091 92.15,70.0073523 92.3076923,67.2724432 C92.4438462,64.9115455 89.3692308,63.0752045 87.0284615,62.0253068 C87.1153846,62.0284432 87.2007692,62.0331477 87.2838462,62.0402045 C88.1053846,62.1045 95.36,62.7984205 97.2715385,67.3406591 C97.8161538,68.6359773 98.2130769,69.7423295 98.5584615,70.7365568 C99.2061538,74.5464545 98.8153846,77.4515114 97.3584615,79.3654773 C96.9846154,79.8563182 96.5361538,80.2875682 96.0161538,80.656875 C95.0346154,81.3523636 93.7823077,81.8243864 92.2784615,82.0854886 Z M142.097692,124.573807 C140.714615,125.982818 138.870769,126.758284 136.906154,126.758284 C134.942308,126.758284 133.099231,125.982818 131.714615,124.573807 C129.933846,122.760205 129.262308,120.238568 129.696923,117.890216 L129.782308,117.52875 C129.939231,116.863057 130.183077,116.227159 130.504615,115.637523 C130.512308,115.622625 130.521538,115.608511 130.529231,115.59283 C130.67,115.338784 130.829231,115.095716 130.997692,114.860489 C131.033846,114.811875 131.067692,114.760909 131.105385,114.711511 C131.293846,114.462955 131.494615,114.221455 131.713846,113.998773 C131.938462,113.769818 132.18,113.56125 132.430769,113.366795 C132.48,113.327591 132.53,113.291523 132.579231,113.253102 C133.389231,112.653273 134.315385,112.222023 135.311538,111.996989 L135.578462,111.936614 C136.012308,111.856636 136.456154,111.811159 136.906154,111.811159 C138.87,111.811159 140.713077,112.588193 142.097692,113.998773 C143.482308,115.408568 144.244615,117.286466 144.244615,119.285898 C144.244615,121.28533 143.482308,123.164011 142.097692,124.573807 Z M136.906923,114.22067 C135.577692,114.22067 134.329231,114.748364 133.390769,115.704955 C132.450769,116.660761 131.932308,117.933341 131.932308,119.286682 C131.932308,120.639239 132.450769,121.911818 133.390769,122.868409 C134.33,123.825 135.578462,124.351125 136.906154,124.351125 C138.235385,124.351125 139.484615,123.825 140.423077,122.866841 C141.363077,121.911034 141.881538,120.638455 141.881538,119.286682 C141.881538,117.932557 141.363077,116.659977 140.423077,115.704955 C139.483846,114.748364 138.234615,114.22067 136.906923,114.22067 Z M139.720769,122.153318 C138.217692,123.683864 135.594615,123.684648 134.093077,122.154102 C133.34,121.388045 132.926154,120.370295 132.926154,119.287466 C132.926154,118.203852 133.34,117.186102 134.093077,116.42083 C134.844615,115.654773 135.843846,115.232932 136.906923,115.232932 C137.97,115.232932 138.97,115.654773 139.720769,116.42083 C140.473846,117.186886 140.888462,118.203852 140.888462,119.287466 C140.888462,120.369511 140.473846,121.387261 139.720769,122.153318 Z" id="icon-helperjs" ></path>
            </g>
        </g>
    </g>
</svg>