<?xml version="1.0" encoding="UTF-8" standalone="no"?>
<svg width="37px" height="36px" viewBox="0 0 37 36" version="1.1" xmlns="http://www.w3.org/2000/svg" xmlns:xlink="http://www.w3.org/1999/xlink" xmlns:sketch="http://www.bohemiancoding.com/sketch/ns">
    <!-- Generator: Sketch 3.5.2 (25235) - http://www.bohemiancoding.com/sketch -->
    <title>icon-pinterest</title>
    <desc>Created with Sketch.</desc>
    <defs></defs>
    <g id="Page-1" stroke="none" stroke-width="1" fill="none" fill-rule="evenodd" sketch:type="MSPage">
        <g id="icons" sketch:type="MSArtboardGroup" transform="translate(-234.000000, -236.000000)" fill="#000000">
            <path d="M234,254 C234,250.734359 234.827032,247.72267 236.48112,244.964844 C238.135208,242.207017 240.379435,240.023446 243.213867,238.414062 C246.0483,236.804679 249.143646,236 252.5,236 C255.856354,236 258.9517,236.804679 261.786133,238.414062 C264.620565,240.023446 266.864792,242.207017 268.51888,244.964844 C270.172968,247.72267 271,250.734359 271,254 C271,257.265641 270.172968,260.27733 268.51888,263.035156 C266.864792,265.792983 264.620565,267.976554 261.786133,269.585938 C258.9517,271.195321 255.856354,272 252.5,272 C250.717439,272 248.967022,271.750003 247.248698,271.25 C248.196185,269.796868 248.822481,268.515631 249.127604,267.40625 C249.272136,266.874997 249.705726,265.226576 250.428385,262.460938 C250.749568,263.070316 251.335716,263.597654 252.186849,264.042969 C253.037982,264.488283 253.953337,264.710938 254.932943,264.710938 C256.876095,264.710938 258.610452,264.175787 260.136068,263.105469 C261.661683,262.035151 262.84201,260.562509 263.677083,258.6875 C264.512157,256.812491 264.929688,254.703137 264.929688,252.359375 C264.929688,250.578116 264.451936,248.906258 263.496419,247.34375 C262.540902,245.781242 261.155825,244.507817 259.341146,243.523438 C257.526467,242.539058 255.478961,242.046875 253.198568,242.046875 C251.512361,242.046875 249.938592,242.273435 248.477214,242.726562 C247.015835,243.17969 245.775287,243.781246 244.755534,244.53125 C243.73578,245.281254 242.860572,246.144526 242.129883,247.121094 C241.399193,248.097661 240.861221,249.10937 240.515951,250.15625 C240.17068,251.20313 239.998047,252.249995 239.998047,253.296875 C239.998047,254.921883 240.319224,256.351556 240.961589,257.585938 C241.603953,258.820319 242.543397,259.687498 243.779948,260.1875 C244.261721,260.375001 244.56684,260.218752 244.695313,259.71875 C244.727431,259.609374 244.791666,259.367189 244.888021,258.992188 C244.984375,258.617186 245.048611,258.382813 245.080729,258.289062 C245.177084,257.929686 245.08876,257.593752 244.815755,257.28125 C243.996741,256.32812 243.58724,255.148445 243.58724,253.742188 C243.58724,251.382801 244.426315,249.355477 246.104492,247.660156 C247.782669,245.964835 249.978719,245.117188 252.692708,245.117188 C255.117634,245.117188 257.008565,245.757806 258.36556,247.039062 C259.722555,248.320319 260.401042,249.984365 260.401042,252.03125 C260.401042,254.687513 259.851025,256.945303 258.750977,258.804688 C257.650928,260.664072 256.241762,261.59375 254.523438,261.59375 C253.543832,261.59375 252.756947,261.25391 252.16276,260.574219 C251.568573,259.894528 251.383896,259.07813 251.608724,258.125 C251.737197,257.578122 251.949977,256.847661 252.24707,255.933594 C252.544164,255.019527 252.785047,254.214847 252.969727,253.519531 C253.154406,252.824215 253.246745,252.234377 253.246745,251.75 C253.246745,250.968746 253.02995,250.320315 252.596354,249.804688 C252.162758,249.28906 251.544492,249.03125 250.741536,249.03125 C249.745872,249.03125 248.902781,249.476558 248.21224,250.367188 C247.521698,251.257817 247.176432,252.367181 247.176432,253.695313 C247.176432,254.835943 247.377168,255.789059 247.778646,256.554688 L245.39388,266.351562 C245.120875,267.445318 245.016493,268.828117 245.080729,270.5 C241.772553,269.078118 239.098752,266.882827 237.059245,263.914062 C235.019738,260.945298 234,257.640643 234,254 L234,254 Z" id="icon-pinterest" sketch:type="MSShapeGroup"></path>
        </g>
    </g>
</svg>