<?xml version="1.0" encoding="UTF-8" standalone="no"?>
<svg width="70px" height="69px" viewBox="0 0 70 69" version="1.1" xmlns="http://www.w3.org/2000/svg" xmlns:xlink="http://www.w3.org/1999/xlink" xmlns:sketch="http://www.bohemiancoding.com/sketch/ns">
    <!-- Generator: Sketch 3.5.2 (25235) - http://www.bohemiancoding.com/sketch -->
    <title>icon-helperjs</title>
    <desc>Created with Sketch.</desc>
    <defs></defs>
    <g id="Page-1" stroke="none" stroke-width="1" fill="none" fill-rule="evenodd" sketch:type="MSPage">
        <g id="Desktop-HD" sketch:type="MSArtboardGroup" transform="translate(-561.000000, -285.000000)" fill="#FFFFFF">
            <g id="helper" sketch:type="MSLayerGroup" transform="translate(484.000000, 225.000000)">
                <g id="icon-helperjs" transform="translate(77.000000, 60.000000)" sketch:type="MSShapeGroup">
                    <path d="M40.0446154,41.7912614 C40.1569231,40.4308636 40.5730769,38.0550682 42.0946154,36.5543182 C42.3207692,36.6123409 42.5515385,36.6538977 42.7907692,36.6538977 C43.5361538,36.6538977 44.2361538,36.3590795 44.7615385,35.8227614 C45.2884615,35.2864432 45.5776923,34.5744886 45.5776923,33.8162727 C45.5776923,33.0580568 45.2884615,32.3453182 44.7615385,31.809 L43.3884615,30.4101818 L59.7592308,13.7372727 L63.2484615,12.9829773 C63.5330769,12.9218182 63.7776923,12.7367727 63.9153846,12.4764545 L67.9884615,4.83313636 C68.1976923,4.43952273 68.13,3.95181818 67.8176923,3.63582955 L64.8184615,0.581011364 C64.5084615,0.263454545 64.0261538,0.192886364 63.6423077,0.406159091 L56.1369231,4.55478409 C55.8807692,4.69592045 55.7,4.94369318 55.6384615,5.23380682 L54.8976923,8.78730682 L38.5261538,25.461 L37.1538462,24.0629659 C36.1038462,22.9895455 34.2661538,22.9895455 33.2123077,24.0621818 C32.4907692,24.796875 32.2584615,25.8357955 32.4953846,26.7751364 C31.0238462,28.3237159 28.6846154,28.7486932 27.3515385,28.8639545 C27.0730769,28.5840341 26.6976923,28.4256477 26.3061538,28.4256477 C25.9107692,28.4256477 25.5323077,28.5863864 25.2530769,28.8702273 L3.69615385,50.8232045 C1.72153846,52.8320455 0.633846154,55.5073636 0.633846154,58.3520455 C0.633846154,61.1967273 1.72153846,63.8696932 3.69615385,65.8816705 C5.67153846,67.8928636 8.29769231,69 11.09,69 C13.8830769,69 16.5084615,67.8928636 18.4838462,65.8808864 L40.0392308,43.9286932 C40.62,43.3374886 40.62,42.3840341 40.0446154,41.7912614 L40.0446154,41.7912614 Z M29.1115385,30.65325 C29.7230769,30.5270114 30.3815385,30.3435341 31.0392308,30.0816477 L38.8538462,38.0409545 C38.5953846,38.7121364 38.4153846,39.3833182 38.2923077,40.00275 L29.1115385,30.65325 L29.1115385,30.65325 Z M56.5107692,10.0065682 C56.6469231,9.86778409 56.7407692,9.69293182 56.7807692,9.50082955 L57.4884615,6.11042045 L63.9384615,2.54515909 L65.89,4.53282955 L62.3884615,11.1019432 L59.0607692,11.8209545 C58.8723077,11.8617273 58.7,11.9573864 58.5638462,12.0953864 L41.9838462,28.9807841 L39.9307692,26.8903977 L56.5107692,10.0065682 L56.5107692,10.0065682 Z M34.6169231,25.4923636 C34.7684615,25.3386818 34.97,25.2532159 35.1830769,25.2532159 C35.3961538,25.2532159 35.5961538,25.3378977 35.7476923,25.4923636 L37.8223077,27.6054886 C37.8238462,27.6054886 37.8238462,27.6054886 37.8238462,27.6062727 L41.2807692,31.1268409 C41.2815385,31.1268409 41.2823077,31.127625 41.2823077,31.127625 L43.3561538,33.2391818 C43.5076923,33.3936477 43.59,33.5975114 43.59,33.8154886 C43.59,34.0326818 43.5084615,34.2381136 43.3561538,34.3917955 C43.0530769,34.7007273 42.5261538,34.7007273 42.2230769,34.3917955 L37.1838462,29.2599205 L34.6392308,26.6677159 C34.6,26.6292955 34.56,26.5704886 34.5138462,26.4842386 C34.5030769,26.4654205 34.4876923,26.4505227 34.4761538,26.4317045 C34.3261538,26.1274773 34.3661538,25.7479773 34.6169231,25.4923636 L34.6169231,25.4923636 Z M33.6169231,28.488375 L40.4153846,35.4126818 C40.0038462,35.871375 39.67,36.3763295 39.3876923,36.8946136 L32.1646154,29.5367045 C32.6738462,29.247375 33.1669231,28.9070795 33.6169231,28.488375 L33.6169231,28.488375 Z M16.3776923,63.7363977 C14.9646154,65.1744205 13.0869231,65.9655682 11.09,65.9655682 C9.09307692,65.9655682 7.21538462,65.1744205 5.80307692,63.7363977 C4.39076923,62.2968068 3.61307692,60.3851932 3.61307692,58.3520455 C3.61307692,56.3181136 4.39076923,54.4057159 5.80230769,52.9684773 L26.3053846,32.0889205 L36.8784615,42.8560568 L16.3776923,63.7363977 L16.3776923,63.7363977 Z" id="Shape"></path>
                    <path d="M66.5023077,52.5701591 C64.7423077,50.7777273 62.4,49.7897727 59.9061538,49.7897727 C59.4076923,49.7897727 58.9176923,49.8399545 58.4346154,49.9167955 L47.3392308,38.4212386 L45.9230769,39.8404432 L56.2546154,50.5440682 C55.4376923,50.8984773 54.6707692,51.3681477 53.9753846,51.9530795 C53.7446154,52.14675 53.5223077,52.3529659 53.31,52.5685909 C53.1,52.7826477 52.9015385,53.0084659 52.7138462,53.2413409 C52.5992308,53.3816932 52.4984615,53.5275341 52.3923077,53.673375 C52.3276923,53.7651136 52.2584615,53.8529318 52.1969231,53.9470227 C52.0707692,54.1352045 51.9569231,54.3280909 51.8461538,54.5241136 C51.8153846,54.5782159 51.7823077,54.6315341 51.7523077,54.6864205 C51.6330769,54.9043977 51.5261538,55.1270795 51.4261538,55.3536818 C51.4146154,55.3787727 51.4,55.4022955 51.3892308,55.4289545 L41.7784615,45.6403636 L40.3738462,47.0705455 L50.7323077,57.6189205 C50.2192308,60.573375 51.0746154,63.7269886 53.3107692,66.0032045 C55.07,67.7956364 57.4130769,68.7812386 59.9069231,68.7812386 C62.4015385,68.7812386 64.7446154,67.7956364 66.5030769,66.0032045 C68.2623077,64.2115568 69.2330769,61.8255682 69.2315385,59.2866818 C69.2307692,56.7470114 68.2615385,54.3610227 66.5023077,52.5701591 L66.5023077,52.5701591 Z M65.0976923,64.5738068 C63.7146154,65.9828182 61.8707692,66.7582841 59.9061538,66.7582841 C57.9423077,66.7582841 56.0992308,65.9828182 54.7146154,64.5738068 C52.9338462,62.7602045 52.2623077,60.2385682 52.6969231,57.8902159 L52.7823077,57.52875 C52.9392308,56.8630568 53.1830769,56.2271591 53.5046154,55.6375227 C53.5123077,55.622625 53.5215385,55.6085114 53.5292308,55.5928295 C53.67,55.3387841 53.8292308,55.0957159 53.9976923,54.8604886 C54.0338462,54.811875 54.0676923,54.7609091 54.1053846,54.7115114 C54.2938462,54.4629545 54.4946154,54.2214545 54.7138462,53.9987727 C54.9384615,53.7698182 55.18,53.56125 55.4307692,53.3667955 C55.48,53.3275909 55.53,53.2915227 55.5792308,53.2531023 C56.3892308,52.6532727 57.3153846,52.2220227 58.3115385,51.9969886 L58.5784615,51.9366136 C59.0123077,51.8566364 59.4561538,51.8111591 59.9061538,51.8111591 C61.87,51.8111591 63.7130769,52.5881932 65.0976923,53.9987727 C66.4823077,55.4085682 67.2446154,57.2864659 67.2446154,59.2858977 C67.2446154,61.2853295 66.4823077,63.1640114 65.0976923,64.5738068 L65.0976923,64.5738068 Z" id="Shape"></path>
                    <path d="M59.9069231,54.2206705 C58.5776923,54.2206705 57.3292308,54.7483636 56.3907692,55.7049545 C55.4507692,56.6607614 54.9323077,57.9333409 54.9323077,59.2866818 C54.9323077,60.6392386 55.4507692,61.9118182 56.3907692,62.8684091 C57.33,63.825 58.5784615,64.351125 59.9061538,64.351125 C61.2353846,64.351125 62.4846154,63.825 63.4230769,62.8668409 C64.3630769,61.9110341 64.8815385,60.6384545 64.8815385,59.2866818 C64.8815385,57.9325568 64.3630769,56.6599773 63.4230769,55.7049545 C62.4838462,54.7483636 61.2346154,54.2206705 59.9069231,54.2206705 L59.9069231,54.2206705 Z M62.7207692,62.1533182 C61.2176923,63.6838636 58.5946154,63.6846477 57.0930769,62.1541023 C56.34,61.3880455 55.9261538,60.3702955 55.9261538,59.2874659 C55.9261538,58.2038523 56.34,57.1861023 57.0930769,56.4208295 C57.8446154,55.6547727 58.8438462,55.2329318 59.9069231,55.2329318 C60.97,55.2329318 61.97,55.6547727 62.7207692,56.4208295 C63.4738462,57.1868864 63.8884615,58.2038523 63.8884615,59.2874659 C63.8884615,60.3695114 63.4738462,61.3872614 62.7207692,62.1533182 L62.7207692,62.1533182 Z" id="Shape"></path>
                    <path d="M12.3969231,23.8442045 C16.6269231,23.6199545 20.4807692,26.8213977 20.4876923,26.8206136 L20.4876923,26.8198295 L22.16,28.522875 L23.5646154,27.0919091 L21.8284615,25.3292727 C21.7107692,25.228125 19.85,23.6638636 17.1815385,22.6539545 C18.1030769,22.3512955 18.9284615,21.95925 19.6284615,21.4535114 C19.6315385,21.4511591 19.6353846,21.4488068 19.6392308,21.4464545 C19.8969231,21.2598409 20.1338462,21.0544091 20.3607692,20.8411364 C20.3892308,20.8144773 20.4223077,20.7925227 20.45,20.7658636 C20.6584615,20.5635682 20.8453846,20.3408864 21.0269231,20.1150682 C21.0630769,20.0688068 21.1076923,20.0303864 21.1430769,19.9833409 C21.1430769,19.9825568 21.1430769,19.9825568 21.1438462,19.9825568 C21.1453846,19.9802045 21.1469231,19.9786364 21.1484615,19.9770682 C21.6307692,19.3411705 22.0115385,18.6158864 22.29,17.8035682 C22.3084615,17.75025 22.3176923,17.689875 22.3353846,17.6357727 C22.4507692,17.2774432 22.5553846,16.9104886 22.6315385,16.5200114 C22.6576923,16.3882841 22.6653846,16.2424432 22.6876923,16.1083636 C22.7392308,15.7813977 22.7938462,15.4552159 22.82,15.1062955 C22.8338462,14.9267386 22.8269231,14.7283636 22.8338462,14.5425341 C22.8384615,14.4319773 22.8407692,14.3198523 22.8423077,14.2069432 C23.5315385,15.7845341 24.4715385,17.3848636 26.21,19.414875 L29.8592308,23.1957614 L31.2761538,21.7773409 L27.6676923,18.0419318 C25.18,15.1329545 24.5646154,13.3460114 23.6330769,10.6416818 C23.2307692,9.47573864 22.7761538,8.15454545 22.0976923,6.54245455 C19.7738462,1.02245455 11.9761538,0.141920455 10.4361538,0.0219545455 C10.39,0.0188181818 5.93230769,-0.282272727 5.62615385,1.46154545 C5.55461538,1.87005682 5.62615385,2.61023864 6.91461538,2.98503409 C9.54846154,3.75265909 13.4007692,5.84147727 13.3253846,7.15247727 C13.2053846,9.23502273 10.06,13.6126023 8.37692308,14.0415 C7.63153846,14.2296818 5.63692308,12.6952159 4.56846154,11.868 C3.10846154,10.7389091 2.22230769,10.0583182 1.36461538,10.1908295 C1.01692308,10.2449318 0.713846154,10.4338977 0.513076923,10.720875 C-0.519230769,12.1910455 -0.00461538462,13.2730909 2.17461538,17.8561023 C4.41461538,22.5755455 9.08153846,24.0300341 12.3969231,23.8442045 L12.3969231,23.8442045 Z M15.2784615,22.0854886 C14.3315385,21.8761364 13.3261538,21.7640114 12.2869231,21.8243864 C9.57923077,21.9733636 5.77692308,20.7987955 3.94923077,16.948125 C2.67,14.2579091 2.13769231,13.0990227 2.03307692,12.4882159 C2.43230769,12.7571591 2.94769231,13.1570455 3.36615385,13.4800909 C5.15461538,14.8632273 7.18153846,16.4290568 8.85846154,16.0056477 C11.5215385,15.3274091 15.15,10.0073523 15.3076923,7.27244318 C15.4438462,4.91154545 12.3692308,3.07520455 10.0284615,2.02530682 C10.1153846,2.02844318 10.2007692,2.03314773 10.2838462,2.04020455 C11.1053846,2.1045 18.36,2.79842045 20.2715385,7.34065909 C20.8161538,8.63597727 21.2130769,9.74232955 21.5584615,10.7365568 C22.2061538,14.5464545 21.8153846,17.4515114 20.3584615,19.3654773 C19.9846154,19.8563182 19.5361538,20.2875682 19.0161538,20.656875 C18.0346154,21.3523636 16.7823077,21.8243864 15.2784615,22.0854886 L15.2784615,22.0854886 Z" id="Shape"></path>
                </g>
            </g>
        </g>
    </g>
</svg>