<?xml version="1.0" encoding="UTF-8" standalone="no"?>
<svg width="62px" height="95px" viewBox="0 0 62 95" version="1.1" xmlns="http://www.w3.org/2000/svg" xmlns:xlink="http://www.w3.org/1999/xlink">
    <!-- Generator: Sketch 39.1 (31720) - http://www.bohemiancoding.com/sketch -->
    <title>places</title>
    <desc>Created with Sketch.</desc>
    <defs></defs>
    <g id="Page-1" stroke="none" stroke-width="1" fill="none" fill-rule="evenodd">
        <g id="Desktop-HD" transform="translate(-564.000000, -218.000000)" fill="#FCFCFD">
            <g id="helper" transform="translate(485.000000, 166.000000)">
                <path d="M115.755969,138.59709 C119.231937,133.674423 122.707673,128.368844 125.953598,122.877212 C129.931924,116.146463 133.285655,109.601246 135.813887,103.408768 C139.109807,95.3359683 140.899236,88.117823 140.899237,81.9475963 C140.89924,66.8821278 126.378643,52.5 109.925358,52.5 C93.1545953,52.5 79.6028397,66.3209292 79.5005818,82.8383726 C79.4623638,89.0116122 81.2971704,96.3084466 84.6989438,104.518036 C87.156682,110.44936 90.3745857,116.715285 94.1701087,123.161257 C97.3556238,128.571247 100.766642,133.805292 104.177875,138.667029 C105.372176,140.369163 109.920614,146.440616 109.920614,146.440616 C109.920614,146.440616 114.538992,140.320574 115.755969,138.59709 Z M106.633667,136.943925 C103.265519,132.143593 99.8971566,126.975002 96.7552496,121.639072 C93.025631,115.305026 89.8695625,109.159507 87.4704332,103.369625 C84.2085588,95.4976581 82.4651896,88.5644606 82.5005243,82.8569449 C82.5926755,67.9720008 94.8217743,55.5 109.925358,55.5 C124.728189,55.5 137.899239,68.5454506 137.899237,81.9475958 C137.899236,87.6687642 136.198016,94.5310955 133.036453,102.274811 C130.569078,108.31823 127.280041,114.737187 123.370997,121.350721 C120.169511,126.76717 116.737307,132.006299 113.305334,136.86666 C112.104533,138.567236 110.989971,140.098411 109.990487,141.435164 C109.641375,141.90208 107.812149,138.623515 106.633667,136.943925 Z M110.098197,94.5320477 C116.471034,94.5320477 121.63832,89.3785436 121.63832,83.0200368 C121.63832,76.66153 116.471034,71.5080259 110.098197,71.5080259 C103.72536,71.5080259 98.5580742,76.66153 98.5580742,83.0200368 C98.5580742,89.3785436 103.72536,94.5320477 110.098197,94.5320477 Z M110.098197,92.5320477 C104.828736,92.5320477 100.558074,88.2727766 100.558074,83.0200368 C100.558074,77.767297 104.828736,73.5080259 110.098197,73.5080259 C115.367658,73.5080259 119.63832,77.767297 119.63832,83.0200368 C119.63832,88.2727766 115.367658,92.5320477 110.098197,92.5320477 Z" id="places"></path>
            </g>
        </g>
    </g>
</svg>