<?xml version="1.0" encoding="UTF-8"?>
<svg width="41px" height="40px" viewBox="0 0 41 40" version="1.1" xmlns="http://www.w3.org/2000/svg" xmlns:xlink="http://www.w3.org/1999/xlink">
    <!-- Generator: Sketch 40.1 (33804) - http://www.bohemiancoding.com/sketch -->
    <title>icon-wordpress</title>
    <desc>Created with Sketch.</desc>
    <defs></defs>
    <g id="Page-1" stroke="none" stroke-width="1" fill="none" fill-rule="evenodd">
        <g id="Desktop-HD" transform="translate(-337.000000, -523.000000)" fill="#FFFFFF">
            <g id="wordpress-copy" transform="translate(244.000000, 477.000000)">
                <path d="M113.838754,46.1506662 C106.061745,46.1371278 98.7418265,50.7486474 95.3824719,58.048159 L104.828359,58.0706304 L104.828359,59.1036794 C101.919743,58.7536655 102.175861,60.2640928 102.587611,61.8672244 L108.788407,77.4077831 L113.346011,66.7242619 L111.253749,61.7175077 C110.493771,60.3764894 110.477732,58.8887321 107.36858,59.0288409 L107.412252,58.0768636 L121.266027,58.1105707 L121.266027,59.1773268 C119.6436,59.2724928 117.690574,58.7694273 118.725846,62.0918193 L124.329005,76.8101869 L127.391984,68.2176966 C128.394978,64.6157621 127.451021,61.1542936 126.259123,57.7599613 C125.596217,55.4828466 125.905378,53.581155 128.876684,52.8267752 C124.341313,48.1973102 118.989865,46.1596389 113.838913,46.1506662 L113.838754,46.1506662 Z M132.680583,59.7387147 L123.698814,83.1506145 C126.179243,81.0023331 128.72252,80.2203603 131.83465,74.2761598 C133.905314,69.3319762 133.692153,64.7517418 132.680583,59.738675 L132.680583,59.7387147 Z M94.431765,60.117989 C93.5551027,67.0295315 93.6353009,69.0538629 95.8054185,74.6979154 C98.6341941,80.103517 100.827815,81.2424118 103.941255,83.3627429 L94.4317253,60.117989 L94.431765,60.117989 Z M114.189363,68.8876301 L107.533224,84.9472146 C112.205409,86.2807689 116.385922,86.1138612 120.212968,84.6303123 L114.189363,68.8875904 L114.189363,68.8876301 Z" id="icon-wordpress"></path>
            </g>
        </g>
    </g>
</svg>