<svg width="84" height="87" xmlns="http://www.w3.org/2000/svg"><g id="Symbols" fill="none" fill-rule="evenodd" stroke-opacity=".182"><g id="community/card" stroke="#3369E7" stroke-width="2" fill="#FFF"><path d="M54.8604 61.857c-5.5616 4.3285-12.5207 6.9012-20.072 6.9012-18.2286 0-33.0058-14.9913-33.0058-33.484 0-18.4926 14.7772-33.484 33.0057-33.484 18.2285 0 33.0056 14.9914 33.0056 33.484 0 8.8447-3.3804 16.8884-8.9018 22.874l2.7956 2.7957.8746-.8747c.7813-.7813 2.0543-.7752 2.8282-.0012l16.396 16.396c.7805.7806.7834 2.0434-.0013 2.828l-5.738 5.738c-.7812.7813-2.054.775-2.828.0012l-16.396-16.396c-.7806-.7805-.7835-2.0434.0013-2.828l.993-.993-2.9572-2.9573zm-20.072 1.3206c15.1903 0 27.5046-12.4928 27.5046-27.9034 0-15.4105-12.3143-27.9033-27.5047-27.9033-15.1905 0-27.5047 12.4927-27.5047 27.9032 0 15.4106 12.3142 27.9034 27.5047 27.9034z" id="sbx-icon-search-5"/></g></g></svg>