<?xml version="1.0" encoding="UTF-8" standalone="no"?>
<svg width="485px" height="37px" viewBox="0 0 485 37" version="1.1" xmlns="http://www.w3.org/2000/svg" xmlns:xlink="http://www.w3.org/1999/xlink" xmlns:sketch="http://www.bohemiancoding.com/sketch/ns">
    <!-- Generator: Sketch 3.5.2 (25235) - http://www.bohemiancoding.com/sketch -->
    <title>community/milliseconds-matter</title>
    <desc>Created with Sketch.</desc>
    <defs></defs>
    <g id="Page-1" stroke="none" stroke-width="1" fill="none" fill-rule="evenodd" sketch:type="MSPage">
        <g id="Desktop-HD" sketch:type="MSArtboardGroup" transform="translate(-232.000000, -3026.000000)" fill="#FFFFFF">
            <g id="footer" sketch:type="MSLayerGroup" transform="translate(-1.000000, 2629.000000)">
                <path d="M264.570493,411.719833 L257.661749,411.719833 L255.786518,419.5145 L262.300477,419.5145 L262.300477,423.6585 L254.799555,423.6585 L252.480191,433.229167 L248.038855,433.229167 L250.456916,423.6585 L243.301431,423.6585 L240.982067,433.229167 L236.540731,433.229167 L238.909444,423.6585 L233.3331,423.6585 L233.3331,419.5145 L239.896407,419.5145 L241.771638,411.719833 L235.603116,411.719833 L235.603116,407.871833 L242.758601,407.871833 L245.077965,398.2025 L249.5193,398.2025 L247.10124,407.871833 L254.256725,407.871833 L256.576089,398.2025 L261.017424,398.2025 L258.648712,407.871833 L264.570493,407.871833 L264.570493,411.719833 L264.570493,411.719833 L264.570493,411.719833 Z M251.443879,419.5145 L253.31911,411.719833 L246.163625,411.719833 L244.288394,419.5145 L251.443879,419.5145 L251.443879,419.5145 L251.443879,419.5145 Z M309.131892,433.229167 L303.703593,433.229167 L303.703593,418.7745 C303.703593,416.373599 303.300587,414.614061 302.494563,413.495833 C301.688539,412.377606 300.545317,411.8185 299.064865,411.8185 C297.518614,411.8185 296.103981,412.385828 294.820922,413.5205 C293.537863,414.655172 292.616707,416.126935 292.057424,417.935833 L292.057424,433.229167 L286.629126,433.229167 L286.629126,418.7745 C286.629126,416.34071 286.242569,414.57295 285.469444,413.471167 C284.696318,412.369383 283.553097,411.8185 282.039746,411.8185 C280.526394,411.8185 279.119985,412.377606 277.820477,413.495833 C276.520969,414.614061 275.591587,416.077602 275.032305,417.8865 L275.032305,433.229167 L269.604006,433.229167 L269.604006,407.427833 L274.538824,407.427833 L274.538824,412.607833 C275.558691,410.798935 276.899303,409.409394 278.5607,408.439167 C280.222096,407.46894 282.121982,406.983833 284.260413,406.983833 C286.431744,406.983833 288.126014,407.542939 289.343275,408.661167 C290.560536,409.779394 291.33365,411.177158 291.662639,412.8545 C292.748304,410.946935 294.11359,409.491616 295.758537,408.4885 C297.403485,407.485384 299.262247,406.983833 301.334881,406.983833 C302.848232,406.983833 304.106598,407.271608 305.110016,407.847167 C306.113434,408.422725 306.911221,409.187384 307.503402,410.141167 C308.095583,411.094949 308.515039,412.204938 308.761781,413.471167 C309.008523,414.737395 309.131892,416.077604 309.131892,417.491833 L309.131892,433.229167 L309.131892,433.229167 L309.131892,433.229167 Z M315.201717,433.229167 L315.201717,407.427833 L320.630016,407.427833 L320.630016,433.229167 L315.201717,433.229167 L315.201717,433.229167 L315.201717,433.229167 Z M315.201717,403.185167 L315.201717,397.215833 L320.630016,397.215833 L320.630016,403.185167 L315.201717,403.185167 L315.201717,403.185167 L315.201717,403.185167 Z M327.045278,397.215833 L332.473577,397.215833 L332.473577,425.631833 C332.473577,426.585616 332.720315,427.333831 333.2138,427.8765 C333.707284,428.419169 334.398151,428.6905 335.286423,428.6905 C335.648311,428.6905 336.075991,428.632945 336.569475,428.517833 C337.06296,428.402722 337.523538,428.246501 337.951224,428.049167 L338.740795,432.439833 C337.95122,432.801613 337.013614,433.089388 335.927949,433.303167 C334.842284,433.516946 333.87178,433.623833 333.016407,433.623833 C331.141167,433.623833 329.677186,433.114061 328.62442,432.0945 C327.571653,431.074939 327.045278,429.627843 327.045278,427.753167 L327.045278,397.215833 L327.045278,397.215833 L327.045278,397.215833 Z M341.751033,397.215833 L347.179332,397.215833 L347.179332,425.631833 C347.179332,426.585616 347.426071,427.333831 347.919555,427.8765 C348.413039,428.419169 349.103907,428.6905 349.992178,428.6905 C350.354066,428.6905 350.781746,428.632945 351.275231,428.517833 C351.768715,428.402722 352.229293,428.246501 352.656979,428.049167 L353.44655,432.439833 C352.656975,432.801613 351.719369,433.089388 350.633704,433.303167 C349.548039,433.516946 348.577535,433.623833 347.722162,433.623833 C345.846922,433.623833 344.382941,433.114061 343.330175,432.0945 C342.277409,431.074939 341.751033,429.627843 341.751033,427.753167 L341.751033,397.215833 L341.751033,397.215833 L341.751033,397.215833 Z M356.40744,433.229167 L356.40744,407.427833 L361.835739,407.427833 L361.835739,433.229167 L356.40744,433.229167 L356.40744,433.229167 L356.40744,433.229167 Z M356.40744,403.185167 L356.40744,397.215833 L361.835739,397.215833 L361.835739,403.185167 L356.40744,403.185167 L356.40744,403.185167 L356.40744,403.185167 Z M377.873895,433.7225 C376.821129,433.7225 375.760154,433.640279 374.690938,433.475833 C373.621722,433.311388 372.568972,433.072946 371.532655,432.7605 C370.496338,432.448054 369.509385,432.069836 368.571765,431.625833 C367.634145,431.181831 366.803459,430.680281 366.079682,430.121167 L368.349698,426.4705 C371.507997,428.674067 374.649799,429.775833 377.775199,429.775833 C379.420146,429.775833 380.719635,429.463392 381.673704,428.8385 C382.627774,428.213608 383.104801,427.325617 383.104801,426.1745 C383.104801,425.089161 382.570201,424.291614 381.500986,423.781833 C380.43177,423.272053 378.729275,422.737614 376.39345,422.1785 C374.781402,421.783831 373.399667,421.380947 372.248203,420.969833 C371.09674,420.55872 370.159135,420.09828 369.435358,419.5885 C368.711581,419.07872 368.185206,418.470281 367.856216,417.763167 C367.527227,417.056052 367.362734,416.209172 367.362734,415.2225 C367.362734,413.906938 367.625922,412.739394 368.152305,411.719833 C368.678688,410.700273 369.39423,409.836948 370.298951,409.129833 C371.203672,408.422719 372.272871,407.88828 373.506582,407.5265 C374.740292,407.16472 376.064455,406.983833 377.47911,406.983833 C379.35435,406.983833 381.163764,407.27983 382.907409,407.871833 C384.651053,408.463836 386.213729,409.269606 387.595485,410.289167 L385.276121,413.5945 C382.8087,411.752713 380.176824,410.831833 377.380413,410.831833 C375.998658,410.831833 374.830763,411.119608 373.876693,411.695167 C372.922624,412.270725 372.445596,413.183383 372.445596,414.433167 C372.445596,414.959392 372.544292,415.403387 372.741685,415.765167 C372.939079,416.126946 373.259839,416.439388 373.703975,416.7025 C374.14811,416.965612 374.732058,417.204054 375.455835,417.417833 C376.179611,417.631612 377.06787,417.870054 378.120636,418.133167 C379.897179,418.560724 381.426957,418.988276 382.710016,419.415833 C383.993075,419.843391 385.05405,420.344942 385.892973,420.9205 C386.731896,421.496058 387.348742,422.170274 387.743529,422.943167 C388.138317,423.716059 388.335707,424.645161 388.335707,425.7305 C388.335707,426.947395 388.088969,428.049162 387.595485,429.035833 C387.102001,430.022505 386.402909,430.861163 385.498188,431.551833 C384.593467,432.242503 383.491368,432.776943 382.19186,433.155167 C380.892352,433.533391 379.453044,433.7225 377.873895,433.7225 L377.873895,433.7225 L377.873895,433.7225 L377.873895,433.7225 Z M404.669952,433.7225 C402.663117,433.7225 400.837253,433.368948 399.192305,432.661833 C397.547358,431.954719 396.140949,430.992728 394.973037,429.775833 C393.805124,428.558938 392.900417,427.14473 392.258887,425.533167 C391.617358,423.921603 391.296598,422.211398 391.296598,420.4025 C391.296598,418.593602 391.617358,416.875175 392.258887,415.247167 C392.900417,413.619159 393.805124,412.188506 394.973037,410.955167 C396.140949,409.721827 397.547358,408.751615 399.192305,408.0445 C400.837253,407.337385 402.679566,406.983833 404.7193,406.983833 C406.726136,406.983833 408.543776,407.345607 410.172273,408.069167 C411.800771,408.792726 413.190731,409.754716 414.342194,410.955167 C415.493657,412.155617 416.373691,413.553381 416.982321,415.1485 C417.590952,416.743619 417.895262,418.412714 417.895262,420.155833 C417.895262,420.550502 417.878813,420.920498 417.845914,421.265833 C417.813015,421.611168 417.780117,421.898943 417.747218,422.129167 L397.070334,422.129167 C397.169031,423.280284 397.440443,424.316273 397.884579,425.237167 C398.328714,426.15806 398.904437,426.955608 399.611765,427.629833 C400.319092,428.304059 401.125104,428.822054 402.029825,429.183833 C402.934546,429.545613 403.880377,429.7265 404.867345,429.7265 C405.591122,429.7265 406.306663,429.636056 407.01399,429.455167 C407.721318,429.274277 408.371062,429.011168 408.963243,428.665833 C409.555424,428.320498 410.081799,427.901169 410.542385,427.407833 C411.00297,426.914498 411.364853,426.371836 411.628045,425.779833 L416.266773,427.111833 C415.378501,429.052287 413.906295,430.639161 411.850111,431.8725 C409.793927,433.10584 407.400565,433.7225 404.669952,433.7225 L404.669952,433.7225 L404.669952,433.7225 L404.669952,433.7225 Z M412.516312,418.379833 C412.417615,417.294495 412.146203,416.291393 411.702067,415.3705 C411.257931,414.449607 410.690433,413.668503 409.999555,413.027167 C409.308677,412.38583 408.502665,411.88428 407.581494,411.5225 C406.660324,411.16072 405.68982,410.979833 404.669952,410.979833 C403.650085,410.979833 402.687805,411.16072 401.783084,411.5225 C400.878363,411.88428 400.080576,412.38583 399.389698,413.027167 C398.69882,413.668503 398.139546,414.449607 397.71186,415.3705 C397.284174,416.291393 397.020986,417.294495 396.922289,418.379833 L412.516312,418.379833 L412.516312,418.379833 L412.516312,418.379833 Z M420.65876,420.303833 C420.65876,418.494935 420.971295,416.78473 421.596375,415.173167 C422.221455,413.561603 423.117938,412.147395 424.285851,410.9305 C425.453763,409.713605 426.860172,408.751615 428.505119,408.0445 C430.150067,407.337385 431.99238,406.983833 434.032114,406.983833 C436.696929,406.983833 438.991596,407.567605 440.916184,408.735167 C442.840773,409.902728 444.28008,411.456713 445.234149,413.397167 L439.953895,415.0745 C439.328815,413.989161 438.489905,413.142281 437.437138,412.533833 C436.384372,411.925386 435.216477,411.621167 433.933418,411.621167 C432.847753,411.621167 431.836126,411.834942 430.898506,412.2625 C429.960886,412.690058 429.146649,413.290274 428.455771,414.063167 C427.764893,414.836059 427.222069,415.748717 426.827281,416.801167 C426.432494,417.853616 426.235103,419.02116 426.235103,420.303833 C426.235103,421.553617 426.440719,422.712939 426.851955,423.781833 C427.263192,424.850728 427.822466,425.779829 428.529793,426.569167 C429.237121,427.358504 430.059582,427.975164 430.997202,428.419167 C431.934822,428.863169 432.93,429.085167 433.982766,429.085167 C434.640745,429.085167 435.298714,428.994723 435.956693,428.813833 C436.614672,428.632944 437.215069,428.378057 437.757901,428.049167 C438.300734,427.720276 438.777762,427.342058 439.188998,426.9145 C439.600235,426.486942 439.904546,426.026502 440.10194,425.533167 L445.431542,427.111833 C444.57617,429.052287 443.145087,430.639161 441.138251,431.8725 C439.131416,433.10584 436.762727,433.7225 434.032114,433.7225 C432.025279,433.7225 430.199415,433.360726 428.554467,432.637167 C426.90952,431.913607 425.503111,430.935173 424.335199,429.701833 C423.167286,428.468494 422.262579,427.046064 421.621049,425.4345 C420.97952,423.822936 420.65876,422.112731 420.65876,420.303833 L420.65876,420.303833 L420.65876,420.303833 L420.65876,420.303833 Z M461.222957,433.7225 C459.183222,433.7225 457.349134,433.360726 455.720636,432.637167 C454.092138,431.913607 452.702179,430.943395 451.550715,429.7265 C450.399252,428.509605 449.510994,427.087175 448.885914,425.459167 C448.260834,423.831159 447.948299,422.129176 447.948299,420.353167 C447.948299,418.577158 448.260834,416.875175 448.885914,415.247167 C449.510994,413.619159 450.407477,412.196728 451.57539,410.979833 C452.743302,409.762938 454.141486,408.792726 455.769984,408.069167 C457.398482,407.345607 459.216121,406.983833 461.222957,406.983833 C463.229793,406.983833 465.047432,407.345607 466.67593,408.069167 C468.304428,408.792726 469.702612,409.762938 470.870525,410.979833 C472.038437,412.196728 472.93492,413.619159 473.56,415.247167 C474.18508,416.875175 474.497615,418.577158 474.497615,420.353167 C474.497615,422.129176 474.18508,423.831159 473.56,425.459167 C472.93492,427.087175 472.038437,428.509605 470.870525,429.7265 C469.702612,430.943395 468.304428,431.913607 466.67593,432.637167 C465.047432,433.360726 463.229793,433.7225 461.222957,433.7225 L461.222957,433.7225 L461.222957,433.7225 L461.222957,433.7225 Z M453.524642,420.4025 C453.524642,421.652284 453.722033,422.803384 454.11682,423.855833 C454.511608,424.908283 455.054432,425.820941 455.74531,426.593833 C456.436188,427.366726 457.250425,427.975164 458.188045,428.419167 C459.125664,428.863169 460.137292,429.085167 461.222957,429.085167 C462.308622,429.085167 463.32025,428.863169 464.25787,428.419167 C465.19549,427.975164 466.009726,427.358504 466.700604,426.569167 C467.391482,425.779829 467.934306,424.85895 468.329094,423.8065 C468.723881,422.75405 468.921272,421.602951 468.921272,420.353167 C468.921272,419.136272 468.723881,417.993394 468.329094,416.9245 C467.934306,415.855606 467.391482,414.926504 466.700604,414.137167 C466.009726,413.347829 465.19549,412.731169 464.25787,412.287167 C463.32025,411.843164 462.308622,411.621167 461.222957,411.621167 C460.170191,411.621167 459.175013,411.851387 458.237393,412.311833 C457.299773,412.77228 456.485536,413.397163 455.794658,414.1865 C455.10378,414.975837 454.552731,415.904939 454.141494,416.973833 C453.730258,418.042728 453.524642,419.185605 453.524642,420.4025 L453.524642,420.4025 L453.524642,420.4025 L453.524642,420.4025 Z M502.379332,433.229167 L496.951033,433.229167 L496.951033,418.7745 C496.951033,416.34071 496.556252,414.57295 495.766677,413.471167 C494.977103,412.369383 493.842106,411.8185 492.361653,411.8185 C491.572079,411.8185 490.774291,411.966499 489.968267,412.2625 C489.162243,412.558501 488.413803,412.977831 487.722925,413.5205 C487.032047,414.063169 486.415201,414.704496 485.872369,415.4445 C485.329536,416.184504 484.910081,416.998496 484.61399,417.8865 L484.61399,433.229167 L479.185692,433.229167 L479.185692,407.427833 L484.120509,407.427833 L484.120509,412.607833 C485.107477,410.864714 486.53856,409.491616 488.4138,408.4885 C490.28904,407.485384 492.361642,406.983833 494.631669,406.983833 C496.17792,406.983833 497.452735,407.263386 498.456153,407.8225 C499.45957,408.381614 500.249133,409.146273 500.824865,410.1165 C501.400596,411.086727 501.803602,412.204938 502.033895,413.471167 C502.264188,414.737395 502.379332,416.077604 502.379332,417.491833 L502.379332,433.229167 L502.379332,433.229167 L502.379332,433.229167 Z M519.207059,433.7225 C517.430516,433.7225 515.793818,433.368948 514.296916,432.661833 C512.800014,431.954719 511.508749,430.992728 510.423084,429.775833 C509.337419,428.558938 508.490284,427.14473 507.881653,425.533167 C507.273023,423.921603 506.968712,422.194954 506.968712,420.353167 C506.968712,418.51138 507.256574,416.776508 507.832305,415.1485 C508.408037,413.520492 509.205824,412.106284 510.225692,410.905833 C511.245559,409.705383 512.471026,408.751615 513.90213,408.0445 C515.333235,407.337385 516.887686,406.983833 518.565533,406.983833 C520.572368,406.983833 522.365334,407.477162 523.944483,408.463833 C525.523633,409.450505 526.757325,410.733159 527.645596,412.311833 L527.645596,397.215833 L533.073895,397.215833 L533.073895,426.815833 C533.073895,427.934061 533.60027,428.526055 534.653037,428.591833 L534.653037,433.229167 C534.093754,433.327834 533.600278,433.393611 533.172591,433.4265 C532.744905,433.459389 532.350124,433.475833 531.988235,433.475833 C529.948501,433.278499 528.797055,432.341175 528.533863,430.663833 L528.435167,428.5425 C527.448199,430.219842 526.13226,431.502496 524.487313,432.3905 C522.842366,433.278504 521.082299,433.7225 519.207059,433.7225 L519.207059,433.7225 L519.207059,433.7225 L519.207059,433.7225 Z M520.588808,429.085167 C521.279685,429.085167 522.003451,428.953612 522.760127,428.6905 C523.516803,428.427388 524.22412,428.065613 524.882099,427.605167 C525.540077,427.14472 526.1158,426.602059 526.609285,425.977167 C527.102769,425.352275 527.448203,424.678059 527.645596,423.9545 L527.645596,417.195833 C527.349506,416.406496 526.938275,415.674726 526.411892,415.0005 C525.885509,414.326274 525.285112,413.73428 524.610684,413.2245 C523.936255,412.71472 523.220714,412.320057 522.464038,412.0405 C521.707362,411.760943 520.950698,411.621167 520.194022,411.621167 C519.042559,411.621167 517.998033,411.867831 517.060413,412.361167 C516.122793,412.854502 515.316781,413.512274 514.642353,414.3345 C513.967925,415.156726 513.449774,416.102272 513.087886,417.171167 C512.725997,418.240061 512.545056,419.333606 512.545056,420.451833 C512.545056,421.635839 512.750671,422.75405 513.161908,423.8065 C513.573145,424.85895 514.132418,425.771607 514.839746,426.5445 C515.547073,427.317393 516.394208,427.934053 517.381176,428.3945 C518.368145,428.854947 519.437345,429.085167 520.588808,429.085167 L520.588808,429.085167 L520.588808,429.085167 L520.588808,429.085167 Z M549.753577,433.7225 C548.700811,433.7225 547.639836,433.640279 546.57062,433.475833 C545.501404,433.311388 544.448654,433.072946 543.412337,432.7605 C542.37602,432.448054 541.389067,432.069836 540.451447,431.625833 C539.513827,431.181831 538.683141,430.680281 537.959364,430.121167 L540.22938,426.4705 C543.387679,428.674067 546.529481,429.775833 549.654881,429.775833 C551.299828,429.775833 552.599317,429.463392 553.553386,428.8385 C554.507456,428.213608 554.984483,427.325617 554.984483,426.1745 C554.984483,425.089161 554.449883,424.291614 553.380668,423.781833 C552.311452,423.272053 550.608957,422.737614 548.273132,422.1785 C546.661084,421.783831 545.279349,421.380947 544.127886,420.969833 C542.976422,420.55872 542.038817,420.09828 541.31504,419.5885 C540.591263,419.07872 540.064888,418.470281 539.735898,417.763167 C539.406909,417.056052 539.242417,416.209172 539.242417,415.2225 C539.242417,413.906938 539.505604,412.739394 540.031987,411.719833 C540.55837,410.700273 541.273912,409.836948 542.178633,409.129833 C543.083354,408.422719 544.152553,407.88828 545.386264,407.5265 C546.619974,407.16472 547.944137,406.983833 549.358792,406.983833 C551.234032,406.983833 553.043447,407.27983 554.787091,407.871833 C556.530735,408.463836 558.093411,409.269606 559.475167,410.289167 L557.155803,413.5945 C554.688382,411.752713 552.056506,410.831833 549.260095,410.831833 C547.87834,410.831833 546.710445,411.119608 545.756375,411.695167 C544.802306,412.270725 544.325278,413.183383 544.325278,414.433167 C544.325278,414.959392 544.423974,415.403387 544.621367,415.765167 C544.818761,416.126946 545.139521,416.439388 545.583657,416.7025 C546.027792,416.965612 546.61174,417.204054 547.335517,417.417833 C548.059293,417.631612 548.947552,417.870054 550.000318,418.133167 C551.776861,418.560724 553.306639,418.988276 554.589698,419.415833 C555.872757,419.843391 556.933732,420.344942 557.772655,420.9205 C558.611578,421.496058 559.228424,422.170274 559.623211,422.943167 C560.017999,423.716059 560.21539,424.645161 560.21539,425.7305 C560.21539,426.947395 559.968651,428.049162 559.475167,429.035833 C558.981683,430.022505 558.282591,430.861163 557.37787,431.551833 C556.473149,432.242503 555.37105,432.776943 554.071542,433.155167 C552.772034,433.533391 551.332726,433.7225 549.753577,433.7225 L549.753577,433.7225 L549.753577,433.7225 L549.753577,433.7225 Z M604.283307,433.229167 L598.855008,433.229167 L598.855008,418.7745 C598.855008,416.373599 598.452002,414.614061 597.645978,413.495833 C596.839954,412.377606 595.696732,411.8185 594.21628,411.8185 C592.670029,411.8185 591.255396,412.385828 589.972337,413.5205 C588.689278,414.655172 587.768122,416.126935 587.208839,417.935833 L587.208839,433.229167 L581.780541,433.229167 L581.780541,418.7745 C581.780541,416.34071 581.393984,414.57295 580.620859,413.471167 C579.847733,412.369383 578.704512,411.8185 577.191161,411.8185 C575.677809,411.8185 574.2714,412.377606 572.971892,413.495833 C571.672384,414.614061 570.743002,416.077602 570.18372,417.8865 L570.18372,433.229167 L564.755421,433.229167 L564.755421,407.427833 L569.690238,407.427833 L569.690238,412.607833 C570.710106,410.798935 572.050718,409.409394 573.712114,408.439167 C575.373511,407.46894 577.273397,406.983833 579.411828,406.983833 C581.583159,406.983833 583.277429,407.542939 584.49469,408.661167 C585.711951,409.779394 586.485065,411.177158 586.814054,412.8545 C587.899719,410.946935 589.265005,409.491616 590.909952,408.4885 C592.5549,407.485384 594.413662,406.983833 596.486296,406.983833 C597.999647,406.983833 599.258013,407.271608 600.261431,407.847167 C601.264849,408.422725 602.062636,409.187384 602.654817,410.141167 C603.246998,411.094949 603.666453,412.204938 603.913196,413.471167 C604.159938,414.737395 604.283307,416.077604 604.283307,417.491833 L604.283307,433.229167 L604.283307,433.229167 L604.283307,433.229167 Z M617.311224,433.7225 C616.061064,433.7225 614.901394,433.516947 613.832178,433.105833 C612.762962,432.69472 611.841806,432.127393 611.06868,431.403833 C610.295555,430.680274 609.686934,429.825172 609.242798,428.8385 C608.798662,427.851828 608.576598,426.78295 608.576598,425.631833 C608.576598,424.414938 608.839785,423.313172 609.366169,422.3265 C609.892552,421.339828 610.640991,420.484726 611.61151,419.761167 C612.582029,419.037607 613.733475,418.478502 615.065882,418.083833 C616.39829,417.689165 617.870495,417.491833 619.482544,417.491833 C620.699805,417.491833 621.900598,417.598721 623.08496,417.8125 C624.269322,418.026279 625.338522,418.314054 626.292591,418.675833 L626.292591,416.899833 C626.292591,414.992268 625.749767,413.504061 624.664102,412.435167 C623.578437,411.366272 622.01576,410.831833 619.976025,410.831833 C618.59427,410.831833 617.237209,411.08672 615.904801,411.5965 C614.572394,412.10628 613.198884,412.838051 611.784229,413.791833 L610.106391,410.3385 C613.429185,408.102044 616.883522,406.983833 620.469507,406.983833 C624.022593,406.983833 626.786063,407.888269 628.76,409.697167 C630.733937,411.506065 631.72089,414.104261 631.72089,417.491833 L631.72089,426.815833 C631.72089,427.440725 631.836035,427.884721 632.066328,428.147833 C632.29662,428.410946 632.691402,428.558944 633.250684,428.591833 L633.250684,433.229167 C632.7243,433.327834 632.239048,433.393611 631.794913,433.4265 C631.350777,433.459389 630.947771,433.475833 630.585882,433.475833 C629.533116,433.410055 628.735329,433.130502 628.192496,432.637167 C627.649663,432.143831 627.312454,431.48606 627.180859,430.663833 L627.032814,429.035833 C625.881351,430.54873 624.458493,431.708052 622.764197,432.513833 C621.069901,433.319615 619.252262,433.7225 617.311224,433.7225 L617.311224,433.7225 L617.311224,433.7225 L617.311224,433.7225 Z M618.791669,429.7265 C620.107627,429.7265 621.349544,429.488058 622.517456,429.011167 C623.685369,428.534275 624.598301,427.868282 625.25628,427.013167 C625.947158,426.421164 626.292591,425.796281 626.292591,425.1385 L626.292591,421.7345 C625.371421,421.37272 624.392692,421.093168 623.356375,420.895833 C622.320058,420.698499 621.308431,420.599833 620.321463,420.599833 C618.380425,420.599833 616.793075,421.019162 615.559364,421.857833 C614.325654,422.696504 613.708808,423.806493 613.708808,425.187833 C613.708808,426.470506 614.185835,427.547607 615.139905,428.419167 C616.093974,429.290727 617.311217,429.7265 618.791669,429.7265 L618.791669,429.7265 L618.791669,429.7265 L618.791669,429.7265 Z M652.397774,431.897167 C651.673997,432.226057 650.711718,432.596054 649.510906,433.007167 C648.310095,433.41828 647.002381,433.623833 645.587727,433.623833 C644.732354,433.623833 643.934566,433.508723 643.19434,433.2785 C642.454114,433.048277 641.796145,432.702947 641.220413,432.2425 C640.644682,431.782053 640.192328,431.181837 639.863339,430.441833 C639.534349,429.70183 639.369857,428.805616 639.369857,427.753167 L639.369857,411.621167 L635.915485,411.621167 L635.915485,407.427833 L639.369857,407.427833 L639.369857,398.9425 L644.798156,398.9425 L644.798156,407.427833 L650.423847,407.427833 L650.423847,411.621167 L644.798156,411.621167 L644.798156,426.0265 C644.798156,426.947393 645.061343,427.613387 645.587727,428.0245 C646.11411,428.435613 646.755629,428.641167 647.512305,428.641167 C648.268981,428.641167 648.992747,428.509612 649.683625,428.2465 C650.374503,427.983388 650.884429,427.769612 651.213418,427.605167 L652.397774,431.897167 L652.397774,431.897167 L652.397774,431.897167 Z M670.212464,431.897167 C669.488687,432.226057 668.526408,432.596054 667.325596,433.007167 C666.124785,433.41828 664.817071,433.623833 663.402417,433.623833 C662.547044,433.623833 661.749256,433.508723 661.00903,433.2785 C660.268804,433.048277 659.610835,432.702947 659.035103,432.2425 C658.459372,431.782053 658.007018,431.181837 657.678029,430.441833 C657.349039,429.70183 657.184547,428.805616 657.184547,427.753167 L657.184547,411.621167 L653.730175,411.621167 L653.730175,407.427833 L657.184547,407.427833 L657.184547,398.9425 L662.612846,398.9425 L662.612846,407.427833 L668.238537,407.427833 L668.238537,411.621167 L662.612846,411.621167 L662.612846,426.0265 C662.612846,426.947393 662.876033,427.613387 663.402417,428.0245 C663.9288,428.435613 664.570319,428.641167 665.326995,428.641167 C666.083671,428.641167 666.807437,428.509612 667.498315,428.2465 C668.189193,427.983388 668.699119,427.769612 669.028108,427.605167 L670.212464,431.897167 L670.212464,431.897167 L670.212464,431.897167 Z M685.510397,433.7225 C683.503562,433.7225 681.677698,433.368948 680.03275,432.661833 C678.387803,431.954719 676.981394,430.992728 675.813482,429.775833 C674.645569,428.558938 673.740862,427.14473 673.099332,425.533167 C672.457803,423.921603 672.137043,422.211398 672.137043,420.4025 C672.137043,418.593602 672.457803,416.875175 673.099332,415.247167 C673.740862,413.619159 674.645569,412.188506 675.813482,410.955167 C676.981394,409.721827 678.387803,408.751615 680.03275,408.0445 C681.677698,407.337385 683.520011,406.983833 685.559746,406.983833 C687.566581,406.983833 689.384221,407.345607 691.012719,408.069167 C692.641216,408.792726 694.031176,409.754716 695.182639,410.955167 C696.334102,412.155617 697.214136,413.553381 697.822766,415.1485 C698.431397,416.743619 698.735707,418.412714 698.735707,420.155833 C698.735707,420.550502 698.719258,420.920498 698.686359,421.265833 C698.65346,421.611168 698.620562,421.898943 698.587663,422.129167 L677.910779,422.129167 C678.009476,423.280284 678.280888,424.316273 678.725024,425.237167 C679.16916,426.15806 679.744883,426.955608 680.45221,427.629833 C681.159537,428.304059 681.965549,428.822054 682.87027,429.183833 C683.774991,429.545613 684.720822,429.7265 685.70779,429.7265 C686.431567,429.7265 687.147108,429.636056 687.854436,429.455167 C688.561763,429.274277 689.211507,429.011168 689.803688,428.665833 C690.395869,428.320498 690.922245,427.901169 691.38283,427.407833 C691.843415,426.914498 692.205298,426.371836 692.46849,425.779833 L697.107218,427.111833 C696.218946,429.052287 694.746741,430.639161 692.690556,431.8725 C690.634372,433.10584 688.24101,433.7225 685.510397,433.7225 L685.510397,433.7225 L685.510397,433.7225 L685.510397,433.7225 Z M693.356757,418.379833 C693.25806,417.294495 692.986648,416.291393 692.542512,415.3705 C692.098376,414.449607 691.530878,413.668503 690.84,413.027167 C690.149122,412.38583 689.34311,411.88428 688.42194,411.5225 C687.500769,411.16072 686.530265,410.979833 685.510397,410.979833 C684.49053,410.979833 683.52825,411.16072 682.623529,411.5225 C681.718808,411.88428 680.921021,412.38583 680.230143,413.027167 C679.539265,413.668503 678.979992,414.449607 678.552305,415.3705 C678.124619,416.291393 677.861431,417.294495 677.762734,418.379833 L693.356757,418.379833 L693.356757,418.379833 L693.356757,418.379833 Z M717.586709,412.1145 C715.481177,412.180278 713.622414,412.665384 712.010366,413.569833 C710.398317,414.474282 709.230422,415.765158 708.506645,417.4425 L708.506645,433.229167 L703.078347,433.229167 L703.078347,407.427833 L708.11186,407.427833 L708.11186,413.199833 C709.033031,411.423824 710.20915,409.976728 711.640254,408.8585 C713.071359,407.740272 714.592912,407.181167 716.20496,407.181167 L717.019205,407.181167 C717.233048,407.181167 717.422214,407.197611 717.586709,407.2305 L717.586709,412.1145 L717.586709,412.1145 L717.586709,412.1145 Z" id="community/milliseconds-matter" sketch:type="MSShapeGroup"></path>
            </g>
        </g>
    </g>
</svg>