<svg width="20" height="20" viewBox="0 0 20 20" xmlns="http://www.w3.org/2000/svg"><path d="M0 9.835c0 4.345 2.765 8.03 6.6 9.33.484.09.66-.212.66-.473 0-.234-.008-.852-.013-1.672-2.685.594-3.25-1.32-3.25-1.32-.44-1.135-1.073-1.438-1.073-1.438-.877-.61.066-.597.066-.597.97.07 1.48 1.013 1.48 1.013.86 1.503 2.258 1.07 2.808.817.088-.635.337-1.068.613-1.314-2.143-.247-4.396-1.09-4.396-4.86 0-1.073.376-1.952.993-2.64-.1-.247-.43-1.248.095-2.6 0 0 .81-.266 2.654 1.007.77-.22 1.596-.327 2.417-.33.82.003 1.645.11 2.416.33 1.842-1.273 2.65-1.008 2.65-1.008.528 1.352.197 2.353.098 2.6.618.688.992 1.567.992 2.64 0 3.778-2.258 4.61-4.407 4.853.346.304.654.904.654 1.82 0 1.316-.01 2.377-.01 2.7 0 .262.173.568.662.472 3.832-1.303 6.595-4.987 6.595-9.33C19.305 4.403 14.983 0 9.652 0 4.322 0 0 4.403 0 9.835z" fill="currentColor" fill-rule="evenodd"/></svg>