<?xml version="1.0" encoding="UTF-8" standalone="no"?>
<svg width="48px" height="35px" viewBox="0 0 48 35" version="1.1" xmlns="http://www.w3.org/2000/svg" xmlns:xlink="http://www.w3.org/1999/xlink" xmlns:sketch="http://www.bohemiancoding.com/sketch/ns">
    <!-- Generator: Sketch 3.5.2 (25235) - http://www.bohemiancoding.com/sketch -->
    <title>icon-youtube</title>
    <desc>Created with Sketch.</desc>
    <defs></defs>
    <g id="Page-1" stroke="none" stroke-width="1" fill="none" fill-rule="evenodd" sketch:type="MSPage">
        <g id="icons" sketch:type="MSArtboardGroup" transform="translate(-128.000000, -236.000000)" fill="#000000">
            <path d="M128,253.5 C128,251.749991 128.008928,250.382817 128.026786,249.398438 C128.044643,248.414058 128.120535,247.169929 128.254464,245.666016 C128.388394,244.162102 128.589284,242.817714 128.857143,241.632812 C129.142859,240.302077 129.758924,239.180994 130.705357,238.269531 C131.65179,237.358068 132.758922,236.829428 134.026786,236.683594 C137.991091,236.227862 143.982103,236 152,236 C160.017897,236 166.008909,236.227862 169.973214,236.683594 C171.241078,236.829428 172.352674,237.358068 173.308036,238.269531 C174.263398,239.180994 174.883927,240.302077 175.169643,241.632812 C175.419644,242.817714 175.611606,244.162102 175.745536,245.666016 C175.879465,247.169929 175.955357,248.414058 175.973214,249.398438 C175.991072,250.382817 176,251.749991 176,253.5 C176,255.250009 175.991072,256.617183 175.973214,257.601562 C175.955357,258.585942 175.879465,259.830071 175.745536,261.333984 C175.611606,262.837898 175.410716,264.182286 175.142857,265.367188 C174.857141,266.697923 174.241076,267.819006 173.294643,268.730469 C172.34821,269.641932 171.241078,270.170572 169.973214,270.316406 C166.008909,270.772138 160.017897,271 152,271 C143.982103,271 137.991091,270.772138 134.026786,270.316406 C132.758922,270.170572 131.647326,269.641932 130.691964,268.730469 C129.736602,267.819006 129.116073,266.697923 128.830357,265.367188 C128.580356,264.182286 128.388394,262.837898 128.254464,261.333984 C128.120535,259.830071 128.044643,258.585942 128.026786,257.601562 C128.008928,256.617183 128,255.250009 128,253.5 Z M146.919708,261.10101 L161.044335,253.5 L146.919708,245.89899 L146.919708,261.10101 Z" id="icon-youtube" sketch:type="MSShapeGroup"></path>
        </g>
    </g>
</svg>