<?xml version="1.0" encoding="UTF-8" standalone="no"?>
<svg width="49px" height="48px" viewBox="0 0 49 48" version="1.1" xmlns="http://www.w3.org/2000/svg" xmlns:xlink="http://www.w3.org/1999/xlink" xmlns:sketch="http://www.bohemiancoding.com/sketch/ns">
    <!-- Generator: Sketch 3.5.2 (25235) - http://www.bohemiancoding.com/sketch -->
    <title>icon-superbowl</title>
    <desc>Created with Sketch.</desc>
    <defs></defs>
    <g id="Page-1" stroke="none" stroke-width="1" fill="none" fill-rule="evenodd" sketch:type="MSPage">
        <g id="Desktop-HD" sketch:type="MSArtboardGroup" transform="translate(-571.000000, -881.000000)" fill="#FFFFFF">
            <g id="supersearch" sketch:type="MSLayerGroup" transform="translate(484.000000, 838.000000)">
                <g id="icon-superbowl" transform="translate(87.000000, 43.000000)" sketch:type="MSShapeGroup">
                    <path d="M12.1,48 L12.1,48 C8.9,48 5.9,47.5 3.1,46.4 C2.8,46.3 2.6,46.1 2.5,45.8 C-1.6,35.2 2.3,21.4 12.2,11.4 C19.5,4.2 28.7,0 37.6,0 C40.8,0 43.8,0.5 46.6,1.6 C46.8,1.8 47,2 47.1,2.2 C51.2,12.8 47.3,26.6 37.4,36.6 C30.2,43.8 21,48 12.1,48 L12.1,48 Z M4.3,44.6 C6.7,45.5 9.3,45.9 12.1,45.9 L12.1,45.9 C20.4,46 29.1,42 36,35.2 C45.2,25.9 49,13.2 45.4,3.4 C43,2.5 40.4,2 37.6,2 C29.3,2 20.5,6 13.7,12.8 C4.5,22.1 0.8,34.8 4.3,44.6 L4.3,44.6 Z" id="Shape"></path>
                    <path d="M20.3173962,27.2132728 L21.9540266,25.5664266 L19.9075,23.5199 L21.3217,22.1057 L23.3638266,24.1478266 L24.992901,22.5085835 L23.0044,20.51952 L24.4188,19.10552 L26.4027016,21.0899828 L28.0509487,19.4314473 L25.99126,17.33354 L27.41846,15.93234 L29.4609082,18.0126869 L31.85998,15.59864 L33.27858,17.00844 L30.8621618,19.4399415 L32.81308,21.42706 L31.38588,22.82826 L29.4522024,20.858702 L27.8167159,22.5043971 L29.792,24.48024 L28.3776,25.89424 L26.4069153,23.9229978 L24.7780403,25.5620403 L26.69566,27.47966 L25.28146,28.89386 L23.3682403,26.9806403 L21.7186498,28.6405275 L23.6395,30.59702 L22.2123,31.99822 L20.3086904,30.0592879 L17.98225,32.40025 L16.56365,30.99045 L18.9074368,28.6320333 L16.81768,26.5035 L18.24488,25.1023 L20.3173962,27.2132728 Z M48,12.9 C44.8,12.9 41.7,11.6 39.4,9.3 C36.7,6.8 36,3.5 35.8,1.3 L37.8,1.2 C37.9,3.1 38.6,5.8 40.8,7.9 C42.8,9.9 45.3,10.9 48,10.9 L48,12.9 Z M12.3,47 C12.2,44.4 11.1,42 9.3,40.2 C7.3,38.2 4.8,37.2 2.1,37.2 L2.1,35.2 C5.3,35.2 8.4,36.5 10.7,38.8 C12.9,41 14.2,43.9 14.3,47 L12.3,47 Z" id="Shape"></path>
                </g>
            </g>
        </g>
    </g>
</svg>