<?xml version="1.0" encoding="UTF-8" standalone="no"?>
<svg width="64px" height="46px" viewBox="0 0 64 46" version="1.1" xmlns="http://www.w3.org/2000/svg" xmlns:xlink="http://www.w3.org/1999/xlink" xmlns:sketch="http://www.bohemiancoding.com/sketch/ns">
    <!-- Generator: Sketch 3.5.2 (25235) - http://www.bohemiancoding.com/sketch -->
    <title>icon-salesforce</title>
    <desc>Created with Sketch.</desc>
    <defs></defs>
    <g id="Page-1" stroke="none" stroke-width="1" fill="none" fill-rule="evenodd" sketch:type="MSPage">
        <g id="Desktop-HD" sketch:type="MSArtboardGroup" transform="translate(-561.000000, -580.000000)">
            <g id="salesforce" sketch:type="MSLayerGroup" transform="translate(484.000000, 535.000000)">
                <g id="icon-salesforce" transform="translate(78.000000, 46.000000)" sketch:type="MSShapeGroup">
                    <g id="svg3671">
                        <path d="M25.8742,38.9735647 C27.8679726,41.0691949 30.6437549,42.3688588 33.7136715,42.3688588 C37.7945647,42.3688588 41.3549987,40.0733486 43.25102,36.6656176 C44.8987005,37.4082826 46.7225092,37.8213679 48.6414273,37.8213679 C56.0018298,37.8213679 61.9690572,31.7494592 61.9690572,24.2597354 C61.9690572,16.7691233 56.0018298,10.6972146 48.6414273,10.6972146 C47.7431728,10.6972146 46.8651732,10.7878269 46.0162347,10.9610562 C44.3465382,7.95663846 41.1647801,5.92674654 37.5127594,5.92674654 C35.9839656,5.92674654 34.5379521,6.28297702 33.250454,6.91637437 C31.5578609,2.90011994 27.6143478,0.0840335466 23.0182793,0.0840335466 C18.2319922,0.0840335466 14.1528603,3.13908752 12.5870796,7.42362526 C11.902821,7.27704664 11.1939045,7.20064808 10.4664946,7.20064808 C4.7678628,7.20064808 0.148016968,11.9089313 0.148016968,17.7178868 C0.148016968,21.6106598 2.22368922,25.0095073 5.3076961,26.8279707 C4.6727535,28.3017522 4.31961622,29.9283308 4.31961622,31.6384148 C4.31961622,38.3188469 9.69593319,43.7342609 16.3271644,43.7342609 C20.2204809,43.7342609 23.6805218,41.866938 25.8742,38.9735647" id="path3005" stroke="#FFFFFF" stroke-width="2" transform="translate(31.058537, 21.909147) scale(1, -1) translate(-31.058537, -21.909147) "></path>
                        <path d="M9.1022043,18.4220858 C9.06345607,18.3199249 9.11629456,18.2986044 9.12862354,18.2808373 C9.24486824,18.1955552 9.36287421,18.1342587 9.48176083,18.0658553 C10.1123002,17.7282803 10.7076139,17.6296728 11.3302275,17.6296728 C12.5983514,17.6296728 13.385645,18.310153 13.385645,19.4054951 L13.385645,19.4268157 C13.385645,20.4395407 12.4970777,20.8073198 11.6631101,21.0729381 L11.5547912,21.1084723 C10.926013,21.3145707 10.3835378,21.4922418 10.3835378,21.9097688 L10.3835378,21.9319777 C10.3835378,22.2890965 10.7005688,22.5520497 11.1919668,22.5520497 C11.7379646,22.5520497 12.3861168,22.3690485 12.8035409,22.1362994 C12.8035409,22.1362994 12.9259501,22.0563474 12.9708628,22.1762754 C12.9955208,22.240237 13.2068748,22.8141145 13.2288908,22.8762994 C13.2526682,22.9438144 13.2103974,22.9935623 13.1672459,23.020213 C12.6908188,23.3124819 12.0320989,23.5123618 11.3504823,23.5123618 L11.2236699,23.5114735 C10.0629843,23.5114735 9.25279401,22.8043426 9.25279401,21.7907292 L9.25279401,21.7694087 C9.25279401,20.7007172 10.1466452,20.3542586 10.9841354,20.112626 L11.1188736,20.0708733 C11.7291582,19.8816536 12.2549012,19.7190846 12.2549012,19.2855672 L12.2549012,19.2642466 C12.2549012,18.8680402 11.9132123,18.5731062 11.3619306,18.5731062 C11.1479347,18.5731062 10.4654375,18.577548 9.72834047,19.0474879 C9.63939567,19.0999009 9.58743782,19.1381002 9.51874777,19.1798529 C9.48264147,19.2029501 9.39193538,19.2429261 9.35230651,19.1221098 L9.1022043,18.4220858 L9.1022043,18.4220858 Z" id="path3009" fill="#FFFFFF" transform="translate(11.236939, 20.571017) scale(1, -1) translate(-11.236939, -20.571017) "></path>
                        <path d="M27.6670102,18.4220858 C27.628262,18.3199249 27.6811005,18.2986044 27.6934295,18.2808373 C27.8096741,18.1955552 27.9276801,18.1342587 28.0465667,18.0658553 C28.6771061,17.7282803 29.2724198,17.6296728 29.8950335,17.6296728 C31.1631574,17.6296728 31.9504509,18.310153 31.9504509,19.4054951 L31.9504509,19.4268157 C31.9504509,20.4395407 31.0618836,20.8073198 30.227916,21.0729381 L30.1195971,21.1084723 C29.490819,21.3145707 28.9483437,21.4922418 28.9483437,21.9097688 L28.9483437,21.9319777 C28.9483437,22.2890965 29.2653747,22.5520497 29.7567727,22.5520497 C30.3027705,22.5520497 30.9509227,22.3690485 31.3683468,22.1362994 C31.3683468,22.1362994 31.490756,22.0563474 31.5356688,22.1762754 C31.5603267,22.240237 31.7716807,22.8141145 31.7936967,22.8762994 C31.8174741,22.9438144 31.7752033,22.9935623 31.7320518,23.020213 C31.2556247,23.3124819 30.5969048,23.5123618 29.9152882,23.5123618 L29.7884758,23.5114735 C28.6277902,23.5114735 27.8175999,22.8043426 27.8175999,21.7907292 L27.8175999,21.7694087 C27.8175999,20.7007172 28.7114511,20.3542586 29.5489413,20.112626 L29.6836795,20.0708733 C30.2939641,19.8816536 30.8205878,19.7190846 30.8205878,19.2855672 L30.8205878,19.2642466 C30.8205878,18.8680402 30.4780182,18.5731062 29.9267365,18.5731062 C29.7127406,18.5731062 29.0302434,18.577548 28.2931464,19.0474879 C28.2042016,19.0999009 28.1513631,19.1363235 28.0844343,19.1798529 C28.0615376,19.1949549 27.9540994,19.2367076 27.9171124,19.1221098 L27.6670102,18.4220858 L27.6670102,18.4220858 Z" id="path3013" fill="#FFFFFF" transform="translate(29.801745, 20.571017) scale(1, -1) translate(-29.801745, -20.571017) "></path>
                        <path d="M40.3406789,20.5637336 C40.3406789,19.94455 40.2261955,19.4568429 40.0007512,19.112161 C39.7779489,18.7710326 39.4406632,18.6049101 38.9704005,18.6049101 C38.4992573,18.6049101 38.1637328,18.7701442 37.9444531,19.112161 C37.7225314,19.4559545 37.6098093,19.94455 37.6098093,20.5637336 C37.6098093,21.1820289 37.7225314,21.6688477 37.9444531,22.0099761 C38.1637328,22.3475511 38.4992573,22.5118969 38.9704005,22.5118969 C39.4406632,22.5118969 39.7779489,22.3475511 40.0016319,22.0099761 C40.2261955,21.6688477 40.3406789,21.1820289 40.3406789,20.5637336 M41.3992101,21.7114887 C41.2952944,22.0659425 41.1332563,22.3786436 40.9174991,22.6389317 C40.7017419,22.9001081 40.428743,23.10976 40.1046669,23.2625571 C39.7814715,23.4144659 39.399273,23.4917528 38.9704005,23.4917528 C38.5406474,23.4917528 38.158449,23.4144659 37.8352535,23.2625571 C37.5111774,23.10976 37.2381785,22.9001081 37.0215407,22.6389317 C36.8066641,22.3777552 36.6446261,22.0650541 36.5398297,21.7114887 C36.4367947,21.3588117 36.3848368,20.9732654 36.3848368,20.5637336 C36.3848368,20.1542018 36.4367947,19.7677673 36.5398297,19.4159786 C36.6446261,19.0624131 36.8057835,18.7497121 37.0224213,18.4885356 C37.2381785,18.2273591 37.5120581,18.0185956 37.8352535,17.8702403 C38.1593296,17.7218849 38.5406474,17.6463747 38.9704005,17.6463747 C39.399273,17.6463747 39.7805908,17.7218849 40.1046669,17.8702403 C40.4278624,18.0185956 40.7017419,18.2273591 40.9174991,18.4885356 C41.1332563,18.7488237 41.2952944,19.0615248 41.3992101,19.4159786 C41.5031258,19.7686556 41.5550836,20.1550902 41.5550836,20.5637336 C41.5550836,20.9723771 41.5031258,21.3588117 41.3992101,21.7114887" id="path3017" fill="#FFFFFF" transform="translate(38.969960, 20.569064) scale(1, -1) translate(-38.969960, -20.569064) "></path>
                        <path d="M50.0917631,18.7620584 C50.0565374,18.8659959 49.9570249,18.8269083 49.9570249,18.8269083 C49.8029126,18.7673885 49.6391133,18.7123105 49.4647463,18.6847714 C49.2877373,18.6572324 49.0931155,18.6430187 48.8844034,18.6430187 C48.37187,18.6430187 47.9650136,18.7967042 47.6735212,19.1005217 C47.3811482,19.4043393 47.2173489,19.8955998 47.2191102,20.5600895 C47.2208715,21.1650595 47.3652967,21.6198974 47.625086,21.966356 C47.8831139,22.3110379 48.2758801,22.4878206 48.7998619,22.4878206 C49.2366601,22.4878206 49.5695426,22.4371843 49.9182767,22.3261399 C49.9182767,22.3261399 50.0019376,22.2897174 50.0415665,22.3998734 C50.1340339,22.6592732 50.2027239,22.8449394 50.3013558,23.1301015 C50.3295363,23.2109418 50.2608463,23.2455877 50.2361883,23.2553596 C50.0988082,23.3095493 49.7747321,23.3974965 49.5299137,23.4348074 C49.3009469,23.4703416 49.0332319,23.4889971 48.735575,23.4889971 C48.290851,23.4889971 47.8945623,23.4125985 47.5555153,23.2598014 C47.2173489,23.1078926 46.9302597,22.8982408 46.7030542,22.6370643 C46.4758487,22.3758878 46.3032429,22.0631868 46.1878789,21.7096213 C46.0733955,21.3569443 46.0152731,20.9696213 46.0152731,20.5600895 C46.0152731,19.6743993 46.2521657,18.9583849 46.7197864,18.4342552 C47.1882877,17.9083489 47.8919204,17.6409539 48.8095489,17.6409539 C49.3520241,17.6409539 49.9085896,17.7519983 50.3084009,17.9110139 C50.3084009,17.9110139 50.3850167,17.9483249 50.3515523,18.0380488 L50.0917631,18.7620584 L50.0917631,18.7620584 Z" id="path3021" fill="#FFFFFF" transform="translate(48.187643, 20.564975) scale(1, -1) translate(-48.187643, -20.564975) "></path>
                        <path d="M51.9438324,21.1583182 C51.9940289,21.5021117 52.0882576,21.7881621 52.2335634,22.0111393 C52.4528432,22.3496027 52.787487,22.5352689 53.2577496,22.5352689 C53.7280122,22.5352689 54.0388787,22.3487143 54.2616811,22.0111393 C54.4096288,21.7881621 54.4739157,21.4896747 54.4994543,21.1583182 L51.9438324,21.1583182 L51.9438324,21.1583182 Z M55.5077889,21.9143085 C55.4179635,22.2563254 55.1951611,22.6018956 55.0489746,22.7600228 C54.8182465,23.010539 54.5928023,23.185545 54.3691193,23.2832641 C54.0767463,23.4094106 53.726251,23.492916 53.3422912,23.492916 C52.8949253,23.492916 52.4889495,23.4174058 52.1595896,23.2610552 C51.829349,23.1047047 51.5519469,22.8914994 51.3344284,22.6258812 C51.1169099,22.3611513 50.9531106,22.0457851 50.8491949,21.6877779 C50.7443985,21.3315475 50.69156,20.9433362 50.69156,20.5338044 C50.69156,20.1171657 50.7461598,19.7289544 50.8544787,19.3798308 C50.9636783,19.0280421 51.1380453,18.7180061 51.3740572,18.4612714 C51.6091886,18.20276 51.9121293,18.000215 52.2749536,17.8589665 C52.635136,17.7186063 53.0728149,17.6457612 53.5756612,17.6466496 C54.6104151,17.650203 55.1555323,17.8829521 55.3800959,18.0082102 C55.4197248,18.0304191 55.4575923,18.0695067 55.4100377,18.1814395 L55.175787,18.8432642 C55.1405614,18.9418716 55.0410489,18.9054491 55.0410489,18.9054491 C54.7847822,18.8095067 54.4201965,18.6371657 53.5703774,18.6389425 C53.0146925,18.6398308 52.6025523,18.8050649 52.3445243,19.0635763 C52.0794512,19.3283062 51.9499969,19.7174058 51.9271002,20.2664094 L55.5104308,20.262856 C55.5104308,20.262856 55.6046595,20.2646327 55.6143465,20.3570217 C55.6178691,20.3961093 55.7376364,21.0996867 55.5077889,21.9143085 L55.5077889,21.9143085 Z" id="path3025" fill="#FFFFFF" transform="translate(53.170105, 20.569779) scale(1, -1) translate(-53.170105, -20.569779) "></path>
                        <path d="M23.2465415,21.1583182 C23.2976187,21.5021117 23.3909667,21.7881621 23.5362726,22.0111393 C23.7555524,22.3496027 24.0901962,22.5352689 24.5604588,22.5352689 C25.0307214,22.5352689 25.3415879,22.3487143 25.5652708,22.0111393 C25.712338,21.7881621 25.7766248,21.4896747 25.8021634,21.1583182 L23.2465415,21.1583182 L23.2465415,21.1583182 Z M26.8096174,21.9143085 C26.719792,22.2563254 26.4978703,22.6018956 26.3516838,22.7600228 C26.1209557,23.010539 25.8955114,23.185545 25.6718285,23.2832641 C25.3794555,23.4094106 25.0289601,23.492916 24.6450004,23.492916 C24.1985151,23.492916 23.7916587,23.4174058 23.4622987,23.2610552 C23.1320581,23.1047047 22.854656,22.8914994 22.6371375,22.6258812 C22.4196191,22.3611513 22.2558197,22.0457851 22.151904,21.6877779 C22.0479883,21.3315475 21.9942692,20.9433362 21.9942692,20.5338044 C21.9942692,20.1171657 22.0488689,19.7289544 22.1571879,19.3798308 C22.2663874,19.0280421 22.4407545,18.7180061 22.6767664,18.4612714 C22.9118977,18.20276 23.2148384,18.000215 23.5776628,17.8589665 C23.9378452,17.7186063 24.375524,17.6457612 24.8783704,17.6466496 C25.9131243,17.650203 26.4582414,17.8829521 26.682805,18.0082102 C26.7224339,18.0304191 26.7603015,18.0695067 26.7127468,18.1814395 L26.4793768,18.8432642 C26.4432705,18.9418716 26.343758,18.9054491 26.343758,18.9054491 C26.0874913,18.8095067 25.7237863,18.6371657 24.8722059,18.6389425 C24.3174017,18.6398308 23.9052614,18.8050649 23.6472334,19.0635763 C23.3821603,19.3283062 23.252706,19.7174058 23.2298093,20.2664094 L26.81314,20.262856 C26.81314,20.262856 26.9073686,20.2646327 26.9170557,20.3570217 C26.9205783,20.3961093 27.0403455,21.0996867 26.8096174,21.9143085 L26.8096174,21.9143085 Z" id="path3029" fill="#FFFFFF" transform="translate(24.472755, 20.569779) scale(1, -1) translate(-24.472755, -20.569779) "></path>
                        <path d="M15.5012104,18.7848901 C15.3611883,18.8977112 15.3418142,18.9261386 15.2942596,18.9989837 C15.2238083,19.1100281 15.187702,19.2681554 15.187702,19.4689237 C15.187702,19.7869549 15.2916177,20.0152622 15.5073749,20.1689477 C15.5047329,20.1680593 15.8155994,20.4398961 16.5465319,20.4301242 C17.059946,20.4230173 17.5187603,20.3466188 17.5187603,20.3466188 L17.5187603,18.7031614 L17.5196409,18.7031614 C17.5196409,18.7031614 17.0643492,18.604554 16.5518158,18.5734615 C15.8226445,18.5290438 15.4985684,18.7857784 15.5012104,18.7848901 M16.9269691,21.324698 C16.7816632,21.3353582 16.5932059,21.3415767 16.3677617,21.3415767 C16.0604178,21.3415767 15.7636416,21.3024891 15.4853588,21.2269789 C15.2053148,21.1514687 14.9534513,21.0333174 14.7368135,20.8769669 C14.519295,20.719728 14.3440473,20.5189597 14.2172349,20.2808805 C14.0904225,20.0428012 14.0261357,19.762081 14.0261357,19.4476032 C14.0261357,19.1277953 14.0807355,18.84974 14.189935,18.6223211 C14.2991346,18.3940137 14.4567694,18.2039057 14.6575557,18.0573271 C14.8565807,17.9107485 15.1022797,17.8032575 15.3876076,17.7384075 C15.6685323,17.6735576 15.9873245,17.6406884 16.3360586,17.6406884 C16.7032861,17.6406884 17.0696331,17.6708925 17.4245316,17.732189 C17.7759076,17.7925972 18.207422,17.8805444 18.3271893,17.9080834 C18.4460759,17.9365108 18.5781721,17.9729333 18.5781721,17.9729333 C18.6671169,17.9951422 18.6600718,18.0910846 18.6600718,18.0910846 L18.6583105,21.3966548 C18.6583105,22.1215527 18.4663306,22.6590077 18.0885354,22.9921409 C17.7125014,23.3243858 17.1585779,23.492285 16.4426162,23.492285 C16.1740205,23.492285 15.7416255,23.4549741 15.4827169,23.4025611 C15.4827169,23.4025611 14.6998265,23.249764 14.3775117,22.9956943 C14.3775117,22.9956943 14.3070604,22.9512766 14.3458086,22.8517808 L14.5994334,22.1641938 C14.6311365,22.0753582 14.7165587,22.1055623 14.7165587,22.1055623 C14.7165587,22.1055623 14.7438586,22.1162226 14.7755617,22.134878 C15.4651041,22.5133174 16.3369392,22.5017688 16.3369392,22.5017688 C16.7244215,22.5017688 17.0220784,22.4235935 17.2228647,22.2681313 C17.4183671,22.1171109 17.5178796,21.8888036 17.5178796,21.407315 L17.5178796,21.2545179 C17.2096551,21.2989357 16.9269691,21.324698 16.9269691,21.324698" id="path3033" fill="#FFFFFF" transform="translate(16.343170, 20.566487) scale(1, -1) translate(-16.343170, -20.566487) "></path>
                        <path d="M45.828042,23.1351791 C45.8553419,23.2169078 45.7981002,23.2559954 45.7743228,23.264879 C45.7135586,23.2888646 45.4088566,23.3537145 45.1737253,23.3688166 C44.7237174,23.3963556 44.4736152,23.319957 44.2499322,23.2186845 C44.0280105,23.117412 43.7814309,22.9539546 43.6440508,22.7682884 L43.6440508,23.2080242 C43.6440508,23.2693208 43.6008994,23.3181803 43.5410157,23.3181803 L42.6225066,23.3181803 C42.5626229,23.3181803 42.5194715,23.2693208 42.5194715,23.2080242 L42.5194715,17.8165958 C42.5194715,17.7561876 42.5687874,17.7064397 42.628671,17.7064397 L43.5700769,17.7064397 C43.6299605,17.7064397 43.6783958,17.7561876 43.6783958,17.8165958 L43.6783958,20.5100891 C43.6783958,20.8716497 43.7180247,21.232322 43.7972824,21.4588526 C43.8747789,21.6827181 43.9804559,21.8621659 44.1107909,21.9909774 C44.2420065,22.1189006 44.3908349,22.2086245 44.5537536,22.2592607 C44.7201948,22.3107854 44.9042489,22.3276641 45.0345839,22.3276641 C45.2221606,22.3276641 45.4282307,22.2788046 45.4282307,22.2788046 C45.4969207,22.2708094 45.535669,22.3134504 45.5585656,22.3765237 C45.6202106,22.5417577 45.7945776,23.0365717 45.828042,23.1351791" id="path3037" fill="#FFFFFF" transform="translate(44.177366, 20.540464) scale(1, -1) translate(-44.177366, -20.540464) "></path>
                        <path d="M36.9915069,25.8425207 C36.8770235,25.8780549 36.7731078,25.9020405 36.637489,25.9278028 C36.5001089,25.9526768 36.3363096,25.9651137 36.1504942,25.9651137 C35.502342,25.9651137 34.9915699,25.7803358 34.6331487,25.4161101 C34.2764889,25.0536612 34.0343125,24.5019925 33.9127839,23.7762062 L33.8687518,23.5319085 L33.055039,23.5319085 C33.055039,23.5319085 32.9564071,23.5354619 32.9352717,23.4270826 L32.8022949,22.6746456 C32.7926078,22.6035772 32.8234303,22.558271 32.9185395,22.558271 L33.7102363,22.558271 L32.9070912,18.0347657 C32.8445657,17.67054 32.772353,17.3711643 32.6922147,17.1437453 C32.6138376,16.9198798 32.5372217,16.7519806 32.4421124,16.6293876 C32.3505257,16.5121247 32.2642228,16.4250659 32.1145138,16.3744296 C31.9912239,16.3326769 31.84856,16.3131331 31.6926864,16.3131331 C31.6063836,16.3131331 31.4910195,16.3273468 31.4055973,16.3451139 C31.3210557,16.3619926 31.276143,16.3806481 31.2118561,16.4081871 C31.2118561,16.4081871 31.1193888,16.4437213 31.0824018,16.350444 C31.0533406,16.2731571 30.8419867,15.6877309 30.8164481,15.6157742 C30.7917901,15.5438174 30.8270158,15.487851 30.8719285,15.4709722 C30.9776055,15.4336613 31.0559826,15.4087874 31.1995271,15.3741415 C31.3985521,15.3270587 31.5667547,15.3243936 31.7243895,15.3243936 C32.0537495,15.3243936 32.3549289,15.3714764 32.6041505,15.4620887 C32.8542527,15.5535893 33.0726518,15.7126049 33.266393,15.9275869 C33.475105,16.160336 33.6063206,16.4037453 33.7313717,16.7368786 C33.8555422,17.0655701 33.9620998,17.4742135 34.0466414,17.950372 L34.8541898,22.558271 L36.0342495,22.558271 C36.0342495,22.558271 36.133762,22.5547176 36.1540168,22.6639853 L36.2878743,23.4155339 C36.2966807,23.4874907 36.2667389,23.5319085 36.170749,23.5319085 L35.0250343,23.5319085 C35.0311987,23.5576708 35.0831566,23.9645375 35.2143722,24.3474187 C35.2707333,24.5099877 35.3764103,24.6423526 35.4653551,24.7329649 C35.5534192,24.8218004 35.654693,24.8848737 35.7656538,24.9212962 C35.8792566,24.9586071 36.0087109,24.9763743 36.1504942,24.9763743 C36.2579325,24.9763743 36.3644901,24.9639373 36.4446285,24.9470585 C36.5555894,24.9230729 36.5987408,24.910636 36.627802,24.9017524 C36.7449273,24.8662182 36.7607788,24.900864 36.7836755,24.9577188 L37.0575551,25.7163742 C37.0857356,25.7981029 37.0161649,25.8327488 36.9915069,25.8425207" id="path3041" fill="#FFFFFF" transform="translate(33.936244, 20.644754) scale(1, -1) translate(-33.936244, -20.644754) "></path>
                        <path d="M20.9836451,15.5501216 C20.9836451,15.4897134 20.9404937,15.4408539 20.88061,15.4408539 L19.9303978,15.4408539 C19.8705141,15.4408539 19.8282433,15.4897134 19.8282433,15.5501216 L19.8282433,23.2645992 C19.8282433,23.3250074 19.8705141,23.3738669 19.9303978,23.3738669 L20.88061,23.3738669 C20.9404937,23.3738669 20.9836451,23.3250074 20.9836451,23.2645992 L20.9836451,15.5501216 L20.9836451,15.5501216 Z" id="path3045" fill="#FFFFFF" transform="translate(20.405944, 19.407360) scale(1, -1) translate(-20.405944, -19.407360) "></path>
                    </g>
                </g>
            </g>
        </g>
    </g>
</svg>