<svg width="629" height="63" viewBox="0 0 629 33" version="1.1" xmlns="http://www.w3.org/2000/svg" xmlns:xlink="http://www.w3.org/1999/xlink" xmlns:sketch="http://www.bohemiancoding.com/sketch/ns">
    <title>icon-millisecondsmatter</title>
    <desc>Created with Sketch.</desc>
    <defs></defs>
  <g transform="translate(-21 -16)" fill="none" fill-rule="evenodd">
    <use xlink:href="#a"/>
    <path d="M61.944 35.096h-8.96l-2.432 10.112H59v5.376h-9.728L46.264 63h-5.76l3.136-12.416h-9.28L31.352 63h-5.76l3.072-12.416h-7.232v-5.376h8.512l2.432-10.112h-8v-4.992h9.28l3.008-12.544h5.76l-3.136 12.544h9.28l3.008-12.544h5.76l-3.072 12.544h7.68v4.992zM44.92 45.208l2.432-10.112h-9.28L35.64 45.208h9.28zM119.736 63h-7.04V44.248c0-3.1146822-.522661-5.3973261-1.568-6.848s-2.52799-2.176-4.448-2.176c-2.005343 0-3.839992.7359926-5.504 2.208-1.6640083 1.4720074-2.858663 3.3813216-3.584 5.728V63h-7.04V44.248c0-3.1573491-.5013283-5.4506595-1.504-6.88-1.0026717-1.4293405-2.4853235-2.144-4.448-2.144-1.9626765 0-3.7866582.7253261-5.472 2.176-1.6853418 1.4506739-2.890663 3.3493216-3.616 5.696V63h-7.04V29.528h6.4v6.72c1.3226733-2.3466784 3.0613226-4.149327 5.216-5.408s4.6186528-1.888 7.392-1.888c2.8160141 0 5.0133254.7253261 6.592 2.176 1.5786746 1.4506739 2.5813312 3.2639891 3.008 5.44 1.408007-2.474679 3.178656-4.3626602 5.312-5.664s4.543987-1.952 7.232-1.952c1.962676 0 3.59466.3733296 4.896 1.12 1.30134.7466704 2.335996 1.7386605 3.104 2.976.768004 1.2373395 1.311998 2.6773251 1.632 4.32.320002 1.6426749.48 3.3813242.48 5.216V63zm7.872 0V29.528h7.04V63h-7.04zm0-38.976V16.28h7.04v7.744h-7.04zm15.36-7.744h7.04v36.864c0 1.2373395.319997 2.2079965.96 2.912.640003.7040035 1.535994 1.056 2.688 1.056.469336 0 1.023997-.0746659 1.664-.224.640003-.1493341 1.237331-.3519987 1.792-.608l1.024 5.696c-1.024005.4693357-2.239993.8426653-3.648 1.12-1.408007.2773347-2.666661.416-3.776.416-2.432012 0-4.33066-.6613267-5.696-1.984-1.36534-1.3226733-2.048-3.1999878-2.048-5.632V16.28zm19.072 0h7.04v36.864c0 1.2373395.319997 2.2079965.96 2.912.640003.7040035 1.535994 1.056 2.688 1.056.469336 0 1.023997-.0746659 1.664-.224.640003-.1493341 1.237331-.3519987 1.792-.608l1.024 5.696c-1.024005.4693357-2.239993.8426653-3.648 1.12-1.408007.2773347-2.666661.416-3.776.416-2.432012 0-4.33066-.6613267-5.696-1.984-1.36534-1.3226733-2.048-3.1999878-2.048-5.632V16.28zM181.048 63V29.528h7.04V63h-7.04zm0-38.976V16.28h7.04v7.744h-7.04zm27.84 39.616c-1.36534 0-2.741326-.1066656-4.128-.32-1.386674-.2133344-2.751993-.5226646-4.096-.928s-2.623994-.8959971-3.84-1.472c-1.216006-.5760029-2.293329-1.226663-3.232-1.952l2.944-4.736c4.09602 2.858681 8.170646 4.288 12.224 4.288 2.133344 0 3.81866-.4053293 5.056-1.216s1.856-1.9626592 1.856-3.456c0-1.408007-.693326-2.4426634-2.08-3.104-1.386674-.6613366-3.594652-1.354663-6.624-2.08-2.090677-.5120026-3.882659-1.034664-5.376-1.568-1.493341-.533336-2.709329-1.1306634-3.648-1.792-.938671-.6613366-1.621331-1.4506621-2.048-2.368-.426669-.9173379-.64-2.0159936-.64-3.296 0-1.7066752.34133-3.2213267 1.024-4.544.68267-1.3226733 1.610661-2.4426621 2.784-3.36 1.173339-.9173379 2.559992-1.6106643 4.16-2.08 1.600008-.4693357 3.317324-.704 5.152-.704 2.432012 0 4.778655.3839962 7.04 1.152 2.261345.7680038 4.287991 1.8133267 6.08 3.136l-3.008 4.288c-3.200016-2.3893453-6.613315-3.584-10.24-3.584-1.792009 0-3.30666.3733296-4.544 1.12-1.23734.7466704-1.856 1.9306586-1.856 3.552 0 .6826701.127999 1.2586643.384 1.728.256001.4693357.671997.874665 1.248 1.216.576003.341335 1.333329.6506653 2.272.928.938671.2773347 2.09066.586665 3.456.928 2.304012.5546694 4.287992 1.1093306 5.952 1.664 1.664008.5546694 3.039995 1.2053296 4.128 1.952 1.088005.7466704 1.887997 1.6213283 2.4 2.624s.768 2.207993.768 3.616c0 1.5786746-.319997 3.0079936-.96 4.288-.640003 1.2800064-1.546661 2.3679955-2.72 3.264-1.173339.8960045-2.602658 1.5893309-4.288 2.08-1.685342.4906691-3.55199.736-5.6.736zm34.752 0c-2.60268 0-4.970656-.4586621-7.104-1.376-2.133344-.9173379-3.957326-2.1653254-5.472-3.744-1.514674-1.5786746-2.687996-3.4133229-3.52-5.504-.832004-2.0906771-1.248-4.3093216-1.248-6.656s.415996-4.5759894 1.248-6.688c.832004-2.1120106 2.005326-3.967992 3.52-5.568 1.514674-1.600008 3.338656-2.8586621 5.472-3.776 2.133344-.9173379 4.522653-1.376 7.168-1.376 2.60268 0 4.959989.4693286 7.072 1.408 2.112011.9386714 3.914659 2.1866589 5.408 3.744 1.493341 1.5573411 2.634663 3.3706563 3.424 5.44.789337 2.0693437 1.184 4.2346554 1.184 6.496 0 .5120026-.021333.9919978-.064 1.44-.042667.4480022-.085333.8213318-.128 1.12h-26.816c.128001 1.4933408.479997 2.8373274 1.056 4.032s1.322662 2.229329 2.24 3.104c.917338.874671 1.962661 1.5466643 3.136 2.016 1.173339.4693357 2.399994.704 3.68.704.938671 0 1.866662-.1173322 2.784-.352.917338-.2346678 1.759996-.5759978 2.528-1.024.768004-.4480022 1.450664-.9919968 2.048-1.632.597336-.6400032 1.066665-1.3439962 1.408-2.112l6.016 1.728c-1.152006 2.5173459-3.06132 4.575992-5.728 6.176-2.66668 1.600008-5.770649 2.4-9.312 2.4zm10.176-19.904c-.128001-1.408007-.479997-2.7093274-1.056-3.904s-1.311996-2.2079958-2.208-3.04c-.896004-.8320042-1.941327-1.4826643-3.136-1.952s-2.453327-.704-3.776-.704-2.570661.2346643-3.744.704c-1.173339.4693357-2.207996 1.1199958-3.104 1.952-.896004.8320042-1.621331 1.8453274-2.176 3.04-.554669 1.1946726-.895999 2.495993-1.024 3.904h20.224zm10.56 2.496c0-2.3466784.405329-4.5653229 1.216-6.656.810671-2.0906771 1.973326-3.9253254 3.488-5.504 1.514674-1.5786746 3.338656-2.8266621 5.472-3.744 2.133344-.9173379 4.522653-1.376 7.168-1.376 3.456017 0 6.431988.7573258 8.928 2.272 2.496012 1.5146742 4.36266 3.5306541 5.6 6.048l-6.848 2.176c-.810671-1.408007-1.89866-2.5066627-3.264-3.296-1.36534-.7893373-2.879992-1.184-4.544-1.184-1.408007 0-2.719994.2773306-3.936.832-1.216006.5546694-2.271996 1.3333283-3.168 2.336-.896004 1.0026717-1.599997 2.1866598-2.112 3.552-.512003 1.3653402-.768 2.8799917-.768 4.544 0 1.6213414.266664 3.1253264.8 4.512.533336 1.3866736 1.258662 2.5919949 2.176 3.616.917338 1.0240051 1.983994 1.8239971 3.2 2.4 1.216006.5760029 2.50666.864 3.872.864.853338 0 1.706662-.1173322 2.56-.352.853338-.2346678 1.631996-.5653312 2.336-.992.704004-.4266688 1.322664-.9173306 1.856-1.472s.927999-1.1519968 1.184-1.792l6.912 2.048c-1.109339 2.5173459-2.96532 4.575992-5.568 6.176-2.60268 1.600008-5.674649 2.4-9.216 2.4-2.60268 0-4.970656-.4693286-7.104-1.408-2.133344-.9386714-3.957326-2.207992-5.472-3.808-1.514674-1.600008-2.687996-3.4453229-3.52-5.536-.832004-2.0906771-1.248-4.3093216-1.248-6.656zm52.608 17.408c-2.645347 0-5.023989-.4693286-7.136-1.408-2.112011-.9386714-3.914659-2.1973254-5.408-3.776-1.493341-1.5786746-2.645329-3.4239894-3.456-5.536-.810671-2.1120106-1.216-4.3199885-1.216-6.624 0-2.3040115.405329-4.5119894 1.216-6.624.810671-2.1120106 1.973326-3.9573254 3.488-5.536 1.514674-1.5786746 3.327989-2.8373286 5.44-3.776 2.112011-.9386714 4.46932-1.408 7.072-1.408 2.60268 0 4.959989.4693286 7.072 1.408 2.112011.9386714 3.925326 2.1973254 5.44 3.776 1.514674 1.5786746 2.677329 3.4239894 3.488 5.536.810671 2.1120106 1.216 4.3199885 1.216 6.624 0 2.3040115-.405329 4.5119894-1.216 6.624-.810671 2.1120106-1.973326 3.9573254-3.488 5.536-1.514674 1.5786746-3.327989 2.8373286-5.44 3.776-2.112011.9386714-4.46932 1.408-7.072 1.408zM307 46.36c0 1.6213414.255997 3.1146598.768 4.48.512003 1.3653402 1.215996 2.5493283 2.112 3.552s1.951994 1.7919971 3.168 2.368c1.216006.5760029 2.527993.864 3.936.864s2.719994-.2879971 3.936-.864c1.216006-.5760029 2.271996-1.3759949 3.168-2.4s1.599997-2.2186598 2.112-3.584c.512003-1.3653402.768-2.8586586.768-4.48 0-1.5786746-.255997-3.0613264-.768-4.448-.512003-1.3866736-1.215996-2.5919949-2.112-3.616-.896004-1.0240051-1.951994-1.8239971-3.168-2.4-1.216006-.5760029-2.527993-.864-3.936-.864-1.36534 0-2.655994.2986637-3.872.896-1.216006.5973363-2.271996 1.4079949-3.168 2.432s-1.610664 2.2293264-2.144 3.616-.8 2.8693254-.8 4.448zM370.36 63h-7.04V44.248c0-3.1573491-.511995-5.4506595-1.536-6.88-1.024005-1.4293405-2.49599-2.144-4.416-2.144-1.024005 0-2.058661.1919981-3.104.576-1.045339.3840019-2.015996.9279965-2.912 1.632-.896004.7040035-1.695996 1.5359952-2.4 2.496-.704004.9600048-1.247998 2.0159942-1.632 3.168V63h-7.04V29.528h6.4v6.72c1.280006-2.2613446 3.135988-4.0426602 5.568-5.344 2.432012-1.3013398 5.119985-1.952 8.064-1.952 2.005343 0 3.65866.362663 4.96 1.088 1.30134.725337 2.32533 1.717327 3.072 2.976s1.269332 2.7093251 1.568 4.352c.298668 1.6426749.448 3.3813242.448 5.216V63zm21.824.64c-2.304012 0-4.426657-.4586621-6.368-1.376-1.941343-.9173379-3.615993-2.1653254-5.024-3.744-1.408007-1.5786746-2.506663-3.4133229-3.296-5.504-.789337-2.0906771-1.184-4.3306547-1.184-6.72 0-2.3893453.37333-4.6399894 1.12-6.752.74667-2.1120106 1.781327-3.9466589 3.104-5.504 1.322673-1.5573411 2.911991-2.7946621 4.768-3.712 1.856009-.9173379 3.871989-1.376 6.048-1.376 2.60268 0 4.92799.6399936 6.976 1.92 2.04801 1.2800064 3.647994 2.9439898 4.8 4.992V16.28h7.04v38.4c0 1.4506739.68266 2.2186662 2.048 2.304V63c-.725337.1280006-1.365331.2133331-1.92.256-.554669.0426669-1.066664.064-1.536.064-2.645347-.2560013-4.138665-1.4719891-4.48-3.648l-.128-2.752c-1.280006 2.1760109-2.986656 3.8399942-5.12 4.992s-4.415988 1.728-6.848 1.728zm1.792-6.016c.896004 0 1.834662-.170665 2.816-.512.981338-.341335 1.898662-.8106637 2.752-1.408.853338-.5973363 1.599997-1.3013293 2.24-2.112.640003-.8106707 1.087999-1.6853286 1.344-2.624V42.2c-.384002-1.0240051-.91733-1.973329-1.6-2.848-.68267-.874671-1.461329-1.6426634-2.336-2.304-.874671-.6613366-1.802662-1.1733315-2.784-1.536-.981338-.3626685-1.962662-.544-2.944-.544-1.493341 0-2.847994.3199968-4.064.96-1.216006.6400032-2.261329 1.493328-3.136 2.56-.874671 1.066672-1.546664 2.2933264-2.016 3.68s-.704 2.8053261-.704 4.256c0 1.5360077.266664 2.9866598.8 4.352.533336 1.3653402 1.258662 2.5493283 2.176 3.552.917338 1.0026717 2.015994 1.8026637 3.296 2.4 1.280006.5973363 2.666659.896 4.16.896zM431.8 63.64c-1.36534 0-2.741326-.1066656-4.128-.32-1.386674-.2133344-2.751993-.5226646-4.096-.928s-2.623994-.8959971-3.84-1.472c-1.216006-.5760029-2.293329-1.226663-3.232-1.952l2.944-4.736c4.09602 2.858681 8.170646 4.288 12.224 4.288 2.133344 0 3.81866-.4053293 5.056-1.216s1.856-1.9626592 1.856-3.456c0-1.408007-.693326-2.4426634-2.08-3.104-1.386674-.6613366-3.594652-1.354663-6.624-2.08-2.090677-.5120026-3.882659-1.034664-5.376-1.568-1.493341-.533336-2.709329-1.1306634-3.648-1.792-.938671-.6613366-1.621331-1.4506621-2.048-2.368-.426669-.9173379-.64-2.0159936-.64-3.296 0-1.7066752.34133-3.2213267 1.024-4.544.68267-1.3226733 1.610661-2.4426621 2.784-3.36 1.173339-.9173379 2.559992-1.6106643 4.16-2.08 1.600008-.4693357 3.317324-.704 5.152-.704 2.432012 0 4.778655.3839962 7.04 1.152 2.261345.7680038 4.287991 1.8133267 6.08 3.136l-3.008 4.288c-3.200016-2.3893453-6.613315-3.584-10.24-3.584-1.792009 0-3.30666.3733296-4.544 1.12-1.23734.7466704-1.856 1.9306586-1.856 3.552 0 .6826701.127999 1.2586643.384 1.728.256001.4693357.671997.874665 1.248 1.216.576003.341335 1.333329.6506653 2.272.928.938671.2773347 2.09066.586665 3.456.928 2.304012.5546694 4.287992 1.1093306 5.952 1.664 1.664008.5546694 3.039995 1.2053296 4.128 1.952 1.088005.7466704 1.887997 1.6213283 2.4 2.624s.768 2.207993.768 3.616c0 1.5786746-.319997 3.0079936-.96 4.288-.640003 1.2800064-1.546661 2.3679955-2.72 3.264-1.173339.8960045-2.602658 1.5893309-4.288 2.08-1.685342.4906691-3.55199.736-5.6.736zm70.72-.64h-7.04V44.248c0-3.1146822-.522661-5.3973261-1.568-6.848s-2.52799-2.176-4.448-2.176c-2.005343 0-3.839992.7359926-5.504 2.208-1.664008 1.4720074-2.858663 3.3813216-3.584 5.728V63h-7.04V44.248c0-3.1573491-.501328-5.4506595-1.504-6.88-1.002672-1.4293405-2.485324-2.144-4.448-2.144-1.962676 0-3.786658.7253261-5.472 2.176-1.685342 1.4506739-2.890663 3.3493216-3.616 5.696V63h-7.04V29.528h6.4v6.72c1.322673-2.3466784 3.061323-4.149327 5.216-5.408 2.154677-1.258673 4.618653-1.888 7.392-1.888 2.816014 0 5.013325.7253261 6.592 2.176 1.578675 1.4506739 2.581331 3.2639891 3.008 5.44 1.408007-2.474679 3.178656-4.3626602 5.312-5.664s4.543987-1.952 7.232-1.952c1.962676 0 3.59466.3733296 4.896 1.12 1.30134.7466704 2.335996 1.7386605 3.104 2.976.768004 1.2373395 1.311998 2.6773251 1.632 4.32.320002 1.6426749.48 3.3813242.48 5.216V63zm16.896.64c-1.621341 0-3.125326-.266664-4.512-.8-1.386674-.533336-2.581328-1.2693286-3.584-2.208-1.002672-.9386714-1.791997-2.0479936-2.368-3.328-.576003-1.2800064-.864-2.6666592-.864-4.16 0-1.5786746.34133-3.0079936 1.024-4.288.68267-1.2800064 1.653327-2.3893286 2.912-3.328s2.751991-1.6639974 4.48-2.176c1.728009-.5120026 3.637323-.768 5.728-.768 1.578675 0 3.135992.1386653 4.672.416 1.536008.2773347 2.92266.6506643 4.16 1.12v-2.304c0-2.474679-.703993-4.4053264-2.112-5.792s-3.434653-2.08-6.08-2.08c-1.792009 0-3.551991.3306634-5.28.992-1.728009.6613366-3.509324 1.6106605-5.344 2.848l-2.176-4.48c4.309355-2.9013478 8.78931-4.352 13.44-4.352 4.608023 0 8.191987 1.1733216 10.752 3.52 2.560013 2.3466784 3.84 5.7173114 3.84 10.112V54.68c0 .8106707.149332 1.386665.448 1.728.298668.341335.810663.5333331 1.536.576V63c-.68267.1280006-1.311997.2133331-1.888.256-.576003.0426669-1.098664.064-1.568.064-1.36534-.0853338-2.399996-.4479968-3.104-1.088-.704004-.6400032-1.141332-1.493328-1.312-2.56l-.192-2.112c-1.493341 1.9626765-3.338656 3.4666614-5.536 4.512-2.197344 1.0453386-4.554654 1.568-7.072 1.568zm1.92-5.184c1.706675 0 3.317326-.3093302 4.832-.928 1.514674-.6186698 2.698662-1.4826611 3.552-2.592.896004-.7680038 1.344-1.5786624 1.344-2.432v-4.416c-1.194673-.4693357-2.463993-.8319987-3.808-1.088-1.344007-.2560013-2.655994-.384-3.936-.384-2.517346 0-4.575992.5439946-6.176 1.632-1.600008 1.0880054-2.4 2.527991-2.4 4.32 0 1.6640083.61866 3.0613277 1.856 4.192s2.81599 1.696 4.736 1.696zm43.584 2.816c-.938671.4266688-2.186659.906664-3.744 1.44-1.557341.533336-3.253324.8-5.088.8-1.109339 0-2.143995-.1493318-3.104-.448-.960005-.2986682-1.81333-.7466637-2.56-1.344s-1.333331-1.3759952-1.76-2.336c-.426669-.9600048-.64-2.1226598-.64-3.488V34.968h-4.48v-5.44h4.48V18.52h7.04v11.008h7.296v5.44h-7.296v18.688c0 1.1946726.34133 2.058664 1.024 2.592.68267.533336 1.514662.8 2.496.8s1.919996-.170665 2.816-.512c.896004-.341335 1.557331-.6186656 1.984-.832l1.536 5.568zm23.104 0c-.938671.4266688-2.186659.906664-3.744 1.44-1.557341.533336-3.253324.8-5.088.8-1.109339 0-2.143995-.1493318-3.104-.448-.960005-.2986682-1.81333-.7466637-2.56-1.344s-1.333331-1.3759952-1.76-2.336c-.426669-.9600048-.64-2.1226598-.64-3.488V34.968h-4.48v-5.44h4.48V18.52h7.04v11.008h7.296v5.44h-7.296v18.688c0 1.1946726.34133 2.058664 1.024 2.592.68267.533336 1.514662.8 2.496.8s1.919996-.170665 2.816-.512c.896004-.341335 1.557331-.6186656 1.984-.832l1.536 5.568zm19.84 2.368c-2.60268 0-4.970656-.4586621-7.104-1.376-2.133344-.9173379-3.957326-2.1653254-5.472-3.744-1.514674-1.5786746-2.687996-3.4133229-3.52-5.504-.832004-2.0906771-1.248-4.3093216-1.248-6.656s.415996-4.5759894 1.248-6.688c.832004-2.1120106 2.005326-3.967992 3.52-5.568 1.514674-1.600008 3.338656-2.8586621 5.472-3.776 2.133344-.9173379 4.522653-1.376 7.168-1.376 2.60268 0 4.959989.4693286 7.072 1.408 2.112011.9386714 3.914659 2.1866589 5.408 3.744 1.493341 1.5573411 2.634663 3.3706563 3.424 5.44.789337 2.0693437 1.184 4.2346554 1.184 6.496 0 .5120026-.021333.9919978-.064 1.44-.042667.4480022-.085333.8213318-.128 1.12h-26.816c.128001 1.4933408.479997 2.8373274 1.056 4.032s1.322662 2.229329 2.24 3.104c.917338.874671 1.962661 1.5466643 3.136 2.016 1.173339.4693357 2.399994.704 3.68.704.938671 0 1.866662-.1173322 2.784-.352.917338-.2346678 1.759996-.5759978 2.528-1.024.768004-.4480022 1.450664-.9919968 2.048-1.632.597336-.6400032 1.066665-1.3439962 1.408-2.112l6.016 1.728c-1.152006 2.5173459-3.06132 4.575992-5.728 6.176-2.66668 1.600008-5.770649 2.4-9.312 2.4zm10.176-19.904c-.128001-1.408007-.479997-2.7093274-1.056-3.904s-1.311996-2.2079958-2.208-3.04c-.896004-.8320042-1.941327-1.4826643-3.136-1.952s-2.453327-.704-3.776-.704-2.570661.2346643-3.744.704c-1.173339.4693357-2.207996 1.1199958-3.104 1.952-.896004.8320042-1.621331 1.8453274-2.176 3.04-.554669 1.1946726-.895999 2.495993-1.024 3.904h20.224zm31.424-8.128c-2.73068.0853338-5.141323.7146608-7.232 1.888-2.090677 1.1733392-3.605329 2.8479891-4.544 5.024V63h-7.04V29.528h6.528v7.488c1.194673-2.3040115 2.719991-4.1813261 4.576-5.632 1.856009-1.4506739 3.829323-2.176 5.92-2.176h1.056c.277335 0 .522666.0213331.736.064v6.336z" fill="#B6B8BE" mask="url(#b)"/>
  </g>
</svg>
