<svg xmlns="http://www.w3.org/2000/svg"><g id="Page-1" fill="none" fill-rule="evenodd"><g id="Desktop-HD" fill="currentColor"><g id="github"><g id="icon-github"><path d="M20.498 0C9.1794 0 0 9.178 0 20.5006c0 9.0573 5.8733 16.7403 14.0195 19.451 1.0256.189 1.3994-.4442 1.3994-.9878 0-.487-.0177-1.7757-.0278-3.486C9.689 36.716 8.486 32.7293 8.486 32.7293c-.9326-2.3685-2.2767-2.999-2.2767-2.999-1.8613-1.271.141-1.246.141-1.246 2.0576.1448 3.14 2.113 3.14 2.113 1.8285 3.1325 4.7985 2.2276 5.9663 1.7028.1863-1.3238.716-2.2274 1.3013-2.7396-4.552-.5172-9.338-2.2766-9.338-10.132 0-2.2376.799-4.0687 2.1105-5.5008-.2115-.5185-.915-2.6038.2013-5.4253 0 0 1.7204-.5512 5.6368 2.1016 1.6347-.4556 3.389-.682 5.132-.691 1.7418.009 3.4948.2354 5.132.691 3.914-2.653 5.6318-2.1017 5.6318-2.1017 1.1188 2.8215.4153 4.9068.205 5.4253 1.314 1.432 2.1068 3.2632 2.1068 5.5008 0 7.8756-4.7935 9.6085-9.3593 10.1157.735.633 1.3905 1.884 1.3905 3.7956 0 2.741-.025 4.9522-.025 5.6242 0 .5487.37 1.1867 1.4094.9866C35.1316 37.2334 41 29.5554 41 20.5006 41 9.178 31.8207 0 20.498 0" id="Fill-50"/></g></g></g></g></svg>