<?xml version="1.0" encoding="UTF-8" standalone="no"?>
<svg width="30px" height="47px" viewBox="0 0 30 47" version="1.1" xmlns="http://www.w3.org/2000/svg" xmlns:xlink="http://www.w3.org/1999/xlink" xmlns:sketch="http://www.bohemiancoding.com/sketch/ns">
    <!-- Generator: Sketch 3.5.2 (25235) - http://www.bohemiancoding.com/sketch -->
    <title>icon-talks</title>
    <desc>Created with Sketch.</desc>
    <defs></defs>
    <g id="Page-1" stroke="none" stroke-width="1" fill="none" fill-rule="evenodd" sketch:type="MSPage">
        <g id="Desktop-HD" sketch:type="MSArtboardGroup" transform="translate(-580.000000, -1181.000000)" fill="#FFFFFF">
            <g id="talks" sketch:type="MSLayerGroup" transform="translate(485.000000, 1139.000000)">
                <path d="M110.976431,80.4141414 L110.976431,86.956229 L117.323232,86.956229 C118.787879,86.956229 118.787879,88.9090909 117.323232,88.9090909 L102.676768,88.9090909 C101.212121,88.9090909 101.212121,86.956229 102.676768,86.956229 L109.023569,86.956229 L109.023569,80.4141414 C101.212121,79.8771044 95.5,73.7744108 95.5,65.962963 C95.5,64.4983165 97.5505051,64.4983165 97.5505051,65.962963 C97.5505051,72.7979798 103.116162,78.4124579 110,78.4124579 C116.883838,78.4124579 122.449495,72.7979798 122.449495,65.962963 C122.449495,64.4983165 124.5,64.4983165 124.5,65.962963 C124.5,73.7744108 118.787879,79.8771044 110.976431,80.4141414 L110.976431,80.4141414 Z M119.276094,51.3653199 L119.276094,65.9141414 C119.276094,71.0892256 115.175084,75.2390572 110,75.2390572 C104.824916,75.2390572 100.723906,71.040404 100.723906,65.9141414 L100.723906,51.3653199 C100.723906,46.2390572 104.824916,42.040404 110,42.040404 C115.175084,42.040404 119.276094,46.2390572 119.276094,51.3653199 L119.276094,51.3653199 Z M117.323232,65.9141414 L117.323232,63.5218855 L112.929293,63.5218855 C111.952862,63.5218855 111.952862,62.0572391 112.929293,62.0572391 L117.323232,62.0572391 L117.323232,59.6161616 L112.929293,59.6161616 C111.952862,59.6161616 111.952862,58.1515152 112.929293,58.1515152 L117.323232,58.1515152 L117.323232,55.7104377 L112.929293,55.7104377 C111.952862,55.7104377 111.952862,54.2457912 112.929293,54.2457912 L117.323232,54.2457912 L117.323232,51.3653199 C117.323232,47.3619529 114.003367,44.0909091 110,44.0909091 C105.996633,44.0909091 102.676768,47.3619529 102.676768,51.3653199 L102.676768,54.2457912 L107.070707,54.2457912 C108.047138,54.2457912 108.047138,55.7104377 107.070707,55.7104377 L102.676768,55.7104377 L102.676768,58.1515152 L107.070707,58.1515152 C108.047138,58.1515152 108.047138,59.6161616 107.070707,59.6161616 L102.676768,59.6161616 L102.676768,62.0572391 L107.070707,62.0572391 C108.047138,62.0572391 108.047138,63.5218855 107.070707,63.5218855 L102.676768,63.5218855 L102.676768,65.9141414 C102.676768,69.9175084 105.996633,73.1885522 110,73.1885522 C114.003367,73.1885522 117.323232,69.9175084 117.323232,65.9141414 L117.323232,65.9141414 Z" id="icon-talks" sketch:type="MSShapeGroup"></path>
            </g>
        </g>
    </g>
</svg>