<?xml version="1.0" encoding="UTF-8" standalone="no"?>
<svg width="47px" height="42px" viewBox="0 0 47 42" version="1.1" xmlns="http://www.w3.org/2000/svg" xmlns:xlink="http://www.w3.org/1999/xlink">
    <!-- Generator: Sketch 39.1 (31720) - http://www.bohemiancoding.com/sketch -->
    <title>community/icon-tshirt</title>
    <desc>Created with Sketch.</desc>
    <defs></defs>
    <g id="Page-1" stroke="none" stroke-width="1" fill="none" fill-rule="evenodd">
        <g id="tshirt" transform="translate(-85.000000, -39.000000)" fill="#FFFFFF">
            <path d="M131.101743,53.4971465 L122.844983,40.5344447 C122.693316,40.2962135 122.44256,40.1375605 122.16147,40.1023043 L115.649893,39.2793236 C115.291959,39.2339942 114.937563,39.3951654 114.737362,39.6958505 C113.512903,41.5382394 111.122629,42.683059 108.499292,42.683059 C105.875956,42.683059 103.485682,41.5387431 102.261222,39.6958505 C102.061527,39.3951654 101.707637,39.2339942 101.349197,39.2793236 L94.8376202,40.1023043 C94.5565304,40.1375605 94.3062796,40.2962135 94.1546125,40.5344447 L85.8978524,53.4971465 C85.6617572,53.8673367 85.7123129,54.3513541 86.0196917,54.6656381 L92.9958754,61.7989771 C93.1748426,61.981302 93.4205434,62.0845524 93.6768609,62.0845524 L93.682422,62.0845524 C93.9407618,62.0830414 94.1874737,61.9772728 94.3654298,61.7909185 L95.0165875,61.1099699 L95.0165875,79.244758 C95.0165875,79.7680609 95.4422666,80.1921428 95.967035,80.1921428 L121.032561,80.1921428 C121.557835,80.1921428 121.983514,79.7680609 121.983514,79.244758 L121.983514,61.1099699 L122.634166,61.7909185 C122.812628,61.9772728 123.059339,62.0830414 123.317679,62.0845524 C123.579558,62.0860633 123.823742,61.982813 124.00372,61.7989771 L130.979904,54.6656381 C131.287283,54.3513541 131.338344,53.8673367 131.101743,53.4971465 L131.101743,53.4971465 Z M123.330318,59.7727522 L122.33437,58.731183 L121.982503,50.4041694 C121.960764,49.8894287 121.529018,49.4890189 121.012338,49.4970774 C120.495659,49.508158 120.081608,49.9287142 120.081608,50.4439585 L120.081608,76.1119917 C119.819729,76.1124954 119.6079,76.3245363 119.6079,76.5849286 C119.6079,76.8463283 119.819729,77.0573619 120.081608,77.0578655 L120.081608,78.2973732 L96.9174825,78.2973732 L96.9174825,77.0276459 C97.1020109,76.9621701 97.235478,76.7914293 97.235478,76.5854323 C97.235478,76.3799389 97.1015053,76.2086945 96.9174825,76.1432187 L96.9174825,50.4444622 C96.9174825,49.9292179 96.5039367,49.5086616 95.9867517,49.4975811 C95.4569278,49.481464 95.038832,49.8899324 95.017093,50.4046731 L94.6652252,58.731183 L93.6692776,59.7727522 L87.9059255,53.8799282 L95.520628,41.9255541 L101.03019,41.2289921 C102.673251,43.3075976 105.47606,44.5768212 108.499798,44.5768212 C111.523535,44.5768212 114.325839,43.307094 115.9689,41.2289921 L121.478462,41.9255541 L129.093165,53.8799282 L123.330318,59.7727522 L123.330318,59.7727522 Z" id="community/icon-tshirt"></path>
        </g>
    </g>
</svg>