<?xml version="1.0" encoding="UTF-8" standalone="no"?>
<svg width="44px" height="44px" viewBox="0 0 44 44" version="1.1" xmlns="http://www.w3.org/2000/svg" xmlns:xlink="http://www.w3.org/1999/xlink" xmlns:sketch="http://www.bohemiancoding.com/sketch/ns">
    <!-- Generator: Sketch 3.5.2 (25235) - http://www.bohemiancoding.com/sketch -->
    <title>icon-zendesk</title>
    <desc>Created with Sketch.</desc>
    <defs></defs>
    <g id="Page-1" stroke="none" stroke-width="1" fill="none" fill-rule="evenodd" sketch:type="MSPage">
        <g id="Desktop-HD" sketch:type="MSArtboardGroup" transform="translate(-333.000000, -580.000000)" fill="#FFFFFF">
            <g id="zendesk" sketch:type="MSLayerGroup" transform="translate(244.000000, 535.000000)">
                <path d="M127.567467,70.9626667 C125.654293,72.0368 123.572231,72.54752 121.523947,72.54752 C120.189049,72.54752 118.867662,72.3259378 117.751644,71.8814222 C115.711467,73.7216356 113.515911,75.0105956 112.410702,75.6091378 C114.011769,78.1492267 116.557262,80.1015822 119.702649,80.8852267 C120.675449,81.1284267 121.652302,81.24192 122.61024,81.24192 C124.761209,81.24192 126.831111,80.6528356 128.590258,79.7057067 C128.851022,78.70048 128.980729,77.66688 128.980729,76.6224711 C128.980729,74.7011911 128.521351,72.7596444 127.567467,70.9626667 Z M125.074667,55.81536 C124.712569,58.2311467 123.666809,60.3794133 122.202204,61.9777778 C122.279218,62.4020267 122.331911,62.8668089 122.331911,63.3532089 C122.325156,66.1783822 120.867307,68.6360533 119.046009,70.61408 C119.567538,70.6789333 120.09312,70.7154133 120.614649,70.7154133 C123.211484,70.7154133 125.828587,69.8831289 128.043058,68.15776 C130.600711,66.15136 132.139627,63.3207822 132.584142,60.4348089 C130.861476,58.1689956 128.330844,56.5436089 125.511076,55.8342756 C125.365156,55.8032 125.231396,55.7451022 125.082773,55.7194311 L125.074667,55.81536 Z M123.152036,53.7495111 C123.152036,50.4960356 121.871182,47.5479111 119.866133,45.4131556 L119.69184,45.4131556 C116.813973,45.4131556 114.2928,46.4359467 112.00672,48.5044978 C114.191467,50.8270578 114.976462,53.77248 114.976462,56.7165511 C114.976462,56.9543467 114.968356,57.18944 114.9616,57.4177778 C115.454756,57.2934756 115.951964,57.2340267 116.441067,57.2340267 L116.570773,57.2340267 C118.450169,57.2718578 120.344427,58.2054756 121.43072,59.9646222 C122.519716,58.1460267 123.152036,56.0247822 123.152036,53.7495111 Z M101.43968,45.6279822 C101.259982,45.6279822 101.088391,45.6279822 101.024889,45.5928533 C99.0590222,47.7519289 97.8781511,50.6041244 97.8781511,53.71168 C97.8781511,53.7562667 97.8781511,53.7940978 97.8619378,53.8184178 C97.9984,53.8184178 98.1362133,53.8143644 98.2767289,53.8143644 C101.588302,53.8143644 104.618844,55.1330489 106.76576,57.2556444 C108.568142,57.3826489 110.412409,58.3392356 111.383858,60.2375467 C111.905387,59.2174578 112.679573,58.4716444 113.496996,58.0906311 C113.496996,57.95552 113.5024,57.8136533 113.5024,57.6744889 C113.5024,54.3480533 112.125618,51.0297244 109.447716,48.6585244 C107.145422,46.6183467 104.286471,45.6279822 101.43968,45.6279822 Z M105.190364,57.4880356 C105.190364,57.4880356 105.190364,57.4880356 105.187662,57.4880356 L105.187662,57.4907378 C105.187662,57.4880356 105.190364,57.4880356 105.190364,57.4880356 Z M104.816107,57.4258844 C103.006969,56.3706667 100.92896,55.77888 98.7469156,55.77888 C98.04704,55.77888 97.3336533,55.83968 96.6283733,55.9680356 C93.4221867,56.5436089 90.7415822,58.3270756 89,60.6726044 C89.4728889,63.5747911 91.0064,66.3067378 93.4829867,68.2374756 C95.2921244,65.81088 97.8268089,64.2435911 100.446613,63.7409778 C100.446613,63.6180267 100.441209,63.4802133 100.441209,63.3505067 C100.435804,60.0632533 102.478684,58.0271289 104.816107,57.4258844 Z M94.2071822,70.99104 C93.2492444,72.7934222 92.7925689,74.7214578 92.7925689,76.6278756 C92.7925689,77.7682133 92.9533511,78.8936889 93.2019556,79.8962133 C94.9570489,80.8582044 96.9418311,81.37568 98.9928178,81.37568 C99.9615644,81.37568 100.943822,81.2594844 101.934187,81.0176356 C101.630187,79.9218844 101.482916,78.8288356 101.482916,77.7438933 C101.482916,75.1632711 102.301689,72.6866844 103.752782,70.6356978 C102.354382,69.1265067 101.168107,67.3403378 100.680356,65.3204267 C97.9916444,66.3161956 95.6501689,68.2631467 94.2071822,70.99104 Z M110.940693,88.4257778 C113.646969,87.2557156 115.933049,85.1074489 117.201742,82.2295822 C114.115804,80.9514311 111.83648,78.5518578 110.682631,75.78208 C109.69632,75.2727111 107.150827,73.8472889 104.830969,71.7138844 C103.954098,73.4149333 103.487964,75.3118933 103.487964,77.2466844 C103.487964,78.8855822 103.813582,80.5528533 104.537778,82.1471644 C105.867271,85.1263644 108.253333,87.2921956 110.940693,88.4257778 Z" id="icon-zendesk" sketch:type="MSShapeGroup"></path>
            </g>
        </g>
    </g>
</svg>