<?xml version="1.0" encoding="UTF-8" standalone="no"?>
<svg width="49px" height="48px" viewBox="0 0 49 48" version="1.1" xmlns="http://www.w3.org/2000/svg" xmlns:xlink="http://www.w3.org/1999/xlink" xmlns:sketch="http://www.bohemiancoding.com/sketch/ns">
    <!-- Generator: Sketch 3.5.2 (25235) - http://www.bohemiancoding.com/sketch -->
    <title>icon-superbowl</title>
    <desc>Created with Sketch.</desc>
    <defs></defs>
    <g id="Page-1" stroke="none" stroke-width="1" fill="none" fill-rule="evenodd" sketch:type="MSPage">
        <g id="Desktop-HD" sketch:type="MSArtboardGroup" transform="translate(-571.000000, -881.000000)" fill="#FFFFFF">
            <g id="supersearch" sketch:type="MSLayerGroup" transform="translate(484.000000, 838.000000)">
                <path d="M99.1,91 L99.1,91 C95.9,91 92.9,90.5 90.1,89.4 C89.8,89.3 89.6,89.1 89.5,88.8 C85.4,78.2 89.3,64.4 99.2,54.4 C106.5,47.2 115.7,43 124.6,43 C127.8,43 130.8,43.5 133.6,44.6 C133.8,44.8 134,45 134.1,45.2 C138.2,55.8 134.3,69.6 124.4,79.6 C117.2,86.8 108,91 99.1,91 L99.1,91 Z M107.317396,70.2132728 L108.954027,68.5664266 L106.9075,66.5199 L108.3217,65.1057 L110.363827,67.1478266 L111.992901,65.5085835 L110.0044,63.51952 L111.4188,62.10552 L113.402702,64.0899828 L115.050949,62.4314473 L112.99126,60.33354 L114.41846,58.93234 L116.460908,61.0126869 L118.85998,58.59864 L120.27858,60.00844 L117.862162,62.4399415 L119.81308,64.42706 L118.38588,65.82826 L116.452202,63.858702 L114.816716,65.5043971 L116.792,67.48024 L115.3776,68.89424 L113.406915,66.9229978 L111.77804,68.5620403 L113.69566,70.47966 L112.28146,71.89386 L110.36824,69.9806403 L108.71865,71.6405275 L110.6395,73.59702 L109.2123,74.99822 L107.30869,73.0592879 L104.98225,75.40025 L103.56365,73.99045 L105.907437,71.6320333 L103.81768,69.5035 L105.24488,68.1023 L107.317396,70.2132728 Z M101.205644,88.8387033 C108.853594,88.305917 116.681495,84.4269327 123,78.2 C129.441363,71.688622 133.235606,63.5105386 133.696293,55.8280223 C130.968179,55.5262625 128.385886,54.2858857 126.4,52.3 C123.994288,50.0724885 123.176354,47.2098656 122.88516,45.0561133 C115.101742,45.5621267 107.033398,49.4666017 100.7,55.8 C94.2402646,62.3299499 90.4920722,70.5361263 90.0438999,78.2377022 C92.9041311,78.4663545 95.6270041,79.7270041 97.7,81.8 C99.6227946,83.7227946 100.858105,86.1802993 101.205644,88.8387033 Z M99.197071,88.9009825 C99.164708,88.9007173 99.132351,88.9003898 99.1,88.9 C96.3,88.9 93.7,88.5 91.3,87.6 C90.4716315,85.2805682 90.0465773,82.7986905 90.0022992,80.2378899 C92.3556005,80.4373961 94.5247662,81.4247662 96.3,83.2 C97.8432967,84.7432967 98.8720147,86.7276611 99.197071,88.9009825 Z M133.740219,53.8255708 C133.696753,51.2423135 133.259073,48.7385866 132.4,46.4 C130.078593,45.5294723 127.57007,45.033176 124.874432,45.001605 C125.113982,46.8112206 125.894126,49.0807564 127.8,50.9 C129.484978,52.584978 131.52485,53.5601683 133.740219,53.8255708 Z" id="icon-superbowl" sketch:type="MSShapeGroup"></path>
            </g>
        </g>
    </g>
</svg>