<?xml version="1.0" encoding="UTF-8" standalone="no"?>
<svg width="71px" height="68px" viewBox="0 0 71 68" version="1.1" xmlns="http://www.w3.org/2000/svg" xmlns:xlink="http://www.w3.org/1999/xlink" xmlns:sketch="http://www.bohemiancoding.com/sketch/ns">
    <!-- Generator: Sketch 3.5.2 (25235) - http://www.bohemiancoding.com/sketch -->
    <title>icon-widget copy 3</title>
    <desc>Created with Sketch.</desc>
    <defs></defs>
    <g id="Page-1" stroke="none" stroke-width="1" fill="none" fill-rule="evenodd" sketch:type="MSPage">
        <g id="Desktop-HD" sketch:type="MSArtboardGroup" transform="translate(-60.000000, -341.000000)" fill="#FFFFFF">
            <g id="block1" sketch:type="MSLayerGroup" transform="translate(14.000000, 225.000000)">
                <g id="logo-is" transform="translate(36.705049, 109.375959)" sketch:type="MSShapeGroup">
                    <g id="icon-widget-copy-3" transform="translate(10.068712, 7.176152)">
                        <path d="M48.1218511,34.216646 C48.241728,33.5367899 48.0877366,32.8292608 47.7246956,32.2910453 L42.3106492,24.264614 C44.287292,22.2009066 45.611241,19.5479101 46.1119037,16.7085111 C47.4834373,8.9301575 42.5113538,1.55894508 34.9996918,0.234436389 C27.4880297,-1.0900723 20.2946964,4.13604892 18.9231628,11.9144025 C17.5516292,19.6927562 22.5237127,27.0639686 30.0353747,28.3884773 C32.777421,28.871974 35.6324561,28.488843 38.177337,27.2675599 L43.5949093,35.2739954 C43.9544245,35.8322067 44.5422995,36.2245093 45.1988458,36.3402762 C46.5505588,36.5786196 47.8750455,35.6163497 48.1218511,34.216646 Z M41.153457,15.8218308 C40.2825861,20.7607854 35.6925544,24.0955485 30.9229386,23.2545365 C26.1533229,22.4135246 22.9806601,17.709989 23.851531,12.7710344 C24.722402,7.8320798 29.3124337,4.49731674 34.0820495,5.33832868 C38.8516652,6.17934063 42.024328,10.8828762 41.153457,15.8218308 Z M30.0352347,49.4454533 C30.5233816,48.9573063 31.1912813,48.6776268 31.8403934,48.6663048 L41.5206305,48.4974601 C42.0773648,45.6945952 43.4911864,43.0883834 45.5299176,41.0496522 C51.1148925,35.4646773 60.0049061,35.3096158 65.3983925,40.7031022 C70.7918789,46.0965886 70.6368174,54.9866022 65.0518425,60.5715771 C59.4668676,66.156552 50.576854,66.3116135 45.1833676,60.9181271 C43.2145371,58.9492966 41.8907989,56.3908338 41.4315317,53.6056902 L31.7656519,53.7601776 C31.1021825,53.7858568 30.4436357,53.5293134 29.9722256,53.0579032 C29.0016754,52.087353 29.0302264,50.4504616 30.0352347,49.4454533 Z M49.0181178,44.6602727 C45.4718741,48.2065165 45.3729302,53.8791918 48.797586,57.3038477 C52.2222419,60.7285036 57.8949173,60.6295596 61.441161,57.0833159 C64.9874047,53.5370722 65.0863486,47.8643968 61.6616928,44.4397409 C58.2370369,41.0150851 52.5643615,41.114029 49.0181178,44.6602727 Z M28.0074068,31.4748283 C28.1744161,32.1446662 28.0701545,32.8612136 27.7455419,33.4234425 L22.9045793,41.8079866 C25.0203641,43.7287832 26.5261517,46.2829632 27.2236613,49.0805211 C29.1344444,56.7442537 24.6886625,64.4443452 17.2876915,66.2896145 C9.88672051,68.1348838 2.34635406,63.4232747 0.435570917,55.7595421 C-1.47521223,48.0958095 2.9705697,40.395718 10.3715407,38.5504487 C13.0731805,37.8768542 15.9479867,38.0598948 18.5718608,39.100681 L23.4177354,30.735838 C23.737436,30.153908 24.2965133,29.7215529 24.9433848,29.5602697 C26.2751791,29.2282161 27.663564,30.0957505 28.0074068,31.4748283 Z M22.3321472,50.3158199 C21.1188736,45.4496452 16.3074016,42.4431899 11.6080704,43.6148647 C6.90873925,44.7865396 4.07190697,49.6999313 5.28518059,54.566106 C6.4984542,59.4322807 11.3099261,62.438736 16.0092573,61.2670612 C20.7085885,60.0953863 23.5454208,55.1819946 22.3321472,50.3158199 Z" id="Icons/Search"></path>
                    </g>
                </g>
            </g>
        </g>
    </g>
</svg>