<?xml version="1.0" encoding="UTF-8" standalone="no"?>
<svg width="39px" height="39px" viewBox="0 0 39 39" version="1.1" xmlns="http://www.w3.org/2000/svg" xmlns:xlink="http://www.w3.org/1999/xlink" xmlns:sketch="http://www.bohemiancoding.com/sketch/ns">
    <!-- Generator: Sketch 3.5.2 (25235) - http://www.bohemiancoding.com/sketch -->
    <title>icon-index</title>
    <desc>Created with Sketch.</desc>
    <defs></defs>
    <g id="Page-1" stroke="none" stroke-width="1" fill="none" fill-rule="evenodd" sketch:type="MSPage">
        <g id="Desktop-HD" sketch:type="MSArtboardGroup" transform="translate(-805.000000, -1186.000000)" fill="#FFFFFF">
            <g id="datasets" sketch:type="MSLayerGroup" transform="translate(715.000000, 1139.000000)">
                <path d="M109.572913,56.7268293 C120.18731,56.7268293 128.791979,54.7212396 128.791979,52.2472193 C128.791979,49.7731989 120.18731,47.7676092 109.572913,47.7676092 C98.9585165,47.7676092 90.3538478,49.7731989 90.3538478,52.2472193 C90.3538478,54.7212396 98.9585165,56.7268293 109.572913,56.7268293 Z M128.791979,61.821789 C128.791979,64.2958093 120.18731,66.301399 109.572913,66.301399 C98.9585165,66.301399 90.3538478,64.2958093 90.3538478,61.821789 L90.3538478,55.7526399 C90.3538478,55.7526399 98.9585165,58.7872144 109.572913,58.7872144 C120.18731,58.7872144 128.791979,55.7526399 128.791979,55.7526399 L128.791979,61.821789 Z M128.791979,71.3963587 C128.791979,73.870379 120.18731,75.8759688 109.572913,75.8759688 C98.9585165,75.8759688 90.3538478,73.870379 90.3538478,71.3963587 L90.3538478,65.3272096 C90.3538478,65.3272096 98.9585165,68.3617842 109.572913,68.3617842 C120.18731,68.3617842 128.791979,65.3272096 128.791979,65.3272096 L128.791979,71.3963587 Z M128.791979,80.9709284 C128.791979,83.4449488 120.18731,85.4505385 109.572913,85.4505385 C98.9585165,85.4505385 90.3538478,83.4449488 90.3538478,80.9709284 L90.3538478,74.9017793 C90.3538478,74.9017793 98.9585165,77.9363539 109.572913,77.9363539 C120.18731,77.9363539 128.791979,74.9017793 128.791979,74.9017793 L128.791979,80.9709284 Z" id="icon-index" sketch:type="MSShapeGroup"></path>
            </g>
        </g>
    </g>
</svg>