<svg width="56" height="56" viewBox="0 0 56 56" xmlns="http://www.w3.org/2000/svg" xmlns:xlink="http://www.w3.org/1999/xlink"><defs><circle id="path-1" cx="28" cy="28" r="28"/></defs><g id="Symbols" fill="none" fill-rule="evenodd"><g id="community/card"><g id="Group-2" transform="translate(-83.000000, -55.000000) translate(83.000000, 55.000000)"><mask id="mask-2" fill="#fff"><use xlink:href="#path-1"/></mask><use id="Oval" fill="#D8D8D8" xlink:href="#path-1"/><g id="community/card/gradient/plugin" mask="url(#mask-2)" fill="#3369E6"><rect width="220" height="115" rx="4" transform="translate(-36.166667, -5.833333)" id="Mask"/></g><g id="community/card/logo/instantsearch.js" mask="url(#mask-2)" fill="#FFF"><g id="Group-2"><path d="M16 21.0826c0-2.2136 1.8-4.008 4.008-4.008h48.984c2.2135 0 4.008 1.8 4.008 4.008v48.9838c0 2.2136-1.8 4.008-4.008 4.008H20.008c-2.2135 0-4.008-1.8-4.008-4.008V21.0826zm37.9234 25.2802c.077-.4375-.022-.893-.2556-1.2393l-3.4844-5.1656c1.272-1.3283 2.1242-3.0357 2.4464-4.863.8827-5.006-2.3172-9.75-7.1516-10.6025-4.8344-.8524-9.464 2.511-10.3466 7.517-.8827 5.006 2.3173 9.75 7.1517 10.6024 1.7647.311 3.602.0645 5.24-.7215l3.4866 5.1528c.2313.3593.6097.6118 1.0322.6863.87.1534 1.7224-.466 1.8812-1.3668zm-11.6402 9.801c.314-.314.744-.494 1.1617-.5014l6.23-.1087c.3583-1.804 1.2682-3.4812 2.5803-4.7933 3.5944-3.5944 9.3158-3.6942 12.787-.223 3.471 3.4712 3.3713 9.1926-.223 12.787-3.5945 3.5944-9.316 3.6942-12.787.223-1.2672-1.267-2.119-2.9137-2.4147-4.706l-6.2208.0993c-.427.0165-.8508-.1486-1.1542-.452-.6246-.6246-.6062-1.678.0406-2.325zm-1.305-11.5656c.1074.431.0403.8923-.1686 1.254l-3.1156 5.3963c1.3617 1.2362 2.3308 2.88 2.7797 4.6805 1.2297 4.9322-1.6315 9.8878-6.3946 11.0754-4.763 1.1876-9.616-1.8447-10.8457-6.777-1.2297-4.9322 1.6315-9.8878 6.3947-11.0754 1.7387-.4335 3.589-.3157 5.2775.354l3.1188-5.3834c.2057-.3745.5655-.6527.9818-.7565.8573-.2136 1.7508.3447 1.972 1.2322zm13.522 8.486c-2.2823 2.2823-2.346 5.933-.142 8.137 2.204 2.2042 5.855 2.1405 8.1373-.1418 2.2823-2.2823 2.346-5.933.142-8.1372-2.2042-2.204-5.855-2.1403-8.1373.142zM37.3256 56.724c-.7808-3.1318-3.8774-5.0667-6.9018-4.3126-3.0244.754-4.8502 3.9162-4.0693 7.048.7808 3.1318 3.8774 5.0667 6.9018 4.3126 3.0244-.754 4.85-3.9162 4.0693-7.048zm12.113-22.1997c-.5604 3.1786-3.5145 5.3248-6.584 4.7835-3.0698-.5412-5.1116-3.5684-4.5512-6.747.5605-3.1786 3.5146-5.3248 6.5842-4.7835 3.0697.5412 5.1115 3.5683 4.551 6.747z" id="Combined-Shape"/></g></g><path d="M41.3918 6.8856C37.5205 4.425 32.9268 3 28 3 14.193 3 3 14.193 3 28c0 2.7183.4338 5.3352 1.236 7.7854 7.1874-14.6 20.8043-25.465 37.1558-28.8998z" id="Combined-Shape" fill="#FFF" opacity=".2895" mask="url(#mask-2)"/></g></g></g></svg>