<?xml version="1.0" encoding="UTF-8" standalone="no"?>
<svg width="41px" height="22px" viewBox="0 0 41 22" version="1.1" xmlns="http://www.w3.org/2000/svg" xmlns:xlink="http://www.w3.org/1999/xlink" xmlns:sketch="http://www.bohemiancoding.com/sketch/ns">
    <!-- Generator: Sketch 3.5.2 (25235) - http://www.bohemiancoding.com/sketch -->
    <title>icon-grader</title>
    <desc>Created with Sketch.</desc>
    <defs></defs>
    <g id="Page-1" stroke="none" stroke-width="1" fill="none" fill-rule="evenodd" sketch:type="MSPage">
        <g id="Desktop-HD" sketch:type="MSArtboardGroup" transform="translate(-752.000000, -268.000000)" fill="#F966A2">
            <g id="grader" sketch:type="MSLayerGroup" transform="translate(714.000000, 224.000000)">
                <path d="M38.4123815,65.9415875 L40.4901347,65.9415875 L40.4901347,64.8196007 C40.4901347,64.4431243 40.5050201,64.0697489 40.5279684,63.697614 L38.4123815,63.697614 L38.4123815,65.9415875 L38.4123815,65.9415875 Z M59.8051766,46.6649995 L59.8051766,44.5494125 L57.5618234,44.5494125 L57.5618234,46.6649995 C57.9333381,46.6426714 58.3067134,46.6271657 58.6838101,46.6271657 C59.0596664,46.6265455 59.4330417,46.6420511 59.8051766,46.6649995 L59.8051766,46.6649995 Z M50.5780917,48.5386987 L49.5187477,46.7040736 L47.5768237,47.8254401 L48.6374082,49.6619259 C49.2582532,49.2488561 49.9070084,48.8742403 50.5780917,48.5386987 L50.5780917,48.5386987 Z M43.525515,54.7731988 L41.6902697,53.7132345 L40.5689032,55.6551585 L42.4029081,56.7138823 C42.7378295,56.042799 43.1124453,55.3946641 43.525515,54.7731988 L43.525515,54.7731988 Z M76.8377912,63.697614 C76.8607395,64.0697489 76.8768653,64.442504 76.8768653,64.8196007 L76.8768653,65.9415875 L78.9546185,65.9415875 L78.9546185,63.6994747 L76.8384114,63.6994747 L76.8384114,63.697614 L76.8377912,63.697614 Z M69.7907965,47.8254401 L67.8482523,46.7040736 L66.7882881,48.5393189 C67.4606118,48.8748606 68.1087468,49.2494764 68.7302121,49.6625461 L69.7907965,47.8254401 L69.7907965,47.8254401 Z M73.8408647,54.7731988 C74.2539345,55.3940438 74.6291705,56.042799 74.9647122,56.7138823 L76.7993372,55.6545383 L75.6773505,53.7126143 L73.8408647,54.7731988 L73.8408647,54.7731988 Z M58.6838101,47.9860784 C49.4015252,47.9860784 41.8496675,55.5373158 41.8496675,64.8196007 L41.8496675,65.9415875 L75.5179527,65.9415875 L75.5179527,64.8196007 C75.5179527,55.537936 67.9660951,47.9860784 58.6838101,47.9860784 L58.6838101,47.9860784 Z M56.487594,63.697614 C56.9105873,62.7939464 57.8285201,62.1675193 58.890345,62.1675193 C59.9521699,62.1675193 60.8694824,62.7939464 61.293096,63.697614 L56.487594,63.697614 L56.487594,63.697614 Z M63.6499504,63.697614 C63.4210874,62.7275824 62.9038199,61.8691912 62.1899411,61.2154742 L65.8480272,54.674583 L63.8905976,53.5798862 L60.233752,60.1176762 C59.8070373,59.9961122 59.3561338,59.9254065 58.8891045,59.9254065 C56.5762861,59.9254065 54.6380835,61.5392316 54.1294991,63.697614 L44.1395376,63.697614 C44.714486,56.1755271 51.0153502,50.2288114 58.6838101,50.2288114 C66.35227,50.2288114 72.6518937,56.1749069 73.2274624,63.697614 L63.6499504,63.697614 L63.6499504,63.697614 Z" id="icon-grader" sketch:type="MSShapeGroup"></path>
            </g>
        </g>
    </g>
</svg>