<?xml version="1.0" encoding="UTF-8" standalone="no"?>
<svg width="100px" height="89px" viewBox="0 0 100 89" version="1.1" xmlns="http://www.w3.org/2000/svg" xmlns:xlink="http://www.w3.org/1999/xlink" xmlns:sketch="http://www.bohemiancoding.com/sketch/ns">
    <!-- Generator: Sketch 3.5.2 (25235) - http://www.bohemiancoding.com/sketch -->
    <title>noun_19162_cc</title>
    <desc>Created with Sketch.</desc>
    <defs></defs>
    <g id="Page-1" stroke="none" stroke-width="1" fill="none" fill-rule="evenodd" sketch:type="MSPage">
        <g id="noun_19162_cc" sketch:type="MSLayerGroup" fill="#FFFFFF">
            <path d="M100,79.609 C100,79.512 99.987,79.418 99.961,79.326 L94.046,58.184 C93.978,56.753 92.973,55.617 91.705,54.857 C92.784,54.012 93.499,52.758 93.499,51.367 L93.499,4.563 C93.499,2.09 91.287,0 88.671,0 L10.937,0 C8.25,0 5.979,2.09 5.979,4.563 L5.979,51.367 C5.979,52.843 6.799,54.171 8.022,55.012 C6.883,55.768 6.018,56.855 5.954,58.185 L0.039,79.326 C0.012,79.417 0,79.512 0,79.609 C0,79.879 0.033,80.139 0.078,80.392 C0.031,80.513 0,80.643 0,80.781 C0,83.2 1.875,87.206 4.201,88.548 C4.361,88.641 4.542,88.691 4.727,88.691 L95.272,88.691 C95.458,88.691 95.638,88.641 95.798,88.548 C98.236,87.142 100,82.783 100,80.53 C100,80.421 99.969,80.322 99.938,80.226 C99.967,80.022 100,79.821 100,79.609 L100,79.609 Z M10.937,53.823 C9.445,53.823 8.084,52.651 8.084,51.367 L8.084,4.563 C8.084,3.276 9.445,2.105 10.937,2.105 L88.671,2.105 C90.147,2.105 91.395,3.231 91.395,4.563 L91.395,51.367 C91.395,52.699 90.147,53.823 88.671,53.823 L88.241,53.823 L11.756,53.823 L10.937,53.823 L10.937,53.823 Z M94.962,86.584 L5.036,86.584 C4.234,86.015 3.466,84.889 2.913,83.707 C3.443,83.898 4.02,84.009 4.637,84.009 L95.362,84.009 C95.956,84.009 96.51,83.901 97.024,83.726 C96.473,84.917 95.725,86.034 94.962,86.584 L94.962,86.584 Z M95.361,81.905 L4.637,81.905 C3.219,81.905 2.177,81.003 2.109,79.741 L8.016,58.627 C8.043,58.534 8.055,58.439 8.055,58.343 C8.055,57.122 10.174,55.928 11.757,55.928 L88.242,55.928 C89.825,55.928 91.946,57.122 91.946,58.343 C91.946,58.44 91.958,58.534 91.985,58.627 L97.892,79.741 C97.823,81.002 96.781,81.905 95.361,81.905 L95.361,81.905 Z" id="Shape" sketch:type="MSShapeGroup"></path>
            <path d="M83.816,4.682 L15.795,4.682 C13.365,4.682 10.659,6.554 10.659,9.243 L10.659,46.685 C10.659,49.373 13.366,51.247 15.795,51.247 L23.412,51.247 L77.235,51.247 L83.816,51.247 C86.482,51.247 88.819,49.115 88.819,46.685 L88.819,9.243 C88.819,6.813 86.482,4.682 83.816,4.682 L83.816,4.682 Z M76.183,16.381 L24.464,16.381 L24.464,13.808 L76.182,13.808 L76.182,16.381 L76.183,16.381 Z M24.464,49.143 L24.464,18.486 L76.182,18.486 L76.182,49.143 L24.464,49.143 L24.464,49.143 Z M86.714,46.685 C86.714,47.971 85.333,49.143 83.817,49.143 L78.288,49.143 L78.288,12.755 C78.288,12.173 77.817,11.703 77.236,11.703 L23.412,11.703 C22.83,11.703 22.36,12.174 22.36,12.755 L22.36,49.143 L15.796,49.143 C14.267,49.143 12.764,47.926 12.764,46.685 L12.764,9.243 C12.764,8.004 14.266,6.787 15.796,6.787 L83.817,6.787 C85.334,6.787 86.714,7.958 86.714,9.243 L86.714,46.685 L86.714,46.685 Z" id="Shape" sketch:type="MSShapeGroup"></path>
            <g id="Group" transform="translate(12.000000, 60.000000)" sketch:type="MSShapeGroup">
                <path d="M71.085,9.967 L4.393,9.967 C3.811,9.967 3.341,9.496 3.341,8.915 C3.341,8.333 3.812,7.862 4.393,7.862 L71.085,7.862 C71.666,7.862 72.137,8.333 72.137,8.915 C72.137,9.497 71.666,9.967 71.085,9.967 L71.085,9.967 Z" id="Shape"></path>
                <path d="M69.915,2.947 L5.561,2.947 C4.979,2.947 4.509,2.476 4.509,1.894 C4.509,1.312 4.98,0.842 5.561,0.842 L69.915,0.842 C70.497,0.842 70.968,1.312 70.968,1.894 C70.968,2.476 70.497,2.947 69.915,2.947 L69.915,2.947 Z" id="Shape"></path>
                <path d="M73.426,18.158 L2.05,18.158 C1.468,18.158 0.998,17.687 0.998,17.106 C0.998,16.524 1.469,16.053 2.05,16.053 L73.425,16.053 C74.006,16.053 74.477,16.524 74.477,17.106 C74.478,17.687 74.007,18.158 73.426,18.158 L73.426,18.158 Z" id="Shape"></path>
            </g>
            <path d="M37.452,33.697 L28.092,33.697 C27.51,33.697 27.04,33.226 27.04,32.644 L27.04,23.284 C27.04,22.702 27.511,22.232 28.092,22.232 L37.452,22.232 C38.034,22.232 38.504,22.703 38.504,23.284 L38.504,32.644 C38.504,33.227 38.034,33.697 37.452,33.697 L37.452,33.697 Z M29.145,31.592 L36.4,31.592 L36.4,24.337 L29.145,24.337 L29.145,31.592 L29.145,31.592 Z" id="Shape" sketch:type="MSShapeGroup"></path>
            <path d="M37.452,47.737 L28.092,47.737 C27.51,47.737 27.04,47.266 27.04,46.685 L27.04,37.325 C27.04,36.743 27.511,36.273 28.092,36.273 L37.452,36.273 C38.034,36.273 38.504,36.744 38.504,37.325 L38.504,46.685 C38.504,47.266 38.034,47.737 37.452,47.737 L37.452,47.737 Z M29.145,45.632 L36.4,45.632 L36.4,38.377 L29.145,38.377 L29.145,45.632 L29.145,45.632 Z" id="Shape" sketch:type="MSShapeGroup"></path>
            <path d="M69.129,25.412 L43.521,25.412 C42.939,25.412 42.469,24.941 42.469,24.36 C42.469,23.778 42.94,23.308 43.521,23.308 L69.128,23.308 C69.71,23.308 70.181,23.778 70.181,24.36 C70.182,24.941 69.711,25.412 69.129,25.412 L69.129,25.412 Z" id="Shape" sketch:type="MSShapeGroup"></path>
            <path d="M69.129,31.376 L43.521,31.376 C42.939,31.376 42.469,30.905 42.469,30.324 C42.469,29.743 42.94,29.272 43.521,29.272 L69.128,29.272 C69.71,29.272 70.181,29.743 70.181,30.324 C70.181,30.905 69.711,31.376 69.129,31.376 L69.129,31.376 Z" id="Shape" sketch:type="MSShapeGroup"></path>
            <path d="M69.129,39.793 L43.521,39.793 C42.939,39.793 42.469,39.323 42.469,38.741 C42.469,38.159 42.94,37.689 43.521,37.689 L69.128,37.689 C69.71,37.689 70.181,38.16 70.181,38.741 C70.182,39.323 69.711,39.793 69.129,39.793 L69.129,39.793 Z" id="Shape" sketch:type="MSShapeGroup"></path>
            <path d="M69.129,45.757 L43.521,45.757 C42.939,45.757 42.469,45.287 42.469,44.705 C42.469,44.123 42.94,43.653 43.521,43.653 L69.128,43.653 C69.71,43.653 70.181,44.123 70.181,44.705 C70.182,45.287 69.711,45.757 69.129,45.757 L69.129,45.757 Z" id="Shape" sketch:type="MSShapeGroup"></path>
        </g>
    </g>
</svg>