<?xml version="1.0" encoding="UTF-8" standalone="no"?>
<svg width="34px" height="32px" viewBox="0 0 34 32" version="1.1" xmlns="http://www.w3.org/2000/svg" xmlns:xlink="http://www.w3.org/1999/xlink" xmlns:sketch="http://www.bohemiancoding.com/sketch/ns">
    <!-- Generator: Sketch 3.5.2 (25235) - http://www.bohemiancoding.com/sketch -->
    <title>icon-linkedin</title>
    <desc>Created with Sketch.</desc>
    <defs></defs>
    <g id="Page-1" stroke="none" stroke-width="1" fill="none" fill-rule="evenodd" sketch:type="MSPage">
        <g id="icons" sketch:type="MSArtboardGroup" transform="translate(-188.000000, -236.000000)" fill="#000000">
            <path d="M188,239.72752 C188,238.652129 188.379988,237.762038 189.139974,237.057221 C189.89996,236.352403 190.892355,236 192.117188,236 C193.34202,236 194.323347,236.352403 195.061198,237.057221 C195.799049,237.762038 196.175347,238.652129 196.190104,239.72752 C196.204861,240.78838 195.832252,241.674837 195.072266,242.386921 C194.312279,243.099004 193.312506,243.455041 192.072917,243.455041 L192.028646,243.455041 C190.81857,243.455041 189.844622,243.099004 189.106771,242.386921 C188.36892,241.674837 188,240.78838 188,239.72752 Z M188.420573,268 L188.420573,246.39782 L195.72526,246.39782 L195.72526,268 L188.420573,268 Z M199.753906,268 C199.78342,262.201606 199.798177,257.500472 199.798177,253.896458 C199.798177,250.292443 199.790799,248.141693 199.776042,247.444142 L199.753906,246.39782 L207.036458,246.39782 L207.036458,249.536785 L206.992188,249.536785 C207.287328,249.071751 207.589842,248.664852 207.89974,248.316076 C208.209637,247.967301 208.626516,247.589466 209.150391,247.182561 C209.674265,246.775656 210.316185,246.459583 211.076172,246.234332 C211.836158,246.009082 212.680985,245.896458 213.610677,245.896458 C216.134127,245.896458 218.163187,246.721154 219.697917,248.370572 C221.232647,250.01999 222,252.435951 222,255.618529 L222,268 L214.717448,268 L214.717448,256.446866 C214.717448,254.920973 214.418623,253.725708 213.820964,252.861035 C213.223304,251.996363 212.289937,251.564033 211.020833,251.564033 C210.091141,251.564033 209.31272,251.814711 208.685547,252.316076 C208.058374,252.817441 207.589845,253.438688 207.279948,254.179837 C207.117621,254.615806 207.036458,255.204356 207.036458,255.945504 L207.036458,268 L199.753906,268 Z" id="icon-linkedin" sketch:type="MSShapeGroup"></path>
        </g>
    </g>
</svg>