<?xml version="1.0" encoding="UTF-8" standalone="no"?>
<svg width="22px" height="25px" viewBox="0 0 22 25" version="1.1" xmlns="http://www.w3.org/2000/svg" xmlns:xlink="http://www.w3.org/1999/xlink" xmlns:sketch="http://www.bohemiancoding.com/sketch/ns">
    <!-- Generator: Sketch 3.5.2 (25235) - http://www.bohemiancoding.com/sketch -->
    <title>icon-calendar</title>
    <desc>Created with Sketch.</desc>
    <defs></defs>
    <g id="Page-1" stroke="none" stroke-width="1" fill="none" fill-rule="evenodd" sketch:type="MSPage">
        <g id="Desktop-HD" sketch:type="MSArtboardGroup" transform="translate(-431.000000, -3160.000000)" fill="#FFFFFF">
            <g id="events" sketch:type="MSLayerGroup" transform="translate(-1.000000, 2736.000000)">
                <g id="event" transform="translate(4.000000, 158.000000)" sketch:type="MSShapeGroup">
                    <path d="M448.705687,268.726482 L445.794162,268.726482 L445.794162,267.765932 C445.794162,267.116513 445.26334,266.584182 444.612411,266.584182 L443.740583,266.584182 C443.089655,266.584182 442.558832,267.116513 442.558832,267.765932 L442.558832,268.726482 L435.441168,268.726482 L435.441168,267.765932 C435.441168,267.116513 434.909742,266.584182 434.259417,266.584182 L433.387287,266.584182 C432.737264,266.584182 432.205838,267.116513 432.205838,267.765932 L432.205838,268.726482 L429.294011,268.726482 C428.582727,268.726482 428,269.30921 428,270.020493 L428,289.432169 C428,290.143755 428.582727,290.72618 429.294011,290.72618 L448.705687,290.72618 C449.417273,290.72618 450,290.143755 450,289.432169 L450,270.020493 C450,269.308908 449.417574,268.726482 448.705687,268.726482 L448.705687,268.726482 Z M448.058983,288.532276 L429.941017,288.532276 L429.941017,274.297248 L448.058682,274.297248 L448.058682,288.532276 L448.058983,288.532276 Z M439.769224,276.844531 L444.200187,276.844531 L444.200187,280.540067 L439.769224,280.540067 L439.769224,276.844531 Z" id="icon-calendar"></path>
                </g>
            </g>
        </g>
    </g>
</svg>