<?xml version="1.0" encoding="UTF-8" standalone="no"?>
<svg width="114px" height="97px" viewBox="0 0 114 97" version="1.1" xmlns="http://www.w3.org/2000/svg" xmlns:xlink="http://www.w3.org/1999/xlink" xmlns:sketch="http://www.bohemiancoding.com/sketch/ns">
    <!-- Generator: Sketch 3.5.2 (25235) - http://www.bohemiancoding.com/sketch -->
    <title>icon-react</title>
    <desc>Created with Sketch.</desc>
    <defs></defs>
    <g id="Page-1" stroke="none" stroke-width="1" fill="none" fill-rule="evenodd" sketch:type="MSPage">
        <g id="Desktop-HD" sketch:type="MSArtboardGroup" transform="translate(-298.000000, -1043.000000)" fill="#FFFFFF">
            <g id="expect-jsx" sketch:type="MSLayerGroup" transform="translate(244.000000, 988.000000)">
                <path d="M123.644678,83.9864888 C123.646333,83.9866182 123.647988,83.9867511 123.649644,83.9868878 C133.039813,84.7618715 141.671287,86.433812 148.743866,88.8205753 C149.329951,89.01836 149.644732,89.6538124 149.446947,90.239898 C149.249162,90.8259836 148.61371,91.1407638 148.027624,90.9429791 C145.85501,90.2097932 143.526939,89.5449777 141.068506,88.9544625 C139.608987,93.762051 137.629507,98.8044326 135.195438,103.910535 C135.211949,103.938272 135.227406,103.966951 135.241731,103.996546 C145.847487,125.906116 147.484754,145.146293 138.338943,150.22536 C132.537499,153.447258 123.76368,150.251327 114.147395,142.01223 C113.677667,141.609774 113.623133,140.902729 114.025589,140.433002 C114.428045,139.963274 115.13509,139.908739 115.604817,140.311195 C124.582792,148.003396 132.520145,150.894639 137.251406,148.267079 C142.68728,145.248302 143.477061,135.207048 139.837445,122.133947 C134.675434,123.363833 129.013708,124.262861 123.05363,124.797439 C117.580311,132.339685 111.667487,138.768725 105.903903,143.484237 C105.425159,143.875925 104.719535,143.805352 104.327847,143.326608 C103.93616,142.847863 104.006733,142.142239 104.485477,141.750551 C109.696328,137.487261 115.059737,131.754561 120.098376,125.030877 C116.792654,125.257072 113.407782,125.372907 109.976569,125.372907 C108.362187,125.372907 106.755416,125.347297 105.159002,125.296402 C104.540757,125.276692 104.055549,124.759528 104.075259,124.141283 C104.094969,123.523038 104.612134,123.03783 105.230378,123.05754 C106.803009,123.107676 108.385986,123.132907 109.976569,123.132907 C120.505001,123.132907 130.579051,122.025974 139.206439,119.981516 C137.895614,115.720543 136.137447,111.174466 133.93892,106.471878 C132.474924,109.374153 130.86851,112.287716 129.131568,115.181456 C128.238025,116.669896 127.323248,118.131627 126.389469,119.563514 C126.051586,120.081635 125.357657,120.227747 124.839535,119.889863 C124.321414,119.55198 124.175302,118.85805 124.513186,118.339929 C125.431753,116.931368 126.331787,115.493195 127.211022,114.028588 C132.401269,105.381655 136.400433,96.5657225 138.878852,88.455602 C134.659124,87.5449336 130.097856,86.8453557 125.311138,86.3842984 C126.731439,88.4764439 128.112731,90.638168 129.445092,92.8579891 C130.566319,94.7258107 131.63507,96.6050466 132.648169,98.4886762 C132.941167,99.0334399 132.73707,99.7125797 132.192307,100.005578 C131.647543,100.298575 130.968403,100.094479 130.675405,99.5497151 C129.679008,97.6971383 128.62767,95.8485214 127.524519,94.0108104 C122.473197,85.5949065 116.712282,78.0362604 110.812085,71.9899919 C107.531332,75.2524249 104.210117,79.0663308 100.972068,83.3532626 C104.264985,83.1289001 107.636334,83.0140206 111.053734,83.0140206 C113.028046,83.0140206 114.990178,83.0523728 116.934856,83.1284889 C117.552941,83.1526812 118.034387,83.6733504 118.010195,84.291436 C117.986002,84.9095217 117.465333,85.3909673 116.847247,85.366775 C114.931771,85.2918018 112.998848,85.2540206 111.053734,85.2540206 C107.011286,85.2540206 103.035941,85.4171717 99.1838093,85.733904 C98.8207387,86.0549737 98.2814419,86.1092158 97.8578888,85.8494312 C92.0718913,86.3821419 86.5829264,87.2641191 81.5855113,88.4621872 C82.9856302,92.6574736 84.7820775,97.041227 86.9351776,101.485844 C88.2412371,98.9579612 89.6539781,96.4246084 91.165563,93.9063135 C92.097177,92.3541186 93.0532792,90.8292662 94.0313847,89.3350448 C94.3701611,88.8175066 95.0643411,88.6725916 95.5818793,89.0113679 C96.0994174,89.3501443 96.2443324,90.0443243 95.9055561,90.5618625 C94.9434281,92.0316756 94.0028115,93.5318306 93.0861637,95.0590895 C87.9796466,103.566529 84.0259841,112.237999 81.5393065,120.239831 C86.2988153,121.346915 91.5969826,122.195456 97.2889594,122.715263 C94.818975,119.365766 92.4394242,115.796459 90.1980091,112.062124 C89.3630179,110.671364 88.5569288,109.27373 87.7811735,107.872316 C87.4816036,107.331139 87.6774653,106.649578 88.2186428,106.350008 C88.7598202,106.050439 89.4413806,106.2463 89.7409504,106.787478 C90.5039939,108.165927 91.2969743,109.540833 92.1185379,110.909228 C97.5981148,120.038538 103.910429,128.154998 110.319618,134.420437 C110.761937,134.852836 110.76998,135.561935 110.337581,136.004254 C109.905182,136.446574 109.196083,136.454616 108.753764,136.022217 C105.472769,132.814811 102.222013,129.139729 99.0937482,125.102916 C99.0400437,125.10653 98.9854176,125.106313 98.9301667,125.10201 C92.0503552,124.566213 85.6730279,123.568621 80.028748,122.194561 C79.9519364,122.18855 79.8745859,122.174474 79.7977346,122.151771 C79.755514,122.139299 79.714582,122.124558 79.6750322,122.107722 C64.6258661,118.381821 54.88,111.963001 54.88,104.495357 C54.88,97.7225371 62.7905943,91.7928702 75.9408912,87.905331 C76.5340729,87.7299724 77.1570979,88.068685 77.3324565,88.6618667 C77.507815,89.2550484 77.1691024,89.8780733 76.5759207,90.0534319 C64.2875553,93.6861638 57.12,99.0588594 57.12,104.495357 C57.12,110.521048 65.7837892,116.196986 79.3598863,119.705215 C80.9321517,114.61866 83.0809575,109.276419 85.7294999,103.879491 C85.6077764,103.781113 85.5048338,103.655518 85.4307642,103.506107 C81.4326047,95.4411692 78.5647549,87.5225433 77.0551884,80.4609377 C76.92588,79.8560456 77.3114168,79.2608585 77.9163089,79.1315501 C78.521201,79.0022417 79.1163882,79.3877784 79.2456965,79.9926706 C79.6816293,82.0319215 80.2353099,84.14825 80.9009326,86.3229841 C86.1500211,85.0549082 91.9236336,84.1309057 98.0078545,83.586627 C112.372619,63.9374599 128.776504,53.0391631 137.857354,58.0824783 C143.925998,61.452534 145.318479,71.0163661 142.255967,83.903839 C142.112958,84.5056394 141.509171,84.8775635 140.90737,84.7345547 C140.30557,84.591546 139.933646,83.987759 140.076655,83.3859586 C142.931548,71.3721761 141.678606,62.7667205 136.76982,60.0407607 C131.400702,57.058864 122.182247,61.221679 112.420794,70.4312385 C116.276925,74.3835172 120.067946,78.9594937 123.644678,83.9864888 Z M121.708314,104.631561 C121.708314,98.7265934 116.736347,93.9538144 110.619998,93.9538144 C104.503648,93.9538144 99.5316814,98.7265934 99.5316814,104.631561 C99.5316814,110.536528 104.503648,115.309307 110.619998,115.309307 C116.736347,115.309307 121.708314,110.536528 121.708314,104.631561 Z M160.395465,96.6339075 C163.32079,98.9985471 164.804927,101.49061 164.804927,103.980869 C164.804927,109.255499 158.056932,114.479718 146.375445,118.111627 C145.784776,118.295273 145.454819,118.922978 145.638464,119.513647 C145.82211,120.104316 146.449816,120.434273 147.040485,120.250627 C159.567931,116.3557 167.044927,110.567097 167.044927,103.980869 C167.044927,100.726169 165.21032,97.6456199 161.803617,94.8918657 C161.322565,94.5030154 160.617371,94.5777593 160.22852,95.0588109 C159.83967,95.5398624 159.914414,96.2450572 160.395465,96.6339075 Z M79.2967791,67.5628382 C79.8374566,63.3382642 81.4092446,60.4560789 83.9018732,59.0716754 C88.7981703,56.3525202 97.1190223,59.5486947 106.44151,67.8055163 C106.904562,68.215636 107.612407,68.1727261 108.022527,67.7096743 C108.432647,67.2466225 108.389737,66.5387772 107.926685,66.1286575 C97.9646675,57.3054117 88.8044138,53.7868093 82.8143045,57.1134123 C79.6173348,58.8890062 77.6982379,62.4080512 77.0749023,67.2784737 C76.9963772,67.8920281 77.4301041,68.4530693 78.0436585,68.5315944 C78.6572128,68.6101195 79.2182541,68.1763925 79.2967791,67.5628382 Z M91.9926623,148.373609 C88.4086091,149.613661 85.4141,149.596963 83.1538461,148.341892 C78.2588485,145.623354 76.9984624,137.058199 79.8246214,125.092499 C79.9668058,124.490503 79.5940551,123.887226 78.9920595,123.745042 C78.3900639,123.602858 77.7867868,123.975608 77.6446024,124.577604 C74.6122965,137.41611 76.0135653,146.938656 82.0663513,150.300196 C84.950237,151.901557 88.5881085,151.921843 92.7250836,150.490483 C93.3096424,150.288231 93.6195629,149.650394 93.4173104,149.065835 C93.2150578,148.481276 92.5772212,148.171356 91.9926623,148.373609 Z M104.075214,146.936432 C104.075214,144.427279 101.970831,142.407423 99.3919433,142.407423 C96.8130561,142.407423 94.7086726,144.427279 94.7086726,146.936432 C94.7086726,149.44582 96.8129992,151.465732 99.3919433,151.465732 C101.970887,151.465732 104.075214,149.44582 104.075214,146.936432 Z M159.092913,92.6683903 C159.092913,90.1592378 156.98853,88.1393814 154.409642,88.1393814 C151.830755,88.1393814 149.726372,90.1592378 149.726372,92.6683903 C149.726372,95.1777789 151.830698,97.1976912 154.409642,97.1976912 C156.988587,97.1976912 159.092913,95.1777789 159.092913,92.6683903 Z M81.8539752,73.2560192 C81.8539752,70.7468667 79.7495917,68.7270103 77.1707044,68.7270103 C74.5918171,68.7270103 72.4874336,70.7468667 72.4874336,73.2560192 C72.4874336,75.7654078 74.5917603,77.7853201 77.1707044,77.7853201 C79.7496485,77.7853201 81.8539752,75.7654078 81.8539752,73.2560192 Z M77.1707044,76.1053201 C75.5045592,76.1053201 74.1674336,74.8218329 74.1674336,73.2560192 C74.1674336,71.6904631 75.5045964,70.4070103 77.1707044,70.4070103 C78.8368124,70.4070103 80.1739752,71.6904631 80.1739752,73.2560192 C80.1739752,74.8218329 78.8368496,76.1053201 77.1707044,76.1053201 Z M154.409642,95.5176912 C152.743497,95.5176912 151.406372,94.234204 151.406372,92.6683903 C151.406372,91.1028342 152.743534,89.8193814 154.409642,89.8193814 C156.07575,89.8193814 157.412913,91.1028342 157.412913,92.6683903 C157.412913,94.234204 156.075788,95.5176912 154.409642,95.5176912 Z M99.3919433,149.785732 C97.7257981,149.785732 96.3886726,148.502245 96.3886726,146.936432 C96.3886726,145.370875 97.7258354,144.087423 99.3919433,144.087423 C101.058051,144.087423 102.395214,145.370875 102.395214,146.936432 C102.395214,148.502245 101.058089,149.785732 99.3919433,149.785732 Z M120.028314,104.631561 C120.028314,109.592975 115.823529,113.629307 110.619998,113.629307 C105.416467,113.629307 101.211681,109.592975 101.211681,104.631561 C101.211681,99.6701468 105.416467,95.6338144 110.619998,95.6338144 C115.823529,95.6338144 120.028314,99.6701468 120.028314,104.631561 Z M108.243894,104.297548 C108.243894,102.889059 109.453085,101.728247 110.967165,101.728247 C111.585723,101.728247 112.087165,101.226806 112.087165,100.608247 C112.087165,99.9896885 111.585723,99.4882474 110.967165,99.4882474 C108.235967,99.4882474 106.003894,101.631016 106.003894,104.297548 C106.003894,104.916107 106.505335,105.417548 107.123894,105.417548 C107.742453,105.417548 108.243894,104.916107 108.243894,104.297548 Z" id="icon-react" sketch:type="MSShapeGroup"></path>
            </g>
        </g>
    </g>
</svg>