<svg width="47" height="47" xmlns="http://www.w3.org/2000/svg"><g id="Page-1" fill="none" fill-rule="evenodd"><g id="Desktop-HD" fill="#FFF"><g id="datasets-copy"><path d="M37.721 27.8333c0 .0538-.0038.107-.011.16-.0025.0172-.0067.0352-.0096.0524-.0063.0344-.0123.0688-.0214.1025-.005.0202-.0126.0396-.019.059-.0098.03-.0194.06-.0314.09-.0082.02-.0184.0395-.0273.059-.013.0277-.0266.0545-.0415.0815-.011.0187-.0232.0375-.035.056-.0163.0256-.033.0503-.0514.0742-.0135.0186-.0274.0358-.0422.053-.0192.0224-.0394.045-.0607.0658-.016.0165-.032.033-.0486.048-.0222.02-.0457.0396-.0696.0582-.018.0143-.036.0285-.0552.042-.007.0045-.0133.0104-.0205.015L24.178 37.516c-.2053.137-.4414.2057-.678.2057-.236 0-.4726-.0688-.678-.2057L9.823 28.85c-.0068-.0046-.013-.0105-.0198-.015-.0192-.0135-.0375-.0277-.0555-.042-.024-.0186-.047-.038-.0692-.0583-.0168-.015-.033-.0314-.049-.048-.0213-.0208-.041-.0433-.061-.0657-.0142-.0172-.0283-.0344-.0418-.053-.018-.024-.0352-.0487-.0513-.0742-.0124-.0186-.024-.0374-.035-.056-.015-.027-.0285-.054-.0416-.0816-.0094-.0195-.0188-.039-.0273-.059-.012-.03-.022-.06-.0315-.09-.0067-.0194-.0134-.0388-.019-.059-.009-.0337-.015-.068-.0214-.1025-.003-.0172-.0074-.0352-.0097-.0524-.0072-.053-.0113-.1062-.0113-.16V19.167c0-.0537.004-.1068.0112-.1592.0022-.018.0067-.035.0096-.053.0064-.0345.0123-.069.0214-.1026.0056-.0202.0123-.0397.019-.059.0094-.03.0195-.06.0315-.0892.0085-.02.018-.0403.0273-.0598.013-.0277.0265-.0546.0415-.0808.0112-.0194.0227-.038.035-.057.0162-.0252.0334-.05.0514-.074.0135-.0178.0276-.0358.0418-.053.02-.0224.0397-.045.061-.066.016-.0163.0322-.0327.049-.0477.022-.0202.0453-.0397.0692-.0584.018-.0142.0363-.0284.0555-.042.0067-.0044.013-.0104.0198-.0148l12.999-8.666c.4108-.274.9452-.274 1.356 0l12.9987 8.666c.0072.0044.0135.0104.0205.015.0192.0134.037.0276.0552.0418.024.0187.0474.0382.0695.0584.0166.015.0324.0314.0485.0478.0213.021.0415.0435.0607.066.0148.017.0287.035.0422.053.0183.024.035.0487.0515.074.0116.0188.0238.0375.0348.057.015.026.0284.053.0415.0807.009.0195.019.0397.0273.0598.012.0293.0216.059.0314.089.0064.0195.014.039.019.0592.009.0336.015.068.0214.1025.003.018.007.0352.0097.053.0072.0525.011.1056.011.1594v8.6663zM23.5.5C10.7976.5.5 10.7974.5 23.5002.5 36.2032 10.7977 46.5 23.5 46.5c12.7027 0 23-10.297 23-22.9998S36.2027.5 23.5.5zm0 20.1088l-4.3228 2.8914L23.5 26.3917l4.3228-2.8915-4.323-2.8914zm1.2222 7.906v5.7006l9.5762-6.3836-4.2773-2.8608-5.2988 3.5437zm-12.0205-.683l9.576 6.3835v-5.7006l-5.2983-3.5437-4.2777 2.8607zm21.5967-8.663l-9.5762-6.3837v5.7006l5.299 3.5446 4.2772-2.8615zm-12.0206-.6832V12.785l-9.576 6.3837 4.2775 2.8615 5.2985-3.5446zM11.723 21.455v4.0905l3.058-2.0453-3.058-2.0453zm23.554 4.0905V21.455L32.2193 23.5l3.0575 2.0453z" id="icon-codepen"/></g></g></g></svg>