<svg width="21" height="11" viewBox="0 0 21 11" xmlns="http://www.w3.org/2000/svg"><path d="M6.977 8.396H4.823c-1.358 0-2.482-1.12-2.482-2.528v-.954c0-1.384 1.1-2.53 2.483-2.53h3.863c1.357 0 2.48 1.122 2.48 2.53v1.073c0 .668.516 1.193 1.172 1.193.655 0 1.17-.525 1.17-1.193V4.914C13.508 2.218 11.355 0 8.686 0H4.823C2.177 0 0 2.194 0 4.914v.954c0 2.695 2.154 4.913 4.823 4.913h2.154c.655 0 1.17-.523 1.17-1.19 0-.67-.515-1.194-1.17-1.194zM16.177 0h-1.873c-.655 0-1.17.525-1.17 1.193 0 .667.515 1.192 1.17 1.192h1.873c1.358 0 2.482 1.12 2.482 2.53v.953c0 1.383-1.1 2.528-2.483 2.528h-3.63c-1.356 0-2.48-1.12-2.48-2.528v-.835c0-.668-.515-1.193-1.17-1.193-.656 0-1.17.525-1.17 1.193v.835c0 2.695 2.153 4.913 4.82 4.913h3.63C18.823 10.78 21 8.588 21 5.87v-.954C21 2.218 18.823 0 16.177 0z" fill="currentColor" fill-rule="evenodd"/></svg>