<?xml version="1.0" encoding="UTF-8" standalone="no"?>
<svg width="44px" height="43px" viewBox="0 0 44 43" version="1.1" xmlns="http://www.w3.org/2000/svg" xmlns:xlink="http://www.w3.org/1999/xlink" xmlns:sketch="http://www.bohemiancoding.com/sketch/ns">
    <!-- Generator: Sketch 3.5.2 (25235) - http://www.bohemiancoding.com/sketch -->
    <title>icon-stickers</title>
    <desc>Created with Sketch.</desc>
    <defs></defs>
    <g id="Page-1" stroke="none" stroke-width="1" fill="none" fill-rule="evenodd" sketch:type="MSPage">
        <g id="tshirt-copy" sketch:type="MSLayerGroup" transform="translate(-90.000000, -38.000000)" fill="#FFFFFF">
            <path d="M111.553191,81 C123.451266,81 133.106383,71.5792212 133.106383,59.9456522 L133.106383,59.5242244 L132.804751,59.2299129 L112.251559,39.1755651 L111.960227,38.8913043 L111.553191,38.8913043 C99.6551168,38.8913043 90,48.3120832 90,59.9456522 C90,71.5792212 99.6551168,81 111.553191,81 Z M111.799655,41.1314805 C112.112584,44.7110394 113.44168,54.5906826 118.712891,58.0273442 C123.591207,61.2078509 128.719178,60.4000541 130.961328,59.8042977 L131.106383,59.9456522 C131.106383,70.4635041 122.357545,79 111.553191,79 C100.748838,79 92,70.4635041 92,59.9456522 C92,49.4278002 100.748838,40.8913043 111.553191,40.8913043 L111.799655,41.1314805 Z" id="icon-stickers" sketch:type="MSShapeGroup"></path>
        </g>
    </g>
</svg>