<?xml version="1.0" encoding="UTF-8"?>
<svg width="90px" height="90px" viewBox="0 0 90 90" version="1.1" xmlns="http://www.w3.org/2000/svg" xmlns:xlink="http://www.w3.org/1999/xlink">
    <!-- Generator: Sketch 41.2 (35397) - http://www.bohemiancoding.com/sketch -->
    <title>community/card/logo/android</title>
    <desc>Created with Sketch.</desc>
    <defs></defs>
    <g id="Symbols" stroke="none" stroke-width="1" fill="none" fill-rule="evenodd">
        <g id="community/card/logo/android" fill="#2EDE98">
            <path d="M25.2417204,35.4420332 C23.41054,35.4411537 21.9264613,36.9358644 21.9260238,38.7747529 L21.9283572,52.7313961 C21.9287947,54.5765877 23.4156444,56.0657283 25.2444914,56.0674873 C27.0772761,56.0652885 28.5616464,54.5755616 28.5597505,52.7315427 L28.5598963,38.7729939 C28.5591671,36.9345451 27.0730467,35.4408605 25.2417204,35.4420332 Z M51.9822632,22.9090077 L54.2966151,18.6608748 C54.4201425,18.4389476 54.3393465,18.1545758 54.1162097,18.0315923 C53.8897185,17.9091952 53.6104329,17.9927477 53.4912807,18.2158476 L51.1525734,22.5064897 C49.1857608,21.6291882 46.9838524,21.1350556 44.6559373,21.1375476 C42.3328349,21.1354954 40.1345725,21.6269895 38.1734477,22.5019457 L35.8334278,18.2208315 C35.7126714,17.9949465 35.4306148,17.9124201 35.2105406,18.0367228 C34.9855079,18.1573609 34.9031077,18.4411463 35.0278018,18.6626338 L37.3434662,22.9071021 C32.7938083,25.2659218 29.7202079,29.7565037 29.7225413,34.9121343 L59.5923959,34.909056 C59.5931251,29.7541583 56.5249207,25.2729578 51.9822632,22.9090077 Z M37.8622229,29.4733046 C37.1744364,29.4716922 36.614115,28.9096915 36.6138234,28.2154726 C36.6142609,27.5238922 37.1741447,26.9554419 37.8633896,26.9554419 C38.555843,26.9548555 39.1161644,27.5238922 39.1170394,28.2151794 C39.1173311,28.9089586 38.555843,29.4728648 37.8622229,29.4733046 Z M51.4629232,29.4708127 C50.7725116,29.4715456 50.2092734,28.9096915 50.210586,28.2123943 C50.210586,27.5224264 50.7716365,26.9535363 51.4635066,26.951191 C52.1502721,26.9530965 52.713802,27.5221332 52.7132186,28.2131273 C52.7136562,28.9079325 52.1533348,29.4709592 51.4629232,29.4708127 Z M29.8498606,57.6985205 C29.8481105,59.6678682 31.4299027,61.2578581 33.3875273,61.2571252 L35.7969676,61.2572718 L35.7995927,68.6419959 C35.799301,70.480298 37.2852756,71.9748621 39.1131017,71.9751553 C40.9454489,71.9751553 42.4298192,70.4791253 42.428215,68.6395039 L42.4285067,61.2563923 L46.905244,61.2556594 L46.9049523,68.6399437 C46.9065566,70.478539 48.394573,71.974569 50.2219616,71.9716373 C52.054017,71.97281 53.5394083,70.47678 53.5391166,68.637012 L53.5370748,61.2546333 L55.9551197,61.2539004 C57.9061815,61.2546333 59.4933698,59.6609788 59.493224,57.6957354 L59.4895779,36.0660386 L29.8446103,36.0713156 L29.8498606,57.6985205 Z M64.0851758,35.4376357 C62.254287,35.4361698 60.7700625,36.9305874 60.7705,38.7713815 L60.7716667,52.7280247 C60.7725418,54.570871 62.2558913,56.0617705 64.088676,56.0605979 C65.9195647,56.0603047 67.4020391,54.5705778 67.4034975,52.7268521 L67.3998515,38.770502 C67.3995598,36.9292681 65.916502,35.4371959 64.0851758,35.4376357 Z" id="android"></path>
        </g>
    </g>
</svg>