<svg width="62" height="61" xmlns="http://www.w3.org/2000/svg" xmlns:xlink="http://www.w3.org/1999/xlink"><defs><path d="M.5907 29.25C.5907 13.5844 13.242.89 28.8545.89s28.2638 12.6945 28.2638 28.36c0 15.6652-12.6514 28.3596-28.2638 28.3596S.5907 44.9152.5907 29.25z" id="path-1"/><mask id="mask-2" x="-2" y="-2" width="60.5275" height="60.7194"><path fill="#fff" d="M-1.4093-1.11h60.5275v60.7195H-1.4093z"/><use xlink:href="#path-1"/></mask><linearGradient x1="50%" y1="78.2906%" x2="50%" y2="-21.8725%" id="linearGradient-3"><stop stop-color="#FFF" stop-opacity="0" offset="0%"/><stop stop-color="#FFF" offset="100%"/></linearGradient></defs><g id="Symbols" fill="none" fill-rule="evenodd"><g id="community/card/logo/autocomplete.js"><g id="illus-autocomplete" transform="translate(-14.000000, -15.000000) translate(16.000000, 16.162010)"><g id="Path"><use fill-opacity=".2465" fill="#FFF" xlink:href="#path-1"/><use stroke="#FFF" mask="url(#mask-2)" stroke-width="4" xlink:href="#path-1"/></g><path d="M13.0664 55.835C10.6826 51.846 9.312 47.1784 9.312 42.1903c0-14.6735 11.8604-26.574 26.4842-26.574 7.6054 0 14.4632 3.2186 19.294 8.372-1.2635-.1247-2.545-.1885-3.841-.1885-19.0766 0-34.942 13.8268-38.1828 32.035z" id="Combined-Shape" fill="url(#linearGradient-3)" opacity=".6292" transform="translate(32.201176, 35.725609) rotate(-180.000000) translate(-32.201176, -35.725609)"/><ellipse id="Oval-2" fill="#FFF" opacity=".1648" cx="18.6134" cy="17.1953" rx="8.3093" ry="8.2963"/><ellipse id="Oval-2-Copy" fill="#FFF" opacity=".4967" cx="29" cy="28.9484" rx="2.0773" ry="2.0741"/><ellipse id="Oval-2-Copy" fill="#FFF" opacity=".4967" cx="20.6907" cy="41.3929" rx="2.0773" ry="2.0741"/><ellipse id="Oval-2-Copy-2" fill="#FFF" opacity=".4967" cx="49.0808" cy="35.1707" rx="1.3849" ry="1.3827"/><ellipse id="Oval-2-Copy" fill="#FFF" opacity=".8533" cx="44.2337" cy="46.9238" rx="2.0773" ry="2.0741"/><ellipse id="Oval-2" fill="#FFF" cx="20.6907" cy="17.8867" rx="3.4622" ry="3.4568"/><ellipse id="Oval-2" fill="#FFF" opacity=".1523" cx="29" cy="31.7139" rx="3.4622" ry="3.4568"/></g></g></g></svg>