<?xml version="1.0" encoding="UTF-8"?>
<svg width="90px" height="90px" viewBox="0 0 90 90" version="1.1" xmlns="http://www.w3.org/2000/svg" xmlns:xlink="http://www.w3.org/1999/xlink">
    <!-- Generator: Sketch 41.2 (35397) - http://www.bohemiancoding.com/sketch -->
    <title>community/card/logo/autocomplete.js</title>
    <desc>Created with Sketch.</desc>
    <defs>
        <path d="M0.590739103,29.2498589 C0.590739103,13.5844909 13.2421377,0.890140971 28.854502,0.890140971 C44.4668662,0.890140971 57.1182649,13.5844909 57.1182649,29.2498589 C57.1182649,44.9152269 44.4668662,57.6095768 28.854502,57.6095768 C13.2421377,57.6095768 0.590739103,44.9152269 0.590739103,29.2498589 Z" id="path-1"></path>
        <mask id="mask-2" maskContentUnits="userSpaceOnUse" maskUnits="objectBoundingBox" x="-2" y="-2" width="60.5275258" height="60.7194359">
            <rect x="-1.4092609" y="-1.10985903" width="60.5275258" height="60.7194359" fill="white"></rect>
            <use xlink:href="#path-1" fill="black"></use>
        </mask>
        <linearGradient x1="50%" y1="78.2905859%" x2="50%" y2="-21.8724749%" id="linearGradient-3">
            <stop stop-color="#FFFFFF" stop-opacity="0" offset="0%"></stop>
            <stop stop-color="#FFFFFF" offset="100%"></stop>
        </linearGradient>
    </defs>
    <g id="Symbols" stroke="none" stroke-width="1" fill="none" fill-rule="evenodd">
        <g id="community/card/logo/autocomplete.js">
            <g id="illus-autocomplete" transform="translate(16.000000, 16.162010)">
                <g id="Path">
                    <use fill-opacity="0.24646173" fill="#FFFFFF" fill-rule="evenodd" xlink:href="#path-1"></use>
                    <use stroke="#FFFFFF" mask="url(#mask-2)" stroke-width="4" xlink:href="#path-1"></use>
                </g>
                <path d="M13.0664216,55.8349307 C10.6826155,51.8462415 9.31203566,47.1785428 9.31203566,42.1904015 C9.31203566,27.5168675 21.1723528,15.6162848 35.7962389,15.6162848 C43.4015504,15.6162848 50.2594177,18.8349562 55.0903159,23.98843 C53.8266916,23.8637126 52.5452888,23.7998722 51.2490609,23.7998722 C32.1726292,23.7998722 16.3071158,37.6268469 13.0664233,55.8349335 Z" id="Combined-Shape" fill="url(#linearGradient-3)" opacity="0.629167343" transform="translate(32.201176, 35.725609) rotate(-180.000000) translate(-32.201176, -35.725609) "></path>
                <ellipse id="Oval-2" fill="#FFFFFF" opacity="0.164820429" cx="18.6133947" cy="17.1953444" rx="8.30928428" ry="8.29630102"></ellipse>
                <ellipse id="Oval-2-Copy" fill="#FFFFFF" opacity="0.496735075" cx="29" cy="28.9484375" rx="2.07732107" ry="2.07407526"></ellipse>
                <ellipse id="Oval-2-Copy" fill="#FFFFFF" opacity="0.496735075" cx="20.6907157" cy="41.392889" rx="2.07732107" ry="2.07407526"></ellipse>
                <ellipse id="Oval-2-Copy-2" fill="#FFFFFF" opacity="0.496735075" cx="49.0807703" cy="35.1706633" rx="1.38488071" ry="1.38271684"></ellipse>
                <ellipse id="Oval-2-Copy" fill="#FFFFFF" opacity="0.853311567" cx="44.2336878" cy="46.9237564" rx="2.07732107" ry="2.07407526"></ellipse>
                <ellipse id="Oval-2" fill="#FFFFFF" cx="20.6907157" cy="17.8867028" rx="3.46220178" ry="3.45679209"></ellipse>
                <ellipse id="Oval-2" fill="#FFFFFF" opacity="0.15234375" cx="29" cy="31.7138712" rx="3.46220178" ry="3.45679209"></ellipse>
            </g>
        </g>
    </g>
</svg>