<svg width="90" height="90"  viewbox="0 0 90 90" xmlns="http://www.w3.org/2000/svg">
    <path d="M64.235 26.67h-36.95c-.806 0-4.826.494-4.826 5.783v26.426c0 5.289 4.386 5.273 5.184 5.273h35.509c.798 0 5.307.016 5.307-5.967V32.907c0-5.743-3.424-6.236-4.224-6.236zM41.02 45.653l-12.351 7.17c-.638.38-1.392.017-1.685-.788a2.11 2.11 0 0 1-.11-.667c0-.612.271-1.195.74-1.463l9.875-5.734-9.868-5.808c-.637-.37-.915-1.334-.615-2.14.212-.582.674-.926 1.15-.926.176 0 .359.047.535.148l12.322 7.288c.263.15.461.74.586.74h.007c.015 0 .03.048.037.086.293.795.015 1.723-.623 2.094zm20.11 12.485a.68.68 0 0 1-.132.176.139.139 0 0 1-.044.056c-.015.018-.03.027-.045.047-.051.055-.11.11-.175.157a1.417 1.417 0 0 1-.836.277l-16 .047c-.827 0-1.494-.723-1.5-1.612 0-.445.167-.843.439-1.14.27-.287.637-.463 1.055-.472l16-.046c.82 0 1.494.722 1.494 1.611 0 .334-.095.64-.256.9z" fill="#2EDE98" fill-rule="evenodd"/>
</svg>
