<?xml version="1.0" encoding="UTF-8"?>
<svg width="90px" height="90px" viewBox="0 0 90 90" version="1.1" xmlns="http://www.w3.org/2000/svg" xmlns:xlink="http://www.w3.org/1999/xlink">
    <!-- Generator: Sketch 41.2 (35397) - http://www.bohemiancoding.com/sketch -->
    <title>community/card/logo/csharp</title>
    <desc>Created with Sketch.</desc>
    <defs></defs>
    <g id="Symbols" stroke="none" stroke-width="1" fill="none" fill-rule="evenodd">
        <g id="community/card/logo/csharp" fill="#B84592">
            <path d="M61.3723205,57.4234139 L63.7912848,59.2808329 C61.7109022,62.0285079 59.0810241,64.1186722 55.9015716,65.5513885 C52.7221191,66.9841048 49.209073,67.7004522 45.3623279,67.7004522 C38.6501503,67.7004522 33.1548827,65.5808489 28.8763601,61.3415789 C24.5978376,57.1023088 22.4586084,51.7444229 22.4586084,45.2677603 C22.4586084,41.2640052 23.4497192,37.5645126 25.4319704,34.1691713 C27.4142217,30.77383 30.1618555,28.1145129 33.6749543,26.1911404 C37.1880531,24.2677679 40.9660496,23.3060961 45.0090572,23.3060961 C49.0520647,23.3060961 52.6828666,24.0715083 55.9015716,25.6023559 C59.1202766,27.1332034 61.7501547,29.3313104 63.7912848,32.196743 L61.5122118,33.9467454 C61.6705993,34.1467045 61.8221009,34.3479661 61.9660331,34.5500249 L59.1380399,36.8415384 C55.7729695,32.6688511 50.8362361,30.0072022 45.5530755,30.0072022 C41.2457853,30.0072022 37.5358508,31.5214612 34.4231606,34.5500246 C31.3104705,37.578588 29.7541487,41.2885225 29.7541487,45.6799394 C29.7541487,50.0713564 31.2768203,53.7392281 34.322209,56.6836648 C37.3675978,59.6281014 41.1784829,61.1002976 45.7549787,61.1002976 C50.8698858,61.1002976 55.126636,59.1149359 58.5253572,55.1441527 L61.9660331,56.6836641 C61.7795272,56.9299927 61.5811549,57.177057 61.3723205,57.4234139 Z M68.1871931,49.5265673 L65.1377591,49.5287736 L64.3280577,53.3154697 L62.4516244,53.3217208 L63.2866979,49.5302444 L59.6526021,49.5232579 L58.8844522,53.3139989 L56.9852207,53.3154697 L57.7765365,49.5247287 L56.0674121,49.5265673 L56.0674121,47.6203493 L58.1736653,47.6229233 L58.7848023,44.5819467 L56.0674121,44.5845207 L56.0674121,42.7018363 L59.1771508,42.7025717 L59.9975158,38.8894003 L61.8967473,38.8879294 L61.052481,42.7011008 L64.6126666,42.7025717 L65.4356056,38.889768 L67.3399851,38.8894003 L66.4927771,42.7018363 L68.1871931,42.7018363 L68.1871931,44.5845207 L66.1397737,44.5845207 L65.5095157,47.6214525 L68.1871931,47.6203493 L68.1871931,49.5265673 Z M64.24091,44.5859915 L60.6844014,44.5804759 L60.0261973,47.6166722 L63.6345532,47.6229233 L64.24091,44.5859915 Z" id="csharp"></path>
        </g>
    </g>
</svg>