<svg width="90" height="90" viewBox="0 0 90 90" xmlns="http://www.w3.org/2000/svg"><title>community/card/logo/docsearch</title><g fill="#FFF" fill-rule="evenodd"><path d="M15.144 27.813h41.331c9.537 0 17.262 7.695 17.262 17.187 0 9.489-7.736 17.188-17.28 17.188H15.724a2.061 2.061 0 1 0 0 4.125h40.731c11.815 0 21.402-9.54 21.402-21.313 0-11.774-9.575-21.313-21.383-21.313H15.144c-1.138 0-2.06.924-2.06 2.063 0 1.14.922 2.063 2.06 2.063z"/><path d="M28.529 56.688h29.288c1.138 0 2.06-.924 2.06-2.063 0-1.14-.922-2.063-2.06-2.063H28.529c-1.138 0-2.06.924-2.06 2.063 0 1.14.922 2.063 2.06 2.063zM28.228 47.063h36.765c1.138 0 2.06-.924 2.06-2.063 0-1.14-.922-2.063-2.06-2.063H28.228c-1.138 0-2.06.924-2.06 2.063 0 1.14.922 2.063 2.06 2.063zM28.529 37.438h29.288c1.138 0 2.06-.924 2.06-2.063 0-1.14-.922-2.063-2.06-2.063H28.529c-1.138 0-2.06.924-2.06 2.063 0 1.14.922 2.063 2.06 2.063z"/><ellipse cx="20.104" cy="45" rx="2.063" ry="2.063"/><ellipse cx="20.104" cy="54.625" rx="2.063" ry="2.063"/><ellipse cx="20.104" cy="35.375" rx="2.063" ry="2.063"/></g></svg>