<svg width="90" height="90"  viewbox="0 0 90 90" xmlns="http://www.w3.org/2000/svg">
    <g fill="none" fill-rule="evenodd">
        <path d="M65.62 23.748c-1.5-3.068-5.127-.358-6.045-1.321-4.702-4.837-10.388-6.046-14.844-6.27H42.27c-4.478.112-10.165 1.41-14.844 6.27-.918.963-4.567-1.747-6.044 1.321-1.724 3.583 3.515 3.942 3.246 5.532-.515 2.866-.18 7.12.224 11.308.627 7.1-4.68 24.096 6.358 30.926 2.082 1.3 7.701 2.016 12.582 2.128h.045c4.88-.112 9.828-.829 11.91-2.128 11.06-6.83 5.754-23.827 6.403-30.926.38-4.187.717-8.442.224-11.308-.269-1.59 4.97-1.971 3.246-5.532z" fill="#01ADFF"/>
        <path d="M51.269 25.92c-7.478.874-6.47 8.667-3.582 11.197 5.373 4.703 10.97 0 10.343-4.747-.56-4.568-4.433-6.718-6.761-6.45z" fill="#FFF"/>
        <ellipse fill="#111212" cx="51.784" cy="32.639" rx="2.552" ry="2.553"/>
        <ellipse fill="#FFF" cx="51.112" cy="31.541" rx=".806" ry=".806"/>
        <path d="M43.5 37.722c-3.582.537-4.858 1.568-4.59 3.18.448 2.642 8.889 2.351 9.157.134.224-1.903-3.157-3.516-4.567-3.314z" fill="#B8937F"/>
        <path d="M41.194 38.797c-.604 2.195 4.858 1.859 4.724.448-.067-.829-.806-1.881-2.754-1.837-.761.023-1.701.359-1.97 1.389z" fill="#000"/>
        <path d="M41.373 42.358c-.201.09-.537 2.284.493 2.396.694.067 2.597.29 3.044 0 .874-.56.784-1.904.291-2.24-.828-.537-3.604-.268-3.828-.156zM35.687 25.92c7.477.874 6.47 8.667 3.582 11.197-5.373 4.703-10.97 0-10.344-4.747.582-4.568 4.456-6.718 6.762-6.45z" fill="#FFF"/>
        <ellipse fill="#111212" cx="35.194" cy="32.639" rx="2.552" ry="2.553"/>
        <ellipse fill="#FFF" cx="35.866" cy="31.541" rx=".806" ry=".806"/>
        <path d="M62.552 55.57c2.463.022 1.254-5.263-.268-4.21-.74.515-.874 1.702-.874 2.71 0 .56.448 1.477 1.142 1.5zm-38.127 0c-2.462.022-1.253-5.263.269-4.21.739.515.873 1.702.873 2.71 0 .56-.448 1.477-1.142 1.5zm33.448 16.235c-1.343-1.993-2.552-.447-4.5.538-.918.47 1.523 2.15 4.254.896.716-.336.694-.784.246-1.434zm-28.769.225c1.344-1.994 2.553-.449 4.5.537.918.47-1.522 2.15-4.253.896-.717-.336-.694-.784-.247-1.434z" fill="#B8937F"/>
        <path d="M61.433 24.286c-.134.47.47.403.694 1.858.09.538 2.015-.783 1.231-1.746-.649-.806-1.813-.583-1.925-.112zm-35.888 0c.134.47-.47.403-.694 1.858-.09.538-2.015-.783-1.232-1.746.627-.806 1.791-.583 1.926-.112z" fill="#3C89BF"/>
    </g>
</svg>
