<?xml version="1.0" encoding="UTF-8"?>
<svg width="90px" height="90px" viewBox="0 0 90 90" version="1.1" xmlns="http://www.w3.org/2000/svg" xmlns:xlink="http://www.w3.org/1999/xlink">
    <!-- Generator: Sketch 41.2 (35397) - http://www.bohemiancoding.com/sketch -->
    <title>community/card/logo/helper.js</title>
    <desc>Created with Sketch.</desc>
    <defs></defs>
    <g id="Symbols" stroke="none" stroke-width="1" fill="none" fill-rule="evenodd">
        <g id="community/card/logo/helper.js">
            <g id="al-helper-logo" transform="translate(15.000000, 12.000000)">
                <g id="helper-logo">
                    <g id="base" transform="translate(0.294177, 0.000000)" stroke-width="2.36249996" stroke="#FFFFFF">
                        <g id="path-3-link">
                            <path d="M27.832691,67.7626713 C28.6533746,68.2385397 29.9846038,68.2439801 30.8115902,67.7716721 L58.3501839,52.0438535 C59.1747009,51.572956 59.8431043,50.4164884 59.8431043,49.4675051 L59.8431043,18.1557527 C59.8431043,17.2037722 59.1714172,16.0502213 58.3495762,15.5830483 L31.8317463,0.509073628 C31.0068935,0.0401886939 29.6656309,0.0444810507 28.8417643,0.515339319 L1.65824241,16.0513324 C0.831773774,16.5236778 0.161788574,17.6824802 0.161788574,18.6328856 L0.161788574,49.9915612 C0.161788574,50.9449683 0.82555311,52.1027375 1.64776763,52.5794938 L27.832691,67.7626713 L27.832691,67.7626713 Z" id="path-3"></path>
                        </g>
                    </g>
                    <g id="angle" transform="translate(0.743763, 16.791407)" stroke="#FFFFFF" stroke-width="1.57499998" stroke-dasharray="3.779999828338623,8.977499771118163">
                        <path d="M29.1130626,17.856164 L0.0659313121,0.50691861" id="left"></path>
                        <path d="M29.8141218,17.4974016 L59.1900871,0.0621647166" id="right"></path>
                        <path d="M29.2113936,17.7765761 L29.2113936,51.441842" id="middle"></path>
                    </g>
                    <g id="dots" transform="translate(15.134956, 6.680633)">
                        <g id="bottom" transform="translate(11.497632, 11.452514)">
                            <ellipse id="Oval" stroke="#FFFFFF" stroke-width="0.839999988" cx="3.69566739" cy="2.07672253" rx="3.69566739" ry="2.07672253"></ellipse>
                            <path d="M0.000568091236,2.08823831 L0.000568091236,4.67825266 C0.000568091236,4.67825266 0.99245312,6.29032797 3.66173229,6.29032786 C6.33101145,6.29032775 7.39396617,4.67825276 7.39396617,4.67825276 L7.39396617,2.08823831" id="Path-15" stroke="#FFFFFF" stroke-width="0.839999988"></path>
                            <polygon id="Path-16" fill="#FFFFFF" points="0.00318131091 3.27209359 0.00318131091 4.71987477 1.64230497 5.92962112 3.68657793 6.32721572 6.35307788 5.63324261 7.37446581 4.5124098 7.37446581 2.8405739 6.08285358 3.53268302 3.84283644 4.10661353 1.18700324 3.52876859"></polygon>
                        </g>
                        <g id="top" transform="translate(11.497632, 0.000000)">
                            <ellipse id="Oval" stroke="#FFFFFF" stroke-width="0.839999988" cx="3.69566739" cy="2.07672253" rx="3.69566739" ry="2.07672253"></ellipse>
                            <path d="M0.000568091236,2.08823831 L0.000568091236,4.67825266 C0.000568091236,4.67825266 0.99245312,6.29032797 3.66173229,6.29032786 C6.33101145,6.29032775 7.39396617,4.67825276 7.39396617,4.67825276 L7.39396617,2.08823831" id="Path-15" stroke="#FFFFFF" stroke-width="0.839999988"></path>
                            <polygon id="Path-16" fill="#FFFFFF" points="0.00318131091 3.27209359 0.00318131091 4.71987477 1.64230497 5.92962112 3.68657793 6.32721572 6.35307788 5.63324261 7.37446581 4.5124098 7.37446581 2.8405739 6.08285358 3.53268302 3.84283644 4.10661353 1.18700324 3.52876859"></polygon>
                        </g>
                        <g id="left" transform="translate(0.000000, 5.726257)">
                            <ellipse id="Oval" stroke="#FFFFFF" stroke-width="0.839999988" fill-opacity="0" fill="#FFFFFF" cx="3.69566739" cy="2.07672253" rx="3.69566739" ry="2.07672253"></ellipse>
                            <path d="M0.000568091236,2.08823831 L0.000568091236,4.67825266 C0.000568091236,4.67825266 0.99245312,6.29032797 3.66173229,6.29032786 C6.33101145,6.29032775 7.39396617,4.67825276 7.39396617,4.67825276 L7.39396617,2.08823831" id="Path-15" stroke="#FFFFFF" stroke-width="0.839999988"></path>
                            <polygon id="Path-16" fill="#FFFFFF" points="0.00318131091 3.27209359 0.00318131091 4.71987477 1.64230497 5.92962112 3.68657793 6.32721572 6.35307788 5.63324261 7.37446581 4.5124098 7.37446581 2.8405739 6.08285358 3.53268302 3.84283644 4.10661353 1.18700324 3.52876859"></polygon>
                        </g>
                        <g id="right" transform="translate(22.995264, 5.726257)">
                            <ellipse id="Oval" stroke="#FFFFFF" stroke-width="0.839999988" cx="3.69566739" cy="2.07672253" rx="3.69566739" ry="2.07672253"></ellipse>
                            <path d="M0.000568091236,2.08823831 L0.000568091236,4.67825266 C0.000568091236,4.67825266 0.99245312,6.29032797 3.66173229,6.29032786 C6.33101145,6.29032775 7.39396617,4.67825276 7.39396617,4.67825276 L7.39396617,2.08823831" id="Path-15" stroke="#FFFFFF" stroke-width="0.839999988"></path>
                            <polygon id="Path-16" fill="#FFFFFF" points="0.00318131091 3.27209359 0.00318131091 4.71987477 1.64230497 5.92962112 3.68657793 6.32721572 6.35307788 5.63324261 7.37446581 4.5124098 7.37446581 2.8405739 6.08285358 3.53268302 3.84283644 4.10661353 1.18700324 3.52876859"></polygon>
                        </g>
                    </g>
                </g>
            </g>
        </g>
    </g>
</svg>