<svg width="90" height="90" xmlns="http://www.w3.org/2000/svg">
    <g fill="none" fill-rule="evenodd">
        <path d="M43.127 79.763c.82.476 2.152.481 2.979.009l27.538-15.728c.825-.471 1.493-1.628 1.493-2.576V30.156c0-.952-.671-2.106-1.493-2.573L47.126 12.509c-.825-.469-2.166-.465-2.99.006L16.952 28.051c-.826.473-1.496 1.631-1.496 2.582v31.359c0 .953.664 2.11 1.486 2.587l26.185 15.184z" stroke-width="2.362" stroke="#FFF"/>
        <path d="M44.857 46.648L15.81 29.298m29.748 16.991l29.376-17.435M44.955 46.568v33.665" stroke="#FFF" stroke-width="1.575" stroke-dasharray="3.779999828338623,8.977499771118163"/>
        <g transform="translate(41.633 30.133)">
            <ellipse stroke="#FFF" stroke-width=".84" cx="3.696" cy="2.077" rx="3.696" ry="2.077"/>
            <path d="M0 2.088v2.59S.993 6.29 3.663 6.29c2.669 0 3.732-1.612 3.732-1.612v-2.59" stroke="#FFF" stroke-width=".84"/>
            <path fill="#FFF" d="M.003 3.272V4.72l1.64 1.21 2.044.397 2.666-.694 1.021-1.12V2.84l-1.291.692-2.24.574-2.656-.578z"/>
        </g>
        <g transform="translate(41.633 18.68)">
            <ellipse stroke="#FFF" stroke-width=".84" cx="3.696" cy="2.077" rx="3.696" ry="2.077"/>
            <path d="M0 2.088v2.59S.993 6.29 3.663 6.29c2.669 0 3.732-1.612 3.732-1.612v-2.59" stroke="#FFF" stroke-width=".84"/>
            <path fill="#FFF" d="M.003 3.272V4.72l1.64 1.21 2.044.397 2.666-.694 1.021-1.12V2.84l-1.291.692-2.24.574-2.656-.578z"/>
        </g>
        <g transform="translate(30.135 24.407)">
            <ellipse stroke="#FFF" stroke-width=".84" cx="3.696" cy="2.077" rx="3.696" ry="2.077"/>
            <path d="M0 2.088v2.59S.993 6.29 3.663 6.29c2.669 0 3.732-1.612 3.732-1.612v-2.59" stroke="#FFF" stroke-width=".84"/>
            <path fill="#FFF" d="M.003 3.272V4.72l1.64 1.21 2.044.397 2.666-.694 1.021-1.12V2.84l-1.291.692-2.24.574-2.656-.578z"/>
        </g>
        <g transform="translate(53.13 24.407)">
            <ellipse stroke="#FFF" stroke-width=".84" cx="3.696" cy="2.077" rx="3.696" ry="2.077"/>
            <path d="M0 2.088v2.59S.993 6.29 3.663 6.29c2.669 0 3.732-1.612 3.732-1.612v-2.59" stroke="#FFF" stroke-width=".84"/>
            <path fill="#FFF" d="M.003 3.272V4.72l1.64 1.21 2.044.397 2.666-.694 1.021-1.12V2.84l-1.291.692-2.24.574-2.656-.578z"/>
        </g>
    </g>
</svg>
