<svg width="84" height="87" xmlns="http://www.w3.org/2000/svg">
    <path d="M54.86 61.857c-5.561 4.329-12.52 6.901-20.072 6.901-18.228 0-33.005-14.991-33.005-33.484C1.783 16.782 16.56 1.79 34.788 1.79c18.229 0 33.006 14.992 33.006 33.484 0 8.845-3.38 16.889-8.902 22.874l2.796 2.796.874-.875a2.006 2.006 0 0 1 2.828-.001l16.396 16.396c.781.78.784 2.043 0 2.828l-5.739 5.738a2.006 2.006 0 0 1-2.828.001L56.823 68.635a1.997 1.997 0 0 1 .001-2.828l.993-.993-2.957-2.957zm-20.072 1.32c15.19 0 27.505-12.492 27.505-27.903 0-15.41-12.314-27.903-27.505-27.903-15.19 0-27.504 12.493-27.504 27.903 0 15.41 12.314 27.903 27.504 27.903z" stroke="#3369E7" stroke-width="2" fill="#FFF" fill-rule="evenodd" stroke-opacity=".182"/>
</svg>
