<svg xmlns="http://www.w3.org/2000/svg">
    <path d="M20.498 0C9.179 0 0 9.178 0 20.5c0 9.058 5.873 16.74 14.02 19.452 1.025.189 1.399-.445 1.399-.988 0-.487-.018-1.776-.028-3.486-5.702 1.238-6.905-2.749-6.905-2.749-.933-2.368-2.277-2.999-2.277-2.999-1.861-1.27.141-1.246.141-1.246 2.058.145 3.14 2.113 3.14 2.113 1.829 3.133 4.799 2.228 5.967 1.703.186-1.324.716-2.227 1.3-2.74-4.551-.517-9.337-2.276-9.337-10.131 0-2.238.799-4.07 2.11-5.501-.211-.519-.915-2.604.202-5.426 0 0 1.72-.55 5.637 2.102 1.634-.456 3.389-.682 5.132-.691 1.741.009 3.494.235 5.132.691 3.914-2.653 5.631-2.102 5.631-2.102 1.12 2.822.416 4.907.205 5.426 1.314 1.432 2.107 3.263 2.107 5.5 0 7.876-4.793 9.609-9.36 10.116.736.633 1.391 1.884 1.391 3.796 0 2.74-.025 4.952-.025 5.624 0 .549.37 1.187 1.41.987C35.132 37.233 41 29.555 41 20.5 41 9.178 31.82 0 20.498 0" fill="currentColor" fill-rule="evenodd"/>
</svg>
