<?xml version="1.0" encoding="UTF-8"?>
<svg width="90px" height="90px" viewBox="0 0 90 90" version="1.1" xmlns="http://www.w3.org/2000/svg" xmlns:xlink="http://www.w3.org/1999/xlink">
    <!-- Generator: Sketch 41.2 (35397) - http://www.bohemiancoding.com/sketch -->
    <title>community/card/logo/instantsearch.js</title>
    <desc>Created with Sketch.</desc>
    <defs></defs>
    <g id="Symbols" stroke="none" stroke-width="1" fill="none" fill-rule="evenodd">
        <g id="community/card/logo/instantsearch.js" fill="#FFFFFF">
            <g id="Group-2" transform="translate(16.000000, 17.000000)">
                <path d="M0,4.08263912 C0,1.86901042 1.80003915,0.0745098039 4.00812931,0.0745098039 L52.9918707,0.0745098039 C55.2054994,0.0745098039 57,1.87454895 57,4.08263912 L57,53.0663805 C57,55.2800092 55.1999609,57.0745098 52.9918707,57.0745098 L4.00812931,57.0745098 C1.79450062,57.0745098 0,55.2744707 0,53.0663805 L0,4.08263912 Z M37.92339,29.3628308 C38.0005407,28.9252875 37.9014345,28.4699343 37.6677878,28.1235483 L34.1834033,22.9578791 C35.4555356,21.6297136 36.3076058,19.9222919 36.6298234,18.094905 C37.5125182,13.0888942 34.3125732,8.34491226 29.4782004,7.49248189 C24.6438276,6.64005153 20.0143255,10.0034907 19.1316308,15.0095015 C18.248936,20.0155123 21.448881,24.7594942 26.2832538,25.6119246 C28.0479863,25.9230945 29.8854363,25.6765181 31.5232767,24.8905219 L35.0099303,30.0433222 C35.241308,30.4025771 35.6196539,30.6550562 36.0421955,30.7295617 C36.9121341,30.8829553 37.7645503,30.2636554 37.92339,29.3628308 Z M26.2831637,39.1638218 C26.5973264,38.8496591 27.0271748,38.6696622 27.4449319,38.6623756 L33.6749612,38.5537102 C34.0332656,36.7498359 34.9431761,35.0725241 36.2552675,33.7604327 C39.8496585,30.1660417 45.571114,30.0662469 49.0422664,33.5373993 C52.5134189,37.0085517 52.4136241,42.7300072 48.819233,46.3243983 C45.224842,49.9187894 39.5033864,50.0185841 36.032234,46.5474317 C34.7651295,45.2803272 33.913195,43.6337459 33.6176188,41.8412767 L27.3968296,41.9407021 C26.9698324,41.9572287 26.5460033,41.7921219 26.2426121,41.4887307 C25.6179832,40.8641017 25.6363581,39.8106274 26.2831637,39.1638218 Z M24.9780895,27.5982455 C25.0855737,28.0293413 25.0184728,28.4904985 24.8095579,28.8523391 L21.694,34.2484834 C23.0556817,35.4846741 24.02478,37.1284991 24.4736847,38.9289579 C25.703431,43.8612006 22.8422044,48.8168433 18.0790704,50.004426 C13.3159364,51.1920087 8.46308991,48.1597004 7.23334368,43.2274577 C6.00359745,38.295215 8.86482405,33.3395723 13.6279581,32.1519896 C15.3666856,31.7184761 17.21686,31.8362778 18.905539,32.5061094 L22.0242582,27.1226444 C22.2300118,26.7481246 22.5898241,26.4698685 23.0061392,26.3660695 C23.8632584,26.1523656 24.7567984,26.7106954 24.9780895,27.5982455 Z M38.5002114,36.0841643 C36.2179117,38.366464 36.1542331,42.0172975 38.3582811,44.2213454 C40.562329,46.4253934 44.2131625,46.3617148 46.4954622,44.0794151 C48.777762,41.7971154 48.8414405,38.1462818 46.6373926,35.9422339 C44.4333447,33.738186 40.7825112,33.8018646 38.5002114,36.0841643 Z M21.3255928,39.7239744 C20.5447514,36.5921904 17.4481732,34.657289 14.4237667,35.4113582 C11.3993603,36.1654274 9.57362524,39.3275994 10.3544667,42.4593833 C11.1353081,45.5911673 14.2318863,47.5260687 17.2562927,46.7719995 C20.2806992,46.0179303 22.1064342,42.8557583 21.3255928,39.7239744 Z M33.4386549,17.5242532 C32.8781777,20.702877 29.9241145,22.8490715 26.8544742,22.3078111 C23.7848339,21.7665507 21.7429642,18.7394384 22.3034414,15.5608146 C22.8639185,12.3821908 25.8179817,10.2359963 28.8876221,10.7772567 C31.9572624,11.3185171 33.999132,14.3456294 33.4386549,17.5242532 Z" id="Combined-Shape"></path>
            </g>
        </g>
    </g>
</svg>