<?xml version="1.0" encoding="UTF-8"?>
<svg width="90px" height="90px" viewBox="0 0 90 90" version="1.1" xmlns="http://www.w3.org/2000/svg" xmlns:xlink="http://www.w3.org/1999/xlink">
    <!-- Generator: Sketch 41.2 (35397) - http://www.bohemiancoding.com/sketch -->
    <title>community/card/logo/java</title>
    <desc>Created with Sketch.</desc>
    <defs></defs>
    <g id="Symbols" stroke="none" stroke-width="1" fill="none" fill-rule="evenodd">
        <g id="community/card/logo/java" fill="#01ADFF">
            <path d="M37.5023205,61.7092144 C37.5023205,61.7092144 35.1602666,63.0706934 39.1709915,63.5301197 C44.0306346,64.0842494 46.5139035,64.0044493 51.8675958,62.9937385 C51.8675958,62.9937385 53.2779829,63.8749266 55.2442772,64.6381081 C43.2388264,69.775256 28.073468,64.3404497 37.5023205,61.7092144 Z M36.034552,55.0043809 C36.034552,55.0043809 33.4073549,56.9470863 37.4210642,57.3613965 C42.6126508,57.8966939 46.7110077,57.9405907 53.8068951,56.576673 C53.8068951,56.576673 54.7860405,57.5700419 56.3280113,58.1129264 C41.8150095,62.3527635 25.6504291,58.4464881 36.034552,55.0043809 Z M48.4011119,43.6292774 C51.3607952,47.0319588 47.6250395,50.0914591 47.6250395,50.0914591 C47.6250395,50.0914591 55.1357546,46.219732 51.6871769,41.3689974 C48.4651403,36.847489 45.994894,34.6014348 59.3682726,26.8554065 C59.3684082,26.8554065 38.375385,32.0906448 48.4011119,43.6292774 Z M64.2790569,66.6692846 C64.2790569,66.6692846 66.0128415,68.0967443 62.3694657,69.2006682 C55.4415171,71.2964706 33.5290359,71.9286391 27.4428159,69.2845328 C25.256492,68.3334349 29.3583759,67.0151754 30.6489812,66.7367557 C31.9946617,66.446007 32.7630019,66.4991167 32.7630019,66.4991167 C30.329789,64.787818 17.0360389,69.860069 26.0112668,71.314761 C50.4870524,75.2771268 70.6269521,69.5300299 64.2790569,66.6692846 Z M38.6294636,48.056489 C38.6294636,48.056489 27.4848684,50.7010017 34.6830384,51.6621254 C37.7232997,52.068442 43.7803543,51.974958 49.426515,51.5018478 C54.0395405,51.1151764 58.6689799,50.2881819 58.6689799,50.2881819 C58.6689799,50.2881819 57.0435823,50.9845698 55.8667901,51.7866352 C44.5473379,54.7601032 22.6843702,53.3753209 28.9793606,50.3353303 C34.3006318,47.7642499 38.6294636,48.056489 38.6294636,48.056489 Z M58.6228578,59.2171212 C70.1286976,53.2472885 64.8082404,47.5096754 61.0948675,48.2824763 C60.1868045,48.4717475 59.7794377,48.6356832 59.7794377,48.6356832 C59.7794377,48.6356832 60.1177569,48.1063471 60.7619744,47.8785985 C68.1082777,45.3003374 73.7567446,55.4854846 58.3929255,59.5192506 C58.3927898,59.5192506 58.5695461,59.3593794 58.6228578,59.2171212 Z M51.6873126,14.3450824 C51.6873126,14.3450824 58.0579975,20.7114768 45.6430094,30.4984365 C35.6870083,38.35231 43.3729875,42.8287023 45.6394824,47.9457985 C39.8274177,42.7089344 35.5643777,38.0982775 38.4238132,33.8077693 C42.6228248,27.5106072 54.2571283,24.4565263 51.6873126,14.3450824 Z M39.7606763,75.3991979 C50.8024463,76.1042568 67.7630401,75.0068362 68.1644382,69.7881269 C68.1644382,69.7881269 67.3928423,71.7664647 59.0382281,73.3361826 C49.6129026,75.1084492 37.9852462,74.902107 31.0914822,73.7652606 C31.0914822,73.7652606 32.5037684,74.9327264 39.7606763,75.3991979 Z" id="java"></path>
        </g>
    </g>
</svg>