<svg xmlns="http://www.w3.org/2000/svg" viewBox="0 0 96 96">
    <path class="icon-laravel" fill="#FFF" d="M45.2 59.4c-.7.2-1.4.4-2.1.5-5.7 1.5-11.4 2.9-17.1 4.4-.5.1-1.1.2-1.6.2-1.1 0-2-.5-2.6-1.3-.2-.3-.5-.7-.6-1C15.7 50.6 10.4 39 5 27.4c-1-2.1-1.9-4.2-2.9-6.3-.2-.5-.4-1-.5-1.5-.1-.2-.1-.4-.1-.6 0-.7.3-1.2 1-1.3.3-.1.7-.1 1-.1 2.2-.2 4.4-.4 6.5-.5 1.9-.2 3.9-.3 5.8-.5 2-.2 3.9-.3 5.9-.4.4 0 .7 0 1.1.1.5.1.9.3 1.2.7.3.4.5.7.8 1.1 7.3 12.2 14.5 24.3 21.8 36.5.1.1.1.2.2.4 9.3-2.2 18.6-4.4 27.9-6.7-.1-.1-.2-.2-.2-.3-3-4.2-5.9-8.4-8.9-12.6-.1-.2-.2-.3-.3-.5-.2-.5-.1-.9.4-1.1.3-.1.6-.3 1-.3 2-.3 4-.7 6-1 1.9-.3 3.9-.6 5.8-1 .6-.1 1.1-.2 1.7-.3.6-.1 1.1.1 1.6.4.4.3.7.7 1 1l6.3 7.8c1.4 1.7 2.8 3.5 4.2 5.2l.2.2c.3.5.2.9-.3 1.1-.2.1-.4.2-.6.2-4 1.1-8.1 2.2-12.1 3.2-.1 0-.2.1-.4.1.1.1.2.3.3.4 2.9 3.9 5.7 7.7 8.6 11.6l2.4 3.3c.1.2.3.4.4.6.2.5.1.9-.3 1.1-.3.2-.5.3-.8.4-1.4.5-2.9 1.1-4.4 1.6-8.2 2.9-16.5 5.9-24.7 8.8l-3 .9c-1 .2-1.8 0-2.5-.8-.4-.4-.7-.8-1-1.3-1.2-2-2.4-4.1-3.6-6.2-2.1-3.8-4.2-7.5-6.3-11.3.1.1 0 0 0-.1zm-19.9.7c.2 0 .5-.1.7-.2 5.1-1.2 10.2-2.4 15.4-3.7.4-.1.9-.2 1.3-.3.3-.1.4-.2.3-.6l-.3-.6c-4.6-8-9.2-15.9-13.8-23.9-2.3-4-4.6-8-6.9-11.9-.1-.2-.3-.3-.5-.3h-.3c-1.2.1-2.5.2-3.7.3-1.2.1-2.4.2-3.7.3-1.5.1-3.1.3-4.6.4l-3 .3c-.3 0-.4.2-.3.4.1.5.3.7.4 1C10.1 29.2 14 37.1 17.8 45c2.4 5 4.8 10 7.2 14.9.1.2.1.2.3.2zM49 58.4c.1.1.1.2.2.3 2.1 3.5 4.1 7.1 6.2 10.6.8 1.4 1.6 2.8 2.5 4.1.2.3.4.6.6.8.3.3.6.3.9.2.1-.1.3-.1.4-.2C65.9 72.1 72 70.1 78 68c2.8-.9 5.5-1.9 8.3-2.8.2-.1.3-.1.5-.2.3-.2.3-.3.2-.6-.1-.2-.2-.4-.4-.6l-3.3-4.5c-1.8-2.5-3.6-4.9-5.4-7.4-.2-.2-.3-.4-.5-.6-.2-.2-.4-.3-.7-.2-.2.1-.4.1-.6.2-2.9.8-5.9 1.5-8.8 2.3-5.9 1.5-11.9 3.1-17.8 4.6-.2.1-.3.1-.5.2zm28.9-10.8h.2c3.5-.9 7-1.7 10.5-2.6.2 0 .3-.1.4-.1.4-.2.4-.3.1-.6v-.1l-7.8-9.9-.2-.2c-.2-.2-.5-.3-.9-.3-.9.2-1.8.4-2.8.5-2.2.4-4.4.8-6.7 1.2-.4.1-.8.1-1.2.2-.3.1-.3.2-.2.4.1.1.2.3.3.4 2.6 3.6 5.2 7.1 7.8 10.7.3.1.4.2.5.4z"/>
</svg>
