<?xml version="1.0" encoding="UTF-8"?>
<svg width="90px" height="90px" viewBox="0 0 90 90" version="1.1" xmlns="http://www.w3.org/2000/svg" xmlns:xlink="http://www.w3.org/1999/xlink">
    <!-- Generator: Sketch 41.2 (35397) - http://www.bohemiancoding.com/sketch -->
    <title>community/card/logo/places</title>
    <desc>Created with Sketch.</desc>
    <defs></defs>
    <g id="Symbols" stroke="none" stroke-width="1" fill="none" fill-rule="evenodd">
        <g id="community/card/logo/places">
            <g id="Group-2" transform="translate(24.000000, 11.000000)">
                <path d="M19.7169207,57.062074 C17.5232032,53.9355571 15.3293461,50.5691884 13.2829822,47.0938295 C10.8538343,42.968385 8.79824687,38.9657302 7.23566348,35.1947068 C5.11116333,30.0675948 3.97568486,25.5519153 3.99869879,21.834538 C4.05871809,12.1397851 12.0236852,4.01661277 21.8608408,4.01661277 C31.5021124,4.01661277 40.0805845,12.5132802 40.0805831,21.2422674 C40.0805825,24.9685369 38.9725561,29.4380603 36.9133899,34.4816406 C35.3063574,38.4177957 33.1641662,42.5985441 30.6181564,46.9060223 C28.5329877,50.4338243 26.2975495,53.8461359 24.0622622,57.0117506 C23.280165,58.119357 22.554237,59.1166311 21.90326,59.9872751 C21.6758794,60.2913836 20.4844813,58.1560121 19.7169207,57.062074 Z M21.966659,28.739283 C18.1836764,28.739283 15.1177391,25.681523 15.1177391,21.9105448 C15.1177391,18.1395667 18.1836764,15.0818067 21.966659,15.0818067 C25.7496416,15.0818067 28.8155789,18.1395667 28.8155789,21.9105448 C28.8155789,25.681523 25.7496416,28.739283 21.966659,28.739283 Z" id="Combined-Shape" fill="#FFFFFF"></path>
                <path d="M26.0284129,61.8096945 C28.5238342,58.2756779 31.019089,54.4667661 33.3493608,50.5242854 C36.2054284,45.6922345 38.6130951,40.9933782 40.4281304,36.5477552 C42.7942939,30.752237 44.0789375,25.5702807 44.0789382,21.1406324 C44.0789399,10.3250287 33.6545032,0 21.8425767,0 C9.80273057,0 0.0738317816,9.92214034 0.000420109114,21.7801269 C-0.0270168153,26.2119382 1.29020346,31.4503859 3.73236007,37.3441065 C5.49678724,41.6022449 7.8069425,46.1005959 10.5317747,50.7282038 C12.8186779,54.6120729 15.2674716,58.3696297 17.7164192,61.859904 C18.5738159,63.0818778 21.8391709,67.4406158 21.8391709,67.4406158 C21.8391709,67.4406158 25.1547363,63.0469956 26.0284129,61.8096945 Z M19.479449,60.6228758 C17.0614324,57.1766847 14.6432619,53.4661178 12.3876651,49.6354168 C9.71014623,45.0881615 7.4443829,40.6762507 5.72203138,36.5196546 C3.38030927,30.8683152 2.1287325,25.8909249 2.15409952,21.7934601 C2.22025556,11.1074561 10.9996099,2.15372068 21.8425767,2.15372068 C32.4696311,2.15372068 41.925219,11.5191396 41.9252175,21.1406321 C41.9252168,25.2478983 40.703899,30.1744133 38.4341909,35.7336802 C36.6628455,40.072292 34.3016236,44.6805058 31.495294,49.4284071 C29.1969249,53.3169132 26.7329217,57.0781205 24.269085,60.5674071 C23.4070213,61.788262 22.60687,62.8875035 21.8893331,63.8471676 C21.6387037,64.1823699 20.3254898,61.828665 19.479449,60.6228758 Z M21.966659,30.1750968 C26.5417625,30.1750968 30.2513927,26.4753607 30.2513927,21.9105448 C30.2513927,17.345729 26.5417625,13.6459929 21.966659,13.6459929 C17.3915555,13.6459929 13.6819253,17.345729 13.6819253,21.9105448 C13.6819253,26.4753607 17.3915555,30.1750968 21.966659,30.1750968 Z M21.966659,28.739283 C18.1836764,28.739283 15.1177391,25.681523 15.1177391,21.9105448 C15.1177391,18.1395667 18.1836764,15.0818067 21.966659,15.0818067 C25.7496416,15.0818067 28.8155789,18.1395667 28.8155789,21.9105448 C28.8155789,25.681523 25.7496416,28.739283 21.966659,28.739283 Z" id="community/icon-places" fill="#FCFCFD"></path>
            </g>
        </g>
    </g>
</svg>