<svg width="165" height="165" xmlns="http://www.w3.org/2000/svg">
    <g fill="#FFF" fill-rule="evenodd">
        <path d="M57.14 51.86a11.7 11.7 0 1 0-9.64-9.45 11.72 11.72 0 0 0 9.64 9.45z"/>
        <path d="M35 70.1h95.2a9.31 9.31 0 0 0 9.32-9.31V28.41a9.31 9.31 0 0 0-9.32-9.31H35a9.31 9.31 0 0 0-9.32 9.31v32.38A9.31 9.31 0 0 0 35 70.1zM85.86 26v36.75H83V26h2.86zM37 60.54l11.1-11.1a14.27 14.27 0 1 1 11 5.17 14 14 0 0 1-9.12-3.33L38.79 62.37a1.24 1.24 0 0 1-.92.38 1.25 1.25 0 0 1-.92-.38 1.29 1.29 0 0 1 .05-1.83z" fill-rule="nonzero"/>
        <path d="M0 0v165h56l-28.29-28.59a1.13 1.13 0 0 1-.79-1.08v-7.79c0-.635.515-1.15 1.15-1.15h9.54l-9.9-10a1.13 1.13 0 0 1-.79-1.08v-7.79a1.14 1.14 0 0 1 1.15-1.15h9.54l-9.9-10a1.13 1.13 0 0 1-.79-1.08v-7.77a1.15 1.15 0 0 1 1.15-1.16h15.72L27.27 69.7a11.77 11.77 0 0 1-4.08-8.91V28.41c.006-6.52 5.29-11.804 11.81-11.81h95.2a11.76 11.76 0 0 1 8.67 3.81L165 49.94V0H0z" opacity=".31"/>
        <path d="M138.26 96.46a1.15 1.15 0 0 0 1.15-1.15v-7.79a1.15 1.15 0 0 0-1.15-1.16H28.07a1.15 1.15 0 0 0-1.15 1.16v7.79a1.13 1.13 0 0 0 .79 1.08 1.1 1.1 0 0 0 .36.07h110.19zm0 20.01a1.14 1.14 0 0 0 1.15-1.15v-7.79a1.14 1.14 0 0 0-1.15-1.15H28.07a1.14 1.14 0 0 0-1.15 1.15v7.79a1.13 1.13 0 0 0 .79 1.08 1.1 1.1 0 0 0 .36.07h110.19zm0 20.02a1.15 1.15 0 0 0 1.15-1.16v-7.79a1.15 1.15 0 0 0-1.15-1.15H28.07a1.15 1.15 0 0 0-1.15 1.15v7.79a1.13 1.13 0 0 0 .79 1.08c.115.047.236.074.36.08h110.19z"/>
    </g>
</svg>
