<svg xmlns="http://www.w3.org/2000/svg" viewBox="0 0 77.83 68.33">
    <g fill="#fff">
        <path d="M71.82 0H6a6 6 0 0 0-6 6v45.66a6 6 0 0 0 6 6h24.27l-2.44 8.66h-4a1 1 0 0 0 0 2H54a1 1 0 0 0 0-2h-4l-2.43-8.66h24.25a6 6 0 0 0 6-6V6a6 6 0 0 0-6-6zM47.93 66.33h-18l2.44-8.66h13.12zm27.9-14.67a4 4 0 0 1-4 4H6a4 4 0 0 1-4-4V6a4 4 0 0 1 4-4h65.82a4 4 0 0 1 4 4z"/>
        <path d="M71 7.07H6.82a1 1 0 0 0 0 2H71a1 1 0 0 0 0-2zM71 47H6.82a1 1 0 0 0 0 2H71a1 1 0 0 0 0-2z"/>
        <circle cx="38.92" cy="52.4" r="1.5"/>
        <path d="M71 12.78h-8.41l-7.34 7.35H52v-3.36H25.83v3.36h-3.25l-7.34-7.35H6.82a1 1 0 0 0 0 2h7.59l7.34 7.35h4.08v4.57h-19a1 1 0 1 0 0 2h19v5.47h-4.08l-7.34 7.34H6.82a1 1 0 0 0 0 2h8.42l7.34-7.34h3.25v3.36H52v-3.36h3.25l7.34 7.34H71a1 1 0 0 0 0-2h-7.58l-7.34-7.34H52V29.6h19a1 1 0 0 0 0-2H52v-5.47h4.08l7.34-7.35H71a1 1 0 0 0 0-2zM50 37.53H27.83V18.77H50z"/>
        <path d="M71 34.17h-7a1 1 0 0 0 0 2h7a1 1 0 0 0 0-2zM71 20.13h-7a1 1 0 1 0 0 2h7a1 1 0 0 0 0-2zM6.82 22.13h7a1 1 0 1 0 0-2h-7a1 1 0 0 0 0 2zM6.82 36.17h7a1 1 0 0 0 0-2h-7a1 1 0 0 0 0 2zM42.7 30.51a5.44 5.44 0 1 0-1.42 1.42l2 2a1 1 0 0 0 .71.3 1 1 0 0 0 .71-.3 1 1 0 0 0 0-1.41zm-6.9-.64a3.37 3.37 0 0 1-1-2.42A3.45 3.45 0 0 1 38.22 24a3.37 3.37 0 0 1 2.42 1 3.41 3.41 0 0 1 1 2.42 3.37 3.37 0 0 1-1 2.42 3.49 3.49 0 0 1-4.84.03z"/>
    </g>
</svg>
