<?xml version="1.0" encoding="UTF-8"?>
<svg width="90px" height="90px" viewBox="0 0 90 90" version="1.1" xmlns="http://www.w3.org/2000/svg" xmlns:xlink="http://www.w3.org/1999/xlink">
    <!-- Generator: Sketch 41.2 (35397) - http://www.bohemiancoding.com/sketch -->
    <title>community/card/logo/ror</title>
    <desc>Created with Sketch.</desc>
    <defs></defs>
    <g id="Symbols" stroke="none" stroke-width="1" fill="none" fill-rule="evenodd">
        <g id="community/card/logo/ror" fill="#FF4F81">
            <path d="M62.1441529,25.2191155 L64.9008831,27.2201904 L64.4003447,27.9702174 L62.0604786,26.7199217 L62.1441529,25.2191155 Z M54.1249854,22.8020276 L54.4589289,24.9693573 L51.0328041,25.0528608 L50.5330195,22.6350206 L54.1249854,22.8020276 Z M43.5156825,23.9695721 L45.5200975,26.2204052 L42.7641212,27.8039627 L40.7589524,25.3868748 L43.5156825,23.9695721 Z M34.1599871,31.1388368 L37.0833121,33.0564082 L34.828628,35.7232544 L31.8208748,33.723684 L34.1599871,31.1388368 Z M26.7250323,42.1432444 L30.5680212,43.6440506 L29.3988419,46.8954213 L25.4721787,45.6443733 L26.7250323,42.1432444 Z M22.5480998,56.0650087 L26.892381,56.3982704 L26.1408196,60.7329297 L22.0468076,60.232661 L22.5480998,56.0650087 Z M50.1154016,44.0600636 L49.4460069,46.8111655 L46.6063563,44.3933253 L47.6911073,42.2259956 L50.1154016,44.0600636 Z M49.2794121,36.8907988 L51.0328041,35.3064891 L52.7040293,37.8070805 L51.7014449,39.5583972 L49.2794121,36.8907988 Z M49.6977838,51.4798388 L49.8643786,54.2309407 L46.3560871,52.7301345 L46.5234357,49.8127779 L49.6977838,51.4798388 Z M51.2001527,60.1499098 L52.7877037,63.4020327 L48.360502,63.1515222 L47.5245125,60.1499098 L51.2001527,60.1499098 Z M55.5451877,34.7234692 L54.4596828,32.7231465 L56.7980413,32.1393743 L57.1319848,33.4731735 L55.5451877,34.7234692 Z M61.6428607,32.8894012 L61.6428607,31.6391055 L63.8982987,32.138622 L63.8982987,33.1391595 L61.6428607,32.8894012 Z M66.5721084,32.7223942 C66.5721084,32.7223942 64.0664012,29.8870365 59.4710971,30.3873053 C54.8765468,30.887574 46.7729511,35.5562473 45.5200975,45.8098757 C44.2672439,56.0635041 49.1964916,67.2349187 49.1964916,67.2349187 L26.9753015,67.2349187 C26.9753015,67.2349187 26.3910888,63.5667828 27.8105372,56.5637728 C29.2307394,49.5607628 31.3188288,44.8920895 34.9115485,38.2230935 C38.5035144,31.5533452 44.2672439,26.0511414 52.6211088,25.3018667 C60.9742199,24.5510875 67.5746928,31.2208357 67.5746928,31.2208357 L66.5721084,32.7223942 Z" id="rails"></path>
        </g>
    </g>
</svg>