<?xml version="1.0" encoding="UTF-8"?>
<svg width="90px" height="90px" viewBox="0 0 90 90" version="1.1" xmlns="http://www.w3.org/2000/svg" xmlns:xlink="http://www.w3.org/1999/xlink">
    <!-- Generator: Sketch 41.2 (35397) - http://www.bohemiancoding.com/sketch -->
    <title>community/card/logo/ruby</title>
    <desc>Created with Sketch.</desc>
    <defs></defs>
    <g id="Symbols" stroke="none" stroke-width="1" fill="none" fill-rule="evenodd">
        <g id="community/card/logo/ruby" fill="#FF4F81">
            <path d="M60.6161202,22.0655738 L29.9576503,22.0655738 L15.1639344,35.9221311 L45.2868852,67.3169399 L75.4098361,35.9221311 L60.6161202,22.0655738 L60.6161202,22.0655738 Z M58.8756831,36.7254098 L45.2868852,63.568306 L31.6980874,36.7254098 L58.8756831,36.7254098 L58.8756831,36.7254098 Z M32.568306,35.2527322 L45.2868852,24.4754098 L58.0054645,35.2527322 L32.568306,35.2527322 L32.568306,35.2527322 Z M47.295082,24.2745902 L59.2773224,24.2745902 L59.2773224,34.3825137 L47.295082,24.2745902 L47.295082,24.2745902 Z M31.2295082,34.4494536 L31.2295082,24.2745902 L43.2786885,24.2745902 L31.2295082,34.4494536 L31.2295082,34.4494536 Z M30.0915301,36.7254098 L42.4084699,61.1584699 L18.9795082,36.7254098 L30.0915301,36.7254098 L30.0915301,36.7254098 Z M60.4822404,36.7254098 L71.5273224,36.7254098 L48.0983607,61.1584699 L60.4822404,36.7254098 L60.4822404,36.7254098 Z M60.75,35.2527322 L60.75,25.2117486 L71.4603825,35.2527322 L60.75,35.2527322 L60.75,35.2527322 Z M29.7568306,35.2527322 L19.113388,35.2527322 L29.7568306,25.2786885 L29.7568306,35.2527322 L29.7568306,35.2527322 Z" id="Shape-3"></path>
        </g>
    </g>
</svg>