<svg width="90" height="90" xmlns="http://www.w3.org/2000/svg">
    <g fill="#FF4F81" fill-rule="evenodd">
        <path d="M29.34 38.622s31.27 3.159 31.27 8.423V34.41s0-5.264-31.27-8.423v12.635zm0 16.846s31.27 3.159 31.27 8.423V51.257s0-5.265-31.27-8.423v12.634z" fill-opacity=".449"/>
        <path d="M60.66 17.614V30.25s0 5.264-31.27 8.423V25.987c-.05 0 31.27-3.108 31.27-8.373m-31.32 25.22s31.27-3.16 31.27-8.424v12.635s0 5.265-31.27 8.423V42.834zm0 29.43V59.63s31.27-3.159 31.27-8.423V63.84c.05.05.05 5.265-31.27 8.423"/>
    </g>
</svg>
