<?xml version="1.0" encoding="UTF-8"?>
<svg width="90px" height="90px" viewBox="0 0 90 90" version="1.1" xmlns="http://www.w3.org/2000/svg" xmlns:xlink="http://www.w3.org/1999/xlink">
    <!-- Generator: Sketch 41.2 (35397) - http://www.bohemiancoding.com/sketch -->
    <title>community/card/logo/scala</title>
    <desc>Created with Sketch.</desc>
    <defs></defs>
    <g id="Symbols" stroke="none" stroke-width="1" fill="none" fill-rule="evenodd">
        <g id="community/card/logo/scala" fill="#FF4F81">
            <g id="Group-2" transform="translate(29.000000, 17.000000)">
                <path d="M0.339488636,21.6220386 C0.339488636,21.6220386 31.6107955,24.7807163 31.6107955,30.0451791 L31.6107955,17.4104683 C31.6107955,17.4104683 31.6107955,12.1460055 0.339488636,8.98732782 L0.339488636,13.9008264 L0.339488636,21.6220386 L0.339488636,21.6220386 Z" id="Shape" fill-opacity="0.449275362"></path>
                <path d="M0.339488636,38.4683196 C0.339488636,38.4683196 31.6107955,41.6269972 31.6107955,46.8914601 L31.6107955,34.2567493 C31.6107955,34.2567493 31.6107955,28.9922865 0.339488636,25.8336088 L0.339488636,38.4683196 L0.339488636,38.4683196 Z" id="Shape" fill-opacity="0.449275362"></path>
                <path d="M31.6605114,0.614325069 L31.6605114,13.2490358 C31.6605114,13.2490358 31.6605114,18.5134986 0.389204545,21.6721763 L0.389204545,8.98732782 C0.339488636,8.98732782 31.6605114,5.87878788 31.6605114,0.614325069" id="Shape"></path>
                <path d="M0.339488636,25.8336088 C0.339488636,25.8336088 31.6107955,22.6749311 31.6107955,17.4104683 L31.6107955,30.0451791 C31.6107955,30.0451791 31.6107955,35.3096419 0.339488636,38.4683196 L0.339488636,25.8336088 L0.339488636,25.8336088 Z" id="Shape"></path>
                <path d="M0.339488636,55.2644628 L0.339488636,42.6297521 C0.339488636,42.6297521 31.6107955,39.4710744 31.6107955,34.2066116 L31.6107955,46.8413223 C31.6605114,46.8914601 31.6605114,52.1057851 0.339488636,55.2644628" id="Shape"></path>
            </g>
        </g>
    </g>
</svg>