<svg width="90" height="90" viewBox="0 0 90 90" xmlns="http://www.w3.org/2000/svg">
    <title>
        community/card/logo/symfony
    </title>
    <path d="M64.046 18.078c-4.056.14-7.597 2.385-10.232 5.488-2.917 3.406-4.859 7.44-6.258 11.562-2.501-2.057-4.431-4.724-8.446-5.882-3.103-.897-6.362-.527-9.359 1.715-1.42 1.065-2.398 2.671-2.863 4.186-1.203 3.93 1.266 7.43 2.388 8.685l2.455 2.638c.505.518 1.724 1.868 1.129 3.804-.642 2.106-3.17 3.467-5.763 2.665-1.159-.358-2.82-1.223-2.449-2.442.154-.497.51-.873.702-1.3.173-.37.258-.65.311-.815.474-1.549-.174-3.568-1.829-4.082-1.545-.475-3.125-.097-3.738 1.897-.696 2.27.387 6.388 6.18 8.18C33.06 56.47 38.8 52.76 39.616 47.922c.514-3.028-.851-5.281-3.346-8.176l-2.035-2.26c-1.232-1.235-1.656-3.342-.38-4.96 1.075-1.368 2.607-1.95 5.12-1.264 3.665.998 5.298 3.55 8.023 5.61-1.124 3.707-1.86 7.425-2.525 10.761l-.409 2.486c-1.948 10.258-3.436 15.894-7.302 19.126-.778.558-1.893 1.39-3.57 1.448-.881.028-1.164-.58-1.176-.844-.02-.618.5-.904.845-1.183.518-.283 1.3-.753 1.245-2.253-.056-1.776-1.522-3.316-3.638-3.247-1.588.05-4.006 1.55-3.915 4.297.095 2.835 2.724 4.961 6.693 4.823 2.122-.072 6.858-.935 11.525-6.508 5.433-6.385 6.952-13.705 8.094-19.06l1.277-7.075c.707.087 1.466.146 2.29.164 6.768.145 10.15-3.372 10.203-5.932.032-1.549-1.013-3.075-2.48-3.037-1.046.029-2.361.73-2.678 2.184-.309 1.427 2.153 2.715.23 3.967-1.366.888-3.818 1.513-7.268 1.006l.627-3.48c1.28-6.604 2.86-14.724 8.853-14.923.437-.02 2.034.02 2.072 1.08.01.354-.079.448-.49 1.257-.422.632-.58 1.171-.562 1.789.06 1.685 1.336 2.793 3.184 2.728 2.472-.083 3.183-2.497 3.142-3.74-.102-2.919-3.166-4.763-7.219-4.628z" fill="#FFF" fill-rule="evenodd"/>
</svg>
