<svg width="90" height="90" viewBox="0 0 90 90" xmlns="http://www.w3.org/2000/svg">
    <title>
        community/card/logo/woocommerce
    </title>
    <path d="M17.19 27h54.289c3.436 0 6.217 2.849 6.217 6.369v21.228c0 3.52-2.781 6.369-6.217 6.369H52.01l2.673 6.703-11.753-6.703H17.217c-3.436 0-6.217-2.85-6.217-6.369V33.37c-.027-3.493 2.754-6.37 6.19-6.37zm-2.392 5.805c.38-.528.949-.806 1.708-.861 1.383-.111 2.17.555 2.359 2 .84 5.804 1.762 10.72 2.738 14.747l5.938-11.581c.542-1.056 1.22-1.611 2.033-1.667 1.193-.083 1.925.694 2.223 2.333.678 3.694 1.546 6.832 2.576 9.499.705-7.055 1.898-12.137 3.579-15.276.406-.777 1.003-1.166 1.79-1.222.623-.055 1.192.139 1.707.556.515.416.787.944.84 1.583.028.5-.053.916-.27 1.333-1.058 2-1.925 5.36-2.63 10.026-.678 4.527-.922 8.055-.76 10.582.055.694-.054 1.305-.325 1.833-.325.61-.813.944-1.437 1-.705.055-1.436-.278-2.141-1.028-2.522-2.638-4.528-6.582-5.992-11.831a524.873 524.873 0 0 0-3.905 7.998c-1.6 3.139-2.955 4.75-4.094 4.833-.732.056-1.355-.583-1.897-1.916-1.383-3.639-2.874-10.666-4.474-21.08-.108-.723.054-1.362.434-1.861zm58.264 4.36c-.976-1.75-2.413-2.805-4.338-3.222a6.96 6.96 0 0 0-1.464-.166c-2.603 0-4.717 1.388-6.371 4.166-1.41 2.36-2.115 4.971-2.115 7.832 0 2.138.434 3.971 1.302 5.5.975 1.749 2.413 2.804 4.337 3.22a6.94 6.94 0 0 0 1.465.167c2.63 0 4.744-1.388 6.37-4.166 1.41-2.388 2.116-4.999 2.116-7.86.027-2.166-.434-3.971-1.302-5.47zm-16.972 0c-.976-1.75-2.44-2.805-4.338-3.222a6.957 6.957 0 0 0-1.464-.166c-2.603 0-4.718 1.388-6.371 4.166-1.41 2.36-2.115 4.971-2.115 7.832 0 2.138.434 3.971 1.301 5.5.976 1.749 2.413 2.804 4.338 3.22a6.943 6.943 0 0 0 1.464.167c2.63 0 4.745-1.388 6.372-4.166 1.41-2.388 2.114-4.999 2.114-7.86 0-2.166-.434-3.971-1.301-5.47zm-3.443 7.693c-.38 1.833-1.058 3.194-2.06 4.11-.787.723-1.52 1.028-2.197.89-.65-.14-1.193-.722-1.6-1.806a7.203 7.203 0 0 1-.487-2.527c0-.694.054-1.389.19-2.027a9.09 9.09 0 0 1 1.436-3.306c.895-1.36 1.844-1.916 2.82-1.722.65.14 1.193.723 1.6 1.806a7.2 7.2 0 0 1 .487 2.527 8.387 8.387 0 0 1-.19 2.055zm17 0c-.38 1.833-1.058 3.194-2.062 4.11-.786.723-1.518 1.028-2.195.89-.651-.14-1.194-.722-1.6-1.806a7.192 7.192 0 0 1-.488-2.527c0-.694.054-1.389.19-2.027a9.094 9.094 0 0 1 1.436-3.306c.895-1.36 1.844-1.916 2.82-1.722.651.14 1.193.723 1.6 1.806.325.86.488 1.722.488 2.527 0 .722-.054 1.416-.19 2.055z" fill="#FFF" fill-rule="evenodd"/>
</svg>
