<svg width="90" height="90" viewBox="0 0 90 90" xmlns="http://www.w3.org/2000/svg"><title>community/card/logo/wordpress</title><path d="M46.055 19.81c-9.84-.018-19.102 5.817-23.352 15.053l11.951.028v1.307c-3.68-.442-3.356 1.469-2.835 3.497l7.846 19.663 5.766-13.517-2.647-6.335c-.961-1.697-.982-3.58-4.916-3.402l.056-1.205 17.528.043v1.35c-2.052.12-4.523-.517-3.214 3.687l7.09 18.623 3.876-10.872c1.269-4.557.074-8.937-1.434-13.232-.839-2.881-.447-5.287 3.312-6.242-5.738-5.857-12.51-8.435-19.027-8.447zm23.84 17.192L58.531 66.625c3.138-2.719 6.356-3.708 10.294-11.23 2.62-6.255 2.35-12.05 1.07-18.393zm-48.395.48c-1.11 8.745-1.008 11.306 1.738 18.448 3.579 6.84 6.354 8.28 10.294 10.963L21.5 37.482zm24.999 11.096l-8.422 20.32c5.911 1.687 11.2 1.476 16.043-.401L46.5 48.577z" fill="#FFF" fill-rule="evenodd"/></svg>