<svg xmlns="http://www.w3.org/2000/svg" width="1600" height="720"><defs><linearGradient id="a" x1="0%" y1="50%" y2="50%"><stop stop-color="#89A0FF" stop-opacity="0" offset="0%"/><stop stop-color="#89A0FF" offset="100%"/></linearGradient><linearGradient id="b" x1="100%" x2="0%" y1="100%" y2="100%"><stop stop-color="#00AEFF" offset="0%"/><stop stop-color="#3369E6" offset="100%"/></linearGradient><linearGradient id="c" x1="95.122%" x2="0%" y1="100%" y2="100%"><stop stop-color="#00AEFF" offset="0%"/><stop stop-color="#3369E6" offset="100%"/></linearGradient><linearGradient id="d" x1="98.973%" x2="0%" y1="100%" y2="100%"><stop stop-color="#00AEFF" offset="0%"/><stop stop-color="#3369E6" offset="100%"/></linearGradient><linearGradient id="e" x1="100%" x2="1.736%" y1="97.763%" y2="96.745%"><stop stop-color="#00AEFF" offset="0%"/><stop stop-color="#3369E6" offset="34.64%"/><stop stop-color="#913FE6" offset="100%"/></linearGradient><linearGradient id="f" x1="14.764%" x2="94.5%" y1="50%" y2="50%"><stop stop-color="#FFF" stop-opacity="0" offset="0%"/><stop stop-color="#FFF" offset="100%"/></linearGradient><linearGradient id="g" x1="100%" x2="1.736%" y1="2.447%" y2="96.745%"><stop stop-color="#00AEFF" offset="0%"/><stop stop-color="#3369E6" offset="34.64%"/><stop stop-color="#913FE6" offset="100%"/></linearGradient></defs><g fill="none" fill-rule="evenodd"><g fill="url(#a)" fill-opacity=".1" transform="translate(31)"><path d="M6 392h1266.59c8.835 0 15.998 7.162 15.998 16 0 8.837-7.154 16-15.999 16H6v-32z"/><path d="M368 392h183.992c8.841 0 16.008 7.162 16.008 16 0 8.837-7.162 16-16.008 16H368v-32zm0 160h252.327c8.84 0 16.006 7.162 16.006 16 0 8.837-7.16 16-16.006 16H368v-32z"/><path d="M368 456h209.996c8.839 0 16.004 7.162 16.004 16 0 8.837-7.169 16-16.004 16H368v-32z" opacity=".4"/><path d="M368 456h495.005c8.834 0 15.995 7.162 15.995 16 0 8.837-7.163 16-15.995 16H368v-32z" opacity=".4"/><path d="M368 488h104.003c8.835 0 15.997 7.162 15.997 16 0 8.837-7.17 16-15.997 16H368v-32z" opacity=".2"/><path d="M368 488h239.493c8.84 0 16.007 7.162 16.007 16 0 8.837-7.167 16-16.007 16H368v-32z" opacity=".2"/><path d="M368 618h131.006c8.833 0 15.994 7.162 15.994 16 0 8.837-7.165 16-15.994 16H368v-32z"/><path d="M368 64h310c8.837 0 16 7.162 16 16 0 8.837-7.17 16-16 16H368V64z" opacity=".9"/><path d="M368 32h209.996C586.835 32 594 39.162 594 48c0 8.837-7.169 16-16.004 16H368V32z" opacity=".4"/><path d="M368 0h84.003C460.838 0 468 7.162 468 16c0 8.837-7.172 16-15.997 16H368V0z" opacity=".2"/><path d="M6 224h1457.995c8.84 0 16.005 7.162 16.005 16 0 8.837-7.172 16-16.005 16H6v-32z" opacity=".9"/><path d="M368 224h495.005c8.834 0 15.995 7.162 15.995 16 0 8.837-7.163 16-15.995 16H368v-32zM0 256h1279.007c8.832 0 15.993 7.162 15.993 16 0 8.837-7.164 16-15.993 16H0v-32z" opacity=".9"/><path d="M6 192h1368.009c8.831 0 15.991 7.162 15.991 16 0 8.837-7.157 16-15.991 16H6v-32z" opacity=".4"/><path d="M368 160h1316.998c8.838 0 16.002 7.162 16.002 16 0 8.837-7.172 16-16.002 16H368v-32z" opacity=".2"/><path d="M368 128h933c8.837 0 16 7.162 16 16 0 8.837-7.16 16-16 16H368v-32z" opacity=".4"/><path d="M368 128h537.01c8.83 0 15.99 7.162 15.99 16 0 8.837-7.169 16-15.99 16H368v-32zm0 172h703.995c8.84 0 16.005 7.162 16.005 16 0 8.837-7.155 16-16.005 16H368v-32z" opacity=".9"/><path d="M368 296h223.997c8.838 0 16.003 7.162 16.003 16 0 8.837-7.166 16-16.003 16H368v-32z" opacity=".3" style="mix-blend-mode:overlay"/><path d="M368 520h306.004c8.835 0 15.996 7.162 15.996 16 0 8.837-7.158 16-15.996 16H368v-32z"/><path d="M368 360h383.995c8.84 0 16.005 7.162 16.005 16 0 8.837-7.155 16-16.005 16H368v-32z" opacity=".9"/><path d="M368 360h628c8.837 0 16 7.162 16 16 0 8.837-7.163 16-16 16H368v-32zM71 328h1377.999c8.837 0 16.001 7.162 16.001 16 0 8.837-7.168 16-16.001 16H71v-32z" opacity=".4"/></g><g opacity=".499"><path fill="url(#b)" d="M0 352h1266.59c8.835 0 15.998 7.162 15.998 16 0 8.837-7.154 16-15.999 16H0v-32z" transform="translate(-1 208)"/><path fill="url(#b)" d="M0 352h183.992c8.841 0 16.008 7.162 16.008 16 0 8.837-7.162 16-16.008 16H0v-32z" transform="translate(-1 208)"/><path fill="url(#c)" d="M0 416h209.996c8.839 0 16.004 7.162 16.004 16 0 8.837-7.169 16-16.004 16H0v-32z" opacity=".4" transform="translate(-1 208)"/><path fill="url(#d)" d="M0 416h495.005c8.834 0 15.995 7.162 15.995 16 0 8.837-7.163 16-15.995 16H0v-32z" opacity=".4" transform="translate(-1 208)"/><path fill="url(#a)" d="M0 448h104.003c8.835 0 15.997 7.162 15.997 16 0 8.837-7.17 16-15.997 16H0v-32z" opacity=".2" transform="translate(-1 208)"/><path fill="url(#a)" d="M0 448h239.493c8.84 0 16.007 7.162 16.007 16 0 8.837-7.167 16-16.007 16H0v-32z" opacity=".2" transform="translate(-1 208)"/><path fill="url(#b)" d="M0 184h1457.995c8.84 0 16.005 7.162 16.005 16 0 8.837-7.172 16-16.005 16H0v-32z" opacity=".9" transform="translate(-1 208)"/><path fill="url(#e)" d="M0 184h593.004c8.834 0 15.996 7.162 15.996 16 0 8.837-7.156 16-15.996 16H0v-32z" opacity=".9" transform="translate(-1 208)"/><path fill="url(#b)" d="M0 152h1279.007c8.832 0 15.993 7.162 15.993 16 0 8.837-7.164 16-15.993 16H0v-32z" opacity=".9" transform="translate(-1 208)"/><path fill="url(#e)" d="M0 92h933c8.837 0 16 7.162 16 16 0 8.837-7.16 16-16 16H0V92z" opacity=".4" transform="translate(-1 208)"/><path fill="url(#a)" d="M0 32h239.493c8.84 0 16.007 7.162 16.007 16 0 8.837-7.167 16-16.007 16H0V32z" style="mix-blend-mode:overlay" opacity=".4" transform="translate(-1 208)"/><path fill="url(#a)" d="M0 0h131.006C139.84 0 147 7.162 147 16c0 8.837-7.165 16-15.994 16H0V0z" style="mix-blend-mode:overlay" opacity=".803" transform="translate(-1 208)"/><path fill="url(#e)" d="M0 256h703.995c8.84 0 16.005 7.162 16.005 16 0 8.837-7.155 16-16.005 16H0v-32z" opacity=".9" transform="translate(-1 208)"/><path fill="url(#f)" d="M0 256h223.997c8.838 0 16.003 7.162 16.003 16 0 8.837-7.166 16-16.003 16H0v-32z" opacity=".3" style="mix-blend-mode:overlay" transform="translate(-1 208)"/><path fill="url(#b)" d="M0 480h57.506c8.833 0 15.994 7.162 15.994 16 0 8.837-7.165 16-15.994 16H0v-32z" transform="translate(-1 208)"/><path fill="url(#g)" d="M0 320h328.995c8.84 0 16.005 7.162 16.005 16 0 8.837-7.166 16-16.005 16H0v-32z" opacity=".9" transform="translate(-1 208)"/><path fill="url(#g)" d="M0 320h628c8.837 0 16 7.162 16 16 0 8.837-7.163 16-16 16H0v-32z" opacity=".4" transform="translate(-1 208)"/><path fill="url(#b)" d="M0 320h1377.999c8.837 0 16.001 7.162 16.001 16 0 8.837-7.168 16-16.001 16H0v-32z" opacity=".4" transform="translate(-1 208)"/></g></g></svg>