<svg preserveAspectRatio="none" width="1600" height="589" xmlns="http://www.w3.org/2000/svg"><g fill="none" fill-rule="evenodd"><path d="M154.14 36.778V1.298m0-.001v35.48l30.74 17.74 30.737-17.74V1.297m0 0v35.48l30.74 17.74 30.737-17.74V1.297m0 0v35.48" opacity=".5" stroke="#C5C9E0"/><path d="M154.14 143.47v-35.48m0-.003l30.74-17.74v-35.48l-30.74-17.742m61.477 106.445v-35.48L184.88 90.25l-30.739 17.74v35.48l30.74 17.74z" stroke="#C5C9E0" vector-effect="non-scaling-stroke" opacity=".5"/><path stroke="#C5C9E0" vector-effect="non-scaling-stroke" opacity=".5" d="M246.356 90.247v-35.48l-30.74-17.74-30.737 17.74v35.48l30.737 17.74zm30.738 53.223v-35.48l-30.74-17.74-30.737 17.74v35.48l30.738 17.74z"/><path stroke="#C5C9E0" vector-effect="non-scaling-stroke" opacity=".5" d="M277.094 37.026l-30.74 17.74v35.48l30.74 17.741 30.738-17.741m30.739 53.224v-35.48l-30.74-17.74-30.737 17.74v35.48l30.738 17.74zm-30.738-53.223l30.739 17.74 30.738-17.74m30.738 53.223v-35.48l-30.74-17.74-30.737 17.74v35.48l30.738 17.74zM369.31 90.247l30.739 17.74 30.738-17.74v-35.48"/><path stroke="#C5C9E0" vector-effect="non-scaling-stroke" opacity=".5" d="M461.525 143.47v-35.48l-30.738-17.74-30.74 17.74v35.48l30.74 17.74zm30.739-53.223v-35.48l-30.74-17.74-30.738 17.74v35.48l30.738 17.74z"/><path stroke="#C5C9E0" vector-effect="non-scaling-stroke" opacity=".5" d="M523.002 143.47v-35.48l-30.738-17.74-30.74 17.74v35.48l30.74 17.74zm30.738-53.223v-35.48l-30.739-17.74-30.738 17.74v35.48l30.738 17.74z"/><path stroke="#C5C9E0" vector-effect="non-scaling-stroke" opacity=".5" d="M553.74 90.25l-30.739 17.74v35.48l30.74 17.741m-.001-106.445v35.48M-30.29 214.682v35.48l30.737 17.74 30.74-17.74m0 .001l30.737 17.74 30.74-17.74m92.215-88.705l-30.74-17.74m92.217 17.74l-30.74-17.74-30.737 17.74"/><path stroke="#C5C9E0" vector-effect="non-scaling-stroke" opacity=".5" d="M307.833 161.458l-30.738-17.74-30.74 17.74"/><path stroke="#C5C9E0" vector-effect="non-scaling-stroke" opacity=".5" d="M369.31 161.458l-30.738-17.74-30.74 17.74m122.955 35.482v-35.48l-30.74-17.743-30.737 17.742m61.477 106.444l30.737-17.74v-35.48l-30.737-17.742"/><path d="M492.264 196.94v-35.48l-30.74-17.743-30.738 17.742v35.48l30.738 17.74 30.74-17.74z" stroke="#C5C9E0" vector-effect="non-scaling-stroke" opacity=".5" stroke-dasharray="10"/><path stroke="#C5C9E0" vector-effect="non-scaling-stroke" opacity=".5" d="M523.002 250.163v-35.48l-30.738-17.742-30.74 17.742v35.48l30.74 17.74zm30.738-53.223v-35.48l-30.739-17.743-30.738 17.742v35.48l30.738 17.74zm30.739 53.223v-35.48l-30.74-17.742-30.737 17.742v35.48l30.738 17.74z"/><path stroke="#C5C9E0" vector-effect="non-scaling-stroke" opacity=".5" d="M553.74 161.458v35.48l30.74 17.74 30.737-17.74m30.739 53.225v-35.48l-30.74-17.742-30.737 17.742v35.48l30.738 17.74zm-30.739-53.223l30.74 17.74 30.737-17.74"/><path stroke="#C5C9E0" vector-effect="non-scaling-stroke" opacity=".5" d="M676.694 196.942l-30.738 17.74v35.482M.448 303.632v-35.48l-30.738-17.74-30.74 17.74v35.48l30.74 17.74zm30.739 53.224v-35.48l-30.74-17.74-30.738 17.74v35.48l30.738 17.74z"/><path stroke="#C5C9E0" vector-effect="non-scaling-stroke" opacity=".5" d="M61.925 303.632v-35.48l-30.738-17.74-30.74 17.74v35.48l30.74 17.74z"/><path d="M92.664 356.856v-35.48l-30.74-17.74-30.738 17.74v35.48l30.738 17.74 30.74-17.74z" stroke="#C5C9E0" vector-effect="non-scaling-stroke" opacity=".5" stroke-dasharray="10"/><path stroke="#C5C9E0" vector-effect="non-scaling-stroke" opacity=".5" d="M92.664 250.41l-30.74 17.74v35.48l30.74 17.743m0 .002v35.48m461.076-53.223v-35.48l-30.739-17.74-30.738 17.74v35.48l30.738 17.74zm30.739 53.224v-35.48l-30.74-17.74-30.737 17.74v35.48l30.738 17.74zm30.738-53.224v-35.48l-30.738-17.74-30.739 17.74v35.48l30.74 17.74z"/><path stroke="#C5C9E0" vector-effect="non-scaling-stroke" opacity=".5" d="M615.217 303.635l-30.738 17.74v35.48l30.738 17.742m30.739-124.187l-30.74 17.74v35.48M.448 410.324v-35.48l-30.738-17.74-30.74 17.74v35.48l30.74 17.74zm30.739 53.224v-35.48l-30.74-17.74-30.738 17.74v35.48l30.738 17.74z"/><path stroke="#C5C9E0" vector-effect="non-scaling-stroke" opacity=".5" d="M61.925 410.324v-35.48l-30.738-17.74-30.74 17.74v35.48l30.74 17.74zm30.739 53.224v-35.48l-30.74-17.74-30.738 17.74v35.48l30.738 17.74z"/><path stroke="#C5C9E0" vector-effect="non-scaling-stroke" opacity=".5" d="M92.664 357.103l-30.74 17.74v35.48l30.74 17.742 30.739-17.741m30.737 53.224v-35.48l-30.737-17.74-30.74 17.74v35.48l30.74 17.74z"/><path stroke="#C5C9E0" vector-effect="non-scaling-stroke" opacity=".5" d="M123.402 410.324l30.738 17.74 30.74-17.74m30.737 53.224v-35.48l-30.738-17.74-30.739 17.74v35.48l30.74 17.74z"/><path stroke="#C5C9E0" vector-effect="non-scaling-stroke" opacity=".5" d="M184.879 410.324l30.738 17.74 30.74-17.74m30.737 53.224v-35.48l-30.74-17.74-30.737 17.74v35.48l30.738 17.74z"/><path stroke="#C5C9E0" vector-effect="non-scaling-stroke" opacity=".5" d="M246.356 410.324l30.74 17.74 30.737-17.74m30.738 53.224v-35.48l-30.74-17.74-30.737 17.74v35.48l30.738 17.74zm-30.738-53.224l30.739 17.74 30.738-17.74"/><path stroke="#C5C9E0" vector-effect="non-scaling-stroke" opacity=".5" d="M400.048 463.548v-35.48l-30.74-17.74-30.737 17.74v35.48l30.738 17.74zm-30.738-53.224l30.739 17.74 30.738-17.74v-35.48"/><path stroke="#C5C9E0" vector-effect="non-scaling-stroke" opacity=".5" d="M461.525 463.548v-35.48l-30.738-17.74-30.74 17.74v35.48l30.74 17.74zm30.739-53.224v-35.48l-30.74-17.74-30.738 17.74v35.48l30.738 17.74z"/><path stroke="#C5C9E0" vector-effect="non-scaling-stroke" opacity=".5" d="M523.002 463.548v-35.48l-30.738-17.74-30.74 17.74v35.48l30.74 17.74zm30.738-53.224v-35.48l-30.739-17.74-30.738 17.74v35.48l30.738 17.74zm30.739 53.224v-35.48l-30.74-17.74-30.737 17.74v35.48l30.738 17.74zm30.738-53.224v-35.48l-30.738-17.74-30.739 17.74v35.48l30.74 17.74zm30.739 53.224v-35.48l-30.74-17.74-30.737 17.74v35.48l30.738 17.74zm-30.739-88.704v35.48l30.74 17.74 30.737-17.74m30.739 53.224v-35.48l-30.74-17.74-30.737 17.74v35.48l30.737 17.74zm-30.739-53.224l30.74 17.74 30.737-17.74M.448 517.017v-35.48l-30.738-17.74-30.74 17.74v35.48l30.74 17.74zm30.739 53.224v-35.48L.447 517.02l-30.738 17.74v35.48L.447 587.98z"/><path stroke="#C5C9E0" vector-effect="non-scaling-stroke" opacity=".5" d="M61.925 517.017v-35.48l-30.738-17.74-30.74 17.74v35.48l30.74 17.74zm30.739 17.743l-30.74-17.74-30.738 17.74v35.48m92.216-53.223v-35.48l-30.74-17.74-30.737 17.74v35.48l30.738 17.74z"/><path stroke="#C5C9E0" vector-effect="non-scaling-stroke" opacity=".5" d="M154.14 534.76l-30.737-17.74-30.74 17.74m92.216-17.743v-35.48l-30.74-17.74-30.737 17.74v35.48l30.738 17.74zm0 .003l-30.74 17.74m92.217-53.224l-30.74-17.74-30.737 17.74v35.48"/><path stroke="#C5C9E0" vector-effect="non-scaling-stroke" opacity=".5" d="M307.833 481.536l-30.738-17.74-30.74 17.74m122.955 35.481v-35.48l-30.738-17.74-30.74 17.74m92.216 88.704v-35.48l-30.74-17.74"/><path stroke="#C5C9E0" vector-effect="non-scaling-stroke" opacity=".5" d="M430.787 517.017v-35.48l-30.74-17.74-30.737 17.74v35.48l30.737 17.74z"/><path stroke="#C5C9E0" vector-effect="non-scaling-stroke" opacity=".5" d="M492.264 517.017v-35.48l-30.74-17.74-30.738 17.74v35.48l30.738 17.74zm0 .003l-30.74 17.74"/><path stroke="#C5C9E0" vector-effect="non-scaling-stroke" opacity=".5" d="M553.74 481.536l-30.739-17.74-30.738 17.74v35.48m122.954-35.48l-30.738-17.74-30.739 17.74"/><path stroke="#C5C9E0" vector-effect="non-scaling-stroke" opacity=".5" d="M676.694 481.536l-30.738-17.74-30.74 17.74m122.955 0l-30.74-17.74-30.737 17.74"/><path d="M154.14 1.297l30.74 17.74 30.737-17.74m0 0l30.74 17.74 30.737-17.74" opacity=".5" stroke="#C5C9E0"/><path stroke="#C5C9E0" vector-effect="non-scaling-stroke" opacity=".5" d="M246.356 54.766v-35.48l-30.74-17.74-30.737 17.74v35.48l30.737 17.74zm30.738 53.224V72.51l-30.74-17.74-30.737 17.74v35.48l30.738 17.74z"/><path stroke="#C5C9E0" vector-effect="non-scaling-stroke" opacity=".5" d="M277.094 1.545l-30.74 17.74v35.48l30.74 17.742m0 .002v35.48l30.738 17.74 30.74-17.74m-.001.001l30.738 17.74 30.74-17.74"/><path stroke="#C5C9E0" vector-effect="non-scaling-stroke" opacity=".5" d="M400.048 107.99l30.74 17.74 30.737-17.74V72.51l-30.738-17.74"/><path stroke="#C5C9E0" vector-effect="non-scaling-stroke" opacity=".5" d="M523.002 107.99V72.51l-30.738-17.74-30.74 17.74v35.48l30.74 17.74z"/><path stroke="#C5C9E0" vector-effect="non-scaling-stroke" opacity=".5" d="M553.74 54.769l-30.739 17.74v35.48l30.74 17.742M-30.29 179.202v35.48l30.737 17.74m153.693-53.223l30.74-17.74v-35.48l-30.74-17.742m61.477 70.965l-30.738-17.74-30.739 17.74"/><path stroke="#C5C9E0" vector-effect="non-scaling-stroke" opacity=".5" d="M246.356 161.458v-35.48l-30.74-17.74-30.737 17.74v35.48l30.737 17.74zm30.738 17.744l-30.74-17.74-30.737 17.74"/><path stroke="#C5C9E0" vector-effect="non-scaling-stroke" opacity=".5" d="M307.833 161.458v-35.48l-30.738-17.74-30.74 17.74v35.48l30.74 17.74zm30.738 17.744l-30.74-17.74-30.737 17.74"/><path stroke="#C5C9E0" vector-effect="non-scaling-stroke" opacity=".5" d="M369.31 161.458v-35.48l-30.738-17.74-30.74 17.74v35.48l30.74 17.74zm30.738 17.744l-30.74-17.74-30.737 17.74"/><path stroke="#C5C9E0" vector-effect="non-scaling-stroke" opacity=".5" d="M430.787 161.458v-35.48l-30.74-17.74-30.737 17.74v35.48l30.737 17.74zm0 70.965l30.737-17.74v-35.48l-30.737-17.742-30.74 17.742"/><path stroke="#C5C9E0" vector-effect="non-scaling-stroke" opacity=".5" d="M492.264 161.458v-35.48l-30.74-17.74-30.738 17.74v35.48l30.738 17.74zm30.738 53.224v-35.48l-30.738-17.74-30.74 17.74v35.48l30.74 17.74z"/><path stroke="#C5C9E0" vector-effect="non-scaling-stroke" opacity=".5" d="M553.74 161.458v-35.48l-30.739-17.74-30.738 17.74v35.48l30.738 17.74zm30.739 53.224v-35.48l-30.74-17.74-30.737 17.74v35.48l30.738 17.74zm-30.739-88.704v35.48l30.74 17.74m-.001.004v35.48l30.738 17.74 30.74-17.74m-.001 0l30.738 17.74M.448 268.151v-35.48l-30.738-17.742-30.74 17.742v35.48l30.74 17.74zm30.739 53.224v-35.48l-30.74-17.74-30.738 17.74v35.48l30.738 17.74z"/><path stroke="#C5C9E0" vector-effect="non-scaling-stroke" opacity=".5" d="M.448 232.67v35.48l30.74 17.74 30.737-17.74v-35.48m368.862 35.481v-35.48m61.477 35.48v-35.48l-30.74-17.742-30.738 17.742v35.48l30.738 17.74z"/><path stroke="#C5C9E0" vector-effect="non-scaling-stroke" opacity=".5" d="M553.74 268.151v-35.48l-30.739-17.742-30.738 17.742v35.48l30.738 17.74zm30.739 53.224v-35.48l-30.74-17.74-30.737 17.74v35.48l30.738 17.74zm30.738-53.224v-35.48l-30.738-17.742-30.739 17.742v35.48l30.74 17.74z"/><path stroke="#C5C9E0" vector-effect="non-scaling-stroke" opacity=".5" d="M615.217 268.154l-30.738 17.74v35.48l30.738 17.742m61.477-106.446l-30.738-17.74-30.74 17.74v35.48M.448 374.844v-35.48l-30.738-17.74-30.74 17.74v35.48l30.74 17.74zm30.739 53.224v-35.48l-30.74-17.74-30.738 17.74v35.48l30.738 17.74z"/><path stroke="#C5C9E0" vector-effect="non-scaling-stroke" opacity=".5" d="M61.925 374.844v-35.48l-30.738-17.74-30.74 17.74v35.48l30.74 17.74zm30.739 53.224v-35.48l-30.74-17.74-30.738 17.74v35.48l30.738 17.74z"/><path stroke="#C5C9E0" vector-effect="non-scaling-stroke" opacity=".5" d="M92.664 321.623l-30.74 17.74v35.48l30.74 17.742m0 .002v35.48l30.739 17.742 30.738-17.742v-35.48"/><path stroke="#C5C9E0" vector-effect="non-scaling-stroke" opacity=".5" d="M154.14 392.587v35.48l30.74 17.742 30.737-17.742v-35.48m61.477 0v35.48l30.738 17.742 30.74-17.742v-35.48m61.476-.003l30.74-17.74v-35.48m30.737 88.704v-35.48l-30.738-17.74-30.74 17.74v35.48l30.74 17.74z"/><path stroke="#C5C9E0" vector-effect="non-scaling-stroke" opacity=".5" d="M523.002 428.068v-35.48l-30.738-17.74-30.74 17.74v35.48l30.74 17.74zm30.738-53.224v-35.48l-30.739-17.74-30.738 17.74v35.48l30.738 17.74zm30.739 53.224v-35.48l-30.74-17.74-30.737 17.74v35.48l30.738 17.74zm30.738-53.224v-35.48l-30.738-17.74-30.739 17.74v35.48l30.74 17.74z"/><path stroke="#C5C9E0" vector-effect="non-scaling-stroke" opacity=".5" d="M615.217 374.847l-30.738 17.74v35.48l30.738 17.742 30.74-17.742m-30.74-88.704v35.48m30.739 53.225l30.738 17.74 30.739-17.74M.448 481.536v-35.48l-30.738-17.74-30.74 17.74v35.48l30.74 17.74zm30.739 53.224v-35.48L.447 481.54l-30.738 17.74v35.48L.447 552.5z"/><path stroke="#C5C9E0" vector-effect="non-scaling-stroke" opacity=".5" d="M61.925 481.536v-35.48l-30.738-17.74-30.74 17.74v35.48l30.74 17.74zm30.739 53.224v-35.48l-30.74-17.74-30.738 17.74v35.48m92.216-53.224v-35.48l-30.74-17.74-30.737 17.74v35.48l30.738 17.74z"/><path stroke="#C5C9E0" vector-effect="non-scaling-stroke" opacity=".5" d="M154.14 534.76v-35.48l-30.737-17.74-30.74 17.74v35.48l30.74 17.74zm30.739-53.224v-35.48l-30.74-17.74-30.737 17.74v35.48l30.738 17.74zm30.738 17.744l-30.738-17.74-30.739 17.74v35.48l30.74 17.74m61.476-70.964v-35.48l-30.74-17.74-30.737 17.74v35.48l30.737 17.74zm30.738 17.744l-30.74-17.74-30.737 17.74"/><path stroke="#C5C9E0" vector-effect="non-scaling-stroke" opacity=".5" d="M307.833 481.536v-35.48l-30.738-17.74-30.74 17.74v35.48l30.74 17.74zm30.738 17.744l-30.74-17.74-30.737 17.74"/><path stroke="#C5C9E0" vector-effect="non-scaling-stroke" opacity=".5" d="M369.31 481.536v-35.48l-30.738-17.74-30.74 17.74v35.48l30.74 17.74z"/><path stroke="#C5C9E0" vector-effect="non-scaling-stroke" opacity=".5" d="M430.787 481.536v-35.48l-30.74-17.74-30.737 17.74v35.48l30.737 17.74zm30.738 53.224v-35.48l-30.738-17.74-30.74 17.74v35.48l30.74 17.74z"/><path stroke="#C5C9E0" vector-effect="non-scaling-stroke" opacity=".5" d="M492.264 481.536v-35.48l-30.74-17.74-30.738 17.74v35.48l30.738 17.74zm0 .004l-30.74 17.74v35.48l30.74 17.741"/><path stroke="#C5C9E0" vector-effect="non-scaling-stroke" opacity=".5" d="M553.74 481.536v-35.48l-30.739-17.74-30.738 17.74v35.48m122.954 0v-35.48l-30.738-17.74-30.739 17.74v35.48"/><path stroke="#C5C9E0" vector-effect="non-scaling-stroke" opacity=".5" d="M676.694 481.536v-35.48l-30.738-17.74-30.74 17.74v35.48m122.955 0v-35.48l-30.74-17.74-30.737 17.74v35.48"/><path d="M1414.417 54.518l30.738-17.74V1.298m0-.001v35.48l30.74 17.74 30.738-17.74V1.297m0 0v35.48l30.737 17.74" opacity=".5" stroke="#C5C9E0"/><path d="M953.34 107.99v35.48m307.385 0v-35.48l-30.74-17.74-30.737 17.74v35.48l30.738 17.74zm61.477 0v-35.48l-30.74-17.74-30.737 17.74v35.48l30.738 17.74zm-30.739-53.223l30.74 17.74 30.737-17.74" stroke="#C5C9E0" vector-effect="non-scaling-stroke" opacity=".5"/><path stroke="#C5C9E0" vector-effect="non-scaling-stroke" opacity=".5" d="M1383.679 143.47v-35.48l-30.738-17.74-30.74 17.74v35.48l30.74 17.74zm-30.739-53.223l30.738 17.74 30.74-17.74v-35.48"/><path stroke="#C5C9E0" vector-effect="non-scaling-stroke" opacity=".5" d="M1445.155 143.47v-35.48l-30.737-17.74-30.74 17.74v35.48l30.74 17.74zm30.739-53.223v-35.48l-30.74-17.74-30.737 17.74v35.48l30.738 17.74zm30.739 53.223v-35.48l-30.74-17.74-30.737 17.74v35.48l30.737 17.74z"/><path stroke="#C5C9E0" vector-effect="non-scaling-stroke" opacity=".5" d="M1537.371 90.247v-35.48l-30.738-17.74-30.74 17.74v35.48l30.74 17.74zm0 .003l-30.738 17.74v35.48l30.738 17.741m0-106.445v35.48M891.864 250.163v-35.48l-30.74-17.742-30.738 17.742v35.48l30.738 17.74zm30.738-53.223v-35.48l-30.738-17.743-30.74 17.742v35.48l30.74 17.74z"/><path stroke="#C5C9E0" vector-effect="non-scaling-stroke" opacity=".5" d="M953.34 250.163v-35.48l-30.739-17.742-30.738 17.742v35.48l30.738 17.74zm0-106.445l-30.739 17.74v35.482l30.74 17.74m-.001.002v35.48l30.738 17.74 30.74-17.74m-.001.001l30.74 17.74 30.737-17.74m215.169-88.705l-30.738-17.74-30.739 17.74m122.954 0l-30.739-17.74-30.738 17.74m122.954 35.482v-35.48l-30.74-17.743-30.737 17.742m61.477 106.444l30.738-17.74v-35.48l-30.738-17.742"/><path stroke="#C5C9E0" vector-effect="non-scaling-stroke" opacity=".5" d="M1475.894 196.94v-35.48l-30.74-17.743-30.737 17.742v35.48l30.738 17.74z"/><path d="M1506.633 250.163v-35.48l-30.74-17.742-30.737 17.742v35.48l30.737 17.74 30.74-17.74z" stroke="#C5C9E0" vector-effect="non-scaling-stroke" opacity=".5" stroke-dasharray="10"/><path stroke="#C5C9E0" vector-effect="non-scaling-stroke" opacity=".5" d="M1537.371 196.94v-35.48l-30.738-17.743-30.74 17.742v35.48l30.74 17.74zm30.739 53.223v-35.48l-30.74-17.742-30.738 17.742v35.48l30.738 17.74z"/><path stroke="#C5C9E0" vector-effect="non-scaling-stroke" opacity=".5" d="M1537.371 161.458v35.48l30.74 17.74 30.737-17.74m30.738 53.225v-35.48l-30.739-17.742-30.738 17.742v35.48l30.738 17.74zm-30.738-53.223l30.74 17.74 30.737-17.74M830.386 356.856v-35.48m61.478 35.48v-35.48l-30.74-17.74-30.738 17.74v35.48l30.738 17.74zm30.738-53.224v-35.48l-30.738-17.74-30.74 17.74v35.48l30.74 17.74z"/><path stroke="#C5C9E0" vector-effect="non-scaling-stroke" opacity=".5" d="M953.34 356.856v-35.48l-30.739-17.74-30.738 17.74v35.48l30.738 17.74zm30.739-53.224v-35.48l-30.738-17.74-30.74 17.74v35.48l30.74 17.74z"/><path stroke="#C5C9E0" vector-effect="non-scaling-stroke" opacity=".5" d="M1014.817 356.856v-35.48l-30.739-17.74-30.738 17.74v35.48l30.738 17.74zm30.739-53.224v-35.48l-30.74-17.74-30.737 17.74v35.48l30.738 17.74z"/><path d="M1076.294 356.856v-35.48l-30.738-17.74-30.739 17.74v35.48l30.74 17.74 30.737-17.74z" stroke="#C5C9E0" vector-effect="non-scaling-stroke" opacity=".5" stroke-dasharray="10"/><path stroke="#C5C9E0" vector-effect="non-scaling-stroke" opacity=".5" d="M1076.294 250.41l-30.738 17.74v35.48l30.738 17.743m0 .002v35.48m461.077-53.223v-35.48l-30.738-17.74-30.74 17.74v35.48l30.74 17.74zm30.739 53.224v-35.48l-30.74-17.74-30.738 17.74v35.48l30.738 17.74z"/><path stroke="#C5C9E0" vector-effect="non-scaling-stroke" opacity=".5" d="M1598.848 303.632v-35.48l-30.738-17.74-30.74 17.74v35.48l30.74 17.74zm0 .003l-30.738 17.74v35.48l30.738 17.742"/><path stroke="#C5C9E0" vector-effect="non-scaling-stroke" opacity=".5" d="M1629.586 250.41l-30.739 17.74v35.48M707.433 428.065l30.74-17.74v-35.48m30.737 53.223l-30.738-17.74-30.74 17.74"/><path stroke="#C5C9E0" vector-effect="non-scaling-stroke" opacity=".5" d="M738.171 374.844v35.48l30.738 17.74 30.74-17.74v-35.48m30.737 53.224l-30.737-17.74-30.74 17.74"/><path d="M799.648 374.844v35.48l30.738 17.74 30.74-17.74v-35.48l-30.74-17.74" stroke="#C5C9E0" vector-effect="non-scaling-stroke" opacity=".5" stroke-dasharray="10"/><path stroke="#C5C9E0" vector-effect="non-scaling-stroke" opacity=".5" d="M891.864 463.548v-35.48l-30.74-17.74-30.738 17.74m92.216-17.744v-35.48l-30.738-17.74-30.74 17.74v35.48l30.74 17.74z"/><path stroke="#C5C9E0" vector-effect="non-scaling-stroke" opacity=".5" d="M953.34 463.548v-35.48l-30.739-17.74-30.738 17.74v35.48l30.738 17.74zm30.739-53.224v-35.48l-30.738-17.74-30.74 17.74v35.48l30.74 17.74z"/><path stroke="#C5C9E0" vector-effect="non-scaling-stroke" opacity=".5" d="M1014.817 463.548v-35.48l-30.739-17.74-30.738 17.74v35.48l30.738 17.74zm30.739-53.224v-35.48l-30.74-17.74-30.737 17.74v35.48l30.738 17.74zm30.738 53.224v-35.48l-30.738-17.74-30.739 17.74v35.48l30.74 17.74z"/><path stroke="#C5C9E0" vector-effect="non-scaling-stroke" opacity=".5" d="M1076.294 357.103l-30.738 17.74v35.48l30.738 17.742 30.74-17.741m30.737 53.224v-35.48l-30.738-17.74-30.74 17.74v35.48l30.74 17.74z"/><path stroke="#C5C9E0" vector-effect="non-scaling-stroke" opacity=".5" d="M1107.033 410.324l30.737 17.74 30.74-17.74m30.738 53.224v-35.48l-30.74-17.74-30.737 17.74v35.48l30.738 17.74zm-30.738-53.224l30.739 17.74 30.738-17.74"/><path stroke="#C5C9E0" vector-effect="non-scaling-stroke" opacity=".5" d="M1260.725 463.548v-35.48l-30.74-17.74-30.737 17.74v35.48l30.738 17.74zm-30.739-53.224l30.74 17.74 30.738-17.74m30.738 53.224v-35.48l-30.74-17.74-30.737 17.74v35.48l30.738 17.74z"/><path stroke="#C5C9E0" vector-effect="non-scaling-stroke" opacity=".5" d="M1291.463 410.324l30.74 17.74 30.737-17.74m30.739 53.224v-35.48l-30.738-17.74-30.74 17.74v35.48l30.74 17.74zm-30.739-53.224l30.738 17.74 30.74-17.74v-35.48"/><path stroke="#C5C9E0" vector-effect="non-scaling-stroke" opacity=".5" d="M1445.155 463.548v-35.48l-30.737-17.74-30.74 17.74v35.48l30.74 17.74zm30.739-53.224v-35.48l-30.74-17.74-30.737 17.74v35.48l30.738 17.74zm30.739 53.224v-35.48l-30.74-17.74-30.737 17.74v35.48l30.737 17.74z"/><path stroke="#C5C9E0" vector-effect="non-scaling-stroke" opacity=".5" d="M1537.371 410.324v-35.48l-30.738-17.74-30.74 17.74v35.48l30.74 17.74zm30.739 53.224v-35.48l-30.74-17.74-30.738 17.74v35.48l30.738 17.74z"/><path stroke="#C5C9E0" vector-effect="non-scaling-stroke" opacity=".5" d="M1598.848 410.324v-35.48l-30.738-17.74-30.74 17.74v35.48l30.74 17.74zm30.738 53.224v-35.48l-30.739-17.74-30.738 17.74v35.48l30.738 17.74zm-30.738-88.704v35.48l30.74 17.74 30.737-17.74M922.602 517.017v-35.48l-30.738-17.74m61.476 106.444v-35.48l-30.739-17.74"/><path stroke="#C5C9E0" vector-effect="non-scaling-stroke" opacity=".5" d="M984.079 517.017v-35.48l-30.738-17.74-30.74 17.74v35.48l30.74 17.74zm30.738 53.224v-35.48l-30.739-17.74-30.738 17.74v35.48l30.738 17.74zm30.739-53.224v-35.48l-30.74-17.74-30.737 17.74v35.48l30.738 17.74z"/><path stroke="#C5C9E0" vector-effect="non-scaling-stroke" opacity=".5" d="M1076.294 534.76l-30.738-17.74-30.739 17.74v35.48m92.216-53.223v-35.48l-30.74-17.74-30.737 17.74v35.48l30.737 17.74z"/><path stroke="#C5C9E0" vector-effect="non-scaling-stroke" opacity=".5" d="M1137.771 534.76l-30.738-17.74-30.74 17.74m92.217-17.743v-35.48l-30.74-17.74-30.738 17.74v35.48l30.738 17.74zm0 .003l-30.74 17.74"/><path stroke="#C5C9E0" vector-effect="non-scaling-stroke" opacity=".5" d="M1229.986 481.536l-30.737-17.74-30.74 17.74v35.48"/><path stroke="#C5C9E0" vector-effect="non-scaling-stroke" opacity=".5" d="M1291.463 481.536l-30.738-17.74-30.739 17.74m122.954 35.481v-35.48l-30.739-17.74-30.738 17.74m92.216 88.704v-35.48l-30.738-17.74m61.476-.004v-35.48l-30.74-17.74-30.737 17.74v35.48l30.738 17.74zm61.477 0v-35.48l-30.74-17.74-30.737 17.74v35.48l30.738 17.74zm0 .003l-30.74 17.74"/><path stroke="#C5C9E0" vector-effect="non-scaling-stroke" opacity=".5" d="M1537.371 481.536l-30.738-17.74-30.74 17.74v35.48"/><path stroke="#C5C9E0" vector-effect="non-scaling-stroke" opacity=".5" d="M1598.848 481.536l-30.738-17.74-30.74 17.74"/><path stroke="#C5C9E0" vector-effect="non-scaling-stroke" opacity=".5" d="M1660.325 481.536l-30.738-17.74-30.74 17.74"/><path d="M1414.417 19.038l30.738-17.74m0-.001l30.74 17.74 30.738-17.74" opacity=".5" stroke="#C5C9E0"/><path stroke="#C5C9E0" vector-effect="non-scaling-stroke" opacity=".5" d="M1322.202 107.99l30.74 17.74 30.737-17.74m30.738-53.224v-35.48m-30.738 88.704l30.739 17.74 30.738-17.74V72.51l-30.738-17.74m61.476-.004v-35.48l-30.74-17.74-30.737 17.74v35.48l30.738 17.74z"/><path stroke="#C5C9E0" vector-effect="non-scaling-stroke" opacity=".5" d="M1506.633 107.99V72.51l-30.74-17.74-30.737 17.74v35.48l30.737 17.74zm0-106.445l-30.74 17.74v35.48l30.74 17.742 30.737-17.742"/><path stroke="#C5C9E0" vector-effect="non-scaling-stroke" opacity=".5" d="M1537.371 54.769l-30.738 17.74v35.48l30.738 17.742m-645.507 88.951v-35.48l-30.74-17.74-30.738 17.74v35.48l30.738 17.74zm30.738-53.224v-35.48l-30.738-17.74-30.74 17.74v35.48l30.74 17.74z"/><path stroke="#C5C9E0" vector-effect="non-scaling-stroke" opacity=".5" d="M953.34 214.682v-35.48l-30.739-17.74-30.738 17.74v35.48l30.738 17.74zm0-106.445l-30.739 17.74v35.48l30.74 17.742m-.001.003v35.48l30.738 17.74m276.647-53.22l-30.74-17.74-30.737 17.74m92.215-17.744v-35.48l-30.738-17.74-30.739 17.74v35.48l30.74 17.74z"/><path d="M1322.202 179.202l-30.74-17.74-30.737 17.74m92.215-17.744v-35.48l-30.739-17.74-30.738 17.74v35.48l30.738 17.74 30.74-17.74z" stroke="#C5C9E0" vector-effect="non-scaling-stroke" opacity=".5" stroke-dasharray="10"/><path stroke="#C5C9E0" vector-effect="non-scaling-stroke" opacity=".5" d="M1383.679 179.202l-30.738-17.74-30.74 17.74"/><path d="M1414.417 161.458v-35.48l-30.74-17.74-30.737 17.74v35.48l30.738 17.74 30.74-17.74z" stroke="#C5C9E0" vector-effect="non-scaling-stroke" opacity=".5" stroke-dasharray="10"/><path stroke="#C5C9E0" vector-effect="non-scaling-stroke" opacity=".5" d="M1414.417 232.423l30.738-17.74v-35.48l-30.738-17.742-30.74 17.742"/><path d="M1475.894 161.458v-35.48l-30.74-17.74-30.737 17.74v35.48l30.738 17.74 30.739-17.74z" stroke="#C5C9E0" vector-effect="non-scaling-stroke" opacity=".5" stroke-dasharray="10"/><path stroke="#C5C9E0" vector-effect="non-scaling-stroke" opacity=".5" d="M1506.633 214.682v-35.48l-30.74-17.74-30.737 17.74v35.48l30.737 17.74zm30.738-53.224v-35.48l-30.738-17.74-30.74 17.74v35.48l30.74 17.74z"/><path stroke="#C5C9E0" vector-effect="non-scaling-stroke" opacity=".5" d="M1568.11 214.682v-35.48l-30.74-17.74-30.738 17.74v35.48l30.738 17.74zm-30.739-88.704v35.48l30.74 17.74m-.001.004v35.48l30.737 17.74 30.74-17.74M891.864 321.375v-35.48l-30.74-17.74-30.738 17.74v35.48l30.738 17.74zm30.738-53.224v-35.48l-30.738-17.742-30.74 17.742v35.48l30.74 17.74z"/><path stroke="#C5C9E0" vector-effect="non-scaling-stroke" opacity=".5" d="M953.34 321.375v-35.48l-30.739-17.74-30.738 17.74v35.48l30.738 17.74zm30.739-53.224v-35.48l-30.738-17.742-30.74 17.742v35.48l30.74 17.74z"/><path d="M1014.817 321.375v-35.48l-30.739-17.74-30.738 17.74v35.48l30.738 17.74 30.74-17.74z" stroke="#C5C9E0" vector-effect="non-scaling-stroke" opacity=".5" stroke-dasharray="10"/><path stroke="#C5C9E0" vector-effect="non-scaling-stroke" opacity=".5" d="M984.079 232.67v35.48l30.739 17.74 30.738-17.74v-35.48m368.861 35.481v-35.48m61.477 35.48v-35.48l-30.74-17.742-30.737 17.742v35.48l30.738 17.74z"/><path stroke="#C5C9E0" vector-effect="non-scaling-stroke" opacity=".5" d="M1537.371 268.151v-35.48l-30.738-17.742-30.74 17.742v35.48l30.74 17.74zm30.739 53.224v-35.48l-30.74-17.74-30.738 17.74v35.48l30.738 17.74z"/><path stroke="#C5C9E0" vector-effect="non-scaling-stroke" opacity=".5" d="M1598.848 268.151v-35.48l-30.738-17.742-30.74 17.742v35.48l30.74 17.74zm0 .003l-30.738 17.74v35.48l30.738 17.742m-891.415 88.952l30.74 17.74 30.737-17.74v-35.48l-30.738-17.74m-.001-.004l30.738 17.74 30.74-17.74"/><path stroke="#C5C9E0" vector-effect="non-scaling-stroke" opacity=".5" d="M830.386 428.068v-35.48l-30.737-17.74-30.74 17.74v35.48l30.74 17.74zm-30.738-53.224l30.738 17.74 30.74-17.74v-35.48l-30.74-17.74m61.478 106.444v-35.48l-30.74-17.74-30.738 17.74v35.48l30.738 17.74z"/><path stroke="#C5C9E0" vector-effect="non-scaling-stroke" opacity=".5" d="M922.602 374.844v-35.48l-30.738-17.74-30.74 17.74v35.48l30.74 17.74zm30.738 53.224v-35.48l-30.739-17.74-30.738 17.74v35.48l30.738 17.74z"/><path stroke="#C5C9E0" vector-effect="non-scaling-stroke" opacity=".5" d="M984.079 374.844v-35.48l-30.738-17.74-30.74 17.74v35.48l30.74 17.74zm30.738 53.224v-35.48l-30.739-17.74-30.738 17.74v35.48l30.738 17.74z"/><path d="M1045.556 374.844v-35.48l-30.74-17.74-30.737 17.74v35.48l30.738 17.74 30.739-17.74z" stroke="#C5C9E0" vector-effect="non-scaling-stroke" opacity=".5" stroke-dasharray="10"/><path stroke="#C5C9E0" vector-effect="non-scaling-stroke" opacity=".5" d="M1076.294 428.068v-35.48l-30.738-17.74-30.739 17.74v35.48l30.74 17.74zm0-106.445l-30.738 17.74v35.48l30.738 17.742m0 .002v35.48l30.74 17.742 30.737-17.742v-35.48"/><path stroke="#C5C9E0" vector-effect="non-scaling-stroke" opacity=".5" d="M1137.771 392.587v35.48l30.74 17.742 30.737-17.742v-35.48m0 0v35.48l30.738 17.742 30.74-17.742v-35.48"/><path stroke="#C5C9E0" vector-effect="non-scaling-stroke" opacity=".5" d="M1260.725 392.587v35.48l30.738 17.742 30.74-17.742v-35.48"/><path stroke="#C5C9E0" vector-effect="non-scaling-stroke" opacity=".5" d="M1322.202 392.587v35.48l30.74 17.742 30.737-17.742v-35.48m0-.003l30.739-17.74v-35.48"/><path stroke="#C5C9E0" vector-effect="non-scaling-stroke" opacity=".5" d="M1445.155 428.068v-35.48l-30.737-17.74-30.74 17.74v35.48l30.74 17.74zm61.478 0v-35.48l-30.74-17.74-30.737 17.74v35.48l30.737 17.74zm30.738-53.224v-35.48l-30.738-17.74-30.74 17.74v35.48l30.74 17.74z"/><path d="M1568.11 428.068v-35.48l-30.74-17.74-30.738 17.74v35.48l30.738 17.74 30.74-17.74z" stroke="#C5C9E0" vector-effect="non-scaling-stroke" opacity=".5" stroke-dasharray="10"/><path stroke="#C5C9E0" vector-effect="non-scaling-stroke" opacity=".5" d="M1598.848 374.844v-35.48l-30.738-17.74-30.74 17.74v35.48l30.74 17.74zm0 .003l-30.738 17.74v35.48l30.738 17.742 30.74-17.742m-30.74-88.704v35.48m-891.415 53.472l30.74 17.74m-.002.001l30.738-17.74 30.74 17.74"/><path stroke="#C5C9E0" vector-effect="non-scaling-stroke" opacity=".5" d="M861.125 446.056l-30.74-17.74-30.737 17.74"/><path stroke="#C5C9E0" vector-effect="non-scaling-stroke" opacity=".5" d="M922.602 481.536v-35.48l-30.738-17.74-30.74 17.74M922.602 552.5l30.74-17.74v-35.48l-30.74-17.741"/><path stroke="#C5C9E0" vector-effect="non-scaling-stroke" opacity=".5" d="M984.079 481.536v-35.48l-30.738-17.74-30.74 17.74v35.48l30.74 17.74zm30.738 53.224v-35.48l-30.739-17.74-30.738 17.74v35.48l30.738 17.74zm30.739-53.224v-35.48l-30.74-17.74-30.737 17.74v35.48l30.738 17.74zm30.738 53.224v-35.48l-30.738-17.74-30.739 17.74v35.48"/><path stroke="#C5C9E0" vector-effect="non-scaling-stroke" opacity=".5" d="M1107.033 481.536v-35.48l-30.74-17.74-30.737 17.74v35.48l30.737 17.74zm30.738 53.224v-35.48l-30.738-17.74-30.74 17.74v35.48l30.74 17.74z"/><path stroke="#C5C9E0" vector-effect="non-scaling-stroke" opacity=".5" d="M1168.51 481.536v-35.48l-30.74-17.74-30.738 17.74v35.48l30.738 17.74zm30.738 17.744l-30.74-17.74-30.737 17.74v35.48l30.738 17.74"/><path stroke="#C5C9E0" vector-effect="non-scaling-stroke" opacity=".5" d="M1229.986 481.536v-35.48l-30.737-17.74-30.74 17.74v35.48l30.74 17.74zm30.739 17.744l-30.74-17.74-30.737 17.74"/><path stroke="#C5C9E0" vector-effect="non-scaling-stroke" opacity=".5" d="M1291.463 481.536v-35.48l-30.738-17.74-30.739 17.74v35.48l30.74 17.74zm30.739 17.744l-30.74-17.74-30.737 17.74m92.215-17.744v-35.48l-30.739-17.74-30.738 17.74v35.48l30.738 17.74zm-30.738 17.744l30.74-17.74 30.737 17.74v35.48l-30.738 17.74"/><path stroke="#C5C9E0" vector-effect="non-scaling-stroke" opacity=".5" d="M1414.417 481.536v-35.48l-30.74-17.74-30.737 17.74v35.48l30.738 17.74zm30.738 53.224v-35.48l-30.737-17.74-30.74 17.74v35.48l30.74 17.74z"/><path d="M1475.894 481.536v-35.48l-30.74-17.74-30.737 17.74v35.48l30.738 17.74 30.739-17.74z" stroke="#C5C9E0" vector-effect="non-scaling-stroke" opacity=".5" stroke-dasharray="10"/><path stroke="#C5C9E0" vector-effect="non-scaling-stroke" opacity=".5" d="M1475.894 481.54l-30.74 17.74v35.48l30.74 17.741"/><path d="M1537.371 481.536v-35.48l-30.738-17.74-30.74 17.74v35.48" stroke="#C5C9E0" vector-effect="non-scaling-stroke" opacity=".5" stroke-dasharray="10"/><path stroke="#C5C9E0" vector-effect="non-scaling-stroke" opacity=".5" d="M1598.848 481.536v-35.48l-30.738-17.74-30.74 17.74v35.48"/><path stroke="#C5C9E0" vector-effect="non-scaling-stroke" opacity=".5" d="M1660.325 481.536v-35.48l-30.738-17.74-30.74 17.74v35.48"/><path stroke="#5468FF" d="M-183.983 116.86v44.601l30.738 17.74v35.729l30.74 17.74v35.482l30.737-17.742 30.74 17.742v35.48l-30.74 17.99 30.74 17.742v35.48l30.738-17.74 30.737 17.74 30.74 17.743v35.729l30.737 17.74v35.48l30.74-17.74 30.738 17.74 30.739-17.74 30.738 17.74v-35.48l30.738-17.74 30.739 17.74 30.738-17.74 30.739 17.74v35.48l30.738 17.743 30.74-17.74 30.737 17.74 30.74-17.743 30.737-17.74v-35.48l30.738-17.992 30.74 17.992 30.737-17.992 61.477 35.732 61.477-35.732 61.477 35.732 61.478-35.732 30.737 17.992 30.74-17.992v-35.48l30.738-17.74v-35.482l-30.738-17.99v-35.48l30.738-17.742 30.737 17.742v35.48l30.74 17.99v35.482l30.737 17.74-30.737 17.743v35.729l30.737 17.74 30.74-17.74 30.738 17.74v35.48l30.737 17.743 61.477-35.483 30.74 17.74v-35.48l30.738-17.74 30.739 17.74 30.738-17.74 30.738 17.74v35.48l30.739-17.74 30.738 17.74 30.74-17.74v-35.48l30.737-17.992v-35.477l30.74-17.743 30.737 17.74 30.74-17.989v-70.963l-30.74-17.74 30.74-17.742v-35.48l30.737-17.99 61.477 35.73 61.477-35.73"/></g></svg>