<svg width="427" height="48" viewBox="0 0 427 48" xmlns="http://www.w3.org/2000/svg"><title>docsearch-logo</title><g fill="none" fill-rule="evenodd"><path d="M116.6 6.996c5.35 0 9.61 1.792 12.783 5.376a15.45 15.45 0 0 1 3.148 5.352c.69 2 1.034 4.008 1.034 6.024s-.344 4.024-1.033 6.024a15.45 15.45 0 0 1-3.147 5.352C126.21 38.708 121.95 40.5 116.6 40.5h-9.66c-.608 0-1.12-.208-1.537-.624-.417-.416-.625-.928-.625-1.536V9.204c0-.608.208-1.128.625-1.56.416-.432.93-.648 1.538-.648h9.66zm-.53 29.424c3.974 0 7.178-1.168 9.613-3.504 2.37-2.336 3.556-5.392 3.556-9.168 0-3.776-1.187-6.832-3.557-9.168-2.435-2.336-5.64-3.504-9.612-3.504h-6.92V36.42h6.92zm42.603-29.904c5.062 0 9.13 1.616 12.207 4.848 2.98 3.168 4.533 7.296 4.66 12.384-.127 5.088-1.68 9.216-4.66 12.384-3.076 3.232-7.145 4.848-12.207 4.848-5.094 0-9.162-1.616-12.206-4.848-3.043-3.2-4.597-7.328-4.66-12.384.063-5.056 1.617-9.184 4.66-12.384 3.044-3.232 7.112-4.848 12.206-4.848zm0 30.384c3.91 0 6.985-1.264 9.227-3.792 2.18-2.432 3.268-5.552 3.268-9.36s-1.09-6.928-3.268-9.36c-2.242-2.528-5.318-3.792-9.227-3.792-3.908 0-6.984 1.264-9.226 3.792-2.18 2.432-3.268 5.552-3.268 9.36s1.088 6.928 3.267 9.36c2.242 2.528 5.318 3.792 9.226 3.792zm51.205-2.352c.256-.128.616-.192 1.08-.192.466 0 .866.184 1.202.552.337.368.505.792.505 1.272 0 .864-.352 1.472-1.057 1.824a29.182 29.182 0 0 1-4.83 2.112c-1.714.576-3.764.864-6.15.864-2.388 0-4.607-.392-6.657-1.176-2.05-.784-3.827-1.928-5.333-3.432-3.204-3.136-4.806-7.344-4.806-12.624s1.603-9.488 4.807-12.624c3.107-3.072 7.112-4.608 12.014-4.608 2.372 0 4.414.288 6.128.864 1.714.576 3.028 1.112 3.94 1.608.914.496 1.466.896 1.66 1.2.19.304.287.688.287 1.152 0 .464-.168.88-.505 1.248-.336.368-.736.552-1.2.552-.466 0-.826-.064-1.082-.192a23.278 23.278 0 0 0-3.94-1.632c-1.346-.416-3.02-.624-5.023-.624-2.002 0-3.812.336-5.43 1.008-1.618.672-2.972 1.6-4.06 2.784-2.148 2.336-3.22 5.424-3.22 9.264 0 3.84 1.072 6.928 3.22 9.264 2.338 2.528 5.558 3.792 9.658 3.792 1.89 0 3.51-.208 4.854-.624 1.346-.416 2.66-.96 3.94-1.632zm22.61 2.304c5.607 0 8.41-1.84 8.41-5.52 0-1.536-1.073-2.768-3.22-3.696-.93-.384-2.01-.728-3.243-1.032a130.736 130.736 0 0 1-3.75-.984 51.043 51.043 0 0 1-3.747-1.2c-1.234-.448-2.33-1.024-3.292-1.728-2.115-1.6-3.172-3.712-3.172-6.336 0-2.816 1.057-5.12 3.172-6.912 2.307-1.952 5.398-2.928 9.275-2.928 3.493 0 6.68.528 9.564 1.584.897.32 1.346.96 1.346 1.92 0 .48-.17.936-.505 1.368-.336.432-.705.648-1.105.648s-.953-.128-1.658-.384c-2.083-.736-4.47-1.104-7.16-1.104-2.468 0-4.502.464-6.104 1.392-1.634.96-2.45 2.32-2.45 4.08 0 1.824 1.057 3.2 3.17 4.128.962.448 2.05.816 3.27 1.104 1.216.288 2.466.592 3.747.912 1.282.32 2.53.696 3.75 1.128 1.216.432 2.305 1 3.267 1.704 2.114 1.536 3.17 3.744 3.17 6.624 0 2.752-1.104 4.992-3.315 6.72-2.274 1.76-5.27 2.64-8.986 2.64-4.068 0-7.88-.768-11.437-2.304a2.49 2.49 0 0 1-.937-.768c-.272-.352-.408-.776-.408-1.272s.176-.944.528-1.344c.353-.4.76-.6 1.226-.6.464 0 1.04.152 1.73.456.69.304 1.818.664 3.388 1.08 1.57.416 3.396.624 5.478.624zm45.366.168c.4.4.6.888.6 1.464s-.2 1.056-.6 1.44c-.4.384-.89.576-1.466.576h-19.27c-.61 0-1.122-.208-1.538-.624-.417-.416-.625-.928-.625-1.536V9.204c0-.608.208-1.128.625-1.56.416-.432.93-.648 1.537-.648h19.27c.578 0 1.066.2 1.467.6.4.4.6.888.6 1.464s-.2 1.056-.6 1.44c-.4.384-.89.576-1.466.576h-17.06v10.608h15.33c.577 0 1.065.2 1.466.6.4.4.6.888.6 1.464s-.2 1.056-.6 1.44c-.4.384-.89.576-1.466.576h-15.33V36.42h17.06c.577 0 1.065.2 1.466.6zm38.157.6c.16.384.24.792.24 1.224 0 .432-.19.856-.576 1.272-.384.416-.993.624-1.826.624-.833 0-1.442-.448-1.826-1.344l-3.124-7.488h-16.34l-3.123 7.488c-.384.896-.993 1.344-1.826 1.344-.834 0-1.443-.208-1.827-.624-.384-.416-.577-.84-.577-1.272 0-.432.08-.84.24-1.224l12.255-28.896c.578-1.312 1.507-1.968 2.788-1.968h.48c1.282 0 2.212.656 2.788 1.968L316.01 37.62zm-8.794-9.696l-6.487-15.6-6.49 15.6h12.976zM351.26 38.58c0 .608-.208 1.12-.625 1.536-.416.416-.945.624-1.586.624-.64 0-1.162-.2-1.562-.6-.4-.4-.6-.92-.6-1.56v-1.44c0-2.592-.29-4.496-.866-5.712-.577-1.216-1.362-2.184-2.355-2.904-.993-.72-2.403-1.08-4.23-1.08h-9.947V38.58c0 .608-.216 1.12-.648 1.536a2.172 2.172 0 0 1-1.562.624c-.61 0-1.12-.208-1.538-.624-.416-.416-.625-.928-.625-1.536V9.204c0-.608.21-1.128.625-1.56.417-.432.93-.648 1.538-.648h11.197c4.39 0 7.705.928 9.948 2.784 2.082 1.76 3.123 4.08 3.123 6.96 0 1.856-.52 3.584-1.56 5.184-1.043 1.6-2.62 2.768-4.735 3.504 2.307.608 3.973 2.272 4.998 4.992.674 1.824 1.01 3.808 1.01 5.952v2.208zm-13.07-15.264c2.69 0 4.86-.528 6.51-1.584 1.65-1.056 2.475-2.608 2.475-4.656 0-1.92-.64-3.36-1.922-4.32-1.538-1.088-3.973-1.632-7.305-1.632h-8.458v12.192h8.7zm48.223 11.232c.257-.128.617-.192 1.082-.192.464 0 .865.184 1.2.552.338.368.506.792.506 1.272 0 .864-.352 1.472-1.057 1.824a29.182 29.182 0 0 1-4.83 2.112c-1.713.576-3.764.864-6.15.864-2.387 0-4.606-.392-6.656-1.176-2.05-.784-3.83-1.928-5.335-3.432-3.203-3.136-4.805-7.344-4.805-12.624s1.602-9.488 4.805-12.624c3.108-3.072 7.113-4.608 12.015-4.608 2.37 0 4.413.288 6.127.864 1.714.576 3.027 1.112 3.94 1.608.913.496 1.466.896 1.658 1.2.193.304.29.688.29 1.152 0 .464-.17.88-.506 1.248-.336.368-.737.552-1.2.552-.466 0-.826-.064-1.083-.192a23.278 23.278 0 0 0-3.94-1.632c-1.346-.416-3.02-.624-5.022-.624-2 0-3.812.336-5.43 1.008-1.617.672-2.97 1.6-4.06 2.784-2.147 2.336-3.22 5.424-3.22 9.264 0 3.84 1.073 6.928 3.22 9.264 2.338 2.528 5.558 3.792 9.66 3.792 1.89 0 3.507-.208 4.853-.624 1.345-.416 2.66-.96 3.94-1.632zm37.22-27.792c.61 0 1.13.216 1.562.648.433.432.65.952.65 1.56V38.58c0 .608-.217 1.12-.65 1.536a2.172 2.172 0 0 1-1.562.624c-.61 0-1.12-.208-1.538-.624-.416-.416-.624-.928-.624-1.536V25.812h-18.213V38.58c0 .608-.216 1.12-.65 1.536a2.172 2.172 0 0 1-1.56.624c-.61 0-1.122-.208-1.538-.624-.418-.416-.626-.928-.626-1.536V8.964c0-.608.208-1.128.625-1.56.415-.432.928-.648 1.537-.648.608 0 1.13.216 1.56.648.434.432.65.952.65 1.56v12.768h18.214V8.964c0-.608.21-1.128.625-1.56.417-.432.93-.648 1.538-.648z" stroke="#FFF" stroke-width=".6" fill="#FFF"/><g transform="translate(2 3)"><path d="M.34 0H45.48C57.132 0 66.58 9.4 66.58 21c0 11.598-9.46 21-21.123 21H.977" stroke="#FB366E" stroke-width="4.5" stroke-linecap="round" stroke-linejoin="round"/><path d="M14.96 31.5h31.983M14.63 21h40.15M14.96 10.5h31.983" stroke="#FFF" stroke-width="4.5" stroke-linecap="round" stroke-linejoin="round"/><ellipse fill="#FB366E" cx="5.758" cy="21" rx="2.253" ry="2.25"/><ellipse fill="#FB366E" cx="5.758" cy="31.5" rx="2.253" ry="2.25"/><ellipse fill="#FB366E" cx="5.758" cy="10.5" rx="2.253" ry="2.25"/></g></g></svg>