<svg width="67" height="68" viewBox="0 0 67 68" xmlns="http://www.w3.org/2000/svg"><title>illus-backend</title><g fill="#FFF" fill-rule="evenodd"><path d="M33.295 67.3C14.972 67.3.118 52.448.118 34.125S14.972.947 33.295.947 66.472 15.8 66.472 34.124 51.618 67.3 33.295 67.3z"/><path d="M46 35.397a5.276 5.276 0 0 0-3.277-4.896c-1.52-3.757-3.98-5.284-6.99-5.284-2.83 0-5.28 1.628-6.483 4.01-1.913-.822-4.07.545-4.15 2.66a4.52 4.52 0 0 0-2.992 4.265c0 2.5 2.006 4.526 4.48 4.526H41.52s4.48-.84 4.48-5.28" stroke="#C04E83" stroke-width="1.4"/><path d="M21.237 46.162c-3.885-3.724-5.83-8.92-5.336-14.255.894-9.642 9.515-16.763 19.218-15.876l-.323 3.5L46 13.5l-9.91-7.96-.324 3.497C22.182 7.795 10.113 17.765 8.863 31.263c-.692 7.468 2.03 14.74 7.466 19.953l4.907-5.054zM45.466 21.135c3.885 3.725 5.83 8.92 5.336 14.255-.894 9.642-9.515 16.764-19.217 15.876l.323-3.497-11.205 6.027 9.91 7.96.323-3.497C44.52 59.502 56.59 49.532 57.84 36.035c.692-7.468-2.03-14.74-7.466-19.954l-4.908 5.055z" stroke="#C04E83" stroke-width="1.4"/></g></svg>