<svg width="67" height="68" viewBox="0 0 67 68" xmlns="http://www.w3.org/2000/svg"><title>illus-backend</title><g fill="#FFF" fill-rule="evenodd"><path d="M33.295 67.3C14.972 67.3.118 52.448.118 34.125S14.972.947 33.295.947s33.177 14.854 33.177 33.177S51.618 67.3 33.295 67.3z"/><path d="M46 35.397a5.276 5.276 0 0 0-3.277-4.896c-1.52-3.758-3.98-5.285-6.99-5.285-2.829 0-5.28 1.628-6.483 4.011-1.913-.823-4.07.544-4.15 2.66a4.52 4.52 0 0 0-2.992 4.264c0 2.499 2.006 4.525 4.48 4.525H41.52S46 39.836 46 35.396" stroke="#C04E83" stroke-width="1.4"/><path d="M21.237 46.162c-3.885-3.724-5.83-8.92-5.336-14.255.893-9.642 9.514-16.763 19.217-15.876l-.323 3.498L46 13.499l-9.91-7.958-.324 3.496C22.182 7.795 10.113 17.765 8.863 31.263c-.692 7.468 2.03 14.74 7.466 19.953l4.908-5.054zM45.466 21.135c3.885 3.725 5.83 8.921 5.336 14.255-.894 9.642-9.515 16.764-19.217 15.876l.323-3.497-11.205 6.028 9.909 7.96.324-3.497c13.585 1.242 25.654-8.728 26.904-22.225.692-7.468-2.03-14.74-7.466-19.954l-4.908 5.054z" stroke="#C04E83" stroke-width="1.4"/></g></svg>