<svg width="63" height="63" viewBox="0 0 63 63" xmlns="http://www.w3.org/2000/svg"><title>illus-web</title><g fill="#FFF" fill-rule="evenodd"><path d="M63 31.5C63 48.897 48.897 63 31.5 63S0 48.897 0 31.5 14.103 0 31.5 0 63 14.103 63 31.5"/><path d="M53.998 43.91c0 1.124-.91 2.036-2.036 2.036H11.235a2.036 2.036 0 0 1-2.037-2.037V15.4c0-1.125.912-2.037 2.037-2.037h40.727c1.125 0 2.036.912 2.036 2.037v28.51z" stroke="#2897C5" stroke-width="1.4"/><path d="M37.708 51.164h-12.22v-5.218h12.22v5.218zM41.78 52.182c0 .562-.456 1.018-1.018 1.018H22.435a1.018 1.018 0 0 1 0-2.036h18.327c.562 0 1.018.455 1.018 1.018M53.998 43.91V37.8h-44.8v6.11c0 1.124.912 2.036 2.037 2.036h40.727c1.125 0 2.036-.912 2.036-2.037" stroke="#2897C5" stroke-width="1.4"/><path d="M31.598 44.37a2.372 2.372 0 0 1-2.37-2.37 2.372 2.372 0 0 1 2.37-2.37 2.372 2.372 0 0 1 2.37 2.37 2.372 2.372 0 0 1-2.37 2.37" stroke="#2897C5" stroke-width="1.4"/><g stroke="#009FC7" stroke-width="1.4"><path d="M25.182 21l.718 1.11-5.71 3.448 5.71 3.465-.782 1.077-6.218-3.834v-1.432L25.182 21zM45.5 25.534v1.436l-6.218 3.83-.782-1.077 5.71-3.465-5.71-3.444.718-1.114 6.282 3.834zM29.14 33.6L28 33.07l6.577-14.17 1.123.56-6.56 14.14z"/></g></g></svg>