<svg width="82" height="83" viewBox="0 0 82 83" xmlns="http://www.w3.org/2000/svg"><title>illus-autocomplete</title><defs><radialGradient cx="79.104%" cy="82.387%" fx="79.104%" fy="82.387%" r="83.688%" id="a"><stop stop-color="#4A0606" offset="0%"/><stop stop-color="#1198B2" offset="100%"/></radialGradient></defs><g transform="translate(1 1)" fill="none" fill-rule="evenodd"><path d="M5.565 40.303c0-18.988 15.335-34.376 34.26-34.376 18.923 0 34.258 15.388 34.258 34.376s-15.335 34.375-34.26 34.375C20.9 74.678 5.566 59.29 5.566 40.303z" fill="#FFF" opacity=".355"/><path d="M.11 40.5C.11 62.6 17.975 80.527 40 80.527S79.89 62.6 79.89 40.5C79.89 18.4 62.025.477 40 .477S.11 18.4.11 40.5z" stroke="#FFF" stroke-width="2"/><path d="M18.592 75.568a35.17 35.17 0 0 1-6.996-21.11c0-19.465 15.734-35.252 35.133-35.252 11.383 0 21.504 5.437 27.925 13.863a47.067 47.067 0 0 0-9.196-.904c-24.695 0-44.95 19.116-46.868 43.402z" fill="url(#a)" opacity=".476" transform="rotate(-180 43.126 47.387)"/><ellipse fill="#FFF" opacity=".165" cx="27.41" cy="25.691" rx="10.072" ry="10.056"/><ellipse fill="#FFF" opacity=".497" cx="40" cy="39.938" rx="2.518" ry="2.514"/><ellipse fill="#FFF" opacity=".497" cx="29.928" cy="55.022" rx="2.518" ry="2.514"/><ellipse fill="#7AE9F5" opacity=".497" cx="64.34" cy="47.48" rx="1.679" ry="1.676"/><ellipse fill="#82F8FF" opacity=".853" cx="58.465" cy="61.726" rx="2.518" ry="2.514"/><ellipse fill="#FFF" cx="29.928" cy="26.529" rx="4.197" ry="4.19"/><ellipse fill="#FFF" opacity=".152" cx="40" cy="43.29" rx="4.197" ry="4.19"/></g></svg>