<svg width="99" height="30" viewBox="0 0 99 30" xmlns="http://www.w3.org/2000/svg"><title>coming-soon</title><g fill="#FFF" fill-rule="evenodd"><path d="M8.174 3.582c-.71 0-1.26.267-1.65.8-.388.534-.583 1.277-.583 2.23 0 1.984.745 2.976 2.234 2.976.625 0 1.382-.156 2.27-.47v1.583c-.73.306-1.546.458-2.446.458-1.294 0-2.284-.393-2.97-1.178C4.343 9.195 4 8.07 4 6.6c0-.925.168-1.735.505-2.43a3.65 3.65 0 0 1 1.45-1.6c.632-.372 1.37-.558 2.22-.558.863 0 1.73.21 2.604.627l-.61 1.532a10.072 10.072 0 0 0-1.004-.413 2.995 2.995 0 0 0-.992-.178zM20.16 6.576c0 1.472-.364 2.604-1.094 3.395-.73.792-1.777 1.188-3.14 1.188-1.363 0-2.41-.396-3.14-1.187-.73-.79-1.095-1.926-1.095-3.406 0-1.48.367-2.612 1.1-3.393.732-.78 1.78-1.17 3.15-1.17 1.366 0 2.41.393 3.135 1.18.724.787 1.086 1.92 1.086 3.396zm-6.49 0c0 .994.188 1.742.565 2.245.377.504.94.756 1.69.756 1.506 0 2.26-1 2.26-3 0-2.004-.75-3.006-2.246-3.006-.752 0-1.318.252-1.7.757-.38.506-.57 1.255-.57 2.25zm12.102 4.46l-2.142-6.98h-.055c.077 1.42.116 2.368.116 2.842v4.138h-1.685V2.14h2.568l2.105 6.803h.037l2.233-6.803h2.568v8.896h-1.76v-4.21c0-.2.004-.43.01-.688.007-.26.034-.95.083-2.07h-.056L27.5 11.037h-1.728zm7.983 0V2.14h1.886v8.896h-1.885zm12.018 0h-2.398l-3.87-6.73h-.054c.078 1.19.116 2.037.116 2.544v4.186H37.88V2.14h2.38l3.864 6.663h.042a53.946 53.946 0 0 1-.09-2.452V2.14h1.697v8.896zM51.39 6.04h3.528v4.613a9.95 9.95 0 0 1-1.615.392c-.505.075-1.02.113-1.55.113-1.342 0-2.367-.395-3.075-1.184-.708-.79-1.06-1.922-1.06-3.398 0-1.436.41-2.556 1.23-3.36.822-.802 1.96-1.204 3.417-1.204a6.61 6.61 0 0 1 2.64.548l-.626 1.51a4.476 4.476 0 0 0-2.027-.488c-.815 0-1.468.274-1.96.822-.49.547-.735 1.283-.735 2.208 0 .966.197 1.703.593 2.212.396.51.97.764 1.726.764.393 0 .793-.04 1.2-.122V7.61h-1.687V6.04zm14.134 2.526c0 .803-.29 1.436-.867 1.898-.578.463-1.382.694-2.412.694-.95 0-1.79-.18-2.52-.536V8.87c.6.268 1.11.456 1.525.566.416.11.796.164 1.14.164.414 0 .732-.08.953-.237.22-.158.332-.394.332-.706a.78.78 0 0 0-.147-.466 1.634 1.634 0 0 0-.428-.39c-.19-.127-.573-.328-1.154-.604-.543-.255-.95-.5-1.223-.736a2.764 2.764 0 0 1-.65-.82 2.344 2.344 0 0 1-.244-1.097c0-.786.266-1.405.8-1.855.532-.45 1.27-.676 2.21-.676.463 0 .905.055 1.324.164.42.11.86.264 1.318.463l-.61 1.465a8.903 8.903 0 0 0-1.176-.407 3.79 3.79 0 0 0-.916-.116c-.357 0-.63.083-.82.25a.823.823 0 0 0-.287.65c0 .167.038.312.115.436.077.123.2.243.368.36.17.114.567.322 1.196.622.832.398 1.402.797 1.71 1.196.308.4.462.89.462 1.47zm9.687-1.99c0 1.472-.364 2.604-1.094 3.395-.73.792-1.777 1.188-3.14 1.188-1.363 0-2.41-.396-3.14-1.187-.73-.79-1.095-1.926-1.095-3.406 0-1.48.367-2.612 1.1-3.393.732-.78 1.78-1.17 3.15-1.17 1.366 0 2.41.393 3.135 1.18.724.787 1.086 1.92 1.086 3.396zm-6.49 0c0 .994.188 1.742.565 2.245.377.504.94.756 1.69.756 1.506 0 2.26-1 2.26-3 0-2.004-.75-3.006-2.246-3.006-.752 0-1.318.252-1.7.757-.38.506-.57 1.255-.57 2.25zm16.41 0c0 1.472-.365 2.604-1.095 3.395-.73.792-1.777 1.188-3.14 1.188-1.363 0-2.41-.396-3.14-1.187-.73-.79-1.095-1.926-1.095-3.406 0-1.48.366-2.612 1.098-3.393C78.49 2.39 79.54 2 80.908 2c1.366 0 2.412.393 3.136 1.18.724.787 1.086 1.92 1.086 3.396zm-6.493 0c0 .994.19 1.742.566 2.245.377.504.94.756 1.692.756 1.505 0 2.257-1 2.257-3 0-2.004-.748-3.006-2.245-3.006-.75 0-1.316.252-1.698.757-.382.506-.573 1.255-.573 2.25zm16.23 4.46h-2.4l-3.87-6.73h-.054c.078 1.19.116 2.037.116 2.544v4.186h-1.686V2.14h2.38l3.863 6.663h.042a53.947 53.947 0 0 1-.092-2.452V2.14h1.698v8.896zM27 22h46v2H27z"/></g></svg>