<svg width="220" height="174" xmlns="http://www.w3.org/2000/svg"><g fill="none" fill-rule="evenodd"><path d="M48.54 21.333l2.521 1.455c3.592 2.073 3.609 5.463.042 7.575l-13.044 7.72c-3.569 2.112-9.358 2.123-12.934.027L13.06 31.037c-3.574-2.096-3.579-5.502-.007-7.606l3.046-1.794 14.811 8.53c.565.326 1.48.33 2.048.007l15.584-8.84z" opacity=".208" fill="#DE5C22"/><path d="M30.712 30.277c.564.325 1.48.329 2.048.006l18.933-10.74c.567-.322 1.026-1.112 1.026-1.76V-3.601c0-.65-.461-1.438-1.026-1.757L33.462-15.652c-.568-.32-1.49-.318-2.056.004L12.717-5.038c-.568.322-1.029 1.114-1.029 1.763V18.14c0 .65.457 1.441 1.022 1.767l18.002 10.369z" stroke="#FFF" stroke-width="2.362" fill="#FFBC4C"/><path d="M32.018 29.763V7.702L51.848-4.09s.149.212.128.71v21.908l-19.314 10.97c-.422.265-.644.265-.644.265z" fill="#FBAA4B"/><path d="M31.902 7.662L11.932-4.187M32.384 7.417L52.58-4.49M31.97 7.607v22.991" stroke="#FFF" stroke-width="1.575" stroke-dasharray="3.779999828338623,8.977499771118163"/><path d="M30.047-1.745V.023s.682 1.101 2.517 1.101 2.566-1.1 2.566-1.1v-1.77" stroke="#FFF" stroke-width=".84"/><path fill="#FFF" d="M30.049-.937v.989l1.127.826 1.405.272 1.833-.474.703-.766v-1.142l-.888.473-1.54.392-1.826-.395z"/><path d="M11.176 153.333l3.15 1.844c4.49 2.629 4.511 6.928.052 9.604l-16.304 9.788c-4.462 2.678-11.698 2.692-16.167.034l-15.083-8.967c-4.468-2.657-4.474-6.975-.009-9.643l3.808-2.275 18.514 10.816c.705.412 1.85.417 2.56.008l19.48-11.209z" opacity=".208" fill="#DE5C22"/><path d="M-11.11 164.673c.706.412 1.85.416 2.56.007l23.666-13.618c.709-.407 1.283-1.409 1.283-2.23V121.72c0-.824-.577-1.823-1.283-2.227L-7.673 106.44c-.709-.406-1.862-.402-2.57.005l-23.36 13.452c-.71.41-1.286 1.412-1.286 2.235v27.152c0 .826.57 1.828 1.277 2.241l22.502 13.147z" stroke="#FFF" stroke-width="2.362" fill-opacity=".73" fill="#FEB74C"/><path d="M-9.477 164.021v-27.97L15.309 121.1s.187.269.161.9v27.777s-16.126 9.287-24.143 13.907c-.527.337-.804.337-.804.337z" fill="#FBAA4B"/><path d="M-9.02 135.69l25.244-15.097" stroke="#FFF" stroke-width="1.575" stroke-dasharray="3.779999828338623,8.977499771118163"/><g transform="translate(-2.513 116.743)"><ellipse stroke="#FFF" stroke-width=".84" cx="3.176" cy="1.798" rx="3.176" ry="1.798"/><path d="M0 1.808v2.243s.853 1.396 3.147 1.396c2.294 0 3.207-1.396 3.207-1.396V1.808" stroke="#FFF" stroke-width=".84"/><path fill="#FFF" d="M.003 2.833v1.254L1.41 5.134l1.757.344 2.292-.6.877-.97V2.46l-1.11.599-1.925.497-2.282-.5z"/></g><path d="M218.169 119l2.692 1.558c3.836 2.221 3.855 5.854.044 8.116l-13.933 8.271c-3.812 2.263-9.996 2.275-13.815.03l-12.89-7.579c-3.817-2.245-3.822-5.894-.007-8.148l3.254-1.923 15.821 9.14c.603.349 1.58.353 2.188.007L218.169 119z" opacity=".208" fill="#DE5C22"/><path d="M199.124 128.582c.603.349 1.58.353 2.188.007l20.224-11.508c.605-.345 1.096-1.19 1.096-1.885V92.285c0-.697-.493-1.54-1.097-1.883l-19.474-11.03c-.606-.343-1.59-.34-2.196.005l-19.962 11.368c-.607.345-1.1 1.193-1.1 1.889v22.945c0 .698.488 1.545 1.092 1.894l19.23 11.11z" stroke="#FFF" stroke-width="2.362" fill-opacity=".767" fill="#FBAD4B"/><path d="M200.52 128.032v-23.637l21.18-12.634s.16.227.138.76v23.473l-20.631 11.753c-.45.285-.688.285-.688.285z" fill="#FBAA4B"/><path d="M200.395 104.352l-21.332-12.695m21.847 12.433l21.573-12.758m-22.016 12.962v24.633" stroke="#FFF" stroke-width="1.575" stroke-dasharray="3.779999828338623,8.977499771118163"/><g transform="translate(206.47 88.078)"><ellipse stroke="#FFF" stroke-width=".84" cx="2.714" cy="1.52" rx="2.714" ry="1.52"/><path d="M0 1.528v1.895s.729 1.18 2.69 1.18c1.96 0 2.74-1.18 2.74-1.18V1.528" stroke="#FFF" stroke-width=".84"/><path fill="#FFF" d="M.002 2.394v1.06l1.204.885 1.501.29 1.959-.507.75-.82V2.078l-.949.507-1.645.42-1.95-.423z"/></g><g transform="translate(189.685 88.078)"><ellipse stroke="#FFF" stroke-width=".84" cx="2.714" cy="1.52" rx="2.714" ry="1.52"/><path d="M0 1.528v1.895s.729 1.18 2.69 1.18c1.96 0 2.74-1.18 2.74-1.18V1.528" stroke="#FFF" stroke-width=".84"/><path fill="#FFF" d="M.002 2.394v1.06l1.204.885 1.501.29 1.959-.507.75-.82V2.078l-.949.507-1.645.42-1.95-.423z"/></g><g transform="translate(198.413 83.412)"><ellipse stroke="#FFF" stroke-width=".84" cx="2.714" cy="1.52" rx="2.714" ry="1.52"/><path d="M0 1.528v1.895s.729 1.18 2.69 1.18c1.96 0 2.74-1.18 2.74-1.18V1.528" stroke="#FFF" stroke-width=".84"/><path fill="#FFF" d="M.002 2.394v1.06l1.204.885 1.501.29 1.959-.507.75-.82V2.078l-.949.507-1.645.42-1.95-.423z"/></g><g transform="translate(198.413 92.745)"><ellipse stroke="#FFF" stroke-width=".84" cx="2.714" cy="1.52" rx="2.714" ry="1.52"/><path d="M0 1.528v1.895s.729 1.18 2.69 1.18c1.96 0 2.74-1.18 2.74-1.18V1.528" stroke="#FFF" stroke-width=".84"/><path fill="#FFF" d="M.002 2.394v1.06l1.204.885 1.501.29 1.959-.507.75-.82V2.078l-.949.507-1.645.42-1.95-.423z"/></g></g></svg>