<svg width="220" height="174" viewBox="0 0 220 174" xmlns="http://www.w3.org/2000/svg"><title>illus-helper</title><g fill="none" fill-rule="evenodd"><path d="M48.54 21.333l2.52 1.455c3.593 2.073 3.61 5.463.043 7.575l-13.044 7.72c-3.57 2.112-9.36 2.123-12.935.027L13.06 31.037c-3.575-2.096-3.58-5.502-.008-7.606l3.046-1.793 14.81 8.53c.566.326 1.48.33 2.05.007l15.583-8.84z" opacity=".208" fill="#DE5C22"/><path d="M30.712 30.277c.564.325 1.48.33 2.048.006l18.933-10.74c.567-.322 1.026-1.112 1.026-1.76V-3.6c0-.65-.462-1.44-1.027-1.758l-18.23-10.294c-.57-.32-1.49-.318-2.057.004l-18.69 10.61c-.567.322-1.028 1.114-1.028 1.763V18.14c0 .652.457 1.442 1.022 1.768l18.002 10.37z" stroke="#FFF" stroke-width="2.362" fill="#FFBC4C"/><path d="M32.018 29.763V7.703L51.848-4.09s.15.212.128.71v21.908l-19.314 10.97c-.422.265-.644.265-.644.265z" fill="#FBAA4B"/><g stroke="#FFF" stroke-width="1.575" stroke-dasharray="3.779999828338623,8.977499771118163"><path d="M31.902 7.662l-19.97-11.85M32.384 7.417L52.58-4.49M31.97 7.607v22.99"/></g><g><path d="M30.047-1.745V.023s.682 1.1 2.517 1.1 2.566-1.1 2.566-1.1v-1.768" stroke="#FFF" stroke-width=".84"/><path fill="#FFF" d="M30.05-.937v.99l1.126.825 1.405.272 1.834-.474.703-.766v-1.142l-.888.473-1.54.393-1.827-.395z"/></g><g><path d="M11.176 153.333l3.15 1.844c4.49 2.63 4.51 6.928.052 9.604l-16.304 9.79c-4.462 2.677-11.698 2.69-16.167.033l-15.083-8.967c-4.468-2.657-4.474-6.975-.01-9.643l3.81-2.275 18.513 10.816c.705.412 1.85.417 2.56.008l19.48-11.21z" opacity=".208" fill="#DE5C22"/><path d="M-11.11 164.673c.706.412 1.85.416 2.56.007l23.666-13.618c.71-.407 1.283-1.41 1.283-2.23V121.72c0-.824-.578-1.823-1.284-2.227l-22.79-13.052c-.708-.405-1.86-.4-2.57.006l-23.36 13.452c-.71.41-1.285 1.412-1.285 2.235v27.152c0 .826.57 1.828 1.278 2.24l22.502 13.148z" stroke="#FFF" stroke-width="2.362" fill-opacity=".73" fill="#FEB74C"/><path d="M-9.477 164.02v-27.97L15.31 121.1s.186.27.16.9v27.777s-16.126 9.287-24.143 13.907c-.527.337-.804.337-.804.337z" fill="#FBAA4B"/><path d="M-9.02 135.69l25.244-15.097" stroke="#FFF" stroke-width="1.575" stroke-dasharray="3.779999828338623,8.977499771118163"/><g><g transform="translate(-2.513 116.743)"><ellipse stroke="#FFF" stroke-width=".84" cx="3.176" cy="1.798" rx="3.176" ry="1.798"/><path d="M0 1.808V4.05s.853 1.397 3.147 1.397c2.294 0 3.207-1.396 3.207-1.396V1.81" stroke="#FFF" stroke-width=".84"/><path fill="#FFF" d="M.003 2.833v1.254L1.41 5.134l1.758.344 2.292-.6.877-.97V2.46l-1.11.6-1.925.496-2.282-.5z"/></g></g></g><g><path d="M218.17 119l2.69 1.558c3.837 2.22 3.856 5.854.045 8.116l-13.933 8.27c-3.812 2.264-9.996 2.276-13.815.03l-12.89-7.578c-3.817-2.245-3.822-5.894-.007-8.148l3.254-1.923 15.82 9.14c.604.35 1.58.353 2.19.007L218.168 119z" opacity=".208" fill="#DE5C22"/><path d="M199.124 128.582c.603.35 1.58.353 2.188.007l20.224-11.51c.605-.344 1.096-1.19 1.096-1.884v-22.91c0-.698-.493-1.542-1.097-1.884l-19.474-11.03c-.605-.343-1.59-.34-2.195.005l-19.962 11.368c-.607.345-1.1 1.193-1.1 1.89v22.944c0 .697.488 1.544 1.092 1.893l19.23 11.11z" stroke="#FFF" stroke-width="2.362" fill-opacity=".767" fill="#FBAD4B"/><path d="M200.52 128.032v-23.637L221.7 91.76s.16.228.138.76v23.474l-20.63 11.753c-.45.285-.69.285-.69.285z" fill="#FBAA4B"/><g stroke="#FFF" stroke-width="1.575" stroke-dasharray="3.779999828338623,8.977499771118163"><path d="M200.395 104.352l-21.332-12.695M200.91 104.09l21.573-12.758M200.467 104.294v24.633"/></g><g><g transform="translate(206.47 88.078)"><ellipse stroke="#FFF" stroke-width=".84" cx="2.714" cy="1.52" rx="2.714" ry="1.52"/><path d="M0 1.528v1.895s.73 1.18 2.69 1.18 2.74-1.18 2.74-1.18V1.528" stroke="#FFF" stroke-width=".84"/><path fill="#FFF" d="M.002 2.394v1.06l1.204.885 1.5.29 1.96-.508.75-.82V2.078l-.95.507-1.644.42-1.95-.423z"/></g><g transform="translate(189.685 88.078)"><ellipse stroke="#FFF" stroke-width=".84" cx="2.714" cy="1.52" rx="2.714" ry="1.52"/><path d="M0 1.528v1.895s.73 1.18 2.69 1.18 2.74-1.18 2.74-1.18V1.528" stroke="#FFF" stroke-width=".84"/><path fill="#FFF" d="M.002 2.394v1.06l1.204.885 1.5.29 1.96-.508.75-.82V2.078l-.95.507-1.644.42-1.95-.423z"/></g><g transform="translate(198.413 83.412)"><ellipse stroke="#FFF" stroke-width=".84" cx="2.714" cy="1.52" rx="2.714" ry="1.52"/><path d="M0 1.528v1.895s.73 1.18 2.69 1.18 2.74-1.18 2.74-1.18V1.528" stroke="#FFF" stroke-width=".84"/><path fill="#FFF" d="M.002 2.394v1.06l1.204.885 1.5.29 1.96-.508.75-.82V2.078l-.95.507-1.644.42-1.95-.423z"/></g><g transform="translate(198.413 92.745)"><ellipse stroke="#FFF" stroke-width=".84" cx="2.714" cy="1.52" rx="2.714" ry="1.52"/><path d="M0 1.528v1.895s.73 1.18 2.69 1.18 2.74-1.18 2.74-1.18V1.528" stroke="#FFF" stroke-width=".84"/><path fill="#FFF" d="M.002 2.394v1.06l1.204.885 1.5.29 1.96-.508.75-.82V2.078l-.95.507-1.644.42-1.95-.423z"/></g></g></g></g></svg>