<svg width="66" height="66" viewBox="0 0 66 66" xmlns="http://www.w3.org/2000/svg"><title>illus-mobile</title><g fill="#FFF" fill-rule="evenodd"><path d="M65.334 32.77c0 17.846-14.468 32.314-32.315 32.314C15.172 65.084.703 50.616.703 32.77.704 14.92 15.174.453 33.02.453c17.846 0 32.314 14.468 32.314 32.315"/><path d="M42.09 54.552c-.59 2.553-3.11 4.15-5.632 3.568l-18.26-4.215c-2.52-.582-4.086-3.123-3.496-5.676L23.95 8.174c.588-2.552 3.11-4.15 5.63-3.568l18.26 4.215c2.52.582 4.086 3.124 3.497 5.676L42.09 54.552z" stroke="#F5A623" stroke-width="1.4"/><path d="M41.708 49.957l-24.65-5.69 7.114-30.812 24.65 5.69-7.114 30.812zM32.652 11.086a.703.703 0 1 1-1.37-.317.703.703 0 0 1 1.37.316M43.607 13.615c-.087.378-.49.608-.9.513l-7.417-1.712c-.41-.095-.67-.478-.584-.856.088-.378.49-.608.9-.514l7.418 1.713c.41.093.67.477.583.855M31.78 51.65a3.162 3.162 0 1 1-6.163-1.423 3.162 3.162 0 0 1 6.162 1.423" stroke="#F5A623" stroke-width="1.4"/></g></svg>