<svg width="99" height="30" viewBox="0 0 99 30" xmlns="http://www.w3.org/2000/svg"><title>coming-soon</title><path d="M8.174 3.582c-.71 0-1.26.267-1.649.8-.39.534-.584 1.277-.584 2.23 0 1.984.744 2.976 2.233 2.976.625 0 1.382-.156 2.27-.469v1.582c-.73.305-1.546.457-2.446.457-1.294 0-2.284-.393-2.97-1.178C4.343 9.195 4 8.07 4 6.6c0-.925.168-1.735.505-2.43a3.65 3.65 0 0 1 1.451-1.601c.631-.371 1.37-.557 2.218-.557.864 0 1.732.21 2.605.627l-.609 1.533a10.072 10.072 0 0 0-1.004-.413 2.995 2.995 0 0 0-.992-.177zm11.987 2.994c0 1.472-.365 2.604-1.095 3.395-.73.791-1.777 1.187-3.14 1.187-1.363 0-2.41-.396-3.14-1.187-.73-.79-1.095-1.927-1.095-3.407 0-1.481.366-2.612 1.099-3.393C13.522 2.391 14.57 2 15.939 2c1.367 0 2.412.393 3.136 1.18.724.787 1.086 1.92 1.086 3.396zm-6.492 0c0 .994.189 1.742.566 2.245.377.503.94.755 1.691.755 1.505 0 2.258-1 2.258-3 0-2.004-.749-3.006-2.245-3.006-.75 0-1.317.252-1.698.757-.381.506-.572 1.255-.572 2.249zm12.103 4.46l-2.142-6.98h-.055c.077 1.42.116 2.368.116 2.842v4.138h-1.686V2.14h2.568l2.105 6.803h.037l2.233-6.803h2.568v8.896h-1.759v-4.21c0-.2.003-.429.01-.688.006-.26.033-.95.082-2.07h-.055L27.5 11.037h-1.728zm7.983 0V2.14h1.886v8.896h-1.886zm12.018 0h-2.398l-3.87-6.73h-.054c.077 1.189.115 2.037.115 2.544v4.186h-1.685V2.14h2.379l3.864 6.663h.042a53.946 53.946 0 0 1-.09-2.452V2.14h1.697v8.896zm5.616-4.996h3.53v4.613a9.95 9.95 0 0 1-1.616.392c-.505.075-1.021.113-1.549.113-1.343 0-2.368-.395-3.076-1.184-.708-.789-1.061-1.922-1.061-3.398 0-1.436.41-2.556 1.232-3.359.821-.803 1.96-1.205 3.416-1.205a6.61 6.61 0 0 1 2.641.548l-.627 1.509a4.476 4.476 0 0 0-2.026-.487c-.815 0-1.468.274-1.96.822-.49.547-.735 1.283-.735 2.208 0 .966.197 1.703.593 2.212.395.51.97.764 1.725.764.393 0 .793-.04 1.199-.122V7.61h-1.686V6.04zm14.135 2.526c0 .803-.289 1.436-.867 1.898-.578.463-1.382.694-2.412.694-.95 0-1.79-.179-2.52-.536V8.87c.6.268 1.109.456 1.525.566.416.11.796.164 1.14.164.414 0 .732-.08.953-.237.221-.158.332-.394.332-.706a.78.78 0 0 0-.147-.466A1.634 1.634 0 0 0 63.1 7.8c-.19-.126-.573-.327-1.154-.603-.543-.255-.95-.5-1.223-.736a2.764 2.764 0 0 1-.65-.821 2.344 2.344 0 0 1-.244-1.096c0-.786.267-1.405.8-1.855.533-.45 1.27-.676 2.212-.676.462 0 .904.055 1.323.164.42.11.86.264 1.318.463l-.609 1.466a8.903 8.903 0 0 0-1.177-.407 3.79 3.79 0 0 0-.916-.116c-.357 0-.63.083-.821.25a.823.823 0 0 0-.286.65c0 .167.038.312.115.436.077.123.2.243.368.359.169.115.567.323 1.196.623.832.398 1.402.797 1.71 1.196.308.4.462.89.462 1.47zm9.687-1.99c0 1.472-.365 2.604-1.095 3.395-.73.791-1.777 1.187-3.14 1.187-1.363 0-2.41-.396-3.14-1.187-.73-.79-1.095-1.927-1.095-3.407 0-1.481.366-2.612 1.099-3.393C68.572 2.391 69.62 2 70.989 2c1.367 0 2.412.393 3.136 1.18.724.787 1.086 1.92 1.086 3.396zm-6.492 0c0 .994.189 1.742.566 2.245.377.503.94.755 1.691.755 1.505 0 2.258-1 2.258-3 0-2.004-.749-3.006-2.245-3.006-.75 0-1.317.252-1.698.757-.381.506-.572 1.255-.572 2.249zm16.41 0c0 1.472-.364 2.604-1.094 3.395-.73.791-1.777 1.187-3.14 1.187-1.363 0-2.41-.396-3.14-1.187-.73-.79-1.095-1.927-1.095-3.407 0-1.481.366-2.612 1.098-3.393C78.49 2.391 79.54 2 80.907 2s2.413.393 3.137 1.18c.724.787 1.086 1.92 1.086 3.396zm-6.492 0c0 .994.189 1.742.566 2.245.377.503.941.755 1.692.755 1.505 0 2.257-1 2.257-3 0-2.004-.748-3.006-2.245-3.006-.75 0-1.316.252-1.698.757-.381.506-.572 1.255-.572 2.249zm16.229 4.46h-2.398l-3.87-6.73h-.055c.078 1.189.116 2.037.116 2.544v4.186h-1.685V2.14h2.379l3.864 6.663h.042a53.947 53.947 0 0 1-.091-2.452V2.14h1.698v8.896zM27 22h46v2H27z" fill="#FFF" fill-rule="evenodd"/></svg>