<svg width="241" height="111" viewBox="0 0 241 111" xmlns="http://www.w3.org/2000/svg"><title>illus-docsearch</title><defs><filter x="-50%" y="-50%" width="200%" height="200%" filterUnits="objectBoundingBox" id="a"><feGaussianBlur in="SourceGraphic" result="blur"/></filter></defs><g fill="none" fill-rule="evenodd"><g fill="#46AEDA"><path d="M2 90.51c0 10.153 8.233 18.382 18.392 18.382h200.216c10.166 0 18.392-8.226 18.392-18.383 0-10.156-8.233-18.385-18.392-18.385H20.392C10.226 72.125 2 80.35 2 90.51zm-2 0c0-11.26 9.117-20.385 20.392-20.385h200.216C231.87 70.125 241 79.25 241 90.51c0 11.256-9.117 20.382-20.392 20.382H20.392C9.13 110.892 0 101.768 0 90.51z"/><path d="M35.472 101.45c0-.51-.21-1.005-.554-1.35l-5.133-5.14a10.536 10.536 0 0 0 1.856-5.98c0-5.83-4.714-10.55-10.537-10.55-5.822 0-10.537 4.72-10.537 10.55 0 5.83 4.715 10.55 10.537 10.55 2.126 0 4.22-.644 5.972-1.858l5.134 5.126c.344.36.837.57 1.346.57a1.93 1.93 0 0 0 1.916-1.92zM27.81 88.98c0 3.702-3.01 6.714-6.707 6.714s-6.705-3.012-6.705-6.714c0-3.702 3.008-6.714 6.705-6.714s6.706 3.012 6.706 6.714z"/></g><path d="M57.143 100.988V78.612h8.368c1.853 0 3.474.295 4.864.883 1.39.588 2.552 1.387 3.49 2.395a9.983 9.983 0 0 1 2.114 3.546c.474 1.355.71 2.8.71 4.333 0 1.7-.262 3.24-.79 4.616-.525 1.376-1.277 2.553-2.256 3.53-.98.977-2.158 1.733-3.537 2.27-1.38.535-2.91.802-4.594.802h-8.367zm14.273-11.22c0-.987-.132-1.885-.395-2.694a6.045 6.045 0 0 0-1.152-2.095 5.02 5.02 0 0 0-1.863-1.357c-.736-.315-1.568-.472-2.494-.472h-3.188v13.3h3.19c.946 0 1.788-.168 2.525-.504a5.11 5.11 0 0 0 1.847-1.403 6.37 6.37 0 0 0 1.137-2.11c.264-.81.396-1.698.396-2.664zm12.654 11.34c-1 0-1.908-.205-2.724-.612a6.856 6.856 0 0 1-2.1-1.605 7.302 7.302 0 0 1-1.363-2.274 7.412 7.412 0 0 1-.484-2.64c0-.92.167-1.805.503-2.66a7.163 7.163 0 0 1 1.4-2.254c.6-.65 1.31-1.17 2.132-1.556a6.24 6.24 0 0 1 2.694-.58c1 0 1.907.202 2.722.61a6.785 6.785 0 0 1 2.102 1.614 7.273 7.273 0 0 1 1.352 2.285 7.44 7.44 0 0 1 .474 2.6c0 .92-.168 1.806-.504 2.66a7.258 7.258 0 0 1-1.39 2.255 6.826 6.826 0 0 1-2.122 1.566c-.823.394-1.72.59-2.694.59zm-3.375-7.092c0 .538.076 1.06.227 1.566.15.505.368.955.65 1.35.284.393.64.708 1.067.944.427.237.917.355 1.47.355.565 0 1.058-.124 1.48-.373.42-.25.772-.575 1.055-.975.283-.4.494-.854.632-1.36a5.84 5.84 0 0 0 .207-1.546c0-.538-.076-1.06-.227-1.566a4.252 4.252 0 0 0-.66-1.34 3.275 3.275 0 0 0-1.067-.925c-.42-.23-.9-.345-1.44-.345-.566 0-1.06.122-1.48.365a3.34 3.34 0 0 0-1.056.955 4.34 4.34 0 0 0-.642 1.35 5.59 5.59 0 0 0-.217 1.546zm11.17-.138c0-.84.15-1.678.454-2.512a6.916 6.916 0 0 1 1.32-2.235 6.707 6.707 0 0 1 2.123-1.595c.835-.407 1.786-.61 2.852-.61 1.25 0 2.335.282 3.256.847.922.564 1.606 1.3 2.053 2.206l-2.486 1.733a2.907 2.907 0 0 0-2.102-1.82c-.283-.06-.55-.09-.8-.09-.578 0-1.078.125-1.5.375-.42.25-.77.57-1.045.965-.277.394-.484.84-.622 1.34a5.66 5.66 0 0 0-.207 1.516c0 .55.083 1.083.248 1.595.164.514.394.967.69 1.36a3.33 3.33 0 0 0 1.076.936c.42.23.888.345 1.4.345a3.307 3.307 0 0 0 1.64-.442c.262-.15.5-.348.71-.59.21-.244.38-.543.513-.898l2.664 1.557c-.21.512-.516.97-.917 1.378-.4.407-.858.75-1.37 1.025a7.09 7.09 0 0 1-1.63.63 6.878 6.878 0 0 1-1.687.217c-.974 0-1.865-.207-2.674-.62a6.812 6.812 0 0 1-2.092-1.646 7.78 7.78 0 0 1-1.372-2.323 7.385 7.385 0 0 1-.493-2.64z" fill="#46AEDA"/><path d="M125.434 85.168c-.084-.084-.315-.242-.694-.473a13.774 13.774 0 0 0-3.284-1.387 7.447 7.447 0 0 0-2.02-.283c-.885 0-1.564.157-2.038.472-.473.315-.71.778-.71 1.387 0 .378.105.693.316.945.21.252.51.477.9.677.39.2.873.383 1.452.552.58.167 1.247.356 2.005.566 1.075.294 2.043.614 2.906.96.863.348 1.6.778 2.21 1.293.61.514 1.08 1.14 1.406 1.874.326.736.49 1.618.49 2.648 0 1.26-.238 2.327-.71 3.198a5.98 5.98 0 0 1-1.88 2.112c-.78.536-1.68.924-2.7 1.166-1.02.242-2.068.363-3.142.363-.82 0-1.658-.062-2.51-.19-.853-.125-1.69-.308-2.51-.55a21.04 21.04 0 0 1-2.4-.867 13.065 13.065 0 0 1-2.147-1.166l2.273-4.507c.105.106.39.305.853.6.462.293 1.03.588 1.704.882.673.294 1.43.556 2.273.788a9.62 9.62 0 0 0 2.558.346c1.83 0 2.747-.557 2.747-1.67 0-.42-.137-.767-.41-1.04-.274-.273-.653-.52-1.137-.74a12.592 12.592 0 0 0-1.705-.615 351.2 351.2 0 0 1-2.147-.63c-1.032-.315-1.927-.656-2.684-1.024-.76-.367-1.39-.793-1.896-1.276a4.545 4.545 0 0 1-1.12-1.67c-.243-.63-.364-1.366-.364-2.207 0-1.176.22-2.216.663-3.12a6.737 6.737 0 0 1 1.8-2.284 7.838 7.838 0 0 1 2.636-1.404c1-.315 2.057-.473 3.173-.473.8 0 1.58.074 2.337.22A16.684 16.684 0 0 1 126.034 80c.61.293 1.158.587 1.642.882l-2.242 4.286zm14.222 12.984v2.836h-9.848V87.003h9.67v2.837h-6.434v2.718h5.526v2.62h-5.526v2.974h6.612zm.63 2.836l5.39-13.985h2.624l5.367 13.985h-3.433l-1.086-3.13h-4.36l-1.067 3.13h-3.433zm6.69-10.557l-1.676 5.2h3.296l-1.62-5.2zm7.974 10.558V87.003h6.315a4.07 4.07 0 0 1 1.826.414 4.85 4.85 0 0 1 1.45 1.083c.41.447.728.952.96 1.517.23.565.344 1.136.344 1.714a4.9 4.9 0 0 1-.612 2.384 4.29 4.29 0 0 1-1.677 1.674l3.217 5.2h-3.65l-2.824-4.51h-2.11v4.51h-3.238zm3.237-7.327h2.96c.382 0 .71-.18.987-.54.276-.362.414-.825.414-1.39 0-.577-.158-1.037-.473-1.378-.316-.34-.658-.512-1.027-.512h-2.86v3.82zm9.374.218c0-.84.152-1.678.455-2.512a6.916 6.916 0 0 1 1.322-2.235 6.707 6.707 0 0 1 2.122-1.595c.834-.407 1.785-.61 2.85-.61 1.25 0 2.336.282 3.257.847.92.564 1.605 1.3 2.052 2.206l-2.488 1.733a2.907 2.907 0 0 0-2.1-1.82c-.284-.06-.55-.09-.8-.09-.58 0-1.08.125-1.5.375-.42.25-.77.57-1.046.965-.277.394-.484.84-.622 1.34a5.66 5.66 0 0 0-.207 1.516c0 .55.082 1.083.246 1.595.165.514.395.967.69 1.36a3.33 3.33 0 0 0 1.077.936c.42.23.888.345 1.4.345a3.307 3.307 0 0 0 1.64-.442c.262-.15.5-.348.71-.59.21-.244.38-.543.512-.898l2.665 1.557c-.21.512-.517.97-.918 1.378-.402.407-.86.75-1.373 1.025a7.09 7.09 0 0 1-1.628.63 6.878 6.878 0 0 1-1.688.217c-.974 0-1.865-.207-2.674-.62a6.812 6.812 0 0 1-2.092-1.646 7.78 7.78 0 0 1-1.372-2.323 7.385 7.385 0 0 1-.493-2.64zm25.953-6.875v13.985h-3.237v-5.73h-5.585v5.73h-3.236V87.003h3.237v5.417h5.586v-5.417h3.237z" fill="#FFF"/><g transform="translate(92.087 2.102)"><ellipse stroke="#46AEDA" stroke-width="3" filter="url(#a)" cx="29.388" cy="29.196" rx="29.388" ry="29.196"/><path d="M29.388 54.22c13.912 0 25.19-11.203 25.19-25.024 0-13.82-11.278-25.025-25.19-25.025S4.198 15.376 4.198 29.197c0 13.82 11.278 25.025 25.19 25.025zm.215-32.43c7.21 0 13.055-1.393 13.055-3.112 0-1.72-5.845-3.112-13.055-3.112s-13.055 1.393-13.055 3.112c0 1.72 5.845 3.113 13.055 3.113zm13.055 3.993c0 1.72-5.845 3.113-13.055 3.113s-13.055-1.394-13.055-3.113v-4.216s5.845 2.108 13.055 2.108 13.055-2.108 13.055-2.108v4.216zm0 7.105c0 1.72-5.845 3.113-13.055 3.113s-13.055-1.393-13.055-3.112v-4.216s5.845 2.108 13.055 2.108 13.055-2.108 13.055-2.108v4.216zm0 7.106c0 1.718-5.845 3.112-13.055 3.112s-13.055-1.394-13.055-3.112v-4.217s5.845 2.108 13.055 2.108 13.055-2.108 13.055-2.108v4.217z" fill="#FFF"/></g><path d="M150.697 40.085s11.127-1.7 14.47 3.654c3.342 5.352-9.312 9.977-4.656 15.39 4.657 5.413 10.343-4.016 15.68 0 5.336 4.017 3.86 10.645 3.86 10.645" stroke="#46AEDA" stroke-width="3" stroke-linecap="square"/></g></svg>