<svg width="219" height="96" viewBox="0 0 219 96" xmlns="http://www.w3.org/2000/svg"><title>illus-searchbox</title><g fill="#FFF" fill-rule="evenodd"><path d="M5.424-11.957a9.145 9.145 0 1 1 .871-1.509l7.204 4.16a.87.87 0 1 1-.871 1.509l-7.204-4.16zM6.882 6.726c12.313-3.3 19.62-15.956 16.321-28.27-3.3-12.312-15.955-19.62-28.269-16.32-12.313 3.3-19.62 15.956-16.32 28.269 3.299 12.313 15.955 19.62 28.268 16.32zm-.597-2.23c11.082-2.97 17.658-14.36 14.689-25.442-2.97-11.081-14.36-17.658-25.442-14.689-11.082 2.97-17.658 14.36-14.689 25.442C-16.187.89-4.797 7.465 6.285 4.496zM-.11-10.112a7.403 7.403 0 1 0-3.832-14.302A7.403 7.403 0 0 0-.11-10.112zM157.035 56.83l-4.714-3.955a1.995 1.995 0 0 0-2.816.248l-.4.476c-.712.85-.6 2.108.245 2.817l4.715 3.955 2.97-3.54zm.671.564l1.015.85c.845.71.957 1.968.244 2.818l-.399.475a1.995 1.995 0 0 1-2.816.249l-1.015-.852 2.971-3.54zm-12.99-5.06a14.358 14.358 0 0 1-8.277 3.544c-7.936.694-14.932-5.176-15.626-13.113-.694-7.936 5.176-14.932 13.111-15.626 7.936-.695 14.931 5.176 15.626 13.112.279 3.19-.503 6.23-2.053 8.768l2.622 2.2a3.73 3.73 0 0 1 3.347.755l5.798 4.866a3.74 3.74 0 0 1 .462 5.265 3.734 3.734 0 0 1-5.266.46l-5.798-4.865a3.735 3.735 0 0 1-1.323-3.165l-2.624-2.201zm.372-2.436a12.939 12.939 0 0 1-8.775 4.543c-7.142.625-13.438-4.659-14.063-11.801-.625-7.143 4.658-13.44 11.8-14.064 7.142-.625 13.438 4.658 14.063 11.801.31 3.55-.839 6.892-2.95 9.432l-.075.089zm.969 1.7l.937-1.118 1.347 1.13a.73.73 0 1 1-.937 1.118l-1.347-1.13zm-9.933.688c5.952-.521 10.354-5.768 9.834-11.72-.521-5.953-5.768-10.356-11.72-9.835-5.951.52-10.354 5.768-9.833 11.72.52 5.952 5.768 10.355 11.72 9.835zm-.11-1.258c5.258-.46 9.146-5.095 8.686-10.352-.46-5.258-5.094-9.148-10.351-8.688-5.258.46-9.147 5.095-8.687 10.353.46 5.258 5.095 9.147 10.352 8.687zM30.223 48.617a1.682 1.682 0 0 1-.235-2.003 1.692 1.692 0 0 1 1.851-.797l-1.616 2.8zm2.438-2.407l4.777 2.758a1.683 1.683 0 0 1 .618 2.304 1.691 1.691 0 0 1-2.304.617l-4.778-2.758 1.687-2.921zm-8.939 4.012A9.316 9.316 0 1 0 18.9 32.226a9.316 9.316 0 0 0 4.822 17.996zm-.603-2.25a6.987 6.987 0 1 0-3.616-13.497 6.987 6.987 0 0 0 3.616 13.498zM78.816 47.339a9.395 9.395 0 1 0 18.687-1.964 9.395 9.395 0 0 0-18.687 1.964zm2.336-.246a7.046 7.046 0 1 0 14.016-1.473 7.046 7.046 0 0 0-14.016 1.473zm-1.662 7.73a1.404 1.404 0 0 1 1.98-.206c.605.49.698 1.378.21 1.98l-4.142 5.116c-.489.603-1.371.7-1.98.206a1.409 1.409 0 0 1-.21-1.98l4.142-5.115zM209.379 17.326a10.125 10.125 0 0 1-4.346 2.422c-5.426 1.454-11.002-1.765-12.456-7.19-1.454-5.426 1.766-11.002 7.191-12.456 5.426-1.454 11.002 1.766 12.456 7.191a10.122 10.122 0 0 1-.069 5.513c.192.06.38.14.56.246l4.453 2.57a2.736 2.736 0 0 1 .995 3.736 2.73 2.73 0 0 1-3.733 1.006l-4.452-2.57a2.72 2.72 0 0 1-.6-.468zm-5.294-1.114a6.509 6.509 0 1 0-3.37-12.574 6.509 6.509 0 0 0 3.37 12.574zM7.034 76.616a10.772 10.772 0 0 1 3.556 5.54c1.546 5.772-1.88 11.706-7.652 13.253-5.773 1.547-11.707-1.88-13.254-7.652-1.547-5.773 1.88-11.707 7.652-13.254 2.258-.605 4.54-.45 6.574.31l2.819-4.881c.5-.868 1.6-1.17 2.468-.669a1.797 1.797 0 0 1 .664 2.457l-2.827 4.896zm1.813 6.006a9.018 9.018 0 1 0-17.42 4.668 9.018 9.018 0 0 0 17.42-4.668zm-15.504 4.154a7.034 7.034 0 0 0 8.614 4.974.541.541 0 0 0-.28-1.045 5.952 5.952 0 0 1-7.29-4.209.541.541 0 0 0-1.044.28zM51.621 30.603c-2.896.13-5.856-.66-8.415-2.45-6.163-4.316-7.66-12.811-3.345-18.974 4.315-6.164 12.81-7.661 18.973-3.346 6.163 4.316 7.661 12.81 3.346 18.974a13.575 13.575 0 0 1-8.316 5.509l.29 1.648a2.004 2.004 0 0 1 2.09 1.645l1.589 9.012a1.996 1.996 0 0 1-1.62 2.312l-1.781.314a2.003 2.003 0 0 1-2.314-1.619l-1.588-9.011a1.997 1.997 0 0 1 1.4-2.261l-.309-1.753zm-7.113-4.31c5.137 3.596 12.215 2.347 15.812-2.789 3.596-5.136 2.348-12.215-2.788-15.811-5.136-3.596-12.215-2.348-15.811 2.788-3.597 5.136-2.349 12.215 2.787 15.811zM160.02-2.058a13.337 13.337 0 0 1-6.496-6.159c-3.357-6.59-.737-14.655 5.853-18.012 6.59-3.358 14.655-.738 18.013 5.852 3.357 6.59.737 14.655-5.853 18.013a13.343 13.343 0 0 1-9.535 1.006l-4.322 13.302c-.18.551-.768.854-1.324.673a1.055 1.055 0 0 1-.675-1.322l4.339-13.353zm-2.108.818a15.008 15.008 0 0 1-5.89-6.212c-3.78-7.42-.83-16.5 6.59-20.28 7.42-3.78 16.5-.83 20.28 6.59 3.78 7.42.83 16.5-6.59 20.28a15.01 15.01 0 0 1-9.098 1.475l-3.93 12.095a2.802 2.802 0 0 1-3.53 1.794 2.799 2.799 0 0 1-1.801-3.526l3.97-12.216zm-2.48-7.949c2.82 5.537 9.596 7.739 15.133 4.918 5.537-2.822 7.739-9.597 4.917-15.134-2.82-5.537-9.596-7.739-15.133-4.917-5.537 2.82-7.739 9.596-4.918 15.133zm.932-.475c-2.559-5.022-.562-11.167 4.46-13.726 5.022-2.559 11.167-.562 13.726 4.46 2.559 5.022.562 11.167-4.46 13.726-5.022 2.559-11.167.562-13.726-4.46zM196.24 53.775a6.95 6.95 0 1 1 .662-1.147l5.47 3.158a.663.663 0 1 1-.663 1.147l-5.47-3.158zm-4.205 1.402a5.627 5.627 0 1 0-2.913-10.87 5.627 5.627 0 0 0 2.913 10.87zm9.936-2.156c.62-2.11.656-4.353.074-6.523-1.727-6.445-8.351-10.27-14.796-8.543-6.445 1.727-10.27 8.352-8.543 14.796 1.727 6.445 8.352 10.27 14.797 8.543a12.026 12.026 0 0 0 5.66-3.377.662.662 0 0 0-.963-.908 10.703 10.703 0 0 1-5.04 3.006c-5.739 1.538-11.637-1.868-13.175-7.606-1.538-5.739 1.868-11.637 7.607-13.175 5.738-1.538 11.637 1.868 13.174 7.606.519 1.934.487 3.93-.065 5.808a.662.662 0 1 0 1.27.373z"/></g></svg>