<svg width="102" height="102" viewBox="0 0 102 102" xmlns="http://www.w3.org/2000/svg"><title>illus-autocomplete</title><g fill="none" fill-rule="evenodd"><circle opacity=".512" fill-opacity=".253" fill="#7ED321" cx="51" cy="51" r="51"/><circle fill-opacity=".253" fill="#7ED321" cx="50.5" cy="50.5" r="37.5"/><circle fill-opacity=".253" fill="#7ED321" cx="51" cy="51" r="21"/><path d="M51 22.632c-15.185 0-27.5 12.376-27.5 27.636S35.815 77.905 51 77.905s27.5-12.377 27.5-27.637S66.185 22.632 51 22.632zm0 52.132c-13.464 0-24.375-10.965-24.375-24.496 0-13.53 10.911-24.495 24.375-24.495s24.375 10.964 24.375 24.495S64.464 74.764 51 74.764zM30.674 50.268h2.391c0-9.973 8.011-18.024 17.935-18.024v-2.403c-11.24 0-20.326 9.132-20.326 20.427zm21.522 30.04h-2.392v3.605H36.652v2.403h28.696v-2.403H52.196v-3.605z" fill="#FFF"/></g></svg>