<svg width="66" height="66" xmlns="http://www.w3.org/2000/svg"><g fill="#FFF" fill-rule="evenodd"><path d="M65.334 32.769c0 17.847-14.468 32.315-32.315 32.315C15.173 65.084.704 50.616.704 32.769.704 14.922 15.173.454 33.02.454s32.315 14.468 32.315 32.315"/><path d="M42.09 54.552c-.59 2.553-3.111 4.15-5.632 3.568l-18.259-4.215c-2.52-.582-4.087-3.123-3.497-5.676l9.247-40.054c.59-2.552 3.111-4.15 5.632-3.568l18.258 4.215c2.521.582 4.087 3.124 3.498 5.676l-9.248 40.054z" stroke="#F5A623" stroke-width="1.4"/><path d="M41.708 49.957l-24.649-5.69 7.113-30.812 24.65 5.69-7.114 30.812zm-9.056-38.871a.703.703 0 1 1-1.37-.317.703.703 0 0 1 1.37.317m10.955 2.529c-.087.378-.49.608-.9.513l-7.417-1.712c-.41-.095-.67-.478-.584-.856.088-.378.49-.608.9-.514l7.418 1.713c.41.094.67.478.583.856M31.78 51.65a3.162 3.162 0 1 1-6.163-1.423 3.162 3.162 0 0 1 6.162 1.423" stroke="#F5A623" stroke-width="1.4"/></g></svg>