<svg width="230" height="175" viewBox="0 0 230 175" xmlns="http://www.w3.org/2000/svg" xmlns:xlink="http://www.w3.org/1999/xlink"><title>logo-algolia-bg</title><defs><path d="M311.413 134.714l-16.01 57.856 51.564-28.82c-7.49-14.002-20.267-24.59-35.554-29.036zM184.88 193.766C184.88 255.744 234.145 306 294.94 306 355.732 306 405 255.744 405 193.766c0-61.98-49.267-112.235-110.06-112.235-60.794 0-110.06 50.257-110.06 112.236zm110.06-80.168c43.346 0 78.614 35.965 78.614 80.168 0 44.202-35.268 80.167-78.615 80.167-43.347 0-78.615-35.965-78.615-80.167 0-44.203 35.268-80.168 78.614-80.168zm37.987-45.95c.03-.434.123-.85.123-1.294V56.236c-.005-11.17-8.846-20.23-19.756-20.236h-34.578c-10.906.005-19.752 9.06-19.752 20.236v9.94c11.01-3.156 22.592-4.88 34.574-4.88 13.735 0 26.967 2.245 39.39 6.353zM212.22 87.456c-7.713-7.902-20.23-7.897-27.944 0l-3.492 3.577c-7.715 7.897-7.71 20.717 0 28.62l3.72 3.803a131.45 131.45 0 0 1 29.713-33.95l-1.996-2.05z" id="a"/></defs><g transform="translate(-175 -36)" opacity=".652" fill="none" fill-rule="evenodd"><use fill="#387299" xlink:href="#a"/><use xlink:href="#a"/></g></svg>