<svg width="89" height="88" viewBox="0 0 89 88" xmlns="http://www.w3.org/2000/svg"><title>logo-is</title><defs><linearGradient x1="42.966%" y1="14.059%" x2="85.153%" y2="110.153%" id="a"><stop stop-color="#2CA5C3" offset="0%"/><stop stop-color="#136B90" offset="100%"/></linearGradient><linearGradient x1="10.934%" y1="-27.347%" x2="73.434%" y2="79.684%" id="b"><stop stop-color="#51C8E5" offset="0%"/><stop stop-color="#2897C5" offset="100%"/></linearGradient></defs><g fill="none" fill-rule="evenodd"><g transform="translate(.705 .376)"><rect fill="url(#a)" y="6.015" width="87.742" height="81.534" rx="4"/><rect fill="url(#b)" width="87.742" height="81.534" rx="4"/></g><path d="M58.896 41.769a2.662 2.662 0 0 0-.398-1.926l-5.414-8.026c1.977-2.064 3.301-4.717 3.802-7.556 1.371-7.779-3.6-15.15-11.113-16.474-7.511-1.325-14.705 3.901-16.076 11.68-1.372 7.778 3.6 15.15 11.112 16.474 2.742.483 5.597.1 8.142-1.121l5.418 8.006c.36.558.947.95 1.604 1.066 1.351.239 2.676-.724 2.923-2.123zm-6.969-18.395c-.87 4.939-5.46 8.274-10.23 7.433-4.77-.841-7.943-5.545-7.072-10.484.871-4.939 5.461-8.274 10.23-7.433 4.77.841 7.943 5.545 7.072 10.484zM40.81 56.998a2.662 2.662 0 0 1 1.805-.78l9.68-.168c.557-2.803 1.97-5.41 4.01-7.448 5.585-5.585 14.475-5.74 19.868-.347 5.394 5.394 5.239 14.284-.346 19.869-5.585 5.585-14.475 5.74-19.869.346a13.445 13.445 0 0 1-3.752-7.312l-9.666.154a2.42 2.42 0 0 1-1.793-.702c-.97-.97-.942-2.607.063-3.612zm18.983-4.786c-3.546 3.547-3.645 9.22-.22 12.644 3.424 3.425 9.097 3.326 12.643-.22 3.546-3.547 3.645-9.22.22-12.644-3.424-3.425-9.097-3.326-12.643.22zm-21.01-13.185c.166.67.062 1.386-.263 1.949l-4.84 8.384c2.115 1.92 3.62 4.475 4.318 7.273 1.911 7.663-2.535 15.363-9.936 17.209-7.4 1.845-14.94-2.867-16.852-10.53-1.91-7.664 2.535-15.364 9.936-17.21a13.445 13.445 0 0 1 8.2.55l4.846-8.364a2.42 2.42 0 0 1 1.526-1.176c1.332-.332 2.72.536 3.064 1.915zm-5.676 18.84c-1.213-4.865-6.025-7.872-10.724-6.7-4.7 1.172-7.536 6.085-6.323 10.951 1.213 4.866 6.025 7.873 10.724 6.701 4.7-1.172 7.536-6.085 6.323-10.951z" fill="#FFF"/></g></svg>