<svg width="224" height="28" viewBox="0 0 224 28" xmlns="http://www.w3.org/2000/svg" xmlns:xlink="http://www.w3.org/1999/xlink"><title>logo-instantsearch</title><defs><path d="M108.292 22.075c-.672 0-1.37-.05-2.09-.15a22.74 22.74 0 0 1-2.153-.402 16.246 16.246 0 0 1-2.046-.626 10.39 10.39 0 0 1-1.71-.82l1.924-3.222a16.555 16.555 0 0 0 3.082 1.372c.997.318 1.954.477 2.87.477.712 0 1.256-.11 1.632-.328.377-.22.565-.537.565-.954 0-.418-.254-.74-.763-.97-.51-.23-1.384-.502-2.625-.82a28.838 28.838 0 0 1-2.748-.836c-.753-.278-1.358-.59-1.816-.94-.458-.347-.788-.74-.992-1.178-.203-.437-.305-.954-.305-1.55 0-.796.167-1.522.502-2.18.336-.655.8-1.212 1.39-1.67.59-.457 1.286-.815 2.09-1.073.804-.26 1.684-.388 2.64-.388 1.12 0 2.264.164 3.434.492 1.17.328 2.314.78 3.434 1.357l-1.923 3.013c-.997-.537-1.888-.93-2.67-1.18a7.503 7.503 0 0 0-2.275-.372c-.61 0-1.114.105-1.51.314-.397.208-.596.542-.596 1 0 .218.05.402.153.55.1.15.268.29.502.42.234.128.545.247.93.357.388.108.866.232 1.436.37 1.18.3 2.177.598 2.99.896.815.3 1.476.632 1.985 1 .51.368.875.79 1.1 1.268.223.477.334 1.044.334 1.7 0 .776-.157 1.477-.473 2.103a4.476 4.476 0 0 1-1.358 1.596c-.59.438-1.302.776-2.136 1.014-.835.24-1.77.358-2.808.358zm16.502 0c-1.343 0-2.55-.213-3.617-.64-1.068-.43-1.974-1.01-2.717-1.746a7.464 7.464 0 0 1-1.693-2.552 8.064 8.064 0 0 1-.58-3.028 8.85 8.85 0 0 1 .58-3.207 7.75 7.75 0 0 1 1.678-2.64c.733-.755 1.633-1.352 2.7-1.79 1.07-.437 2.285-.656 3.65-.656 1.362 0 2.573.22 3.63.656 1.06.438 1.954 1.03 2.687 1.775a7.503 7.503 0 0 1 1.663 2.58c.377.975.565 2 .565 3.073 0 .28-.01.553-.03.822-.02.268-.05.502-.092.7h-11.843c.082 1.055.473 1.855 1.175 2.402.702.547 1.5.82 2.396.82.713 0 1.4-.168 2.06-.506.662-.34 1.105-.796 1.328-1.373l4.15 1.134c-.63 1.232-1.606 2.236-2.93 3.012-1.32.775-2.91 1.163-4.76 1.163zm3.388-9.605c-.102-.995-.468-1.78-1.1-2.357-.63-.577-1.413-.865-2.35-.865-.956 0-1.744.293-2.365.88-.62.586-.98 1.367-1.083 2.342h6.898zm11.68 9.605a6.41 6.41 0 0 1-2.213-.373 5.2 5.2 0 0 1-1.756-1.044 5.013 5.013 0 0 1-1.16-1.58 4.608 4.608 0 0 1-.427-1.985c0-.775.167-1.48.503-2.118a4.89 4.89 0 0 1 1.42-1.64c.61-.458 1.332-.816 2.166-1.074.835-.258 1.76-.387 2.778-.387.67 0 1.323.055 1.953.164.63.11 1.18.273 1.65.492v-.717c0-1.81-1.07-2.714-3.206-2.714a7.27 7.27 0 0 0-2.502.43c-.794.29-1.628.722-2.503 1.3l-1.434-2.984a12.943 12.943 0 0 1 3.297-1.522c1.14-.338 2.35-.507 3.632-.507 2.42 0 4.293.557 5.615 1.67 1.323 1.114 1.984 2.745 1.984 4.893v4.027c0 .478.09.81.274 1 .183.19.508.303.976.343v4.027c-.468.1-.9.164-1.297.194-.396.03-.747.046-1.053.046-.895-.02-1.577-.2-2.045-.537-.468-.34-.763-.827-.885-1.463l-.09-.716a7.283 7.283 0 0 1-2.55 2.06 7.095 7.095 0 0 1-3.128.715zm1.434-3.43c.53 0 1.043-.09 1.54-.27.5-.178.912-.416 1.238-.715.468-.358.702-.736.702-1.133v-1.492a8.053 8.053 0 0 0-1.39-.373c-.498-.09-.96-.134-1.388-.134-.895 0-1.633.2-2.213.597-.58.397-.87.914-.87 1.55 0 .578.224 1.05.672 1.418.447.368 1.017.552 1.71.552zm21.905-8.443c-1.18.02-2.243.21-3.19.567-.945.357-1.642.894-2.09 1.61v9.397h-4.883V6.115h4.487v3.163c.57-1.054 1.287-1.875 2.15-2.462.866-.586 1.787-.9 2.764-.94.407 0 .66.01.763.03v4.296zm.906 3.73a8.37 8.37 0 0 1 .58-3.088 7.66 7.66 0 0 1 1.68-2.596c.73-.745 1.632-1.337 2.7-1.775 1.068-.437 2.284-.656 3.647-.656 1.852 0 3.41.383 4.67 1.15 1.262.764 2.208 1.764 2.84 2.997l-4.763 1.402c-.63-.995-1.556-1.492-2.777-1.492-1.018 0-1.867.368-2.55 1.104-.68.736-1.02 1.72-1.02 2.953 0 .618.09 1.18.273 1.687.184.507.438.94.764 1.297.325.358.707.637 1.144.836.438.2.9.298 1.39.298.61 0 1.17-.144 1.678-.433.508-.288.885-.66 1.13-1.118l4.76 1.432c-.59 1.212-1.53 2.206-2.823 2.982-1.293.775-2.865 1.163-4.717 1.163-1.343 0-2.548-.223-3.616-.67-1.07-.448-1.974-1.045-2.717-1.79a7.55 7.55 0 0 1-1.694-2.596 8.37 8.37 0 0 1-.58-3.09zm33.534 7.845h-4.884v-8.8c0-1.015-.208-1.76-.626-2.238-.417-.478-.98-.717-1.693-.717-.285 0-.596.065-.93.194-.337.13-.663.318-.978.567-.317.25-.606.542-.87.88a3.832 3.832 0 0 0-.61 1.134v8.98h-4.885V0h4.884v8.74a6.036 6.036 0 0 1 2.334-2.162c.966-.507 2.04-.76 3.22-.76 1.078 0 1.948.183 2.61.55.66.37 1.17.836 1.525 1.403.355.568.594 1.204.717 1.91.122.706.183 1.397.183 2.074v10.023z" id="a"/></defs><g fill="none" fill-rule="evenodd"><path d="M.303 21.866V6.25h4.88v15.616H.302zm0-17.402V.15h4.88v4.314H.302zM23.68 21.866h-4.878V13.09c0-1.03-.198-1.78-.594-2.245-.397-.466-.92-.7-1.57-.7-.346 0-.697.07-1.053.21-.355.138-.69.33-1.006.58-.316.247-.606.54-.87.876a3.92 3.92 0 0 0-.61 1.102v8.954H8.22V6.25h4.392v2.616c.59-.932 1.423-1.65 2.5-2.156 1.078-.506 2.318-.76 3.72-.76 1.038 0 1.876.185 2.517.552.64.366 1.132.842 1.477 1.427.346.584.575 1.224.687 1.918.11.694.167 1.37.167 2.023v9.996zm9.627.298c-.67 0-1.367-.05-2.09-.15-.72-.098-1.437-.232-2.15-.4a16.253 16.253 0 0 1-2.042-.625 10.39 10.39 0 0 1-1.707-.82l1.92-3.212a16.555 16.555 0 0 0 3.08 1.368c.997.317 1.952.476 2.867.476.71 0 1.255-.11 1.63-.327.377-.218.565-.536.565-.952 0-.416-.254-.74-.762-.967-.508-.228-1.382-.5-2.622-.818a28.85 28.85 0 0 1-2.745-.833c-.75-.277-1.356-.59-1.813-.937-.457-.347-.788-.74-.99-1.175-.204-.436-.306-.952-.306-1.547 0-.793.17-1.517.504-2.17a4.923 4.923 0 0 1 1.388-1.667c.59-.457 1.285-.814 2.088-1.072.803-.258 1.683-.387 2.638-.387 1.118 0 2.262.165 3.43.492 1.17.327 2.313.778 3.43 1.354L37.7 10.8c-.996-.535-1.886-.927-2.668-1.175a7.51 7.51 0 0 0-2.272-.372c-.61 0-1.113.104-1.51.313-.396.208-.594.54-.594.996 0 .218.05.402.152.55.102.15.27.288.504.417.233.128.543.247.93.356.386.11.864.233 1.433.372 1.18.297 2.175.595 2.988.892.814.298 1.475.63 1.983.997s.874.788 1.098 1.264c.225.477.336 1.042.336 1.697 0 .773-.157 1.472-.472 2.097a4.465 4.465 0 0 1-1.357 1.59c-.59.437-1.3.775-2.135 1.013-.833.238-1.768.357-2.805.357zm19.078-1.13c-.67.277-1.433.535-2.287.773a9.722 9.722 0 0 1-2.622.357c-.61 0-1.184-.075-1.723-.224a3.88 3.88 0 0 1-1.418-.713 3.34 3.34 0 0 1-.96-1.294c-.234-.536-.35-1.18-.35-1.934V9.847H40.98v-3.6h2.044V1.282h4.88v4.97h3.262v3.598h-3.263v6.515c0 .515.137.887.412 1.115.274.228.614.342 1.02.342.347 0 .713-.06 1.1-.178.385-.12.73-.248 1.036-.387l.915 3.778zm6.18 1.13c-.793 0-1.53-.124-2.21-.372a5.198 5.198 0 0 1-1.754-1.04 5 5 0 0 1-1.158-1.578 4.588 4.588 0 0 1-.426-1.978c0-.774.167-1.478.503-2.112a4.878 4.878 0 0 1 1.417-1.636c.61-.457 1.33-.814 2.165-1.07.833-.26 1.758-.388 2.774-.388.67 0 1.322.054 1.952.164.63.11 1.18.272 1.647.49v-.714c0-1.804-1.068-2.707-3.202-2.707-.874 0-1.708.144-2.5.432-.793.287-1.627.72-2.5 1.294l-1.434-2.976a12.942 12.942 0 0 1 3.292-1.517 12.717 12.717 0 0 1 3.63-.506c2.418 0 4.288.557 5.61 1.667 1.32 1.11 1.982 2.737 1.982 4.88v4.015c0 .476.09.808.274.996.183.19.508.303.976.342v4.016c-.468.1-.9.164-1.296.193-.397.03-.747.044-1.052.044-.895-.02-1.576-.198-2.043-.535-.468-.34-.763-.824-.885-1.46l-.09-.713a7.274 7.274 0 0 1-2.547 2.053 7.1 7.1 0 0 1-3.125.714zm1.433-3.42c.53 0 1.042-.09 1.54-.27.498-.178.91-.416 1.235-.713.468-.356.702-.733.702-1.13v-1.487a8.058 8.058 0 0 0-1.388-.372 7.9 7.9 0 0 0-1.387-.133c-.895 0-1.632.2-2.21.595-.58.397-.87.913-.87 1.547 0 .574.224 1.045.67 1.412.448.367 1.017.55 1.708.55zm27.19 3.122h-4.88V13.09c0-1.03-.197-1.78-.593-2.245-.397-.466-.92-.7-1.57-.7-.346 0-.697.07-1.053.21-.356.138-.69.33-1.006.58-.315.247-.605.54-.87.876a3.92 3.92 0 0 0-.61 1.102v8.954H71.73V6.25h4.39v2.616c.59-.932 1.424-1.65 2.502-2.156 1.077-.506 2.317-.76 3.72-.76 1.036 0 1.875.185 2.515.552.64.366 1.134.842 1.48 1.427.345.584.574 1.224.685 1.918.112.694.168 1.37.168 2.023v9.996zm13.254-.833c-.67.278-1.433.536-2.287.774a9.722 9.722 0 0 1-2.622.357c-.61 0-1.184-.075-1.723-.224a3.88 3.88 0 0 1-1.418-.713 3.34 3.34 0 0 1-.96-1.294c-.234-.536-.35-1.18-.35-1.934V9.847h-2.044v-3.6h2.043V1.282h4.88v4.97h3.263v3.598H95.96v6.515c0 .515.137.887.412 1.115.274.228.614.342 1.02.342.347 0 .713-.06 1.1-.178.385-.12.73-.248 1.036-.387l.914 3.778zm100.922.833v-2.528h1.342v2.528h-1.342zm2.582 5.265c-.65 0-1.256-.083-1.815-.25a3.987 3.987 0 0 1-1.508-.85l.823-.98c.346.277.722.465 1.13.564.405.1.812.15 1.218.15a2.97 2.97 0 0 0 1.13-.224c.364-.15.69-.357.974-.625a3.34 3.34 0 0 0 .702-.952c.182-.367.273-.768.273-1.204V6.396h1.525V22.7a4.11 4.11 0 0 1-.38 1.784c-.256.535-.596 1-1.023 1.398a4.76 4.76 0 0 1-1.433.922 4.2 4.2 0 0 1-1.616.327zm2.927-24.243V.15h1.525v2.737h-1.525zM217.9 22.164c-1.218 0-2.387-.2-3.505-.595a8.14 8.14 0 0 1-2.928-1.786l.763-1.012c.854.754 1.738 1.31 2.653 1.666.914.357 1.92.536 3.018.536 1.384 0 2.497-.283 3.34-.848.844-.565 1.266-1.354 1.266-2.365 0-.475-.107-.877-.32-1.204-.214-.327-.534-.605-.96-.833-.428-.228-.956-.43-1.587-.61a54.194 54.194 0 0 0-2.196-.565 33.28 33.28 0 0 1-2.333-.595c-.66-.198-1.203-.436-1.63-.714a2.78 2.78 0 0 1-.96-1.012c-.214-.397-.32-.902-.32-1.517 0-.773.152-1.447.457-2.022a4.016 4.016 0 0 1 1.265-1.428c.54-.377 1.16-.66 1.86-.848a8.608 8.608 0 0 1 2.24-.282c1.24 0 2.34.203 3.295.61.955.406 1.697.927 2.226 1.56l-.854.804c-.53-.594-1.216-1.04-2.06-1.338a8.056 8.056 0 0 0-2.698-.446c-.59 0-1.144.06-1.662.178-.518.12-.97.307-1.357.565a2.81 2.81 0 0 0-.915.997c-.223.406-.335.887-.335 1.443 0 .456.076.823.23 1.1.15.278.395.516.73.714.336.198.768.372 1.296.52.528.15 1.158.313 1.89.492.996.237 1.88.465 2.653.683.772.218 1.418.486 1.936.803.518.317.914.694 1.188 1.13.275.437.412.992.412 1.666 0 1.388-.554 2.494-1.662 3.317-1.108.822-2.587 1.234-4.437 1.234z" fill="#FFF"/><g transform="translate(.303 .15)"><use fill="#00B7E5" xlink:href="#a"/><use xlink:href="#a"/></g></g></svg>