<svg width="164" height="165" xmlns="http://www.w3.org/2000/svg"><g fill="none" fill-rule="evenodd"><path d="M14.6 11.3h134.8c8 0 14.6 6.5 14.6 14.6v123.6c0 8-6.5 14.6-14.6 14.6H14.6c-8 0-14.6-6.5-14.6-14.6V25.8c0-8 6.5-14.5 14.6-14.5z" fill="#35489E"/><path d="M14.6 0h134.8c8 0 14.6 6.5 14.6 14.6v123.6c0 8-6.5 14.6-14.6 14.6H14.6c-8 0-14.6-6.5-14.6-14.6V14.6C0 6.5 6.5 0 14.6 0z" fill="#4C5BA9"/><g fill="#FFF"><path d="M65.8 51.9c-1.5 8.5 4.1 16.5 12.6 18 3.1.5 6.3.1 9.1-1.2l6.1 8.8c.4.6 1.1 1 1.8 1.2 1.5.3 3-.8 3.3-2.3.1-.7 0-1.5-.5-2.1l-6.1-8.8c2.2-2.2 3.7-5.1 4.2-8.2 1.5-8.5-4.1-16.5-12.6-18-8.4-1.5-16.4 4.1-17.9 12.6zm5.6 1c.9-5.4 6.1-9 11.4-8 5.4.9 8.9 6.1 8 11.5-.9 5.4-6.1 9-11.4 8-5.4-1-9-6.2-8-11.5zm19.9 39.3H80.6c-.7 0-1.5.3-2 .8-1.1 1.1-1.1 2.9 0 4 .5.5 1.3.8 2 .8h10.7c.6 3.1 2.1 5.9 4.3 8.2 6.1 6.1 15.9 6 22 0 6.1-6.1 6.1-15.9 0-22s-15.9-6-22 0c-2.2 2.3-3.7 5.1-4.3 8.2zm8.3-4.2c3.9-3.9 10.1-3.9 14 0 3.8 3.8 3.8 10.1 0 14-3.9 3.9-10.1 3.9-14 0-3.8-3.8-3.8-10.1 0-14zM75 73.7c-.4-1.5-1.9-2.4-3.4-2.1-.7.2-1.4.7-1.7 1.3l-5.5 9.2c-2.9-1.1-6.1-1.3-9.2-.5-8.3 2.1-13.4 10.5-11.3 18.9 2.1 8.3 10.5 13.4 18.8 11.4C71 109.8 76 101.3 74 93c-.8-3.1-2.4-5.8-4.8-7.9l5.5-9.2c.3-.6.5-1.4.3-2.2zm-13.7 32.6c-5.3 1.3-10.7-1.9-12-7.2-1.3-5.3 1.9-10.7 7.2-12 5.3-1.3 10.7 1.9 12 7.2 1.3 5.3-1.9 10.7-7.2 12z"/><path d="M125.1 57.7c2.2-15.5-1-27.4-9.3-32.2-7.8-4.5-18.5-2.2-30.3 6.3-1.1.8-1.3 2.2-.5 3.3.8 1.1 2.2 1.3 3.3.5 10-7.3 19.2-9.5 25.2-6.1 6.4 3.7 8.8 13.6 7.1 26.5-4.8-1.6-10-2.9-15.7-3.8-1.3-.2-2.5.7-2.7 1.9-.2 1.3.7 2.5 1.9 2.7 5.7.9 11 2.3 15.7 3.9-.8 4.3-2.1 8.9-3.8 13.6-.4 1.2.2 2.6 1.4 3 .3.1.5.1.8.1 1 0 1.9-.6 2.2-1.6 1.7-4.7 2.9-9.2 3.8-13.5 12 5 19.4 12.1 19.4 19.4 0 6.6-5.8 13-16.3 18.1-1.2.6-1.7 2-1.1 3.1.4.8 1.2 1.3 2.1 1.3.3 0 .7-.1 1-.2 12.3-5.9 19-13.8 19-22.3.1-9.5-8.6-18.2-23.2-24zm-2.1 50.2c-1.3.1-2.3 1.3-2.1 2.6 1 11.8-1.7 20.4-7.4 23.7-6.6 3.8-17 .6-27.8-8.1 2.8-2.6 5.6-5.4 8.3-8.6.9-1 .7-2.5-.2-3.3-1-.8-2.5-.7-3.3.2-2.8 3.2-5.5 6.1-8.3 8.6-2.8-2.5-5.6-5.4-8.3-8.6-.9-1-2.3-1.1-3.3-.2-1 .9-1.1 2.3-.2 3.3 2.7 3.2 5.5 6 8.3 8.6-10.8 8.7-21.2 11.9-27.8 8.1-5.8-3.3-8.5-12-7.4-23.7.1-1.3-.8-2.4-2.1-2.6-1.3-.1-2.4.8-2.6 2.1-1.2 13.9 2.3 23.9 9.8 28.2 2.6 1.5 5.5 2.2 8.7 2.2 7.4 0 16.2-3.9 25.1-11.3 8.9 7.3 17.7 11.3 25.1 11.3 3.2 0 6.1-.7 8.7-2.2 7.5-4.3 11-14.4 9.8-28.2-.6-1.2-1.7-2.2-3-2.1zm-86.4-8c-10.5-5-16.3-11.4-16.3-18.1 0-7.3 7.4-14.4 19.4-19.4.9 4.3 2.2 8.8 3.8 13.5.3 1 1.3 1.6 2.2 1.6.3 0 .5 0 .8-.1 1.2-.4 1.9-1.8 1.4-3-1.7-4.8-3-9.3-3.8-13.6 4.7-1.6 10-3 15.7-3.9 1.3-.2 2.2-1.4 1.9-2.7-.2-1.3-1.4-2.1-2.7-1.9-5.7.9-11 2.2-15.7 3.8-1.7-12.9.7-22.8 7.1-26.5 6-3.4 15.1-1.2 25.2 6.1 1.1.8 2.5.5 3.3-.5.8-1.1.5-2.5-.5-3.3-11.7-8.7-22.5-10.9-30.2-6.5-8.3 4.8-11.5 16.7-9.3 32.2-14.6 5.8-23.3 14.5-23.3 24.2 0 8.5 6.7 16.5 19 22.3.3.2.7.2 1 .2.9 0 1.7-.5 2.1-1.3.6-1.1.1-2.5-1.1-3.1z"/></g></g></svg>