<svg width="70" height="91" viewBox="0 0 70 91" xmlns="http://www.w3.org/2000/svg"><title>al-helper-logo</title><g fill="none" fill-rule="evenodd"><path d="M4.856 64.371c-5.683 3.382-5.676 8.856.01 12.224l19.197 11.367c5.689 3.369 14.898 3.35 20.577-.044l20.75-12.406c5.676-3.394 5.648-8.843-.066-12.174L46 52.07c-5.711-3.33-14.946-3.29-20.632.094L4.856 64.37z" opacity=".208" fill="#DE5C22"/><path d="M32.951 75.374c.898.522 2.354.528 3.258.01L66.33 58.12c.903-.517 1.634-1.786 1.634-2.827V20.927c0-1.045-.735-2.31-1.634-2.824L37.325 1.56c-.902-.515-2.369-.51-3.27.007L4.323 18.617c-.904.519-1.637 1.79-1.637 2.834v34.418c0 1.046.726 2.317 1.626 2.84l28.64 16.665z" stroke="#634A21" stroke-width="2.362" fill="#EEF8FF"/><path d="M35.032 74.544V39.092L4.146 20.51s-.336.567-.27 1.171V55.886c0 .662.458 1.466 1.03 1.801 0 0-.65-.38.033.019 3.07 1.797 26.123 15.224 28.43 16.553.763.477 1.663.285 1.663.285z" fill-opacity=".5" fill="#CAD3D9"/><path d="M35.029 74.548V39.092l31.546-18.951s.238.34.206 1.14v35.21s-20.525 11.774-30.728 17.63c-.67.427-1.024.427-1.024.427z" fill-opacity=".25" fill="#000"/><g stroke="#634A22" stroke-width="1.575" stroke-dasharray="3.779999828338623,8.977499771118163"><path d="M34.843 39.028L3.073 19.986M35.61 38.634l32.13-19.136M34.951 38.94v36.95"/></g><g><g transform="translate(31.317 20.902)"><ellipse stroke="#634A22" stroke-width=".84" fill="#FFF" cx="4.042" cy="2.279" rx="4.042" ry="2.279"/><path d="M0 2.292v2.843s1.085 1.769 4.005 1.769 4.082-1.77 4.082-1.77V2.293" stroke="#634A22" stroke-width=".84"/><path fill="#634A22" d="M.003 3.591v1.59l1.793 1.327 2.236.437 2.917-.762 1.117-1.23V3.118l-1.413.76-2.45.63-2.905-.635z"/></g><g transform="translate(31.317 8.332)"><ellipse stroke="#634A22" stroke-width=".84" fill="#FFF" cx="4.042" cy="2.279" rx="4.042" ry="2.279"/><path d="M0 2.292v2.843s1.085 1.769 4.005 1.769 4.082-1.77 4.082-1.77V2.293" stroke="#634A22" stroke-width=".84"/><path fill="#634A22" d="M.003 3.591v1.59l1.793 1.327 2.236.437 2.917-.762 1.117-1.23V3.118l-1.413.76-2.45.63-2.905-.635z"/></g><g transform="translate(18.741 14.617)"><ellipse stroke="#634A22" stroke-width=".84" fill="#FFF" cx="4.042" cy="2.279" rx="4.042" ry="2.279"/><path d="M0 2.292v2.843s1.085 1.769 4.005 1.769 4.082-1.77 4.082-1.77V2.293" stroke="#634A22" stroke-width=".84"/><path fill="#634A22" d="M.003 3.591v1.59l1.793 1.327 2.236.437 2.917-.762 1.117-1.23V3.118l-1.413.76-2.45.63-2.905-.635z"/></g><g transform="translate(43.892 14.617)"><ellipse stroke="#634A22" stroke-width=".84" fill="#FFF" cx="4.042" cy="2.279" rx="4.042" ry="2.279"/><path d="M0 2.292v2.843s1.085 1.769 4.005 1.769 4.082-1.77 4.082-1.77V2.293" stroke="#634A22" stroke-width=".84"/><path fill="#634A22" d="M.003 3.591v1.59l1.793 1.327 2.236.437 2.917-.762 1.117-1.23V3.118l-1.413.76-2.45.63-2.905-.635z"/></g></g></g></svg>