<svg xmlns="http://www.w3.org/2000/svg" id="Layer_1" viewBox="0 0 400 400"><style>.st0{fill:url(#SVGID_1_)}.st1{fill:url(#SVGID_2_)}.st2{fill:url(#SVGID_3_)}.st3{fill:url(#SVGID_4_)}.st4{fill:url(#SVGID_5_)}.st5{fill:url(#SVGID_6_)}</style><linearGradient id="SVGID_1_" gradientUnits="userSpaceOnUse" x1="103.356" y1="337.632" x2="351.282" y2="89.706"><stop offset="0" stop-color="#8E43E7"/><stop offset="1" stop-color="#00AEFF"/></linearGradient><path class="st0" d="M358.8 144.3c-8.9-5.8-19.2-11-30.5-15.5 6.4-45.7-3.3-80.8-28.1-95.2-23.1-13.5-55.3-6.8-90.5 18.7-3.6 2.6-4.4 7.6-1.8 11.2 2.6 3.6 7.6 4.4 11.2 1.8 29.4-21.3 56-27.8 73.1-17.8 18.3 10.6 25.4 38.8 20.8 75.8-13.9-4.5-29.1-8.2-45.4-10.9-4.4-.7-8.5 2.2-9.2 6.6-.7 4.4 2.2 8.5 6.6 9.2 16.4 2.7 31.7 6.5 45.3 11.1-2.5 12.5-6.2 25.7-11.1 39.4-1.5 4.2.7 8.7 4.9 10.2.9.3 1.8.5 2.7.5 3.3 0 6.4-2 7.5-5.3 4.8-13.5 8.5-26.6 11.1-39 34.3 14.5 55.5 34.8 55.5 55.8 0 18.9-17.3 38-47.4 52.3-4 1.9-5.7 6.7-3.8 10.7 1.4 2.9 4.2 4.6 7.2 4.6 1.2 0 2.3-.2 3.4-.8 36.5-17.3 56.6-41 56.6-66.7.1-21-13.1-40.6-38.1-56.7z"/><linearGradient id="SVGID_2_" gradientUnits="userSpaceOnUse" x1="131.228" y1="380.095" x2="391.643" y2="119.68"><stop offset="0" stop-color="#8E43E7"/><stop offset="1" stop-color="#00AEFF"/></linearGradient><path class="st1" d="M320.9 276.7c-4.4.4-7.7 4.2-7.3 8.6 3 34.9-4.7 59.4-21.4 69.1-5.4 3.1-11.6 4.6-18.4 4.6-17.5 0-39.1-9.8-61.5-27.6 8-7.4 16-15.7 23.8-24.8 2.9-3.3 2.5-8.4-.8-11.3-3.3-2.9-8.4-2.5-11.3.8-8 9.4-16 17.6-24 24.9-8-7.3-16-15.6-23.9-24.8-2.9-3.3-7.9-3.7-11.3-.8-3.3 2.9-3.7 7.9-.8 11.3 7.8 9.1 15.8 17.3 23.8 24.8-22.5 17.8-44.1 27.6-61.5 27.6-6.8 0-13-1.5-18.4-4.6-16.8-9.7-24.4-34.2-21.4-69.1.4-4.4-2.9-8.3-7.3-8.6-4.4-.4-8.3 2.9-8.6 7.3-3.5 41.4 6.9 71.3 29.4 84.3 7.8 4.5 16.7 6.8 26.3 6.8 11.9 0 25.1-3.4 39-10.2 11.4-5.5 23.1-13.2 34.8-22.7 11.7 9.5 23.4 17.2 34.8 22.7 14 6.8 27.1 10.2 39 10.2 9.7 0 18.5-2.2 26.3-6.8 22.5-13 32.9-42.9 29.4-84.3-.4-4.5-4.3-7.8-8.7-7.4z"/><linearGradient id="SVGID_3_" gradientUnits="userSpaceOnUse" x1="-10.814" y1="243.7" x2="245.438" y2="-12.553"><stop offset="0" stop-color="#8E43E7"/><stop offset="1" stop-color="#00AEFF"/></linearGradient><path class="st2" d="M66.4 253.1C36.3 238.8 19 219.7 19 200.8c0-21 21.2-41.3 55.6-55.8 2.6 12.4 6.3 25.5 11.1 39 1.2 3.3 4.2 5.3 7.5 5.3.9 0 1.8-.1 2.7-.5 4.2-1.5 6.3-6.1 4.9-10.2-4.9-13.7-8.6-26.9-11.1-39.4 13.6-4.6 28.9-8.4 45.2-11.2 4.4-.7 7.3-4.8 6.6-9.2-.7-4.4-4.9-7.3-9.2-6.6-16.2 2.7-31.4 6.4-45.3 10.9-4.6-37 2.5-65.2 20.8-75.8 17.1-10 43.7-3.5 73.1 17.9 3.6 2.6 8.6 1.8 11.2-1.8 2.6-3.6 1.8-8.6-1.8-11.2-35.2-25.5-67.3-32.1-90.4-18.6C75.1 48 65.4 83.1 71.8 128.8c-11.3 4.6-21.6 9.8-30.6 15.6C16.2 160.5 3 180 3 200.8c0 25.7 20.1 49.4 56.6 66.7 1.1.5 2.3.8 3.4.8 3 0 5.9-1.7 7.2-4.6 1.9-4 .2-8.7-3.8-10.6z"/><linearGradient id="SVGID_4_" gradientUnits="userSpaceOnUse" x1="47.238" y1="300.039" x2="303.847" y2="43.431"><stop offset="0" stop-color="#8E43E7"/><stop offset="1" stop-color="#00AEFF"/></linearGradient><path class="st3" d="M248.2 121.6c0-26.1-21.2-47.3-47.3-47.3-26.1 0-47.3 21.2-47.3 47.3 0 26.1 21.2 47.3 47.3 47.3 5.8 0 11.3-1 16.4-2.9l9.2 15.8 5.9 10.4c1.5 2.6 4.2 4.1 7 4.1 1.3 0 2.7-.3 3.9-1 3.9-2.2 5.2-7 3.1-10.9l-5.9-10.5v-.1l-9.2-15.8c10.2-8.7 16.9-21.8 16.9-36.4zm-31 26.7c-.2.1-.5.2-.7.4-.2.1-.4.3-.6.4-4.4 2.4-9.5 3.8-15 3.8-17.3 0-31.3-14-31.3-31.3s14-31.3 31.3-31.3 31.3 14 31.3 31.3c0 11.3-6 21.2-15 26.7z"/><linearGradient id="SVGID_5_" gradientUnits="userSpaceOnUse" x1="126.736" y1="378.988" x2="387.174" y2="118.549"><stop offset="0" stop-color="#8E43E7"/><stop offset="1" stop-color="#00AEFF"/></linearGradient><path class="st4" d="M225.3 236.5H195c-4.4 0-8 3.6-8 8s3.6 8 8 8h30.3c3.8 22.3 23.3 39.3 46.6 39.3 26.1 0 47.3-21.2 47.3-47.3s-21.2-47.3-47.3-47.3c-23.4 0-42.8 17-46.6 39.3zm46.6-23.3c17.3 0 31.3 14 31.3 31.3s-14 31.3-31.3 31.3-31.3-14-31.3-31.3 14-31.3 31.3-31.3z"/><linearGradient id="SVGID_6_" gradientUnits="userSpaceOnUse" x1="61.715" y1="312.784" x2="317.239" y2="57.261"><stop offset="0" stop-color="#8E43E7"/><stop offset="1" stop-color="#00AEFF"/></linearGradient><path class="st5" d="M169.3 192.3l6.1-10.5c2.2-3.8.9-8.7-2.9-10.9-3.8-2.2-8.7-.9-10.9 2.9l-6.1 10.5-9.1 15.8c-5.1-1.9-10.6-2.9-16.3-2.9-26.1 0-47.3 21.2-47.3 47.3s21.2 47.3 47.3 47.3 47.3-21.2 47.3-47.3c0-14.6-6.7-27.7-17.1-36.4l9-15.8zM130 275.8c-17.3 0-31.3-14-31.3-31.3s14-31.3 31.3-31.3c5.1 0 10 1.3 14.3 3.5l1.2.9c.4.2.9.4 1.3.6 8.7 5.6 14.5 15.3 14.5 26.4 0 17.2-14 31.2-31.3 31.2z"/></svg>