<svg width="95" height="30" viewBox="0 0 95 30" xmlns="http://www.w3.org/2000/svg"><title>logo-algolia</title><g fill="none" fill-rule="evenodd"><path d="M57.036 11.646L55.8 16.011l3.98-2.174a4.553 4.553 0 0 0-2.744-2.19zM49.38 8.08a1.524 1.524 0 0 0-2.157 0l-.27.27a1.529 1.529 0 0 0 0 2.16l.288.287a9.99 9.99 0 0 1 2.293-2.562l-.154-.154zM58.696 6.586c.002-.032.01-.064.01-.097v-.764c0-.842-.683-1.526-1.525-1.526h-2.669c-.842 0-1.524.683-1.524 1.526v.75a9.869 9.869 0 0 1 5.708.111" fill="#46AEDA"/><path d="M55.764 10.053c3.346 0 6.068 2.714 6.068 6.048 0 3.335-2.722 6.049-6.068 6.049-3.345 0-6.067-2.714-6.067-6.049 0-3.334 2.722-6.048 6.067-6.048zm-8.494 6.048c0 4.677 3.802 8.468 8.494 8.468s8.495-3.791 8.495-8.468c0-4.676-3.803-8.467-8.495-8.467-4.692 0-8.494 3.791-8.494 8.467z" fill="#46AEDA"/><path d="M16.888 24.11c-.35-.927-.68-1.84-.988-2.736-.309-.896-.628-1.809-.957-2.736H5.247L3.302 24.11H.183A696.945 696.945 0 0 1 2.5 17.82c.72-1.927 1.425-3.757 2.115-5.488.69-1.732 1.374-3.385 2.054-4.962.679-1.577 1.39-3.138 2.13-4.684h2.748a127.891 127.891 0 0 1 2.13 4.684c.68 1.577 1.364 3.23 2.054 4.962.69 1.731 1.395 3.56 2.115 5.488.72 1.927 1.493 4.024 2.316 6.291h-3.273zm-2.81-7.945c-.659-1.794-1.312-3.53-1.96-5.21a93.261 93.261 0 0 0-2.023-4.838 77.263 77.263 0 0 0-2.053 4.838 208.278 208.278 0 0 0-1.93 5.21h7.966zM27.695 24.42c-1.77-.042-3.026-.423-3.767-1.145-.741-.72-1.11-1.844-1.11-3.37V.613l2.87-.494v19.323c0 .474.041.866.123 1.175.083.309.217.556.402.742.185.185.433.324.741.417.31.093.69.17 1.142.232l-.401 2.411M41.374 22.502c-.247.166-.726.377-1.436.634-.71.258-1.539.387-2.486.387a7.975 7.975 0 0 1-2.732-.464 5.937 5.937 0 0 1-2.239-1.438c-.638-.65-1.142-1.458-1.513-2.426-.37-.969-.556-2.123-.556-3.463 0-1.175.175-2.252.525-3.231a7.17 7.17 0 0 1 1.529-2.535c.668-.711 1.486-1.268 2.454-1.67.968-.402 2.059-.603 3.273-.603 1.338 0 2.506.099 3.505.294.999.196 1.837.377 2.517.541v14.346c0 2.473-.638 4.266-1.914 5.379-1.278 1.113-3.212 1.669-5.806 1.669-1.009 0-1.96-.082-2.856-.247a16.39 16.39 0 0 1-2.33-.587l.524-2.504c.576.226 1.281.427 2.115.602.834.175 1.703.263 2.609.263 1.708 0 2.938-.34 3.69-1.02.751-.68 1.127-1.762 1.127-3.246v-.68zm-1.189-12.165c-.484-.072-1.137-.109-1.96-.109-1.544 0-2.733.506-3.567 1.516-.834 1.01-1.25 2.349-1.25 4.019 0 .927.118 1.721.355 2.38.236.66.555 1.206.957 1.64.401.432.864.751 1.39.957.524.207 1.065.31 1.62.31.762 0 1.462-.109 2.1-.325.638-.217 1.142-.469 1.513-.757v-9.4a9.533 9.533 0 0 0-1.158-.231zM72.092 24.42c-1.77-.042-3.026-.423-3.767-1.144-.741-.721-1.112-1.845-1.112-3.37V.614l2.872-.495v19.323c0 .474.041.866.124 1.175.082.309.216.556.401.742.185.185.432.325.741.417.309.093.69.17 1.143.232l-.402 2.412M77.125 5.128c-.514 0-.952-.17-1.312-.51-.36-.34-.54-.799-.54-1.376 0-.577.18-1.036.54-1.376.36-.34.798-.51 1.312-.51s.952.17 1.313.51c.36.34.54.799.54 1.376 0 .577-.18 1.035-.54 1.376-.36.34-.799.51-1.313.51zm-1.42 2.906h2.871V24.11h-2.871V8.034zM88.704 7.632c1.153 0 2.125.15 2.918.448.792.3 1.43.722 1.914 1.268a4.806 4.806 0 0 1 1.035 1.948 9.43 9.43 0 0 1 .308 2.488v10.049l-1.034.17c-.443.072-.942.138-1.497.2-.556.062-1.159.119-1.807.17-.648.051-1.292.078-1.93.078-.906 0-1.74-.093-2.5-.279-.762-.185-1.421-.48-1.977-.88a4.032 4.032 0 0 1-1.297-1.593c-.309-.66-.463-1.453-.463-2.38 0-.887.18-1.65.54-2.288a4.304 4.304 0 0 1 1.467-1.546c.618-.392 1.338-.68 2.162-.866a11.767 11.767 0 0 1 2.593-.278c.288 0 .587.015.896.046.308.03.602.073.88.124.277.052.52.098.726.139.205.042.35.072.432.093v-.804c0-.474-.052-.943-.155-1.407a3.229 3.229 0 0 0-.556-1.236c-.267-.361-.633-.65-1.096-.866-.463-.216-1.065-.325-1.806-.325-.947 0-1.775.067-2.486.201-.71.134-1.24.274-1.59.418l-.34-2.381c.37-.165.989-.325 1.853-.48a15.945 15.945 0 0 1 2.81-.231zm.247 14.407c.68 0 1.282-.016 1.807-.047.524-.03.962-.087 1.312-.17v-4.791c-.207-.103-.54-.19-1.004-.263a11.146 11.146 0 0 0-1.683-.109c-.432 0-.89.031-1.374.093-.483.062-.926.191-1.327.387a2.84 2.84 0 0 0-1.004.804c-.268.34-.401.788-.401 1.344 0 1.031.329 1.747.988 2.149.658.402 1.554.603 2.686.603z" fill="#FFF"/></g></svg>