<svg width="224" height="28" viewBox="0 0 224 28" xmlns="http://www.w3.org/2000/svg" xmlns:xlink="http://www.w3.org/1999/xlink"><title>logo-instantsearch</title><defs><path d="M108.292 22.075c-.672 0-1.369-.05-2.091-.149a22.74 22.74 0 0 1-2.152-.403 16.246 16.246 0 0 1-2.045-.626 10.391 10.391 0 0 1-1.71-.82l1.924-3.222a16.555 16.555 0 0 0 3.082 1.372c.997.318 1.954.477 2.87.477.712 0 1.256-.109 1.632-.328.377-.219.565-.537.565-.954 0-.418-.254-.741-.763-.97-.509-.229-1.384-.502-2.625-.82a28.838 28.838 0 0 1-2.747-.836c-.753-.278-1.358-.591-1.816-.94-.458-.347-.788-.74-.992-1.178-.203-.437-.305-.954-.305-1.55 0-.796.168-1.522.503-2.179a4.935 4.935 0 0 1 1.39-1.67c.59-.458 1.286-.816 2.09-1.074.804-.259 1.684-.388 2.64-.388 1.12 0 2.264.164 3.434.492 1.17.329 2.314.78 3.434 1.358l-1.923 3.013c-.997-.537-1.888-.93-2.67-1.179a7.503 7.503 0 0 0-2.275-.373c-.61 0-1.114.105-1.51.314-.397.208-.596.542-.596.999 0 .219.051.403.153.552.101.15.27.288.503.418.234.129.545.248.931.358.387.109.865.233 1.435.372 1.18.299 2.177.597 2.991.895.814.299 1.475.632 1.984 1 .509.368.875.79 1.099 1.268.224.477.335 1.044.335 1.7 0 .776-.157 1.477-.473 2.103a4.476 4.476 0 0 1-1.358 1.596c-.59.438-1.302.776-2.136 1.014-.835.239-1.77.358-2.808.358zm16.502 0c-1.343 0-2.549-.213-3.617-.641-1.068-.428-1.974-1.01-2.717-1.745a7.464 7.464 0 0 1-1.693-2.55 8.064 8.064 0 0 1-.58-3.029c0-1.133.193-2.202.58-3.207a7.751 7.751 0 0 1 1.678-2.64c.733-.755 1.633-1.352 2.701-1.79 1.069-.437 2.284-.656 3.648-.656 1.363 0 2.574.219 3.632.656 1.058.438 1.953 1.03 2.686 1.775a7.503 7.503 0 0 1 1.663 2.58c.377.975.565 2 .565 3.073 0 .279-.01.552-.03.82-.02.27-.051.503-.092.702h-11.843c.082 1.054.473 1.854 1.175 2.401.702.547 1.501.82 2.396.82.713 0 1.4-.168 2.06-.506.662-.339 1.105-.796 1.328-1.373l4.151 1.134c-.63 1.233-1.607 2.237-2.93 3.013-1.322.775-2.91 1.163-4.761 1.163zm3.388-9.605c-.102-.995-.468-1.78-1.099-2.357-.63-.577-1.414-.865-2.35-.865-.957 0-1.745.293-2.366.88-.62.586-.981 1.367-1.083 2.342h6.898zm11.68 9.605a6.41 6.41 0 0 1-2.213-.373 5.2 5.2 0 0 1-1.755-1.044 5.013 5.013 0 0 1-1.16-1.58 4.608 4.608 0 0 1-.427-1.985c0-.775.167-1.481.503-2.118a4.889 4.889 0 0 1 1.42-1.64c.61-.458 1.332-.816 2.166-1.074.835-.259 1.76-.388 2.778-.388.671 0 1.323.055 1.953.164.631.11 1.18.273 1.649.492v-.716c0-1.81-1.069-2.714-3.205-2.714a7.27 7.27 0 0 0-2.503.432c-.794.289-1.628.721-2.503 1.298l-1.434-2.983a12.943 12.943 0 0 1 3.296-1.522c1.14-.338 2.35-.507 3.632-.507 2.422 0 4.294.557 5.616 1.67 1.323 1.114 1.984 2.745 1.984 4.893v4.027c0 .478.092.81.275 1 .183.189.508.303.976.343v4.027c-.468.1-.9.164-1.297.194-.396.03-.747.045-1.053.045-.895-.02-1.577-.2-2.045-.537-.468-.338-.763-.826-.885-1.462l-.091-.716a7.283 7.283 0 0 1-2.549 2.058 7.095 7.095 0 0 1-3.128.716zm1.434-3.43c.53 0 1.043-.09 1.541-.269.499-.179.911-.417 1.237-.716.468-.358.702-.736.702-1.133v-1.492a8.053 8.053 0 0 0-1.39-.373 7.892 7.892 0 0 0-1.388-.134c-.895 0-1.633.199-2.213.597-.58.397-.87.914-.87 1.55 0 .578.224 1.05.672 1.418.447.368 1.017.552 1.709.552zm21.905-8.443c-1.18.02-2.244.21-3.19.567-.946.358-1.643.895-2.09 1.611v9.397h-4.884V6.115h4.487v3.163c.57-1.054 1.287-1.875 2.151-2.462.865-.586 1.786-.9 2.763-.94.407 0 .661.01.763.03v4.296zm.905 3.73c0-1.075.193-2.104.58-3.088a7.66 7.66 0 0 1 1.679-2.596c.732-.745 1.633-1.337 2.701-1.775 1.068-.437 2.284-.656 3.647-.656 1.852 0 3.409.383 4.67 1.149 1.262.765 2.208 1.765 2.839 2.998l-4.762 1.402c-.63-.995-1.556-1.492-2.777-1.492-1.018 0-1.867.368-2.549 1.104-.681.736-1.022 1.72-1.022 2.953 0 .617.091 1.179.274 1.686.184.507.438.94.764 1.297.325.358.707.637 1.144.836.438.199.9.298 1.389.298.61 0 1.17-.144 1.679-.433.508-.288.885-.66 1.129-1.118l4.761 1.432c-.59 1.213-1.53 2.207-2.823 2.983-1.292.775-2.864 1.163-4.716 1.163-1.343 0-2.548-.223-3.616-.67-1.069-.448-1.974-1.045-2.717-1.79a7.55 7.55 0 0 1-1.694-2.596 8.371 8.371 0 0 1-.58-3.088zm33.534 7.845h-4.884v-8.8c0-1.015-.208-1.76-.626-2.238-.417-.477-.981-.716-1.693-.716-.285 0-.596.065-.931.194-.336.13-.662.318-.977.567a5.168 5.168 0 0 0-.87.88 3.832 3.832 0 0 0-.61 1.134v8.979h-4.884V0h4.884v8.74a6.036 6.036 0 0 1 2.335-2.162c.966-.507 2.04-.76 3.22-.76 1.078 0 1.948.183 2.61.551.66.368 1.17.835 1.525 1.402.356.567.595 1.203.718 1.91.122.705.183 1.396.183 2.073v10.023z" id="a"/></defs><g fill="none" fill-rule="evenodd"><path d="M.303 21.866V6.25h4.88v15.617H.302zm0-17.402V.15h4.88v4.314H.302zm23.378 17.402h-4.879v-8.775c0-1.032-.198-1.78-.594-2.246-.397-.466-.92-.7-1.57-.7-.346 0-.697.07-1.053.209a3.938 3.938 0 0 0-1.006.58c-.315.248-.605.54-.869.877a3.92 3.92 0 0 0-.61 1.101v8.954H8.221V6.25h4.391v2.617c.59-.932 1.423-1.65 2.5-2.156 1.078-.506 2.318-.759 3.72-.759 1.038 0 1.876.184 2.517.55.64.367 1.133.843 1.478 1.428.346.585.575 1.225.687 1.92.111.693.167 1.368.167 2.022v9.995zm9.626.298c-.671 0-1.367-.05-2.089-.15-.722-.098-1.438-.232-2.15-.4a16.253 16.253 0 0 1-2.043-.625 10.39 10.39 0 0 1-1.707-.819l1.92-3.212a16.555 16.555 0 0 0 3.08 1.368c.997.317 1.952.476 2.867.476.711 0 1.255-.109 1.631-.327.376-.218.564-.536.564-.952 0-.416-.254-.739-.762-.967-.508-.228-1.382-.5-2.622-.818a28.85 28.85 0 0 1-2.745-.833c-.752-.277-1.357-.59-1.814-.937-.457-.347-.788-.739-.991-1.175-.203-.436-.305-.952-.305-1.547 0-.793.168-1.517.503-2.171a4.923 4.923 0 0 1 1.388-1.666c.59-.456 1.285-.813 2.088-1.071.803-.258 1.683-.387 2.638-.387 1.118 0 2.262.164 3.43.491 1.17.327 2.313.778 3.431 1.354L37.698 10.8c-.996-.535-1.886-.927-2.668-1.175a7.509 7.509 0 0 0-2.272-.372c-.61 0-1.113.104-1.51.313-.396.208-.594.54-.594.996 0 .218.05.402.152.55.102.15.27.288.504.417.233.129.543.248.93.357.386.109.864.233 1.433.372 1.179.297 2.175.595 2.988.892.813.298 1.474.63 1.982.997s.874.788 1.098 1.264c.224.476.335 1.041.335 1.696 0 .773-.157 1.472-.472 2.097a4.465 4.465 0 0 1-1.357 1.591c-.59.436-1.301.774-2.135 1.012-.833.238-1.768.357-2.805.357zm19.078-1.13c-.67.277-1.433.535-2.287.773a9.722 9.722 0 0 1-2.622.357c-.61 0-1.184-.075-1.723-.224a3.879 3.879 0 0 1-1.418-.713 3.34 3.34 0 0 1-.96-1.294c-.234-.536-.351-1.18-.351-1.934v-8.15h-2.043v-3.6h2.043V1.28h4.879v4.968h3.263v3.6h-3.263v6.514c0 .515.137.887.412 1.115.274.228.614.342 1.021.342.346 0 .712-.059 1.098-.178a8.674 8.674 0 0 0 1.037-.387l.914 3.778zm6.18 1.13c-.793 0-1.53-.124-2.21-.372A5.198 5.198 0 0 1 54.6 20.75a5 5 0 0 1-1.159-1.577 4.588 4.588 0 0 1-.426-1.978c0-.774.167-1.478.503-2.112a4.878 4.878 0 0 1 1.418-1.636c.61-.457 1.331-.814 2.165-1.071.833-.258 1.758-.387 2.774-.387.671 0 1.322.054 1.952.164.63.109 1.18.272 1.647.49v-.714c0-1.804-1.068-2.707-3.202-2.707-.874 0-1.708.144-2.5.432-.793.287-1.627.719-2.501 1.294l-1.433-2.975a12.942 12.942 0 0 1 3.293-1.517 12.717 12.717 0 0 1 3.629-.506c2.419 0 4.29.556 5.61 1.666 1.322 1.11 1.983 2.737 1.983 4.879v4.016c0 .476.091.808.274.996.183.189.508.303.976.342v4.016c-.468.1-.9.164-1.296.193-.397.03-.747.045-1.052.045-.895-.02-1.576-.198-2.043-.535-.468-.338-.763-.823-.885-1.458l-.091-.714a7.274 7.274 0 0 1-2.546 2.053 7.1 7.1 0 0 1-3.126.714zm1.433-3.421c.529 0 1.042-.09 1.54-.268.498-.179.91-.417 1.235-.714.468-.357.702-.734.702-1.13v-1.488a8.058 8.058 0 0 0-1.388-.372 7.9 7.9 0 0 0-1.387-.134c-.895 0-1.632.199-2.211.595-.58.397-.869.913-.869 1.547 0 .575.224 1.046.67 1.413.448.367 1.017.55 1.708.55zm27.19 3.123h-4.879v-8.775c0-1.032-.198-1.78-.594-2.246-.397-.466-.92-.7-1.57-.7-.346 0-.697.07-1.053.209a3.938 3.938 0 0 0-1.006.58c-.315.248-.605.54-.87.877a3.92 3.92 0 0 0-.609 1.101v8.954h-4.879V6.25h4.391v2.617c.59-.932 1.423-1.65 2.5-2.156 1.078-.506 2.318-.759 3.72-.759 1.037 0 1.876.184 2.516.55.64.367 1.134.843 1.48 1.428.345.585.574 1.225.685 1.92.112.693.168 1.368.168 2.022v9.995zm13.254-.833c-.67.278-1.433.536-2.287.774a9.722 9.722 0 0 1-2.622.357c-.61 0-1.184-.075-1.723-.224a3.879 3.879 0 0 1-1.418-.713 3.34 3.34 0 0 1-.96-1.294c-.234-.536-.351-1.18-.351-1.934v-8.15h-2.043v-3.6h2.043V1.28h4.879v4.968h3.263v3.6H95.96v6.514c0 .515.137.887.412 1.115.274.228.614.342 1.021.342.346 0 .712-.059 1.098-.178a8.674 8.674 0 0 0 1.037-.387l.914 3.778zm100.922.833v-2.528h1.342v2.528h-1.342zm2.582 5.265c-.65 0-1.256-.084-1.815-.252a3.987 3.987 0 0 1-1.509-.848l.823-.982c.346.278.722.466 1.129.565.406.1.813.149 1.22.149a2.97 2.97 0 0 0 1.128-.223c.365-.149.69-.357.975-.625a3.34 3.34 0 0 0 .702-.952c.183-.367.274-.768.274-1.204V6.397h1.525V22.7a4.11 4.11 0 0 1-.381 1.785 4.555 4.555 0 0 1-1.022 1.398 4.759 4.759 0 0 1-1.433.922 4.2 4.2 0 0 1-1.616.327zm2.927-24.244V.15h1.525v2.737h-1.525zm11.028 19.277a10.41 10.41 0 0 1-3.506-.595 8.14 8.14 0 0 1-2.928-1.785l.763-1.012c.854.754 1.738 1.31 2.653 1.666.914.357 1.92.536 3.018.536 1.383 0 2.496-.283 3.34-.848.843-.565 1.265-1.354 1.265-2.365 0-.476-.107-.878-.32-1.205-.214-.327-.534-.605-.96-.833-.428-.228-.956-.431-1.587-.61a54.194 54.194 0 0 0-2.195-.565 33.281 33.281 0 0 1-2.333-.595c-.66-.198-1.204-.436-1.631-.714a2.781 2.781 0 0 1-.96-1.011c-.214-.397-.32-.902-.32-1.517 0-.774.152-1.448.457-2.023a4.016 4.016 0 0 1 1.265-1.428 5.872 5.872 0 0 1 1.86-.848 8.608 8.608 0 0 1 2.241-.282c1.24 0 2.338.203 3.294.61.955.406 1.697.927 2.226 1.561l-.854.803c-.529-.594-1.215-1.04-2.058-1.338a8.056 8.056 0 0 0-2.7-.446c-.589 0-1.143.06-1.661.178-.518.12-.97.307-1.357.565-.386.258-.691.59-.915.997-.223.406-.335.887-.335 1.443 0 .456.076.823.229 1.1.152.278.396.516.731.714.336.198.768.372 1.296.52.529.15 1.16.313 1.89.492.997.238 1.881.466 2.654.684.772.218 1.418.486 1.936.803.519.317.915.694 1.19 1.13.274.437.411.992.411 1.666 0 1.388-.554 2.494-1.662 3.317-1.108.823-2.587 1.235-4.437 1.235z" fill="#FFF"/><g transform="translate(.303 .15)"><use fill="#00B7E5" xlink:href="#a"/><use xlink:href="#a"/></g></g></svg>