<svg width="230" height="175" viewBox="0 0 230 175" xmlns="http://www.w3.org/2000/svg" xmlns:xlink="http://www.w3.org/1999/xlink"><title>logo-algolia-bg</title><defs><path d="M311.413 134.714l-16.011 57.856 51.565-28.82c-7.489-14.002-20.267-24.59-35.554-29.036zm-126.534 59.052c0 61.978 49.267 112.234 110.06 112.234C355.733 306 405 255.744 405 193.766c0-61.98-49.267-112.235-110.06-112.235-60.794 0-110.061 50.256-110.061 112.235zm110.06-80.168c43.347 0 78.615 35.965 78.615 80.168 0 44.202-35.268 80.167-78.615 80.167-43.346 0-78.614-35.965-78.614-80.167 0-44.203 35.268-80.168 78.614-80.168zm37.988-45.949c.03-.435.123-.85.123-1.295V56.236c-.005-11.17-8.846-20.23-19.756-20.236h-34.578c-10.906.005-19.752 9.06-19.752 20.236v9.941c11.01-3.157 22.592-4.882 34.574-4.882 13.735 0 26.967 2.246 39.389 6.354zM212.22 87.455c-7.714-7.902-20.23-7.897-27.945 0l-3.492 3.577c-7.715 7.897-7.71 20.717 0 28.619l3.72 3.804a131.45 131.45 0 0 1 29.713-33.95l-1.996-2.05z" id="a"/></defs><g transform="translate(-175 -36)" opacity=".652" fill="none" fill-rule="evenodd"><use fill="#387299" xlink:href="#a"/><use xlink:href="#a"/></g></svg>